<?xml version="1.0" encoding="UTF-8" standalone="no"?>
<!-- Created with Inkscape (http://www.inkscape.org/) -->

<svg
   width="320mm"
   height="320mm"
   viewBox="0 0 320 320"
   version="1.1"
   id="svg5"
   inkscape:version="1.1.2 (0a00cf5339, 2022-02-04)"
   sodipodi:docname="main.svg"
   xmlns:inkscape="http://www.inkscape.org/namespaces/inkscape"
   xmlns:sodipodi="http://sodipodi.sourceforge.net/DTD/sodipodi-0.dtd"
   xmlns="http://www.w3.org/2000/svg"
   xmlns:svg="http://www.w3.org/2000/svg">
  <sodipodi:namedview
     id="namedview7"
     pagecolor="#ffffff"
     bordercolor="#111111"
     borderopacity="1"
     inkscape:pageshadow="0"
     inkscape:pageopacity="0"
     inkscape:pagecheckerboard="1"
     inkscape:document-units="mm"
     showgrid="false"
     height="296mm"
     inkscape:zoom="0.35355339"
     inkscape:cx="230.51681"
     inkscape:cy="548.71486"
     inkscape:window-width="1920"
     inkscape:window-height="1128"
     inkscape:window-x="0"
     inkscape:window-y="0"
     inkscape:window-maximized="1"
     inkscape:current-layer="layer1" />
  <defs
     id="defs2" />
  <g
     inkscape:label="Слой 1"
     inkscape:groupmode="layer"
     id="layer1">
    <path
       style="fill:#d40000;stroke-width:1.35571;stroke-linecap:round;stroke-linejoin:round;paint-order:stroke markers fill"
       id="path1080"
       d="m 84.680975,77.585919 c -0.256734,0.15846 -1.030107,0.628576 -0.770199,0.475383 0.519183,-0.306013 1.20177,-0.440678 1.548096,-0.93388 0.2686,-0.382512 -0.849737,0.390991 -1.285525,0.559952 -1.298953,0.503629 -2.590824,0.79251 -3.961214,1.005357 -2.058319,0.219323 -3.869409,-0.380861 -5.122433,-2.040418 -1.480344,-2.737832 -0.473071,-3.800194 1.666775,-5.7204 1.284641,-1.283581 4.733385,-2.368025 8.80521,-2.651059 5.458787,0.20766 10.720564,1.992181 15.979785,3.33897 4.24871,1.062086 8.57906,2.10564 12.99285,2.025687 2.73976,-0.04963 3.6502,-0.335522 6.30401,-0.837868 6.4098,-1.602019 11.98369,-5.268174 17.25281,-9.127374 2.49647,-1.835614 4.8996,-3.796897 7.07947,-6.001012 1.29166,-1.356412 2.14439,-1.947213 1.03896,-3.768231 -1.23013,-1.220425 -3.22798,-2.261541 -5.02841,-1.822384 -0.49916,0.121756 -0.94684,0.39928 -1.42027,0.598916 -1.35358,0.858189 -2.79397,1.592744 -4.06073,2.57456 -0.76776,0.595066 -2.37263,3.101447 -2.79241,3.78652 -1.77526,2.897126 -3.24272,5.96562 -4.72896,9.015397 -4.41108,9.177545 -8.90897,18.309308 -13.15413,27.565548 -5.7801,13.110097 -11.83835,26.094197 -17.703791,39.165687 -6.098708,13.53777 -11.354608,27.44096 -17.530077,40.94461 -1.350433,2.95293 -2.778027,5.86997 -4.16704,8.80496 -4.180367,8.45606 -8.720752,16.75109 -13.928576,24.62395 -3.206258,4.847 -5.894758,8.60046 -9.912642,12.78814 -1.667511,1.73799 -3.538004,3.26916 -5.307008,4.90372 -1.757432,1.24249 -3.414666,2.64049 -5.272296,3.72749 -0.766806,0.44871 -1.672912,0.60462 -2.530114,0.83816 -4.34827,1.18457 -8.635231,2.03842 -13.087006,0.74229 -0.998438,-0.2907 -1.893044,-0.86135 -2.83957,-1.29202 -0.532174,-0.65257 -1.230093,-1.19956 -1.596526,-1.9577 -1.068665,-2.21105 -0.122271,-4.71099 1.763335,-6.08721 0.127817,-0.0933 0.03275,0.43818 0.190957,0.43464 1.370157,-0.0306 2.718125,-0.3534 4.077187,-0.53009 1.620991,0.10913 3.257191,0.0804 4.862969,0.32733 6.540049,1.00587 12.663044,3.91538 18.553003,6.77628 4.953008,2.4058 9.372501,4.84256 14.224299,7.44729 9.289288,5.26621 18.764061,10.17569 28.880085,13.66581 7.079251,2.4424 8.430321,2.56844 15.817431,4.33124 21.22256,4.40394 43.03686,2.94642 64.52361,1.95459 12.7132,-0.77379 25.41979,-2.42079 37.69677,-5.92483 4.19171,-1.19637 8.31211,-2.64198 12.39449,-4.17034 9.25375,-3.46443 13.61347,-5.7676 22.44465,-9.97371 10.87356,-5.46334 21.4281,-11.5402 31.86275,-17.79302 4.6067,-2.7605 11.58124,-7.07779 16.09152,-10.21732 1.99834,-1.39101 3.90468,-2.90972 5.85702,-4.36457 0,0 -0.10086,0.0397 -0.10086,0.0397 v 0 c -16.5796,11.1521 -33.64837,21.60879 -51.51607,30.58638 -8.78,4.20454 -13.30433,6.59743 -22.50285,10.06173 -4.06994,1.53279 -8.17997,2.9777 -12.36052,4.17642 -12.25118,3.51287 -24.93224,5.16915 -37.6239,5.93415 -21.39965,0.97115 -43.10882,2.31433 -64.24348,-2.05342 -7.15087,-1.713 -8.91378,-1.95213 -15.789161,-4.3036 -10.131078,-3.46498 -19.636352,-8.35688 -28.966555,-13.56093 -4.624883,-2.48015 -9.506909,-5.14955 -14.216598,-7.47246 -5.867165,-2.8938 -11.925626,-5.89306 -18.445577,-6.98473 -1.605867,-0.26888 -3.245547,-0.2662 -4.868317,-0.39931 -1.36511,0.14491 -2.793225,-5e-5 -4.09533,0.43475 -3.151807,1.05248 -7.877362,2.87239 -7.858013,7.0094 0.0038,0.8011 0.167339,1.62819 0.524081,2.34549 0.397286,0.79881 1.119363,1.38951 1.679044,2.08427 0.970318,0.44922 1.886105,1.04268 2.910951,1.34763 9.647422,2.87066 19.088871,-2.75329 26.461439,-8.36976 1.759625,-1.64364 3.62038,-3.18531 5.278876,-4.93095 4.036725,-4.24883 6.604502,-7.88443 9.817128,-12.79746 5.153066,-7.88056 9.647199,-16.17217 13.812483,-24.60926 3.901794,-8.23694 4.432431,-9.17327 8.019537,-17.46477 4.649067,-10.7462 8.915361,-21.65792 13.749852,-32.32502 5.81744,-13.09094 11.90928,-26.05733 17.70002,-39.160527 4.25218,-9.255251 8.7572,-18.386198 13.17159,-27.564451 1.51881,-3.051063 3.00919,-6.132776 4.83598,-9.017261 0.46167,-0.728966 0.93781,-1.451369 1.46848,-2.131762 0.43746,-0.560892 1.4134,-0.873049 1.42973,-1.584181 0.0122,-0.509052 -0.93802,0.396523 -1.40701,0.594785 0.44046,-0.223956 0.84982,-0.524193 1.32137,-0.671865 1.67255,-0.523774 3.58496,0.461565 4.76749,1.565669 0.95302,1.574994 -0.10032,2.173026 -1.14518,3.338556 -2.13936,2.164565 -4.50567,4.085348 -6.95032,5.89463 -1.36655,0.998539 -2.78644,1.922971 -4.14804,2.92825 -0.0489,0.0361 0.23508,-0.04393 0.18176,-0.01478 -2.55906,1.399219 -5.2196,2.575148 -8.05928,3.283411 -2.62264,0.530506 -3.58027,0.839285 -6.2909,0.914155 -4.40196,0.121594 -8.73068,-0.911967 -12.96804,-1.965864 -5.260721,-1.381244 -10.528991,-3.18526 -15.992156,-3.446381 -5.335578,0.327947 -9.736998,2.17733 -13.985034,5.560072 -2.187887,2.063097 -3.122058,3.352607 -1.572613,6.16908 1.257006,1.789658 3.160931,2.522308 5.338147,2.303058 3.577328,-0.543546 6.767757,-1.918552 9.73258,-4.060418 0,0 -2.803822,1.108447 -2.803822,1.108447 z" />
    <path
       style="fill:#d40000;stroke-width:1.17177;stroke-linecap:round;stroke-linejoin:round;paint-order:stroke markers fill"
       id="path1098"
       d="m 176.70382,186.30106 c 0.80944,7.55807 1.14751,15.1497 1.6564,22.72344 0.67062,8.4747 1.13336,17.27725 3.87179,25.32462 0.42496,1.24886 0.98651,2.41786 1.47977,3.62679 2.18093,4.15877 5.18725,7.61513 9.03998,8.1034 0.56115,0.0712 1.11915,-0.0122 1.67871,-0.0191 0.52763,-0.17923 1.07929,-0.27533 1.58287,-0.53749 0.50863,-0.26482 0.99665,-0.60692 1.43282,-1.03252 2.43972,-2.38062 4.18529,-4.10503 5.1727,-7.85101 0.23247,-0.88183 0.36287,-1.81368 0.54428,-2.72051 1.00291,-6.87921 0.96274,-14.00309 1.07277,-21.05997 0.20856,-6.79226 0.27347,-13.60349 0.38478,-20.40843 0.0122,-2.62749 2.3e-4,-5.26952 -0.29086,-7.90214 -0.52193,-2.42878 -1.37906,-0.45965 -2.78874,1.97345 -0.16854,0.29089 -0.021,0.75593 -0.0312,1.13389 0.086,6.55685 0.53276,13.13394 1.17639,19.68498 0.80941,7.79559 2.16479,15.49508 4.0127,23.06028 1.0868,5.23784 1.43125,6.33903 3.88459,10.76626 1.05669,1.691 2.07201,3.46378 3.302,4.94919 0.85871,0.9715 0.68626,-0.16184 1.4145,-1.79198 l -0.0647,0.0597 v 0 c 0,0 1.87048,-0.17486 1.15429,-0.86232 -1.28609,-1.35944 -2.35979,-3.04149 -3.40496,-4.71364 -2.47681,-4.33169 -2.84176,-5.35929 -3.95077,-10.53 -1.88365,-7.50875 -3.30247,-15.14878 -4.07721,-22.91036 -0.61857,-6.5729 -1.08862,-13.18287 -1.00015,-19.74877 0.0214,-0.37487 0.33875,-1.1983 0.063,-1.12471 -3.2116,0.85815 -2.36628,0.83773 -2.08801,2.14605 0.27711,2.58434 0.38629,5.17514 0.37095,7.75863 -0.0306,6.7915 -0.10357,13.58054 -0.32035,20.34915 -0.16054,7.05536 -0.10371,14.19694 -1.19857,21.05425 -0.4858,2.22082 -0.51717,2.91996 -1.37478,4.83951 -0.29369,0.65731 -1.0004,1.07036 -1.00596,1.85718 -0.004,0.50561 1.27614,-0.97627 0.99751,-0.65586 -0.97532,1.12161 -1.74208,1.2556 -2.95196,1.74984 -0.55005,0.0302 -1.09667,0.13704 -1.65015,0.0908 -3.79932,-0.31865 -6.78598,-3.66253 -8.97042,-7.71924 -0.49935,-1.18171 -1.06588,-2.32243 -1.49806,-3.54515 -2.81275,-7.95792 -3.24582,-16.7488 -3.91189,-25.16599 -0.4872,-7.60895 -0.85231,-15.23006 -1.60235,-22.82783 l -2.11198,1.87578 z"
       sodipodi:nodetypes="ccscscsssccccscccccccsccccccccccssscccscccc" />
    <path
       style="fill:#d40000;stroke-width:1.24311;stroke-linecap:round;stroke-linejoin:round;paint-order:stroke markers fill"
       id="path1100"
       d="m 210.53559,169.40498 c 1.71479,6.99059 3.73787,13.90108 5.68329,20.82874 3.12923,11.42041 5.98078,22.91602 8.67874,34.44756 1.18461,5.22569 2.391,10.44947 3.78097,15.62406 0.6876,2.08425 0.40972,1.98744 3.09158,-1.89074 0.14287,-0.20654 -0.10005,-0.49376 -0.1459,-0.74143 -0.24114,-1.30353 -0.17907,-1.01193 -0.37434,-2.55021 -0.46286,-4.99409 -0.8326,-9.99469 -1.38233,-14.98042 -0.53133,-4.65732 -1.30278,-9.2811 -1.5355,-13.96655 -0.16418,-4.80744 0.40401,-9.56388 1.30653,-14.27119 0.9339,-4.47911 2.12173,-8.90189 3.67877,-13.20081 0.59403,-1.40025 1.24527,-2.81089 2.15113,-4.04005 0.21794,-0.29575 0.95562,-1.11483 0.71665,-0.83618 -1.61786,1.88637 -2.10639,1.92981 -0.62153,1.35197 1.81789,-0.31693 2.96182,0.62978 3.97051,2.02842 0.90438,1.43118 1.54669,3.00439 2.26496,4.53343 0.26077,0.53465 0.47287,1.0912 0.70926,1.63661 -0.0272,0.0953 0.0468,0.0392 0.0701,0.0584 0,0 2.50097,-2.33543 2.50097,-2.33543 v 0 c -0.001,-0.0141 0.0497,-0.11415 -0.008,-0.12486 -0.24079,-0.53804 -0.53403,-1.05146 -0.78309,-1.58554 -0.76494,-1.51508 -1.49351,-3.05486 -2.39103,-4.49572 -1.10198,-1.48816 -2.37352,-2.47014 -4.31248,-2.26626 -3.38678,1.02312 -5.4854,5.02726 -6.79527,8.10404 -1.5312,4.3339 -2.72294,8.78111 -3.69215,13.27704 -0.9188,4.73913 -1.44774,9.52568 -1.29494,14.36603 0.20356,4.70227 1.006,9.33272 1.52037,14.00672 0.5138,5.02659 0.88994,10.06264 1.24755,15.10264 0.21082,2.08667 0.075,0.95236 0.30892,2.63341 0.0343,0.24595 -0.12431,0.83931 0.10019,0.73822 3.59351,-1.6181 3.04748,-1.2261 2.34848,-2.97885 -1.78475,-4.9404 -2.75667,-10.1547 -4.22401,-15.1916 -2.88109,-11.42687 -5.78979,-22.84851 -8.97326,-34.19384 -1.94855,-6.92391 -3.74527,-13.89512 -5.73442,-20.80288 0,0 -1.86041,1.71525 -1.86041,1.71525 z" />
    <path
       style="fill:#d40000;stroke-width:1.24311;stroke-linecap:round;stroke-linejoin:round;paint-order:stroke markers fill"
       id="path1102"
       d="m 234.12605,205.06998 c 0.17424,-0.27224 0.33607,-0.55299 0.52268,-0.81672 0.87427,-1.23559 1.70696,-2.0132 1.52099,-1.8572 -2.69401,2.25987 0.34453,0.2189 0.89361,-0.0609 1.98279,-0.68441 3.1525,-0.53388 3.94868,1.52454 0.39906,4.01049 -0.18704,8.05962 -0.27348,12.08343 0.10005,4.38493 0.32224,8.88401 2.3724,12.82973 1.70952,2.39437 4.15955,2.24085 6.72398,1.63661 1.93958,-0.56679 3.52555,-1.79957 5.123,-2.98753 0.59535,-0.69722 4.29266,-2.89335 2.34945,-3.12938 0,0 -0.077,0.0629 -0.077,0.0629 v 0 c -2.37317,3.11748 2.24881,-1.95783 -0.27765,0.38367 -1.59217,1.18809 -3.1374,2.48151 -5.0529,3.10907 -2.41374,0.63882 -4.79011,0.97025 -6.49648,-1.26142 -2.20049,-3.80001 -2.30849,-8.26319 -2.42238,-12.56558 0.10547,-4.06113 0.71798,-8.16825 0.22207,-12.20816 -1.04387,-2.29564 -2.29641,-2.35702 -4.53414,-1.55292 -2.85629,1.2846 -4.9617,3.80564 -6.60043,6.43991 0,0 2.05765,-1.62984 2.05765,-1.62984 z" />
    <path
       style="fill:#d40000;stroke:#000000;stroke-width:1.35571;stroke-linecap:butt;stroke-linejoin:miter;stroke-miterlimit:4;stroke-dasharray:none;stroke-opacity:1"
       d="m 215.82278,99.033563 c 0.44364,0.48183 9.20119,-9.0305 15.069,-8.52724 5.57516,0.71159 9.91447,10.358947 9.91447,10.358947 0,0 1.21,-12.179087 -4.4174,-24.090461 -5.62739,-11.911371 -24.68695,-12.373172 -24.68695,-12.373172 0,0 11.64784,4.591567 12.91386,13.769826 1.06349,6.939601 -9.24769,20.31535 -8.79298,20.8621 z"
       id="path2386"
       sodipodi:nodetypes="cccsccc" />
    <path
       style="fill:#ffffff;stroke:#d40000;stroke-width:1.35571;stroke-linecap:butt;stroke-linejoin:miter;stroke-miterlimit:4;stroke-dasharray:none;stroke-opacity:1"
       d="m 156.46955,122.21555 c 0,0 -2.98989,-7.13322 0.0361,-17.03146 3.02599,-9.898247 18.75644,-7.518837 18.75644,-7.518837 0,0 -17.03762,-3.81661 -13.99867,-13.501511 3.03894,-9.684895 19.5184,-14.000061 19.5184,-14.000061 0,0 -30.20281,2.010473 -41.75469,18.317382 -11.55188,16.306897 17.44243,33.734487 17.44243,33.734487 z"
       id="path6479" />
    <path
       style="fill:#ffffff;stroke:#d40000;stroke-width:1.35571;stroke-linecap:butt;stroke-linejoin:miter;stroke-miterlimit:4;stroke-dasharray:none;stroke-opacity:1"
       d="m 200.18182,127.39205 c 0,0 2.5199,12.40964 8.11936,17.84907 5.59944,5.43941 17.58635,5.55732 17.58635,5.55732 0,0 -7.87771,8.44757 -21.23898,10.06872 -13.36129,1.62114 -23.05187,-6.04005 -23.05187,-6.04005 0,0 13.80827,-0.91343 16.34048,-9.49375 2.53221,-8.58031 2.24466,-17.94131 2.24466,-17.94131"
       id="path6707" />
    <path
       style="fill:#d40000;stroke-width:0.926815;stroke-linecap:round;stroke-linejoin:round;paint-order:stroke markers fill"
       id="path1124-7"
       d="m 94.289399,188.65818 c -0.24387,-2.34393 0.70985,-4.78367 1.90708,-6.72994 1.20893,-1.50467 2.75599,-2.68056 4.585261,-3.25352 0.4858,-0.15216 0.98605,-0.40567 1.48873,-0.33208 0.31719,0.0464 -0.57946,0.28183 -0.86922,0.42276 3.0239,0.1786 4.75585,1.72279 5.71517,4.69438 0.20413,0.63232 0.29033,1.2988 0.43549,1.94819 0.4857,5.92317 -1.35892,11.72616 -3.05179,17.30953 -2.20501,6.93519 -4.680011,13.77456 -7.070131,20.64322 -1.50263,4.10098 -2.71706,8.2952 -3.58959,12.58382 -0.31111,2.04761 -0.71716,4.14585 -0.59372,6.22963 0.33686,0.71994 1.1589,0.27826 1.66453,0.003 0,0 -0.0724,0.009 -0.0724,0.009 v 0 c 0.49233,0.18488 1.04509,-0.0465 1.16847,-0.5794 0.20384,-2.05702 0.14727,-4.14645 0.59806,-6.17754 0.81703,-4.26254 1.98189,-8.43287 3.429441,-12.51542 2.33169,-6.87516 4.74921,-13.72016 6.967,-20.63573 1.45579,-4.83401 3.12667,-10.10749 3.15896,-15.22509 0.005,-0.74057 -0.10307,-1.47737 -0.15457,-2.21605 -0.15362,-0.66431 -0.25008,-1.34547 -0.4608,-1.99294 -0.70487,-2.16592 -2.13253,-4.18808 -4.36857,-4.78111 -0.47749,-0.12662 -0.97741,-0.13476 -1.46613,-0.20204 -4.232231,0.69961 -7.199711,0.8354 -10.009331,4.43795 -1.2097,2.04493 -2.136277,4.5294 -1.970322,6.96106 0,0 2.558412,-0.60203 2.558412,-0.60203 z" />
    <path
       style="fill:#d40000;stroke-width:0.926815;stroke-linecap:round;stroke-linejoin:round;paint-order:stroke markers fill"
       id="path1126-5"
       d="m 102.63348,210.05836 c -0.9337,-1.54204 -2.08011,-2.92993 -3.404091,-4.12595 -1.71388,-1.47757 -3.81561,-1.85653 -5.98253,-1.87712 -3.884564,0.29972 -5.791352,1.23605 -8.343941,3.91075 -2.715572,3.49919 -4.817573,7.45084 -6.653547,11.4971 -1.650681,3.94995 -2.490627,7.21453 -1.924465,11.49846 0.564499,2.48105 2.110994,4.41577 4.465383,5.29763 0.459636,0.17218 0.947481,0.25022 1.421212,0.37529 3.596608,0.24041 7.23325,-0.73443 10.549078,-2.13413 0.14196,-0.0494 1.94331,-0.9405 1.89709,-1.06774 -0.0886,-0.24396 -0.44862,-0.24 -0.67294,-0.35997 0,0 -0.0725,0.008 -0.0725,0.008 v 0 c -1.32968,0.46736 -2.59313,0.99252 -3.848462,1.64152 -0.348536,0.14074 -0.692631,0.29381 -1.045606,0.42224 -0.397193,0.14452 -1.438216,0.0355 -1.203787,0.39616 0.245513,0.37781 1.686268,-0.46845 1.302012,-0.24503 -0.850955,0.49478 -3.365412,0.45263 -4.340725,0.42592 -0.46792,-0.10777 -0.948505,-0.16823 -1.403796,-0.32318 -2.30922,-0.78588 -3.837796,-2.62575 -4.419521,-5.02285 -0.592119,-4.1692 0.166862,-7.46544 1.799966,-11.31628 1.834432,-4.02873 3.907165,-7.99735 6.706681,-11.41183 0.922645,-0.92756 1.811272,-1.79447 2.972196,-2.40386 0.31568,-0.16568 1.3287,-0.36311 0.979558,-0.42492 -0.529081,-0.0937 -1.063474,0.16995 -1.580602,0.31854 -0.312002,0.0897 0.641365,-0.094 0.962057,-0.14081 2.130949,-0.0375 4.217609,0.26757 5.930169,1.69174 1.33334,1.16668 2.50473,2.50216 3.444371,4.02905 0,0 2.46682,-0.65951 2.46682,-0.65951 z" />
    <path
       style="fill:#d40000;stroke-width:0.926815;stroke-linecap:round;stroke-linejoin:round;paint-order:stroke markers fill"
       id="path1124-7-9"
       d="m 151.30052,198.84879 c -1.00691,-2.13063 -0.91568,-4.74857 -0.43117,-6.98163 0.64193,-1.82029 1.71183,-3.44245 3.24782,-4.5893 0.40792,-0.30456 0.79587,-0.70955 1.29454,-0.80673 0.31462,-0.0614 -0.45331,0.45798 -0.67998,0.68697 2.91218,-0.83369 5.05802,0.0492 6.94798,2.5349 0.40216,0.52893 0.70438,1.12917 1.05656,1.69375 2.42132,5.42744 2.60422,11.5138 2.85749,17.34267 0.2181,7.27402 0.14973,14.54712 0.17115,21.81971 -0.0586,4.36722 0.18573,8.72688 0.78387,13.06229 0.38509,2.03499 0.6974,4.14922 1.50448,6.07432 0.55644,0.56759 1.18564,-0.12161 1.57136,-0.54912 0,0 -0.0652,0.0329 -0.0652,0.0329 v 0 c 0.52577,0.0108 0.97061,-0.39024 0.9104,-0.93392 -0.48944,-2.00831 -1.23529,-3.96091 -1.48313,-6.0266 -0.64186,-4.29241 -0.925,-8.61311 -0.91231,-12.94468 -0.0786,-7.25936 -0.0664,-14.51872 -0.26595,-21.77846 -0.2286,-5.04328 -0.39993,-10.57249 -2.06555,-15.41154 -0.24162,-0.70008 -0.58685,-1.35974 -0.88029,-2.03958 -0.36511,-0.57585 -0.68187,-1.18656 -1.09528,-1.72759 -1.38286,-1.8099 -3.40003,-3.24461 -5.70623,-3.06304 -0.49247,0.0388 -0.96683,0.1968 -1.45022,0.29529 -3.76117,2.06274 -6.51594,3.17435 -7.97279,7.50447 -0.46357,2.33028 -0.51438,4.98142 0.44811,7.22065 0,0 2.21429,-1.41593 2.21429,-1.41593 z" />
    <path
       style="fill:#d40000;stroke-width:0.926815;stroke-linecap:round;stroke-linejoin:round;paint-order:stroke markers fill"
       id="path1126-5-1"
       d="m 166.26557,216.27404 c -1.392,-1.14544 -2.9336,-2.07494 -4.57913,-2.76456 -2.10673,-0.82603 -4.21528,-0.48701 -6.26654,0.21172 -3.56568,1.57022 -5.05438,3.08559 -6.57624,6.45512 -1.40236,4.20143 -2.07589,8.62638 -2.46708,13.05244 -0.24827,4.27379 0.0412,7.63224 1.99518,11.48641 1.35488,2.15373 3.45519,3.46656 5.96878,3.51828 0.49071,0.009 0.97685,-0.078 1.46526,-0.117 3.47301,-0.96519 6.58104,-3.0902 9.24555,-5.50974 0.11754,-0.0935 1.52178,-1.5314 1.436,-1.63614 -0.16438,-0.20083 -0.5028,-0.0777 -0.7542,-0.11659 0,0 -0.0658,0.0317 -0.0658,0.0317 v 0 c -1.09965,0.88163 -2.11763,1.79585 -3.08692,2.82422 -0.28219,0.24828 -0.55611,0.50675 -0.84658,0.74491 -0.32684,0.26798 -1.34516,0.51018 -1.00445,0.77274 0.35685,0.27508 1.43571,-1.00085 1.14723,-0.6627 -0.63889,0.74884 -3.02519,1.54242 -3.95425,1.84047 -0.47719,0.0534 -0.95064,0.15563 -1.43155,0.16034 -2.43918,0.0239 -4.49114,-1.20542 -5.83443,-3.27424 -1.94044,-3.73732 -2.31681,-7.09881 -2.05227,-11.27325 0.39553,-4.40901 1.03582,-8.84028 2.54546,-12.98962 0.56308,-1.18092 1.11418,-2.29334 2.00751,-3.25305 0.24294,-0.26095 1.13326,-0.78296 0.78338,-0.72556 -0.53023,0.087 -0.94704,0.51281 -1.38571,0.82439 -0.26462,0.18808 0.57399,-0.30121 0.86101,-0.45169 1.99808,-0.74168 4.06792,-1.14539 6.1557,-0.3693 1.64465,0.65885 3.19246,1.53062 4.58503,2.65981 0,0 2.10882,-1.43981 2.10882,-1.43981 z" />
    <path
       style="fill:#d40000;stroke-width:0.926815;stroke-linecap:round;stroke-linejoin:round;paint-order:stroke markers fill"
       id="path1124-7-9-2"
       d="m 250.57602,173.30591 c -1.90433,-1.38816 -3.07805,-3.73001 -3.72217,-5.92237 -0.30823,-1.90539 -0.14596,-3.84182 0.65316,-5.5842 0.21224,-0.46272 0.35883,-1.00404 0.75006,-1.32817 0.24678,-0.20461 -0.1786,0.61913 -0.26791,0.92871 2.15718,-2.12658 4.46377,-2.37923 7.31335,-1.1023 0.60635,0.27171 1.15913,0.6539 1.73868,0.98087 4.72491,3.60485 7.80039,8.8602 10.81432,13.85581 3.67519,6.28107 7.09843,12.69855 10.60028,19.07257 2.04016,3.86184 4.34257,7.57199 6.94401,11.09138 1.31265,1.60199 2.59938,3.30841 4.22987,4.61184 0.7603,0.23177 0.98257,-0.67458 1.11643,-1.23462 0,0 -0.0415,0.0602 -0.0415,0.0602 v 0 c 0.46676,-0.24227 0.66516,-0.80743 0.35193,-1.25586 -1.39149,-1.5286 -2.98139,-2.88548 -4.18827,-4.58016 -2.61922,-3.46073 -4.93706,-7.11806 -7.00042,-10.92662 -3.54574,-6.33502 -7.01172,-12.71353 -10.66376,-18.99098 -2.61603,-4.31778 -5.41452,-9.08957 -9.19425,-12.53985 -0.54738,-0.49884 -1.16638,-0.91258 -1.74958,-1.36885 -0.5963,-0.33066 -1.16685,-0.71506 -1.78887,-0.99202 -2.08077,-0.92654 -4.53867,-1.21993 -6.47622,0.0439 -0.41375,0.26988 -0.75448,0.6358 -1.13166,0.95377 -2.31386,3.6121 -4.19977,5.90726 -3.40486,10.40621 0.70909,2.26766 1.93419,4.61931 3.85152,6.12407 0,0 1.26571,-2.30346 1.26571,-2.30346 z" />
    <path
       style="fill:#d40000;stroke-width:0.926815;stroke-linecap:round;stroke-linejoin:round;paint-order:stroke markers fill"
       id="path1126-5-1-7"
       d="m 272.05858,181.43559 c -1.77055,-0.33886 -3.56902,-0.41652 -5.34383,-0.23382 -2.24501,0.28383 -3.93364,1.59129 -5.39972,3.18708 -2.37813,3.08612 -2.95924,5.12939 -2.68145,8.81619 0.78117,4.35986 2.30906,8.56691 4.08542,12.6397 1.82888,3.87067 3.69146,6.68026 7.25263,9.12787 2.22085,1.24178 4.69338,1.38836 6.9247,0.22993 0.43533,-0.22669 0.82022,-0.53628 1.23026,-0.80446 2.58654,-2.51062 4.29722,-5.86458 5.4775,-9.26469 0.0583,-0.13842 0.60247,-2.07317 0.477,-2.12403 -0.24049,-0.0976 -0.47859,0.17258 -0.71791,0.25887 0,0 -0.0424,0.0594 -0.0424,0.0594 v 0 c -0.54309,1.30061 -0.99888,2.59069 -1.35726,3.95768 -0.1288,0.35309 -0.24549,0.71119 -0.38643,1.05938 -0.15857,0.39177 -0.93651,1.09209 -0.51166,1.1594 0.445,0.0706 0.78099,-1.5662 0.6897,-1.13119 -0.20222,0.96335 -1.91697,2.80286 -2.58981,3.50946 -0.39332,0.27543 -0.75999,0.59191 -1.17991,0.82636 -2.1298,1.18913 -4.51986,1.09274 -6.68989,-0.08 -3.49332,-2.35149 -5.43364,-5.12215 -7.20065,-8.91339 -1.76437,-4.0599 -3.32455,-8.25656 -3.98653,-12.6221 -0.0713,-1.30635 -0.12025,-2.54682 0.20433,-3.81716 0.0883,-0.34541 0.61986,-1.23007 0.34021,-1.0121 -0.42379,0.33034 -0.58577,0.90373 -0.82163,1.38735 -0.14223,0.29183 0.35961,-0.53933 0.53952,-0.8089 1.39882,-1.60802 3.02248,-2.95371 5.22694,-3.27231 1.75929,-0.20934 3.53556,-0.18529 5.29884,0.13904 0,0 1.16168,-2.27391 1.16168,-2.27391 z" />
    <path
       style="fill:#d40000;stroke-width:0.926815;stroke-linecap:round;stroke-linejoin:round;paint-order:stroke markers fill"
       id="path1124-7-5"
       d="m 135.72352,199.09344 c 1.28976,-1.9723 1.55863,-4.578 1.38512,-6.85641 -0.38607,-1.89118 -1.22325,-3.6448 -2.58734,-4.99157 -0.36226,-0.35765 -0.69098,-0.81204 -1.17159,-0.97672 -0.30324,-0.10398 0.38617,0.51583 0.57928,0.77376 -2.77023,-1.22541 -5.01694,-0.64532 -7.23012,1.55752 -0.47091,0.46874 -0.85265,1.02183 -1.27897,1.53276 -3.14318,5.04383 -4.15952,11.04751 -5.21025,16.78649 -1.21418,7.17529 -2.79554,17.40652 -3.8147,24.60738 -0.90209,6.00239 0.85519,9.22683 -0.30011,8.46499 -1.37918,-0.90946 -1.8114,0.12086 -1.46737,-9.84973 1.07409,-7.17989 2.3652,-17.59457 3.55904,-24.75827 0.91848,-4.9642 1.84691,-10.41759 4.1608,-14.98232 0.3354,-0.66029 0.76789,-1.26634 1.15184,-1.89949 0.44066,-0.52031 0.83824,-1.08176 1.32197,-1.56095 1.61814,-1.60302 3.8131,-2.74736 6.07258,-2.25104 0.48248,0.10601 0.93068,0.3276 1.39599,0.49149 3.44253,2.55934 6.0187,4.03844 6.86759,8.52751 0.13942,2.37184 -0.17405,5.00488 -1.43469,7.09084 l -1.99905,-1.70637 z"
       sodipodi:nodetypes="ccsccscccscccccsccccc" />
    <path
       style="fill:#d40000;stroke-width:0.926815;stroke-linecap:round;stroke-linejoin:round;paint-order:stroke markers fill"
       id="path1126-5-6"
       d="m 118.50893,214.30033 c 1.53601,-0.94357 3.19058,-1.65274 4.91518,-2.11005 2.20014,-0.52913 4.24223,0.096 6.1782,1.06963 3.31648,2.04465 4.58316,3.74996 5.62825,7.29644 0.81258,4.35413 0.87253,8.82965 0.65268,13.26751 -0.34053,4.26743 -1.08813,7.55439 -3.55248,11.10397 -1.6376,1.94745 -3.89818,2.95965 -6.39509,2.66596 -0.48748,-0.0573 -0.95693,-0.21125 -1.43536,-0.3169 -3.30771,-1.43263 -6.09475,-3.96402 -8.40204,-6.7263 -0.10371,-0.10887 -1.29725,-1.72574 -1.19791,-1.81771 0.19051,-0.17632 0.50872,-0.008 0.76306,-0.0122 0,0 0.0607,0.0404 0.0607,0.0404 v 0 c 0.96827,1.02418 1.85116,2.06943 2.67018,3.22109 0.24545,0.28468 0.4813,0.57828 0.73633,0.85403 0.28699,0.31031 1.26244,0.68994 0.88891,0.90326 -0.39121,0.22353 -1.28477,-1.18838 -1.04541,-0.81385 0.53007,0.82942 2.78491,1.94296 3.66428,2.36567 0.46535,0.11835 0.92029,0.2846 1.39603,0.35525 2.41282,0.35836 4.61404,-0.57772 6.22852,-2.44265 2.43492,-3.4357 3.26899,-6.71375 3.57978,-10.885 0.21321,-4.42157 0.18706,-8.89878 -0.73895,-13.21602 -0.3957,-1.24702 -0.78892,-2.42455 -1.54213,-3.49776 -0.20483,-0.29181 -1.0151,-0.93106 -0.6764,-0.82619 0.51329,0.1589 0.86772,0.63791 1.25948,1.00673 0.23631,0.22262 -0.52723,-0.37711 -0.79091,-0.56557 -1.87738,-1.00884 -3.87225,-1.69275 -6.04678,-1.21047 -1.71948,0.42692 -3.37228,1.07806 -4.90663,2.00546 0,0 -1.8913,-1.71556 -1.8913,-1.71556 z" />
  </g>
</svg>
