<?xml version="1.0" encoding="UTF-8" standalone="no"?>
<!-- Created with Inkscape (http://www.inkscape.org/) -->

<svg
   xmlns:dc="http://purl.org/dc/elements/1.1/"
   xmlns:cc="http://creativecommons.org/ns#"
   xmlns:rdf="http://www.w3.org/1999/02/22-rdf-syntax-ns#"
   xmlns:svg="http://www.w3.org/2000/svg"
   xmlns="http://www.w3.org/2000/svg"
   xmlns:sodipodi="http://sodipodi.sourceforge.net/DTD/sodipodi-0.dtd"
   xmlns:inkscape="http://www.inkscape.org/namespaces/inkscape"
   id="svg2"
   version="1.1"
   inkscape:version="0.91 r13725"
   width="200"
   height="437.46249"
   xml:space="preserve"
   sodipodi:docname="sc-body-w.svg"><metadata
     id="metadata8"><rdf:RDF><cc:Work
         rdf:about=""><dc:format>image/svg+xml</dc:format><dc:type
           rdf:resource="http://purl.org/dc/dcmitype/StillImage" /><dc:title></dc:title></cc:Work></rdf:RDF></metadata><defs
     id="defs6" /><sodipodi:namedview
     pagecolor="#ffffff"
     bordercolor="#666666"
     borderopacity="1"
     objecttolerance="10"
     gridtolerance="10"
     guidetolerance="10"
     inkscape:pageopacity="0"
     inkscape:pageshadow="2"
     inkscape:window-width="1600"
     inkscape:window-height="835"
     id="namedview4"
     showgrid="false"
     inkscape:zoom="2.1578993"
     inkscape:cx="0.032697335"
     inkscape:cy="345.44562"
     inkscape:window-x="0"
     inkscape:window-y="0"
     inkscape:window-maximized="1"
     inkscape:current-layer="g10" /><g
     id="g10"
     inkscape:groupmode="layer"
     inkscape:label="ink_ext_XXXXXX"
     transform="matrix(1.25,0,0,-1.25,0,437.4625)"><g
       id="g3347"
       transform="translate(27.2,0)"><path
         d="m 59.3676,311.01 c 0.0605,-1.716 -0.041,-3.432 -0.2778,-5.14 -0.2468,-1.704 -0.6117,-3.422 -1.3894,-5.029 -0.3883,-0.799 -0.8813,-1.578 -1.5676,-2.225 -0.6742,-0.652 -1.5894,-1.123 -2.557,-1.254 -0.9953,-0.124 -1.8492,0.047 -2.716,0.15 -0.861,0.122 -1.7035,0.292 -2.5418,0.451 -1.6731,0.321 -3.3293,0.632 -4.9727,0.757 -1.6351,0.13 -3.2777,0.064 -4.7359,-0.461 -1.4555,-0.518 -2.6754,-1.514 -3.5364,-2.829 -0.8582,-1.316 -1.4351,-2.861 -1.8187,-4.463 -0.7109,-3.239 -1.1758,-6.667 -1.657,-10.022 -0.4703,-3.375 -0.8821,-6.761 -1.2223,-10.153 -0.3473,-3.393 -0.6086,-6.795 -0.9043,-10.195 l -0.4691,-5.104 c -0.0868,-0.852 -0.1817,-1.704 -0.3039,-2.558 -0.0606,-0.427 -0.1297,-0.855 -0.2157,-1.286 -0.098,-0.437 -0.1683,-0.852 -0.4058,-1.347 -1.7875,-2.933 -3.2176,-5.994 -4.766,-9.032 -1.5075,-3.05 -2.9539,-6.129 -4.3539,-9.224 -1.3887,-3.099 -2.7059,-6.23 -3.8543,-9.406 -0.5645,-1.59 -1.1063,-3.184 -1.5485,-4.791 -0.2191,-0.803 -0.4129,-1.609 -0.5601,-2.411 -0.068,-0.401 -0.1348,-0.802 -0.1715,-1.196 l -0.1399,-1.276 c -0.4398,-3.474 -1.2656,-6.871 -2.5367,-10.116 -0.63592,-1.62 -1.36796,-3.204 -2.22694,-4.728 -0.43008,-0.761 -0.89141,-1.508 -1.40664,-2.229 -0.25625,-0.361 -0.52656,-0.715 -0.82188,-1.059 -0.28984,-0.35 -0.64062,-0.68 -0.89531,-0.956 -1.03711,-1.166 -1.88437,-2.648 -2.54492,-4.153 -0.64297,-1.513 -1.16992,-3.142 -1.16797,-4.731 0.0082,-0.408 0.05977,-0.737 0.18906,-1.148 0.12422,-0.426 0.21914,-0.849 0.30352,-1.274 0.16875,-0.85 0.29726,-1.699 0.40742,-2.55 0.20742,-1.704 0.38867,-3.402 0.38047,-5.127 l -0.17461,0 c -0.14727,1.684 -0.44375,3.371 -0.76211,5.035 -0.16601,0.832 -0.35078,1.661 -0.571874,2.472 -0.111328,0.405 -0.23086,0.808 -0.361719,1.195 -0.151953,0.396 -0.26875,0.91 -0.292188,1.355 -0.088671,1.837 0.395704,3.554 0.990231,5.2 0.63438,1.639 1.39493,3.223 2.59375,4.643 0.31446,0.358 0.58164,0.62 0.82579,0.935 0.25039,0.312 0.48789,0.643 0.71523,0.985 0.45547,0.681 0.8707,1.401 1.25703,2.137 0.77149,1.472 1.42734,3.014 1.98867,4.587 1.11133,3.147 1.90589,6.427 2.26209,9.729 l 0.1309,1.268 c 0.0441,0.455 0.1183,0.895 0.1937,1.336 0.1633,0.875 0.3711,1.728 0.6024,2.569 0.4648,1.683 1.0222,3.32 1.6371,4.93 1.2281,3.22 2.6133,6.359 4.068,9.46 1.45,3.104 3.0035,6.154 4.614,9.172 0.802,1.511 1.6262,3.01 2.4824,4.492 0.8547,1.464 1.7184,3.005 2.6762,4.364 0.2973,0.603 0.4633,1.511 0.6188,2.314 0.1523,0.829 0.2804,1.669 0.4,2.51 0.2453,1.683 0.4343,3.377 0.6039,5.072 0.3507,3.391 0.6738,6.788 0.9515,10.188 0.5953,6.814 0.9114,13.592 2.0266,20.446 0.3726,1.716 0.9238,3.45 1.9387,4.996 0.9863,1.55 2.5355,2.846 4.3203,3.431 1.7765,0.611 3.6265,0.639 5.3758,0.481 1.7574,-0.171 3.4511,-0.546 5.1175,-0.909 l 2.4813,-0.524 c 0.8129,-0.142 1.6586,-0.323 2.368,-0.258 1.4863,0.107 2.6953,1.32 3.446,2.753 1.5106,2.926 2.0438,6.386 2.3075,9.751 l 0.1746,0"
         style="fill:#040606;fill-opacity:1;fill-rule:nonzero;stroke:none"
         id="path14"
         inkscape:connector-curvature="0" /><path
         d="m 42.7859,273.757 c -0.9675,-4.555 -2.0769,-9.071 -3.2839,-13.561 -0.5997,-2.247 -1.2286,-4.485 -1.8864,-6.718 -0.3218,-1.119 -0.6679,-2.23 -1.032,-3.344 -0.3684,-1.089 -0.668,-2.152 -0.9367,-3.28 -1.1004,-4.468 -1.9465,-9.087 -3.3856,-13.545 -0.3609,-1.115 -0.7883,-2.215 -1.3367,-3.268 -0.2668,-0.522 -0.6141,-1.042 -0.9551,-1.499 -0.3316,-0.465 -0.6453,-0.953 -0.9523,-1.442 -1.2399,-1.954 -2.3477,-3.997 -3.4766,-6.023 l -6.5734,-12.273 -1.6098,-3.076 c -0.2613,-0.512 -0.525,-1.031 -0.7605,-1.532 -0.2156,-0.45 -0.3723,-0.963 -0.5227,-1.502 -0.5691,-2.161 -1.0015,-4.443 -1.2137,-6.671 -0.0519,-0.554 -0.0906,-1.111 -0.08,-1.631 -0.0035,-0.281 0.0422,-0.413 0.0453,-0.908 -0.0082,-0.372 -0.0567,-0.685 -0.1086,-0.999 -0.2231,-1.232 -0.5625,-2.353 -0.9227,-3.478 -0.7191,-2.238 -1.5343,-4.419 -2.3472,-6.594 -0.3961,-1.089 -0.8219,-2.172 -1.1813,-3.249 -0.0961,-0.284 -0.1523,-0.5 -0.2484,-0.823 -0.11955,-0.339 -0.24026,-0.691 -0.64494,-1.01 -0.20078,-0.157 -0.5461,-0.247 -0.825,-0.164 -0.27539,0.075 -0.46407,0.233 -0.59102,0.381 -0.26601,0.302 -0.3957,0.615 -0.50117,0.921 -0.39141,1.232 -0.32578,2.444 -0.20352,3.619 0.13828,1.176 0.40586,2.323 0.7543,3.437 l 0.16953,-0.041 c -0.19375,-1.143 -0.3414,-2.292 -0.36172,-3.435 -0.01054,-1.129 0.08282,-2.298 0.46836,-3.269 0.0961,-0.235 0.22735,-0.457 0.36055,-0.579 0.06406,-0.069 0.12539,-0.085 0.13086,-0.081 0.0039,0.01 -0.03555,0.002 -0.00781,0.021 0.05781,0.047 0.16679,0.265 0.21054,0.475 0.05274,0.238 0.12071,0.591 0.19258,0.863 0.29336,1.154 0.62813,2.266 0.97736,3.377 0.6855,2.223 1.4031,4.429 2.0289,6.639 0.2992,1.101 0.6078,2.217 0.7766,3.277 0.0382,0.259 0.0691,0.523 0.0671,0.732 0.0098,0.087 -0.0586,0.53 -0.0628,0.83 -0.025,0.642 0.0066,1.246 0.05,1.849 0.232,2.396 0.6445,4.703 1.3214,7.017 0.1762,0.574 0.3719,1.174 0.6707,1.766 0.2731,0.544 0.5496,1.054 0.8293,1.57 l 1.7,3.056 c 2.2864,4.057 4.6864,8.044 7.1895,11.97 1.2359,1.973 2.5137,3.919 3.8039,5.862 l 1.0027,1.441 c 0.3578,0.471 0.6617,0.917 0.9325,1.426 0.5414,1 0.921,2.092 1.2648,3.188 0.6602,2.208 1.0516,4.494 1.409,6.783 0.3644,2.29 0.666,4.594 1.0988,6.905 0.2301,1.14 0.4922,2.336 0.8762,3.445 l 1.0304,3.313 2.068,6.649 c 1.3926,4.431 2.8445,8.847 4.4149,13.231 l 0.1675,-0.048"
         style="fill:#040606;fill-opacity:1;fill-rule:nonzero;stroke:none"
         id="path16"
         inkscape:connector-curvature="0" /><path
         d="m 42.7875,268.999 2.7168,-11.689 c 0.898,-3.894 1.8555,-7.777 2.8898,-11.62 0.2614,-0.96 0.5321,-1.915 0.8262,-2.857 0.2848,-0.948 0.6348,-1.835 0.9824,-2.801 0.6739,-1.9 1.2938,-3.824 1.8008,-5.794 0.4953,-1.972 0.911,-3.984 0.8985,-6.118 -0.0082,-0.534 -0.0485,-1.077 -0.1547,-1.629 -0.0989,-0.553 -0.311,-1.123 -0.5789,-1.61 -0.502,-0.926 -1.0168,-1.754 -1.5012,-2.622 -3.9942,-6.8 -6.0797,-14.713 -6.0527,-22.682 0.0078,-1.989 0.1023,-3.982 0.3335,-5.96 0.2243,-1.977 0.5618,-3.945 0.9032,-5.914 0.6718,-3.938 1.5625,-7.836 2.4539,-11.73 1.8426,-7.778 3.8824,-15.504 5.8687,-23.254 0.9832,-3.882 2.0196,-7.733 2.8621,-11.7 0.102,-0.5 0.1977,-1.002 0.275,-1.526 0.0371,-0.266 0.0719,-0.53 0.0879,-0.833 0.0059,-0.156 0.0121,-0.308 -0.0156,-0.54 l -0.0555,-0.386 -0.4746,-2.961 c -0.3004,-1.96 -0.5304,-3.926 -0.7109,-5.897 -0.7145,-7.885 -0.4813,-15.869 0.7445,-23.72 0.6508,-3.926 1.3004,-7.8849 1.9965,-11.8181 0.7051,-3.9328 1.3535,-7.8867 2.2258,-11.7797 l -0.1672,-0.05 c -0.6059,1.918 -1.077,3.8629 -1.5594,5.8066 -0.4758,1.9461 -0.9386,3.8954 -1.3648,5.8512 -0.8528,3.916 -1.7184,7.812 -2.4762,11.761 -1.4609,7.923 -1.9316,16.054 -1.2531,24.112 0.168,2.012 0.4203,4.019 0.7254,6.014 l 0.4801,2.963 c 0.1605,0.674 -0.0875,1.705 -0.2422,2.655 -0.7621,3.871 -1.7461,7.766 -2.6711,11.651 -1.8867,7.774 -3.691,15.583 -5.2094,23.45 -0.7867,3.929 -1.4594,7.878 -2.125,11.829 -0.6602,3.945 -1.1598,7.952 -1.1977,11.973 -0.0582,4.017 0.2731,8.06 1.1395,12.013 0.8617,3.949 2.2965,7.796 4.2062,11.372 0.4711,0.889 0.9903,1.774 1.4235,2.617 0.407,0.762 0.5148,1.616 0.5304,2.563 0.0051,1.875 -0.3945,3.818 -0.8441,5.723 -0.4695,1.911 -1.057,3.805 -1.7008,5.681 -0.3183,0.92 -0.6722,1.906 -0.9422,2.881 -0.2804,0.975 -0.5339,1.949 -0.7757,2.925 -1.8508,7.822 -3.2672,15.697 -4.4692,23.617 l 0.1715,0.033"
         style="fill:#040606;fill-opacity:1;fill-rule:nonzero;stroke:none"
         id="path18"
         inkscape:connector-curvature="0" /><path
         d="m 70.7105,311.011 c 0.2653,-2.741 0.7559,-5.472 1.6278,-8.055 0.843,-2.562 2.0836,-5.101 4.1055,-6.726 1.0191,-0.809 2.1492,-1.299 3.471,-1.504 1.3555,-0.26 2.7262,-0.512 4.093,-0.833 2.7094,-0.661 5.525,-1.523 7.8738,-3.353 1.1614,-0.906 2.1735,-2.047 2.8883,-3.345 0.7149,-1.298 1.1871,-2.708 1.4192,-4.133 0.4812,-2.852 0.2191,-5.719 -0.2086,-8.452 -0.816,-5.483 -1.7094,-10.946 -2.4828,-16.426 -0.3848,-2.74 -0.8145,-5.474 -1.1239,-8.219 -0.1574,-1.37 -0.3179,-2.747 -0.3898,-4.101 -0.0152,-0.336 -0.0254,-0.676 -0.0039,-0.982 0.016,-0.167 0.0234,-0.26 0.0703,-0.35 l 0.1934,-0.501 0.7066,-1.964 c 0.9242,-2.617 1.773,-5.257 2.5777,-7.912 0.8149,-2.652 1.577,-5.32 2.2789,-8.006 1.4016,-5.371 2.697,-10.785 3.499,-16.314 0.206,-1.38 0.379,-2.772 0.497,-4.165 l 0.377,-4.128 0.393,-4.122 0.212,-2.05 0.124,-1.008 0.075,-0.463 0.015,-0.068 c -10e-4,-0.004 0.001,0 -0.026,0.058 -0.128,0.037 0.213,0.111 -0.636,0.414 -1.093,-0.313 -0.638,-0.53 -0.785,-0.527 -0.033,-0.14 -0.011,-0.065 -0.015,-0.059 l 0.005,0.082 0.086,1.516 1.152,-0.878 c 1.79,-1.365 3.438,-2.825 4.974,-4.452 0.765,-0.812 1.486,-1.676 2.12,-2.616 0.629,-0.939 1.201,-1.949 1.511,-3.099 0.076,-0.29 0.133,-0.576 0.165,-0.89 0.025,-0.269 0.046,-0.546 0.059,-0.836 0.026,-0.563 0.023,-1.123 -0.003,-1.68 -0.048,-1.114 -0.194,-2.211 -0.358,-3.291 -0.322,-2.149 -0.661,-4.319 -0.114,-6.434 l -0.167,-0.051 c -0.767,2.104 -0.554,4.406 -0.391,6.559 0.08,1.089 0.157,2.166 0.153,3.236 -0.002,0.533 -0.027,1.066 -0.079,1.591 -0.025,0.255 -0.059,0.521 -0.099,0.795 -0.035,0.226 -0.096,0.475 -0.172,0.709 -0.651,1.914 -2.129,3.55 -3.601,5.064 -1.508,1.502 -3.186,2.893 -4.908,4.12 l 1.238,0.637 -0.004,-0.177 c -0.009,-0.08 0.008,-0.092 -0.049,-0.316 -0.154,-0.014 0.296,-0.26 -0.821,-0.575 -0.869,0.308 -0.538,0.405 -0.675,0.461 -0.047,0.097 -0.058,0.142 -0.071,0.18 l -0.05,0.183 c -0.046,0.205 -0.077,0.379 -0.108,0.558 l -0.164,1.047 -0.281,2.07 c -0.182,1.377 -0.33,2.755 -0.481,4.132 -0.307,2.766 -0.5466,5.504 -0.9431,8.204 -0.8148,5.421 -1.9336,10.823 -3.2484,16.177 -1.3207,5.354 -2.7684,10.685 -4.3293,15.979 l -0.6055,1.973 -0.1578,0.475 c -0.0933,0.229 -0.1082,0.489 -0.1133,0.666 -0.0066,0.385 0.0204,0.737 0.0504,1.091 0.1332,1.405 0.3508,2.771 0.566,4.142 l 1.3149,8.2 c 0.8824,5.461 1.5887,10.951 2.0832,16.455 0.2863,2.738 0.3887,5.474 -0.1867,8.075 -0.541,2.592 -1.8465,4.942 -3.9141,6.509 -2.0508,1.588 -4.6348,2.484 -7.266,3.144 -1.3203,0.337 -2.6633,0.631 -4.0172,0.927 -0.6621,0.134 -1.4519,0.345 -2.1168,0.669 -0.6844,0.32 -1.3094,0.748 -1.8676,1.237 -2.2363,2.001 -3.3629,4.75 -4.1168,7.431 -0.6843,2.727 -1.0339,5.509 -1.0004,8.292 l 0.175,0.003"
         style="fill:#040606;fill-opacity:1;fill-rule:nonzero;stroke:none"
         id="path20"
         inkscape:connector-curvature="0" /><path
         d="m 56.4648,293.559 c 1.579,-0.098 3.15,-0.299 4.7008,-0.667 0.7793,-0.184 1.5434,-0.398 2.3164,-0.779 0.1938,-0.104 0.3871,-0.218 0.5821,-0.414 l 0.2035,-0.207 c 0.0668,-0.061 0.1207,-0.095 0.1789,-0.146 0.2609,-0.195 0.5715,-0.323 0.8879,-0.373 0.6367,-0.125 1.3078,0.106 1.7148,0.602 l 0.1156,0.125 c 0.0254,0.03 0.0711,0.075 0.1477,0.132 0.1445,0.114 0.2406,0.151 0.3609,0.203 0.2286,0.094 0.4477,0.137 0.6621,0.167 0.4278,0.062 0.8387,0.055 1.2438,0.031 1.6195,-0.085 3.141,-0.529 4.6797,-0.855 -1.586,-0.009 -3.1594,0.209 -4.6914,0.174 -0.3801,-0.012 -0.759,-0.038 -1.1071,-0.105 -0.1734,-0.032 -0.341,-0.078 -0.4722,-0.143 -0.0598,-0.024 -0.1426,-0.077 -0.15,-0.088 -0.0047,0.002 -0.0313,-0.02 -0.0684,-0.067 l -0.0789,-0.095 c -0.5722,-0.75 -1.591,-1.109 -2.5035,-0.941 -0.4574,0.082 -0.8902,0.272 -1.2555,0.554 -0.0906,0.076 -0.1953,0.16 -0.2703,0.235 l -0.2066,0.216 c -0.0797,0.087 -0.2238,0.184 -0.3715,0.273 -0.6191,0.357 -1.3727,0.598 -2.1016,0.848 -1.4808,0.468 -2.9972,0.89 -4.5172,1.32"
         style="fill:#040606;fill-opacity:1;fill-rule:nonzero;stroke:none"
         id="path22"
         inkscape:connector-curvature="0" /><path
         d="m 86.9828,278.677 c -0.475,-0.783 -0.868,-1.627 -1.1269,-2.498 -0.2442,-0.869 -0.3704,-1.797 -0.0289,-2.607 0.7003,-1.687 1.5031,-3.409 1.9175,-5.261 0.4188,-1.824 0.5121,-3.888 -0.3968,-5.695 -0.4446,-0.893 -1.1188,-1.66 -1.893,-2.263 -0.3883,-0.303 -0.8024,-0.567 -1.2297,-0.799 -0.3738,-0.207 -0.673,-0.45 -0.9645,-0.763 -1.1277,-1.259 -1.6003,-3.075 -1.8722,-4.837 -0.261,-1.787 -0.302,-3.621 -0.2559,-5.451 0.0516,-1.833 0.1914,-3.665 0.3387,-5.516 0.0711,-0.92 0.1566,-1.832 0.2707,-2.738 0.1137,-0.889 0.2523,-1.844 0.4555,-2.623 l -0.2973,0.39 c 2.5789,-1.72 4.7754,-3.794 6.7207,-6.143 1.9246,-2.349 3.5234,-4.998 4.5809,-7.878 0.5203,-1.441 0.9054,-2.933 1.1406,-4.448 0.2219,-1.54 0.3238,-2.981 0.4707,-4.476 0.1324,-1.482 0.2523,-2.967 0.3394,-4.461 0.0426,-0.747 0.0778,-1.496 0.0899,-2.254 0.0074,-0.379 0.0043,-0.76 -0.0141,-1.151 -0.0093,-0.197 -0.0215,-0.394 -0.0465,-0.606 -0.0132,-0.107 -0.0273,-0.215 -0.055,-0.342 -0.0149,-0.065 -0.0305,-0.133 -0.0629,-0.226 -0.0184,-0.047 -0.0367,-0.099 -0.0852,-0.182 -0.0281,-0.045 -0.0543,-0.091 -0.1312,-0.169 -0.0364,-0.036 -0.0922,-0.086 -0.1793,-0.132 -0.0528,-0.027 -0.1067,-0.05 -0.1883,-0.068 -0.1098,-0.006 -0.1184,-0.052 -0.4039,0.032 l 0.9262,0.815 c 0.5453,-2.94 0.5074,-5.771 0.33,-8.632 -0.2004,-2.848 -0.6367,-5.667 -1.2406,-8.444 -1.2219,-5.552 -3.0976,-10.925 -5.3437,-16.118 -1.1504,-2.591 -2.3606,-5.125 -3.4649,-7.722 -1.1015,-2.593 -2.1328,-5.215 -3.0941,-7.862 -0.9582,-2.646 -1.8403,-5.322 -2.5813,-8.032 -0.3609,-1.357 -0.6855,-2.723 -0.948,-4.098 -0.2531,-1.362 -0.4871,-2.787 -0.4938,-4.102 l 0,-0.035 -0.0011,-0.015 c -0.2043,-3.272 -0.2899,-6.57 -0.1887,-9.843 0.0551,-1.636 0.1558,-3.27 0.3801,-4.871 0.1132,-0.797 0.2586,-1.589 0.4742,-2.338 0.1031,-0.336 0.2558,-0.811 0.3422,-1.227 0.0957,-0.422 0.1707,-0.842 0.234,-1.262 0.4605,-3.352 0.4375,-6.684 0.2992,-10.01 -0.1563,-3.323 -0.4922,-6.635 -1.0028,-9.92 C 77.6797,95.227 76.043,88.7352 73.5941,82.5199 71.0352,76.4309 68.8605,70.282 67.2441,63.9219 65.607,57.5789 64.5398,51.0992 63.8656,44.573 63.693,42.9461 63.532,41.2961 63.4086,39.677 c -0.0934,-1.5739 -0.0348,-3.211 0.0801,-4.8309 0.2383,-3.25 0.7078,-6.5051 1.2281,-9.75 l 1.6609,-9.7492 c 0.27,-1.6309 0.5399,-3.2617 0.7278,-4.9239 0.08,-0.84097 0.1871,-1.65112 0.0836,-2.59487 C 67.0383,6.97617 66.8645,6.175 66.6305,5.35391 66.157,3.75313 65.4418,2.05586 63.984,0.969141 63.2688,0.428125 62.3926,0.130078 61.5266,0.0320313 60.6621,-0.0558594 59.7781,0.046875 58.973,0.230859 58.1426,0.417969 57.3262,0.699219 56.5973,1.16406 55.8684,1.62109 55.2543,2.275 54.8633,3.03789 54.0738,4.5832 54.082,6.31484 54.1035,7.95 l 0.1742,0 c 0.0383,-1.63008 0.1164,-3.33516 0.9094,-4.73594 0.777,-1.41914 2.3324,-2.16601 3.893,-2.428904 1.5722,-0.317968 3.2551,-0.19414 4.4441,0.786724 1.1949,0.9582 1.8356,2.48398 2.236,4.02109 0.1988,0.77109 0.3519,1.58906 0.4687,2.36523 0.0617,0.70196 -0.0476,1.54375 -0.1519,2.3379 -0.2258,1.6109 -0.5387,3.2281 -0.8504,4.8418 -0.6383,3.232 -1.3032,6.4672 -1.8782,9.7262 -0.5781,3.257 -1.1074,6.5308 -1.407,9.8578 -0.1445,1.6672 -0.2371,3.334 -0.1637,5.0562 0.0993,1.6719 0.2317,3.309 0.3793,4.9649 0.6133,6.6019 1.7039,13.18 3.3332,19.6242 0.8094,3.2238 1.7602,6.4109 2.8305,9.557 1.0508,3.1406 2.3457,6.2539 3.6156,9.259 2.4469,6.0438 4.118,12.4098 5.1844,18.8648 0.5231,3.229 0.918,6.483 1.1219,9.749 0.191,3.256 0.2601,6.553 -0.1274,9.749 -0.0504,0.397 -0.1101,0.792 -0.1875,1.176 -0.0742,0.395 -0.1687,0.707 -0.2961,1.162 -0.2191,0.843 -0.3488,1.682 -0.448,2.519 -0.1914,1.673 -0.2516,3.338 -0.2672,5 -0.016,3.324 0.141,6.627 0.4172,9.933 l -0.0012,-0.05 c 0.0406,1.51 0.3121,2.876 0.5985,4.28 0.2972,1.391 0.655,2.765 1.0476,4.125 0.7692,2.728 1.677,5.409 2.6598,8.06 1.9711,5.297 4.2633,10.479 6.541,15.627 2.2094,5.171 3.9375,10.555 4.9801,16.064 0.5222,2.752 0.8773,5.534 1.0015,8.32 0.111,2.763 0.0454,5.628 -0.5086,8.231 l -0.246,1.158 1.1722,-0.343 c -0.2797,0.082 -0.2824,0.037 -0.3859,0.033 -0.077,-0.018 -0.1246,-0.038 -0.1727,-0.063 -0.0765,-0.04 -0.1234,-0.083 -0.1523,-0.11 -0.0602,-0.063 -0.0731,-0.089 -0.0899,-0.114 L 93.75,206.498 c -0.0023,-0.005 0.0039,0.018 0.0082,0.044 0.0106,0.053 0.0195,0.13 0.0266,0.207 0.0144,0.157 0.0218,0.33 0.0257,0.505 0.0071,0.35 -3e-4,0.711 -0.0078,1.074 -0.0179,0.725 -0.0578,1.458 -0.1054,2.193 -0.0973,1.467 -0.2289,2.94 -0.3727,4.411 -0.1543,1.457 -0.2793,2.978 -0.4945,4.373 -0.2317,1.415 -0.6031,2.807 -1.1012,4.153 -0.9754,2.701 -2.4473,5.225 -4.2617,7.48 -1.8078,2.242 -3.9637,4.3 -6.3074,5.897 l -0.2414,0.165 -0.0567,0.226 c -0.2554,1.02 -0.3597,1.909 -0.4769,2.86 -0.1071,0.935 -0.186,1.872 -0.2481,2.802 -0.1301,1.849 -0.2566,3.72 -0.2527,5.598 -8e-4,1.877 0.0863,3.766 0.4082,5.645 0.3445,1.852 0.8539,3.812 2.2621,5.328 0.3457,0.362 0.7875,0.696 1.2328,0.925 0.3926,0.201 0.7692,0.429 1.1192,0.688 0.6984,0.52 1.2929,1.168 1.6953,1.93 0.8355,1.526 0.8574,3.411 0.5152,5.177 -0.3332,1.795 -1.0461,3.488 -1.702,5.246 -0.3546,0.947 -0.1621,1.972 0.1403,2.849 0.316,0.893 0.7562,1.724 1.2832,2.501 l 0.1445,-0.098"
         style="fill:#040606;fill-opacity:1;fill-rule:nonzero;stroke:none"
         id="path24"
         inkscape:connector-curvature="0" /><path
         d="m 97.6715,189.727 c 0.1422,-1.287 0.3164,-2.569 0.5629,-3.833 0.2633,-1.254 0.55,-2.53 1.0957,-3.643 0.1363,-0.28 0.3125,-0.502 0.5066,-0.789 0.1893,-0.29 0.3483,-0.579 0.4973,-0.877 0.294,-0.597 0.54,-1.209 0.76,-1.827 0.447,-1.239 0.759,-2.502 1.031,-3.792 l -0.615,0.24 c 0.641,0.543 1.155,1.369 1.352,2.218 0.211,0.877 0.109,1.735 -0.172,2.671 -0.243,0.998 -0.299,2.011 -0.24,3.017 0.067,1.01 0.232,1.984 0.567,2.972 l 0.148,0.437 0.404,-0.215 c 1.306,-0.694 2.549,-1.47 3.577,-2.608 0.251,-0.288 0.476,-0.613 0.637,-0.99 0.168,-0.391 0.209,-0.761 0.269,-1.128 0.101,-0.727 0.156,-1.442 0.217,-2.157 0.115,-1.43 0.233,-2.853 0.403,-4.269 0.089,-0.707 0.202,-1.41 0.371,-2.102 0.185,-0.679 0.374,-1.388 0.844,-1.939 -0.521,0.506 -0.796,1.21 -1.023,1.888 -0.222,0.688 -0.386,1.392 -0.527,2.099 -0.291,1.413 -0.446,2.845 -0.629,4.265 -0.09,0.709 -0.177,1.42 -0.303,2.108 -0.067,0.335 -0.131,0.684 -0.264,0.948 -0.13,0.28 -0.333,0.54 -0.552,0.79 -0.908,0.986 -2.147,1.75 -3.371,2.374 l 0.552,0.222 c -0.277,-0.855 -0.433,-1.813 -0.477,-2.74 -0.047,-0.933 0.04,-1.874 0.232,-2.768 0.268,-0.917 0.41,-2.055 0.131,-3.073 -0.272,-1.032 -0.83,-1.942 -1.68,-2.641 l -0.494,-0.407 -0.121,0.645 c -0.234,1.248 -0.56,2.497 -0.923,3.717 -0.188,0.608 -0.4,1.209 -0.6544,1.785 -0.127,0.285 -0.2699,0.571 -0.4227,0.829 -0.1562,0.255 -0.3687,0.555 -0.5023,0.866 -0.5496,1.239 -0.7609,2.535 -0.9285,3.825 -0.1582,1.291 -0.252,2.586 -0.2586,3.882"
         style="fill:#040606;fill-opacity:1;fill-rule:nonzero;stroke:none"
         id="path26"
         inkscape:connector-curvature="0" /><path
         d="m 74.3125,203.618 c -1.318,-1.163 -2.518,-2.468 -3.5492,-3.874 -1.0231,-1.412 -1.8477,-2.962 -2.2106,-4.625 -0.3718,-1.653 -0.432,-3.436 -0.5195,-5.185 -0.0687,-1.754 -0.0598,-3.509 -0.0039,-5.267 0.0957,-3.513 0.3336,-7.072 0.1676,-10.656 -0.0914,-1.789 -0.2223,-3.578 -0.5137,-5.36 L 66.85,163.41 c -1.091,-6.976 -2.268,-13.946 -2.7918,-20.978 -0.2246,-3.502 -0.4098,-7.068 0.3461,-10.484 0.3801,-1.734 0.6895,-3.483 0.9441,-5.243 0.2379,-1.77 0.45,-3.52 0.3368,-5.363 l -0.002,-0.033 -0.0207,-0.05 c -0.8895,-2.14 -1.609,-4.371 -2.2129,-6.614 -0.609,-2.244 -1.0902,-4.521 -1.391,-6.81 -0.1481,-1.144 -0.2512,-2.291 -0.3043,-3.434 -0.0523,-1.133 -0.0043,-2.289 -0.0055,-3.471 L 61.766,93.9039 C 61.741,89.2191 61.684,84.5359 61.5766,79.85 61.4645,75.1641 61.3227,70.477 60.9902,65.7852 60.8164,63.4359 60.6422,61.093 60.25,58.718 59.8281,56.3789 59.3375,54.0949 58.8367,51.7992 57.8395,47.218 56.6957,42.6742 55.6809,38.1199 55.4297,36.9832 55.1785,35.841 54.9828,34.716 54.8762,34.1492 54.8422,33.65 54.809,33.0441 L 54.698,31.2969 C 54.5547,28.966 54.4371,26.6309 54.3445,24.2961 54.1941,19.6281 53.9965,14.95 54.2773,10.2852 L 54.1035,10.266 c -0.3285,2.325 -0.4586,4.6719 -0.5652,7.0149 -0.1082,2.3429 -0.1434,4.6882 -0.1473,7.0332 -0.0062,2.3441 0.0137,4.6879 0.0598,7.0328 0.0453,1.175 -0.0031,2.3273 0.1863,3.5793 0.1754,1.1867 0.3981,2.3367 0.6223,3.4918 l 2.8402,13.7531 c 0.4703,2.282 0.934,4.582 1.318,6.8519 0.3484,2.2469 0.5476,4.575 0.7156,6.893 0.6164,9.2981 0.8813,18.6582 1.0465,28.0059 l 0.1164,7.0131 c 0.0203,1.157 0.0012,2.344 0.1043,3.548 0.0898,1.192 0.2601,2.373 0.4781,3.539 0.8832,4.671 2.4266,9.127 4.2348,13.477 l -0.0231,-0.082 c 0.1243,1.691 -0.0554,3.481 -0.2718,5.215 -0.227,1.746 -0.5782,3.475 -0.9614,5.195 -0.423,1.739 -0.5918,3.538 -0.6621,5.314 -0.0676,1.781 -0.0687,3.56 -0.0117,5.336 0.2586,7.105 1.0539,14.17 2.1293,21.174 l 0.8402,5.24 c 0.2985,1.707 0.4446,3.452 0.5516,5.195 0.2098,3.487 0.0547,7.006 0.0617,10.566 0.0121,1.779 0.0719,3.564 0.2102,5.343 0.159,1.774 0.2777,3.547 0.748,5.339 0.4766,1.787 1.4778,3.363 2.6063,4.744 1.1414,1.386 2.4414,2.619 3.8746,3.679 l 0.1074,-0.139"
         style="fill:#040606;fill-opacity:1;fill-rule:nonzero;stroke:none"
         id="path28"
         inkscape:connector-curvature="0" /><path
         d="m 44.4574,302.191 c -0.2234,0.646 -0.3558,1.323 -0.3582,2.018 0.0043,0.688 0.1488,1.416 0.5696,2.021 0.2082,0.3 0.4781,0.561 0.7847,0.763 l 0.8528,0.545 c 0.5496,0.363 1.139,0.723 1.4062,1.19 0.2656,0.449 0.1367,1.061 -0.0852,1.651 -0.225,0.595 -0.5398,1.176 -0.8621,1.758 -0.6339,1.175 -1.4,2.318 -1.7703,3.756 -0.1781,0.7 -0.2144,1.59 0.2395,2.341 0.2015,0.361 0.5515,0.675 0.807,0.875 l 0.7684,0.637 c 1.0156,0.856 1.9992,1.749 2.8738,2.716 0.4332,0.485 0.8414,0.989 1.1742,1.516 0.3277,0.519 0.6031,1.085 0.625,1.574 0.0059,0.259 -0.0273,0.409 -0.1668,0.662 -0.1629,0.299 -0.3281,0.644 -0.4586,0.954 -0.2699,0.642 -0.5004,1.29 -0.7105,1.944 -0.8094,2.615 -1.3153,5.341 -1.2153,8.106 0.0532,1.37 0.3532,2.795 0.9672,4.023 0.5856,1.239 1.3047,2.42 2.2172,3.447 0.9,1.032 2.0047,1.908 3.2781,2.456 0.6348,0.275 1.3106,0.459 2.0004,0.539 0.6778,0.071 1.4028,0.105 2.102,-0.168 0.7055,-0.264 1.2121,-0.879 1.5289,-1.506 0.3203,-0.636 0.5035,-1.312 0.6457,-1.984 0.2629,-1.352 0.4297,-2.687 0.4117,-4.089 -0.0207,-1.385 -0.2859,-2.794 -0.834,-4.096 -0.5539,-1.301 -1.3718,-2.452 -2.1765,-3.529 -0.8133,-1.087 -1.566,-2.122 -2.1188,-3.3 -0.564,-1.168 -1.0176,-2.396 -1.2625,-3.651 -0.509,-2.497 -0.1289,-5.185 0.7156,-7.579 0.9372,-2.383 2.4555,-4.61 4.1262,-6.617 0.8438,-0.986 1.7664,-1.973 2.7637,-2.64 0.9414,-0.611 2.1754,-0.667 3.184,-0.111 0.5172,0.284 0.9425,0.639 1.2949,1.151 0.3918,0.531 0.773,1.079 1.1441,1.631 0.7414,1.107 1.4453,2.24 2.0993,3.399 1.291,2.316 2.5011,4.731 3.0246,7.31 0.1261,0.648 0.1886,1.283 0.1867,1.951 l 0.0344,2.021 c 0.0343,1.349 0.05,2.692 0.1804,4.046 l 0.1293,-0.015 c -0.0133,-1.333 0.0567,-2.685 0.1067,-4.027 l 0.0949,-2.014 c 0.0512,-0.678 0.0117,-1.391 -0.0887,-2.07 -0.4332,-2.737 -1.5371,-5.273 -2.7801,-7.686 -0.6336,-1.204 -1.3175,-2.38 -2.0418,-3.53 -0.3632,-0.575 -0.7343,-1.144 -1.1265,-1.707 -0.3914,-0.611 -0.9977,-1.178 -1.6551,-1.548 -0.6676,-0.383 -1.4547,-0.609 -2.2516,-0.597 -0.7949,0.018 -1.5761,0.242 -2.2457,0.669 -1.2535,0.821 -2.1859,1.83 -3.1062,2.866 -0.9078,1.041 -1.7199,2.155 -2.4621,3.318 -0.7352,1.167 -1.4106,2.385 -1.9028,3.715 -0.4812,1.349 -0.739,2.711 -0.8863,4.107 -0.1332,1.397 -0.0691,2.83 0.2277,4.21 0.293,1.384 0.8,2.693 1.4247,3.938 0.6066,1.26 1.4902,2.386 2.3183,3.427 0.8352,1.049 1.6172,2.093 2.1574,3.26 0.5496,1.158 0.8543,2.428 0.934,3.731 0.0785,1.288 -0.0265,2.647 -0.218,3.945 -0.105,0.649 -0.2511,1.291 -0.5105,1.872 -0.2539,0.58 -0.6738,1.07 -1.2418,1.299 -0.5605,0.237 -1.2289,0.23 -1.8793,0.17 -0.6484,-0.066 -1.2867,-0.229 -1.8906,-0.48 -1.211,-0.507 -2.2528,-1.369 -3.1074,-2.37 -0.8403,-1.017 -1.5231,-2.169 -2.0133,-3.395 -0.5274,-1.218 -0.7332,-2.492 -0.7285,-3.811 0.0125,-2.628 0.65,-5.245 1.4961,-7.738 0.2171,-0.622 0.4531,-1.238 0.7199,-1.83 0.1367,-0.307 0.2605,-0.57 0.4207,-0.861 0.2012,-0.328 0.3472,-0.853 0.3121,-1.27 -0.0535,-0.868 -0.4238,-1.543 -0.802,-2.155 -0.3933,-0.606 -0.8441,-1.145 -1.3129,-1.659 -0.9441,-1.018 -1.9671,-1.928 -3.0222,-2.79 l -0.8008,-0.633 c -0.2766,-0.209 -0.4348,-0.354 -0.5762,-0.576 -0.2711,-0.413 -0.2941,-0.978 -0.1613,-1.57 0.2773,-1.19 0.9426,-2.378 1.5438,-3.582 0.3019,-0.608 0.6074,-1.227 0.8308,-1.903 0.1082,-0.34 0.2039,-0.694 0.2231,-1.083 0.0246,-0.383 -0.0539,-0.821 -0.2778,-1.169 -0.4625,-0.688 -1.1136,-0.998 -1.6941,-1.334 l -0.8824,-0.485 c -0.2672,-0.151 -0.5039,-0.35 -0.6965,-0.591 -0.7731,-0.997 -0.7387,-2.474 -0.4403,-3.738 l -0.1242,-0.041"
         style="fill:#040606;fill-opacity:1;fill-rule:nonzero;stroke:none"
         id="path30"
         inkscape:connector-curvature="0" /><path
         d="m 75.998,315.966 c 0.5594,2.191 1.0262,4.423 1.193,6.656 0.0332,0.557 0.0434,1.117 -0.0269,1.651 -0.0621,0.516 -0.2758,1.028 -0.5418,1.496 -0.5442,0.947 -1.2879,1.79 -2.0649,2.586 -1.5719,1.587 -3.3644,2.961 -5.2359,4.194 -0.4695,0.308 -0.9461,0.604 -1.427,0.892 -0.484,0.278 -0.9965,0.605 -1.4554,0.965 -0.9286,0.719 -1.7539,1.552 -2.4856,2.46 -1.443,1.817 -2.5844,3.94 -2.9453,6.309 -0.1602,1.177 -0.0898,2.432 0.3828,3.573 0.4676,1.146 1.3121,2.102 2.3653,2.734 1.1992,0.627 2.4562,0.531 3.6066,0.341 1.1601,-0.21 2.2594,-0.605 3.3129,-1.075 2.1051,-0.95 4.0465,-2.216 5.7746,-3.726 1.7105,-1.515 3.2777,-3.269 4.225,-5.388 0.4574,-1.055 0.7324,-2.229 0.6309,-3.385 -0.0676,-1.14 -0.2364,-2.276 -0.5235,-3.381 -0.2687,-1.111 -0.6683,-2.188 -1.0726,-3.241 -0.1875,-0.525 -0.3977,-1.066 -0.3707,-1.574 0.0191,-0.505 0.4554,-0.869 0.873,-1.235 0.8523,-0.716 1.8074,-1.436 2.4074,-2.493 0.6266,-1.047 0.6735,-2.389 0.3098,-3.518 -0.1656,-0.578 -0.4391,-1.105 -0.6422,-1.61 -0.2094,-0.51 -0.4062,-1.03 -0.5586,-1.557 -0.2973,-1.045 -0.4687,-2.161 -0.2016,-3.145 0.1309,-0.482 0.3981,-0.924 0.7524,-1.179 0.4207,-0.262 0.9723,-0.552 1.4473,-0.865 0.9738,-0.629 1.9043,-1.387 2.6027,-2.366 0.7031,-0.967 1.1035,-2.199 1.0223,-3.409 -0.0297,-0.602 -0.1727,-1.194 -0.3731,-1.743 -0.1859,-0.534 -0.3937,-1.078 -0.6144,-1.603 -0.4364,-1.057 -0.968,-2.075 -1.4442,-3.087 -0.2269,-0.506 -0.4445,-1.022 -0.4515,-1.535 -0.0094,-0.515 0.2652,-1 0.621,-1.419 l -0.0199,0.019 c 0.402,-0.299 0.9403,-0.535 1.4274,-0.398 0.4925,0.142 0.7925,0.663 0.9531,1.169 l 0.0832,-0.024 c -0.0672,-0.269 -0.1609,-0.536 -0.3148,-0.778 -0.1497,-0.239 -0.3735,-0.458 -0.6606,-0.555 -0.2855,-0.1 -0.5957,-0.083 -0.875,-0.008 -0.2828,0.078 -0.5391,0.199 -0.7863,0.367 l -0.0067,0.005 -0.0132,0.014 c -0.3934,0.415 -0.7575,0.958 -0.7825,1.597 -0.0261,0.632 0.202,1.197 0.416,1.724 0.4543,1.055 0.9399,2.065 1.3329,3.118 0.3773,1.058 0.8093,2.117 0.848,3.17 0.0527,1.062 -0.2996,2.105 -0.9371,2.962 -0.6332,0.865 -1.5,1.559 -2.432,2.142 -0.477,0.305 -0.9371,0.53 -1.4828,0.86 -0.5817,0.403 -0.8915,1.016 -1.0567,1.619 -0.5555,2.487 0.6883,4.76 1.5277,6.711 0.3575,1.011 0.3555,2.126 -0.1562,3.069 -0.4938,0.957 -1.3648,1.681 -2.2113,2.441 -0.211,0.196 -0.4239,0.396 -0.6114,0.638 -0.2003,0.243 -0.3238,0.56 -0.3375,0.88 -0.016,0.637 0.2243,1.177 0.42,1.708 0.4226,1.055 0.8394,2.099 1.1117,3.193 0.4644,2.168 0.8687,4.538 -0.1883,6.549 -0.9641,2.014 -2.5371,3.687 -4.2547,5.108 -1.7355,1.411 -3.6547,2.609 -5.7012,3.484 -1.0226,0.432 -2.0832,0.779 -3.1558,0.964 -1.0539,0.179 -2.2086,0.185 -3.0395,-0.274 -0.8812,-0.542 -1.6047,-1.382 -1.9777,-2.345 -0.3871,-0.966 -0.4426,-2.055 -0.2844,-3.114 0.3153,-2.132 1.3692,-4.16 2.7281,-5.879 0.686,-0.861 1.4629,-1.652 2.3247,-2.325 0.8406,-0.658 1.8691,-1.201 2.8019,-1.87 1.882,-1.301 3.6774,-2.74 5.2617,-4.41 0.7871,-0.839 1.5168,-1.747 2.0715,-2.786 0.2711,-0.527 0.4895,-1.087 0.5438,-1.703 0.0554,-0.593 0.0214,-1.172 -0.0336,-1.744 -0.2594,-2.283 -0.8707,-4.478 -1.5407,-6.645 l -0.0836,0.024"
         style="fill:#040606;fill-opacity:1;fill-rule:nonzero;stroke:none"
         id="path32"
         inkscape:connector-curvature="0" /><path
         d="m 61.918,315.44 c 0.384,0.491 0.7933,0.951 1.2832,1.365 0.1254,0.104 0.25,0.206 0.4148,0.299 0.0789,0.043 0.1906,0.101 0.3367,0.11 0.0461,0.014 0.2453,0.004 0.3223,-0.016 0.4105,-0.092 0.6938,-0.277 0.9805,-0.521 l -0.5832,-0.012 c 0.232,0.262 0.4425,0.502 0.7636,0.732 0.0817,0.057 0.1739,0.116 0.3125,0.169 0.0801,0.022 0.1536,0.064 0.3528,0.027 0.1679,-0.045 0.1804,-0.068 0.25,-0.1 0.1992,-0.12 0.3273,-0.226 0.457,-0.345 0.5043,-0.462 0.9137,-0.95 1.3242,-1.462 l 0.45,-0.561 -0.6781,-0.134 c -0.4762,-0.094 -0.9488,-0.194 -1.4281,-0.274 -0.2395,-0.044 -0.4805,-0.077 -0.7246,-0.108 -0.1239,-0.017 -0.2438,-0.028 -0.3809,-0.037 -0.1992,-0.011 -0.2633,0.015 -0.4012,0.021 l -0.0222,0 0,10e-4 c -1.1004,0.186 -2.2028,0.366 -3.3168,0.387 l 0.155,0.216 c 0.2942,-0.542 0.736,-1.028 1.2122,-1.369 0.4929,-0.334 0.9867,-0.519 1.5445,-0.485 0.6359,0.033 1.2414,0.074 1.7723,0.295 0.5296,0.219 0.9875,0.684 1.455,1.142 l 0.0711,-0.051 c -0.2836,-0.583 -0.625,-1.198 -1.2527,-1.597 -0.6223,-0.392 -1.3434,-0.494 -1.9902,-0.553 -0.7446,-0.108 -1.5489,0.237 -2.0235,0.755 -0.5027,0.511 -0.8183,1.113 -1.0738,1.741 l -0.1039,0.254 0.2594,-0.038 c 1.1031,-0.161 2.2191,-0.163 3.3359,-0.158 l -0.0223,0.001 c 0.1028,0.013 0.2817,0.015 0.3215,0.037 l 0.3317,0.09 0.691,0.191 1.3926,0.375 -0.2282,-0.695 c -0.4238,0.452 -0.8652,0.919 -1.298,1.324 -0.1074,0.095 -0.2207,0.2 -0.2938,0.247 0,0.007 -0.0578,0.023 0.0325,-10e-4 0.1218,-0.005 0.1144,0.01 0.1187,0.008 -0.0102,-0.002 -0.0578,-0.021 -0.109,-0.054 -0.2051,-0.133 -0.4535,-0.343 -0.6613,-0.54 l -0.3145,-0.298 -0.2695,0.286 c -0.1582,0.168 -0.3894,0.354 -0.5723,0.418 -0.0722,0.014 -0.0257,0.028 -0.1324,0.028 -0.0082,0.007 -0.0414,0.006 -0.1019,-0.012 -0.1121,-0.036 -0.2438,-0.104 -0.3703,-0.173 -0.5083,-0.294 -1.0161,-0.647 -1.5282,-0.988 l -0.0601,0.063"
         style="fill:#040606;fill-opacity:1;fill-rule:nonzero;stroke:none"
         id="path34"
         inkscape:connector-curvature="0" /><path
         d="m 49.5367,267.996 c 0.6102,-1.05 1.3094,-2.039 2.116,-2.926 0.7832,-0.905 1.6676,-1.717 2.6465,-2.373 1.9418,-1.334 4.3004,-1.974 6.6149,-1.675 1.1351,0.13 2.3402,0.448 3.3336,0.924 1.0226,0.542 1.955,1.282 2.6949,2.171 0.7371,0.893 1.2246,1.991 1.3426,3.16 0.1484,1.171 -0.0887,2.377 -0.4801,3.523 0.5676,-1.073 0.9094,-2.293 0.8957,-3.551 -0.0285,-1.259 -0.4945,-2.504 -1.2356,-3.531 -0.7371,-1.039 -1.7312,-1.856 -2.8265,-2.488 -0.6067,-0.354 -1.1664,-0.496 -1.7778,-0.692 -0.6019,-0.173 -1.2199,-0.305 -1.8464,-0.381 -1.2543,-0.142 -2.5454,-0.057 -3.7661,0.287 -1.2136,0.358 -2.3621,0.932 -3.3445,1.704 -1.9758,1.531 -3.4637,3.59 -4.3672,5.848"
         style="fill:#040606;fill-opacity:1;fill-rule:nonzero;stroke:none"
         id="path36"
         inkscape:connector-curvature="0" /><path
         d="m 49.5367,218.689 c 3.6567,-0.473 7.293,-0.907 10.9297,-1.228 3.625,-0.295 7.2938,-0.531 10.8551,-0.363 1.732,0.108 3.4777,0.489 5.1726,1.029 1.7079,0.515 3.361,1.232 4.9977,1.996 3.2543,1.577 6.3828,3.475 9.4059,5.581 -2.5559,-2.668 -5.5332,-4.938 -8.7715,-6.793 -3.2407,-1.835 -6.8254,-3.262 -10.6981,-3.551 -3.7812,-0.142 -7.4633,0.185 -11.1258,0.76 -3.6519,0.583 -7.264,1.396 -10.7656,2.569"
         style="fill:#040606;fill-opacity:1;fill-rule:nonzero;stroke:none"
         id="path38"
         inkscape:connector-curvature="0" /><path
         d="m 61.0254,75.134 c 0.5762,-0.466 1.1387,-0.8988 1.7117,-1.3039 0.5793,-0.3961 1.1594,-0.775 1.7746,-1.077 1.2207,-0.641 2.5238,-1.0062 3.9946,-1.1922 -0.6977,-0.2558 -1.468,-0.3347 -2.2215,-0.2449 -0.7578,0.075 -1.4938,0.3211 -2.1711,0.661 -0.6735,0.3519 -1.2883,0.8019 -1.8145,1.3351 -0.525,0.5301 -0.9828,1.1328 -1.2738,1.8219"
         style="fill:#040606;fill-opacity:1;fill-rule:nonzero;stroke:none"
         id="path40"
         inkscape:connector-curvature="0" /></g></g></svg>