<?xml version="1.0" encoding="UTF-8" standalone="no"?>
<!-- Created with Inkscape (http://www.inkscape.org/) -->

<svg
   xmlns:dc="http://purl.org/dc/elements/1.1/"
   xmlns:cc="http://creativecommons.org/ns#"
   xmlns:rdf="http://www.w3.org/1999/02/22-rdf-syntax-ns#"
   xmlns:svg="http://www.w3.org/2000/svg"
   xmlns="http://www.w3.org/2000/svg"
   xmlns:sodipodi="http://sodipodi.sourceforge.net/DTD/sodipodi-0.dtd"
   xmlns:inkscape="http://www.inkscape.org/namespaces/inkscape"
   id="svg2"
   version="1.1"
   inkscape:version="0.91 r13725"
   width="200"
   height="451.3125"
   xml:space="preserve"
   sodipodi:docname="sc-body-m.svg"><metadata
     id="metadata8"><rdf:RDF><cc:Work
         rdf:about=""><dc:format>image/svg+xml</dc:format><dc:type
           rdf:resource="http://purl.org/dc/dcmitype/StillImage" /><dc:title></dc:title></cc:Work></rdf:RDF></metadata><defs
     id="defs6" /><sodipodi:namedview
     pagecolor="#ffffff"
     bordercolor="#666666"
     borderopacity="1"
     objecttolerance="10"
     gridtolerance="10"
     guidetolerance="10"
     inkscape:pageopacity="0"
     inkscape:pageshadow="2"
     inkscape:window-width="1600"
     inkscape:window-height="835"
     id="namedview4"
     showgrid="false"
     inkscape:zoom="2.0916771"
     inkscape:cx="23.52055"
     inkscape:cy="296.04725"
     inkscape:window-x="0"
     inkscape:window-y="0"
     inkscape:window-maximized="1"
     inkscape:current-layer="g10" /><g
     id="g10"
     inkscape:groupmode="layer"
     inkscape:label="ink_ext_XXXXXX"
     transform="matrix(1.25,0,0,-1.25,0,451.3125)"><g
       id="g3367"
       transform="translate(26.428601,-0.3824682)"><path
         d="m 68.0145,350.751 c -0.3922,-1.162 -1.1454,-2.15 -1.9911,-3.026 -0.8554,-0.877 -1.8691,-1.592 -2.9453,-2.18 -1.0793,-0.584 -2.2324,-1.019 -3.4043,-1.365 l -3.4355,-0.942 c -2.2957,-0.598 -4.6043,-1.171 -6.8953,-1.711 l -1.6899,-0.423 c -0.2554,-0.073 -0.5789,-0.159 -0.7343,-0.239 -0.1161,-0.053 -0.3243,-0.205 -0.4864,-0.37 -0.6863,-0.703 -1.2156,-1.796 -1.5933,-2.823 l -0.6094,-1.657 -0.4524,1.635 c -0.4804,1.734 -0.8007,3.462 -1.0058,5.222 -0.2102,1.751 -0.3184,3.528 -0.1375,5.299 0.1394,1.765 0.7422,3.561 1.8289,5 1.0437,1.465 2.3769,2.693 3.8203,3.745 2.8926,2.101 6.2859,3.553 9.916,4.018 1.834,0.2 3.6453,0.137 5.4824,-0.223 0.9122,-0.194 1.8243,-0.477 2.6954,-0.918 0.4335,-0.223 0.8613,-0.478 1.2558,-0.8 0.1973,-0.16 0.3899,-0.333 0.5723,-0.525 0.1926,-0.213 0.3379,-0.36 0.5469,-0.715 l -0.7618,0.489 c 0.9532,-0.09 1.7508,-0.309 2.586,-0.68 0.8176,-0.367 1.5957,-0.934 2.1789,-1.698 0.5867,-0.759 0.9226,-1.703 1.0086,-2.611 0.0879,-0.887 0.0383,-1.687 -0.0324,-2.502 -0.1532,-1.613 -0.4403,-3.179 -0.7997,-4.722 -0.3535,-1.546 -0.7753,-3.059 -1.2695,-4.57 l -0.582,-1.779 -0.4617,1.763 c -0.3157,1.207 -0.6528,2.409 -0.9524,3.621 -0.2961,1.215 -0.6113,2.423 -0.884,3.645 l 0.1672,0.052 c 0.4844,-1.154 0.927,-2.321 1.3887,-3.482 0.4582,-1.163 0.8789,-2.337 1.3203,-3.505 l -1.0437,-0.015 c 0.3418,1.502 0.6382,3.033 0.9011,4.552 0.2449,1.523 0.4641,3.051 0.5364,4.557 0.03,0.743 0.0347,1.512 -0.0461,2.182 -0.0789,0.645 -0.3118,1.221 -0.6922,1.693 -0.7395,0.939 -2.1606,1.506 -3.4387,1.643 l -0.5293,0.057 -0.2324,0.433 c -0.0125,0.021 -0.1516,0.21 -0.2578,0.315 -0.116,0.125 -0.25,0.246 -0.3907,0.361 -0.2832,0.228 -0.5976,0.442 -0.9355,0.625 -0.6777,0.37 -1.4395,0.637 -2.2285,0.828 -1.5781,0.363 -3.2988,0.478 -4.9387,0.342 -3.3211,-0.297 -6.618,-1.48 -9.5262,-3.248 -1.4421,-0.906 -2.789,-1.993 -3.8562,-3.317 -0.5207,-0.668 -0.9719,-1.394 -1.2695,-2.18 -0.2942,-0.79 -0.4661,-1.632 -0.5547,-2.484 -0.3098,-3.429 0.5496,-6.909 1.6765,-10.113 l -1.0617,-0.021 c 0.3508,1.212 0.7512,2.363 1.6262,3.457 0.2363,0.273 0.4805,0.517 0.8906,0.738 0.3738,0.189 0.6301,0.252 0.9363,0.36 0.5871,0.188 1.1633,0.351 1.7434,0.495 2.3105,0.593 4.623,1.077 6.9285,1.611 l 3.4621,0.778 c 1.1223,0.245 2.2168,0.593 3.2696,1.045 2.0734,0.918 4.0671,2.3 5.2238,4.345 l 0.1637,-0.062"
         style="fill:#040606;fill-opacity:1;fill-rule:nonzero;stroke:none"
         id="path14"
         inkscape:connector-curvature="0" /><path
         d="m 41.6328,337.827 c 0.7852,-2.083 1.4793,-4.193 2.2156,-6.29 l -0.2195,0.249 c 0.7883,-0.326 1.282,-0.914 1.7316,-1.483 0.4422,-0.585 0.8106,-1.184 1.1473,-1.846 l 0.0383,-0.074 0.0105,-0.153 c 0.1297,-1.894 0.4532,-3.907 1.295,-5.504 0.2058,-0.396 0.4511,-0.756 0.7363,-1.04 0.1379,-0.148 0.2937,-0.261 0.448,-0.37 l 0.6465,-0.439 c 0.8489,-0.602 1.6211,-1.243 2.4016,-1.798 1.5265,-1.152 3.2195,-1.815 5.0918,-1.921 1.8269,-0.135 3.7344,0.226 5.5176,0.877 1.7675,0.667 3.5117,1.572 4.8164,2.862 0.6726,0.663 1.082,1.292 1.3562,2.234 0.2871,0.904 0.4934,1.87 0.675,2.838 0.7207,3.89 1.1555,7.878 1.5969,11.858 0.1199,-4.009 0.0613,-8.022 -0.4008,-12.046 -0.1316,-1.006 -0.2851,-2.012 -0.5469,-3.033 -0.1343,-0.505 -0.2937,-1.038 -0.5757,-1.559 -0.3032,-0.528 -0.6387,-0.94 -1.0137,-1.346 -1.5141,-1.568 -3.3613,-2.639 -5.3188,-3.388 -1.9578,-0.728 -4.064,-1.192 -6.2371,-1.03 -1.0652,0.084 -2.1445,0.309 -3.1633,0.709 -1.0195,0.399 -1.9531,0.976 -2.7871,1.598 -0.8308,0.632 -1.5769,1.297 -2.3418,1.877 l -0.5797,0.423 c -0.2511,0.183 -0.4914,0.382 -0.6886,0.605 -0.4082,0.439 -0.709,0.93 -0.9485,1.427 -0.4675,1.005 -0.7168,2.038 -0.8816,3.065 -0.1594,1.033 -0.2434,2.044 -0.2195,3.101 l 0.0488,-0.228 c -0.2453,0.59 -0.5566,1.2 -0.9094,1.745 -0.3535,0.538 -0.7734,1.064 -1.2519,1.325 l -0.1875,0.102 -0.0332,0.148 c -0.4911,2.168 -1.0246,4.324 -1.4688,6.505"
         style="fill:#040606;fill-opacity:1;fill-rule:nonzero;stroke:none"
         id="path16"
         inkscape:connector-curvature="0" /><path
         d="m 47.2461,321.005 c 0.032,-1.436 0.0625,-2.869 0.1484,-4.298 0.0586,-1.427 0.1524,-2.85 0.302,-4.259 0.1402,-1.412 0.4805,-2.787 0.5926,-4.154 0.0605,-0.686 0.1445,-1.362 0.2429,-2.031 0.1184,-0.669 0.2297,-1.322 0.5735,-1.961 l -0.1121,-0.134 c -0.7454,0.315 -1.2524,1.017 -1.6184,1.685 -0.3738,0.684 -0.6145,1.41 -0.8035,2.135 -0.3879,1.457 -0.2785,2.947 -0.2695,4.398 0.0425,2.91 0.2988,5.786 0.7703,8.634 l 0.1738,-0.015"
         style="fill:#040606;fill-opacity:1;fill-rule:nonzero;stroke:none"
         id="path18"
         inkscape:connector-curvature="0" /><path
         d="m 46.991,309.689 -4.1629,-3.173 -2.0566,-1.608 c -0.332,-0.273 -0.6836,-0.541 -0.9832,-0.814 l -0.0988,-0.096 -0.0274,-0.03 0,0 c 0.0176,0.018 -0.1355,-0.142 -0.0793,-0.08 -0.0086,-0.007 -0.0105,-0.015 -0.0828,-0.059 -0.052,-0.031 -0.1301,-0.061 -0.1699,-0.07 l -0.0711,-0.015 c -0.0527,-0.012 -0.0832,-0.012 -0.1211,-0.017 -0.0766,-0.008 -0.1359,-0.009 -0.2004,-0.011 -0.2434,-0.003 -0.4641,0.007 -0.6863,0.018 -3.4758,0.248 -6.9258,0.17 -10.2032,-0.692 -3.257,-0.856 -6.2511,-2.603 -8.3468,-5.194 -1.0457,-1.266 -1.9082,-2.768 -2.7481,-4.264 -0.8437,-1.491 -1.5676,-3.039 -2.1816,-4.624 -0.6055,-1.589 -1.0449,-3.235 -1.282,-4.922 -0.2454,-1.688 -0.2825,-3.411 -0.2891,-5.154 -0.0129,-1.743 -0.0258,-3.512 -0.2258,-5.268 -0.2058,-1.753 -0.5558,-3.481 -1.0058,-5.177 -0.8633,-3.394 -2.13482,-6.68 -2.65435,-10.082 -0.24609,-1.686 -0.14531,-3.428 -0.15507,-5.173 0.01757,-1.736 0.06718,-3.486 0.1746,-5.199 l 0.0129,-0.199 -0.16211,-0.214 c -0.14883,-0.197 -0.35743,-0.571 -0.50508,-0.893 -0.15821,-0.337 -0.29766,-0.69 -0.42578,-1.049 -0.25274,-0.719 -0.46094,-1.462 -0.64532,-2.214 -0.36171,-1.506 -0.6039,-3.051 -0.77851,-4.604 -0.33594,-3.112 -0.45899,-6.258 -0.43281,-9.406 0.03242,-3.145 0.17109,-6.317 0.35859,-9.465 0.16523,-3.154 0.44062,-6.301 0.74102,-9.441 0.31875,-3.136 0.72304,-6.274 1.25703,-9.358 l 2.15939,-9.238 c 0.1765,-0.776 0.3387,-1.555 0.4883,-2.348 l 0.1043,-0.609 0.039,-0.306 c 0.0012,-0.017 0.0254,-0.124 0.0481,-0.196 0.0984,-0.331 0.25,-0.693 0.4019,-1.045 0.6313,-1.417 1.3781,-2.816 2.1594,-4.18 0.3945,-0.679 0.8008,-1.354 1.2258,-2.009 0.2144,-0.326 0.4363,-0.648 0.6734,-0.941 0.1153,-0.141 0.2485,-0.289 0.3547,-0.369 0.0703,-0.056 0.2766,-0.112 0.4465,-0.143 0.741,-0.127 1.5437,-0.13 2.3289,-0.13 0.7891,0.003 1.582,0.023 2.3723,0.067 l 0.0183,-0.174 c -1.584,-0.205 -3.1472,-0.423 -4.8,-0.303 -0.2183,0.035 -0.4168,0.04 -0.6875,0.19 -0.2215,0.144 -0.3594,0.294 -0.5066,0.446 -0.2852,0.306 -0.5363,0.622 -0.7821,0.942 -0.4914,0.642 -0.9417,1.304 -1.3761,1.976 -0.866,1.348 -1.6906,2.712 -2.427,4.159 -0.1804,0.367 -0.3594,0.729 -0.5105,1.152 -0.0391,0.116 -0.0711,0.199 -0.1074,0.378 l -0.0508,0.282 -0.1258,0.558 -0.58438,2.29 -2.46758,9.231 c -0.67188,3.149 -1.10352,6.309 -1.47461,9.482 -0.72461,6.347 -1.00117,12.718 -0.96797,19.104 0.04023,3.197 0.18477,6.406 0.64844,9.593 0.23047,1.592 0.52851,3.181 0.95703,4.75 0.21406,0.784 0.46601,1.562 0.7793,2.325 0.15742,0.382 0.32851,0.761 0.52382,1.133 0.21094,0.385 0.38243,0.714 0.73711,1.132 l -0.14922,-0.413 c -0.03125,1.773 0.0125,3.514 0.06055,5.265 l 0.09922,2.622 c 0.03242,0.874 0.11562,1.781 0.27852,2.648 0.6164,3.501 1.95507,6.747 2.80857,10.111 0.4258,1.681 0.7656,3.384 0.8992,5.103 0.1575,1.719 0.0813,3.448 0,5.191 -0.0789,1.743 -0.1367,3.518 0.0325,5.299 0.1613,1.779 0.5402,3.547 1.0957,5.248 0.5468,1.707 1.3007,3.331 2.1211,4.905 0.4179,0.783 0.8671,1.55 1.3293,2.305 0.4617,0.755 0.9832,1.529 1.573,2.223 1.177,1.4 2.5957,2.604 4.1672,3.533 1.5699,0.937 3.2937,1.58 5.0457,1.997 3.5144,0.861 7.1523,0.68 10.6047,0.291 0.2129,-0.021 0.4273,-0.04 0.6199,-0.046 l 0.127,0 0.041,0.003 0.009,-10e-4 c -0.0137,-0.002 -0.0665,-0.021 -0.0918,-0.044 -0.0461,-0.038 -0.0266,-0.028 -0.0149,-0.016 0.0664,0.07 -0.073,-0.083 -0.0488,-0.054 l 0.0265,0.031 0.086,0.088 0.1426,0.125 c 0.3629,0.294 0.7129,0.547 1.0769,0.797 l 2.1824,1.462 c 1.4614,0.959 2.9282,1.906 4.4192,2.819 l 0.0984,-0.144"
         style="fill:#040606;fill-opacity:1;fill-rule:nonzero;stroke:none"
         id="path20"
         inkscape:connector-curvature="0" /><path
         d="m 27.2363,279.077 c 1.8313,-1.809 3.5813,-3.659 5.3594,-5.459 0.9023,-0.884 1.7793,-1.789 2.7141,-2.604 0.9168,-0.804 1.8816,-1.658 2.8367,-1.993 1.0332,-0.383 2.2949,-0.556 3.5137,-0.689 1.2336,-0.151 2.4875,-0.2 3.7441,-0.266 1.2578,-0.042 2.5215,-0.073 3.7852,-0.049 1.2648,0.024 2.5339,0.029 3.7863,0.299 -1.1379,-0.641 -2.4414,-0.889 -3.7024,-1.152 -1.2734,-0.226 -2.5593,-0.384 -3.8515,-0.46 -1.2942,-0.096 -2.5918,-0.078 -3.9004,-0.019 -1.3145,0.1 -2.6113,0.236 -3.9883,0.704 -0.7156,0.263 -1.3262,0.693 -1.8547,1.101 -0.534,0.422 -1.032,0.858 -1.4969,1.323 -0.9218,0.933 -1.7949,1.888 -2.5964,2.9 -1.6184,2.006 -3.0903,4.115 -4.3489,6.364"
         style="fill:#040606;fill-opacity:1;fill-rule:nonzero;stroke:none"
         id="path22"
         inkscape:connector-curvature="0" /><path
         d="m 58.298,287.514 c 0.4879,-2.822 0.7528,-5.652 0.9375,-8.485 0.0782,-1.416 0.1622,-2.833 0.1844,-4.252 0.0117,-1.419 -0.0383,-2.84 -0.1023,-4.262 l -0.3867,0.487 c 3.0574,-1.12 6.2437,-1.894 9.4734,-2.296 1.6113,-0.224 3.2352,-0.351 4.8398,-0.47 1.5977,-0.107 3.2215,-0.225 4.7079,-0.047 l 0.2714,0.04 0.0664,0.01 c -0.0378,-0.005 0.0325,0.008 0.043,0.011 l 0.1508,0.032 c 0.1375,0.038 0.2684,0.081 0.4312,0.148 0.3071,0.128 0.6125,0.3 0.9122,0.5 0.6007,0.398 1.1859,0.886 1.7335,1.429 1.1172,1.068 2.129,2.302 3.1192,3.559 1.9609,2.537 3.7683,5.24 5.5918,7.961 l 0.157,-0.077 c -1.1219,-3.099 -2.6055,-6.051 -4.4195,-8.834 -0.9121,-1.391 -1.932,-2.727 -3.1438,-3.945 -0.6179,-0.596 -1.2793,-1.173 -2.0578,-1.65 -0.3902,-0.234 -0.8086,-0.445 -1.2652,-0.607 -0.2168,-0.078 -0.4777,-0.152 -0.7375,-0.202 l -0.1516,-0.024 -0.1062,-0.017 -0.0852,-0.01 -0.3355,-0.033 c -3.5063,-0.185 -6.6797,0.651 -9.8723,1.433 -3.1769,0.829 -6.3484,1.533 -9.5976,2.078 l -0.3372,0.057 -0.0496,0.431 c -0.1621,1.414 -0.3086,2.829 -0.3945,4.245 -0.073,1.417 -0.0867,2.836 -0.1062,4.255 -0.009,2.839 0.0613,5.68 0.355,8.53 l 0.1742,0.005"
         style="fill:#040606;fill-opacity:1;fill-rule:nonzero;stroke:none"
         id="path24"
         inkscape:connector-curvature="0" /><path
         d="m 29.418,285.912 c -0.3164,-4.02 -0.6289,-8.022 -0.7141,-12.004 -0.0137,-0.995 -0.0074,-1.987 0.0141,-2.974 0.0437,-0.977 0.0593,-2.055 0.0164,-3.065 -0.0918,-2.049 -0.3457,-4.073 -0.666,-6.082 -0.7161,-4.004 -1.6856,-7.976 -3.3965,-11.732 -0.4422,-0.932 -0.9192,-1.86 -1.5586,-2.717 l -1.9238,-2.353 -1.9207,-2.321 -0.9458,-1.173 c -0.2957,-0.4 -0.655,-0.774 -0.8296,-1.242 0.2761,0.981 0.8816,1.823 1.3804,2.694 0.5246,0.864 1.0793,1.706 1.6274,2.552 l 1.6687,2.489 c 0.4903,0.806 0.8977,1.695 1.25,2.606 0.6914,1.832 1.2656,3.732 1.7254,5.659 0.4809,1.923 0.8867,3.869 1.2031,5.827 0.345,1.953 0.5969,3.923 0.7407,5.887 0.082,0.996 0.1062,1.929 0.1043,2.96 0.0078,1.023 0.0703,2.041 0.1562,3.053 0.3438,4.045 1.0391,8.032 2.0684,11.936"
         style="fill:#040606;fill-opacity:1;fill-rule:nonzero;stroke:none"
         id="path26"
         inkscape:connector-curvature="0" /><path
         d="m 20.3391,244.456 c 0.7879,-2.828 1.2214,-5.751 1.3804,-8.696 0.1477,-2.944 0.011,-5.929 -0.5828,-8.859 -0.5898,-2.905 -1.4433,-5.71 -2.4109,-8.471 -0.9524,-2.761 -2.0285,-5.473 -2.7403,-8.269 -0.3378,-1.398 -0.5746,-2.831 -0.3476,-4.229 0.2137,-1.391 0.9156,-2.664 1.9969,-3.577 1.0363,-0.944 2.3945,-1.655 3.3711,-2.871 0.9582,-1.155 1.8039,-2.338 2.6629,-3.523 l 2.5343,-3.546 c 0.4258,-0.574 0.8633,-1.16 1.3067,-1.641 l 0.159,-0.166 0.1972,-0.184 c 0.1301,-0.148 0.268,-0.263 0.3613,-0.645 0.043,-0.184 0.009,-0.46 -0.0933,-0.644 -0.0996,-0.188 -0.227,-0.303 -0.3242,-0.376 -0.395,-0.262 -0.6157,-0.27 -0.852,-0.328 -0.2273,-0.04 -0.4363,-0.06 -0.6414,-0.073 -0.8164,-0.04 -1.5793,0.02 -2.3586,0.14 -0.3887,0.063 -0.7769,0.142 -1.1824,0.266 -0.2031,0.064 -0.4102,0.137 -0.6348,0.247 -0.1125,0.056 -0.2297,0.12 -0.3601,0.214 l -0.2539,0.196 c -1.2246,1.045 -2.1758,2.116 -3.1504,3.266 l 1.6402,0.688 c 0.1566,-1.466 0.352,-2.941 0.5441,-4.395 0.1004,-0.717 0.2071,-1.47 0.3583,-2.098 0.0148,-0.062 0.046,-0.172 0.046,-0.161 0.0508,-0.129 0.0286,-0.05 0.0594,-0.117 0.0637,-0.108 0.1582,-0.239 0.259,-0.368 0.2031,-0.261 0.4402,-0.528 0.6816,-0.793 0.9707,-1.075 2.0391,-2.123 3.0657,-3.236 0.5093,-0.568 1.0156,-1.128 1.4824,-1.825 0.116,-0.177 0.2305,-0.363 0.3316,-0.612 0.0598,-0.144 0.0774,-0.216 0.1086,-0.315 l 0.0852,-0.306 c 0.0496,-0.208 0.0965,-0.419 0.107,-0.694 0.0012,-0.14 0.0078,-0.294 -0.0808,-0.538 -0.0567,-0.242 -0.4864,-0.669 -0.9778,-0.523 l -0.1355,0.041 -0.0742,0.058 c -2.8332,2.201 -5.668,4.401 -8.4344,6.697 l 0.1023,0.143 c 3.0684,-1.872 6.0684,-3.841 9.0703,-5.808 l -0.2097,0.098 c -0.3008,0.101 -0.5461,-0.184 -0.55,-0.247 -0.0242,-0.069 -0.0125,-0.032 -0.0203,0.012 -0.011,0.098 -0.0481,0.252 -0.0957,0.403 l -0.0786,0.228 c -0.0293,0.076 -0.0671,0.183 -0.0855,0.208 -0.0449,0.094 -0.1301,0.225 -0.227,0.352 -0.3953,0.52 -0.9168,1.046 -1.4343,1.554 -1.0403,1.034 -2.1438,2.025 -3.22,3.116 -0.2664,0.278 -0.5308,0.561 -0.7949,0.881 -0.1304,0.163 -0.2605,0.329 -0.3941,0.538 -0.0617,0.093 -0.1836,0.331 -0.1985,0.377 -0.0761,0.182 -0.0886,0.253 -0.123,0.37 -0.2148,0.816 -0.3273,1.54 -0.4523,2.294 -0.2391,1.493 -0.3961,2.977 -0.5625,4.472 l -0.3321,3.015 1.9731,-2.328 c 0.907,-1.07 1.8562,-2.227 2.8347,-3.094 0.2903,-0.316 0.9446,-0.472 1.6035,-0.609 0.6575,-0.122 1.3536,-0.193 1.9954,-0.178 0.1582,0.004 0.3113,0.016 0.4429,0.036 0.1184,0.007 0.2668,0.077 0.175,0.023 -0.0234,-0.02 -0.0871,-0.068 -0.1425,-0.176 -0.0606,-0.104 -0.0782,-0.284 -0.0555,-0.379 0.0562,-0.203 0.0762,-0.167 0.0828,-0.185 l -0.1973,0.196 c -0.0722,0.078 -0.1496,0.158 -0.2121,0.235 -0.5105,0.62 -0.9129,1.228 -1.3262,1.846 -0.8093,1.233 -1.5859,2.467 -2.3386,3.714 -0.7625,1.235 -1.5125,2.495 -2.3489,3.638 -0.7937,1.136 -2.0144,1.933 -3.1074,2.97 -1.1062,1.023 -1.8902,2.447 -2.0972,3.95 -0.2649,1.494 -0.0254,3.001 0.2261,4.442 0.545,2.9 1.3594,5.714 2.1008,8.528 0.7481,2.809 1.536,5.603 2.1992,8.391 0.6067,2.779 0.8782,5.645 0.9368,8.526 0.0476,2.881 -0.0715,5.785 -0.4133,8.676 l 0.1711,0.038"
         style="fill:#040606;fill-opacity:1;fill-rule:nonzero;stroke:none"
         id="path28"
         inkscape:connector-curvature="0" /><path
         d="m 27.5332,257.87 c 1.0176,-2.859 2.0762,-5.702 3.25,-8.483 0.5828,-1.391 1.1992,-2.768 1.9004,-4.082 0.3516,-0.654 0.7246,-1.296 1.1418,-1.877 0.2078,-0.289 0.4285,-0.564 0.6601,-0.789 0.2625,-0.256 0.568,-0.582 0.8125,-0.908 1.0028,-1.307 1.6153,-2.824 2.0184,-4.353 0.3914,-1.535 0.5852,-3.109 0.5703,-4.691 l -0.0742,-9.096 -0.0137,-2.26 0.0047,-0.546 c 0.0039,-0.093 0.0039,-0.157 0.0117,-0.205 0.0325,-0.314 -0.0093,-0.372 -0.0222,-0.504 -0.0821,-0.433 -0.1856,-0.788 -0.2864,-1.164 -0.4082,-1.473 -0.8257,-2.916 -1.1707,-4.379 -0.341,-1.458 -0.6445,-2.935 -0.7019,-4.396 -0.0188,-0.705 0.0555,-1.493 0.0457,-2.259 0.0012,-0.767 -0.0067,-1.531 -0.0371,-2.293 l -0.2344,-4.552 -0.0801,-2.285 c -0.0644,-0.77 -0.1648,-1.521 -0.2617,-2.275 -0.4004,-3.011 -0.8215,-6.012 -1.0957,-9.031 -0.2988,-3.014 -0.5176,-6.034 -0.6223,-9.052 -0.1035,-3.015 -0.1421,-6.032 0.0727,-9.018 0.1055,-1.492 0.2535,-2.977 0.5098,-4.434 0.2664,-1.467 0.5718,-2.958 0.8816,-4.434 0.616,-2.96 1.3215,-5.905 1.9941,-8.856 l 2.1106,-8.838 c 0.7183,-2.961 1.4539,-5.844 2.1336,-8.884 0.3,-1.652 0.1379,-3.244 -0.0188,-4.756 -0.1715,-1.516 -0.3152,-2.994 -0.3699,-4.482 -0.0625,-1.49 0.0399,-2.962 0.1531,-4.487 l 0.3125,-4.543 -0.0086,0.052 c 0.2403,-1.16 0.5008,-2.32 0.7832,-3.472 0.2918,-1.149 0.575,-2.304 0.9747,-3.416 l -0.1602,-0.068 c -0.5105,1.086 -0.8984,2.22 -1.2695,3.354 -0.3703,1.136 -0.7168,2.276 -1.0457,3.428 l -0.0039,0.013 -0.0039,0.038 -0.5715,4.517 c -0.1946,1.491 -0.3875,3.046 -0.4063,4.592 -0.0422,1.549 0.0906,3.097 0.2012,4.6 0.1094,1.5 0.1875,2.976 -0.1055,4.315 -1.5703,5.776 -3.1804,11.702 -4.5156,17.618 -0.6941,2.961 -1.2949,5.944 -1.877,8.934 -0.2851,1.498 -0.5617,2.985 -0.8105,4.508 -0.2363,1.539 -0.3731,3.079 -0.4356,4.617 -0.2316,6.154 0.4668,12.23 1.3008,18.25 l 1.334,9.012 c 0.1074,0.748 0.2195,1.5 0.293,2.242 0.0476,0.712 0.0207,1.516 0.0637,2.264 0.0613,1.519 0.1382,3.032 0.1367,4.542 0,0.754 0,1.508 -0.0481,2.258 -0.0285,0.751 -0.1426,1.473 -0.1672,2.285 -0.0203,1.578 0.2141,3.105 0.4829,4.615 0.275,1.509 0.6257,3.002 0.9539,4.473 0.0781,0.361 0.1621,0.742 0.2043,1.057 0.0117,0.055 0.0054,0.187 0.0105,0.062 -0.0273,0.138 -0.0344,0.264 -0.043,0.361 l -0.034,0.59 -0.05,2.291 c -0.0417,3.042 -0.0046,6.078 0.0481,9.11 0.0398,1.453 -0.1379,2.916 -0.4555,4.329 -0.3277,1.408 -0.8465,2.774 -1.666,3.905 -0.2019,0.287 -0.4148,0.519 -0.6773,0.809 -0.2961,0.321 -0.5332,0.655 -0.7524,0.992 -0.4344,0.675 -0.7906,1.368 -1.1226,2.067 -0.6606,1.399 -1.2141,2.826 -1.7336,4.261 -1.0125,2.88 -1.8692,5.801 -2.5852,8.758 l 0.1672,0.049"
         style="fill:#040606;fill-opacity:1;fill-rule:nonzero;stroke:none"
         id="path30"
         inkscape:connector-curvature="0" /><path
         d="m 90.3496,277.394 c 0.0281,-2.685 -0.0957,-5.349 -0.2351,-8.001 -0.0493,-1.323 -0.1625,-2.655 -0.168,-3.941 l 0.0015,-0.495 c 0.0012,-0.061 -0.0125,-0.232 -0.0234,-0.323 L 89.884,264.34 c -0.0637,-0.377 -0.1527,-0.722 -0.2485,-1.062 -0.1921,-0.678 -0.4207,-1.323 -0.6621,-1.963 -1.0183,-2.527 -2.2586,-4.924 -3.7332,-7.19 -0.7312,-1.135 -1.5351,-2.227 -2.4172,-3.258 -0.9011,-1 -1.8652,-2.021 -3.0886,-2.619 0.9851,0.908 1.7058,2.012 2.3996,3.128 0.6941,1.114 1.318,2.273 1.9305,3.436 0.591,1.173 1.1972,2.34 1.7335,3.539 0.5555,1.187 1.0899,2.386 1.5516,3.6 0.241,0.601 0.468,1.207 0.6524,1.806 0.0898,0.298 0.1718,0.598 0.2246,0.876 l 0.0324,0.199 c 0.0078,0.075 0.0125,0.07 0.0176,0.175 l 0.0222,0.504 c 0.1055,1.373 0.2559,2.692 0.4657,4.018 0.3964,2.644 0.8964,5.267 1.5851,7.865"
         style="fill:#040606;fill-opacity:1;fill-rule:nonzero;stroke:none"
         id="path32"
         inkscape:connector-curvature="0" /><path
         d="m 85.1289,253.041 c -0.1035,-2.687 -0.2527,-5.371 -0.4512,-8.054 -0.2082,-2.681 -0.4011,-5.37 -0.8386,-8.044 -0.4414,-2.585 -0.1223,-5.24 0.5781,-7.777 l 0.2723,-0.971 c 0.0476,-0.136 0.0949,-0.458 0.1101,-0.472 0.0402,-0.125 0.0996,-0.278 0.1606,-0.426 l 0.791,-1.849 c 0.2617,-0.628 0.5133,-1.266 0.7285,-1.931 0.2066,-0.664 0.4058,-1.36 0.4195,-2.147 0.0903,-2.644 0.2453,-5.34 0.4555,-7.999 0.1094,-1.331 0.2305,-2.663 0.4109,-3.967 0.0977,-0.668 0.1895,-1.257 0.3821,-1.882 l 0.5234,-1.961 c 1.316,-5.246 2.325,-10.572 2.8484,-15.96 0.5164,-5.383 0.7039,-10.82 0.2176,-16.225 -0.2391,-2.701 -0.625,-5.391 -1.1933,-8.043 -0.5477,-2.665 -1.3895,-5.248 -2.1739,-7.808 L 83.548,142.137 81.093,134.46 c -0.4153,-1.278 -0.8039,-2.564 -1.1848,-3.848 -0.1848,-0.641 -0.3769,-1.29 -0.5098,-1.923 -0.0976,-0.622 -0.166,-1.32 -0.2507,-1.977 l -0.0059,0.103 c 0.8699,-3.671 1.5887,-7.369 1.95,-11.144 0.0828,-0.944 0.1367,-1.894 0.1094,-2.857 -0.0301,-0.917 0.091,-1.787 0.3359,-2.669 0.4934,-1.748 1.4031,-3.391 2.1746,-5.124 0.7863,-1.726 1.4348,-3.57 1.7199,-5.4909 0.3125,-1.9242 0.2137,-3.8672 0.0918,-5.7461 C 85.2617,90.0059 84.7656,86.2711 84.2363,82.5422 83.1582,75.0871 81.834,67.673 80.202,60.3078 79.7898,58.4672 79.3535,56.6289 78.8652,54.7969 78.3445,52.993 77.9949,51.241 77.7742,49.4012 c -0.4383,-3.65 -0.3953,-7.3711 -0.116,-11.0641 0.0731,-0.9262 0.1648,-1.8473 0.2727,-2.773 l 0.0789,-0.7129 0.0195,-0.2231 c -0.0215,-0.157 0.0527,0.2047 -0.048,-0.3769 0.0148,0.0547 -0.0145,-0.1051 -0.1864,-0.3282 -0.2011,-0.2128 -0.2519,-0.2082 -0.2793,-0.2308 -0.039,-0.0231 -0.1015,-0.057 -0.1211,-0.0633 C 77.1641,33.5301 77.0488,33.507 76.9172,33.4691 76.4246,33.341 76.0039,33.2469 75.5969,33.116 75.1973,32.991 74.8191,32.8328 74.5684,32.657 74.4441,32.5699 74.3621,32.482 74.3262,32.4238 74.2891,32.348 74.293,32.384 74.2859,32.2352 c 0.0024,-0.9063 0.0676,-1.8141 0.1582,-2.7282 0.1899,-1.8261 0.4907,-3.657 0.8989,-5.4461 0.2058,-0.8929 0.4414,-1.7808 0.7332,-2.6148 0.1457,-0.416 0.3117,-0.8191 0.4941,-1.141 0.2395,-0.409 0.4766,-0.834 0.7031,-1.2531 0.9024,-1.686 1.7317,-3.4071 2.42,-5.202 0.675,-1.8 1.2976,-3.6371 1.4558,-5.68594 C 81.1785,7.64883 81.1719,7.11602 81.0703,6.56016 80.9648,6.01016 80.7512,5.40508 80.2969,4.90703 79.4355,4.09219 78.5852,3.63906 77.6316,3.23594 76.6902,2.85391 75.7102,2.61602 74.7273,2.4832 74.2371,2.41719 73.7449,2.37695 73.2551,2.35586 L 72.5234,2.34102 72.1641,2.34219 c -0.1067,0 -0.0657,0.00195 -0.1524,-0.01602 -0.3027,-0.08515 -0.7312,-0.31133 -1.125,-0.525 L 69.6492,1.11992 C 68.793,0.678125 67.9375,0.194141 66.7969,0.021875 66.5066,-0.0101563 66.1895,-0.0167969 65.8508,0.0699219 65.5137,0.15 65.1672,0.351172 64.9277,0.617188 64.6895,0.860156 64.5313,1.23086 64.4578,1.41406 l -0.273,0.61485 c -0.386,0.81992 -0.843,1.63007 -1.2961,2.46015 -0.45,0.83086 -0.909,1.68203 -1.2461,2.63086 -0.1641,0.47422 -0.2981,0.97813 -0.334,1.51797 C 61.291,8.92188 61.3035,9.14883 61.293,9.35703 L 61.25,10.0359 c -0.1477,1.8371 -0.5344,3.727 -0.2656,5.727 0.0754,0.491 0.2265,1.0262 0.4773,1.4723 0.2121,0.382 0.3215,0.7668 0.416,1.2117 0.1703,0.8722 0.2024,1.7953 0.1711,2.709 -0.039,0.916 -0.1445,1.8363 -0.3586,2.723 -0.1074,0.4402 -0.241,0.877 -0.4336,1.2633 -0.0855,0.184 -0.2437,0.3726 -0.3394,0.6609 -0.0879,0.259 -0.1192,0.525 -0.1223,0.7789 0.0164,1.0102 0.2821,1.9121 0.4727,2.8321 0.2058,0.9148 0.3984,1.83 0.5566,2.7531 0.3176,1.843 0.5098,3.7109 0.5899,5.5848 l 0.1738,-0.0059 c -0.0195,-1.8813 -0.1531,-3.7652 -0.4141,-5.634 -0.13,-0.9351 -0.2937,-1.8641 -0.4707,-2.7879 -0.164,-0.9191 -0.3918,-1.8543 -0.375,-2.7293 0.0098,-0.214 0.043,-0.4211 0.1133,-0.6027 0.0508,-0.1633 0.1981,-0.3442 0.3281,-0.5762 0.2442,-0.4469 0.4024,-0.9101 0.5364,-1.3738 0.2632,-0.934 0.4097,-1.884 0.489,-2.841 0.0742,-0.9602 0.0672,-1.9301 -0.0945,-2.9082 -0.082,-0.475 -0.2238,-1.0071 -0.4582,-1.4551 -0.2,-0.3789 -0.2949,-0.768 -0.3535,-1.2059 -0.1953,-1.7519 0.209,-3.6031 0.4218,-5.4922 L 62.377,9.41406 62.4094,8.725 c 0.0359,-0.39805 0.1543,-0.80898 0.3074,-1.21602 0.3125,-0.81601 0.7676,-1.61679 1.2344,-2.42304 0.4687,-0.80586 0.959,-1.6211 1.3972,-2.48906 0.1079,-0.2129 0.2219,-0.44883 0.3157,-0.66602 0.1054,-0.24805 0.1445,-0.31367 0.2336,-0.41289 0.1394,-0.15078 0.3601,-0.20586 0.7293,-0.15899 0.7293,0.11094 1.5625,0.54493 2.3515,0.98321 l 1.2207,0.69883 c 0.4309,0.23398 0.8235,0.48007 1.4207,0.67187 0.1391,0.04609 0.4145,0.08399 0.5434,0.07617 l 0.3445,0.00508 0.677,0.025 c 0.448,0.025 0.8933,0.06875 1.332,0.13672 0.877,0.13203 1.7312,0.35898 2.5262,0.69805 0.7746,0.32109 1.5793,0.83007 2.0781,1.30898 0.3738,0.4043 0.4746,1.25508 0.4031,2.08828 -0.1531,1.70703 -0.7586,3.47263 -1.4336,5.16683 -0.6953,1.6992 -1.482,3.3761 -2.3648,4.9949 -0.2219,0.4082 -0.4438,0.8019 -0.6797,1.2031 -0.2832,0.4949 -0.4699,0.9672 -0.6391,1.4371 -0.33,0.9367 -0.5777,1.868 -0.7976,2.8051 -0.4348,1.8719 -0.7508,3.7539 -0.9563,5.6648 -0.0984,0.9532 -0.1718,1.9219 -0.1773,2.8942 -0.0168,0.3199 0.0855,0.8348 0.3047,1.1558 0.2129,0.3411 0.4812,0.5821 0.739,0.7649 0.5215,0.3633 1.0301,0.55 1.5227,0.7133 0.4871,0.157 0.9832,0.2718 1.3992,0.3808 l 0.1914,0.0578 c 0.009,0.0032 -0.0305,-0.0128 -0.043,-0.0226 -7e-4,-0.0102 -0.0261,0.0109 -0.207,-0.182 -0.1473,-0.2043 -0.1582,-0.3422 -0.1367,-0.2571 -0.0859,-0.5551 -0.0242,-0.1621 -0.043,-0.2902 l -0.0117,0.1269 -0.0801,0.6872 c -0.1113,0.9402 -0.209,1.8878 -0.2871,2.8351 -0.3176,3.7918 -0.3203,7.627 0.1699,11.4379 0.2395,1.891 0.6477,3.8301 1.1868,5.6301 0.4961,1.7937 0.9453,3.609 1.3699,5.4301 1.6816,7.2937 3.0683,14.675 4.2805,22.0699 0.5875,3.7008 1.1277,7.414 1.491,11.125 0.166,1.8609 0.3007,3.6988 0.0539,5.5 -0.227,1.8089 -0.7844,3.5629 -1.5176,5.2679 -0.7141,1.71 -1.6113,3.398 -2.1047,5.288 -0.2441,0.933 -0.3574,1.947 -0.3027,2.908 0.0461,0.915 0.0144,1.846 -0.0469,2.773 -0.2793,3.717 -1,7.417 -1.823,11.062 l -0.0129,0.055 0.007,0.049 c 0.0918,0.675 0.1559,1.313 0.2723,2.017 0.1484,0.681 0.3457,1.32 0.5378,1.967 l 1.1958,3.854 2.373,7.701 c 1.5848,5.133 3.0789,10.292 4.5176,15.468 3.3125,10.225 3.6211,21.057 2.5144,31.653 -0.5859,5.3 -1.4414,10.584 -2.7148,15.768 l -0.4961,1.937 c -0.1973,0.663 -0.3113,1.405 -0.3984,2.067 -0.1739,1.36 -0.2825,2.706 -0.379,4.053 -0.1789,2.699 -0.3339,5.37 -0.341,8.098 -0.0093,1.14 -0.5054,2.435 -0.9644,3.655 l -0.7485,1.875 c -0.0613,0.164 -0.1226,0.326 -0.1796,0.522 -0.0782,0.31 -0.0543,0.325 -0.1082,0.511 l -0.2469,0.976 c -0.6621,2.644 -0.9336,5.464 -0.4004,8.183 0.9859,5.245 1.4004,10.625 1.9461,15.964 l 0.1738,-0.011"
         style="fill:#040606;fill-opacity:1;fill-rule:nonzero;stroke:none"
         id="path34"
         inkscape:connector-curvature="0" /><path
         d="m 36.5438,207.02 c 4.2382,-1.195 8.4972,-2.22 12.7863,-2.981 2.1472,-0.359 4.2949,-0.687 6.4512,-0.85 2.1535,-0.18 4.3093,-0.251 6.4382,-0.082 4.3274,0.281 8.6157,0.981 12.791,2.141 2.0833,0.59 4.1426,1.29 6.1411,2.148 2.0007,0.851 3.9605,1.83 5.7808,3.068 -1.5828,-1.546 -3.4715,-2.754 -5.4058,-3.839 -1.9536,-1.06 -4.0012,-1.956 -6.1086,-2.678 -4.2129,-1.463 -8.6414,-2.262 -13.075,-2.58 -4.516,-0.287 -8.9758,0.329 -13.2864,1.343 -4.3105,1.027 -8.5207,2.436 -12.5128,4.31"
         style="fill:#040606;fill-opacity:1;fill-rule:nonzero;stroke:none"
         id="path36"
         inkscape:connector-curvature="0" /><path
         d="m 35.1238,200.733 c 4.1992,-1.2 8.4575,-2.073 12.7367,-2.678 4.2801,-0.581 8.5907,-0.878 12.8805,-0.709 2.1418,0.101 4.2817,0.263 6.3945,0.609 2.1008,0.34 4.2239,0.818 6.3458,1.291 2.1222,0.459 4.2343,0.962 6.3324,1.499 1.0484,0.269 2.0867,0.572 3.1121,0.898 0.5117,0.165 1.0195,0.342 1.5078,0.549 0.2441,0.104 0.4836,0.216 0.709,0.34 0.1125,0.061 0.2195,0.128 0.3144,0.199 0.0469,0.034 0.091,0.071 0.1243,0.106 l 0.0386,0.044 c 0.0129,-0.006 -8e-4,0.058 0.0149,-0.062 l -0.0188,0.15 0.0813,0.066 c 0.789,0.635 1.5898,1.256 2.3918,1.876 -0.6965,-0.737 -1.3938,-1.472 -2.1036,-2.195 l 0.0633,0.216 c 0.0235,-0.188 -0.0195,-0.19 -0.0371,-0.257 -0.0234,-0.048 -0.05,-0.088 -0.0754,-0.124 -0.0523,-0.071 -0.107,-0.13 -0.1629,-0.184 -0.1113,-0.107 -0.2265,-0.198 -0.3437,-0.284 -0.2332,-0.17 -0.4777,-0.312 -0.7219,-0.449 -0.491,-0.271 -0.993,-0.507 -1.4988,-0.732 -1.011,-0.451 -2.0469,-0.822 -3.082,-1.188 -2.0743,-0.727 -4.1817,-1.328 -6.2911,-1.911 -2.1164,-0.537 -4.2214,-1.143 -6.4238,-1.512 -2.1875,-0.367 -4.3965,-0.616 -6.6094,-0.67 -4.4257,-0.138 -8.8496,0.271 -13.1621,1.141 -4.3054,0.876 -8.5468,2.125 -12.5168,3.971"
         style="fill:#040606;fill-opacity:1;fill-rule:nonzero;stroke:none"
         id="path38"
         inkscape:connector-curvature="0" /><path
         d="m 50.9902,196.447 0.871875,0 0,6.50625 -0.871875,0 0,-6.50625 z"
         style="fill:#040606;fill-opacity:1;fill-rule:nonzero;stroke:none"
         id="path40"
         inkscape:connector-curvature="0" /><path
         d="m 60.7344,197.059 1.74531,0 0,5.09414 -1.74531,0 0,-5.09414 z"
         style="fill:#040606;fill-opacity:1;fill-rule:nonzero;stroke:none"
         id="path42"
         inkscape:connector-curvature="0" /><path
         d="m 51.4258,185.425 c 0.7715,-1.297 1.4433,-2.598 2.1316,-3.865 0.6938,-1.246 1.4074,-2.526 2.2485,-3.446 0.2058,-0.222 0.4254,-0.409 0.616,-0.508 0.1035,-0.083 0.5105,-0.163 0.8379,-0.258 0.6718,-0.193 1.3523,-0.286 2.0859,-0.446 1.4844,-0.278 2.9258,-0.785 4.2461,-1.511 -1.5188,0.025 -2.9551,0.141 -4.3965,0.157 -0.7265,-0.003 -1.5078,0.068 -2.2723,0.182 -0.1875,0.027 -0.3878,0.07 -0.5695,0.108 -0.134,0.022 -0.5012,0.118 -0.7082,0.229 -0.4668,0.234 -0.8074,0.54 -1.1062,0.849 -1.1414,1.264 -1.7188,2.679 -2.2246,4.101 -0.4786,1.428 -0.8067,2.896 -0.8887,4.408"
         style="fill:#040606;fill-opacity:1;fill-rule:nonzero;stroke:none"
         id="path44"
         inkscape:connector-curvature="0" /><path
         d="m 59.5344,175.392 c 0.3601,-6.427 0.3953,-12.863 0.1765,-19.305 -0.1289,-3.221 -0.3359,-6.443 -0.7539,-9.665 -0.1054,-0.805 -0.2226,-1.612 -0.3703,-2.418 -0.1402,-0.801 -0.3582,-1.629 -0.4976,-2.357 -0.2766,-1.518 -0.4094,-3.075 -0.4028,-4.643 -0.0066,-3.136 0.4465,-6.298 1.1164,-9.416 0.3328,-1.56 0.7239,-3.112 1.1258,-4.666 l 0.6067,-2.341 c 0.0937,-0.395 0.1855,-0.792 0.2519,-1.204 0.0684,-0.433 0.0664,-0.823 0.1152,-1.217 0.3489,-3.182 0.8543,-6.361 1.3106,-9.541 l 0.6562,-4.782 c 0.1028,-0.801 0.2,-1.602 0.261,-2.419 0.0262,-0.406 0.0554,-0.83 0.0086,-1.272 -0.0442,-0.4288 -0.1074,-0.823 -0.1739,-1.2261 -0.5554,-3.1847 -1.1589,-6.3269 -1.6418,-9.4847 -0.4667,-3.159 -0.8679,-6.309 -0.621,-9.4293 0.4015,-6.4 0.871,-12.8207 1.1085,-19.252 0.1036,-3.2168 0.1883,-6.4367 0.1661,-9.666 -0.0203,-1.6168 -0.0594,-3.2328 -0.1641,-4.8598 -0.0547,-0.8152 -0.1223,-1.6301 -0.2488,-2.4633 -0.0664,-0.4187 -0.1391,-0.8359 -0.2864,-1.2937 l -0.1027,-0.2922 c -0.032,-0.098 -0.0367,-0.1199 -0.0555,-0.2 -0.0339,-0.1418 -0.0421,-0.2898 -0.0421,-0.4398 0.007,-0.6012 0.2992,-1.25 0.7168,-1.843 0.414,-0.6012 0.9445,-1.157 1.5187,-1.6723 1.1563,-1.0308 2.4797,-1.9156 3.8484,-2.7109 0.6887,-0.3918 1.3871,-0.7731 2.0989,-1.125 0.3554,-0.175 0.7148,-0.3438 1.0769,-0.493 0.1762,-0.0699 0.384,-0.1617 0.4875,-0.1508 0.166,-0.0062 0.3567,0.0149 0.5449,0.0481 1.5227,0.318 3.0332,0.9398 4.5079,1.5449 l 0.075,-0.157 c -1.443,-0.7231 -2.879,-1.4391 -4.4852,-1.868 -0.2051,-0.048 -0.4141,-0.0883 -0.6492,-0.093 -0.3047,-0.0011 -0.4719,0.0868 -0.675,0.1411 -0.3926,0.1238 -0.7735,0.2648 -1.1531,0.4128 -0.759,0.295 -1.5032,0.6231 -2.2305,0.9891 -1.4563,0.7301 -2.8742,1.5508 -4.1867,2.5809 -0.6524,0.5179 -1.2801,1.0902 -1.8243,1.7808 -0.5292,0.6891 -1,1.5403 -1.0644,2.5582 -0.0117,0.2512 -0.0039,0.5078 0.043,0.759 0.0183,0.1172 0.0625,0.291 0.0898,0.384 l 0.0879,0.2789 c 0.0898,0.309 0.1492,0.6883 0.1941,1.0641 0.0903,0.759 0.1313,1.548 0.1582,2.3371 0.0508,1.5808 0.0372,3.1789 0.0051,4.7758 -0.0554,3.1941 -0.1726,6.3972 -0.3191,9.5992 L 59.0762,79.925 c -0.2168,3.3082 0.3379,6.573 0.9043,9.7391 0.5808,3.1781 1.3918,6.307 2.0715,9.4269 0.0808,0.3871 0.1597,0.7828 0.2148,1.151 0.0535,0.357 0.0457,0.738 0.0359,1.135 -0.0246,0.786 -0.0879,1.586 -0.155,2.38 -0.1301,1.597 -0.334,3.189 -0.5356,4.781 l -0.6226,4.777 c -0.2168,1.593 -0.4629,3.178 -0.6543,4.781 -0.0598,0.402 -0.0762,0.819 -0.1477,1.177 -0.0723,0.379 -0.173,0.763 -0.2793,1.146 -0.2129,0.766 -0.4465,1.535 -0.6894,2.299 -0.4844,1.534 -0.961,3.076 -1.3809,4.637 -0.8328,3.123 -1.4934,6.331 -1.6133,9.626 -0.05,1.644 0.0293,3.308 0.334,4.95 0.1609,0.851 0.3535,1.577 0.4852,2.359 0.1437,0.773 0.2726,1.555 0.3839,2.341 0.4375,3.146 0.7039,6.338 0.9368,9.53 0.4675,6.389 0.7148,12.806 0.996,19.229 l 0.1739,0.002"
         style="fill:#040606;fill-opacity:1;fill-rule:nonzero;stroke:none"
         id="path46"
         inkscape:connector-curvature="0" /><path
         d="m 62.2832,120.203 c 1.002,-2.49 1.8035,-5.022 2.6211,-7.547 l 1.2109,-3.786 c 0.4328,-1.25 0.8008,-2.523 1.4036,-3.718 -0.8926,1.018 -1.4961,2.254 -2.0391,3.475 -0.5449,1.228 -0.9914,2.492 -1.4055,3.763 -0.7976,2.553 -1.4531,5.148 -1.791,7.813"
         style="fill:#040606;fill-opacity:1;fill-rule:nonzero;stroke:none"
         id="path48"
         inkscape:connector-curvature="0" /><path
         d="m 41.9973,111.082 0.9531,-5.832 0.9937,-5.8172 c 0.6809,-3.8687 1.3872,-7.7348 2.2817,-11.5297 0.4656,-1.9019 0.9597,-3.7449 1.6609,-5.5531 0.6961,-1.9699 1.0379,-3.993 1.1594,-6.0199 0.2019,-4.0629 -0.2973,-8.052 -1.3664,-11.9602 l -0.0344,0.5141 c 0.7031,-1.6141 1.4992,-3.2379 2.3867,-4.775 0.9043,-1.5219 1.8868,-3.0328 3.1368,-4.2059 0.6125,-0.5691 1.3656,-1.0449 2.1085,-1.1172 0.7715,-0.0859 1.5723,0.2821 2.2325,0.8352 0.6679,0.5519 1.2297,1.2598 1.7226,2.0078 0.4895,0.7512 0.9422,1.5391 1.3106,2.3699 -0.5508,-1.7269 -1.3274,-3.4308 -2.6535,-4.7968 -0.659,-0.661 -1.5782,-1.2391 -2.6493,-1.2282 -1.0976,0.0141 -1.9699,0.5742 -2.7257,1.1602 -1.493,1.2191 -2.5957,2.7398 -3.6051,4.2859 -1.0031,1.559 -1.8899,3.1582 -2.6723,4.8539 l -0.1062,0.2301 0.0722,0.2852 c 0.4617,1.8347 0.7559,3.7769 0.9629,5.6847 0.2012,1.9184 0.2703,3.8461 0.1465,5.75 -0.123,1.8981 -0.4148,3.7992 -1.0215,5.5481 -0.718,1.8672 -1.207,3.85 -1.6101,5.7832 -0.8176,3.891 -1.3528,7.807 -1.7903,11.7301 -0.2218,1.9598 -0.3996,3.9248 -0.5398,5.8908 -0.1488,1.967 -0.2903,3.934 -0.3535,5.906"
         style="fill:#040606;fill-opacity:1;fill-rule:nonzero;stroke:none"
         id="path50"
         inkscape:connector-curvature="0" /><path
         d="m 48.1047,59.3441 c 0.5535,-2.7382 0.8758,-5.507 0.6726,-8.3761 C 48.6367,49.441 48.0715,48.1 47.582,46.8031 47.0801,45.5262 46.4934,44.25 46.366,43.1082 c -0.0332,-0.2762 -0.034,-0.534 0.011,-0.7492 0.0195,-0.1078 0.0546,-0.202 0.0937,-0.2949 l 0.1035,-0.1993 0.0977,-0.1597 c 0.3008,-0.4711 0.7297,-0.8781 1.2207,-1.2352 0.9851,-0.7269 2.2363,-1.1668 3.5117,-1.5051 1.2766,-0.3046 2.6523,-0.5308 3.9719,-0.5777 0.6687,-0.0281 1.3386,0.007 1.9976,0.1211 0.6496,0.1297 1.3266,0.3129 1.8559,0.768 -0.3977,-0.5903 -1.0609,-0.9621 -1.7199,-1.2313 -0.6707,-0.2687 -1.3809,-0.414 -2.0926,-0.5129 -1.4453,-0.155 -2.843,-0.1148 -4.2805,0.0981 -1.4277,0.209 -2.8613,0.6488 -4.1758,1.475 -0.6504,0.4211 -1.2492,0.9777 -1.7129,1.6621 -0.0585,0.0828 -0.1191,0.1867 -0.1757,0.2797 l -0.1407,0.2582 c -0.1062,0.223 -0.1914,0.4539 -0.2402,0.6847 -0.1035,0.4622 -0.1023,0.9051 -0.0586,1.3133 0.2422,1.618 0.8887,2.8719 1.4317,4.1418 0.575,1.2461 1.1152,2.4801 1.3679,3.7031 0.4375,2.6329 0.509,5.4231 0.6723,8.1961"
         style="fill:#040606;fill-opacity:1;fill-rule:nonzero;stroke:none"
         id="path52"
         inkscape:connector-curvature="0" /><path
         d="m 77.1172,185.425 c -1.9238,-0.874 -3.8313,-1.661 -5.666,-2.587 -0.9219,-0.455 -1.8157,-0.953 -2.677,-1.5 -0.8582,-0.557 -1.6734,-1.169 -2.4187,-1.923 0.448,0.967 1.1953,1.787 2.0144,2.47 0.8227,0.692 1.7434,1.247 2.6899,1.732 0.9547,0.469 1.9402,0.867 2.9531,1.171 1.0113,0.307 2.0457,0.546 3.1043,0.637"
         style="fill:#040606;fill-opacity:1;fill-rule:nonzero;stroke:none"
         id="path54"
         inkscape:connector-curvature="0" /><path
         d="m 68.8652,184.552 c 2.2422,2.032 4.8926,3.578 7.6739,4.775 2.791,1.162 5.8,1.959 8.8308,1.915 -2.9461,-0.645 -5.7586,-1.559 -8.4922,-2.719 -1.3699,-0.567 -2.7117,-1.205 -4.0457,-1.866 -1.3269,-0.676 -2.6562,-1.359 -3.9668,-2.105"
         style="fill:#040606;fill-opacity:1;fill-rule:nonzero;stroke:none"
         id="path56"
         inkscape:connector-curvature="0" /><path
         d="m 68.3906,320.421 c 0.2782,-1.527 0.2871,-3.07 0.1785,-4.597 -0.1121,-1.528 -0.3496,-3.049 -0.739,-4.539 -0.3821,-1.49 -0.9199,-2.948 -1.6211,-4.329 -0.6992,-1.378 -1.5774,-2.691 -2.7254,-3.739 0.5406,1.45 1.0254,2.843 1.4644,4.253 0.4387,1.409 0.8176,2.829 1.1946,4.254 0.7617,2.856 1.3789,5.741 2.248,8.697"
         style="fill:#040606;fill-opacity:1;fill-rule:nonzero;stroke:none"
         id="path58"
         inkscape:connector-curvature="0" /><path
         d="m 66.6453,313.905 c 1.4863,-0.926 2.8598,-1.964 4.1977,-3.038 1.3367,-1.073 2.6383,-2.182 3.909,-3.316 1.2832,-1.119 2.4921,-2.322 3.7793,-3.325 1.3132,-1.01 2.7187,-1.931 4.257,-2.754 -1.757,0.129 -3.4563,0.754 -5.007,1.619 -1.5743,0.893 -2.8985,2.021 -4.1907,3.157 -1.2879,1.147 -2.5066,2.363 -3.6746,3.627 -1.1672,1.266 -2.2832,2.583 -3.2707,4.03"
         style="fill:#040606;fill-opacity:1;fill-rule:nonzero;stroke:none"
         id="path60"
         inkscape:connector-curvature="0" /><path
         d="m 68.173,297.546 c 4.536,1.377 9.079,2.75 13.5145,4.331 1.1121,0.41 2.1758,0.819 3.2512,1.326 1.3269,0.519 2.6101,0.456 3.8511,0.322 2.4829,-0.324 4.8086,-1.268 6.9133,-2.564 2.1004,-1.303 3.9578,-3.073 5.2559,-5.242 1.31,-2.156 1.992,-4.713 1.927,-7.227 -0.006,-1.242 -0.23,-2.534 -0.46,-3.665 -0.219,-1.165 -0.455,-2.327 -0.705,-3.487 -0.249,-1.16 -0.49,-2.322 -0.763,-3.48 l -0.427,-1.737 -0.232,-0.874 -0.133,-0.449 -0.088,-0.252 -0.036,-0.086 c -0.026,-0.044 -0.013,-0.057 -0.1299,-0.205 -0.0527,-0.028 -0.0469,-0.123 -0.3699,-0.204 -0.3734,-0.063 -0.6567,0.283 -0.6379,0.321 -0.0773,0.166 -0.0605,0.191 -0.0715,0.233 -0.0074,0.074 -0.0066,0.098 -0.0058,0.154 l 1.192,0.097 c 0.332,-2.06 0.437,-4.078 0.438,-6.122 -0.002,-2.036 -0.159,-4.071 -0.4836,-6.08 -0.6406,-4.005 -1.916,-7.952 -4.0972,-11.355 1.9043,3.558 2.9851,7.482 3.4011,11.449 0.2071,1.984 0.2637,3.982 0.2012,5.972 -0.0715,1.982 -0.2644,3.992 -0.6387,5.9 l 1.1902,0.097 c 0,0.019 0.003,0.006 -0.001,0.042 -0.008,0.025 0.012,0.032 -0.0571,0.18 0.0222,0.031 -0.2531,0.368 -0.6172,0.307 -0.3149,-0.078 -0.3012,-0.167 -0.3481,-0.188 -0.0933,-0.119 -0.064,-0.097 -0.0757,-0.108 -0.0012,0 0.0015,0.007 0.0046,0.017 l 0.045,0.171 0.0925,0.411 0.168,0.856 0.307,1.74 0.605,3.493 c 0.195,1.166 0.395,2.332 0.609,3.496 0.222,1.192 0.397,2.247 0.397,3.377 0.021,2.223 -0.528,4.427 -1.6649,6.334 -1.125,1.914 -2.7773,3.514 -4.6582,4.762 -1.8855,1.244 -4.041,2.134 -6.2468,2.525 -1.0864,0.178 -2.2598,0.227 -3.1661,-0.097 -1.0863,-0.466 -2.257,-0.853 -3.391,-1.194 -2.284,-0.693 -4.5847,-1.279 -6.8992,-1.811 -2.3113,-0.537 -4.6269,-1.054 -6.9598,-1.486"
         style="fill:#040606;fill-opacity:1;fill-rule:nonzero;stroke:none"
         id="path62"
         inkscape:connector-curvature="0" /><path
         d="m 97.4805,251.341 c 2.9905,-5.162 5.1085,-10.818 6.4545,-16.661 0.661,-2.922 1.112,-5.918 1.201,-8.917 0.088,-2.971 0.122,-5.943 0.15,-8.911 0.039,-2.967 0.124,-5.932 0.397,-8.878 0.289,-2.936 0.67,-5.899 1.914,-8.532 1.118,-2.903 1.478,-5.879 1.846,-8.848 0.334,-2.973 0.513,-5.941 0.626,-8.936 l 0.007,-0.192 -0.086,-0.189 c -0.565,-1.24 -1.156,-2.421 -1.844,-3.579 -0.683,-1.155 -1.422,-2.286 -2.288,-3.359 -0.894,-1.042 -1.851,-2.105 -3.335,-2.764 -1.303,-0.483 -2.487,-0.888 -3.7417,-1.324 l -1.0938,-0.38 -0.0203,1.093 c -0.0219,1.152 0.1766,2.177 0.6609,3.199 0.2481,0.497 0.5723,0.971 0.9817,1.369 0.1875,0.19 0.4617,0.403 0.6218,0.521 0.1754,0.136 0.3394,0.27 0.5134,0.425 1.356,1.231 2.617,2.702 3.764,4.199 l -0.082,-0.297 c -0.028,1.251 -0.049,2.502 -0.048,3.755 -0.006,1.252 -0.018,2.504 -10e-4,3.757 l 0.174,0.01 c 0.162,-1.243 0.296,-2.487 0.436,-3.731 0.146,-1.245 0.27,-2.49 0.388,-3.736 l 0.014,-0.146 -0.097,-0.151 c -0.532,-0.827 -1.087,-1.62 -1.676,-2.404 -0.59,-0.781 -1.209,-1.548 -1.93,-2.259 -0.174,-0.176 -0.373,-0.358 -0.569,-0.527 -0.216,-0.181 -0.316,-0.272 -0.462,-0.43 -0.266,-0.289 -0.4732,-0.633 -0.6341,-1.005 -0.3203,-0.728 -0.4524,-1.654 -0.4016,-2.422 l -1.1152,0.714 3.6229,1.413 c 0.93,0.42 1.817,1.344 2.58,2.301 0.783,0.964 1.488,2.028 2.14,3.125 0.642,1.097 1.283,2.233 1.826,3.365 l -0.079,-0.38 c -0.022,2.934 -0.156,5.894 -0.357,8.827 -0.1,1.468 -0.231,2.933 -0.422,4.383 -0.182,1.447 -0.404,2.909 -0.838,4.248 -0.553,1.384 -0.893,2.918 -1.09,4.389 -0.208,1.486 -0.337,2.969 -0.451,4.452 -0.207,2.968 -0.378,5.93 -0.63,8.887 -0.256,2.957 -0.52,5.909 -0.813,8.856 -0.252,2.924 -0.649,5.816 -1.231,8.694 -1.183,5.744 -2.931,11.396 -5.1376,16.896 l 0.1551,0.08"
         style="fill:#040606;fill-opacity:1;fill-rule:nonzero;stroke:none"
         id="path64"
         inkscape:connector-curvature="0" /><path
         d="m 85.0422,244.588 2.043,-6.329 0.0105,-0.034 -0.0078,-0.05 c -0.6504,-3.709 -0.3367,-7.699 1.6434,-10.951 1.766,-3.421 3.2902,-6.935 4.8742,-10.427 1.5644,-3.498 3.1101,-7.004 4.5957,-10.537 l 2.2338,-5.297 c 0.733,-1.745 1.521,-3.519 2.5,-5.075 l 0.151,-0.241 -0.173,-0.208 c -1.045,-1.255 -1.921,-2.735 -2.442,-4.301 -0.257,-0.785 -0.426,-1.602 -0.444,-2.423 -0.011,-0.809 0.124,-1.667 0.219,-2.505 0.205,-1.687 0.49,-3.366 0.633,-5.077 0.026,-0.428 0.047,-0.861 -0.011,-1.298 -0.018,-0.215 -0.108,-0.448 -0.166,-0.625 0.007,-0.119 -0.077,-0.067 0.043,-0.043 0.087,0.041 0.176,0.098 0.263,0.156 0.695,0.454 1.409,1.054 2.284,1.085 -0.868,-0.082 -1.522,-0.709 -2.2,-1.203 -0.088,-0.063 -0.175,-0.126 -0.279,-0.181 -0.055,-0.014 -0.105,-0.086 -0.238,-0.011 -0.089,0.114 -0.04,0.171 -0.042,0.233 0.064,0.229 0.125,0.399 0.137,0.612 0.036,0.411 0,0.834 -0.045,1.252 -0.206,1.679 -0.585,3.346 -0.834,5.036 -0.1164,0.849 -0.2773,1.678 -0.2898,2.574 -0.0051,0.884 0.1531,1.759 0.4019,2.597 0.5179,1.68 1.3649,3.209 2.4589,4.599 l -0.02,-0.45 c -1.087,1.675 -1.86,3.421 -2.6291,5.192 l -2.2774,5.274 -4.5722,10.537 c -1.5313,3.508 -3.0899,7.011 -4.7254,10.454 -0.425,0.832 -0.8774,1.747 -1.1508,2.68 -0.2898,0.936 -0.4773,1.898 -0.5762,2.865 -0.1961,1.938 -0.0816,3.889 0.3664,5.783 l 0.002,-0.083 -1.7371,6.42"
         style="fill:#040606;fill-opacity:1;fill-rule:nonzero;stroke:none"
         id="path66"
         inkscape:connector-curvature="0" /><path
         d="m 56.418,254.801 c 0.0742,-0.827 -0.0188,-1.672 -0.2774,-2.483 -0.2519,-0.812 -0.6992,-1.588 -1.334,-2.211 -0.6418,-0.612 -1.4699,-1.036 -2.3269,-1.177 -0.8559,-0.151 -1.7199,-0.061 -2.5031,0.214 0.8261,0.086 1.614,0.196 2.3359,0.446 0.7168,0.252 1.3633,0.627 1.8906,1.145 1.0789,1.03 1.666,2.513 2.2149,4.066"
         style="fill:#040606;fill-opacity:1;fill-rule:nonzero;stroke:none"
         id="path68"
         inkscape:connector-curvature="0" /><path
         d="m 61.8633,257.119 c 0.0105,-1.031 0.0578,-2.056 0.2297,-3.057 0.148,-0.995 0.3925,-1.996 0.8883,-2.812 0.2394,-0.399 0.5761,-0.745 0.9503,-0.975 0.3965,-0.254 0.8489,-0.458 1.3106,-0.637 0.9266,-0.359 1.9031,-0.635 2.8887,-0.865 1.9668,-0.462 4.0019,-0.83 5.9921,-0.973 0.925,-0.07 1.879,0.391 2.7833,0.825 0.9218,0.432 1.8015,0.963 2.6855,1.494 -0.7688,-0.692 -1.6063,-1.298 -2.4773,-1.868 -0.4434,-0.274 -0.9043,-0.524 -1.3926,-0.739 -0.4824,-0.21 -1.0344,-0.385 -1.6008,-0.383 -2.1211,-0.01 -4.157,0.34 -6.1926,0.795 -1.0105,0.255 -2.0183,0.54 -2.9976,0.952 -0.4875,0.211 -0.97,0.449 -1.427,0.767 -0.4934,0.328 -0.8523,0.778 -1.1055,1.28 -0.9382,2.014 -0.8332,4.171 -0.5351,6.196"
         style="fill:#040606;fill-opacity:1;fill-rule:nonzero;stroke:none"
         id="path70"
         inkscape:connector-curvature="0" /><path
         d="m 56.9512,244.437 c 0.3926,-2.599 -0.7188,-5.406 -2.7449,-7.209 -1.0188,-0.897 -2.2817,-1.544 -3.6211,-1.767 -1.3372,-0.244 -2.7114,-0.044 -3.9106,0.46 1.291,-0.176 2.5727,-0.122 3.7617,0.205 1.1887,0.333 2.2805,0.937 3.1926,1.755 0.9238,0.806 1.668,1.817 2.2344,2.926 0.5539,1.116 0.9426,2.335 1.0879,3.63"
         style="fill:#040606;fill-opacity:1;fill-rule:nonzero;stroke:none"
         id="path72"
         inkscape:connector-curvature="0" /><path
         d="m 55.7395,232.324 c 0.2585,-1.07 0.3003,-2.236 -0.0415,-3.349 -0.3171,-1.117 -1.0718,-2.128 -2.0488,-2.792 -0.9871,-0.657 -2.1426,-0.977 -3.2722,-1.04 -1.1348,-0.078 -2.2547,0.112 -3.3055,0.445 1.1043,0.001 2.1875,0.049 3.2265,0.232 1.0333,0.19 2.0321,0.516 2.8629,1.086 0.8371,0.557 1.4914,1.355 1.8996,2.302 0.4063,0.948 0.6016,2.013 0.679,3.116"
         style="fill:#040606;fill-opacity:1;fill-rule:nonzero;stroke:none"
         id="path74"
         inkscape:connector-curvature="0" /><path
         d="m 60.8391,232.323 c 0.114,-1.664 0.3992,-3.369 1.189,-4.73 0.4074,-0.663 0.977,-1.188 1.6848,-1.354 0.7383,-0.16 1.6035,-0.258 2.4109,-0.318 1.6379,-0.13 3.302,-0.142 4.8957,0.15 0.7871,0.161 1.575,0.397 2.1985,0.875 0.6531,0.452 0.9898,1.257 0.9734,2.105 0.2195,-0.816 -0.0351,-1.789 -0.6894,-2.425 -0.6485,-0.635 -1.493,-0.985 -2.3262,-1.217 -1.6863,-0.454 -3.4207,-0.476 -5.1223,-0.358 -0.8621,0.087 -1.6726,0.17 -2.5672,0.396 -0.9343,0.273 -1.6648,1.012 -2.05,1.815 -0.7898,1.626 -0.8113,3.4 -0.5972,5.061"
         style="fill:#040606;fill-opacity:1;fill-rule:nonzero;stroke:none"
         id="path76"
         inkscape:connector-curvature="0" /><path
         d="m 60.3145,244.437 c -0.0047,-0.976 0.1191,-1.942 0.4082,-2.851 0.2656,-0.911 0.6867,-1.77 1.2722,-2.488 1.1633,-1.455 2.9121,-2.299 4.75,-2.648 0.9172,-0.189 1.8774,-0.272 2.8235,-0.305 0.9472,-0.039 1.8933,0.028 2.8054,0.215 0.9075,0.195 1.7844,0.578 2.4336,1.237 0.6699,0.636 1.0637,1.567 1.1086,2.541 0.1543,-0.972 -0.1555,-2.018 -0.7898,-2.827 -0.6594,-0.802 -1.6133,-1.307 -2.5813,-1.599 -1.9746,-0.564 -3.998,-0.45 -5.9726,-0.117 -0.9856,0.207 -1.9637,0.533 -2.8555,1.044 -0.8828,0.516 -1.6875,1.207 -2.2578,2.061 -1.168,1.698 -1.507,3.819 -1.1445,5.737"
         style="fill:#040606;fill-opacity:1;fill-rule:nonzero;stroke:none"
         id="path78"
         inkscape:connector-curvature="0" /><path
         d="m 82.7883,220.421 c -1.1504,-1.085 -2.2602,-2.198 -3.3078,-3.345 -1.0149,-1.156 -2.0508,-2.374 -2.541,-3.73 -0.4493,-1.508 -1.1231,-2.993 -1.8575,-4.385 -0.7324,-1.405 -1.5605,-2.756 -2.4734,-4.05 l 1.8582,4.342 c 0.6086,1.454 1.2109,2.86 1.6477,4.377 0.6168,1.615 1.7363,2.815 2.8804,3.92 1.1606,1.097 2.4367,2.053 3.7934,2.871"
         style="fill:#040606;fill-opacity:1;fill-rule:nonzero;stroke:none"
         id="path80"
         inkscape:connector-curvature="0" /></g></g></svg>