<?xml version="1.0" encoding="UTF-8" standalone="no"?>
<!-- Created with Inkscape (http://www.inkscape.org/) -->

<svg
   xmlns:dc="http://purl.org/dc/elements/1.1/"
   xmlns:cc="http://creativecommons.org/ns#"
   xmlns:rdf="http://www.w3.org/1999/02/22-rdf-syntax-ns#"
   xmlns:svg="http://www.w3.org/2000/svg"
   xmlns="http://www.w3.org/2000/svg"
   xmlns:sodipodi="http://sodipodi.sourceforge.net/DTD/sodipodi-0.dtd"
   xmlns:inkscape="http://www.inkscape.org/namespaces/inkscape"
   id="svg2"
   version="1.1"
   inkscape:version="0.91 r13725"
   width="308"
   height="672"
   xml:space="preserve"
   sodipodi:docname="sc-m-1-3-linning.svg"><metadata
     id="metadata8"><rdf:RDF><cc:Work
         rdf:about=""><dc:format>image/svg+xml</dc:format><dc:type
           rdf:resource="http://purl.org/dc/dcmitype/StillImage" /><dc:title /></cc:Work></rdf:RDF></metadata><defs
     id="defs6" /><sodipodi:namedview
     pagecolor="#ffffff"
     bordercolor="#666666"
     borderopacity="1"
     objecttolerance="10"
     gridtolerance="10"
     guidetolerance="10"
     inkscape:pageopacity="0"
     inkscape:pageshadow="2"
     inkscape:window-width="1920"
     inkscape:window-height="1015"
     id="namedview4"
     showgrid="false"
     inkscape:zoom="1.4790391"
     inkscape:cx="-6.6679928"
     inkscape:cy="389.61778"
     inkscape:window-x="0"
     inkscape:window-y="0"
     inkscape:window-maximized="1"
     inkscape:current-layer="g10" /><g
     id="g10"
     inkscape:groupmode="layer"
     inkscape:label="ink_ext_XXXXXX"
     transform="matrix(1.25,0,0,-1.25,0,672)"><path
       inkscape:connector-curvature="0"
       id="path82"
       style="fill:#8f9190;fill-opacity:1;fill-rule:nonzero;stroke:none"
       d="m 169.48988,317.45369 c -1.86247,-3.2571 1.11589,-18.30598 1.92131,-21.32592 0.385,-1.4399 2.35281,-10.83082 4.0023,-21.18116 3.34165,1.64318 7.06414,2.59182 10.98267,2.57488 2.14937,-0.009 4.29583,0.009 6.4355,0.19096 -0.03,0.0277 0.82113,0.18326 2.61569,0.47586 4.34588,0.89936 8.65018,1.96042 12.98066,2.92138 5.55478,1.23354 11.1881,2.31 16.85838,2.95834 l -0.1925,0.86548 2.78432,1.1242 -1.89266,7.54138 -4.43058,9.09216 3.22784,-0.48048 -4.22422,13.78146 -0.79618,3.87926 4.2658,-3.80534 -5.19596,14.86254 0.99792,3.39416 -1.16886,4.60922 3.80842,-1.26896 -4.36282,15.22752 -2.67806,9.5557 3.02764,1.1011 -3.34026,7.60144 -2.02664,5.1898 -3.20628,5.34996 -1.04104,5.8289 -4.67236,9.81904 -1.43066,6.49572 -1.59544,7.5922 1.81412,0.95326 -7.86324,9.1938 -4.07853,3.53276 -2.13075,5.50396 0.49203,5.78886 -13.63316,2.77508 -7.36612,-0.83006 c 0,0 6.55701,-25.28218 6.43073,-26.49416 -0.12628,-1.21044 -0.73089,-8.08038 -0.73089,-8.08038 0,0 -0.58473,-23.69906 -2.75706,-27.93252 -2.17094,-4.23192 -4.55794,-9.60806 -4.55794,-9.60806 0,0 -1.51412,-26.64046 -2.08146,-31.90572 -0.56657,-5.26372 6.6702,-13.61052 4.80834,-16.86762" /></g></svg>