<?xml version="1.0" encoding="UTF-8" standalone="no"?>
<!-- Created with Inkscape (http://www.inkscape.org/) -->

<svg
   xmlns:dc="http://purl.org/dc/elements/1.1/"
   xmlns:cc="http://creativecommons.org/ns#"
   xmlns:rdf="http://www.w3.org/1999/02/22-rdf-syntax-ns#"
   xmlns:svg="http://www.w3.org/2000/svg"
   xmlns="http://www.w3.org/2000/svg"
   xmlns:sodipodi="http://sodipodi.sourceforge.net/DTD/sodipodi-0.dtd"
   xmlns:inkscape="http://www.inkscape.org/namespaces/inkscape"
   id="svg2"
   version="1.1"
   inkscape:version="0.91 r13725"
   width="308"
   height="672"
   xml:space="preserve"
   sodipodi:docname="sc-m-1-4-border.svg"><metadata
     id="metadata8"><rdf:RDF><cc:Work
         rdf:about=""><dc:format>image/svg+xml</dc:format><dc:type
           rdf:resource="http://purl.org/dc/dcmitype/StillImage" /><dc:title /></cc:Work></rdf:RDF></metadata><defs
     id="defs6" /><sodipodi:namedview
     pagecolor="#ffffff"
     bordercolor="#666666"
     borderopacity="1"
     objecttolerance="10"
     gridtolerance="10"
     guidetolerance="10"
     inkscape:pageopacity="0"
     inkscape:pageshadow="2"
     inkscape:window-width="1920"
     inkscape:window-height="1015"
     id="namedview4"
     showgrid="false"
     inkscape:zoom="2.9580781"
     inkscape:cx="97.441396"
     inkscape:cy="477.49085"
     inkscape:window-x="0"
     inkscape:window-y="0"
     inkscape:window-maximized="1"
     inkscape:current-layer="g10" /><g
     id="g10"
     inkscape:groupmode="layer"
     inkscape:label="ink_ext_XXXXXX"
     transform="matrix(1.25,0,0,-1.25,0,672)"><path
       inkscape:connector-curvature="0"
       id="path86"
       style="fill:none;stroke:#171717;stroke-width:2.30999994;stroke-linecap:butt;stroke-linejoin:miter;stroke-miterlimit:10;stroke-dasharray:none;stroke-opacity:1"
       d="m 78.4617,442.93593 c 0.0046,0 0.0046,0 0.0092,0 1.26434,-0.55594 2.30692,-1.56772 3.265262,-2.32694 -1.68014,-0.85932 -2.111494,-2.23454 -4.668818,-2.45784 0.741818,-0.20636 1.977976,-1.34904 3.708628,-1.5246 -0.86856,-0.9548 -1.547238,-3.67906 -2.129512,-4.39362 0.922152,0.0169 1.979824,-0.21252 2.899512,-0.23254 -1.017786,-2.76122 -2.58489,-5.51628 -3.69061,-8.2313 1.442672,0.56364 2.961574,0.42966 4.482324,1.41834 -1.180872,-3.23554 -3.19011,-6.47108 -5.252324,-9.09986 0.832062,0.28028 2.916452,0.22638 3.517976,0.37576 -1.045506,-1.62932 -1.191036,-3.79764 -2.048354,-5.3592 0.94633,-0.0508 1.766842,0.26488 2.462306,0.95018 -1.13575,-2.78894 -3.304378,-6.05374 -3.912062,-9.09524 1.13883,0.67914 2.652958,1.08108 3.842762,1.9404 -1.887578,-2.44398 -3.161774,-5.13898 -3.05767,-8.12042 0.700854,0.462 2.042348,0.95018 2.809268,1.39832 0.626934,-3.29714 -0.691768,-6.7683 -1.244012,-9.84522 1.400476,0.74536 3.557092,1.27204 4.997762,2.74428 -2.294908,-3.60514 -7.221676,-10.2025 -3.634554,-13.71832 0.939554,0.76846 3.069066,1.57542 3.828902,2.35774 -1.484714,-3.38954 -3.435586,-7.315 -4.462458,-10.62292 0.72611,-0.1617 1.36675,-0.0616 2.095324,-0.20944 -0.169092,-3.08924 -1.482866,-5.8674 -1.308384,-9.0244 0.84931,0.16632 1.926232,0.18788 2.883804,0.40194 -0.98175,-2.38854 -1.512896,-4.8741 -1.581426,-7.48286 0.658042,-0.21868 1.312542,-0.45276 1.258488,-0.5082 0.494956,-1.1011 0.648494,-2.16524 -0.326634,-3.29868 1.169938,-1.04258 1.21506,-2.15292 0.531146,-3.25556 1.067682,0.0477 1.97428,0.24178 0.452298,-0.53592 2.053128,0.5544 1.947946,0.24948 0.389928,-0.80696 3.914225,0.0924 6.379457,-0.55902 6.212213,-4.93878 5.11819,3.18164 7.60375,2.63494 8.953098,-0.69916 2.177717,2.70424 2.866407,2.56564 2.379147,-0.0678 1.33857,2.52252 1.84076,2.50866 1.5611,-0.0785 2.66374,2.45322 4.40347,2.42396 5.33887,-0.0416 1.44976,2.56256 1.94487,2.5949 1.52383,-0.0108 2.37129,2.97066 3.89327,3.38338 3.58343,0.13552 4.34511,4.55378 6.92815,4.86178 11.36165,1.6478 0.65574,2.99838 3.15824,2.47632 5.5363,1.60314 -0.45306,1.001 -0.8242,2.04204 -0.92954,3.01994 -0.42519,1.10264 -0.58458,2.13906 0.37792,3.05536 1.20843,0.17402 2.31831,0.87472 2.5085,1.87264 0.18881,0.99946 -0.54208,2.29922 -2.01894,3.5959 0.93309,0.0262 1.99307,0.2464 2.91938,0.22946 -0.88119,1.85416 -1.61099,4.8125 -2.90367,6.70054 0.74105,0.21406 1.38292,0 2.11873,0.22638 0.58043,4.4275 -4.17786,4.87718 -5.19873,9.01054 3.31285,0.25872 1.80473,1.01332 3.69292,2.46862 -3.51012,1.46454 -6.1292,4.3428 -5.19565,8.31446 0.72796,0.1848 1.35766,0.0108 2.08023,0.22638 -0.76584,1.16578 -0.70686,3.70678 -2.12535,5.1282 2.77739,0.10318 3.72972,1.61392 5.5674,2.75198 -5.97643,0.37884 -8.71362,7.83398 -4.34742,11.87648 -4.59474,1.45838 -8.46399,6.2755 -3.07753,9.37552 -3.68769,2.99838 -1.0047,6.92076 -0.6371,10.66296 -7.34272,1.96504 -3.68152,8.21128 -3.90298,13.05304 -0.29167,6.38792 -6.11903,7.94794 -7.43234,13.12542 4.15569,-0.87472 6.33633,1.4784 4.52082,4.75398 l -0.77,0 c -2.42319,0.83776 -4.60614,3.3264 -5.98552,5.33148 0.042,-1.39062 -0.44105,-3.10618 -0.32786,-4.50142 -1.0124,1.83414 -2.84839,4.41056 -4.31324,6.01986 0.23455,-1.55694 -0.40902,-3.60206 -0.26765,-5.19134 -1.00885,0.67914 -3.31654,0.86856 -4.52082,2.11134 0.006,-1.32594 -1.080929,-3.47578 -0.870411,-5.23138 -0.88319,0.76538 -2.696848,1.28282 -3.57819,2.17294 0.142604,-1.08262 -0.410872,-2.5949 -0.27181,-3.69292 -2.75583,0.93478 -5.787012,1.78178 -8.525902,0.68838 0.55209,-0.69762 1.16809,-1.54616 1.631322,-2.19296 -1.854006,0.72996 -4.812507,0.75922 -6.733811,1.2859 -0.01571,-0.91322 -0.196196,-1.92654 -0.231616,-2.8413 -2.254714,0.49434 -4.715018,0.6776 -6.71825,2.11134 0.669438,-1.7556 2.257024,-3.97628 2.899512,-4.5045 z" /><path
       inkscape:connector-curvature="0"
       id="path90"
       style="fill:none;stroke:#171717;stroke-width:2.30999994;stroke-linecap:butt;stroke-linejoin:miter;stroke-miterlimit:10;stroke-dasharray:none;stroke-opacity:1"
       d="m 143.99595,456.76051 c 0.45599,-3.07076 2.08439,-5.544 3.88788,-8.19896 -0.095,1.65242 0.52037,4.13644 0.54254,5.0743 0.85255,-4.68006 3.70863,-9.39554 6.19912,-12.98528 0.2467,2.08516 1.3458,3.84692 1.71263,5.86586 0.48495,-2.9722 2.21745,-5.68568 4.44136,-7.4074 -0.0751,0.74998 0.0933,1.97582 0.13845,2.7874 0.83729,-3.49272 3.51612,-6.61892 6.82882,-7.36736 -0.48233,1.16116 -0.62078,2.2022 -1.30238,3.46192 1.60499,-1.49226 3.2822,-2.94756 4.96173,-4.40594 -0.26165,0.50358 -1.01964,1.19658 -1.35952,1.6478 3.48903,0.35882 8.13428,-2.87672 11.91699,-4.05328 -1.03889,0.99484 -1.97197,2.21452 -3.19135,3.23554 3.18041,-1.49226 6.55886,-2.52868 9.96196,-3.34488 -1.51783,0.73458 -2.97297,2.2099 -4.50574,3.28328 2.70286,-0.84084 5.43697,-1.86032 8.17694,-2.71348 -0.78078,3.95626 -4.55563,7.3073 -8.90659,7.4459 2.19743,-1.05644 4.24393,-0.84546 6.59782,-0.67144 -0.92338,2.80434 -16.08268,4.83714 -6.89273,8.16354 -1.56633,-0.20174 -3.65134,0.30646 -5.26664,0.28798 1.31931,1.29514 3.04088,4.03326 4.49664,5.10048 -2.65819,1.1165 -5.47655,1.54462 -8.34664,1.82644 0.64849,0.64988 1.45945,2.29614 2.34064,2.9645 -2.30276,2.66728 -6.39639,1.4399 -9.83244,1.65858 0.41919,0.90706 0.78325,2.02972 1.19042,2.84746 -3.77176,0.30954 -7.09354,-1.5246 -10.61568,-2.73966 0.12936,0.81004 0.3097,1.61084 0.54131,2.40086 -2.46631,-0.48972 -4.38114,0.19096 -6.6953,-1.60468 0.52761,0.95634 0.8199,2.5795 1.36968,3.4804 -5.48749,0.24024 -8.72195,-5.28066 -11.17517,-9.05982 0.28875,1.463 1.18211,1.2166 2.01525,2.24994" /><path
       inkscape:connector-curvature="0"
       id="path94"
       style="fill:none;stroke:#171717;stroke-width:2.30999994;stroke-linecap:butt;stroke-linejoin:miter;stroke-miterlimit:10;stroke-dasharray:none;stroke-opacity:1"
       d="m 184.03594,433.66051 c 2.79911,-0.52206 5.34072,-1.9866 7.43112,-3.88696 -0.39701,0.1001 -0.78386,0.0662 -1.1587,-0.0986 1.20505,-2.98914 3.85495,-5.06506 6.56672,-6.63894 -1.36735,0.21868 -2.73597,0.42812 -4.09733,0.68684 1.88359,-2.98452 4.27183,-5.68876 7.2006,-7.67844 -0.61278,0.26642 -1.2331,0.52514 -1.8557,0.77 3.88696,-3.74374 6.91614,-8.24054 10.45198,-12.29536 -1.39062,0.8624 -2.88442,1.54308 -4.40286,2.1483 -0.93632,-5.80734 3.6267,-10.4258 5.96442,-15.27834 -0.98098,0.39578 -1.95888,0.79156 -2.93832,1.19042 3.0261,-4.59844 7.1379,-8.42996 9.67582,-13.35642 -1.3937,1.5246 -3.20782,2.55486 -5.00346,3.53738 -1.15038,-6.27858 5.06506,-10.626 6.27396,-16.36866 -0.84854,0.74844 -1.65704,1.54154 -2.41934,2.37622 -0.0924,-1.04412 0.0462,-2.09594 0.4081,-3.08154" /><path
       inkscape:connector-curvature="0"
       id="path98"
       style="fill:none;stroke:#171717;stroke-width:2.30999994;stroke-linecap:butt;stroke-linejoin:miter;stroke-miterlimit:10;stroke-dasharray:none;stroke-opacity:1"
       d="m 168.88974,344.88721 c 1.01963,1.33826 2.58134,1.65242 3.1168,3.61746 0.0553,-0.73766 0.17741,-2.0482 0.0775,-2.72888 -0.14845,-0.12012 2.26858,-0.24178 2.0653,0.0185 0.62739,1.32286 1.29514,1.5631 2.09825,2.67498 2.83868,-4.59844 6.28443,0.22176 7.06228,3.29098 1.59529,-2.85516 2.28105,-1.92654 4.71933,-2.90598 0.45045,3.43266 2.45245,4.3274 5.37014,3.06152 0.44692,2.42242 1.7704,2.99684 2.61201,5.19442 0.92816,-1.1704 3.59005,-2.1714 4.31816,-2.88596 0.28798,1.7633 1.20274,1.90036 1.67398,3.0569 1.07184,-0.88242 2.90136,-0.98714 3.73142,-1.51536 0.2464,0.85008 0.22176,1.99738 0.231,2.8644 1.18426,0.22792 2.4255,0.11242 3.62054,0.231 0.10472,0.49742 -0.1463,1.73404 0.22946,2.08208 1.89882,-0.62216 3.3957,0.26642 5.32686,-1.15654 -0.28798,1.09956 0.26488,2.45476 0.0631,3.46346 0.67914,0.11858 2.43474,-0.2156 2.9645,0.11704" /></g></svg>