<?xml version="1.0" encoding="UTF-8" standalone="no"?>
<!-- Created with Inkscape (http://www.inkscape.org/) -->

<svg
   xmlns:dc="http://purl.org/dc/elements/1.1/"
   xmlns:cc="http://creativecommons.org/ns#"
   xmlns:rdf="http://www.w3.org/1999/02/22-rdf-syntax-ns#"
   xmlns:svg="http://www.w3.org/2000/svg"
   xmlns="http://www.w3.org/2000/svg"
   xmlns:sodipodi="http://sodipodi.sourceforge.net/DTD/sodipodi-0.dtd"
   xmlns:inkscape="http://www.inkscape.org/namespaces/inkscape"
   id="svg2"
   version="1.1"
   inkscape:version="0.91 r13725"
   width="308"
   height="672"
   xml:space="preserve"
   sodipodi:docname="sc-m-1-1-linning.svg"><metadata
     id="metadata8"><rdf:RDF><cc:Work
         rdf:about=""><dc:format>image/svg+xml</dc:format><dc:type
           rdf:resource="http://purl.org/dc/dcmitype/StillImage" /><dc:title /></cc:Work></rdf:RDF></metadata><defs
     id="defs6" /><sodipodi:namedview
     pagecolor="#ffffff"
     bordercolor="#666666"
     borderopacity="1"
     objecttolerance="10"
     gridtolerance="10"
     guidetolerance="10"
     inkscape:pageopacity="0"
     inkscape:pageshadow="2"
     inkscape:window-width="1920"
     inkscape:window-height="1015"
     id="namedview4"
     showgrid="false"
     inkscape:zoom="1.0458386"
     inkscape:cx="-326.7841"
     inkscape:cy="345.66155"
     inkscape:window-x="0"
     inkscape:window-y="0"
     inkscape:window-maximized="1"
     inkscape:current-layer="g10" /><g
     id="g10"
     inkscape:groupmode="layer"
     inkscape:label="ink_ext_XXXXXX"
     transform="matrix(1.25,0,0,-1.25,0,672)"><path
       inkscape:connector-curvature="0"
       id="path82"
       style="fill:#8f9190;fill-opacity:1;fill-rule:nonzero;stroke:none"
       d="m 169.15353,438.89364 c 0,0 6.55702,-25.28218 6.43074,-26.49416 -0.12628,-1.21044 -0.73089,-8.08038 -0.73089,-8.08038 0,0 -0.58474,-23.69906 -2.75706,-27.93252 -2.17094,-4.23192 -4.55794,-9.60806 -4.55794,-9.60806 0,0 -1.51413,-26.64046 -2.08146,-31.90572 -0.56657,-5.26372 6.6702,-13.61052 4.80834,-16.86762 -1.86248,-3.2571 1.11588,-18.30598 1.9213,-21.32592 0.80681,-3.01994 8.58195,-40.99788 5.76068,-49.4802 -2.82205,-8.48232 -5.94101,-38.53234 -13.75774,-50.9278 -7.81797,-12.39546 -6.73519,-24.09022 -6.73519,-24.09022 0,0 4.85346,-12.5972 3.86694,-16.95232 -0.98668,-4.35358 2.83637,-13.4827 4.03526,-16.401 1.19827,-2.91676 2.94279,-19.12046 1.64641,-28.40498 -1.29637,-9.28634 -4.12181,-26.060334 -4.12181,-26.060334 l 8.73581,1.292199 3.23646,4.595361 6.60398,-1.293432 2.44351,1.142372 1.7325,-3.169012 1.71141,3.150982 5.06814,-0.0385 3.72557,-1.758988 6.41363,4.895521 3.40494,-3.243101 2.2022,4.763221 5.07892,-4.4569 6.16,2.34248 3.58974,1.84492 4.24732,2.75044 2.45476,0.91493 0.75922,4.304131 7.42896,-5.191481 -2.45322,11.720941 5.0127,-3.55709 0,3.5805 0.0955,8.04048 2.75044,0.23223 -2.7258,8.1312 -2.05282,6.67282 4.02864,0.63602 -3.76068,6.36481 3.74066,-1.80026 -7.60144,13.38876 4.5815,-1.14884 -4.5815,10.79386 3.58204,-2.89982 -4.0964,13.16546 -0.92246,10.36574 2.8336,-0.66374 -3.96396,16.99236 3.17856,-3.0492 -2.6334,16.91536 -2.48094,15.12588 0.51744,10.47662 -0.15246,2.00508 -3.46654,14.02786 3.15546,0 -3.9886,21.5754 -1.35982,4.0117 1.85108,2.25456 -1.09648,4.91876 2.78432,1.1242 -1.89266,7.54138 -4.43058,9.09216 3.22784,-0.48048 -4.22422,13.78146 -0.79618,3.87926 4.2658,-3.80534 -5.19596,14.86254 0.99792,3.39416 -1.16886,4.60922 3.80842,-1.26896 -4.36282,15.22752 -2.67806,9.5557 3.02764,1.1011 -3.34026,7.60144 -2.02664,5.1898 -3.20628,5.34996 -1.04104,5.8289 -4.67236,9.81904 -1.43066,6.49572 -1.59544,7.5922 1.81412,0.95326 -7.86324,9.1938 -4.07854,3.53276 -2.13074,5.50396 0.49204,5.78886 -13.63316,2.77508" /></g></svg>