<?xml version="1.0" encoding="UTF-8" standalone="no"?>
<!-- Created with Inkscape (http://www.inkscape.org/) -->

<svg
   xmlns:dc="http://purl.org/dc/elements/1.1/"
   xmlns:cc="http://creativecommons.org/ns#"
   xmlns:rdf="http://www.w3.org/1999/02/22-rdf-syntax-ns#"
   xmlns:svg="http://www.w3.org/2000/svg"
   xmlns="http://www.w3.org/2000/svg"
   xmlns:sodipodi="http://sodipodi.sourceforge.net/DTD/sodipodi-0.dtd"
   xmlns:inkscape="http://www.inkscape.org/namespaces/inkscape"
   id="svg2"
   version="1.1"
   inkscape:version="0.91 r13725"
   width="308"
   height="672"
   xml:space="preserve"
   sodipodi:docname="sc-m-1-2-border.svg"><metadata
     id="metadata8"><rdf:RDF><cc:Work
         rdf:about=""><dc:format>image/svg+xml</dc:format><dc:type
           rdf:resource="http://purl.org/dc/dcmitype/StillImage" /><dc:title /></cc:Work></rdf:RDF></metadata><defs
     id="defs6" /><sodipodi:namedview
     pagecolor="#ffffff"
     bordercolor="#666666"
     borderopacity="1"
     objecttolerance="10"
     gridtolerance="10"
     guidetolerance="10"
     inkscape:pageopacity="0"
     inkscape:pageshadow="2"
     inkscape:window-width="1920"
     inkscape:window-height="1015"
     id="namedview4"
     showgrid="false"
     inkscape:zoom="1.0458385"
     inkscape:cx="-145.89972"
     inkscape:cy="446.77149"
     inkscape:window-x="0"
     inkscape:window-y="0"
     inkscape:window-maximized="1"
     inkscape:current-layer="g10" /><g
     id="g10"
     inkscape:groupmode="layer"
     inkscape:label="ink_ext_XXXXXX"
     transform="matrix(1.25,0,0,-1.25,0,672)"><path
       inkscape:connector-curvature="0"
       id="path86"
       style="fill:none;stroke:#171717;stroke-width:2.30999994;stroke-linecap:butt;stroke-linejoin:miter;stroke-miterlimit:10;stroke-dasharray:none;stroke-opacity:1"
       d="m 65.702316,209.94393 c -0.500038,-2.926 -1.62008,-5.49164 -2.228842,-8.10656 0.46739,-0.005 0.897512,0.12166 1.291598,0.37576 -0.955262,-2.91522 -3.233384,-6.44336 -0.77,-8.28212 -0.283976,-1.62778 -0.85008,-3.19858 -1.497958,-4.76014 11.355651,-0.15708 -20.218506,-18.78954 33.679646,-13.02686 5.75282,0.61446 10.22052,-0.4697 15.82289,-2.05282 0.38207,-0.1078 1.29037,-0.13552 1.16717,-3.54508 2.54639,3.3649 4.05928,3.3495 6.28628,0.17556 0.64479,3.27712 2.00431,3.39878 4.27534,2.04512 0,1.44606 0.91138,1.41834 1.57481,1.07338 2.07053,0.0986 2.73596,2.08362 3.31161,3.8115 0.57442,1.72788 1.0606,3.19704 3.04689,2.02356 -0.43905,1.17656 -0.8644,2.31308 -1.21814,3.3572 0.52822,-1.27512 1.4396,-2.54408 2.08747,-3.90236 0.0481,-0.0308 0.0975,-0.0601 0.14615,-0.0924 0.26888,4.47832 -1.97798,8.27904 -3.64841,12.24762 0.64479,-1.34596 1.49487,-2.68576 2.06745,-3.9116 2.03033,4.93108 -0.73274,9.6712 -0.764,14.70238 0.0825,-0.23254 0.27381,-0.33418 0.59567,-0.27412 0.48726,4.47986 -0.28582,10.26872 -2.06529,14.28042 0.88612,-1.30438 2.25471,-2.0097 3.1781,-3.49734 3.35858,2.45014 2.62277,8.13428 0.5005,11.50842 0.1925,0.14938 1.35227,0.72072 1.50689,0.8855 0.36282,3.80688 -0.0253,7.72002 -0.52268,11.36058 0.71102,-0.34034 1.33364,-0.81004 2.07962,-1.23816 0.33264,4.68776 -2.15539,10.47662 -4.25795,14.51296 0.68161,-0.0878 1.33426,-0.3542 1.96597,-0.61138 -1.53215,3.41726 -5.2186,6.84068 -5.17533,11.14652 1.43359,-0.29568 2.85932,0.15862 4.40225,-0.34804 -1.03458,2.43166 -2.09825,5.3977 -2.89043,8.2467 0.62863,-0.0262 1.41249,-0.0447 1.31855,0.037 1.46962,3.08154 1.04858,6.76522 -0.52268,9.00746 0.75907,0.0893 0.99669,-0.33572 1.47794,-0.36806 -0.35189,4.37052 -1.62532,8.17586 -1.59113,11.25894 -0.012,-0.97482 1.95626,5.236 1.74759,4.62308 0.1925,0.56056 -1.47254,4.62154 -1.6344,5.313 0.55764,-0.38962 1.5032,-0.98406 2.07469,-1.40448 -2.24008,5.90128 -5.35212,12.2353 -5.90421,18.32446 0.96127,-0.42504 2.58659,-0.2387 3.59914,-0.5544 0.44213,3.04458 -0.89043,5.85354 -2.89243,8.08346 0.73088,-0.13706 0.94818,-0.73458 1.48471,-1.00562 0.44214,3.8808 -1.07676,7.16562 -2.26903,11.16962 3.40894,0.9779 3.98536,4.61384 3.75791,7.88018 -2.53854,2.6257 -4.35405,6.95464 -4.46847,10.59366 4.40348,0.20328 4.43844,2.80126 1.48287,5.39616 0.93308,0.0262 1.99307,0.2464 2.91938,0.22946 -0.88119,1.85416 -1.611,4.8125 -2.90367,6.70054 0.74104,0.21406 1.38292,0 2.11873,0.22638 0.58042,4.4275 -4.17787,4.87718 -5.19873,9.01054 3.31284,0.25872 1.80472,1.01332 3.69292,2.46862 -3.51013,1.46454 -6.1292,4.3428 -5.19566,8.31446 0.72796,0.1848 1.35767,0.0108 2.08024,0.22638 -0.76585,1.16578 -0.70686,3.70678 -2.12536,5.1282 2.77739,0.10318 3.72973,1.61392 5.56741,2.75198 -5.97643,0.37884 -8.71363,7.83398 -4.34742,11.87648 -4.59474,1.45838 -8.46399,6.2755 -3.07754,9.37552 -3.68768,2.99838 -1.00469,6.92076 -0.63709,10.66296 -7.34272,1.96504 -3.68153,8.21128 -3.90298,13.05304 -0.29168,6.38792 -6.11904,7.94794 -7.43235,13.12542 4.15569,-0.87472 6.33633,1.4784 4.52083,4.75398 l -0.77,0 c -2.42319,0.83776 -4.60615,3.3264 -5.98553,5.33148 0.042,-1.39062 -0.44105,-3.10618 -0.32786,-4.50142 -1.0124,1.83414 -2.84839,4.41056 -4.31324,6.01986 0.23455,-1.55694 -0.40902,-3.60206 -0.26765,-5.19134 -1.00885,0.67914 -3.316542,0.86856 -4.520822,2.11134 0.006,-1.32594 -1.080926,-3.47578 -0.870408,-5.23138 -0.88319,0.76538 -2.696848,1.28282 -3.57819,2.17294 0.142604,-1.08262 -0.410872,-2.5949 -0.27181,-3.69292 -2.75583,0.93478 -5.787012,1.78178 -8.525902,0.68838 0.55209,-0.69762 1.16809,-1.54616 1.631322,-2.19296 -1.854006,0.72996 -4.8125,0.75922 -6.733804,1.2859 -0.01571,-0.91322 -0.196196,-1.92654 -0.231616,-2.8413 -2.254714,0.49434 -4.715019,0.6776 -6.71825,2.11134 0.669438,-1.7556 2.257023,-3.97628 2.899511,-4.5045 0.0042,0 0.0042,0 0.0091,0 1.26434,-0.55594 2.306921,-1.56772 3.265263,-2.32694 -1.68014,-0.85932 -2.111495,-2.23454 -4.668819,-2.45784 0.741818,-0.20636 1.977976,-1.34904 3.708629,-1.5246 -0.86856,-0.9548 -1.547239,-3.67906 -2.129513,-4.39362 0.922152,0.0169 1.979825,-0.21252 2.899513,-0.23254 -1.017786,-2.76122 -2.584891,-5.51628 -3.690611,-8.2313 1.442672,0.56364 2.961575,0.42966 4.482325,1.41834 -1.180872,-3.23554 -3.190111,-6.47108 -5.252325,-9.09986 0.832062,0.28028 2.916453,0.22638 3.517977,0.37576 -1.045507,-1.62932 -1.191037,-3.79764 -2.048355,-5.3592 0.94633,-0.0508 1.766843,0.26488 2.462307,0.95018 -1.13575,-2.78894 -3.304379,-6.05374 -3.912063,-9.09524 1.13883,0.67914 2.652958,1.08108 3.842763,1.9404 -1.887579,-2.44398 -3.161775,-5.13898 -3.057671,-8.12042 0.700854,0.462 2.042349,0.95018 2.809269,1.39832 0.626934,-3.29714 -0.691768,-6.7683 -1.244013,-9.84522 1.400477,0.74536 3.557093,1.27204 4.997763,2.74428 -2.294908,-3.60514 -7.221677,-10.2025 -3.634554,-13.71832 0.939554,0.76846 3.069066,1.57542 3.828902,2.35774 -1.484714,-3.38954 -3.435586,-7.315 -4.462458,-10.62292 0.72611,-0.1617 1.36675,-0.0616 2.095324,-0.20944 -0.169092,-3.08924 -1.482866,-5.8674 -1.308384,-9.0244 0.84931,0.16632 1.926232,0.18788 2.883804,0.40194 -0.98175,-2.38854 -1.512896,-4.8741 -1.581426,-7.48286 0.658042,-0.21868 1.312542,-0.45276 1.959188,-0.70224 -0.410872,-1.81258 0.607684,-4.25656 -0.231462,-6.25548 0.802956,-0.0554 1.709554,0.1386 2.335718,0.21714 -1.044274,-3.32024 -2.797718,-6.8376 -2.668512,-10.2487 0.48125,0.28798 0.597366,1.07492 1.090628,1.35058 -1.097866,-3.0954 -3.420956,-5.72726 -3.765762,-8.91352 0.667744,-0.0447 0.588434,0.7546 1.245244,0.64064 -0.586432,-1.89728 -0.809116,-4.1041 -2.03742,-5.9675 1.04489,1.08416 2.560866,2.18372 3.635786,3.49734 -1.555092,-2.98914 -3.35797,-5.8366 -2.24917,-8.90736 0.766304,0.16016 1.470238,0.4543 2.190804,0.59136 0.557634,-3.85924 -1.909908,-6.82682 -2.03742,-10.58442 0.919688,-0.0308 1.923152,-0.1848 2.844688,-0.22946 -0.602756,-1.96812 -0.550396,-3.98398 -2.113804,-5.81658 0.750134,0.8393 1.547238,1.6786 2.285976,2.57796 -2.498342,-3.6344 -1.74944,-7.99722 -3.97705,-11.77792 0.579348,0.5005 1.191806,1.155 1.648262,1.76946 -0.83545,-1.96504 -1.139908,-4.389 -2.264878,-6.38792 1.49072,1.25202 3.746666,2.08978 5.248628,3.34488 -1.373834,-2.9645 -5.313,-6.7991 -5.941629,-10.11626 -0.548548,-2.90136 2.183721,-5.48086 1.499807,-9.55108 1.180256,0.24024 2.361128,0.0524 3.614688,0.57442 -0.475244,-3.44344 -3.433122,-6.14768 -3.574494,-9.8714 0.40194,0.52052 1.23816,1.66012 1.846922,2.35774 -1.258488,-1.41372 -2.302762,-3.39416 -3.432045,-4.92646 0.453069,-3.5805 -7.887571,-18.19664 0.578733,-17.62838 -0.724879,-1.41218 -1.455763,-3.00146 -2.461537,-4.37822 0.11242,0.12628 0.224378,0.2541 0.326018,0.37114 -1.854005,-3.12312 -3.680907,-6.38022 -5.368285,-9.46946 0.856548,0.99946 1.791944,1.83568 2.65111,2.73196 -1.96119,-3.65596 -5.77808,-7.19334 -5.687836,-11.39446 0.575652,0.3311 1.224146,0.69916 1.950872,0.88858 -1.85647,-2.1098 -3.400628,-4.50758 -4.346958,-7.00546 0.940324,0.41426 1.99122,0.80234 2.847306,1.34134 -0.05837,-3.44344 -2.869482,-5.60868 -3.61361,-9.06136 0.78925,0.3773 2.068682,0.6006 3.055976,1.16886 z" /><path
       inkscape:connector-curvature="0"
       id="path90"
       style="fill:none;stroke:#171717;stroke-width:2.30999994;stroke-linecap:butt;stroke-linejoin:miter;stroke-miterlimit:10;stroke-dasharray:none;stroke-opacity:1"
       d="m 140.33935,459.69651 c 0.45599,-3.07076 2.08439,-5.544 3.88788,-8.19896 -0.095,1.65242 0.52037,4.13644 0.54254,5.0743 0.85255,-4.68006 3.70863,-9.39554 6.19911,-12.98528 0.24671,2.08516 1.34581,3.84692 1.71264,5.86586 0.48494,-2.9722 2.21744,-5.68568 4.44136,-7.4074 -0.0752,0.74998 0.0933,1.97582 0.13844,2.7874 0.8373,-3.49272 3.51613,-6.61892 6.82882,-7.36736 -0.48232,1.16116 -0.62077,2.2022 -1.30237,3.46192 1.60498,-1.49226 3.2822,-2.94756 4.96172,-4.40594 -0.26164,0.50358 -1.01963,1.19658 -1.35951,1.6478 3.48902,0.35882 8.13428,-2.87672 11.91698,-4.05328 -1.03888,0.99484 -1.97197,2.21452 -3.19134,3.23554 3.18041,-1.49226 6.55886,-2.52868 9.96197,-3.34488 -1.51784,0.73458 -2.97299,2.2099 -4.50575,3.28328 2.70285,-0.84084 5.43697,-1.86032 8.17694,-2.71348 -0.78078,3.95626 -4.55563,7.3073 -8.90659,7.4459 2.19742,-1.05644 4.24395,-0.84546 6.59782,-0.67144 -0.92338,2.80434 -16.08268,4.83714 -6.89273,8.16354 -1.56634,-0.20174 -3.65134,0.30646 -5.26665,0.28798 1.31932,1.29514 3.04089,4.03326 4.49665,5.10048 -2.6582,1.1165 -5.47655,1.54462 -8.34665,1.82644 0.6485,0.64988 1.45946,2.29614 2.34065,2.9645 -2.30276,2.66728 -6.39639,1.4399 -9.83244,1.65858 0.41919,0.90706 0.78324,2.02972 1.19042,2.84746 -3.77177,0.30954 -7.09355,-1.5246 -10.61568,-2.73966 0.12936,0.81004 0.30969,1.61084 0.54131,2.40086 -2.46631,-0.48972 -4.38115,0.19096 -6.6953,-1.60468 0.5276,0.95634 0.8199,2.5795 1.36967,3.4804 -5.48748,0.24024 -8.72194,-5.28066 -11.17516,-9.05982 0.28875,1.463 1.18211,1.2166 2.01525,2.24994" /><path
       inkscape:connector-curvature="0"
       id="path94"
       style="fill:none;stroke:#171717;stroke-width:2.30999994;stroke-linecap:butt;stroke-linejoin:miter;stroke-miterlimit:10;stroke-dasharray:none;stroke-opacity:1"
       d="m 180.37934,436.59651 c 2.80927,-0.49742 5.32794,-2.00046 7.43113,-3.88696 -0.39701,0.1001 -0.78386,0.0662 -1.15869,-0.0986 1.14774,-2.99376 3.90605,-5.04812 6.56669,-6.63894 -1.3632,0.25872 -2.7401,0.38808 -4.09732,0.68684 1.88958,-2.97374 4.26395,-5.70108 7.20059,-7.67844 -0.5983,0.31108 -1.2474,0.48664 -1.8557,0.77 3.91314,-3.7191 6.88842,-8.26364 10.45198,-12.29536 -1.35212,0.93786 -2.91368,1.463 -4.40286,2.1483 -0.96712,-5.81504 3.72526,-10.38114 5.96441,-15.27834 -0.98097,0.39578 -1.95887,0.79156 -2.93831,1.19042 2.98143,-4.62924 7.17947,-8.4007 9.67581,-13.35642 -1.309,1.62778 -3.26326,2.46554 -5.00346,3.53738 -1.1858,-6.13228 5.27296,-10.64602 6.27396,-16.36866 -0.84854,0.74844 -1.65704,1.54154 -2.41934,2.37622 -0.54978,-5.93362 6.77138,-9.04596 8.24978,-14.33894 -1.85416,1.09186 -3.95472,1.72326 -5.51782,3.26018 0.11088,-3.73296 1.85416,-7.20566 3.97936,-10.19634 -0.37576,0.2618 -0.90706,0.39116 -1.3013,0.64064 1.09186,-5.17286 4.19188,-9.84984 4.36282,-15.22752 -1.65088,0.45584 -3.34026,0.58982 -4.57534,1.92192 1.39678,-2.73812 2.38084,-5.75498 2.25456,-8.85808 -0.4389,0.0647 -0.87934,0.1309 -1.3167,0.20174 1.03642,-5.19134 4.27042,-9.64502 5.19596,-14.86254 -1.55232,1.0934 -3.2494,1.9558 -4.3813,3.53584 0.70224,-6.05836 6.05528,-11.06182 5.1359,-17.39122 -1.56926,0.77154 -3.26942,1.42912 -4.4429,2.78124 3.13544,-6.01062 6.86994,-12.0351 7.5383,-18.9343 -0.9009,0.31262 -1.95272,0.0185 -2.86132,0.37884 -0.009,-3.2725 1.21044,-6.37252 2.05282,-9.48948 -1.00254,1.1473 -2.32848,1.98506 -3.62978,2.75814 2.31308,-4.5892 2.8952,-9.32008 3.5959,-14.3297 0.77,-5.49934 2.5487,-10.82466 3.1108,-16.3548 -1.11804,1.52306 -2.56564,2.7566 -3.55278,4.3813 -0.6006,-6.04604 3.52198,-11.28512 3.5574,-17.26186 -0.6006,0.75614 -1.45838,1.28282 -2.05436,2.02972 1.28898,-5.4131 3.34026,-10.59982 4.98036,-15.9082 -1.0087,1.27512 -2.31924,2.23608 -3.44344,3.40186 -0.66682,-6.17078 2.52098,-11.9196 2.80742,-18.01338 -0.66528,0.95172 -1.33826,1.89882 -2.01586,2.84284 1.09494,-5.69954 4.30892,-10.96788 4.32278,-16.8707 -1.1473,1.22892 -2.45014,2.2946 -3.57126,3.55124 0.10164,-1.6555 0.6006,-3.25556 1.2628,-4.76784" /><path
       inkscape:connector-curvature="0"
       id="path98"
       style="fill:none;stroke:#171717;stroke-width:2.30999994;stroke-linecap:butt;stroke-linejoin:miter;stroke-miterlimit:10;stroke-dasharray:none;stroke-opacity:1"
       d="m 230.42811,194.84885 c 0.34804,-2.80896 -0.037,-6.09994 -1.55386,-8.30368 -0.36036,0.41118 -0.59752,0.80696 -0.9856,1.19196 -1.11188,-1.6401 -1.81412,-4.87256 -4.03326,-5.65488 -0.0678,1.2243 -1.08262,2.2792 -1.23046,3.47578 -3.03688,0.59136 -2.9722,-3.12774 -4.63386,-3.0107 -2.52406,0.1771 -4.0194,4.56302 -6.1061,5.63794 -0.154,-1.20582 -1.21198,-2.83206 -1.37676,-3.55124 -0.13398,0.49126 -0.02,0.92246 -0.18788,1.4014 -0.31108,0.12782 -1.31516,0.38038 -1.41064,0.49896 -1.7325,-2.12828 -1.49996,-5.19288 -3.02302,-7.11326 -0.50203,2.5641 -1.32439,5.07276 -3.09385,6.73442 -0.92862,-2.91214 -2.6796,-10.3257 -4.6893,-3.04304 -0.71764,-1.04874 -1.61238,-2.90906 -2.0727,-4.26888 -1.46361,2.4794 -3.52828,5.1513 -6.10654,6.75906 0.2413,-2.18988 -0.26458,-4.68622 -1.55017,-6.30476 -1.17611,1.8865 -1.61638,4.24886 -3.14622,5.89204 -1.09788,-2.18988 -1.28545,-6.05066 -3.45716,-7.27496 -0.45184,2.0174 -1.74821,3.77454 -3.46084,4.92646 -0.30261,-0.86702 -1.48579,-1.7017 -1.79379,-2.39624 -2.39301,3.14314 -3.96196,-0.42812 -6.97389,0.21714 -0.15046,0.56056 -0.60276,1.32286 -0.69901,1.59852 -1.32825,-2.43936 -2.97543,-2.14984 -4.12258,0.35574 -1.51474,-1.463 -3.41079,-2.75968 -5.13313,-3.6806" /></g></svg>