<?xml version="1.0" encoding="UTF-8" standalone="no"?>
<!-- Created with Inkscape (http://www.inkscape.org/) -->

<svg
   xmlns:dc="http://purl.org/dc/elements/1.1/"
   xmlns:cc="http://creativecommons.org/ns#"
   xmlns:rdf="http://www.w3.org/1999/02/22-rdf-syntax-ns#"
   xmlns:svg="http://www.w3.org/2000/svg"
   xmlns="http://www.w3.org/2000/svg"
   xmlns:sodipodi="http://sodipodi.sourceforge.net/DTD/sodipodi-0.dtd"
   xmlns:inkscape="http://www.inkscape.org/namespaces/inkscape"
   id="svg2"
   version="1.1"
   inkscape:version="0.91 r13725"
   width="308"
   height="672"
   xml:space="preserve"
   sodipodi:docname="sc-m-3-2-linning.svg"><metadata
     id="metadata8"><rdf:RDF><cc:Work
         rdf:about=""><dc:format>image/svg+xml</dc:format><dc:type
           rdf:resource="http://purl.org/dc/dcmitype/StillImage" /><dc:title /></cc:Work></rdf:RDF></metadata><defs
     id="defs6" /><sodipodi:namedview
     pagecolor="#ffffff"
     bordercolor="#666666"
     borderopacity="1"
     objecttolerance="10"
     gridtolerance="10"
     guidetolerance="10"
     inkscape:pageopacity="0"
     inkscape:pageshadow="2"
     inkscape:window-width="1920"
     inkscape:window-height="1015"
     id="namedview4"
     showgrid="false"
     inkscape:zoom="2.9580781"
     inkscape:cx="72.362411"
     inkscape:cy="604.70818"
     inkscape:window-x="0"
     inkscape:window-y="0"
     inkscape:window-maximized="1"
     inkscape:current-layer="g10" /><g
     id="g10"
     inkscape:groupmode="layer"
     inkscape:label="ink_ext_XXXXXX"
     transform="matrix(1.25,0,0,-1.25,0,672)"><path
       style="fill:#8f9190;fill-opacity:1;fill-rule:nonzero;stroke:none"
       d="M 194.10352 17.626953 L 188.39844 19.630859 L 189.82617 30.408203 L 190.03516 41.294922 L 188.11328 63.001953 L 185.05469 68.591797 L 181.2168 92.042969 C 182.74552 91.161285 184.44716 89.73273 186.19922 89.056641 C 185.65162 89.149451 185.03675 88.771215 185.01367 88.214844 C 186.32056 87.714344 187.45983 87.367897 188.7207 86.748047 C 187.4425 85.635397 187.29776 86.017275 186.79688 84.125 C 192.16204 83.734225 196.50254 81.224497 192.71875 77.607422 C 193.78135 77.416847 195.2831 77.126772 196.3457 77.248047 C 196.36595 76.196997 195.5307 74.395381 195.62695 73.785156 C 196.74885 73.288506 198.26924 72.960453 199.30469 72.392578 C 198.36086 71.997953 197.55093 70.824819 195.60938 70.464844 C 196.97554 69.844994 199.81303 67.583556 201.24023 67.019531 C 200.41595 66.898281 199.55301 66.990556 198.75586 66.878906 C 200.3388 65.263831 201.69944 62.715881 203.1582 61.316406 C 201.7131 62.507981 199.85931 63.705147 198.54492 64.779297 C 200.26145 63.141122 202.27855 59.969713 204.3125 58.164062 C 202.73208 54.785687 201.41834 54.320437 203.83594 50.585938 C 202.73811 50.314512 202.41604 50.910119 201.45508 51.308594 C 202.41142 49.886019 202.80582 47.363431 203.85938 45.769531 C 203.24049 45.629006 201.84165 45.997128 201.37695 45.533203 C 203.12659 43.076903 203.39183 39.767378 204.07617 37.080078 C 203.25131 37.112828 202.45638 37.285834 201.68945 37.599609 C 202.10064 35.946034 201.39227 32.248966 202.14648 30.306641 C 201.03885 31.126691 199.71834 31.377012 198.35352 32.851562 C 199.25962 30.372162 199.28816 27.409188 200.30859 25.070312 C 199.23483 25.002938 197.67196 24.652456 196.98242 24.660156 C 197.59285 23.120156 197.92307 21.050878 198.32617 19.720703 C 196.84777 20.461828 195.36 20.338747 193.79883 21.466797 C 194.14862 20.407102 193.997 18.984654 194.10352 17.626953 z M 132.14844 26.457031 C 129.39249 27.067386 127.70238 28.709374 128.75977 31.986328 C 126.02645 32.794828 124.13782 34.862253 121.66016 35.861328 C 123.34164 35.772828 125.41884 36.306963 127.0957 36.195312 C 125.02922 37.575537 122.89325 40.402531 120.59961 42.019531 C 120.44022 44.724156 120.27021 46.636328 117.66992 49.283203 C 119.62265 48.982903 121.57475 49.419803 123.48242 48.876953 C 121.18532 51.262028 118.9947 54.155328 117.64258 57.033203 C 119.04494 56.908078 120.83567 57.457044 122.23438 57.324219 C 121.32829 59.083669 121.50267 62.038256 119.85352 63.988281 C 120.52514 64.171156 121.50525 63.918172 122.26562 64.060547 C 121.11139 65.818072 120.61587 68.747687 118.62695 70.460938 C 119.34883 70.911387 120.46313 70.637044 121.28125 70.792969 C 122.01583 71.337744 120.84679 72.820938 121.5625 73.398438 C 122.69651 73.409688 124.01997 73.462222 125.14648 73.685547 C 123.49213 77.885897 125.42458 80.312769 129.99414 80.464844 C 130.00039 80.974969 128.90633 81.610644 129.25977 81.964844 C 132.68492 85.295094 135.72332 88.229934 140.55469 88.193359 C 140.59081 88.456914 140.52612 88.654561 140.37891 88.800781 C 141.29238 88.229395 142.12248 88.139674 143.00195 87.669922 L 144.23242 74.628906 L 143.94531 66.357422 L 140.88281 58.417969 L 140.55273 52.888672 L 138.80273 49.529297 L 136.39258 46.978516 L 138.13867 37.462891 L 132.14844 26.457031 z "
       transform="matrix(0.8,0,0,-0.8,0,537.6)"
       id="path82" /></g></svg>