<?xml version="1.0" encoding="UTF-8" standalone="no"?>
<!-- Created with Inkscape (http://www.inkscape.org/) -->

<svg
   xmlns:dc="http://purl.org/dc/elements/1.1/"
   xmlns:cc="http://creativecommons.org/ns#"
   xmlns:rdf="http://www.w3.org/1999/02/22-rdf-syntax-ns#"
   xmlns:svg="http://www.w3.org/2000/svg"
   xmlns="http://www.w3.org/2000/svg"
   xmlns:sodipodi="http://sodipodi.sourceforge.net/DTD/sodipodi-0.dtd"
   xmlns:inkscape="http://www.inkscape.org/namespaces/inkscape"
   id="svg2"
   version="1.1"
   inkscape:version="0.91 r13725"
   width="308"
   height="672"
   xml:space="preserve"
   sodipodi:docname="sc-m-1-3.svg"><metadata
     id="metadata8"><rdf:RDF><cc:Work
         rdf:about=""><dc:format>image/svg+xml</dc:format><dc:type
           rdf:resource="http://purl.org/dc/dcmitype/StillImage" /><dc:title></dc:title></cc:Work></rdf:RDF></metadata><defs
     id="defs6" /><sodipodi:namedview
     pagecolor="#ffffff"
     bordercolor="#666666"
     borderopacity="1"
     objecttolerance="10"
     gridtolerance="10"
     guidetolerance="10"
     inkscape:pageopacity="0"
     inkscape:pageshadow="2"
     inkscape:window-width="1920"
     inkscape:window-height="1015"
     id="namedview4"
     showgrid="false"
     inkscape:zoom="0.52291928"
     inkscape:cx="-617.45998"
     inkscape:cy="352.60907"
     inkscape:window-x="0"
     inkscape:window-y="0"
     inkscape:window-maximized="1"
     inkscape:current-layer="g10" /><g
     id="g10"
     inkscape:groupmode="layer"
     inkscape:label="ink_ext_XXXXXX"
     transform="matrix(1.25,0,0,-1.25,0,672)"><path
       inkscape:connector-curvature="0"
       id="path82"
       style="fill:#8f9190;fill-opacity:1;fill-rule:nonzero;stroke:none"
       d="m 169.48988,317.45369 c -1.86247,-3.2571 1.11589,-18.30598 1.92131,-21.32592 0.385,-1.4399 2.35281,-10.83082 4.0023,-21.18116 3.34165,1.64318 7.06414,2.59182 10.98267,2.57488 2.14937,-0.009 4.29583,0.009 6.4355,0.19096 -0.03,0.0277 0.82113,0.18326 2.61569,0.47586 4.34588,0.89936 8.65018,1.96042 12.98066,2.92138 5.55478,1.23354 11.1881,2.31 16.85838,2.95834 l -0.1925,0.86548 2.78432,1.1242 -1.89266,7.54138 -4.43058,9.09216 3.22784,-0.48048 -4.22422,13.78146 -0.79618,3.87926 4.2658,-3.80534 -5.19596,14.86254 0.99792,3.39416 -1.16886,4.60922 3.80842,-1.26896 -4.36282,15.22752 -2.67806,9.5557 3.02764,1.1011 -3.34026,7.60144 -2.02664,5.1898 -3.20628,5.34996 -1.04104,5.8289 -4.67236,9.81904 -1.43066,6.49572 -1.59544,7.5922 1.81412,0.95326 -7.86324,9.1938 -4.07853,3.53276 -2.13075,5.50396 0.49203,5.78886 -13.63316,2.77508 -7.36612,-0.83006 c 0,0 6.55701,-25.28218 6.43073,-26.49416 -0.12628,-1.21044 -0.73089,-8.08038 -0.73089,-8.08038 0,0 -0.58473,-23.69906 -2.75706,-27.93252 -2.17094,-4.23192 -4.55794,-9.60806 -4.55794,-9.60806 0,0 -1.51412,-26.64046 -2.08146,-31.90572 -0.56657,-5.26372 6.6702,-13.61052 4.80834,-16.86762" /><path
       inkscape:connector-curvature="0"
       id="path84"
       style="fill:#d2d4d1;fill-opacity:1;fill-rule:nonzero;stroke:none"
       d="m 75.43376,447.69303 c 0.0042,0 0.0042,0 0.0091,0 1.26434,-0.55594 2.30692,-1.56772 3.265262,-2.32694 -1.68014,-0.85932 -2.111494,-2.23454 -4.668818,-2.45784 0.741818,-0.20636 1.977976,-1.34904 3.708628,-1.5246 -0.86856,-0.9548 -1.547238,-3.67906 -2.129512,-4.39362 0.922152,0.0169 1.979824,-0.21252 2.899512,-0.23254 -1.017786,-2.76122 -2.58489,-5.51628 -3.69061,-8.2313 1.442672,0.56364 2.961574,0.42966 4.482324,1.41834 -1.180872,-3.23554 -3.19011,-6.47108 -5.252324,-9.09986 0.832062,0.28028 2.916452,0.22638 3.517976,0.37576 -1.045506,-1.62932 -1.191036,-3.79764 -2.048354,-5.3592 0.94633,-0.0508 1.766842,0.26488 2.462306,0.95018 -1.13575,-2.78894 -3.304378,-6.05374 -3.912062,-9.09524 1.13883,0.67914 2.652958,1.08108 3.842762,1.9404 -1.887578,-2.44398 -3.161774,-5.13898 -3.05767,-8.12042 0.700854,0.462 2.042348,0.95018 2.809268,1.39832 0.626934,-3.29714 -0.691768,-6.7683 -1.244012,-9.84522 1.400476,0.74536 3.557092,1.27204 4.997762,2.74428 -2.294908,-3.60514 -7.221676,-10.2025 -3.634554,-13.71832 0.939554,0.76846 3.069066,1.57542 3.828902,2.35774 -1.484714,-3.38954 -3.435586,-7.315 -4.462458,-10.62292 0.72611,-0.1617 1.36675,-0.0616 2.095324,-0.20944 -0.169092,-3.08924 -1.482866,-5.8674 -1.308384,-9.0244 0.84931,0.16632 1.926232,0.18788 2.883804,0.40194 -0.98175,-2.38854 -1.512896,-4.8741 -1.581426,-7.48286 0.658042,-0.21868 1.312542,-0.45276 1.959188,-0.70224 -0.410872,-1.81258 0.607684,-4.25656 -0.231462,-6.25548 0.802956,-0.0554 1.709554,0.1386 2.335718,0.21714 -1.044274,-3.32024 -2.797718,-6.8376 -2.668512,-10.2487 0.48125,0.28798 0.597366,1.07492 1.090628,1.35058 -1.097866,-3.0954 -3.420956,-5.72726 -3.765762,-8.91352 0.667744,-0.0447 0.588434,0.7546 1.245244,0.64064 -0.586432,-1.89728 -0.809116,-4.1041 -2.03742,-5.9675 1.04489,1.08416 2.560866,2.18372 3.635786,3.49734 -1.555092,-2.98914 -3.35797,-5.8366 -2.24917,-8.90736 0.766304,0.16016 1.470238,0.4543 2.190804,0.59136 0.557634,-3.85924 -1.909908,-6.82682 -2.03742,-10.58442 0.919688,-0.0308 1.923152,-0.1848 2.844688,-0.22946 -0.602756,-1.96812 -0.550396,-3.98398 -2.113804,-5.81658 0.750134,0.8393 1.547238,1.6786 2.285976,2.57796 -2.498342,-3.6344 -1.74944,-7.99722 -3.97705,-11.77792 0.579348,0.5005 1.191806,1.155 1.648262,1.76946 -0.83545,-1.96504 -1.139908,-4.389 -2.264878,-6.38792 1.49072,1.25202 3.746666,2.08978 5.248628,3.34488 -1.373834,-2.9645 -5.313,-6.7991 -5.941628,-10.11626 -0.548548,-2.90136 2.18372,-5.48086 1.499806,-9.55108 1.180256,0.24024 2.361128,0.0524 3.614688,0.57442 -0.237622,-1.72172 -1.096018,-3.25864 -1.912834,-4.83098 -0.816354,-1.5708 -1.591282,-3.17856 -2.39855,-4.697 1.13883,0.1771 1.97505,1.3167 1.896818,2.67806 0.05713,-1.3706 -0.518056,-2.21914 -1.883574,-2.70886 0.247324,-1.23662 -0.297066,-2.11442 -1.133286,-2.84438 0.389158,-0.96712 -0.08778,-2.64418 -0.708708,-4.6046 2.695,0.30338 5.387074,0.52206 4.177866,-2.92138 3.299604,1.8788 5.623464,2.84438 7.180866,2.77046 2.958494,0.71764 5.150068,0.39886 7.721714,-4.50758 0.12936,4.97112 0.64064,5.35304 2.306304,0.19558 0.198506,5.5517 1.555708,5.56402 5.892968,2.94602 -1.62116,2.63648 -0.26042,2.64418 1.36859,1.53846 1.09787,1.12112 2.46339,1.13036 2.8875,-1.17964 1.43405,1.1704 2.63417,1.76022 3.85231,1.80642 1.21814,0.0462 2.45507,-0.44814 3.52707,-2.13598 0.85408,1.7402 1.54477,2.28844 1.0455,0.0216 2.14876,2.87672 3.11003,2.93832 3.9173,-0.82852 0.97328,3.90544 1.78794,3.99938 4.08162,0.73458 -1.16409,3.4111 -0.54024,3.5266 2.46153,1.42604 -0.88658,2.52868 0.24132,2.7951 2.47617,2.51482 0.004,0.87318 1.11588,1.2012 2.20774,1.58158 -0.6046,-0.14938 0.25564,0.41426 1.43282,1.11804 -0.61354,1.66936 -1.19704,3.42804 -1.67829,5.15592 0.62862,-0.0262 1.41248,-0.0447 1.31854,0.037 1.46963,3.08154 1.04859,6.76522 -0.52267,9.00746 0.75906,0.0893 0.99669,-0.33572 1.47794,-0.36806 -0.35189,4.37052 -1.62532,8.17586 -1.59113,11.25894 -0.012,-0.97482 1.95626,5.236 1.74759,4.62308 0.1925,0.56056 -1.47255,4.62154 -1.6344,5.313 0.55763,-0.38962 1.50319,-0.98406 2.07469,-1.40448 -2.24009,5.90128 -5.35212,12.2353 -5.90421,18.32446 0.96127,-0.42504 2.58658,-0.2387 3.59913,-0.5544 0.44214,3.04458 -0.89042,5.85354 -2.89242,8.08346 0.73088,-0.13706 0.94817,-0.73458 1.48471,-1.00562 0.44213,3.8808 -1.07677,7.16562 -2.26904,11.16962 3.40895,0.9779 3.98537,4.61384 3.75791,7.88018 -2.53853,2.6257 -4.35404,6.95464 -4.46846,10.59366 4.40347,0.20328 4.43843,2.80126 1.48286,5.39616 0.93309,0.0262 1.99307,0.2464 2.91938,0.22946 -0.88119,1.85416 -1.61099,4.8125 -2.90367,6.70054 0.74105,0.21406 1.38292,0 2.11873,0.22638 0.58043,4.4275 -4.17786,4.87718 -5.19873,9.01054 3.31285,0.25872 1.80473,1.01332 3.69292,2.46862 -3.51012,1.46454 -6.1292,4.3428 -5.19565,8.31446 0.72796,0.1848 1.35766,0.0108 2.08023,0.22638 -0.76584,1.16578 -0.70686,3.70678 -2.12535,5.1282 2.77739,0.10318 3.72972,1.61392 5.56741,2.75198 -5.97644,0.37884 -8.71363,7.83398 -4.34742,11.87648 -4.59475,1.45838 -8.464,6.2755 -3.07754,9.37552 -3.68768,2.99838 -1.0047,6.92076 -0.6371,10.66296 -7.34272,1.96504 -3.68152,8.21128 -3.90297,13.05304 -0.29168,6.38792 -6.11904,7.94794 -7.43235,13.12542 4.15569,-0.87472 6.33633,1.4784 4.52082,4.75398 l -0.77,0 c -2.42319,0.83776 -4.60614,3.3264 -5.98552,5.33148 0.042,-1.39062 -0.44105,-3.10618 -0.32786,-4.50142 -1.0124,1.83414 -2.84839,4.41056 -4.31323,6.01986 0.23454,-1.55694 -0.40903,-3.60206 -0.26766,-5.19134 -1.00885,0.67914 -3.31654,0.86856 -4.52082,2.11134 0.006,-1.32594 -1.080926,-3.47578 -0.870408,-5.23138 -0.88319,0.76538 -2.696848,1.28282 -3.57819,2.17294 0.142604,-1.08262 -0.410872,-2.5949 -0.27181,-3.69292 -2.75583,0.93478 -5.787012,1.78178 -8.525902,0.68838 0.55209,-0.69762 1.16809,-1.54616 1.631322,-2.19296 -1.854006,0.72996 -4.8125,0.75922 -6.733804,1.2859 -0.01571,-0.91322 -0.196196,-1.92654 -0.231616,-2.8413 -2.254714,0.49434 -4.715018,0.6776 -6.71825,2.11134 0.669438,-1.7556 2.257024,-3.97628 2.899512,-4.5045" /><path
       inkscape:connector-curvature="0"
       id="path86"
       style="fill:none;stroke:#171717;stroke-width:2.30999994;stroke-linecap:butt;stroke-linejoin:miter;stroke-miterlimit:10;stroke-dasharray:none;stroke-opacity:1"
       d="m 75.43376,447.69303 c 0.0042,0 0.0042,0 0.0091,0 1.26434,-0.55594 2.30692,-1.56772 3.265262,-2.32694 -1.68014,-0.85932 -2.111494,-2.23454 -4.668818,-2.45784 0.741818,-0.20636 1.977976,-1.34904 3.708628,-1.5246 -0.86856,-0.9548 -1.547238,-3.67906 -2.129512,-4.39362 0.922152,0.0169 1.979824,-0.21252 2.899512,-0.23254 -1.017786,-2.76122 -2.58489,-5.51628 -3.69061,-8.2313 1.442672,0.56364 2.961574,0.42966 4.482324,1.41834 -1.180872,-3.23554 -3.19011,-6.47108 -5.252324,-9.09986 0.832062,0.28028 2.916452,0.22638 3.517976,0.37576 -1.045506,-1.62932 -1.191036,-3.79764 -2.048354,-5.3592 0.94633,-0.0508 1.766842,0.26488 2.462306,0.95018 -1.13575,-2.78894 -3.304378,-6.05374 -3.912062,-9.09524 1.13883,0.67914 2.652958,1.08108 3.842762,1.9404 -1.887578,-2.44398 -3.161774,-5.13898 -3.05767,-8.12042 0.700854,0.462 2.042348,0.95018 2.809268,1.39832 0.626934,-3.29714 -0.691768,-6.7683 -1.244012,-9.84522 1.400476,0.74536 3.557092,1.27204 4.997762,2.74428 -2.294908,-3.60514 -7.221676,-10.2025 -3.634554,-13.71832 0.939554,0.76846 3.069066,1.57542 3.828902,2.35774 -1.484714,-3.38954 -3.435586,-7.315 -4.462458,-10.62292 0.72611,-0.1617 1.36675,-0.0616 2.095324,-0.20944 -0.169092,-3.08924 -1.482866,-5.8674 -1.308384,-9.0244 0.84931,0.16632 1.926232,0.18788 2.883804,0.40194 -0.98175,-2.38854 -1.512896,-4.8741 -1.581426,-7.48286 0.658042,-0.21868 1.312542,-0.45276 1.959188,-0.70224 -0.410872,-1.81258 0.607684,-4.25656 -0.231462,-6.25548 0.802956,-0.0554 1.709554,0.1386 2.335718,0.21714 -1.044274,-3.32024 -2.797718,-6.8376 -2.668512,-10.2487 0.48125,0.28798 0.597366,1.07492 1.090628,1.35058 -1.097866,-3.0954 -3.420956,-5.72726 -3.765762,-8.91352 0.667744,-0.0447 0.588434,0.7546 1.245244,0.64064 -0.586432,-1.89728 -0.809116,-4.1041 -2.03742,-5.9675 1.04489,1.08416 2.560866,2.18372 3.635786,3.49734 -1.555092,-2.98914 -3.35797,-5.8366 -2.24917,-8.90736 0.766304,0.16016 1.470238,0.4543 2.190804,0.59136 0.557634,-3.85924 -1.909908,-6.82682 -2.03742,-10.58442 0.919688,-0.0308 1.923152,-0.1848 2.844688,-0.22946 -0.602756,-1.96812 -0.550396,-3.98398 -2.113804,-5.81658 0.750134,0.8393 1.547238,1.6786 2.285976,2.57796 -2.498342,-3.6344 -1.74944,-7.99722 -3.97705,-11.77792 0.579348,0.5005 1.191806,1.155 1.648262,1.76946 -0.83545,-1.96504 -1.139908,-4.389 -2.264878,-6.38792 1.49072,1.25202 3.746666,2.08978 5.248628,3.34488 -1.373834,-2.9645 -5.313,-6.7991 -5.941628,-10.11626 -0.548548,-2.90136 2.18372,-5.48086 1.499806,-9.55108 1.180256,0.24024 2.361128,0.0524 3.614688,0.57442 -0.237622,-1.72172 -1.096018,-3.25864 -1.912834,-4.83098 -0.816354,-1.5708 -1.591282,-3.17856 -2.39855,-4.697 1.13883,0.1771 1.97505,1.3167 1.896818,2.67806 0.05713,-1.3706 -0.518056,-2.21914 -1.883574,-2.70886 0.247324,-1.23662 -0.297066,-2.11442 -1.133286,-2.84438 0.389158,-0.96712 -0.08778,-2.64418 -0.708708,-4.6046 2.695,0.30338 5.387074,0.52206 4.177866,-2.92138 3.299604,1.8788 5.623464,2.84438 7.180866,2.77046 2.958494,0.71764 5.150068,0.39886 7.721714,-4.50758 0.12936,4.97112 0.64064,5.35304 2.306304,0.19558 0.198506,5.5517 1.555708,5.56402 5.892968,2.94602 -1.62116,2.63648 -0.26042,2.64418 1.36859,1.53846 1.09787,1.12112 2.46339,1.13036 2.8875,-1.17964 1.43405,1.1704 2.63417,1.76022 3.85231,1.80642 1.21814,0.0462 2.45507,-0.44814 3.52707,-2.13598 0.85408,1.7402 1.54477,2.28844 1.0455,0.0216 2.14876,2.87672 3.11003,2.93832 3.9173,-0.82852 0.97328,3.90544 1.78794,3.99938 4.08162,0.73458 -1.16409,3.4111 -0.54024,3.5266 2.46153,1.42604 -0.88658,2.52868 0.24132,2.7951 2.47617,2.51482 0.004,0.87318 1.11588,1.2012 2.20774,1.58158 -0.6046,-0.14938 0.25564,0.41426 1.43282,1.11804 -0.61354,1.66936 -1.19704,3.42804 -1.67829,5.15592 0.62862,-0.0262 1.41248,-0.0447 1.31854,0.037 1.46963,3.08154 1.04859,6.76522 -0.52267,9.00746 0.75906,0.0893 0.99669,-0.33572 1.47794,-0.36806 -0.35189,4.37052 -1.62532,8.17586 -1.59113,11.25894 -0.012,-0.97482 1.95626,5.236 1.74759,4.62308 0.1925,0.56056 -1.47255,4.62154 -1.6344,5.313 0.55763,-0.38962 1.50319,-0.98406 2.07469,-1.40448 -2.24009,5.90128 -5.35212,12.2353 -5.90421,18.32446 0.96127,-0.42504 2.58658,-0.2387 3.59913,-0.5544 0.44214,3.04458 -0.89042,5.85354 -2.89242,8.08346 0.73088,-0.13706 0.94817,-0.73458 1.48471,-1.00562 0.44213,3.8808 -1.07677,7.16562 -2.26904,11.16962 3.40895,0.9779 3.98537,4.61384 3.75791,7.88018 -2.53853,2.6257 -4.35404,6.95464 -4.46846,10.59366 4.40347,0.20328 4.43843,2.80126 1.48286,5.39616 0.93309,0.0262 1.99307,0.2464 2.91938,0.22946 -0.88119,1.85416 -1.61099,4.8125 -2.90367,6.70054 0.74105,0.21406 1.38292,0 2.11873,0.22638 0.58043,4.4275 -4.17786,4.87718 -5.19873,9.01054 3.31285,0.25872 1.80473,1.01332 3.69292,2.46862 -3.51012,1.46454 -6.1292,4.3428 -5.19565,8.31446 0.72796,0.1848 1.35766,0.0108 2.08023,0.22638 -0.76584,1.16578 -0.70686,3.70678 -2.12535,5.1282 2.77739,0.10318 3.72972,1.61392 5.56741,2.75198 -5.97644,0.37884 -8.71363,7.83398 -4.34742,11.87648 -4.59475,1.45838 -8.464,6.2755 -3.07754,9.37552 -3.68768,2.99838 -1.0047,6.92076 -0.6371,10.66296 -7.34272,1.96504 -3.68152,8.21128 -3.90297,13.05304 -0.29168,6.38792 -6.11904,7.94794 -7.43235,13.12542 4.15569,-0.87472 6.33633,1.4784 4.52082,4.75398 l -0.77,0 c -2.42319,0.83776 -4.60614,3.3264 -5.98552,5.33148 0.042,-1.39062 -0.44105,-3.10618 -0.32786,-4.50142 -1.0124,1.83414 -2.84839,4.41056 -4.31323,6.01986 0.23454,-1.55694 -0.40903,-3.60206 -0.26766,-5.19134 -1.00885,0.67914 -3.31654,0.86856 -4.52082,2.11134 0.006,-1.32594 -1.080926,-3.47578 -0.870408,-5.23138 -0.88319,0.76538 -2.696848,1.28282 -3.57819,2.17294 0.142604,-1.08262 -0.410872,-2.5949 -0.27181,-3.69292 -2.75583,0.93478 -5.787012,1.78178 -8.525902,0.68838 0.55209,-0.69762 1.16809,-1.54616 1.631322,-2.19296 -1.854006,0.72996 -4.8125,0.75922 -6.733804,1.2859 -0.01571,-0.91322 -0.196196,-1.92654 -0.231616,-2.8413 -2.254714,0.49434 -4.715018,0.6776 -6.71825,2.11134 0.669438,-1.7556 2.257024,-3.97628 2.899512,-4.5045 z" /><path
       inkscape:connector-curvature="0"
       id="path88"
       style="fill:#d2d4d1;fill-opacity:1;fill-rule:nonzero;stroke:none"
       d="m 140.968,461.51761 c 0.45599,-3.07076 2.08439,-5.544 3.88788,-8.19896 -0.095,1.65242 0.52037,4.13644 0.54254,5.0743 0.85255,-4.68006 3.70863,-9.39554 6.19913,-12.98528 0.2467,2.08516 1.3458,3.84692 1.71263,5.86586 0.48495,-2.9722 2.21745,-5.68568 4.44136,-7.4074 -0.0751,0.74998 0.0933,1.97582 0.13845,2.7874 0.83729,-3.49272 3.51612,-6.61892 6.82882,-7.36736 -0.48233,1.16116 -0.62078,2.2022 -1.30238,3.46192 1.60499,-1.49226 3.2822,-2.94756 4.96173,-4.40594 -0.26165,0.50358 -1.01964,1.19658 -1.35952,1.6478 3.48903,0.35882 8.13428,-2.87672 11.91699,-4.05328 -1.03889,0.99484 -1.97197,2.21452 -3.19135,3.23554 3.18041,-1.49226 6.55886,-2.52868 9.96196,-3.34488 -1.51783,0.73458 -2.97297,2.2099 -4.50574,3.28328 2.70286,-0.84084 5.43697,-1.86032 8.17694,-2.71348 -0.78078,3.95626 -4.55563,7.3073 -8.90659,7.4459 2.19743,-1.05644 4.24393,-0.84546 6.59782,-0.67144 -0.92338,2.80434 -16.08268,4.83714 -6.89273,8.16354 -1.56633,-0.20174 -3.65134,0.30646 -5.26664,0.28798 1.31931,1.29514 3.04088,4.03326 4.49664,5.10048 -2.65819,1.1165 -5.47655,1.54462 -8.34664,1.82644 0.64849,0.64988 1.45945,2.29614 2.34064,2.9645 -2.30276,2.66728 -6.39639,1.4399 -9.83244,1.65858 0.41919,0.90706 0.78325,2.02972 1.19042,2.84746 -3.77176,0.30954 -7.09354,-1.5246 -10.61568,-2.73966 0.12936,0.81004 0.3097,1.61084 0.54131,2.40086 -2.46631,-0.48972 -4.38114,0.19096 -6.69531,-1.60468 0.52761,0.95634 0.8199,2.5795 1.36968,3.4804 -5.48748,0.24024 -8.72195,-5.28066 -11.17517,-9.05982 0.28875,1.463 1.18211,1.2166 2.01525,2.24994" /><path
       inkscape:connector-curvature="0"
       id="path90"
       style="fill:none;stroke:#171717;stroke-width:2.30999994;stroke-linecap:butt;stroke-linejoin:miter;stroke-miterlimit:10;stroke-dasharray:none;stroke-opacity:1"
       d="m 140.968,461.51761 c 0.45599,-3.07076 2.08439,-5.544 3.88788,-8.19896 -0.095,1.65242 0.52037,4.13644 0.54254,5.0743 0.85255,-4.68006 3.70863,-9.39554 6.19913,-12.98528 0.2467,2.08516 1.3458,3.84692 1.71263,5.86586 0.48495,-2.9722 2.21745,-5.68568 4.44136,-7.4074 -0.0751,0.74998 0.0933,1.97582 0.13845,2.7874 0.83729,-3.49272 3.51612,-6.61892 6.82882,-7.36736 -0.48233,1.16116 -0.62078,2.2022 -1.30238,3.46192 1.60499,-1.49226 3.2822,-2.94756 4.96173,-4.40594 -0.26165,0.50358 -1.01964,1.19658 -1.35952,1.6478 3.48903,0.35882 8.13428,-2.87672 11.91699,-4.05328 -1.03889,0.99484 -1.97197,2.21452 -3.19135,3.23554 3.18041,-1.49226 6.55886,-2.52868 9.96196,-3.34488 -1.51783,0.73458 -2.97297,2.2099 -4.50574,3.28328 2.70286,-0.84084 5.43697,-1.86032 8.17694,-2.71348 -0.78078,3.95626 -4.55563,7.3073 -8.90659,7.4459 2.19743,-1.05644 4.24393,-0.84546 6.59782,-0.67144 -0.92338,2.80434 -16.08268,4.83714 -6.89273,8.16354 -1.56633,-0.20174 -3.65134,0.30646 -5.26664,0.28798 1.31931,1.29514 3.04088,4.03326 4.49664,5.10048 -2.65819,1.1165 -5.47655,1.54462 -8.34664,1.82644 0.64849,0.64988 1.45945,2.29614 2.34064,2.9645 -2.30276,2.66728 -6.39639,1.4399 -9.83244,1.65858 0.41919,0.90706 0.78325,2.02972 1.19042,2.84746 -3.77176,0.30954 -7.09354,-1.5246 -10.61568,-2.73966 0.12936,0.81004 0.3097,1.61084 0.54131,2.40086 -2.46631,-0.48972 -4.38114,0.19096 -6.69531,-1.60468 0.52761,0.95634 0.8199,2.5795 1.36968,3.4804 -5.48748,0.24024 -8.72195,-5.28066 -11.17517,-9.05982 0.28875,1.463 1.18211,1.2166 2.01525,2.24994" /><path
       inkscape:connector-curvature="0"
       id="path94"
       style="fill:none;stroke:#171717;stroke-width:2.30999994;stroke-linecap:butt;stroke-linejoin:miter;stroke-miterlimit:10;stroke-dasharray:none;stroke-opacity:1"
       d="m 181.008,438.41761 c 2.80327,-0.51128 5.3358,-1.9943 7.43112,-3.88696 -0.39701,0.1001 -0.78386,0.0662 -1.1587,-0.0986 1.18272,-2.99684 3.87295,-5.05274 6.56672,-6.63894 -1.36552,0.231 -2.73889,0.4158 -4.09733,0.68684 1.88604,-2.9799 4.26688,-5.69338 7.20058,-7.67844 -0.59829,0.30646 -1.2474,0.4851 -1.8557,0.77 3.89928,-3.73296 6.90382,-8.25286 10.45198,-12.29536 -1.37368,0.89628 -2.89828,1.5092 -4.40286,2.1483 -0.95172,-5.81042 3.67598,-10.40424 5.96442,-15.27834 -0.98098,0.39578 -1.95888,0.79156 -2.93832,1.19042 3.003,-4.61538 7.15946,-8.4161 9.67582,-13.35642 -1.37522,1.57234 -3.22168,2.50404 -5.00346,3.53738 -1.1704,-6.24932 5.16208,-10.61522 6.27396,-16.36866 -0.84854,0.74844 -1.65704,1.54154 -2.41934,2.37622 -0.54208,-6.05066 6.62354,-9.04596 8.24978,-14.33894 -1.87418,1.02872 -3.92854,1.78332 -5.51782,3.26018 0.1309,-3.7345 1.83722,-7.2072 3.97936,-10.19634 -0.42966,0.22176 -0.86394,0.43582 -1.3013,0.64064 1.13344,-5.16978 4.15646,-9.84676 4.36282,-15.22752 -1.64318,0.3311 -3.3418,0.72226 -4.57534,1.92192 1.4091,-2.73042 2.3639,-5.7596 2.25456,-8.85808 -0.4389,0.0647 -0.87934,0.1309 -1.3167,0.20174 1.07338,-5.1821 4.23346,-9.64964 5.19596,-14.86254 -1.57388,1.03026 -3.22322,2.01894 -4.3813,3.53584 0.7854,-6.06144 6.0137,-11.03872 5.1359,-17.39122 -1.61392,0.69762 -3.21552,1.5015 -4.4429,2.78124 3.15546,-6.00292 6.853,-12.03818 7.5383,-18.9343 -0.924,0.3311 -1.9327,0.0354 -2.86132,0.37884 0.0108,-0.32494 0.0216,-0.65142 0.0323,-0.97636" /><path
       inkscape:connector-curvature="0"
       id="path98"
       style="fill:none;stroke:#171717;stroke-width:2.30999994;stroke-linecap:butt;stroke-linejoin:miter;stroke-miterlimit:10;stroke-dasharray:none;stroke-opacity:1"
       d="m 223.86959,285.47867 c -0.14168,-0.88858 -0.63756,-1.69246 -1.1165,-2.47786 -0.78848,-0.23716 -2.10056,-0.22946 -2.90136,-0.0246 -0.30646,1.31824 -1.05644,2.68268 -1.1396,4.02402 -0.0323,0.0816 -0.0601,-2.48248 -0.0262,-3.3957 -0.92554,-0.14014 -1.95888,-0.38346 -2.926,-0.10626 -0.29106,0.5467 -0.5852,0.88704 -0.89012,1.3475 -0.005,-1.16732 -1.07338,-2.49942 -1.25664,-3.60514 -0.59906,0.10934 -1.41526,-0.0462 -1.9866,0.0508 0.12782,-1.07954 -0.308,-2.31154 0.0246,-3.42188 -1.35828,1.33672 -2.67344,3.23554 -3.7037,4.6123 -0.001,-0.4774 -0.63756,-2.14368 -0.58366,-3.12466 -1.04412,0.63294 -2.37006,0.7007 -3.41264,1.85878 0.005,-1.0241 -0.89012,-2.7258 -0.79464,-3.8962 -2.53792,0.34342 -4.14876,2.76276 -5.86124,4.54762 -0.58474,-1.6016 -0.83437,-3.3495 -0.73704,-5.07738 -0.59845,1.01794 -1.05382,1.12728 -1.43467,2.387 0.047,-0.75306 -0.1774,-1.66628 -0.0812,-2.37006 -2.3522,0.2002 -3.44514,2.6103 -4.02449,4.92184 -0.97759,-1.9481 -1.05875,-4.389 -1.51782,-6.48802 -0.79649,0.80234 -2.15769,2.15292 -2.5909,3.05074" /><path
       inkscape:connector-curvature="0"
       id="path100"
       style="fill:none;stroke:#171717;stroke-width:2.30999994;stroke-linecap:butt;stroke-linejoin:miter;stroke-miterlimit:10;stroke-dasharray:none;stroke-opacity:1"
       d="m 186.90928,278.80431 c -1.48286,-1.1704 -2.34003,-2.24378 -3.49087,-3.55124 -0.15461,1.97736 -0.0584,4.05482 -0.17864,6.03834 -0.25749,-0.0339 -1.12374,-0.0277 -1.38846,-10e-4 -0.0553,-2.6873 0.44213,-8.5701 -3.56726,-5.621 0.25934,-1.14422 -0.35605,-2.79202 -0.18156,-3.97012 -1.91777,-0.3542 -2.43936,0.54516 -3.00069,1.97274" /></g></svg>