<?xml version="1.0" encoding="UTF-8" standalone="no"?>
<!-- Created with Inkscape (http://www.inkscape.org/) -->

<svg
   xmlns:dc="http://purl.org/dc/elements/1.1/"
   xmlns:cc="http://creativecommons.org/ns#"
   xmlns:rdf="http://www.w3.org/1999/02/22-rdf-syntax-ns#"
   xmlns:svg="http://www.w3.org/2000/svg"
   xmlns="http://www.w3.org/2000/svg"
   xmlns:sodipodi="http://sodipodi.sourceforge.net/DTD/sodipodi-0.dtd"
   xmlns:inkscape="http://www.inkscape.org/namespaces/inkscape"
   id="svg2"
   version="1.1"
   inkscape:version="0.91 r13725"
   width="308"
   height="672"
   xml:space="preserve"
   sodipodi:docname="sc-m-3-2-border.svg"><metadata
     id="metadata8"><rdf:RDF><cc:Work
         rdf:about=""><dc:format>image/svg+xml</dc:format><dc:type
           rdf:resource="http://purl.org/dc/dcmitype/StillImage" /><dc:title /></cc:Work></rdf:RDF></metadata><defs
     id="defs6" /><sodipodi:namedview
     pagecolor="#ffffff"
     bordercolor="#666666"
     borderopacity="1"
     objecttolerance="10"
     gridtolerance="10"
     guidetolerance="10"
     inkscape:pageopacity="0"
     inkscape:pageshadow="2"
     inkscape:window-width="1920"
     inkscape:window-height="1015"
     id="namedview4"
     showgrid="false"
     inkscape:zoom="2.9580781"
     inkscape:cx="103.8687"
     inkscape:cy="585.94443"
     inkscape:window-x="0"
     inkscape:window-y="0"
     inkscape:window-maximized="1"
     inkscape:current-layer="g10" /><g
     id="g10"
     inkscape:groupmode="layer"
     inkscape:label="ink_ext_XXXXXX"
     transform="matrix(1.25,0,0,-1.25,0,672)"><path
       inkscape:connector-curvature="0"
       id="path88"
       style="fill:none;stroke:#171717;stroke-width:2.30999994;stroke-linecap:butt;stroke-linejoin:miter;stroke-miterlimit:10;stroke-dasharray:none;stroke-opacity:1"
       d="m 124.85525,534.2068 c -0.61893,0.97174 -1.36675,1.96966 -2.34727,2.63956 1.24525,-5.76576 -2.99884,-10.47354 -6.96911,-4.4891 0.93662,-1.13036 1.00161,-2.38084 1.51782,-3.40648 -1.78255,0.27412 -3.93301,-0.49896 -5.79194,-0.0785 1.01856,-1.09494 1.34457,-2.95988 1.94194,-3.77146 -1.82459,0.2618 -4.16354,-0.53746 -5.99938,-0.2464 0.74582,-0.67298 1.7114,-3.13236 2.14753,-3.6036 -2.03927,0.0231 -3.76391,-0.93478 -5.78701,-0.86394 1.64826,-0.79926 2.98976,-2.86286 4.26811,-3.71756 -3.35674,-0.0508 -5.9213,-1.26896 -4.82759,-4.6585 -2.18665,-0.6468 -3.69847,-2.30076 -5.6806,-3.10002 1.34519,0.0708 3.0067,-0.35574 4.34819,-0.26642 -1.65319,-1.10418 -3.36151,-3.36644 -5.19642,-4.66004 -0.12751,-2.1637 -0.26396,-3.69292 -2.34419,-5.81042 1.56218,0.24024 3.12389,-0.10934 4.65003,0.32494 -1.83768,-1.90806 -3.58943,-4.22268 -4.67113,-6.52498 1.12189,0.1001 2.55363,-0.3388 3.67259,-0.23254 -0.72487,-1.40756 -0.58473,-3.77146 -1.90405,-5.33148 0.5373,-0.1463 1.32163,0.0554 1.92993,-0.0585 -0.92339,-1.40602 -1.31932,-3.7499 -2.91045,-5.1205 0.5775,-0.36036 1.46793,-0.14014 2.12243,-0.26488 0.58766,-0.43582 -0.34773,-1.62316 0.22484,-2.08516 0.90721,-0.009 1.96596,-0.0508 2.86717,-0.22946 -1.32348,-3.36028 0.22253,-5.30222 3.87818,-5.42388 0.005,-0.4081 -0.87041,-0.9163 -0.58766,-1.19966 2.74012,-2.6642 5.17163,-5.01116 9.03672,-4.9819 0.0439,-0.32032 -0.0813,-0.5313 -0.37607,-0.63602 1.23739,0.9163 2.24501,0.49588 3.54739,2.07746 1.56772,-2.8721 4.45168,-2.22222 6.79648,-0.59906 -0.4198,-1.16732 -0.11242,-3.21244 -0.53653,-4.38746 1.31854,0.13398 3.14314,-0.50512 4.44074,-0.28644 -0.63171,-0.65142 -1.4938,-2.156 -2.15061,-2.77354 1.11173,-0.0246 2.46338,-0.3311 3.53723,-0.32494 -0.93432,-0.38346 -1.69231,-0.6545 -2.78833,-0.77 0.004,-0.005 1.04489,-1.25818 1.41064,-0.74998 -2.08731,-2.91214 -6.28936,-3.63902 -9.88356,-4.6585 0.2658,-0.82236 0.89443,-0.19712 1.19889,-0.56056 -0.77,-0.92246 -2.10549,-1.34288 -2.81589,-2.3331 -0.29491,0.90706 -2.02849,2.53792 -2.36236,3.78686 -1.08586,-1.11496 -4.19589,-1.83876 -5.34796,-3.12004 -0.30076,1.12882 -1.54893,2.13598 -1.62239,3.89466 -2.01217,-1.26896 -4.2139,-3.1647 -5.93023,-5.09432 0.2966,1.46146 -0.42705,3.5343 -0.23162,5.03734 -1.17487,-0.58982 -3.00777,-0.30954 -4.34742,-1.34134 0.3291,2.04512 -0.47109,4.64772 -0.27258,6.73442 -1.32948,-0.4774 -3.810884,0.0554 -5.158384,-0.55594 0.374836,2.40086 -0.196658,4.34896 1.155,6.75136 -1.84492,-0.7392 -5.009157,-1.1781 -6.698383,-2.12828 -1.005774,2.89058 -0.204512,5.90744 -2.141524,7.72772 -0.245476,2.70116 0.04805,5.45314 0.67375,8.08962 -0.29183,-0.0862 -1.144836,-1.0318 -1.439592,-1.2089 0.487256,0.82236 0.803726,3.26634 1.36136,4.40902 -3.081848,0.0246 -5.438048,1.65704 -6.036646,4.61692 3.353658,1.11958 5.826128,8.52544 6.749512,12.3354 -1.567104,-0.17402 -3.655652,0.52976 -5.188414,0.25256 0.906444,2.0251 3.452834,4.03326 5.19134,5.85508 -1.045506,0.31724 -1.796872,0.7777 -2.845304,1.07492 0.28875,2.6334 2.479554,4.72626 4.42442,6.64664 -3.028872,0.98714 -4.236078,3.71756 -3.677366,6.96696 0.2695,0.385 1.64241,0.0909 2.099482,0.22638 -0.345884,0.87626 -0.410256,2.65804 -0.572572,3.62054 1.986908,-0.33418 4.591664,0.58828 6.557011,0.23254 -1.093708,0.99792 -1.776543,3.49118 -2.731189,4.4814 1.949177,0.8162 2.084389,2.17756 4.428731,2.44552 -0.264726,1.25972 0.480018,3.12774 0.230384,4.39054 3.431894,-0.2926 4.487714,0.53438 4.620004,3.85 3.69476,-0.67298 5.59158,1.7248 5.3689,5.46546 0.85424,-0.56056 2.80033,-0.81312 3.65642,-1.44144 -0.24132,1.32902 0.44213,3.15546 0.23269,4.46292 2.80819,-1.30592 4.48464,-0.40502 4.61708,3.07692 3.43789,-2.94602 9.30499,2.41472 12.95879,4.06714 2.20359,-2.3947 4.95264,-2.32078 6.95295,0.36652 1.56818,-1.9635 3.87402,-0.75152 6.06375,1.59852 0.20143,-0.68376 -0.023,-1.2705 0.18757,-1.96812 2.28597,0.52514 3.81104,-0.231 5.89004,1.3475 0.25795,-0.79464 0.32109,-2.06976 0.27181,-2.88288 1.19119,-0.38808 2.41949,0.14322 3.61669,-0.22484 0.0197,-0.5236 0.0427,-1.04566 0.0679,-1.56926 1.78778,0.68838 4.29522,0.21252 6.16,1.62162 -0.33572,-0.79464 -0.32971,-2.1945 -0.62077,-2.92908 2.72195,1.3244 5.0723,0.69454 6.80788,-1.76792 2.1175,1.73558 4.16878,1.83722 6.83067,1.55694 0.60876,-2.78124 -0.27181,-5.38692 -2.10842,-7.4305 2.35205,0.13706 5.02117,-0.3927 7.36906,-0.26642 -0.70563,-0.8085 -1.32825,-2.08978 -1.93994,-2.77046 1.41064,-0.0939 3.22014,-1.3167 5.1553,-1.08262 -0.42288,-1.232 0.0861,-2.95526 -0.53838,-4.34742 2.45137,-0.3542 5.32994,-1.34134 6.92707,-3.27712 -0.60275,-0.5621 -1.17194,-0.88858 -1.76561,-1.48148 2.29491,-2.05282 2.71903,-3.31716 1.93994,-6.23238 3.60345,0.1617 6.55116,-2.21914 8.89119,-4.4121 -1.8306,0.18942 -3.76884,-0.7623 -5.28774,-0.87164 0.61661,-0.97636 1.58096,-3.1262 2.43212,-4.004 -0.29352,-0.45892 -0.70871,-0.72534 -1.24894,-0.79772 1.88003,-2.32694 2.99345,-5.2437 2.55255,-8.21898 -0.75799,0.18634 -2.10133,-0.006 -2.98976,0.14322 0.55333,-0.6391 1.36737,-3.43574 2.21976,-4.78324 -0.56133,0.0878 -1.39385,0.30646 -1.9672,0.38346 2.18064,-2.32694 1.43359,-3.89774 1.92685,-6.53114 -0.73273,-0.16632 -1.36921,-0.0493 -2.1001,-0.22638 0.82714,-1.73558 1.30839,-4.99422 2.09825,-6.71902 -0.62862,0.15246 -1.39554,0.47124 -2.03742,0.59444 0.0584,-2.37314 -0.30261,-4.48448 0.48249,-6.78832 -0.24363,0.45584 -0.57874,1.08262 -0.80789,2.01586 0.23932,-6.43566 -5.08154,-7.28574 -4.56533,-14.28196 -0.93308,0.49896 -1.8577,0.34034 -3.00361,1.15192 0.30076,-2.14522 -0.8681,-3.7114 -0.84331,-5.77192 -0.95233,0.3696 -2.83529,0.11396 -3.77854,0.55594 -0.49557,-1.2243 -1.38169,-2.27458 -1.6344,-3.66212 -0.82529,-0.20636 -1.31747,0.67452 -2.21791,0.60368 -0.65758,-1.19658 -1.57065,-2.38546 -2.32802,-3.542 -0.023,0.93786 -0.38084,1.84338 -0.44891,2.62878 -2.08254,-2.65342 -3.04504,-2.93062 -5.68583,-2.92908 -0.84531,-1.53692 -1.76685,-2.05128 -2.93155,-2.95218 0.0488,0.91168 -0.1985,2.00354 -0.22977,2.91984 -2.43813,-0.52668 -5.06999,-0.99484 -7.45329,-1.32286 -0.35913,0.616 -0.93247,2.22684 -1.11111,2.90598 -0.53716,-0.0262 -0.88427,-0.79464 -0.53716,-1.2397 -0.77723,0.88858 -1.71263,3.2032 -2.23484,4.2042 1.30838,0.7546 2.77508,2.01894 4.28012,2.50096 -0.47339,-0.3311 -1.21937,0.0108 -1.24217,0.56056 1.04551,0.4004 1.95689,0.6776 2.96559,1.17348 -1.02256,0.89012 -1.13806,0.5852 -1.53877,2.09902 4.29213,0.31262 7.76314,2.32078 4.73611,5.21444 0.85008,0.15246 2.05252,0.38346 2.9026,0.28644 0.0162,0.84084 -0.65158,2.28228 -0.57458,2.77046 0.89752,0.39732 2.11335,0.66066 2.94171,1.11496 -0.75506,0.3157 -1.4034,1.25356 -2.95664,1.54154 1.09293,0.49588 3.36274,2.30538 4.5045,2.7566 -0.65943,0.097 -1.34935,0.0231 -1.98707,0.11242 1.26635,1.29206 2.35513,3.33102 3.52214,4.4506 -1.15608,-0.95326 -2.63895,-1.91114 -3.69046,-2.77046 1.37322,1.31054 2.98668,3.84692 4.61384,5.29144 -1.26434,2.7027 -2.316,3.07538 -0.38192,6.06298 -0.87826,0.21714 -1.13513,-0.25872 -1.9039,-0.5775 0.76507,1.13806 1.08093,3.15546 1.92377,4.43058 -0.49511,0.11242 -1.61515,-0.18172 -1.98691,0.18942 1.39971,1.96504 1.61207,4.6123 2.15954,6.76214 -0.65989,-0.0262 -1.29637,-0.16478 -1.90991,-0.4158 0.32895,1.32286 -0.23762,4.2812 0.36575,5.83506 -0.88611,-0.65604 -1.94194,-0.85624 -3.0338,-2.03588 0.72488,1.98352 0.74783,4.35358 1.56418,6.22468 -0.85901,0.0539 -2.11026,0.33418 -2.66189,0.32802 0.48834,1.232 0.75306,2.8875 1.07554,3.95164 -1.18272,-0.5929 -2.37314,-0.49434 -3.62208,-1.39678 0.39701,1.20274 -0.0313,2.99222 0.50111,4.38438 -1.45992,0.39732 -2.53853,1.29822 -4.39023,1.0395 -0.14137,0.49434 0.16724,1.7556 -0.22792,2.08054 -1.66027,-1.01794 -2.98252,-0.35574 -4.54362,-2.69192 0.41811,1.5785 -0.27366,3.465 -0.0782,5.00192 -1.26326,0.36036 -1.9923,-0.0293 -3.00362,-0.3696 -0.30676,0.64064 0.3887,1.50612 -0.693,1.96966 -0.52144,-0.79002 -3.34765,-2.772 -3.90528,-3.73296 -0.56842,4.2658 -3.42774,7.10556 -6.71641,3.07692 -0.51312,1.25818 -1.90451,2.12366 -2.35512,2.94448 -0.27073,-0.67606 0.14969,-1.52922 -0.26472,-2.11904 -1.40048,-0.44814 -2.99577,0.0878 -4.39024,0.003 -0.18172,0.70224 0.10226,1.54924 -0.11611,2.19296" /></g></svg>