<?xml version="1.0" encoding="UTF-8" standalone="no"?>
<!-- Created with Inkscape (http://www.inkscape.org/) -->

<svg
   xmlns:dc="http://purl.org/dc/elements/1.1/"
   xmlns:cc="http://creativecommons.org/ns#"
   xmlns:rdf="http://www.w3.org/1999/02/22-rdf-syntax-ns#"
   xmlns:svg="http://www.w3.org/2000/svg"
   xmlns="http://www.w3.org/2000/svg"
   xmlns:sodipodi="http://sodipodi.sourceforge.net/DTD/sodipodi-0.dtd"
   xmlns:inkscape="http://www.inkscape.org/namespaces/inkscape"
   id="svg2"
   version="1.1"
   inkscape:version="0.91 r13725"
   width="308"
   height="672"
   xml:space="preserve"
   sodipodi:docname="sc-m-1-1-border.svg"><metadata
     id="metadata8"><rdf:RDF><cc:Work
         rdf:about=""><dc:format>image/svg+xml</dc:format><dc:type
           rdf:resource="http://purl.org/dc/dcmitype/StillImage" /><dc:title /></cc:Work></rdf:RDF></metadata><defs
     id="defs6" /><sodipodi:namedview
     pagecolor="#ffffff"
     bordercolor="#666666"
     borderopacity="1"
     objecttolerance="10"
     gridtolerance="10"
     guidetolerance="10"
     inkscape:pageopacity="0"
     inkscape:pageshadow="2"
     inkscape:window-width="1920"
     inkscape:window-height="1015"
     id="namedview4"
     showgrid="false"
     inkscape:zoom="8.3667088"
     inkscape:cx="171.19196"
     inkscape:cy="542.58831"
     inkscape:window-x="0"
     inkscape:window-y="0"
     inkscape:window-maximized="1"
     inkscape:current-layer="g10" /><g
     id="g10"
     inkscape:groupmode="layer"
     inkscape:label="ink_ext_XXXXXX"
     transform="matrix(1.25,0,0,-1.25,0,672)"><path
       inkscape:connector-curvature="0"
       id="path86"
       style="fill:none;stroke:#171717;stroke-width:2.30999994;stroke-linecap:butt;stroke-linejoin:miter;stroke-miterlimit:10;stroke-dasharray:none;stroke-opacity:1"
       d="m 114.02338,456.6791 c -2.42319,0.83776 -4.60615,3.3264 -5.98552,5.33148 0.042,-1.39062 -0.44106,-3.10618 -0.32787,-4.50142 -1.0124,1.83414 -2.84838,4.41056 -4.31323,6.01986 0.23454,-1.55694 -0.40903,-3.60206 -0.26765,-5.19134 -1.00886,0.67914 -3.316548,0.86856 -4.520828,2.11134 0.0062,-1.32594 -1.080926,-3.47578 -0.870408,-5.23138 -0.88319,0.76538 -2.696848,1.28282 -3.57819,2.17294 0.142604,-1.08262 -0.410872,-2.5949 -0.27181,-3.69292 -2.75583,0.93478 -5.787012,1.78178 -8.525902,0.68838 0.55209,-0.69762 1.16809,-1.54616 1.631322,-2.19296 -1.854006,0.72996 -4.8125,0.75922 -6.733804,1.2859 -0.01571,-0.91322 -0.196196,-1.92654 -0.231616,-2.8413 -2.254714,0.49434 -4.715018,0.6776 -6.71825,2.11134 0.688688,-1.80796 2.361128,-4.12258 2.962652,-4.56148 -0.603372,0.0339 -0.620774,0.0524 -0.05405,0.057 1.26434,-0.55594 2.30692,-1.56772 3.265262,-2.32694 -1.68014,-0.85932 -2.111494,-2.23454 -4.668818,-2.45784 0.741818,-0.20636 1.977976,-1.34904 3.708628,-1.5246 -0.86856,-0.9548 -1.547238,-3.67906 -2.129512,-4.39362 0.922152,0.0169 1.979824,-0.21252 2.899512,-0.23254 -1.017786,-2.76122 -2.58489,-5.51628 -3.69061,-8.2313 1.442672,0.56364 2.961574,0.42966 4.482324,1.41834 -1.180872,-3.23554 -3.19011,-6.47108 -5.252324,-9.09986 0.832062,0.28028 2.916452,0.22638 3.517976,0.37576 -1.045506,-1.62932 -1.191036,-3.79764 -2.048354,-5.3592 0.94633,-0.0508 1.766842,0.26488 2.462306,0.95018 -1.13575,-2.78894 -3.304378,-6.05374 -3.912062,-9.09524 1.13883,0.67914 2.652958,1.08108 3.842762,1.9404 -1.887578,-2.44398 -3.161774,-5.13898 -3.05767,-8.12042 0.700854,0.462 2.042348,0.95018 2.809268,1.39832 0.626934,-3.29714 -0.691768,-6.7683 -1.244012,-9.84522 1.400476,0.74536 3.557092,1.27204 4.997762,2.74428 -2.294908,-3.60514 -7.221676,-10.2025 -3.634554,-13.71832 0.939554,0.76846 3.069066,1.57542 3.828902,2.35774 -1.484714,-3.38954 -3.435586,-7.315 -4.462458,-10.62292 0.72611,-0.1617 1.36675,-0.0616 2.095324,-0.20944 -0.169092,-3.08924 -1.482866,-5.8674 -1.308384,-9.0244 0.84931,0.16632 1.926232,0.18788 2.883804,0.40194 -0.98175,-2.38854 -1.512896,-4.8741 -1.581426,-7.48286 0.658042,-0.21868 1.312542,-0.45276 1.959188,-0.70224 -0.410872,-1.81258 0.607684,-4.25656 -0.231462,-6.25548 0.802956,-0.0554 1.709554,0.1386 2.335718,0.21714 -1.044274,-3.32024 -2.797718,-6.8376 -2.668512,-10.2487 0.48125,0.28798 0.597366,1.07492 1.090628,1.35058 -1.097866,-3.0954 -3.420956,-5.72726 -3.765762,-8.91352 0.667744,-0.0447 0.588434,0.7546 1.245244,0.64064 -0.586432,-1.89728 -0.809116,-4.1041 -2.03742,-5.9675 1.04489,1.08416 2.560866,2.18372 3.635786,3.49734 -1.555092,-2.98914 -3.35797,-5.8366 -2.24917,-8.90736 0.766304,0.16016 1.470238,0.4543 2.190804,0.59136 0.557634,-3.85924 -1.909908,-6.82682 -2.03742,-10.58442 0.919688,-0.0308 1.923152,-0.1848 2.844688,-0.22946 -0.602756,-1.96812 -0.550396,-3.98398 -2.113804,-5.81658 0.750134,0.8393 1.547238,1.6786 2.285976,2.57796 -2.498342,-3.6344 -1.74944,-7.99722 -3.97705,-11.77792 0.579348,0.5005 1.191806,1.155 1.648262,1.76946 -0.83545,-1.96504 -1.139908,-4.389 -2.264878,-6.38792 1.49072,1.25202 3.746666,2.08978 5.248628,3.34488 -1.373834,-2.9645 -5.313,-6.7991 -5.941628,-10.11626 -0.548548,-2.90136 2.18372,-5.48086 1.499806,-9.55108 1.180256,0.24024 2.361128,0.0524 3.614688,0.57442 -0.475244,-3.44344 -3.433122,-6.14768 -3.574494,-9.8714 0.40194,0.52052 1.23816,1.66012 1.846922,2.35774 -1.258488,-1.41372 -2.302762,-3.39416 -3.432044,-4.92646 0.453068,-3.5805 -7.887572,-18.19664 0.578732,-17.62838 -0.987756,-1.92346 -1.97736,-4.18572 -3.67367,-5.77808 0.389158,0.46816 1.040732,1.2012 1.538152,1.771 -1.854006,-3.12312 -3.680908,-6.38022 -5.368286,-9.46946 0.856548,0.99946 1.791944,1.83568 2.65111,2.73196 -1.96119,-3.65596 -5.77808,-7.19334 -5.687836,-11.39446 0.59983,0.34496 1.272348,0.73766 2.03511,0.91938 0.28875,0.27258 0.280896,0.28644 -0.02587,0.04 -1.882958,-2.12366 -3.44883,-4.55224 -4.405324,-7.0763 0.940324,0.41426 1.99122,0.80234 2.847306,1.34134 -0.05837,-3.44344 -2.869482,-5.60868 -3.61361,-9.06136 0.78925,0.3773 2.068682,0.6006 3.055976,1.16886 -0.500038,-2.926 -1.62008,-5.49164 -2.228842,-8.10656 0.46739,-0.005 0.897512,0.12166 1.291598,0.37576 -0.955262,-2.91522 -3.233384,-6.44336 -0.77,-8.28212 -0.724878,-4.1503 -3.257562,-7.92176 -4.41133,-12.14598 0.702702,0.77616 1.986908,1.69554 2.829134,2.7874 0.144452,-3.53584 -2.164316,-6.40178 -2.827286,-9.71432 0.691768,0.55902 1.526756,1.3167 2.266726,2.03588 -0.09024,-6.63432 -5.477288,-12.97912 -6.113754,-19.6889 1.690396,0.61138 2.582534,0.003 4.421448,1.19042 -0.76692,-3.234 -2.461536,-6.1292 -2.096402,-9.6481 4.236848,-1.69092 1.18503,-10.29644 1.54,-14.70546 0.754908,0.34958 1.351658,0.8547 2.13367,1.31208 -0.927542,-2.58104 -2.247938,-5.12511 -3.151456,-7.80793 0.310926,0.40978 0.608762,1.01794 1.021944,1.4539 -0.950488,-4.90319 -2.079555,-9.19055 -1.54231,-14.14798 0.903518,0.0139 1.94117,-0.19558 2.848384,-0.23223 0.40117,-3.62869 -0.627396,-7.24584 -1.289134,-10.60198 0.40117,0.69009 1.004542,1.77162 1.422652,2.78463 0.03002,-7.66439 -1.74036,-14.170894 -3.135292,-21.863196 0.479402,1.473919 1.112188,2.808792 1.615152,4.133362 -0.317702,-5.326862 -3.728494,-7.969502 -0.693616,-12.71763 3.168396,0.1155 4.629086,2.83822 5.912214,5.849059 -0.311696,-1.727711 0.395164,-4.079291 0.249634,-5.867092 1.624238,1.14422 3.537072,2.217292 4.3505,4.436601 0.02818,-1.17194 0.224378,-2.470021 0.267652,-3.648568 2.380994,1.045491 3.107104,1.006991 3.928232,4.440128 1.127896,-2.867649 4.423188,-5.270188 7.376292,-6.000009 0.12936,1.31208 0.939092,2.50558 1.093708,3.67136 1.50689,-2.174619 3.89697,-3.886652 6.603982,-3.637619 0.289828,1.041348 0.757988,1.766827 1.033956,2.8105 3.114958,-0.647893 4.363282,-4.22114 8.224062,-3.597301 -0.01386,1.444381 0.813276,3.939628 0.717024,5.04042 0.359132,-3.164839 1.710322,-6.241759 4.036492,-8.346631 0.22977,0.786771 1.90883,3.14314 2.08147,3.89928 0.46431,-1.44914 2.01524,-2.829149 2.50126,-3.89928 0.58474,1.215199 2.01941,1.9635 2.48079,3.89928 1.93471,-1.780548 3.78394,-4.559801 6.04758,-6.20928 0.91615,2.129512 2.15354,3.859071 1.46177,6.768131 0.56426,-0.814491 1.34442,-1.764979 1.78964,-2.536211 0.14322,0.924 1.0569,3.025931 1.15808,3.51736 0.43905,-2.98914 1.15192,-2.622789 2.53853,-4.493581 0.12936,1.698173 1.91484,4.060533 2.23177,5.418813 0.68284,-1.171801 2.2829,-2.20528 2.95064,-3.714033 0.20344,1.305304 0.86025,2.138613 1.09186,3.386152 0.65866,-1.547839 2.45322,-3.044411 2.77739,-3.589432 -0.11057,1.516453 0.79587,3.905301 0.86209,4.870712 0.51729,-0.71456 1.00578,-1.44606 1.46485,-2.199259 0.379,4.541768 2.15046,8.297351 1.617,13.25971 0.44029,-0.74122 1.07908,-1.57559 1.42389,-2.05436 0.78016,3.42048 -0.0331,7.15621 -1.86972,10.019074 1.06661,-0.603374 1.54786,-0.534214 2.63664,-1.341484 0.55948,4.017694 -0.9836,7.946544 -0.44214,11.995064 0.31586,0.0236 0.52945,-0.10765 0.63772,-0.39393 0.27781,2.60106 -0.15647,5.20041 -1.2742,7.4767 0.32063,-0.26351 0.68345,-0.45108 1.08647,-0.56241 0.20159,4.33849 -0.79895,9.31098 -2.08809,13.4967 0.75984,-0.13722 1.40833,-0.40485 2.14045,-0.62093 -0.67806,3.45144 -1.98706,7.15976 -2.86532,10.68636 0.49819,-0.44814 0.9012,-1.07492 1.45761,-1.77254 1.38245,3.33872 -1.37153,7.23954 -1.44191,10.97404 0.46447,-0.37114 1.49134,-1.12882 2.05667,-1.4553 -1.06106,4.44444 -1.67952,9.24616 -3.04088,13.54738 0.12212,-0.30954 0.35559,-0.44506 0.69962,-0.40964 -0.27674,3.26634 -1.58389,6.59736 -3.01794,9.69584 0.89875,-1.11034 2.14153,-1.86648 3.01194,-2.75968 0.34896,5.23292 -2.7161,11.80718 -4.34927,16.62738 0.56549,-1.36598 1.58327,-2.72118 2.23361,-4.19342 0.40425,5.23908 -2.69084,9.53876 -4.34926,14.24192 0.5065,-1.92962 1.93932,-3.93316 2.7683,-5.70724 2.10364,5.10972 -0.94926,10.01462 -0.76399,15.25216 -0.0154,0.57596 -0.03,0.55286 -0.042,-0.0708 -0.0679,-0.59444 0.14429,-0.84546 0.63771,-0.75306 0.48726,4.47986 -0.28582,10.26872 -2.06529,14.28042 0.88611,-1.30438 2.25471,-2.0097 3.17809,-3.49734 3.35859,2.45014 2.62278,8.13428 0.5005,11.50842 0.1925,0.14938 1.35228,0.72072 1.50689,0.8855 0.36283,3.80688 -0.0253,7.72002 -0.52267,11.36058 0.71102,-0.34034 1.33364,-0.81004 2.07961,-1.23816 0.33264,4.68776 -2.15538,10.47662 -4.25794,14.51296 0.6816,-0.0878 1.33425,-0.3542 1.96596,-0.61138 -1.53214,3.41726 -5.2186,6.84068 -5.17532,11.14652 1.43358,-0.29568 2.85932,0.15862 4.40224,-0.34804 -1.37938,3.2417 -2.81111,7.43358 -3.57927,11.02948 0.065,-0.68838 -0.0493,-1.98506 -0.0571,-2.74582 0.0108,0.001 2.21683,-0.13398 2.06453,0 1.46962,3.08154 1.04858,6.76522 -0.52268,9.00746 0.75907,0.0893 0.99669,-0.33572 1.47794,-0.36806 -0.35189,4.37052 -1.62532,8.17586 -1.59113,11.25894 -0.0123,-0.97482 1.95626,5.236 1.74759,4.62308 0.1925,0.56056 -1.47254,4.62154 -1.6344,5.313 0.55764,-0.38962 1.5032,-0.98406 2.07469,-1.40448 -2.24008,5.90128 -5.35212,12.2353 -5.90421,18.32446 0.96127,-0.42504 2.58659,-0.2387 3.59914,-0.5544 0.44213,3.04458 -0.89043,5.85354 -2.89243,8.08346 0.73088,-0.13706 0.94818,-0.73458 1.48471,-1.00562 0.44214,3.8808 -1.07676,7.16562 -2.26903,11.16962 3.89019,1.11496 4.09178,5.69338 3.61961,9.23076 0.29769,-1.09648 0.37176,-0.91938 0.84516,-2.05128 -2.9086,2.50096 -5.05013,7.32116 -5.17533,11.29436 4.40348,0.20328 4.43844,2.80126 1.48287,5.39616 0.93308,0.0262 1.99307,0.2464 2.91938,0.22946 -0.88119,1.85416 -1.611,4.8125 -2.90368,6.70054 0.74105,0.21406 1.38293,0 2.11874,0.22638 0.58042,4.4275 -4.17787,4.87718 -5.19874,9.01054 3.31285,0.25872 1.80473,1.01332 3.69293,2.46862 -3.51013,1.46454 -6.12921,4.3428 -5.19566,8.31446 0.72796,0.1848 1.35767,0.0108 2.08023,0.22638 -0.76584,1.16578 -0.70686,3.70678 -2.12535,5.1282 2.77739,0.10318 3.72973,1.61392 5.56741,2.75198 -5.97643,0.37884 -8.71363,7.83398 -4.34742,11.87648 -4.59475,1.45838 -8.464,6.2755 -3.07754,9.37552 -3.68768,2.99838 -1.00469,6.92076 -0.6371,10.66296 -7.34272,1.96504 -3.68152,8.21128 -3.90297,13.05304 -0.29168,6.38792 -6.11904,7.94794 -7.43235,13.12542 4.15569,-0.87472 6.33633,1.4784 4.52082,4.75398" /><path
       inkscape:connector-curvature="0"
       id="path90"
       style="fill:none;stroke:#171717;stroke-width:2.30999994;stroke-linecap:butt;stroke-linejoin:miter;stroke-miterlimit:10;stroke-dasharray:none;stroke-opacity:1"
       d="m 141.74338,462.0691 c 0.45599,-3.07076 2.08439,-5.544 3.88788,-8.19896 -0.095,1.65242 0.52037,4.13644 0.54255,5.0743 0.85254,-4.68006 3.70862,-9.39554 6.19911,-12.98528 0.24671,2.08516 1.34581,3.84692 1.71264,5.86586 0.48494,-2.9722 2.21744,-5.68568 4.44136,-7.4074 -0.0752,0.74998 0.0933,1.97582 0.13844,2.7874 0.8373,-3.49272 3.51613,-6.61892 6.82883,-7.36736 -0.48233,1.16116 -0.62078,2.2022 -1.30238,3.46192 1.60499,-1.49226 3.2822,-2.94756 4.96172,-4.40594 -0.26164,0.50358 -1.01963,1.19658 -1.35951,1.6478 3.48903,0.35882 8.13428,-2.87672 11.91698,-4.05328 -1.03888,0.99484 -1.97197,2.21452 -3.19134,3.23554 3.1804,-1.49226 6.55885,-2.52868 9.96194,-3.34488 -1.51782,0.73458 -2.97296,2.2099 -4.50573,3.28328 2.70287,-0.84084 5.43698,-1.86032 8.17695,-2.71348 -0.78078,3.95626 -4.55563,7.3073 -8.9066,7.4459 2.19744,-1.05644 4.24393,-0.84546 6.59783,-0.67144 -0.92338,2.80434 -16.08268,4.83714 -6.89273,8.16354 -1.56635,-0.20174 -3.65134,0.30646 -5.26665,0.28798 1.31932,1.29514 3.04089,4.03326 4.49665,5.10048 -2.65819,1.1165 -5.47655,1.54462 -8.34665,1.82644 0.6485,0.64988 1.45946,2.29614 2.34065,2.9645 -2.30276,2.66728 -6.39639,1.4399 -9.83244,1.65858 0.41919,0.90706 0.78325,2.02972 1.19042,2.84746 -3.77177,0.30954 -7.09355,-1.5246 -10.61568,-2.73966 0.12936,0.81004 0.30969,1.61084 0.54131,2.40086 -2.46631,-0.48972 -4.38115,0.19096 -6.69531,-1.60468 0.52761,0.95634 0.8199,2.5795 1.36968,3.4804 -5.48748,0.24024 -8.72194,-5.28066 -11.17516,-9.05982 0.28875,1.463 1.1821,1.2166 2.01524,2.24994" /><path
       inkscape:connector-curvature="0"
       id="path92"
       style="fill:none;stroke:#171717;stroke-width:2.30999994;stroke-linecap:butt;stroke-linejoin:miter;stroke-miterlimit:10;stroke-dasharray:none;stroke-opacity:1"
       d="m 181.78337,438.9691 c 2.78524,-0.47894 5.26851,-1.9635 7.43111,-3.88696 -0.39468,0.1001 -0.78092,0.0678 -1.15869,-0.0986 1.06061,-2.88134 3.88312,-5.01116 6.56673,-6.63894 -1.00949,0.32494 -2.84609,0.28336 -4.09733,0.68684 1.90098,-2.98298 4.31323,-5.74882 7.20057,-7.67844 -0.4811,0.25564 -1.28235,0.55286 -1.8557,0.77 3.85154,-3.62978 7.11172,-8.55008 10.45198,-12.29536 -1.1011,0.94094 -3.11542,1.4322 -4.40286,2.1483 -0.98252,-5.81812 3.78532,-10.37498 5.96442,-15.27834 -0.87164,0.40502 -1.99276,0.75152 -2.93832,1.19042 2.85208,-4.48602 7.22414,-8.42534 9.67582,-13.35642 -1.45068,1.8711 -3.3341,2.34696 -5.00346,3.53738 -1.1858,-5.85046 5.35766,-10.52436 6.27396,-16.36866 -0.85778,0.7084 -1.65242,1.58774 -2.41934,2.37622 -0.61754,-5.50242 6.99468,-9.20612 8.24978,-14.33894 -1.73558,1.13036 -3.89774,1.56926 -5.51782,3.26018 0.0816,-3.81612 2.01124,-7.40278 3.97936,-10.19634 -0.69762,-0.0816 -0.62216,0.69916 -1.3013,0.64064 0.9702,-4.86024 4.25348,-10.07314 4.36282,-15.22752 -2.18372,0.83622 -2.59182,0.0462 -4.57534,1.92192 1.42758,-2.83976 2.3947,-5.76422 2.25456,-8.85808 -0.4389,0.0647 -0.87934,0.1309 -1.3167,0.20174 0.98868,-5.16978 4.36282,-9.8945 5.19596,-14.86254 -1.6786,1.3398 -2.95064,1.53076 -4.3813,3.53584 0.62062,-5.91976 6.06914,-11.23738 5.1359,-17.39122 -1.27666,0.83006 -3.08924,1.12574 -4.4429,2.78124 3.13236,-6.04912 6.88688,-12.04126 7.5383,-18.9343 -0.94094,0.15862 -1.83106,0.0955 -2.86132,0.37884 -0.0662,-3.15854 1.3167,-6.60352 2.05282,-9.48948 -1.33518,1.54154 -2.41626,1.86648 -3.62978,2.75814 2.56718,-5.12204 3.00762,-9.05674 3.5959,-14.3297 0.5698,-5.07584 2.61492,-11.16346 3.1108,-16.3548 -0.8316,1.3167 -2.67498,2.74274 -3.55278,4.3813 -0.6391,-5.92438 3.58204,-11.42064 3.5574,-17.26186 -0.59136,0.7007 -1.53846,1.51382 -2.05436,2.02972 1.26896,-5.38692 3.36952,-10.65526 4.98036,-15.9082 -0.92092,1.3244 -2.4255,2.20682 -3.44344,3.40186 -0.68992,-5.88588 2.59028,-12.17832 2.80742,-18.01338 -0.62986,0.96712 -1.53846,2.11442 -2.01586,2.84284 1.02872,-5.60098 4.3582,-11.21582 4.32278,-16.8707 -0.82698,1.04258 -2.62262,2.33464 -3.57126,3.55124 0.2002,-4.44752 3.74528,-8.1466 3.57434,-12.62338 -0.79926,1.21968 -2.13752,2.6026 -2.82436,3.5728 1.57542,-3.68676 3.62516,-7.45052 4.44444,-11.46222 -0.8239,1.14576 -3.43266,3.17856 -4.38438,4.51528 0.3157,-4.4891 3.36028,-8.92276 3.55432,-13.56894 -0.66374,0.65604 -1.51844,1.51074 -2.03434,2.03588 0.31108,-4.37668 3.11388,-8.45306 4.2119,-12.83128 -0.79772,0.5852 -2.67344,1.3167 -3.5035,2.03434 1.52614,-3.13082 3.27404,-6.5065 4.50296,-9.92838 -1.41064,0.50512 -2.42242,0.35882 -3.8808,1.25048 2.11596,-4.2042 6.1985,-8.69022 6.90074,-13.4904 -0.99792,0.63602 -2.9414,1.0703 -4.20728,2.1483 0.8855,-2.4717 2.59644,-4.82944 4.2273,-6.71285 -1.1396,0.21098 -2.41934,0.0477 -3.66982,0.3465 0.63756,-2.50712 2.26842,-5.53784 2.86902,-8.05588 -0.44814,-0.095 -0.9009,-0.17573 -1.3552,-0.23825 1.17502,-2.48447 2.34696,-4.8727 2.90598,-7.49241 -0.8778,-0.0154 -1.89112,-0.20342 -2.75044,-0.23223 0.87934,-1.03827 1.70324,-2.80448 2.57796,-3.67198 -0.6699,0.57336 -1.90498,1.33734 -2.73042,1.97921 1.54154,-1.97442 1.68938,-4.28442 2.1175,-6.56793 -0.51436,-0.53301 -1.47224,0.24301 -2.08054,0.22145 0.0939,-0.88673 0.14938,-2.67159 0.02,-3.58173 -0.85316,0.94385 -3.77762,2.29614 -4.6508,3.23691 0.4235,-3.80534 2.3177,-7.46407 2.09132,-11.400764 -3.27558,0.003 -5.31608,3.010844 -7.42896,5.191484 -0.55594,-2.514514 -0.88242,-4.737354 -1.07954,-7.369044 -0.61908,0.84392 -1.55694,1.44914 -2.13444,2.14998 -1.70786,-3.42048 -4.69084,-3.65579 -7.6076,-0.94094 0.0878,-1.13036 -0.29568,-2.52406 -0.22946,-3.65442 -2.11904,0.78263 -3.1647,-0.31399 -5.07892,1.32457 -0.2387,-1.22769 -1.12266,-2.04221 -1.08108,-3.66705 -0.92092,0.97513 -3.93162,2.91998 -5.07892,4.4569 -0.23716,-1.96826 -1.41526,-3.78686 -1.09956,-6.039712 -0.87626,1.395071 -3.66828,3.374282 -4.50758,4.519592 -2.52868,-3.06614 -7.01823,-7.485801 -10.1392,-3.136533 -1.15917,-0.07577 -1.82691,-0.905967 -2.73705,-1.307768 -1.09001,0.49742 -1.10093,1.072009 -2.33109,1.346271 -0.41319,-1.13697 -1.24524,-2.207131 -1.71141,-3.150982 -0.26765,0.791699 -1.4077,1.946699 -1.7325,3.169012 -1.6555,-1.307152 -4.24407,-1.615152 -6.73456,-1.556801 -0.6485,0.566581 -1.53877,1.280048 -2.31293,1.707861 -0.53238,-1.327789 -2.695,-2.973572 -3.23646,-4.595361 -3.70555,0.212381 -7.31069,-1.345791 -11.39354,-1.6555" /></g></svg>