<?xml version="1.0" encoding="UTF-8" standalone="no"?>
<!-- Created with Inkscape (http://www.inkscape.org/) -->

<svg
   xmlns:dc="http://purl.org/dc/elements/1.1/"
   xmlns:cc="http://creativecommons.org/ns#"
   xmlns:rdf="http://www.w3.org/1999/02/22-rdf-syntax-ns#"
   xmlns:svg="http://www.w3.org/2000/svg"
   xmlns="http://www.w3.org/2000/svg"
   xmlns:sodipodi="http://sodipodi.sourceforge.net/DTD/sodipodi-0.dtd"
   xmlns:inkscape="http://www.inkscape.org/namespaces/inkscape"
   id="svg2"
   version="1.1"
   inkscape:version="0.91 r13725"
   width="308"
   height="672"
   xml:space="preserve"
   sodipodi:docname="sc-m-3-1-border.svg"><metadata
     id="metadata8"><rdf:RDF><cc:Work
         rdf:about=""><dc:format>image/svg+xml</dc:format><dc:type
           rdf:resource="http://purl.org/dc/dcmitype/StillImage" /><dc:title /></cc:Work></rdf:RDF></metadata><defs
     id="defs6" /><sodipodi:namedview
     pagecolor="#ffffff"
     bordercolor="#666666"
     borderopacity="1"
     objecttolerance="10"
     gridtolerance="10"
     guidetolerance="10"
     inkscape:pageopacity="0"
     inkscape:pageshadow="2"
     inkscape:window-width="1920"
     inkscape:window-height="1015"
     id="namedview4"
     showgrid="false"
     inkscape:zoom="3.0517306"
     inkscape:cx="42.277788"
     inkscape:cy="511.86106"
     inkscape:window-x="0"
     inkscape:window-y="0"
     inkscape:window-maximized="1"
     inkscape:current-layer="g10" /><g
     id="g10"
     inkscape:groupmode="layer"
     inkscape:label="ink_ext_XXXXXX"
     transform="matrix(1.25,0,0,-1.25,0,672.00001)"><path
       inkscape:connector-curvature="0"
       id="path44"
       style="fill:none;stroke:#171717;stroke-width:1.61699998;stroke-linecap:butt;stroke-linejoin:miter;stroke-miterlimit:10;stroke-dasharray:none;stroke-opacity:1"
       d="m 116.71337,468.37273 c 1.62848,0.45923 3.1766,1.38738 4.79036,1.67844 -0.20778,-1.11088 0.0701,-2.65673 -0.2715,-3.69646 1.20192,1.06399 2.7489,1.50219 4.31222,1.08501 -0.16558,-1.34049 -0.90261,-2.5209 -1.92779,-3.3294 5.18944,1.05913 2.84237,-2.54031 0.82871,-4.75237 1.6031,-0.32663 2.47224,-1.36313 2.31361,-3.06745 -0.6827,0.11158 -1.62202,-0.25548 -2.30229,-0.12936 0.47557,-1.2467 0.82112,-2.43358 1.08954,-3.77569 -0.59376,0.0372 -1.31252,-0.16008 -1.90757,-0.13098 0.76936,-1.3227 2.42744,-7.23446 -0.88111,-4.85747 0.13388,-2.22822 -0.34927,-2.06329 -1.94169,-2.38669 -0.0972,0.5611 -0.21539,1.0268 -0.35364,1.51513 -0.66459,-1.77708 -1.41051,-3.72395 -3.37307,-4.02148 0.002,1.19658 -0.62399,1.68653 -0.76855,2.49503 -1.04103,-1.19981 -2.46787,-2.21044 -3.99399,-2.15708 0.009,1.20467 -0.27214,2.60176 0.05,3.78217 0.1528,0.15685 0.16364,0.14553 0.0315,-0.0339 -1.43881,-0.93301 -3.2049,-1.00577 -4.93185,-0.71309 0.38662,1.25802 -0.17997,1.7787 0.71698,2.88472 -2.21579,-0.12612 -4.63627,1.23863 -5.17198,3.48302 0.52811,-0.0776 1.30185,0.16494 1.82737,0.152 -1.49443,2.13767 0.14667,3.29545 2.11099,3.48302 -0.80478,0.9896 -0.76936,2.22337 -1.09842,3.31646 0.80025,-0.1714 1.92714,0.30562 2.72674,0.13098 -1.16844,2.40448 -1.2695,5.4881 2.00993,5.6595 -1.43573,2.25572 -1.20272,6.14945 2.10145,3.538 -1.60438,4.41441 2.58656,4.83806 3.49807,1.17879 0.17689,0.37353 0.3449,0.76322 0.52616,1.1319 0.11675,-0.77778 0.71941,-1.99376 0.79832,-2.46269" /><path
       inkscape:connector-curvature="0"
       id="path48"
       style="fill:none;stroke:#171717;stroke-width:1.61699998;stroke-linecap:butt;stroke-linejoin:miter;stroke-miterlimit:10;stroke-dasharray:none;stroke-opacity:1"
       d="m 138.84233,469.50463 c -0.71633,0.48833 -0.95629,0.91522 -1.78953,0.86671 0.2508,-0.79071 0.0285,-1.79487 0.33989,-2.62277 -1.26207,0.17301 -2.82781,-0.2846 -4.1012,-0.17464 0.58358,-1.17718 1.9189,-2.21044 3.28138,-2.6826 -1.58223,-0.69208 -2.95927,-1.84823 -2.80452,-3.64796 0.67897,-0.0874 1.18186,-0.36382 1.73957,-0.49803 -0.84828,-1.49573 -2.27399,-3.46523 -1.74022,-5.52529 0.47507,0.24902 1.77676,0.51097 2.18554,0.80527 -0.4049,-2.94941 -3.32439,-5.42989 -3.11855,-8.67198 1.26272,0.39779 2.63975,0.87157 3.60608,2.11342 -0.69288,-1.80942 -2.50069,-3.50242 -2.20446,-5.80503 2.21399,-0.0258 4.21439,1.47632 4.60409,3.49272 -0.96762,-3.8242 2.57086,-5.5172 2.90121,-1.28551 1.42361,-1.97112 4.0949,-2.03419 4.09166,0.7988 1.42571,-1.62024 3.51326,-1.921 3.72929,0.46408 2.72934,-2.17325 6.09334,1.73019 2.51395,2.97042 2.27011,-1.25964 4.1877,-0.35897 3.51811,2.30423 -0.29042,1.15292 -4.46762,3.33587 -5.39044,4.06352 0.20859,0.25225 0.87933,0.0614 1.19577,0.14715 0.0632,0.62739 -0.13954,1.60083 0.13777,2.17486 0.55076,0.0389 1.20451,-0.0227 1.73941,0.13906 -0.42381,1.87734 -1.85761,3.21622 -3.63307,4.21067 3.61981,2.44167 1.79762,4.73458 -2.22224,4.12012 0.80914,0.9605 1.13383,2.71979 1.6461,3.56225 -1.34405,-0.43497 -1.89367,0.0485 -3.11645,-0.81982 0.4471,4.34488 -4.84727,4.96904 -3.92882,0.4754 -1.89302,2.19912 -3.70585,0.3331 -4.1151,-0.51097" /></g></svg>