<?xml version="1.0" encoding="UTF-8" standalone="no"?>
<!-- Created with Inkscape (http://www.inkscape.org/) -->

<svg
   xmlns:dc="http://purl.org/dc/elements/1.1/"
   xmlns:cc="http://creativecommons.org/ns#"
   xmlns:rdf="http://www.w3.org/1999/02/22-rdf-syntax-ns#"
   xmlns:svg="http://www.w3.org/2000/svg"
   xmlns="http://www.w3.org/2000/svg"
   xmlns:sodipodi="http://sodipodi.sourceforge.net/DTD/sodipodi-0.dtd"
   xmlns:inkscape="http://www.inkscape.org/namespaces/inkscape"
   id="svg2"
   version="1.1"
   inkscape:version="0.91 r13725"
   width="308"
   height="672"
   xml:space="preserve"
   sodipodi:docname="sc-m-2-1-border.svg"><metadata
     id="metadata8"><rdf:RDF><cc:Work
         rdf:about=""><dc:format>image/svg+xml</dc:format><dc:type
           rdf:resource="http://purl.org/dc/dcmitype/StillImage" /><dc:title /></cc:Work></rdf:RDF></metadata><defs
     id="defs6" /><sodipodi:namedview
     pagecolor="#ffffff"
     bordercolor="#666666"
     borderopacity="1"
     objecttolerance="10"
     gridtolerance="10"
     guidetolerance="10"
     inkscape:pageopacity="0"
     inkscape:pageshadow="2"
     inkscape:window-width="1920"
     inkscape:window-height="1015"
     id="namedview4"
     showgrid="false"
     inkscape:zoom="2.0916772"
     inkscape:cx="60.175415"
     inkscape:cy="420.22424"
     inkscape:window-x="0"
     inkscape:window-y="0"
     inkscape:window-maximized="1"
     inkscape:current-layer="g10" /><g
     id="g10"
     inkscape:groupmode="layer"
     inkscape:label="ink_ext_XXXXXX"
     transform="matrix(1.25,0,0,-1.25,0,672)"><path
       inkscape:connector-curvature="0"
       id="path84"
       style="fill:none;stroke:#171717;stroke-width:2.30999994;stroke-linecap:butt;stroke-linejoin:miter;stroke-miterlimit:10;stroke-dasharray:none;stroke-opacity:1"
       d="m 111.55753,458.67793 c -2.03742,0.2464 -3.86494,0.91014 -5.79302,1.60006 0.20452,-0.0816 0.29307,-0.22946 0.26658,-0.44352 -1.3512,0.35882 -3.36644,0.0508 -4.78124,0.32648 0.35974,-0.62062 0.55825,-2.36082 0.95157,-2.95372 -2.39655,0.33264 -4.86363,1.28128 -7.415413,0.84546 0.421193,-0.33726 0.935393,-0.4543 1.315623,-0.83468 -2.969891,-0.18788 -6.335715,0.3927 -9.081843,-0.7546 0.18172,-0.1001 1.109878,-0.69762 1.431738,-0.93632 -3.60514,0.29722 -6.474622,-2.18988 -9.87756,-2.6565 0.430122,-0.19558 0.668822,-0.51744 0.71995,-0.96558 -2.850694,-2.22376 -7.198884,-2.92446 -9.773456,-5.2283 0.801878,-0.0939 1.71325,-0.54978 2.70578,-0.57442 -2.946482,-2.61954 -11.302214,-5.40386 -11.942854,-9.20458 0.635866,0.16016 1.869714,0.36344 2.468312,0.49126 -2.743818,-2.02202 -4.935854,-4.7971 -6.306254,-7.79548 1.120766,0.25256 2.052466,-0.0293 3.149254,0.40502 -1.418032,-2.50404 -3.018123,-5.33302 -4.788507,-7.66458 0.904134,0.36498 2.107259,0.29414 3.137165,0.89166 -0.74596,-3.17394 -2.676982,-6.23238 -3.314635,-8.92584 -0.780826,-3.30176 -1.756554,-6.3371 -3.101051,-9.70046 0.52035,-0.14476 0.989573,-0.04 1.515929,-0.14322 -0.158204,-3.51428 -2.729881,-6.40486 -3.13835,-9.7482 0.676168,0.1309 1.496094,0.0724 2.151796,0.24486 0.0349,-11.00484 -8.593322,-21.18424 -7.60375,-32.01044 0.506521,-0.10472 0.986554,0.0231 1.476829,-0.15708 0.498097,-3.36182 -1.514729,-6.4141 -1.448555,-9.66812 0.398829,0.6468 1.117701,1.45992 1.431723,1.92038 -0.223793,-4.03326 -1.620619,-8.11734 -1.571293,-12.2738 0.0782,0.1925 0.2316,0.28028 0.455393,0.2618 0.628628,-4.22422 -1.145975,-8.32678 -1.437138,-12.44012 0.289946,0.38192 0.76519,0.92708 1.144169,1.5169 1.27532,-3.92854 -0.600354,-9.06752 -0.02405,-13.35334 0.294756,0.58366 0.696603,1.21044 1.008823,1.81566 0.08481,-4.31354 -0.900546,-8.58088 -0.476445,-12.85746 0.550427,0.76692 1.454576,1.31362 1.967103,2.40702 0.175668,-3.2725 0.915592,-6.76676 0.640671,-10.0716 0.24965,0.58058 0.857226,1.50766 0.999799,1.86648 0.01685,-3.06614 0.257473,-7.21644 1.789649,-9.53876 0.335674,-5.51166 3.36333,-10.41656 2.68958,-15.79116 -0.04993,0.5775 0.222576,0.80542 0.436143,1.2551 0.136552,-0.77154 0.05533,-1.5862 0.202726,-2.37314 0.318826,0.18172 1.357725,-0.1463 1.597149,-0.40348 -0.05234,0.64526 -0.09204,1.2089 0.07038,1.83414 1.932808,-1.48918 5.136162,-2.83206 7.455094,-1.54462 0.58058,0.32186 2.58566,6.46492 2.255946,7.70154 0.499268,-0.95942 1.10803,-1.26434 1.679524,-1.99892 0.261646,1.03796 1.200122,1.309 1.037652,3.003 0.469238,-0.26642 0.549318,-0.69916 1.117732,-0.9086 1.73558,1.2012 2.075458,3.28636 1.641024,5.33456 1.029952,-1.13344 3.766994,-0.58828 3.915604,2.4486 0.644336,10e-4 1.37522,0.14168 2.020018,0.15708 -0.685762,1.76638 -1.42681,4.07792 -0.92631,6.11534 0.469238,-0.008 0.792176,-0.34342 1.312542,-0.41734 0.639562,2.9568 -2.754444,4.22268 -2.977744,7.17486 0.96019,-0.5313 3.283434,-0.85778 4.206818,-1.42912 0.581658,2.2869 0.122122,4.79094 -1.896818,6.22006 0.609378,-0.0154 1.341494,0.0832 1.90883,0.04 0.07223,2.45476 -1.370446,4.25656 -1.472702,6.61122 1.07261,-0.0169 2.003232,0.70686 3.111878,0.67914 0.180488,2.6334 -1.114652,5.06968 -1.485792,7.5614 0.636482,-0.3465 1.433586,-0.53438 2.030336,-0.81774 0.47817,2.67498 -0.24486,5.31916 -1.501038,7.67844 0.51436,0.10934 0.985446,0.0801 1.503964,0.15708 0.268884,3.20936 -0.569646,6.64664 -1.17117,9.78978 -0.641256,0.31878 0.688072,-0.81774 0.599676,-0.74382 0.51744,2.9876 -0.921536,5.75036 -1.461768,8.51158 0.608762,-0.35728 2.473548,-0.5621 3.111262,-0.90552 0.198506,2.98452 0.131208,5.9752 -0.53053,8.92584 0.356048,-0.28028 1.87264,-0.83622 2.317854,-1.16732 0.796334,1.925 0.632786,4.11642 0,6.15692 3.11234,1.27666 3.019786,13.73988 2.201122,17.06474 0.896896,-0.3157 1.758218,-0.077 2.567334,-0.27412 0.715946,2.37468 0.969738,4.84484 0.177562,7.18718 0.410872,-0.0832 1.094786,-0.31262 1.45992,-0.42812 0.134134,1.98968 0.04096,4.0887 0.204512,6.0522 0.389928,-0.27874 0.60214,-0.67914 0.984214,-0.9625 2.992836,2.926 1.395086,7.78008 0.09748,10.95094 0.485408,-0.003 0.463232,-0.35728 1.007622,-0.4081 1.144066,1.925 1.240316,4.40594 1.173018,6.6297 1.89189,1.06722 1.964116,3.20936 1.39678,5.38384 -0.51436,0.6314 0.453068,-0.5313 0.55825,-0.64988 0.09332,1.18272 0.699004,2.6411 0.804954,3.8731 0.12936,-0.43582 0.31817,-0.84392 0.5715,-1.2243 0.63463,2.13752 0.33988,4.84792 0.48125,7.22722 0.52637,-0.40656 2.59274,-0.89782 3.23461,-1.46146 0.68453,1.5785 1.29037,3.35874 1.70833,5.00962 0.74412,-0.46354 1.57619,-0.54054 2.11272,-0.81774 0.15708,1.50612 0.91137,2.83514 0.1654,4.5661 0.66543,-0.23562 1.45345,-0.23254 2.02017,-0.40348 1.41357,2.58412 -0.56857,5.08508 -1.62316,7.53522 4.92384,-1.75714 5.19642,5.10048 2.59767,5.92438 2.01817,0.25564 2.08008,1.1704 3.30068,2.09594 -2.13844,0.8855 -4.38468,2.07438 -5.21367,4.2042 5.90436,-1.1935 2.07238,2.53484 1.55617,4.15646 -0.65989,2.0713 0.029,3.83614 -2.0676,5.50704 0.22145,-0.1232 0.44706,-0.23716 0.67683,-0.34496 -1.91899,-0.36498 -2.67883,0.32956 -4.18202,1.05952" /><path
       inkscape:connector-curvature="0"
       id="path88"
       style="fill:none;stroke:#171717;stroke-width:2.30999994;stroke-linecap:butt;stroke-linejoin:miter;stroke-miterlimit:10;stroke-dasharray:none;stroke-opacity:1"
       d="m 150.57019,454.07949 c 2.8122,0.154 5.54632,0.62062 8.30215,1.03642 0.51544,0.2772 -0.71472,-0.4235 -0.94448,-0.54978 3.35673,-0.0385 6.55824,0.14476 9.41554,1.5015 -0.37176,-0.4697 -0.77,-0.92554 -1.13991,-1.39832 2.45445,-0.35112 4.85764,0.67298 7.27298,0.97636 -0.21776,-0.0554 -0.34298,-0.19712 -0.37484,-0.4235 2.03509,-0.41272 4.26087,0.0154 6.17677,0.30646 0.0873,-0.44968 -0.47631,-0.38808 -0.45105,-0.83314 3.0709,-0.22484 6.02756,0.38808 8.48985,-1.65858 -0.20342,0.0832 -0.37898,0.0524 -0.5313,-0.0862 2.32817,-0.75152 4.98406,-2.20066 6.32433,-3.9424 -0.5481,0.27104 -1.19596,0.54516 -1.83061,0.78232 2.16863,-2.10056 4.36128,-5.71494 5.42927,-7.69692 -0.44968,0.34496 -0.89349,0.67298 -1.32469,1.0395 1.56647,-1.48302 3.25431,-2.87826 3.97657,-4.81096 -0.23254,0.53284 -0.25718,1.17348 -0.56364,1.7402 -0.20328,-4.8664 5.20828,-7.58142 4.0579,-12.59566 -1.00716,0.55286 -1.37214,0.10626 -2.43936,1.30592 1.05182,-1.7633 2.03742,-3.8423 2.84592,-5.83352 -0.62524,0.47432 -1.33672,0.78078 -1.94656,1.26434 0.81158,-3.33718 3.28174,-7.06552 2.15446,-10.27026 -0.34342,0.10934 -0.6699,0.25564 -0.97636,0.44352 -0.10934,-1.9327 -0.0246,-4.004 -0.19096,-5.94286 -0.36036,0.55594 -1.50766,1.48302 -1.8711,1.98198 0.64218,-2.86594 1.8865,-6.14614 2.42088,-9.05366 -0.44814,0.56364 -1.0164,1.1242 -1.4861,1.71556 0.1694,-2.57488 1.71248,-6.1292 2.24378,-7.96642 -0.31416,0.46046 -0.89166,1.14114 -1.09032,1.43374 0.097,-1.61392 -0.2618,-3.4188 -0.17864,-5.04042 -0.60676,0.38192 -1.81258,0.53284 -2.41164,0.92246 -0.66066,-3.16162 2.14522,-5.44082 3.4496,-7.99414 -0.91168,1.04412 -1.84184,1.16886 -2.93524,1.83414 -0.18788,-1.8711 0.28336,-3.67444 0.99484,-5.41464 -0.44352,0.20636 -1.1011,0.59752 -1.51998,0.81774 0.30954,-3.39724 4.39824,-6.40794 6.44798,-9.18456 -1.08416,0.72996 -2.3408,0.56056 -3.3572,0.92092 -0.25102,-2.6257 2.55794,-11.7733 4.25656,-13.64132 -0.64064,0.57596 -1.32748,1.00408 -1.97582,1.5323 -0.1925,-4.30738 2.98298,-9.16916 3.311,-13.80764 -0.46508,0.5313 -1.0857,0.95326 -1.47378,1.32902 -0.55902,-3.1724 1.33518,-5.68876 2.39932,-8.54238 -0.18326,0.41888 -1.12882,2.39162 -0.95942,2.00354 0.47432,-4.08716 1.89882,-7.78316 2.61184,-11.73172 -0.48664,0.40502 -1.00254,0.81004 -1.49842,1.2166 -0.27412,-3.5651 1.12728,-6.1369 0.9779,-9.46022 -0.25872,0.33572 -0.26026,0.95018 -0.56826,1.23662 -0.13244,-2.60722 0.64834,-4.91106 1.05336,-7.39354 -0.12012,0.58058 -0.0416,1.29514 -0.11242,1.88342 -1.47686,-3.26788 2.695,-4.9357 3.12928,-8.1235 -4.00708,-0.5775 -0.89782,-7.37506 0.48356,-9.68352 -0.35112,0.62832 -0.93786,1.30284 -1.37984,1.86494 0.41272,-2.17602 1.98198,-4.38746 2.4332,-6.56348 -0.60214,0.0246 -1.31208,-0.15554 -1.90652,-0.1463 0.0693,-2.60106 1.5169,-5.30838 2.32232,-7.60298 -0.56518,0.92092 -1.7787,1.79872 -2.29614,2.50712 -0.46354,-2.87826 0.36806,-5.65488 0.4081,-8.52698 -0.1001,1.05798 -0.34342,1.8018 -0.54208,2.80588 -0.0416,-2.35774 -0.12628,-4.6893 0.58058,-6.90074 -0.43582,1.4014 -1.30746,2.3331 -1.99122,3.36952 -0.1848,-2.69808 0.20174,-5.65026 -0.57904,-8.11734 -0.4466,0.51128 -1.89728,1.0857 -2.51174,1.8557 -0.21714,-0.56364 -0.57288,-1.29668 -0.71764,-1.8557 -0.4697,0.90552 -1.68322,2.3947 -1.95118,3.90852 0.0123,-1.70016 -0.8085,-3.2802 -1.52768,-4.52452 -0.45276,0.89166 -2.10056,2.23146 -2.45322,3.07692 -0.49434,-1.59236 -1.52768,-2.87518 -2.57796,-4.00092 0.0231,0.93324 -0.28644,2.07746 -0.21868,2.99838 -0.48972,-1.35674 -1.74482,-3.0877 -2.97682,-4.01324 -0.18788,1.0395 -1.3367,2.6873 -1.54122,3.52352 -0.36528,-1.69246 -1.30239,-3.49426 -2.45137,-4.58612 -0.0314,1.45222 -0.9987,2.83206 -1.25725,3.90698 -0.6967,-2.07438 -2.22099,-3.48194 -4.41443,-3.33102 -0.31508,1.96196 0.0451,4.03326 0.44523,5.92438 -0.4403,-1.89882 -1.44377,-2.77816 -2.99886,-3.37106 -0.21775,3.71602 0.62264,7.48748 0.32063,11.08492 -0.57442,-0.89628 -1.38538,-1.39062 -1.9749,-2.24224 -0.0123,3.0877 1.44747,5.9213 0.9354,9.0167 -0.24962,-0.44352 -0.94371,-1.23354 -1.32163,-1.8557 -0.19958,3.24786 0.009,6.70516 -0.19127,9.95302 -0.43736,-0.77924 -1.17423,-1.49226 -1.58928,-2.39316 -0.99559,3.4881 -0.16847,7.94024 0.43428,11.64548 -0.47753,-0.82082 -1.29637,-1.33364 -1.7468,-1.90498 -0.30756,2.7258 0.32894,5.41618 0.9625,8.04034 -0.18651,-0.32956 -0.35868,-0.8393 -0.56549,-1.21352 0.12921,1.8326 0.30677,3.696 0.44937,5.44852 -0.43613,-0.45584 -1.44082,-1.04412 -1.98708,-1.64164 -0.94556,2.95064 -0.74104,7.0455 -0.0391,9.84676 -0.44629,-0.2541 -0.91137,-0.51898 -1.39969,-0.87472 -0.31464,2.96142 -0.0283,5.99676 0.97927,8.75644 -0.85901,-0.54978 -2.405,-0.3388 -3.23106,-0.75152 -1.33056,2.39624 -0.89874,4.99884 -0.87828,7.68614 -0.1925,-0.50666 -0.38315,-1.00254 -0.56655,-1.5092 -0.23038,2.16062 1.5862,6.67898 1.48994,9.77746 -0.51067,-0.14938 -1.30237,-0.21714 -1.8979,-0.39732 -0.15154,2.95064 -0.45122,6.2062 1.2411,8.63478 -0.385,-0.58058 -0.87102,-1.31516 -1.23925,-1.88188 0.16539,2.5256 2.11151,4.8356 2.80636,7.41356 -0.68284,-0.83622 -1.64243,-1.47378 -2.32095,-2.28228 0.82715,2.71964 2.16031,5.68106 2.43645,8.4084 -0.48558,-0.0416 -0.89276,-0.25872 -1.39863,-0.27258 0.32956,1.91114 0.85778,3.97782 0.98529,5.98136 -0.30985,-0.48048 -0.70871,-1.06106 -0.94635,-1.3706 -0.57565,2.7335 0.5632,5.24832 1.75961,7.60452 -0.39992,-0.1771 -0.88365,-0.48356 -1.29761,-0.66066 0.73705,1.7402 1.92209,3.76992 2.55486,5.68414 -0.0986,-0.28028 -0.25687,-0.52052 -0.47524,-0.72226 0.78571,2.66266 2.05915,4.74782 1.88588,7.53214 -0.30676,-0.24024 -0.77,-0.77924 -1.12604,-1.0549 0.36699,4.67852 3.18643,9.82366 1.21629,14.39438 -0.28689,-0.2156 -0.47032,-0.4928 -0.5504,-0.8316 0.53715,1.14576 0.19852,2.73042 0.47401,3.87002 -2.74133,0.5467 -1.94594,3.6652 -2.51451,6.08146 0.15339,-0.46508 0.46139,-1.3013 0.56364,-1.7171 0.70871,6.1369 -4.85391,6.44336 -7.56879,10.64448 1.51892,-0.44968 3.3777,-0.68838 4.81852,-0.98252 -1.47087,0.97944 -3.15224,1.68168 -4.89675,2.04974 0.34174,0.56056 0.43198,2.2792 0.89337,2.87826 -3.19136,0.539 -5.03211,3.16778 -2.55363,5.68414 -9.65395,-0.97636 -2.25103,12.88826 -7.58157,14.5376 0.22745,2.06668 -0.47756,4.25502 -1.10388,6.07222" /></g></svg>