<?xml version="1.0" encoding="UTF-8" standalone="no"?>
<!-- Created with Inkscape (http://www.inkscape.org/) -->

<svg
   xmlns:dc="http://purl.org/dc/elements/1.1/"
   xmlns:cc="http://creativecommons.org/ns#"
   xmlns:rdf="http://www.w3.org/1999/02/22-rdf-syntax-ns#"
   xmlns:svg="http://www.w3.org/2000/svg"
   xmlns="http://www.w3.org/2000/svg"
   xmlns:sodipodi="http://sodipodi.sourceforge.net/DTD/sodipodi-0.dtd"
   xmlns:inkscape="http://www.inkscape.org/namespaces/inkscape"
   id="svg2"
   version="1.1"
   inkscape:version="0.91 r13725"
   width="308"
   height="672"
   xml:space="preserve"
   sodipodi:docname="sc-m-1-2-linning.svg"><metadata
     id="metadata8"><rdf:RDF><cc:Work
         rdf:about=""><dc:format>image/svg+xml</dc:format><dc:type
           rdf:resource="http://purl.org/dc/dcmitype/StillImage" /><dc:title /></cc:Work></rdf:RDF></metadata><defs
     id="defs6" /><sodipodi:namedview
     pagecolor="#ffffff"
     bordercolor="#666666"
     borderopacity="1"
     objecttolerance="10"
     gridtolerance="10"
     guidetolerance="10"
     inkscape:pageopacity="0"
     inkscape:pageshadow="2"
     inkscape:window-width="1920"
     inkscape:window-height="1015"
     id="namedview4"
     showgrid="false"
     inkscape:zoom="0.73951953"
     inkscape:cx="-486.74302"
     inkscape:cy="403.17234"
     inkscape:window-x="0"
     inkscape:window-y="0"
     inkscape:window-maximized="1"
     inkscape:current-layer="g10" /><g
     id="g10"
     inkscape:groupmode="layer"
     inkscape:label="ink_ext_XXXXXX"
     transform="matrix(1.25,0,0,-1.25,0,672)"><path
       inkscape:connector-curvature="0"
       id="path82"
       style="fill:#8f9190;fill-opacity:1;fill-rule:nonzero;stroke:none"
       d="m 162.78546,193.89867 c -4.23269,-6.71286 -5.84723,-13.19934 -6.44644,-17.75466 6.23222,5.76268 15.31345,7.85246 24.37712,6.24624 0.44336,-0.077 0.81219,-0.14168 1.14006,-0.19866 1.68137,-0.14938 3.36567,-0.25872 5.05122,-0.31416 2.66081,-0.0539 5.32268,-0.097 7.98165,0.0431 2.69393,0.14014 5.38585,0.28952 8.06699,0.58982 0.94402,0.10626 1.617,0.1771 2.09902,0.2233 0.46662,0.0878 1.09339,0.2002 1.93115,0.34496 8.55316,1.48764 16.99852,3.42804 25.42078,5.4901 l -1.46608,6.28166 3.17856,-3.0492 -2.6334,16.91536 -2.48094,15.12588 0.51744,10.47662 -0.15246,2.00508 -3.46654,14.02786 3.15546,0 -3.9886,21.5754 -1.35982,4.0117 1.85108,2.25456 -1.09648,4.91876 2.78432,1.1242 -1.89266,7.54138 -4.43058,9.09216 3.22784,-0.48048 -4.22422,13.78146 -0.79618,3.87926 4.2658,-3.80534 -5.19596,14.86254 0.99792,3.39416 -1.16886,4.60922 3.80842,-1.26896 -4.36282,15.22752 -2.67806,9.5557 3.02764,1.1011 -3.34026,7.60144 -2.02664,5.1898 -3.20628,5.34996 -1.04104,5.8289 -4.67235,9.81904 -1.43066,6.49572 -1.59544,7.5922 1.81412,0.95326 -7.86324,9.1938 -4.07853,3.53276 -2.13075,5.50396 0.49202,5.78886 -13.63316,2.77508 -7.36613,-0.83006 c 0,0 6.55701,-25.28218 6.43073,-26.49416 -0.12628,-1.21044 -0.73088,-8.08038 -0.73088,-8.08038 0,0 -0.58474,-23.69906 -2.75706,-27.93252 -2.17094,-4.23192 -4.55794,-9.60806 -4.55794,-9.60806 0,0 -1.51413,-26.64046 -2.08146,-31.90572 -0.56657,-5.26372 6.6702,-13.61052 4.80834,-16.86762 -1.86248,-3.2571 1.11588,-18.30598 1.9213,-21.32592 0.80681,-3.01994 8.58196,-40.99788 5.76068,-49.4802 -2.82205,-8.48232 -5.94101,-38.53234 -13.75774,-50.9278" /></g></svg>