<?xml version="1.0" encoding="UTF-8" standalone="no"?>
<!-- Created with Inkscape (http://www.inkscape.org/) -->

<svg
   xmlns:dc="http://purl.org/dc/elements/1.1/"
   xmlns:cc="http://creativecommons.org/ns#"
   xmlns:rdf="http://www.w3.org/1999/02/22-rdf-syntax-ns#"
   xmlns:svg="http://www.w3.org/2000/svg"
   xmlns="http://www.w3.org/2000/svg"
   xmlns:sodipodi="http://sodipodi.sourceforge.net/DTD/sodipodi-0.dtd"
   xmlns:inkscape="http://www.inkscape.org/namespaces/inkscape"
   id="svg2"
   version="1.1"
   inkscape:version="0.91 r13725"
   width="308"
   height="672"
   xml:space="preserve"
   sodipodi:docname="sc-m-1-4-linning.svg"><metadata
     id="metadata8"><rdf:RDF><cc:Work
         rdf:about=""><dc:format>image/svg+xml</dc:format><dc:type
           rdf:resource="http://purl.org/dc/dcmitype/StillImage" /><dc:title /></cc:Work></rdf:RDF></metadata><defs
     id="defs6" /><sodipodi:namedview
     pagecolor="#ffffff"
     bordercolor="#666666"
     borderopacity="1"
     objecttolerance="10"
     gridtolerance="10"
     guidetolerance="10"
     inkscape:pageopacity="0"
     inkscape:pageshadow="2"
     inkscape:window-width="1920"
     inkscape:window-height="1015"
     id="namedview4"
     showgrid="false"
     inkscape:zoom="2.9580781"
     inkscape:cx="114.24475"
     inkscape:cy="472.38856"
     inkscape:window-x="0"
     inkscape:window-y="0"
     inkscape:window-maximized="1"
     inkscape:current-layer="g10" /><g
     id="g10"
     inkscape:groupmode="layer"
     inkscape:label="ink_ext_XXXXXX"
     transform="matrix(1.25,0,0,-1.25,0,672)"><path
       inkscape:connector-curvature="0"
       id="path82"
       style="fill:#8f9190;fill-opacity:1;fill-rule:nonzero;stroke:none"
       d="m 174.34888,371.07799 c -2.17094,-4.23192 -4.55794,-9.60806 -4.55794,-9.60806 0,0 -0.48848,-8.58704 -1.01362,-16.97388 17.97765,5.64564 34.25331,11.67936 50.47567,19.37474 l -1.1088,2.52098 -2.02664,5.1898 -3.20628,5.34996 -1.04104,5.8289 -4.67236,9.81904 -1.43066,6.49572 -1.59544,7.5922 1.81412,0.95326 -7.86324,9.1938 -4.07854,3.53276 -2.13076,5.50396 0.49203,5.78886 -13.63316,2.77508 -7.36612,-0.83006 c 0,0 6.55701,-25.28218 6.43073,-26.49416 -0.12628,-1.21044 -0.73089,-8.08038 -0.73089,-8.08038 0,0 -0.58473,-23.69906 -2.75706,-27.93252" /></g></svg>