<?xml version="1.0" encoding="UTF-8" standalone="no"?>
<!-- Created with Inkscape (http://www.inkscape.org/) -->

<svg
   xmlns:dc="http://purl.org/dc/elements/1.1/"
   xmlns:cc="http://creativecommons.org/ns#"
   xmlns:rdf="http://www.w3.org/1999/02/22-rdf-syntax-ns#"
   xmlns:svg="http://www.w3.org/2000/svg"
   xmlns="http://www.w3.org/2000/svg"
   xmlns:sodipodi="http://sodipodi.sourceforge.net/DTD/sodipodi-0.dtd"
   xmlns:inkscape="http://www.inkscape.org/namespaces/inkscape"
   id="svg2"
   version="1.1"
   inkscape:version="0.91 r13725"
   width="308"
   height="672"
   xml:space="preserve"
   sodipodi:docname="sc-w-3-1-border.svg"><metadata
     id="metadata8"><rdf:RDF><cc:Work
         rdf:about=""><dc:format>image/svg+xml</dc:format><dc:type
           rdf:resource="http://purl.org/dc/dcmitype/StillImage" /><dc:title /></cc:Work></rdf:RDF></metadata><defs
     id="defs6" /><sodipodi:namedview
     pagecolor="#ffffff"
     bordercolor="#666666"
     borderopacity="1"
     objecttolerance="10"
     gridtolerance="10"
     guidetolerance="10"
     inkscape:pageopacity="0"
     inkscape:pageshadow="2"
     inkscape:window-width="1920"
     inkscape:window-height="1015"
     id="namedview4"
     showgrid="false"
     inkscape:zoom="6.1034612"
     inkscape:cx="181.13774"
     inkscape:cy="551.29878"
     inkscape:window-x="0"
     inkscape:window-y="0"
     inkscape:window-maximized="1"
     inkscape:current-layer="g10" /><g
     id="g10"
     inkscape:groupmode="layer"
     inkscape:label="ink_ext_XXXXXX"
     transform="matrix(1.25,0,0,-1.25,0,672.00001)"><path
       inkscape:connector-curvature="0"
       id="path44"
       style="fill:none;stroke:#171717;stroke-width:1.53999996;stroke-linecap:butt;stroke-linejoin:miter;stroke-miterlimit:10;stroke-dasharray:none;stroke-opacity:1"
       d="m 131.16666,469.86759 c 1.55093,0.43736 3.02533,1.32132 4.56225,1.59852 -0.19789,-1.05798 0.0668,-2.53022 -0.25857,-3.52044 1.14469,1.01332 2.618,1.43066 4.10688,1.03334 -0.1577,-1.27666 -0.85963,-2.40086 -1.83599,-3.17086 4.94232,1.0087 2.70701,-2.41934 0.78925,-4.52606 1.52675,-0.31108 2.3545,-1.29822 2.20343,-2.92138 -0.65019,0.10626 -1.54477,-0.24332 -2.19265,-0.1232 0.45291,-1.18734 0.78201,-2.3177 1.03765,-3.5959 -0.56549,0.0354 -1.25002,-0.15246 -1.81674,-0.12474 0.73273,-1.25972 2.31185,-6.88996 -0.83914,-4.62616 0.12751,-2.12212 -0.33264,-1.96504 -1.84924,-2.27304 -0.0925,0.53438 -0.20512,0.9779 -0.33679,1.44298 -0.63294,-1.69246 -1.34335,-3.54662 -3.21244,-3.82998 0.002,1.1396 -0.59429,1.60622 -0.73197,2.37622 -0.99145,-1.14268 -2.35034,-2.10518 -3.8038,-2.05436 0.009,1.1473 -0.25918,2.47786 0.0476,3.60206 0.14553,0.14938 0.15585,0.1386 0.03,-0.0323 -1.37029,-0.88858 -3.05228,-0.95788 -4.697,-0.67914 0.36822,1.19812 -0.1714,1.694 0.68284,2.74736 -2.11026,-0.12012 -4.41549,1.17964 -4.92569,3.31716 0.50296,-0.0739 1.23985,0.15708 1.74035,0.14476 -1.42326,2.03588 0.13968,3.13852 2.01047,3.31716 -0.76645,0.94248 -0.73273,2.1175 -1.04612,3.15854 0.76215,-0.16324 1.83537,0.29106 2.5969,0.12474 -1.1128,2.28998 -1.20905,5.22676 1.91422,5.39 -1.36736,2.1483 -1.14545,5.85662 2.00139,3.36952 -1.52799,4.2042 2.46338,4.60768 3.33148,1.12266 0.16848,0.35574 0.32848,0.72688 0.50112,1.078 0.11118,-0.74074 0.68514,-1.89882 0.76029,-2.34542" /><path
       inkscape:connector-curvature="0"
       id="path48"
       style="fill:none;stroke:#171717;stroke-width:1.53999996;stroke-linecap:butt;stroke-linejoin:miter;stroke-miterlimit:10;stroke-dasharray:none;stroke-opacity:1"
       d="m 149.77786,470.94559 c -0.68221,0.46508 -0.91075,0.87164 -1.70431,0.82544 0.23885,-0.75306 0.0271,-1.7094 0.32371,-2.49788 -1.20197,0.16478 -2.69315,-0.27104 -3.9059,-0.16632 0.55578,-1.12112 1.82751,-2.10518 3.12512,-2.55486 -1.50689,-0.65912 -2.81836,-1.76022 -2.67098,-3.47424 0.64665,-0.0832 1.12559,-0.3465 1.65673,-0.47432 -0.80788,-1.4245 -2.1657,-3.30022 -1.65734,-5.26218 0.45245,0.23716 1.69215,0.48664 2.08146,0.76692 -0.38562,-2.80896 -3.16609,-5.17132 -2.97004,-8.25902 1.20258,0.37884 2.51405,0.83006 3.43435,2.01278 -0.65989,-1.72326 -2.38161,-3.33564 -2.09948,-5.5286 2.10857,-0.0246 4.0137,1.40602 4.38483,3.3264 -0.92153,-3.6421 2.44845,-5.25448 2.76307,-1.2243 1.35582,-1.87726 3.8999,-1.93732 3.89682,0.76076 1.35782,-1.54308 3.34596,-1.82952 3.5517,0.44198 2.59937,-2.06976 5.80318,1.6478 2.39424,2.82898 2.16201,-1.19966 3.98829,-0.34188 3.35058,2.1945 -0.27659,1.09802 -4.25487,3.17702 -5.13375,3.87002 0.19866,0.24024 0.83746,0.0585 1.13883,0.14014 0.0602,0.59752 -0.1329,1.5246 0.13121,2.0713 0.52453,0.037 1.14715,-0.0216 1.65658,0.13244 -0.40363,1.78794 -1.76915,3.06306 -3.46007,4.01016 3.44744,2.3254 1.71202,4.50912 -2.11642,3.92392 0.77061,0.91476 1.07984,2.59028 1.56772,3.39262 -1.28005,-0.41426 -1.8035,0.0462 -2.96805,-0.78078 0.42581,4.13798 -4.61646,4.73242 -3.74174,0.45276 -1.80287,2.0944 -3.52936,0.31724 -3.91914,-0.48664" /></g></svg>