<?xml version="1.0" encoding="UTF-8" standalone="no"?>
<!-- Created with Inkscape (http://www.inkscape.org/) -->

<svg
   xmlns:dc="http://purl.org/dc/elements/1.1/"
   xmlns:cc="http://creativecommons.org/ns#"
   xmlns:rdf="http://www.w3.org/1999/02/22-rdf-syntax-ns#"
   xmlns:svg="http://www.w3.org/2000/svg"
   xmlns="http://www.w3.org/2000/svg"
   xmlns:sodipodi="http://sodipodi.sourceforge.net/DTD/sodipodi-0.dtd"
   xmlns:inkscape="http://www.inkscape.org/namespaces/inkscape"
   id="svg2"
   version="1.1"
   inkscape:version="0.91 r13725"
   width="308"
   height="672"
   xml:space="preserve"
   sodipodi:docname="sc-w-1-2-border.svg"><metadata
     id="metadata8"><rdf:RDF><cc:Work
         rdf:about=""><dc:format>image/svg+xml</dc:format><dc:type
           rdf:resource="http://purl.org/dc/dcmitype/StillImage" /><dc:title /></cc:Work></rdf:RDF></metadata><defs
     id="defs6" /><sodipodi:namedview
     pagecolor="#ffffff"
     bordercolor="#666666"
     borderopacity="1"
     objecttolerance="10"
     gridtolerance="10"
     guidetolerance="10"
     inkscape:pageopacity="0"
     inkscape:pageshadow="2"
     inkscape:window-width="1920"
     inkscape:window-height="1015"
     id="namedview4"
     showgrid="false"
     inkscape:zoom="2.1578993"
     inkscape:cx="5.582042"
     inkscape:cy="406.84676"
     inkscape:window-x="0"
     inkscape:window-y="0"
     inkscape:window-maximized="1"
     inkscape:current-layer="g10" /><g
     id="g10"
     inkscape:groupmode="layer"
     inkscape:label="ink_ext_XXXXXX"
     transform="matrix(1.25,0,0,-1.25,0,672.00001)"><path
       id="path14-8"
       d="m 197.96605,253.35127 1.05728,-1.41223 -1.76214,0.21259 c -2.02263,0.22778 -3.30976,-0.0304 -3.76945,-0.78963 -0.78147,-1.35301 0.27581,-4.60114 3.17185,-9.68972 l 0.98067,-1.71594 -1.90004,0.6226 c -0.90406,0.3037 -1.67021,0.45556 -2.26627,0.45556 -0.87341,0 -1.08793,-0.33408 -1.16608,-0.45556 -0.27581,-0.45556 -0.64356,-2.05001 1.96134,-7.00041 l 0.59913,-1.15408 -1.59359,0.0607 c -0.783,0 -1.77746,-0.13667 -2.09924,-0.80482 -0.53784,-1.0326 0.39839,-3.2785 2.46546,-6.02855 l 0.9347,-1.23001 -1.74682,0.0152 c -1.71617,0 -2.77499,-0.30371 -3.24847,-0.94149 -0.59912,-0.82001 -0.47654,-2.41446 0.41372,-5.17818 l 0.61292,-1.88145 -1.71617,1.00071 c -0.88873,0.50111 -1.36374,0.60741 -1.60891,0.60741 -0.18388,0 -0.61292,0 -0.72171,-1.93005 l -0.0766,-1.35149 -1.11704,0.77445 c -0.35243,0.22778 -0.76615,0.37963 -1.05728,0.37963 -0.13791,0 -0.18388,-0.0304 -0.18388,-0.0304 l -0.27581,-0.25815 -0.38308,0.0759 c -0.35243,0.0607 -0.67421,0.10629 -0.98067,0.10629 -0.61292,0 -0.76615,-0.18222 -0.82744,-0.24296 -0.21605,-0.22778 -0.27734,-0.75926 -0.21605,-1.48816 l 0.18387,-1.74478 -1.40971,1.07815 c -1.37753,1.04626 -2.25247,1.50334 -2.92668,1.50334 -0.56695,0 -1.37754,-0.3037 -2.68152,-2.75005 l -0.93317,-1.74631 -0.49034,1.91487 c -0.59759,2.30816 -1.2718,2.80927 -1.73149,2.99149 -0.78147,0.30371 -1.79279,-0.0759 -2.77499,-1.03259 l -1.11704,-1.09486 -0.18388,1.55193 c -0.0766,0.63778 -0.27581,0.88075 -0.32178,0.89593 0,-0.0456 -0.33711,-0.39481 -0.53631,-1.4426 l -0.30646,-1.59445 -1.04349,1.24519 c -1.14922,1.38186 -1.97666,2.01964 -2.60337,2.01964 -0.61292,0 -1.36528,-0.59374 -2.35974,-1.86779 l -0.84429,-1.09334 -0.47501,1.30442 c -0.58228,1.57927 -1.27181,2.50557 -1.90005,2.50557 -0.33711,0 -0.68954,-0.25815 -0.91938,-0.45556 l -1.01132,1.15408 c 0.24517,0.19741 0.38308,0.36445 0.49034,0.48593 -0.22984,0.0152 -0.56695,0 -0.96535,-0.0759 l -2.25401,-0.39633 1.54916,1.65671 c 1.39285,1.48664 1.30245,1.88146 1.28713,1.89816 0,0 -0.15477,0.24145 -1.1952,0.39482 -0.18387,-0.1063 -0.39839,-0.21412 -0.61291,-0.3356 l -4.01309,-2.18516 2.48079,2.71817 -2.15901,0.1974 3.27912,1.0326 c 1.31777,1.53523 1.60891,2.30968 1.50012,2.79409 -0.22832,-0.13667 -0.50413,-0.287 -0.82744,-0.47074 -0.42751,-0.24297 -0.91938,-0.5163 -1.48633,-0.85038 l -3.11056,-1.85412 2.08392,2.93228 c 0.53784,0.74256 0.98067,1.39704 1.34842,1.98927 l -1.43883,1.01741 1.8832,-0.3037 c 1.45568,2.46001 1.56447,3.53816 1.33309,3.99372 -0.24516,0.45708 -1.13389,0.54667 -1.83875,0.54667 -0.47501,0 -1.04196,-0.0456 -1.69932,-0.13667 l -1.88472,-0.25815 1.1814,1.48664 c 2.72595,3.4015 3.87518,5.93744 3.41549,7.50153 -0.27582,0.97185 -1.19519,1.70075 -2.80411,2.2459 l -0.96534,0.32041 0.58227,0.81848 c 3.2025,4.57229 3.26379,7.80675 0.1992,10.84381 l -0.3984,0.39481 0.27582,0.48593 c 1.83875,3.49261 1.83875,6.83337 -0.0307,10.56895 l -0.12258,0.24296 0.0613,0.25815 c 0.85808,3.56854 0.29113,6.52967 -1.59359,8.32001 l -0.35243,0.34927 0.15476,0.45555 c 1.31778,3.75077 0.98067,6.18041 -1.02664,7.4256 l -0.67421,0.41152 0.44437,0.65297 c 1.62577,2.35372 1.471,4.20632 -0.52098,5.99818 l -0.49034,0.42519 0.35243,0.54667 c 1.74682,2.67261 1.88319,5.28447 0.41372,8.23041 l -0.15323,0.30371 0.12259,0.30371 c 1.31777,3.23446 1.2718,6.39299 -0.15477,9.38449 l -0.1379,0.28852 0.12258,0.30371 c 1.59359,4.0241 1.3331,7.22819 -0.76615,9.50598 l -0.36775,0.41 0.26202,0.47074 c 1.57674,2.88521 2.09772,5.19337 1.56295,6.89412 -0.33711,1.09334 -1.11705,1.92853 -2.39039,2.55112 l -0.79832,0.41 0.52098,0.71371 c 2.35974,3.26484 3.30976,5.80078 2.81942,7.5319 -0.27581,1.00222 -1.04196,1.7463 -2.34288,2.30816 l -0.90405,0.37963 0.59759,0.77445 c 3.0646,3.97854 3.29444,6.04374 2.95734,7.07633 -0.27582,0.78964 -0.98067,1.33631 -2.19119,1.68557 l -1.10325,0.30371 0.70486,0.89593 c 2.92668,3.72039 3.1412,5.45151 2.81942,6.25633 -0.29114,0.66815 -1.1814,1.10852 -2.65087,1.29075 l -1.54762,0.18222 1.10325,1.10852 c 2.52829,2.49039 3.67751,4.26707 3.41702,5.31485 -0.16855,0.60741 -0.9347,1.13889 -2.31376,1.53371 l -1.34843,0.41 1.07108,0.89593 c 1.94755,1.64001 2.92669,3.2041 2.91136,4.6467 0,1.26038 -0.76615,2.52075 -2.28312,3.73557 l -0.61139,0.50112 0.53631,0.59222 c 1.93069,2.14113 2.78878,4.1304 2.48232,5.75522 -0.22985,1.24519 -1.14922,2.27779 -2.72749,3.0978 l -0.82744,0.42518 0.58227,0.71371 c 2.39192,3.00669 3.44767,5.52744 3.14121,7.48634 -0.21452,1.29075 -1.00978,2.39927 -2.45167,3.34076 l -0.70486,0.45556 0.52098,0.65297 c 2.23715,2.7789 3.21936,5.1478 2.81943,6.84855 -0.22832,0.94149 -0.88873,1.67038 -1.99199,2.18668 l -0.79679,0.37963 0.4888,0.7289 c 1.94755,2.87001 2.69837,5.02632 2.23715,6.37781 -0.26049,0.78963 -0.94849,1.36667 -2.12989,1.77668 l -1.08793,0.37963 0.78147,0.85037 c 2.54361,2.74854 2.40571,3.79632 2.31377,4.05447 -0.18234,0.44037 -1.00978,0.57704 -1.50012,0.60741 l -1.76214,0.15185 1.31777,1.16927 c 1.36375,1.23001 1.74682,2.0652 1.65489,2.42964 -0.0935,0.31889 -0.67422,0.6226 -1.5323,0.80482 l -1.42504,0.28852 1.04196,1.00223 c 2.62023,2.52076 2.37506,3.41669 2.34442,3.5078 -0.0935,0.25815 -0.67421,0.54667 -1.97666,0.60741 l -1.91537,0.0759 1.43882,1.26037 c 2.63708,2.27779 3.81542,3.87225 3.64687,4.87448 -0.10573,0.7137 -0.99446,1.41223 -2.63555,2.08038 l -1.9307,0.77445 1.97667,0.63778 c 2.75813,0.91111 4.1372,1.70075 4.45898,2.58149 0.27581,0.71371 -0.046,1.74631 -1.07261,3.46225 l -1.02664,1.71593 1.91537,-0.60741 c 1.01132,-0.31889 1.7315,-0.34926 1.91537,-0.13667 0.13791,0.15186 0.26049,0.60741 0.0444,1.88298 l -0.0766,0.53148 0.47654,0.25815 c 1.3331,0.71371 1.6702,1.71594 1.68553,1.71594 l 0.65888,-0.18223 0.0935,0.0911 0.3509,0.66816 c 0.0935,-0.0456 0.53783,-0.19741 1.10478,-0.19741 0.72018,0 1.3331,0.24296 1.80811,0.72889 l 0.52099,0.5163 0.55162,-0.50111 c 1.16455,-1.07816 2.0686,-1.74631 2.84854,-2.14113 0.8443,-0.41 1.50165,-0.48593 2.1161,-0.21259 l 0.52098,0.24296 0.36622,-0.44037 c 1.5323,-1.77668 2.91136,-2.50557 4.76544,-2.50557 0.68954,0 1.48633,0.0911 2.42103,0.30371 l 0.99599,0.22778 -0.0613,-1.00223 c -0.0935,-1.83742 1.08793,-2.55113 1.42504,-2.71817 l 1.10325,0 -0.44436,-0.86556 c 0.1379,-0.41 0.61291,-1.45778 1.99351,-2.32334 l 0.48881,-0.30371 -0.16702,-0.56185 c -0.27735,-0.89593 -0.50566,-1.91335 -0.10727,-2.61187 0.28961,-0.53148 0.98067,-0.95667 2.05328,-1.24519 l 0.87341,-0.24297 -0.38307,-0.80482 c -1.31778,-2.80927 0.18387,-4.79854 3.41549,-7.47115 l 0.99599,-0.83519 -1.22584,-0.47074 c -1.80964,-0.68334 -2.86539,-1.57927 -3.23314,-2.74854 -0.58228,-1.83741 0.47501,-4.60113 3.30976,-8.67079 l 0.73397,-1.06297 -1.28713,-0.12148 c -1.83876,-0.18222 -2.03796,-1.09334 -2.09925,-1.38186 -0.16702,-0.78963 0.12258,-1.80704 0.7355,-2.53594 l 0.45969,-0.56185 -0.5363,-0.48593 c -0.1992,-0.18222 -0.29114,-0.30371 -0.32178,-0.37963 0.0306,0 0.12258,-0.0607 0.30492,-0.12148 l 1.22737,-0.42519 -0.96688,-0.86556 c -0.73397,-0.65297 -1.08793,-1.16927 -1.07107,-1.57927 0.0306,-0.44037 0.4888,-0.97186 1.37753,-1.57927 l 1.3331,-0.91112 -1.54762,-0.44037 c -1.39439,-0.39482 -2.14521,-0.82 -2.37506,-1.36667 -0.22984,-0.53149 -0.0322,-1.39705 0.61139,-2.64224 l 0.66042,-1.26038 -1.42657,0.16704 c -0.15323,0.0152 -0.27581,0.0152 -0.3984,0.0152 -0.21452,0 -0.56695,-0.0152 -0.68953,-0.18223 -0.0613,-0.0911 -0.22831,-0.45556 0.15476,-1.56408 l 0.18388,-0.56186 -0.50566,-0.31889 c -1.71617,-1.09334 -2.6662,-2.21705 -3.02016,-3.52298 -0.27581,-1.09334 -0.15323,-2.3689 0.39993,-3.93298 0.1992,-0.56186 0.45969,-1.15408 0.76615,-1.79187 l 0.22831,-0.45555 -0.35089,-0.37964 c -0.27735,-0.3037 -0.64357,-0.45555 -1.05729,-0.45555 -0.64356,0 -1.31777,0.41 -1.77746,0.75926 -0.50566,-0.42519 -0.7968,-0.83519 -0.87188,-1.26038 -0.16855,-0.91111 0.61139,-1.98927 1.45415,-3.11298 0.12258,-0.18222 0.24517,-0.34926 0.38308,-0.53148 0.68953,-0.42519 1.04349,-1.06297 1.22736,-1.73112 l 0.61139,-0.88075 -0.50566,0.25815 c 0.0322,-0.30371 0.046,-0.60741 0.046,-0.88075 l -1.53229,0 c 0,0.63779 -0.41372,1.35149 -0.88874,2.05002 -0.39839,0.15185 -0.98067,0.1974 -1.70085,0.21259 l 4.59689,-9.09598 -1.23809,0 c -0.7968,0 -1.80811,0 -2.58958,0.31889 -0.26049,-1.54889 -0.21452,-2.71816 1.1814,-3.49261 l 0.16855,-0.0911 0.3984,-0.63778 c 0.21452,-0.33408 0.42904,-0.68334 0.62824,-1.0326 0.32178,-0.50111 0.62671,-1.0326 0.90405,-1.56408 l 0.5501,-1.09334 -1.24116,0 c -0.56695,0 -1.17987,0 -1.80811,0.0911 1.02664,-1.29075 2.14368,-2.44483 3.67598,-3.20409 l 2.91136,-1.4426 0.13791,0 -1.31778,-1.29075 c -1.37753,-1.38186 -1.50012,-1.50334 -2.12989,-2.1715 0.046,-0.31889 0.32178,-0.65296 0.79833,-0.98704 0.73397,-0.5163 1.8694,-0.98704 3.38637,-1.36667 l 0.99446,-0.25815 -0.5363,-0.88075 c -0.49034,-0.78963 -0.64357,-1.45778 -0.42904,-1.98927 0.27581,-0.66815 1.14922,-1.23001 2.52828,-1.60964 0.58228,-0.16704 1.24116,-0.28852 1.95981,-0.37963 l 0.76615,-0.0911 -0.0919,-0.75926 c -0.41525,-3.40151 1.19519,-6.21078 2.91137,-9.20228 1.73149,-3.02187 3.5396,-6.16522 3.3404,-10.15895 0.30646,-0.44037 0.68954,-0.77444 1.16455,-1.00222 l 0.78147,-0.37964 -0.47501,-0.7137 c -0.78147,-1.21482 -0.84277,-1.6552 -0.82744,-1.76149 0.0306,0.0152 0.15323,-0.0304 0.41372,-0.0304 0.26049,0 0.56695,0.0304 0.95002,0.10629 l 2.14521,0.36445 -1.44035,-1.62483 c -1.3331,-1.50334 -1.8832,-2.52075 -1.79279,-3.31038 0.0935,-0.80482 0.87341,-1.68557 2.63708,-2.93076 l 1.51544,-1.07816 -1.85408,-0.28852 c -1.28712,-0.1974 -2.09924,-0.56185 -2.42102,-1.07815 -0.32179,-0.5163 -0.26049,-1.38186 0.18387,-2.80928 l 0.16855,-0.48592 -0.39839,-0.33408 c -0.10726,-0.0759 -0.13944,-0.22778 -0.0935,-0.37963 0.0935,-0.31889 0.53783,-0.66815 1.471,-0.75927 l 1.3331,-0.12148 -0.78147,-1.07815 c -1.21052,-1.6552 -1.65488,-2.67261 -1.50165,-3.5078 0.1379,-0.82 0.90405,-1.67038 2.42103,-2.70298 l 1.42656,-0.97186 -1.68705,-0.39481 c -1.34843,-0.31889 -2.14369,-0.7289 -2.42103,-1.26038 -0.27582,-0.56185 -0.0919,-1.45779 0.62824,-3.08261 l 0.32178,-0.72889 -0.75082,-0.28852 c -0.72018,-0.27334 -0.99446,-1.32112 -0.87188,-3.17372 0.12258,-1.74631 0.5363,-3.35595 1.28713,-4.9504 l 0.18387,-0.36445 -0.21605,-0.34926 c -1.8219,-2.93076 -1.54762,-5.75674 0.87341,-8.8682 l 0.47501,-0.60589 -0.62671,-0.45708 c -1.22737,-0.91111 -1.83875,-1.82071 -1.87093,-2.79409 -0.0444,-1.32112 0.9822,-2.87001 3.04927,-4.61632 l 1.05728,-0.91112 -1.3331,-0.39481 c -1.71617,-0.51782 -2.65087,-1.12371 -2.8041,-1.82224 -0.13791,-0.65448 0.30646,-1.94371 3.18718,-4.43409 l 1.16454,-1.00223 -1.51697,-0.31889 c -1.60891,-0.31889 -2.54361,-0.89593 -2.88072,-1.74631 -0.62364,-1.62179 0.72478,-4.67403 4.01922,-9.06257 z m -6.95663,-11.98118 c 0.3984,0.65297 1.44036,1.4259 3.46299,1.10701 -2.62023,4.88966 -3.32508,7.89634 -2.29844,9.64416 0.62824,1.04627 1.83875,1.59446 3.61622,1.62331 -3.04927,4.31262 -4.04527,7.18263 -3.2638,9.21746 0.3984,1.04626 1.27181,1.82223 2.62023,2.30816 -2.12989,2.01964 -2.94201,3.58372 -2.63555,4.9671 0.26049,1.26038 1.42504,2.03483 2.60337,2.52076 -1.80811,1.76149 -2.66466,3.38479 -2.62022,4.9504 0.046,1.26037 0.68953,2.42964 1.90004,3.49261 -2.31376,3.28002 -2.55893,6.45374 -0.73397,9.62746 -0.7355,1.64001 -1.14922,3.32557 -1.2718,5.11744 -0.046,0.83519 -0.21606,3.17372 1.16454,4.29743 -0.59759,1.48815 -0.84276,2.71816 -0.32178,3.75076 0.33711,0.68334 0.98067,1.21482 1.96134,1.62482 -1.10479,0.9263 -1.68706,1.82224 -1.85408,2.77891 -0.20073,1.21482 0.27581,2.39927 1.13237,3.72039 -0.81059,0.3037 -1.37754,0.85037 -1.60891,1.5489 -0.16856,0.56185 -0.0766,1.13889 0.21452,1.59445 -0.36622,1.24519 -0.56542,2.59668 0.0935,3.67484 0.38307,0.60741 0.99599,1.06296 1.88319,1.38186 -1.04196,0.88074 -1.85408,1.86778 -1.99198,3.02186 -0.10573,0.95668 0.21605,1.92853 1.10478,3.15854 -0.5838,0.0911 -0.9822,0.34926 -1.21051,0.77445 -0.39993,0.74408 -0.0613,1.68556 0.50412,2.64224 -0.4888,0.36444 -0.90405,0.82 -1.22583,1.38186 l -0.10573,0.19741 0.0153,0.22777 c 0.24517,3.65965 -1.48633,6.65115 -3.14121,9.55154 -1.65488,2.87002 -3.35573,5.81596 -3.17185,9.39968 -0.52098,0.0759 -1.01132,0.18223 -1.45568,0.30371 -1.8832,0.53148 -3.07992,1.38186 -3.53961,2.53594 -0.30646,0.74408 -0.26049,1.57927 0.0919,2.46001 -1.25648,0.37963 -2.25248,0.83519 -2.97112,1.33631 -1.34996,0.94148 -1.5323,1.94371 -1.44036,2.62705 l 0.0322,0.24296 0.16702,0.16704 c 0.52098,0.56186 0.72018,0.77445 1.16454,1.21482 -1.10325,0.15185 -2.25247,0.54667 -3.36952,1.67038 l -1.31777,1.29075 2.43635,0 c -1.14922,0.98704 -2.02263,2.09557 -2.6662,2.94594 l -0.18387,0.22778 c -0.47501,0.60741 -0.91938,1.19964 -1.33157,1.62483 l 1.10326,1.04778 c 0.30646,-0.30371 0.62824,-0.56186 0.96534,-0.74408 0.56695,-0.31889 1.1339,-0.45556 1.7315,-0.50111 -0.0613,0.0911 -0.12259,0.19741 -0.18388,0.3037 -0.21452,0.36445 -0.42751,0.69852 -0.62824,1.01742 l -0.1992,0.31889 c -2.42103,1.47297 -1.94601,4.00891 -1.65488,5.52743 0.0935,0.44038 0.16855,0.85038 0.16855,1.1389 l 1.5323,0 c 0,-0.42519 0.16855,-0.63778 1.04196,-0.71371 l -4.58003,9.06561 1.23503,0 c 0.62824,0 1.19519,0 1.71617,-0.0304 -0.10726,0.15185 -0.21452,0.3037 -0.30646,0.45556 l -0.32178,0.45555 0.0766,-0.0304 c -0.42751,0.78964 -0.68953,1.62483 -0.5363,2.50557 0.18388,0.97186 0.84276,1.82224 2.00731,2.59669 l 0.52098,0.33407 0.44437,-0.44037 c 0.12258,-0.1063 0.26049,-0.22778 0.41525,-0.34926 -0.0935,0.22778 -0.18388,0.45556 -0.24517,0.66815 -0.65889,1.8526 -0.79679,3.41668 -0.44437,4.81373 0.41526,1.56408 1.44036,2.8852 3.2025,4.10002 -0.26049,1.01742 -0.18387,1.80705 0.22985,2.36891 0.2896,0.39481 0.70485,0.65296 1.24116,0.75926 -0.45969,1.16926 -0.50566,2.08038 -0.16702,2.87002 0.36622,0.85037 1.16454,1.38185 2.03795,1.76149 -0.59913,0.60741 -0.90558,1.19963 -0.9347,1.83741 -0.0613,0.82001 0.3509,1.51853 0.85809,2.11076 -0.21452,0.22778 -0.30493,0.47074 -0.3509,0.66815 -0.0613,0.31889 -0.046,0.77445 0.33711,1.30593 -0.62824,1.01742 -0.87341,2.21705 -0.65889,3.26484 0.15323,0.7137 0.64356,1.83741 2.25248,2.35371 -2.68152,4.0241 -3.55493,6.84856 -2.8654,9.03524 0.41525,1.3363 1.39439,2.39927 3.0033,3.21928 -2.39038,2.11075 -4.29043,4.47965 -3.2025,7.69893 -1.05575,0.39482 -1.77746,0.97186 -2.19118,1.71593 -0.56695,1.01742 -0.44437,2.18668 -0.16855,3.24965 -1.21052,0.91112 -1.91537,2.03483 -2.16054,2.85483 -0.33711,0.18223 -0.70486,0.47075 -0.96535,0.74408 -0.45969,0.48593 -0.98067,1.26038 -1.1339,2.38409 -0.688,-0.12148 -1.30245,-0.16704 -1.8694,-0.16704 -2.17586,0 -3.87671,0.78964 -5.57756,2.64224 -0.88873,-0.2126 -1.83875,-0.0759 -2.88072,0.44037 -0.79832,0.39482 -1.65488,1.00223 -2.71369,1.92853 -0.91938,-0.63778 -2.17586,-0.83519 -3.34041,-0.59223 -0.30646,-0.53148 -0.85962,-1.18445 -1.68706,-1.7463 0.10726,-0.95667 0.0935,-1.94372 -0.47501,-2.59668 -0.41372,-0.48593 -1.04196,-0.71371 -1.85408,-0.66815 0.52098,-1.12371 0.7968,-2.26261 0.3984,-3.31039 -0.42904,-1.12371 -1.5323,-2.00446 -3.70816,-2.87002 0.92091,-0.57704 1.7315,-1.3363 1.91537,-2.41446 0.24517,-1.42741 -0.62824,-2.9915 -2.94201,-5.19336 0.68954,-0.19741 1.37907,-0.59223 1.67021,-1.3363 0.41525,-1.09334 -0.16702,-2.46002 -1.83876,-4.25188 0.783,-0.34926 1.27181,-0.85038 1.44036,-1.50334 0.24517,-0.86556 -0.12258,-1.83742 -1.08793,-2.94594 0.65889,-0.25815 1.10325,-0.68334 1.3331,-1.26038 0.45969,-1.16927 -0.16856,-2.76372 -1.90005,-4.82892 1.04196,-0.56185 1.73149,-1.3363 2.05328,-2.29297 0.58227,-1.73113 -0.0613,-4.0241 -1.96134,-7.0156 1.0726,-0.69852 1.79432,-1.65519 2.05481,-2.79409 0.47501,-2.0652 -0.39993,-4.58595 -2.62023,-7.51671 1.39286,-1.09334 2.2203,-2.39927 2.45167,-3.90261 0.36776,-2.26261 -0.58227,-4.85929 -2.91136,-7.95709 1.54915,-0.98704 2.48232,-2.23223 2.75967,-3.72039 0.35089,-1.94371 -0.46122,-4.16076 -2.35974,-6.45374 1.48633,-1.38186 2.23715,-2.85483 2.25248,-4.38854 0.0153,-1.64001 -0.82744,-3.2952 -2.49765,-4.9504 1.19519,-0.54667 1.90005,-1.27556 2.12989,-2.18668 0.36776,-1.47297 -0.50565,-3.26483 -2.83474,-5.75522 1.24116,-0.37963 2.05327,-1.01741 2.43635,-1.92852 0.67268,-1.60964 -0.0935,-3.82669 -2.39192,-6.93967 1.11858,-0.5163 1.87094,-1.29075 2.20651,-2.29298 0.62824,-1.89816 -0.22984,-4.44928 -2.63555,-7.74449 1.22584,-0.71371 2.00731,-1.67038 2.34288,-2.87001 0.59913,-2.09557 -0.24363,-4.76818 -2.55893,-8.13931 1.19519,-0.77445 2.00884,-1.79186 2.4057,-3.02187 0.62824,-2.00445 0.13791,-4.55558 -1.43882,-7.60782 2.11456,-2.61187 2.40417,-6.1804 0.8259,-10.37154 1.39439,-3.15854 1.45568,-6.59041 0.16856,-9.97672 1.45568,-3.11298 1.36374,-6.02855 -0.30646,-8.88339 1.96134,-2.03482 2.2065,-4.35817 0.70485,-6.90778 2.03796,-1.67189 2.43789,-4.46446 1.1814,-8.32152 1.97667,-2.14113 2.60491,-5.3604 1.76061,-9.14154 1.88473,-3.9345 1.93223,-7.51671 0.12259,-11.20825 3.03394,-3.2785 3.06459,-6.98522 0.12258,-11.56965 1.56447,-0.70004 2.49764,-1.65672 2.86539,-2.8852 0.55163,-1.88298 -0.27581,-4.29744 -2.63555,-7.51671 1.77747,0.0455 2.85008,-0.41001 3.34041,-1.36516 0.56695,-1.06297 0.24517,-2.61339 -1.07261,-4.95192 0.33864,-0.0759 0.78301,-0.22626 0.95003,-0.68333 0.0169,-0.044 0.0322,-0.11997 0.046,-0.19741 l 0.21452,-0.2126 -0.0613,-0.0607 c 0.62825,-1.0326 0.32179,-2.14112 -0.2896,-3.17372 l 0.30646,0 0.15323,-0.79115 0.61292,-0.0759 -0.53784,-0.25815 0,-0.0152 c 0.32178,-0.19741 0.56695,-0.47226 0.70486,-0.83519 0.26049,-0.68334 -0.0153,-1.41375 -0.52098,-2.14113 0.64356,-0.15337 0.92091,-0.5163 1.04196,-0.82 0.0322,-0.0926 0.0613,-0.19741 0.0613,-0.31889 1.0435,-0.0926 1.91537,-0.86556 2.63708,-2.32335 0.98067,1.0326 1.83723,1.48816 2.74281,1.48816 0.91938,0 1.79279,-0.45708 2.8654,-1.55042 0.41372,0.83519 0.99446,1.32112 1.68552,1.32112 0.49034,0 1.05576,-0.28852 1.43883,-1.01741 0.76615,0.53148 1.56448,0.80482 2.33062,0.80482 0.38308,0 0.76615,-0.0774 1.11705,-0.21411 0.92091,-0.34775 1.59359,-1.10701 2.13142,-2.38257 0.81212,1.16926 1.80811,2.08038 3.15653,2.08038 0.88873,0 1.79279,-0.41152 2.68152,-0.98704 0.0935,0.47074 0.27735,0.83519 0.55163,1.13889 0.59759,0.65297 1.48633,0.88075 2.91136,0.65297 0.45969,0.24296 1.07108,0.25815 1.71464,0.0607 0.18388,1.04778 0.67421,2.2626 2.13142,2.2626 0.24517,0 0.50566,-0.0319 0.7968,-0.10629 -0.61139,2.38408 -0.52098,3.87224 0.27734,4.93521 0.62671,0.86556 1.67021,1.35301 3.23162,1.51853 -1.9307,2.82446 -2.52676,4.99595 -1.79279,6.45374 0.32178,0.63778 1.02664,1.36667 2.57426,1.57927 -1.76521,3.60042 -2.20957,6.04525 -1.36681,7.42711 z"
       inkscape:connector-curvature="0"
       style="fill:#010202" /><path
       id="path16-7"
       d="m 108.43397,406.81362 -0.0613,-0.41 -0.3984,-0.16704 c -0.0766,-0.12148 -0.29114,-1.04778 -0.10726,-2.17149 l 0.0919,-0.53149 -0.49034,-0.25815 c -3.15653,-1.65519 -4.5356,-3.23446 -5.13319,-5.84633 l -0.21452,-0.97186 -0.88874,0.47075 c -1.777459,0.94148 -2.252471,0.54667 -2.880713,-0.48593 l -0.766148,-1.29075 -0.597596,1.36668 c -0.52098,1.18445 -0.812117,1.41223 -0.950023,1.4426 l -0.03065,0 c -1.608912,-2.11076 -2.681519,-3.76595 -3.141208,-4.87448 1.256483,0.2126 2.528289,0.15186 2.942009,-0.83519 0.597596,-1.39704 -1.333098,-3.41668 -2.773456,-4.61632 1.057284,-0.5163 1.65488,-1.18445 1.823432,-2.01964 0.444366,-2.12594 -2.206506,-4.31262 -4.336398,-6.07411 -0.229845,-0.18222 -0.444366,-0.36444 -0.658888,-0.54667 l 0.07662,0 -0.01532,-0.65296 c -0.01532,-1.5489 -0.689533,-3.05224 -1.900048,-4.26706 l 0.459689,0.0152 -0.09194,-0.86556 c -0.199199,-1.79186 -1.379067,-3.23446 -2.528289,-4.61632 -0.858086,-1.04779 -1.670204,-2.01964 -2.037955,-3.08261 -0.07661,-0.18223 0,-0.34926 0.199199,-0.75927 0.26049,-0.5163 0.612918,-1.21482 0.352428,-2.18668 -0.352428,-1.38185 -1.562942,-3.06742 -2.650873,-4.31261 l 0.367751,-0.0456 -0.398397,-0.9263 c -0.41372,-0.91112 -0.995992,-1.74631 -1.578265,-2.55112 -0.689533,-0.97186 -1.333098,-1.89816 -1.639557,-2.90039 0.199198,0 0.41372,-0.0152 0.628241,-0.0607 l 0.536304,-0.12148 0.06129,-0.54667 c 0.26049,-2.38409 -1.149222,-4.03929 -2.390382,-5.51226 -0.628242,-0.74408 -1.225838,-1.45778 -1.624235,-2.23223 0.275814,0.0152 0.551627,0.0304 0.82744,0.0607 l 0.995993,0.1063 -0.15323,-0.98705 c -0.291136,-1.83742 -1.302451,-3.26483 -2.283121,-4.64669 -0.766148,-1.06297 -1.486328,-2.0652 -1.777464,-3.17372 0.214522,-0.28852 0.352428,-0.6226 0.383074,-1.00223 0.229845,-2.01964 -2.129892,-5.02632 -5.240454,-8.74672 -0.612918,-0.72889 -1.210514,-1.4426 -1.670203,-2.01964 0.07662,-0.0304 0.137907,-0.0455 0.214522,-0.0759 l 0.582273,-0.22778 -0.122584,-0.6226 c -0.306459,-1.59445 -0.612919,-2.82446 -0.888732,-3.90261 -0.122584,-0.47075 -0.229845,-0.91112 -0.337105,-1.33631 0.10726,0.18223 0.214521,0.37963 0.321782,0.57704 l 0.812117,1.4426 c -0.812117,-2.70297 -1.057285,-5.58818 -0.720179,-8.41264 -0.735503,-2.94594 -1.287129,-5.99818 -1.578266,-9.00486 -0.07661,-0.83519 -0.137906,-1.68557 -0.122583,-2.4752 -0.01532,-0.42519 0.06129,-0.6226 0.06129,-1.38186 0,-0.56186 -0.07662,-1.0326 -0.15323,-1.51853 -0.352428,-1.86779 -0.873409,-3.56854 -1.425036,-5.26929 -1.103253,-3.4015 -2.344413,-6.71189 -3.585573,-10.02228 -0.612919,-1.65519 -1.271806,-3.2952 -1.823433,-4.93521 -0.137907,-0.42519 -0.229844,-0.75926 -0.367751,-1.24519 -0.183876,-0.5163 -0.367751,-1.04778 -0.995993,-1.53371 -0.306459,-0.24297 -0.842763,-0.37964 -1.256483,-0.24297 -0.429043,0.1063 -0.720179,0.34774 -0.919378,0.57704 -0.10726,0.12148 -0.168552,0.25815 -0.26049,0.37963 0.275813,-2.82446 0.306459,-5.80077 -0.06129,-7.7293 l -0.245167,-1.29227 -1.011316,0.8519 c -0.03065,0.0304 -0.107261,0.0759 -0.214522,0.13667 0.72018,-3.41669 0.137907,-7.27375 -0.429042,-11.02451 -0.275814,-1.88297 -0.551627,-3.67484 -0.628242,-5.31485 l -0.07661,-1.47297 -1.164545,0.91112 c -0.199199,0.15185 -0.475012,0.28852 -0.750825,0.44037 -0.06129,0.0304 -0.122584,0.0607 -0.183876,0.1063 -0.03065,-1.36668 0.367751,-2.76372 0.766148,-4.22151 0.536304,-1.89816 1.087931,-3.84187 0.643565,-5.7871 l -0.275814,-1.1389 -0.750825,0.56186 c 0.950024,-2.9915 1.317775,-6.57523 0.934701,-9.56672 l -0.107261,-0.75927 -0.766148,0.1063 c -0.122584,0.0152 -0.245167,0.0456 -0.367751,0.0607 0.337105,-0.82 0.796794,-1.61116 1.287129,-2.41446 0.367751,-0.60741 0.720179,-1.23152 1.041961,-1.88297 0.82744,-0.47226 1.823433,-0.95667 2.712165,-1.29227 0.01532,0.0926 0.04597,0.16704 0.06129,0.24297 0.122584,0.37963 0.26049,0.85189 0.245167,1.10852 l -0.153229,1.91335 1.425035,-1.29075 c 0.444366,-0.39634 1.118577,-0.82001 1.915371,-0.60741 0.858086,0.22778 1.624234,1.15408 2.037954,2.4752 l 0.490335,1.55041 0.888732,-1.36667 c 0.628241,-0.95667 1.608911,-1.41223 2.666196,-1.24519 1.210514,0.21411 2.206506,1.17078 2.512966,2.44482 l 0.275813,1.1389 0.934701,-0.71371 c 1.317775,-1.01741 1.471004,-0.91263 2.957332,0.0152 l 1.041961,0.66815 0.137907,-1.21634 c 0.107261,-1.06145 0.475012,-1.82072 1.011316,-2.06368 0.612918,-0.30371 1.440358,0.0911 2.022631,0.47074 l 1.072607,0.68334 0.107261,-1.26038 c 0.107261,-1.13889 0.551627,-1.86779 1.179868,-1.92853 0.658888,-0.0456 1.54762,0.65297 1.930694,2.09557 l 1.50165,5.54111 0.01532,-5.73852 c 0,-1.10852 0.245168,-1.82223 0.643565,-1.93005 0.766148,-0.21259 2.543612,1.0326 3.508959,2.74854 l 0.566949,1.01893 0.704857,-0.9263 c 2.099246,-2.71816 6.512259,-1.15408 7.814711,-0.60741 l 1.072608,0.44037 0,-1.15408 c 0,-0.24296 0.10726,-0.66815 0.229844,-1.07815 0.107261,-0.37964 0.229845,-0.78964 0.291136,-1.21483 0.842763,0.50112 1.608912,1.29075 2.083924,2.26261 l 0.858086,1.71594 0.566949,-1.83742 c 0.07662,-0.27486 0.321782,-0.63778 0.597596,-1.03412 0.306458,-0.45556 0.643568,-0.97186 0.858088,-1.53371 1.19519,-0.1063 2.25247,0.41152 3.35573,0.97186 0.7355,0.36444 1.50165,0.74407 2.34441,0.95819 l 0.75083,0.1974 0.18387,-0.74407 c 0.16855,-0.69853 0.45969,-1.12371 0.88873,-1.33631 1.21052,-0.57704 3.61622,0.47075 5.54692,1.33631 1.14922,0.50111 2.23715,0.98704 3.15806,1.18445 l 1.34842,0.30218 -0.45969,-1.29074 c -0.15476,-0.42519 -0.22984,-0.91112 -0.30646,-1.4426 -0.0153,-0.044 -0.0153,-0.0759 -0.0322,-0.12149 3.15807,1.30594 4.67504,1.59598 8.07674,1.21634 -0.85962,3.67484 -1.76214,7.34967 -2.63555,11.00933 -2.89757,11.81262 -5.65417,23.65713 -7.98327,35.60794 -1.21051,5.96933 -2.23868,11.96599 -3.26532,17.96417 -1.01131,5.99818 -1.77746,12.07229 -1.8219,18.17677 -0.0919,6.10448 0.41372,12.23933 1.74682,18.2527 1.31777,5.99818 3.50896,11.82932 6.43564,17.26565 0.72018,1.35149 1.51698,2.68779 2.19119,3.97854 0.61292,1.15408 0.783,2.44483 0.81211,3.88743 0,2.83965 -0.61291,5.80077 -1.30245,8.68598 -0.72171,2.90038 -1.62576,5.78558 -2.6049,8.62523 -0.49034,1.39705 -1.02664,2.90039 -1.44036,4.37336 -0.42751,1.48815 -0.81058,2.96113 -1.19366,4.44928 -2.40877,10.11643 -4.32414,20.27538 -5.99434,30.51025 z m 20.44083,49.76213 c 0.13791,0.0456 0.1992,0.12148 0.1992,0.12148 -0.26049,-0.28852 -0.91938,-1.97408 -0.62824,-4.64669 l 0.046,-0.42519 -0.33711,-0.25815 c -1.53229,-1.15408 -2.43788,-2.41445 -2.467,-3.47742 l 0,-0.31889 -0.24516,-0.22778 c -1.70085,-1.53371 -2.45168,-2.91557 -1.31778,-5.4667 l 0.39993,-0.88075 -0.95002,-0.18222 c -2.2678,-0.41 -2.85007,-1.60964 -3.06459,-3.4015 l -0.0322,-0.27333 -0.1992,-0.18223 c -0.21452,-0.21259 -0.36775,-0.39481 -0.44437,-0.53148 0.046,0 0.10726,0 0.18388,0.0152 l 2.83628,0.34926 -2.2678,-1.71593 c -0.5363,-0.39482 -0.85809,-0.68334 -1.02664,-0.85038 0.24517,-0.0455 0.64357,-0.0911 1.28713,-0.10629 l 3.24847,-0.0607 -2.92669,-1.38186 c -1.94601,-0.92631 -2.39038,-1.4426 -2.4057,-1.70075 -0.0306,-0.24297 0.22984,-0.83519 2.19271,-2.20187 l 2.1299,-1.47297 -2.60491,0.1063 c -1.79278,0.0607 -2.86539,-0.12149 -3.2025,-0.57704 -0.42904,-0.59223 0.046,-2.14113 0.45969,-3.26484 l 0.7355,-2.03482 -1.8694,1.13889 c -0.61292,0.37963 -0.88873,0.42519 -0.96534,0.42519 0.0153,-0.0456 -0.0782,-0.34926 0.0597,-1.24519 l 0.0613,-0.39482 -0.30493,-0.27333 c -1.24269,-1.12371 -2.14522,-2.73335 -2.69837,-4.76818 -0.5501,-2.11075 -0.67268,-4.47965 -0.38308,-7.48634 l 0.18388,-1.7463 -1.40972,1.06296 c -1.24116,0.95668 -1.71617,0.88075 -1.83875,0.83519 -0.1992,-0.0759 -0.36775,-0.36444 -0.52098,-0.83519 l 3.21935,-13.77304 c 1.37754,-5.90707 2.84854,-11.81414 4.42834,-17.64528 0.3984,-1.45779 0.81212,-2.91557 1.27181,-4.34299 0.42904,-1.4426 0.96534,-2.7789 1.50011,-4.25187 1.02817,-2.88521 1.97667,-5.80078 2.75967,-8.79228 0.76615,-2.99149 1.39286,-6.05892 1.37753,-9.29338 -0.0153,-0.80482 -0.0766,-1.64001 -0.22831,-2.4752 -0.15476,-0.83519 -0.49033,-1.70075 -0.88873,-2.44483 -0.783,-1.41223 -1.56447,-2.65742 -2.29844,-3.97854 -6.12919,-10.32599 -9.31637,-22.33753 -9.28572,-34.4402 0.0153,-3.02186 0.15323,-6.05892 0.51945,-9.05042 0.33863,-3.00668 0.85962,-5.99818 1.37906,-8.98968 1.02664,-5.98299 2.39039,-11.89006 3.75413,-17.81232 2.83475,-11.81414 5.94531,-23.53717 8.99458,-35.30576 1.02664,-3.99372 2.0686,-7.97226 3.03241,-11.99484 l 0.29114,-0.0456 -0.22984,-0.19741 c 0.15476,-0.60741 0.30646,-1.19963 0.44436,-1.80704 -0.67268,0.16704 -1.37753,0.28852 -2.11457,0.37963 -0.26049,-0.21259 -0.5363,-0.41 -0.79679,-0.57704 l -0.75083,1.13889 c -3.40169,0.37964 -4.61221,-0.0152 -8.50424,-1.68556 l -1.59359,-0.69852 0.56695,1.64001 c 0.13791,0.37963 0.21452,0.86556 0.2896,1.36667 0.0153,0.1063 0.0322,0.21259 0.046,0.33408 -0.50565,-0.2126 -1.0726,-0.45556 -1.63955,-0.71371 -2.34442,-1.0326 -4.99529,-2.20187 -6.83405,-1.30593 -0.64356,0.3037 -1.13389,0.83519 -1.45568,1.56408 -0.44436,-0.18223 -0.90405,-0.39482 -1.36374,-0.63778 -1.36374,-0.66816 -2.89604,-1.42742 -4.796089,-1.01742 l -0.475012,0.0911 -0.10726,0.48592 c -0.107261,0.48593 -0.459689,1.01742 -0.812117,1.51853 -0.03065,0.0607 -0.06129,0.1063 -0.09194,0.15185 -0.858086,-1.107 -2.022631,-1.92853 -3.263792,-2.26108 l -1.179868,-0.32041 0.229845,1.18445 c 0.07661,0.50111 -0.107261,1.18445 -0.275814,1.79338 -0.04597,0.15185 -0.09194,0.30219 -0.137906,0.45556 -3.294438,-1.1556 -6.175155,-0.91264 -7.998588,0.66663 -1.225837,-1.67038 -3.15653,-3.02035 -4.673504,-2.62553 -0.475011,0.12148 -0.995992,0.42367 -1.363743,1.13889 -0.674211,-0.79115 -1.562943,-1.21482 -2.482321,-1.13889 -0.904054,0.0759 -1.930693,0.71371 -2.359736,2.21705 -1.149222,-0.47226 -1.991985,-0.30371 -2.543612,-0.0456 -0.781471,0.36445 -1.348421,1.10853 -1.65488,2.14112 -1.026639,-0.53148 -1.80811,-0.60741 -2.926686,0.0456 -0.658888,-1.36667 -1.900048,-2.33853 -3.371052,-2.5815 -1.24116,-0.21411 -2.421029,0.12149 -3.340406,0.91112 -0.628242,-1.19964 -1.54762,-2.01964 -2.604904,-2.29298 -0.750826,-0.21259 -1.532297,-0.12148 -2.267799,0.2126 -0.03065,-0.10478 -0.06129,-0.2126 -0.09194,-0.31889 -0.07662,-0.24297 -0.183875,-0.6226 -0.183875,-0.74256 l 0.03065,-1.01893 -0.995993,0.24296 c -0.689534,0.18222 -1.532297,0.533 -2.390383,0.9263 0.137907,-0.69852 0.183876,-1.45778 0.04597,-2.27779 l -0.183875,-1.19963 c 0.842763,-1.64001 1.486327,-3.43188 1.24116,-5.33004 l -0.09194,-0.68333 -0.704856,0.0152 c -2.604904,0.1063 -5.133193,1.1389 -6.880011,2.75006 l 0.01532,-1.07816 -1.057285,0.37963 c -1.808109,0.65297 -3.98397,1.4259 -5.776757,2.73335 -0.107261,-0.3037 -0.199199,-0.59374 -0.214522,-0.89593 l -0.01532,-1.50334 -1.210514,0.91112 c -0.475012,0.36444 -0.995992,0.69852 -1.516973,1.03411 -1.026639,0.68182 -2.083923,1.38034 -2.972655,2.27779 l 0.04597,-1.59597 -1.348421,1.23153 c -1.409713,1.30441 -3.355729,3.97854 -3.999294,6.51448 l -0.766148,-0.0456 -0.01532,0.79115 c -0.01532,2.83813 0.490335,5.29815 1.562943,7.5152 -1.287129,4.10002 0.689533,8.01782 2.834748,12.16492 l -0.06129,-0.0456 -0.137907,1.4259 c -0.566949,5.5897 3.003301,11.60306 5.761435,15.65753 -0.04597,-0.0152 -0.09194,-0.0456 -0.122584,-0.0607 l -1.838756,-0.77445 0.842763,1.79186 c 0.98067,2.11075 2.804103,4.52521 4.826734,6.51448 l -1.317775,-0.45556 1.838756,2.12442 c 0.429043,0.48593 0.919378,0.94149 1.39439,1.39705 1.516973,1.42741 2.421028,2.37042 1.884724,3.81302 l -0.199198,0.54515 0.475011,0.3356 c 1.011316,0.7137 1.976663,1.44108 2.926687,2.17149 1.34842,1.0326 2.74281,2.11075 4.229138,3.05224 l 0.750825,-1.15408 0.950024,0 c 0.214521,1.07815 0.475012,2.15631 0.796794,3.18891 l 0.26049,-0.0607 c -0.275813,-1.68557 -0.490335,-3.37114 -0.536304,-5.05822 0,-0.47074 0,-0.92478 0.01532,-1.39704 l 0.01532,-0.25815 c 0.06129,-1.21482 0.260491,-2.41446 0.674211,-3.46073 0.153229,-0.36444 0.352428,-0.69852 0.551627,-0.88074 0.06129,-0.0774 0.122583,-0.1063 0.168552,-0.1063 0.01532,-0.0152 0.03065,-0.0152 0.03065,-0.0152 0,0.0152 -0.01532,0.0152 -0.01532,0.0152 l 0,0.0152 c 0.09194,0.0759 0.26049,0.41152 0.321782,0.72889 0.09194,0.34774 0.199199,0.89593 0.30646,1.30441 0.444366,1.74631 0.965346,3.43339 1.486327,5.13263 1.057285,3.37264 2.160538,6.71189 3.110562,10.06783 0.459689,1.68557 0.934701,3.37113 1.195191,4.98077 0.06129,0.39482 0.107261,0.78963 0.107261,1.10852 0.01532,0.13667 -0.09194,0.80482 -0.107261,1.26038 -0.03065,0.98704 0.01532,1.89816 0.07662,2.80928 0.337105,3.41668 0.934701,6.6967 1.854078,9.9919 0,0.13667 0.03065,0.27334 0.03065,0.39482 0.04597,2.77891 0.459689,4.40373 0.98067,6.46893 0.214522,0.88074 0.459689,1.83742 0.720179,3.02187 -0.168552,0.0152 -0.367751,0.0304 -0.566949,0.0759 l -0.98067,0.24297 0.505658,0.86556 c 0.429043,0.77445 1.39439,1.91334 2.512966,3.24965 2.022631,2.41445 5.087224,6.05892 4.903348,7.60782 -0.01532,0.18222 -0.09194,0.27333 -0.168552,0.33407 l -0.383074,0.27334 0.09194,0.45556 c 0.291137,1.57926 1.210515,2.90038 2.11457,4.16076 0.720179,1.01741 1.409712,1.98927 1.792786,3.06742 -0.09194,0 -0.168552,0 -0.26049,0 -0.229845,-0.0152 -0.475012,-0.0152 -0.720179,-0.0304 l -1.011316,-0.0607 0.214521,0.98705 c 0.367752,1.53371 1.348421,2.70297 2.313768,3.84187 1.041962,1.23001 1.961339,2.32335 2.053277,3.75076 -0.26049,0 -0.551626,0.0152 -0.873409,0.12148 l -0.612918,0.18223 0.07662,0.62259 c 0.183875,1.68557 1.149222,3.03706 2.0686,4.34299 0.367751,0.50111 0.704856,0.98704 0.995992,1.47297 l -1.118576,0.34926 0.934701,0.89593 c 1.118576,1.06297 2.850071,3.2041 3.217822,4.6467 0.107261,0.39481 -0.01532,0.66815 -0.245167,1.12371 -0.229845,0.48592 -0.551627,1.13889 -0.275814,1.92853 0.475012,1.32111 1.409713,2.44482 2.298445,3.53816 0.842763,1.00223 1.639557,1.97409 2.007308,2.9915 -0.10726,0.0152 -0.199198,0.0152 -0.306459,0.0152 l -3.233145,0.10629 2.313767,1.33631 c 1.608911,0.9263 2.650873,2.27779 2.89604,3.73557 -0.09194,0.0152 -0.168552,0.0304 -0.26049,0.0456 l -1.179868,0.28852 0.766148,0.9263 c 0.367751,0.47075 1.057284,1.0326 1.869402,1.70075 1.516973,1.26038 4.075908,3.37113 3.815418,4.60114 -0.107261,0.53148 -0.858086,1.01741 -2.114569,1.38186 l -1.670203,0.50111 1.486327,0.88075 c 1.532296,0.91112 3.355729,2.9915 3.325083,3.59891 -0.01532,-0.0152 -0.107261,0 -0.321782,0 -0.337105,0 -0.965347,-0.0456 -2.037954,-0.31889 l -0.995993,-0.25815 0.04597,1.0326 c 0.04597,1.26037 1.08793,3.09779 2.390382,4.95039 l 0.107261,0.78964 c 0.15323,1.19964 0.260491,2.64224 -0.229844,3.08261 -0.398397,0.34926 -1.409713,0.33407 -3.003301,-0.0607 l -2.329091,-0.56186 1.562943,1.80705 c 1.547619,1.77668 1.394389,2.24742 1.394389,2.24742 0,0 -0.26049,0.37963 -2.466997,0.31889 l -2.175861,-0.0759 1.65488,1.41223 c 3.248469,2.74854 3.279115,4.1304 2.099246,6.16522 l -0.383074,0.63779 0.520981,0.31889 c -0.107261,0.25815 -0.597596,1.0326 -2.712165,2.73335 l -2.007308,1.60963 2.574258,-0.27333 c 2.267799,-0.24297 3.018624,0.0456 3.248468,0.33408 0.429043,0.54667 -0.229844,2.3689 -0.52098,3.1889 l -2.528289,-0.36444 2.099246,1.51852 -0.03065,0.1063 0.137906,-0.0304 0.291137,0.21259 c 1.348421,0.97186 2.0686,1.94372 2.007308,2.67261 -0.06129,0.66815 -0.873409,1.35149 -2.650873,2.23224 l -2.267798,1.13889 2.528289,0.28852 c 2.022631,0.24297 3.095238,0.6226 3.493635,1.21482 0.490335,0.69853 0.229845,2.12594 -0.291136,4.05447 l -0.812117,2.93076 2.099246,-2.20187 c 0.291136,-0.3037 0.490335,-0.47074 0.628242,-0.57704 0.04597,0.25815 0.07661,0.7289 0.04597,1.60964 l -0.03065,0.68334 0.67421,0.0911 c 0.459689,0.0759 0.98067,0.94149 1.041962,2.14112 0.07661,1.30594 -0.459689,2.59668 -1.685527,4.03929 l -1.179868,1.38186 1.80811,-0.13667 c 0.766148,-0.0456 3.064593,-0.22778 3.539605,0.39481 0.444364,0.59223 -0.30646,2.59669 -0.551627,3.24965 l -1.195191,3.17372 2.436352,-2.35371 c 0.58227,-0.56186 0.96535,-0.88075 1.21052,-1.04779 -0.0153,0.30371 -0.0613,0.78964 -0.22985,1.59446 l -0.18388,0.9263 -1.991982,0.74408 3.677512,0.16703 c 2.14522,0.1063 3.26379,0.47075 3.29444,1.12372 l 0.0306,0.39481 0.3371,0.19741 c 0.27581,0.18222 0.50566,0.71371 -0.85809,3.2952 l -1.42503,2.6878 2.52829,-1.71594 c 1.85408,-1.24519 2.58958,-1.42741 2.88072,-1.38186 0.0306,0.0152 0.0766,0.0152 0.1379,0.1063 l 0.24517,0.36445 0.44437,-0.0304 c 0.41525,-0.0152 0.78147,0.71371 1.13389,2.4752 -0.046,0.25815 -0.10726,0.56186 -0.16855,0.88075 l -0.47501,2.20186 1.05575,-0.91111 0.81212,4.28224 0.3371,-5.22373 c 0.79833,-0.57704 1.25649,-0.63778 1.48786,-0.60741 0.10573,0.0152 0.27582,0.0607 0.44437,0.24296 -0.0935,0.24297 -0.32178,0.66816 -0.7355,1.29075 l 1.25648,0.86556 c 0.98067,-1.42741 2.68152,-2.4752 7.98327,0.48593 l 0.58227,0.31889 0.41372,-0.53148 c 1.10478,-1.4426 3.54114,-1.18445 3.55493,-1.18445 l 0.10726,-0.68334 0.42751,-0.71371 c -0.0766,-0.0455 -0.27582,-0.0911 -0.53631,-0.1063 -0.98067,-0.10629 -2.98797,0.0456 -4.3364,1.27557 -2.34441,-1.24519 -5.0106,-2.30816 -7.18493,-1.5489 -0.0169,-0.0456 -0.0322,-0.0759 -0.046,-0.1063 l -0.24517,-0.42518 -0.13791,0 c -0.38307,-0.39482 -0.84276,-0.6226 -1.36374,-0.68334 -0.47654,-0.0607 -0.99599,0.0304 -1.5323,0.27333 0,-0.0455 0,-0.0759 0,-0.12148 0.15323,-0.97186 0.0306,-1.07815 -0.21605,-1.27556 l -0.3509,-0.28852 -0.13943,0.0607 c -0.36622,-0.91112 -0.90406,-1.64001 -1.82191,-1.74631 -0.24516,-0.21259 -0.52098,-0.36444 -0.84276,-0.42518 -0.52098,-0.0911 -1.11857,0 -1.90005,0.36444 0.33711,-1.04778 0.38308,-2.11075 -0.39839,-2.82446 -0.24517,-1.10852 -1.30245,-1.64001 -2.40571,-1.89816 0.18388,-0.22778 0.24517,-0.41 0.27581,-0.57704 0.046,-0.33407 -0.0766,-0.66815 -0.35242,-0.88074 -0.47502,-0.36445 -1.30246,-0.30371 -2.08393,-0.1063 0.13791,-1.15408 0.0153,-1.86779 -0.59759,-2.20186 -0.36775,-0.19741 -0.76615,-0.18223 -1.21052,0.0152 0.18388,-0.97186 0.10726,-1.74631 -0.35243,-2.3689 -0.61292,-0.80482 -1.731492,-1.06297 -3.248466,-1.06297 0.796795,-1.27556 1.149223,-2.50557 1.072608,-3.78113 -0.07662,-1.35149 -0.612919,-2.77891 -1.670203,-3.34076 0.01532,-1.26038 -0.107261,-2.33853 -0.934701,-2.6878 -0.214521,-0.0911 -0.429043,-0.10629 -0.643564,-0.0759 0.26049,-1.45779 0.214521,-2.55113 -0.367752,-3.4015 -0.459689,-0.69853 -1.24116,-1.16927 -2.497643,-1.50334 0.904055,-0.63779 1.562943,-1.39705 1.65488,-2.38409 0.06129,-0.66815 -0.137906,-1.62483 -1.179868,-2.76372 0.245168,-0.1063 0.429043,-0.24297 0.551627,-0.44037 0.199198,-0.30371 0.199198,-0.68334 -0.01532,-0.98705 -0.199199,-0.3037 -0.56695,-0.50111 -1.072608,-0.56185 0.444366,-1.42742 0.643565,-2.73335 -0.07661,-3.62928 -0.459689,-0.59223 -1.210515,-0.91112 -2.390383,-0.98704 1.210514,-1.15408 1.716172,-1.97409 1.65488,-2.6878 0,-0.16704 -0.04597,-0.31889 -0.122583,-0.47074 1.287129,-2.55113 0.597595,-4.38854 -1.287129,-6.31707 0.904055,-0.13667 1.65488,-0.44038 1.976662,-1.12371 0.306459,-0.6226 0.183876,-1.36668 -0.429043,-2.33854 1.118576,0.0759 1.900048,-0.12148 2.451674,-0.62259 0.658888,-0.57704 0.873409,-1.45779 0.858086,-2.62705 0.107261,0.15185 0.229845,0.3037 0.337105,0.44037 l 0.214522,0.27333 1.210514,-0.9263 -0.04597,-0.0607 c 0.352428,-0.21259 0.643565,-0.54667 0.888732,-0.94148 0.858086,0.82 1.900048,0.95667 3.248473,0.44037 0.78146,2.42964 2.31376,4.10002 5.2098,5.69447 -0.0919,1.16927 0.0766,2.39928 0.68953,2.9915 0.18388,0.98705 0.45969,1.89816 0.96535,2.52076 -0.10726,0.75926 -0.24517,1.51853 -0.36775,2.29297 l 0.27581,0.0456 0.45969,-2.01964 c 0.13791,0.1063 0.26049,0.22778 0.42904,0.28852 0.65889,0.25815 1.34843,0.1063 1.99199,-0.18222 -0.13791,2.49038 0.0306,4.58595 0.55009,6.48411 0.56695,2.17149 1.5323,3.93298 2.85008,5.23891 -0.10727,0.89594 -0.046,1.86779 0.68953,2.35372 0.30646,0.19741 0.62824,0.24297 0.98067,0.2126 -0.33711,1.29074 -0.3509,2.33853 0.24517,3.12816 0.44436,0.60741 1.17986,0.97186 2.32909,1.12371 -0.78147,0.74408 -1.20899,1.45779 -1.14923,2.24742 0.0613,0.72889 0.52252,1.30594 1.30399,1.8526 -0.33711,0.16704 -0.56695,0.39482 -0.67421,0.7289 -0.18388,0.57704 0.12258,1.12371 0.66042,1.65519 -0.0935,0.1063 -0.15476,0.2126 -0.21606,0.31889 -0.2896,0.6226 -0.0153,1.42742 0.72172,2.20187 0.22831,1.64001 0.87187,3.46224 3.36952,4.23669 -0.96535,2.93076 0.29113,4.76817 1.79278,6.1804 0.21606,1.73112 1.63956,3.18891 2.69838,4.03929 -0.22985,2.87001 0.4888,5.16299 1.37753,5.64892 0.046,0.0304 0.10726,0.0607 0.15476,0.0759 l 0.45969,-1.46386 z M 52.796285,267.35209 c 0.337105,3.37265 -0.214521,8.71635 -1.011315,11.63192 l -0.275814,1.00223 1.041962,-0.0456 c 0.06129,0 0.107261,-0.0152 0.183875,-0.0304 -0.01532,0.39482 -0.01532,0.78963 -0.01532,1.18293 l 0,0.94149 c -1.363743,-0.88075 -2.635549,-1.8526 -3.968647,-2.87002 -0.82744,-0.63778 -1.65488,-1.27556 -2.528289,-1.89816 0.367751,-1.67038 -0.505658,-2.93075 -1.562943,-4.00891 l 5.975956,2.4752 -6.067893,-4.14558 c -2.283122,-1.56408 -4.688827,-4.14406 -6.25177,-6.59041 0.168553,0.0607 0.321782,0.12149 0.475012,0.18223 l 2.604904,1.23001 -1.65488,-2.33854 c -2.405705,-3.41668 -6.726781,-9.52116 -6.92598,-15.16856 0.183876,0.13666 0.337105,0.27333 0.475012,0.42367 l 3.539605,3.94968 -2.267799,-4.76969 c -0.505658,-1.04626 -1.041962,-2.07886 -1.547619,-3.06742 -2.175861,-4.20784 -4.060586,-7.82042 -2.758134,-11.48159 l 0.107261,-0.31889 -0.15323,-0.287 c -0.858086,-1.68556 -1.348421,-3.55335 -1.486327,-5.64892 l 0.490335,0.044 0.03065,-0.8033 c 0.06129,-1.6719 1.256483,-3.96336 2.604903,-5.63374 0.01532,0.044 0.01532,0.0911 0.03065,0.11996 l 0.352429,2.18668 1.08793,-1.88297 c 0.812117,-1.47297 2.237153,-2.41446 3.738803,-3.39998 0.199199,-0.13819 0.41372,-0.27486 0.612919,-0.41152 0.04597,0.0911 0.07662,0.18222 0.10726,0.27333 0.107261,0.27485 0.199199,0.51782 0.214522,0.72889 l 0.15323,1.51853 1.133899,-1.04778 c 1.425036,-1.32112 3.447667,-2.1715 5.255777,-2.83965 0.03065,0.27486 0.07661,0.54667 0.07661,0.79115 l 0,2.52076 1.39439,-2.09557 c 1.39439,-2.06519 3.968648,-3.17524 6.159832,-3.44857 -0.03065,1.93004 -1.103254,3.79631 -2.160538,5.61855 -0.199199,0.34774 -0.398397,0.69852 -0.582273,1.04778 l -2.129892,3.84036 3.30976,-2.91558 c 0.15323,-0.13666 0.337106,-0.27333 0.520981,-0.39481 -0.07662,0.60741 -0.26049,1.16926 -0.490335,1.73112 -0.82744,0.48593 -1.50165,0.95667 -1.808109,1.30593 l 0.750825,0.68334 c -0.03065,0.044 -0.06129,0.10478 -0.09194,0.16552 -0.735502,1.23152 -1.486328,2.4919 -1.80811,4.01043 l -0.214521,1.00223 1.026638,-0.0926 c 0.275814,-0.0152 0.551627,-0.0759 0.82744,-0.13667 0.260491,3.31039 -0.429043,7.34967 -1.731495,10.0982 l -1.379066,2.91558 2.558935,-2.00446 c 0.183875,-0.13667 0.444366,-0.28852 0.720179,-0.44037 0.01532,1.24519 -0.367751,2.56631 -0.750825,3.94817 -0.551627,1.9589 -1.118577,3.99524 -0.674211,6.09081 l 0.275814,1.30441 0.995992,-0.91111 c 0.199199,-0.18223 0.520981,-0.34926 0.842763,-0.53301 0.122584,1.35301 0.337106,2.76372 0.56695,4.2367 0.643565,4.29743 1.302452,8.74823 -0.07662,12.24084 l -1.425035,3.56854 2.681518,-2.7622 c 0.214522,-0.22322 0.551627,-0.42063 0.873409,-0.58767 z"
       inkscape:connector-curvature="0"
       style="fill:#010202" /><g
       id="g20"
       transform="matrix(1.5322964,0,0,-1.5185271,-293.90751,576.35717)" /></g></svg>