<?xml version="1.0" encoding="UTF-8" standalone="no"?>
<!-- Created with Inkscape (http://www.inkscape.org/) -->

<svg
   xmlns:dc="http://purl.org/dc/elements/1.1/"
   xmlns:cc="http://creativecommons.org/ns#"
   xmlns:rdf="http://www.w3.org/1999/02/22-rdf-syntax-ns#"
   xmlns:svg="http://www.w3.org/2000/svg"
   xmlns="http://www.w3.org/2000/svg"
   xmlns:sodipodi="http://sodipodi.sourceforge.net/DTD/sodipodi-0.dtd"
   xmlns:inkscape="http://www.inkscape.org/namespaces/inkscape"
   id="svg2"
   version="1.1"
   inkscape:version="0.91 r13725"
   width="308"
   height="672"
   xml:space="preserve"
   sodipodi:docname="sc-w-1-1.svg"><metadata
     id="metadata8"><rdf:RDF><cc:Work
         rdf:about=""><dc:format>image/svg+xml</dc:format><dc:type
           rdf:resource="http://purl.org/dc/dcmitype/StillImage" /><dc:title></dc:title></cc:Work></rdf:RDF></metadata><defs
     id="defs6" /><sodipodi:namedview
     pagecolor="#ffffff"
     bordercolor="#666666"
     borderopacity="1"
     objecttolerance="10"
     gridtolerance="10"
     guidetolerance="10"
     inkscape:pageopacity="0"
     inkscape:pageshadow="2"
     inkscape:window-width="1920"
     inkscape:window-height="1015"
     id="namedview4"
     showgrid="false"
     inkscape:zoom="0.5"
     inkscape:cx="-59.006465"
     inkscape:cy="300.7607"
     inkscape:window-x="0"
     inkscape:window-y="0"
     inkscape:window-maximized="1"
     inkscape:current-layer="g10" /><g
     id="g10"
     inkscape:groupmode="layer"
     inkscape:label="ink_ext_XXXXXX"
     transform="matrix(1.25,0,0,-1.25,0,672.00001)"><g
       id="g12"
       transform="matrix(0.15276318,0,0,0.15383245,26.415966,93.360711)"><path
         d="m 666.109,2423.44 c -9.445,3.93 -18.359,4.53 -26.855,12.01 -10.813,-15.15 -68.77,-3.96 -90.051,0.9 -2.449,-18.59 -19.773,-24.32 -35.277,-16.84 1.117,-1.86 4.613,-4.72 6.019,-6.15 -8.761,-2.94 -14.586,-8.33 -26.668,-7.09 2.934,-16.23 -6.269,-26.34 -9.914,-38.91 21.407,-10.18 9.215,-19.68 -10.07,-17.75 2.602,-4.18 1.926,-10.78 6.469,-16.17 -11.285,-14.03 -27.946,-20.4 -43.063,-27.23 1.594,-10.65 10.004,-18.15 21.403,-22.76 -9.516,-4.72 -14.508,-12.54 -21.653,-19.33 11.809,-1.59 22.356,-5.55 30.071,-14.1 -11.559,-6.74 -25.618,-10.09 -29.973,-22.75 10.543,0.28 13.769,-5.61 22.379,-8.01 -7.766,-14.44 -15.031,-30.5 -22.324,-44.98 8.293,-8.09 14.367,-13.5 25.918,-14.67 -9.766,-14.55 -28.207,-23.11 -35.911,-38.85 8.989,-3.91 10.996,-10.66 22.489,-11.31 -7.985,-8.79 -17.442,-19.15 -22.649,-29.34 31.774,-9.46 0.246,-33.55 0.16,-52.83 3.844,1.51 11.657,0.91 15.582,2.4 -1.539,-7.59 2.282,-17.98 1.075,-25.72 15.91,2.86 29.062,15.74 33.515,32.55 2.668,-2.5 9.543,-5.21 12.727,-8.57 12.75,8.93 9.23,28.11 14.113,41.67 2.856,-1.43 6.379,-3.38 9.402,-4.91 -1.578,10.35 1.063,21.41 0.243,31.56 3.859,-1.52 11.746,-0.63 15.589,-2.39 0.422,11.67 0.797,24.03 1.086,35.74 34.059,-2.65 7.461,55.95 6.004,72.65 6.196,-10.4 11.907,-20.98 20.164,-29.14 11.766,11.72 6.317,36.1 7.157,53.14 3.781,-1.52 11.718,-0.65 15.507,-2.39 7.129,19.49 3.391,41.99 4.582,62.48 4.637,-4.51 9.063,-4 13.321,-12.31 -0.039,-0.01 9.597,-0.61 8.933,-0.08 0.286,11.65 0.657,23.97 1.075,35.57 16.211,5.97 40.957,5.31 30.664,30.08 5.175,-0.86 13.047,2.06 18.261,0.99 4.805,13.27 1.934,27.15 -6.582,39.51 7.11,11.51 17.793,18.41 29.903,13.84 -3.203,8.39 -3.301,17.57 -6.153,26.16"
         style="fill:#d2d4d1;fill-opacity:1;fill-rule:nonzero;stroke:none"
         id="path14-3"
         inkscape:connector-curvature="0" /><path
         d="m 529.18,2082.2 c 0,0 59.535,-282.34 69.203,-316.69 9.668,-34.35 54.062,-104.95 26.32,-124.17 -27.746,-19.21 -73.586,-140.86 -76.758,-173.04 -3.179,-32.19 11.375,-233.41 28.778,-318.04 17.422,-84.63 67.265,-298.01 67.265,-298.01 l 13.965,-79.551 c 0,0 -33.894,-251.73 0,-349.258 33.899,-97.531 44.863,-181.589 44.863,-181.589 L 696.109,39.6914 657.484,34.6211 629.703,26.5313 556.938,34.6914 90.1016,20.6016 c 0,0 -27.8711,12.0468 -39.8828,57.1093 -2.9532,11.0704 1.6328,56.0591 -1.4454,68.0591 -12.3906,48.351 -14.6171,90.429 -19.207,124.402 -4.3281,32.019 -18.1875,76.316 -16.3789,160.769 0.625,29.079 -1.1953,75.438 -0.1602,104.809 0.6797,19.27 -1.1289,43.52 -0.3281,61.84 1.7383,39.769 2.2071,67.172 4.1641,96.019 1.3359,19.641 23.0156,55.723 24.2695,66.879 1.2852,11.442 -7.6836,24.114 -5.1914,41.024 3.793,25.699 7.4961,57.019 12.9609,88.797 5.3829,31.332 8.8477,54.421 14.5469,84.011 6.6094,34.34 25.8438,69.49 30.9727,90.43 3.6601,14.92 8.4651,31.1 10.4841,34.05 11.41,16.69 20.043,60.17 20.043,60.17 l 51.156,47.8 11.36,-61.71 45.308,121.72 20,66.66 -10,46.67 -21.699,3.98 51.699,109.35 -17.328,-0.41 33.993,73.75 13.839,60.5 38.211,104.05 41.285,55.45 10.313,58.24 23.019,53.66 7.008,24.94 12.739,39.32 -12.739,17.04"
         style="fill:#8f9190;fill-opacity:1;fill-rule:nonzero;stroke:none"
         id="path16-6"
         inkscape:connector-curvature="0" /><path
         d="m 176.109,1216.77 c -24.793,-20.99 -40.054,-49.61 -61.769,-68.05 -1.508,-3.62 -3.016,-7.88 -4.559,-11.35 6.008,3.07 15.957,4.38 22.477,9.06 -10.656,-35.54 -55.4377,-70.59 -52.3283,-109.14 4.5078,1.39 11.3828,0.81 15.7578,2.39 -10.9062,-29.62 -32.0352,-56.36 -39.4961,-85.828 5.4922,2 14.6094,0.808 19.5547,2.507 -2.8438,-28.007 -26.0977,-55.468 -32.4688,-82.41 3.1524,1.512 8.043,2.641 12.25,4.992 3.3008,-28.66 -17.7382,-68.589 -25.7578,-94.902 3.5196,0.91 8.4336,1.07 12.5,2.402 7.625,-38.929 -32.2148,-72.882 -25.5781,-112.57 3.2891,1.039 5.7344,1.981 9.4805,3.488 11.9219,-30.16 -12.5508,-62.527 -16.31643,-93.488 3.09373,-0.801 5.96093,-0.359 9.08983,-0.922 4.5274,-26.09 -10.28124,-47.57 -9.01561,-72.57 2.20311,2.133 6.92581,5.883 9.73441,8.742 -3.2852,-17.769 -30.836,-114.781 -0.7188,-110.25 1.7852,-35.5 -1.3281,-72.269 1.1719,-107.68 3.1133,1.918 6.5156,3.868 8.7383,5.141 1.8711,-27.133 -0.4922,-55.293 1.164,-82.461 3.4805,0.539 5.4141,1.828 8.7461,2.57 2.0391,-30.609 -0.6718,-62.109 1.336,-92.73 1.7304,2.769 6.4453,8 8.6718,12.059 1.7032,-24.528 -10.6953,-83.2387 19.9141,-88.5903 2.2539,4.7109 4.1719,6 6.7656,9.2617 6.0078,-15.582 5.1133,-32.3125 14.6485,-45.8398 14.2074,0.0468 26.4454,8.9882 31.9184,22.0078 0.168,-5.2578 4.246,-12.5899 4.656,-18.5703 17.137,-8.2578 18.195,11.0195 36.269,12.8906 15.282,1.582 30.356,-12.4609 50.407,-13.0586 6.281,-0.1914 6.179,13.4492 16.273,13.1406 3.898,-0.1211 11.645,-9.7812 13.891,-9.4922 15.476,1.9688 22.629,-8.3281 35.269,8.9922 9.34,-39.89061 30.18,-4.5312 43.91,-2.8398 11.535,1.4179 18.981,-12.6836 33.582,-10.2227 12.039,2.0313 20.789,11.7227 30,19.7305 8.856,-25.1406 18.618,-9.6797 30.653,-9.8086 1.648,-0.0117 10.851,12.4375 16.031,13.7109 2.547,0.6172 15.363,-13.7617 23.148,-14.0312 7.989,-0.2695 12.621,14.4492 19.891,13.9375 7.059,-0.5 10.711,-11.2891 16.602,-11.1172 18.136,0.5391 35.039,4.5898 53.003,7.0586 -0.21,-4.0586 0.739,-8.8594 0.661,-13.0391 19.453,-9.25 27.019,10.3477 42.586,18.961 7.773,-25.4297 60.156,-33.0821 60.41,-3.0821 6.789,-17.25 23.926,-19.0976 36.105,-6.0703 0.43,-1.9375 0.887,-3.8594 1.387,-5.789 5.652,2.4687 6.531,0.6093 9.355,-3.8008"
         style="fill:none;stroke:#050606;stroke-width:10;stroke-linecap:butt;stroke-linejoin:miter;stroke-miterlimit:10;stroke-dasharray:none;stroke-opacity:1"
         id="path18-0"
         inkscape:connector-curvature="0" /><path
         d="m 242.773,1380.11 c -1.332,-5.17 -12.851,-16.85 -26.152,-16.16 0.801,17.17 11.16,35.26 18.031,52.05 -4.636,17.22 30.461,50.24 34.45,73.61 -4.883,0.02 -10.504,3.05 -13.657,3.42 8.383,23.48 26.719,47.07 40.395,66.65 -4.977,-2.73 -17.231,-3.53 -22.555,-5.81 0.039,31.84 38.965,46.44 51.641,72.4 -6.16,-1.39 -15.281,1.92 -21.649,1.01 -0.074,19.9 22.914,34.16 35.993,48.83 -4.84,-0.57 -11.184,1.43 -16.071,1.17 -3.414,22.09 23.473,26.71 32.563,42.91 -6.492,1.9 -10.301,9.15 -14.274,11.14 17.496,12.83 41.711,25.41 47.684,44.94 -46.945,-8.34 7.043,42.24 9.836,53.26 -4.16,0.21 -8.903,1.68 -12.563,1.99 7.868,18.56 22.016,38.11 32.727,54.75 -4.859,-0.5 -11.109,1.46 -15.973,1.01 2.172,14.34 14.227,24.71 21.649,36.4 -4.989,-0.55 -10.344,0.64 -15.067,0.27 6.621,14.28 19.844,24.63 26.071,38.99 -31.297,-1.14 -7.688,26.03 3.359,37.41 0.098,-0.07 -6.559,6.36 -3.606,3.09 10.008,3.34 15.934,4.74 24.747,12.84 5.175,-2.33 10.152,-0.85 15.25,-2.33 -0.704,5.45 1.957,13.15 1.179,18.41 5.489,-6.51 13.727,-8.51 18.821,-12.85 0.968,12.54 0.277,27.91 1.746,38.78 3.574,-3.92 8.519,-6.16 12.246,-9.27 8.039,12.61 7.73,29.22 7.011,44.08 28.375,-12.94 23.192,22.72 22.844,40.83 -0.379,0.6 7.528,-4.97 9.406,-6.73 1.551,24.53 -0.832,48.65 -5.667,71.9 6.171,-8.5 15.519,-14.37 23.156,-21.33 5.672,17.09 2.566,39.51 3.601,58.75 2.871,-2.08 9.094,-4.18 12.149,-6.23 8.117,17.81 7.402,36.92 7.929,56.06 3.008,-2.56 15.735,-6.59 18.829,-9.22 0.859,11.77 0.312,24.16 1.093,35.98 15.606,-6.48 25.391,2.55 23.34,19.07 28.84,-17.48 30.149,11.12 19.082,30.45 1.953,-2.03 4.61,-5.75 6.328,-8.03 7.051,11.21 3.262,25.73 1.262,38.51 4.227,-2.66 11.152,-3.46 15.477,-6 1.425,15.35 -1.914,34.73 -5.996,46.33"
         style="fill:none;stroke:#050606;stroke-width:10;stroke-linecap:butt;stroke-linejoin:miter;stroke-miterlimit:10;stroke-dasharray:none;stroke-opacity:1"
         id="path20-6"
         inkscape:connector-curvature="0" /><path
         d="m 672.777,2423.44 c -15.429,-0.12 -21.218,12.69 -26.757,25.5 0.175,-6.19 -3.809,-12.48 -4.481,-18.33 -12.148,-1.95 -21.672,2.63 -29.035,12.84 -0.527,-2.9 -3.711,-8.96 -4.375,-13.29 -5.274,3.04 -16.922,3.58 -21.453,6.13 -0.363,-1.87 -0.754,-3.74 -1.145,-5.6 -12.695,0.65 -24.707,5.91 -35.574,12.43 2.684,-3.94 3.867,-12.32 5.723,-15.76 -11.45,-0.77 -23.422,-0.91 -35.075,-0.42 3.387,-4.05 5.403,-9.21 8.5,-12.82 -11.042,1.24 -20.898,2 -32.66,2.5 4.063,-7.21 5.039,-20.23 9.219,-25.93 -40.469,8.92 -26.344,-19.22 -7.394,-37.24 -12.176,-2.57 -23.704,-5.74 -32.657,-13.16 4.391,-2 9.508,-8.98 16.891,-10.93 -12.477,-12.95 -35.863,-17.04 -46.875,-32.75 7.219,-2.47 17.047,-12.11 23.469,-15.59 -9.625,-5.1 -19.356,-12.65 -25.907,-20.17 10.586,-2.92 21.883,-8.19 30.055,-14.07 -10.906,-6.68 -25.262,-12.82 -36.875,-20.73 5.942,-2.37 18.063,-8.68 26.875,-9.04 -5.449,-14.13 -19.848,-22.88 -22.418,-38.24 9.34,-6.56 18.742,-12.7 28.344,-18.49 -9.223,-16.24 -34.52,-20.67 -32.574,-43.01 8.34,-0.11 13.793,-5.18 22.574,-4.33 -6.02,-9.41 -15.75,-17.46 -23.469,-26.16 5.457,-1.82 12.344,-9.3 19.899,-10.58 -2.387,-15.3 -16.008,-24.78 -22.489,-38.92 6.746,1.19 15.797,-2.14 22.551,-1.01 -4.258,-10.13 -11.453,-21.06 -12.141,-32.56 4.836,2.45 0.692,5.18 2.582,9.73"
         style="fill:none;stroke:#050606;stroke-width:10;stroke-linecap:butt;stroke-linejoin:miter;stroke-miterlimit:10;stroke-dasharray:none;stroke-opacity:1"
         id="path22-2"
         inkscape:connector-curvature="0" /><path
         d="m 1016.61,505.5 c 8.3,-7.18 10.78,-62.441 10.76,-73.891 -0.04,-28.91 -14.28,-47.789 1.76,-75.039 -3.23,-0.648 -6.18,-0.558 -9.37,-1.34 18.02,-55.941 35.38,-110.449 45.93,-167.191 -4.76,0.621 -11.15,-1.59 -15.92,-1.019 5.53,-19.918 26.31,-53.301 3.26,-64.379 12.56,-15.832 25,-36.1918 17.4,-56.0121 -2.41,0.4102 -3.8,2.4219 -7.15,2.6094 2.6,-10.0195 3.44,-21.6172 2.33,-32.7188 -5.75,1.711 -17.13,0.0313 -22.5,2.1719 8.2,-10.8516 1.48,-11.1719 2.4,-22.3125 -12.22,-2.7891 -22.28,1.4219 -28.83,11.8906 C 1020.3,-4 989.379,4.51953 992.777,31.6914 994.984,22.1992 991.137,13.832 989.672,6.03906 969.352,10.7383 956.098,26.6797 953.52,47.6914 c 0.117,-6.75 -3.438,-11.2812 -4.668,-17.8398 -16.661,-3.0196 -27.813,8.7695 -26.817,25.3281 -1.336,-10.6211 -7.683,-12.3789 -12.695,-19.5977 -5.438,8.6485 -10.235,7.5899 -10.652,20.3477 -4.043,-17.5078 -19.465,-30.8203 -31.418,-12.25 -3.36,-5.2109 -11.622,-9.5195 -14.825,-15.2695 -7.578,8.8007 -8.379,20.8711 -6.172,33.5117 -5.546,-13.6836 -8.789,-9.6719 -16.347,-15.293 1.504,16.793 -3.426,30.3711 -0.547,45.6328 3.73,19.8083 16.328,41.3863 22.969,60.5903 -5.176,-6.18 -11.485,-8.571 -15.645,-12.012 1.797,41.711 22.637,80.082 28.985,120.449 -3.418,-0.359 -5.762,-2.019 -9.083,-2.719 -0.632,19.16 9.375,38.012 16.485,55.809 -3.145,-3.137 -7.606,-6.559 -9.981,-8.91 6.457,13.363 14.766,27.793 12.336,43.34 -4.015,-3.559 -12.715,-6.977 -15.586,-9.309 10.75,23.051 40.235,75.781 29.657,100.23 -3.907,-3.179 -12.559,-6.23 -16.407,-9.398 5.743,14.078 14.746,27.777 15.899,43.066 -5.059,-1.847 -14.375,-0.82 -19.227,-2.488 6.942,14.52 17.84,29.168 15.828,46.192 -5.859,-3.293 -20.535,-5.622 -25.742,-9.153 5.996,30.063 26.035,50.27 29.707,81.199 1.164,9.821 -9.082,98.313 -10.976,96.661 -2.325,-2.02 -6.289,-4.59 -8.575,-6.36 -3.984,64.141 -20.332,116.34 -20.593,182.039 2.8,2.461 -2.121,-3.136 -3.242,-4.34 -15.149,19.481 1.414,65.043 -19.583,75.141 -3.203,23.332 6.661,46.43 0.411,68.981 -2.93,-3.059 -7.657,-6.071 -10.243,-8.668 -4.23,59.548 -1.691,116.528 -0.421,177.118 -2.969,-0.66 -6.219,-1.39 -9.747,-1.77 -0.664,11.63 -0.8,23.69 -0.253,35.45 -1.766,-1.07 -4.317,-4.17 -6.348,-5.41 -1.406,23.87 -0.801,48.56 -0.391,72.64 -2.05,-2.99 -4.804,-6.86 -6.16,-9.07 0.945,13.77 4.188,28.12 0.125,40.49 -2.305,-3.51 -1.004,-4.85 -4.121,-7.89 -23.945,54.29 20,116.39 20.137,168.41 -2.547,-3.71 -4.59,-7.45 -6.973,-11.27 11.699,67.68 17.344,129.77 17.051,200.04 -2.762,-2.95 -7.598,-6.71 -9.746,-8.91 -3.028,24.45 10.996,47.92 8.945,72.73 -1.844,-1.47 -3.691,-2.94 -5.527,-4.42 -0.059,15.81 4.609,31.94 2.363,48.03 -2.617,-1.27 -5.371,-1.82 -8.289,-1.64 -6.68,40.2 1.687,79.55 -5.305,120.43 -3.328,-2.25 -9.617,-4.32 -12.09,-5.91 -0.507,13.35 3.907,25.64 6.309,38.79 -3.191,-2.46 -6.641,-5.16 -9.727,-7.82 -0.632,26.79 5.852,50.44 6.915,72.99 1.046,22.3 17.304,43.28 18.73,67.01 -4.051,-1.3 -8.777,-1.69 -12.383,-2.6 3.137,9.88 6.68,22.55 9.16,32.75 -3.164,0.78 -5.918,0.3 -9.082,0.99 1.379,12.86 6.66,25.92 5.664,39.42 -3.164,0.78 -5.918,0.24 -9.082,0.99 4.942,10.97 10.325,23.04 9.082,36.05 -3.144,0.98 -5.964,0.23 -9.168,0.99 8.68,13.61 9.883,32.94 -6.671,40.72 7.257,13.43 21.035,26.33 22.589,42.47 -3.214,0.66 -6.066,0.37 -9.25,1.16 11.028,10.88 14.336,23.56 -3.339,26.94 13.351,10.75 30.91,26.55 6.671,37.21 5.086,2.22 12.43,11.3 19.149,13.49 -12.188,10.35 -31.094,27.85 -6.66,33.3 -2.461,9.63 -4.5,19.1 -7.95,28.41 28.438,-0.96 34.532,20.55 32.012,45.5 5.723,-7.45 12.696,-13.09 18.946,-20 5.761,10.29 14.464,11.34 20.343,15.8 -0.754,-6.89 2.117,-15.82 1.074,-22.6 4.833,4.6 19.5,11.64 25.516,15.98 0.762,-3.22 0.234,-5.98 1.055,-9.18 12.707,2.65 25.39,7.58 39.004,5.72 -4.578,-6.88 -3.809,-13.33 -15.078,-18.86 16.933,-5.74 58.554,-16.22 15.832,-27.7 6.746,-6.28 16.367,-14.9 22.839,-20.45 -2.839,-1.09 -6.816,-2.3 -9.843,-3.6 8.234,-8.93 19.57,-16.87 26.328,-25.78 -6.992,-1.68 -10.879,-7.3 -19.082,-7.99 -1.25,-18.47 14.922,-24.47 22.5,-39.41 -5,1.07 -11.668,0.34 -16.629,1.53 6.016,-12.35 13.133,-25.61 19.148,-38.58 -2.832,-1.11 -5.39,-0.06 -8.359,-0.99 -1.719,-14.2 3.125,-26.84 9.113,-39.48 -2.597,0.64 -6.379,2.01 -9.074,2.43 7.16,-8.18 11.797,-18.88 12.324,-29.31 -2.879,-0.47 -5.898,0.27 -8.672,-0.44 10.263,-18.77 20.533,-37.81 27.833,-57.61 -3.09,2.23 -8.28,4.3 -11.33,6.66 0.59,-24.23 -4.22,-57.77 5.67,-79.91 -6.09,2.36 -12.876,1.6 -19.341,5.97 6.991,-12.7 11.251,-27.73 9.161,-43.01 -4.747,-0.01 -7.579,0.67 -12.325,1.59 0.41,-4.41 -0.683,-10.49 -1.015,-15.07 -5.957,1.7 -12.559,-0.59 -18.985,2.52 2.149,-8.54 0.625,-14.63 5.762,-22.64 -0.574,-0.06 -7.918,1.02 -6.758,1.54 8.692,-7.46 16.504,-17.58 20.149,-28.56 -5.774,0.67 -13.41,-1.91 -19.121,-1.05 2.82,-6.35 2.703,-15.84 9.421,-22.98 -2.265,0.1 -4.343,0.77 -6.25,2.01 5.528,-6.61 8.047,-15.95 15.118,-22.43 -9.403,2.42 -19.766,0.92 -28.418,2.93 3.625,-8.83 11.308,-18.96 19.25,-25.67 -4.035,-0.12 -8.496,-0.93 -12.551,-1.18 3.105,-14.81 16.699,-26.97 25.879,-39.21 -3.875,-0.35 -8.086,-0.83 -11.903,-1.19 7.84,-8.12 15.75,-17.41 21.977,-25.85 -5.727,-1.45 -9.762,-5.81 -13.531,-7.32 8.594,-7.63 18.531,-17.06 25.981,-27.03 -3.38,-1.96 -6.83,-5.09 -9.33,-6.67 6.98,-11.32 15.25,-24.5 26,-33.82 -2.3,-0.77 -5.9,0.05 -8.53,-0.51 11.49,-14.36 29.9,-23.97 25.84,-45.95 -4.76,0.28 -10.92,-1.57 -15.64,-1.02 0.66,-27.41 25.68,-60.89 36.17,-87.25 -7.29,-15.91 9.12,-34.81 9.39,-53.24 -3.14,1.61 -8.93,2.69 -12.99,5.03 -0.99,-18.44 4.9,-36.23 9.83,-52.1 -3.36,0.95 -8.46,1.25 -12.41,2.52 -2.24,-43.03 16.22,-81.35 12.33,-123.18 -3.14,1.62 -5.9,3.98 -8.84,5.42 -12,-28.86 10,-51.4 5.51,-80.05 -5.96,2.64 -15.63,1.58 -22.32,6.04 -1.49,-35.88 14.75,-70.81 15.63,-107.64 -3.11,3.13 -9.51,7.16 -12.48,10.22 10.64,-39.67 14.77,-73.55 12.5,-115.15 -3.21,0.23 -9.36,-0.87 -12.5,-0.58 2.97,-11.32 5.29,-23.1 6.55,-34.87 -3.49,2.71 -6.67,3.65 -9.73,5.37 -1.78,-15.67 2.95,-29.87 3,-45.59 -3,3.14 -6.76,6.13 -9.48,8.56 1.61,-47.659 14.13,-95.339 -3.84,-140.812 -2.77,3.063 -4.25,4.5 -6.98,8.91 4.15,-20.296 38.33,-73.41 0.65,-73.418 -0.87,-14.441 -0.07,-29.511 -1.24,-43.96 -4.18,-9.149 4.02,-28.122 3.41,-43.051 -1.85,0.211 -3.11,1.293 -3.77,3.211 -1.77,-23.039 6.66,-47.321 7.09,-70.5 -2.78,-0.43 -2.56,2.75 -5.32,2.789 -0.94,-21.989 14.91,-41.117 12.16,-63.207 -3.85,2 -8.67,2.226 -13.08,5.117 0.46,-20.867 -1.35,-43.27 3.08,-62.641 -2.77,1.782 -6.42,4.184 -8.91,6.231 3.83,-14.207 8.21,-30.809 5.49,-46.449 -3.2,2.16 -11.79,4.449 -15.58,7.73"
         style="fill:#d2d4d1;fill-opacity:1;fill-rule:nonzero;stroke:none"
         id="path24-6"
         inkscape:connector-curvature="0" /><path
         d="m 1016.61,505.5 c 8.3,-7.18 10.78,-62.441 10.76,-73.891 -0.04,-28.91 -14.28,-47.789 1.76,-75.039 -3.23,-0.648 -6.18,-0.558 -9.37,-1.34 18.02,-55.941 35.38,-110.449 45.93,-167.191 -4.76,0.621 -11.15,-1.59 -15.92,-1.019 5.53,-19.918 26.31,-53.301 3.26,-64.379 12.56,-15.832 25,-36.1918 17.4,-56.0121 -2.41,0.4102 -3.8,2.4219 -7.15,2.6094 2.6,-10.0195 3.44,-21.6172 2.33,-32.7188 -5.75,1.711 -17.13,0.0313 -22.5,2.1719 8.2,-10.8516 1.48,-11.1719 2.4,-22.3125 -12.22,-2.7891 -22.28,1.4219 -28.83,11.8906 C 1020.3,-4 989.379,4.51953 992.777,31.6914 994.984,22.1992 991.137,13.832 989.672,6.03906 969.352,10.7383 956.098,26.6797 953.52,47.6914 c 0.117,-6.75 -3.438,-11.2812 -4.668,-17.8398 -16.661,-3.0196 -27.813,8.7695 -26.817,25.3281 -1.336,-10.6211 -7.683,-12.3789 -12.695,-19.5977 -5.438,8.6485 -10.235,7.5899 -10.652,20.3477 -4.043,-17.5078 -19.465,-30.8203 -31.418,-12.25 -3.36,-5.2109 -11.622,-9.5195 -14.825,-15.2695 -7.578,8.8007 -8.379,20.8711 -6.172,33.5117 -5.546,-13.6836 -8.789,-9.6719 -16.347,-15.293 1.504,16.793 -3.426,30.3711 -0.547,45.6328 3.73,19.8083 16.328,41.3863 22.969,60.5903 -5.176,-6.18 -11.485,-8.571 -15.645,-12.012 1.797,41.711 22.637,80.082 28.985,120.449 -3.418,-0.359 -5.762,-2.019 -9.083,-2.719 -0.632,19.16 9.375,38.012 16.485,55.809 -3.145,-3.137 -7.606,-6.559 -9.981,-8.91 6.457,13.363 14.766,27.793 12.336,43.34 -4.015,-3.559 -12.715,-6.977 -15.586,-9.309 10.75,23.051 40.235,75.781 29.657,100.23 -3.907,-3.179 -12.559,-6.23 -16.407,-9.398 5.743,14.078 14.746,27.777 15.899,43.066 -5.059,-1.847 -14.375,-0.82 -19.227,-2.488 6.942,14.52 17.84,29.168 15.828,46.192 -5.859,-3.293 -20.535,-5.622 -25.742,-9.153 5.996,30.063 26.035,50.27 29.707,81.199 1.164,9.821 -9.082,98.313 -10.976,96.661 -2.325,-2.02 -6.289,-4.59 -8.575,-6.36 -3.984,64.141 -20.332,116.34 -20.593,182.039 2.8,2.461 -2.121,-3.136 -3.242,-4.34 -15.149,19.481 1.414,65.043 -19.583,75.141 -3.203,23.332 6.661,46.43 0.411,68.981 -2.93,-3.059 -7.657,-6.071 -10.243,-8.668 -4.23,59.548 -1.691,116.528 -0.421,177.118 -2.969,-0.66 -6.219,-1.39 -9.747,-1.77 -0.664,11.63 -0.8,23.69 -0.253,35.45 -1.766,-1.07 -4.317,-4.17 -6.348,-5.41 -1.406,23.87 -0.801,48.56 -0.391,72.64 -2.05,-2.99 -4.804,-6.86 -6.16,-9.07 0.945,13.77 4.188,28.12 0.125,40.49 -2.305,-3.51 -1.004,-4.85 -4.121,-7.89 -23.945,54.29 20,116.39 20.137,168.41 -2.547,-3.71 -4.59,-7.45 -6.973,-11.27 11.699,67.68 17.344,129.77 17.051,200.04 -2.762,-2.95 -7.598,-6.71 -9.746,-8.91 -3.028,24.45 10.996,47.92 8.945,72.73 -1.844,-1.47 -3.691,-2.94 -5.527,-4.42 -0.059,15.81 4.609,31.94 2.363,48.03 -2.617,-1.27 -5.371,-1.82 -8.289,-1.64 -6.68,40.2 1.687,79.55 -5.305,120.43 -3.328,-2.25 -9.617,-4.32 -12.09,-5.91 -0.507,13.35 3.907,25.64 6.309,38.79 -3.191,-2.46 -6.641,-5.16 -9.727,-7.82 -0.632,26.79 5.852,50.44 6.915,72.99 1.046,22.3 17.304,43.28 18.73,67.01 -4.051,-1.3 -8.777,-1.69 -12.383,-2.6 3.137,9.88 6.68,22.55 9.16,32.75 -3.164,0.78 -5.918,0.3 -9.082,0.99 1.379,12.86 6.66,25.92 5.664,39.42 -3.164,0.78 -5.918,0.24 -9.082,0.99 4.942,10.97 10.325,23.04 9.082,36.05 -3.144,0.98 -5.964,0.23 -9.168,0.99 8.68,13.61 9.883,32.94 -6.671,40.72 7.257,13.43 21.035,26.33 22.589,42.47 -3.214,0.66 -6.066,0.37 -9.25,1.16 11.028,10.88 14.336,23.56 -3.339,26.94 13.351,10.75 30.91,26.55 6.671,37.21 5.086,2.22 12.43,11.3 19.149,13.49 -12.188,10.35 -31.094,27.85 -6.66,33.3 -2.461,9.63 -4.5,19.1 -7.95,28.41 28.438,-0.96 34.532,20.55 32.012,45.5 5.723,-7.45 12.696,-13.09 18.946,-20 5.761,10.29 14.464,11.34 20.343,15.8 -0.754,-6.89 2.117,-15.82 1.074,-22.6 4.833,4.6 19.5,11.64 25.516,15.98 0.762,-3.22 0.234,-5.98 1.055,-9.18 12.707,2.65 25.39,7.58 39.004,5.72 -4.578,-6.88 -3.809,-13.33 -15.078,-18.86 16.933,-5.74 58.554,-16.22 15.832,-27.7 6.746,-6.28 16.367,-14.9 22.839,-20.45 -2.839,-1.09 -6.816,-2.3 -9.843,-3.6 8.234,-8.93 19.57,-16.87 26.328,-25.78 -6.992,-1.68 -10.879,-7.3 -19.082,-7.99 -1.25,-18.47 14.922,-24.47 22.5,-39.41 -5,1.07 -11.668,0.34 -16.629,1.53 6.016,-12.35 13.133,-25.61 19.148,-38.58 -2.832,-1.11 -5.39,-0.06 -8.359,-0.99 -1.719,-14.2 3.125,-26.84 9.113,-39.48 -2.597,0.64 -6.379,2.01 -9.074,2.43 7.16,-8.18 11.797,-18.88 12.324,-29.31 -2.879,-0.47 -5.898,0.27 -8.672,-0.44 10.263,-18.77 20.533,-37.81 27.833,-57.61 -3.09,2.23 -8.28,4.3 -11.33,6.66 0.59,-24.23 -4.22,-57.77 5.67,-79.91 -6.09,2.36 -12.876,1.6 -19.341,5.97 6.991,-12.7 11.251,-27.73 9.161,-43.01 -4.747,-0.01 -7.579,0.67 -12.325,1.59 0.41,-4.41 -0.683,-10.49 -1.015,-15.07 -5.957,1.7 -12.559,-0.59 -18.985,2.52 2.149,-8.54 0.625,-14.63 5.762,-22.64 -0.574,-0.06 -7.918,1.02 -6.758,1.54 8.692,-7.46 16.504,-17.58 20.149,-28.56 -5.774,0.67 -13.41,-1.91 -19.121,-1.05 2.82,-6.35 2.703,-15.84 9.421,-22.98 -2.265,0.1 -4.343,0.77 -6.25,2.01 5.528,-6.61 8.047,-15.95 15.118,-22.43 -9.403,2.42 -19.766,0.92 -28.418,2.93 3.625,-8.83 11.308,-18.96 19.25,-25.67 -4.035,-0.12 -8.496,-0.93 -12.551,-1.18 3.105,-14.81 16.699,-26.97 25.879,-39.21 -3.875,-0.35 -8.086,-0.83 -11.903,-1.19 7.84,-8.12 15.75,-17.41 21.977,-25.85 -5.727,-1.45 -9.762,-5.81 -13.531,-7.32 8.594,-7.63 18.531,-17.06 25.981,-27.03 -3.38,-1.96 -6.83,-5.09 -9.33,-6.67 6.98,-11.32 15.25,-24.5 26,-33.82 -2.3,-0.77 -5.9,0.05 -8.53,-0.51 11.49,-14.36 29.9,-23.97 25.84,-45.95 -4.76,0.28 -10.92,-1.57 -15.64,-1.02 0.66,-27.41 25.68,-60.89 36.17,-87.25 -7.29,-15.91 9.12,-34.81 9.39,-53.24 -3.14,1.61 -8.93,2.69 -12.99,5.03 -0.99,-18.44 4.9,-36.23 9.83,-52.1 -3.36,0.95 -8.46,1.25 -12.41,2.52 -2.24,-43.03 16.22,-81.35 12.33,-123.18 -3.14,1.62 -5.9,3.98 -8.84,5.42 -12,-28.86 10,-51.4 5.51,-80.05 -5.96,2.64 -15.63,1.58 -22.32,6.04 -1.49,-35.88 14.75,-70.81 15.63,-107.64 -3.11,3.13 -9.51,7.16 -12.48,10.22 10.64,-39.67 14.77,-73.55 12.5,-115.15 -3.21,0.23 -9.36,-0.87 -12.5,-0.58 2.97,-11.32 5.29,-23.1 6.55,-34.87 -3.49,2.71 -6.67,3.65 -9.73,5.37 -1.78,-15.67 2.95,-29.87 3,-45.59 -3,3.14 -6.76,6.13 -9.48,8.56 1.61,-47.659 14.13,-95.339 -3.84,-140.812 -2.77,3.063 -4.25,4.5 -6.98,8.91 4.15,-20.296 38.33,-73.41 0.65,-73.418 -0.87,-14.441 -0.07,-29.511 -1.24,-43.96 -4.18,-9.149 4.02,-28.122 3.41,-43.051 -1.85,0.211 -3.11,1.293 -3.77,3.211 -1.77,-23.039 6.66,-47.321 7.09,-70.5 -2.78,-0.43 -2.56,2.75 -5.32,2.789 -0.94,-21.989 14.91,-41.117 12.16,-63.207 -3.85,2 -8.67,2.226 -13.08,5.117 0.46,-20.867 -1.35,-43.27 3.08,-62.641 -2.77,1.782 -6.42,4.184 -8.91,6.231 3.83,-14.207 8.21,-30.809 5.49,-46.449 -3.2,2.16 -11.79,4.449 -15.58,7.73 z"
         style="fill:none;stroke:#050606;stroke-width:10;stroke-linecap:butt;stroke-linejoin:miter;stroke-miterlimit:10;stroke-dasharray:none;stroke-opacity:1"
         id="path26-1"
         inkscape:connector-curvature="0" /></g></g></svg>