<?xml version="1.0" encoding="UTF-8" standalone="no"?>
<!-- Created with Inkscape (http://www.inkscape.org/) -->

<svg
   xmlns:dc="http://purl.org/dc/elements/1.1/"
   xmlns:cc="http://creativecommons.org/ns#"
   xmlns:rdf="http://www.w3.org/1999/02/22-rdf-syntax-ns#"
   xmlns:svg="http://www.w3.org/2000/svg"
   xmlns="http://www.w3.org/2000/svg"
   xmlns:sodipodi="http://sodipodi.sourceforge.net/DTD/sodipodi-0.dtd"
   xmlns:inkscape="http://www.inkscape.org/namespaces/inkscape"
   id="svg2"
   version="1.1"
   inkscape:version="0.91 r13725"
   width="308"
   height="672"
   xml:space="preserve"
   sodipodi:docname="sc-w-1-3-border.svg"><metadata
     id="metadata8"><rdf:RDF><cc:Work
         rdf:about=""><dc:format>image/svg+xml</dc:format><dc:type
           rdf:resource="http://purl.org/dc/dcmitype/StillImage" /><dc:title /></cc:Work></rdf:RDF></metadata><defs
     id="defs6" /><sodipodi:namedview
     pagecolor="#ffffff"
     bordercolor="#666666"
     borderopacity="1"
     objecttolerance="10"
     gridtolerance="10"
     guidetolerance="10"
     inkscape:pageopacity="0"
     inkscape:pageshadow="2"
     inkscape:window-width="1920"
     inkscape:window-height="1015"
     id="namedview4"
     showgrid="false"
     inkscape:zoom="1.2276786"
     inkscape:cx="15.120003"
     inkscape:cy="401.16363"
     inkscape:window-x="0"
     inkscape:window-y="0"
     inkscape:window-maximized="1"
     inkscape:current-layer="g10" /><g
     id="g10"
     inkscape:groupmode="layer"
     inkscape:label="ink_ext_XXXXXX"
     transform="matrix(1.25,0,0,-1.25,0,672.00001)"><path
       id="path14-2"
       d="m 200.2382,278.34514 0.39159,0.0816 c -0.0326,0.16479 -0.26106,0.31001 -0.42422,0.31001 -0.0163,0 -0.0326,0 -0.0326,0 l 0.0653,-0.39159 z m -41.5407,94.3558 c -0.58737,-2.95321 -2.02319,-10.24649 -1.02791,-15.05973 0.0653,0.13053 0.11421,0.24474 0.16316,0.35896 l 2.96953,6.54274 -1.68056,-8.3212 c -0.71791,-3.3611 -1.64792,-7.81539 -0.62001,-10.85018 0.16316,0.22843 0.31001,0.45685 0.44053,0.68528 l 2.44741,4.51955 -1.09317,-5.84115 c -0.4079,-2.10478 -0.97897,-4.9764 0.27737,-5.95537 l 0.29369,-0.22842 0.0326,-0.35896 c 0.0489,-0.89738 0.0163,-1.86003 -0.0163,-2.80636 -0.0653,-1.69687 -0.13053,-3.459 0.35895,-4.81324 0.60369,1.0116 0.93002,1.15844 1.45213,0.93002 l 0.70159,-0.32632 -0.22842,-0.62001 c 0,-1.24003 -0.14685,-2.4311 -0.29369,-3.58954 -0.14685,-1.14212 -0.29369,-2.21898 -0.27738,-3.31216 l 0.99528,0.45685 0,-1.27265 c 0.0163,-1.24002 -0.22842,-2.44741 -0.45685,-3.62217 -0.27737,-1.48476 -0.55474,-2.92057 -0.32632,-4.27481 0.0326,0 0.0816,-0.0163 0.0979,0 0.79949,0 0.8158,-0.79948 0.83212,-1.14212 0.0163,-0.21211 0,-0.4079 -0.0489,-0.58738 -0.0163,-1.12581 0,-2.25162 0.13053,-3.23058 l 1.40318,1.51739 -0.0163,-2.10477 c 0,-3.37742 0.35896,-6.96696 0.99528,-9.87122 0.0489,0.0163 0.0816,0.0489 0.13053,0.0816 l 1.22371,0.65264 -0.0163,-1.38686 c -0.0163,-0.99528 -0.0163,-2.00688 -0.0326,-3.00216 0,-0.68527 0,-1.37055 -0.0163,-2.0395 l 0.39159,-0.0326 0.0489,-0.70159 c 0.0816,-1.07686 0.0816,-2.17003 0.0979,-3.26321 0,-1.71319 0.0163,-3.37743 0.31001,-4.92745 0.0163,0.0163 0.0326,0.0326 0.0489,0.0326 l 1.02791,0.52211 0.35895,-2.59425 c 0.16316,-1.28897 0.32632,-2.52899 0.57106,-3.75269 0.21211,0.39158 0.39159,0.76685 0.45685,0.99528 l 0.79949,2.74109 0.76686,-2.74109 c 0.19579,-0.66896 0.34263,-1.38687 0.47316,-2.10478 0.31001,-1.48476 0.6037,-3.00215 1.3216,-4.17691 l 1.46845,3.89954 0.0326,-4.3727 c 0,-0.55475 -0.0163,-1.11113 -0.0326,-1.66587 -0.0489,-1.37055 -0.0816,-2.69052 0.24474,-3.84896 0.11421,0.0816 0.24474,0.16316 0.4079,0.24311 l 0.78317,0.35895 0.31001,-0.79786 c 0.53843,-1.33791 1.40318,-2.05745 2.26793,-1.94161 0.84844,0.13053 1.84372,1.06055 2.02319,2.839 l 1.63161,-0.0653 c 0.0326,-0.89738 0.32632,-1.58266 0.86475,-1.97424 0.44053,-0.34264 1.07686,-0.47317 1.81108,-0.39159 0.0653,0.45685 0.1958,0.9806 0.32632,1.53371 0.0653,0.1958 0.0979,0.37364 0.11422,0.45522 l -0.21211,5.32067 1.79476,-5.10693 c 0.52212,-1.43744 0.76686,-1.48476 2.25162,-1.50271 0.0326,0.36059 0.0816,0.71791 0.13053,1.07686 0.0979,0.58738 0.19579,1.19107 0.0979,1.58429 l -0.47317,2.13741 1.76214,-1.30529 c 0.53843,-0.4079 1.07686,-0.45685 1.76213,-0.52211 0.16316,0 0.34264,-0.0326 0.53843,-0.0489 0,0.16479 0.0163,0.32632 0.0326,0.49111 0.0653,0.48948 0.11422,0.94633 0.0326,1.3216 l -0.39158,2.00688 1.66424,-1.19107 c 1.40318,-1.0116 2.96952,-1.59735 4.58481,-1.72951 l -0.0326,0.34264 c -0.21211,2.3332 -0.42422,4.74634 -0.93002,7.09749 l 0.48949,0.11421 c 0.58737,2.05583 -0.27738,3.21427 -1.37055,4.6664 -0.65265,0.84843 -1.30529,1.7295 -1.69687,2.85531 l -0.97897,2.80636 2.28425,-1.9253 c 0.14685,-0.13052 0.45685,-0.32632 0.78317,-0.53843 -0.11421,0.94634 -0.42422,1.86004 -0.75054,2.80637 -0.31,0.94633 -0.65264,1.94161 -0.78317,2.98584 l -0.24474,1.74582 1.48476,-0.94634 c 0.22843,-0.14684 0.48949,-0.27737 0.76686,-0.4079 -0.0816,1.95793 -0.78317,3.60585 -1.4195,4.73166 l -0.79949,1.37055 1.58266,-0.16316 c 0.17948,-0.0163 0.34264,-0.0489 0.48948,-0.0816 -0.19579,1.20739 -0.70159,2.41478 -1.2237,3.67111 -0.45685,1.12581 -0.94633,2.30057 -1.22371,3.50796 l -0.50579,2.28425 1.8274,-1.48476 c 0.17947,-0.14685 0.39158,-0.31001 0.60369,-0.45685 -0.21211,1.41949 -0.75054,2.9532 -1.27265,4.43796 -0.52212,1.48477 -1.06055,3.01848 -1.30529,4.50324 l -0.5058,3.13268 1.95793,-2.49636 c 0.11421,-0.14684 0.22843,-0.27737 0.37527,-0.4079 -0.0979,0.76686 -0.27737,1.50108 -0.66896,2.21899 l -1.19107,2.20267 2.18635,-1.04423 c -0.13053,1.79477 -0.79949,3.29584 -1.4195,4.32376 l -0.53843,0.9137 1.02792,0.29368 c 0.26105,0.0653 0.50579,0.0979 0.73422,0.11422 -0.27737,0.96264 -0.86475,1.87634 -1.46845,2.83899 -0.94633,1.46845 -1.90898,2.98584 -2.02319,4.96009 l -0.0489,0.84843 0.84844,0.0163 c 0.29369,0 0.60369,0.0489 0.94633,0.0816 0.0326,0 0.0653,0 0.0979,0.0163 -0.0653,0.11422 -0.13053,0.22843 -0.21211,0.34264 -0.44054,0.70159 -0.97897,1.56634 -1.37055,1.90898 l -1.17476,1.04423 1.5174,0.35895 c 0.76685,0.19579 1.24002,0.47317 1.3216,0.76686 0.0653,0.22842 0.0653,1.15844 -2.34952,3.39374 l -0.66895,0.60369 0.66895,0.6037 c 0.70159,0.63632 1.0116,1.35423 0.88107,2.05582 -0.14684,0.83212 -0.89738,1.58266 -1.99056,2.02319 l -3.60585,1.4195 4.42165,0.17948 c 0.0489,0 0.0979,0 0.14685,0 -1.20739,2.79004 -3.03479,6.88538 -5.05798,8.1254 l -1.66424,1.02791 1.90898,0.45685 c 0.17948,0.0489 0.34264,0.0816 0.52211,0.0979 -0.55474,1.17476 -1.33791,2.49636 -2.05582,3.50796 l -0.44053,0.60369 0.57106,0.48948 c 0.0979,0.0816 0.19579,0.14685 0.29369,0.21211 -0.47317,0.57107 -0.84844,1.17476 -1.19107,1.76214 -0.27738,0.45685 -0.53843,0.9137 -0.86476,1.3216 l -1.58265,2.07214 2.48004,-0.79949 c 0.35895,-0.11421 0.75054,-0.16316 1.14212,-0.19579 -0.45685,1.17476 -1.12581,2.38215 -1.87635,3.39374 l -1.24002,1.64792 1.48477,-0.26105 c -0.0653,0.11421 -0.13053,0.21211 -0.17948,0.31 -0.63633,1.07686 -1.27265,2.18635 -1.81108,3.32848 l -0.42422,0.9137 0.99528,0.22842 c 0.27737,0.0653 0.53843,0.0489 0.75054,0.0326 0.0326,2.00687 -0.73423,3.89954 -1.4195,5.1885 l -0.57106,1.07686 1.17475,0.11422 c -0.0163,0.17947 -0.0326,0.34263 -0.0489,0.50579 -0.0816,0.94634 -0.14685,1.8274 -0.58738,2.67584 l -0.52212,1.02791 1.14213,0.14685 c 0.31,0.0326 0.66896,0.16316 1.02791,0.29368 0.0326,0.0163 0.0816,0.0326 0.13053,0.0489 -0.17948,0.57107 -0.4079,1.15844 -0.65264,1.77845 -0.65265,1.64793 -1.32161,3.36111 -1.17476,5.27009 l 0.0489,0.63633 0.62001,0.11421 0.0163,0 c -0.0653,0.29369 -0.11421,0.6037 -0.16316,0.9137 -0.11421,0.63633 -0.21211,1.28897 -0.44053,1.76214 l -0.66896,1.33791 1.48476,-0.16316 c 0.0326,0 0.0653,0 0.0979,-0.0163 -0.17948,0.68527 -0.35895,1.33791 -0.83212,1.87634 l -1.17476,1.37055 1.79477,-0.0163 c 0.26106,0 0.57106,0.0489 0.86475,0.0816 0.11421,0.0163 0.22843,0.0326 0.34264,0.0489 -0.0653,0.8158 -0.24474,1.59897 -0.44054,2.43109 -0.26105,1.19107 -0.55474,2.41478 -0.47316,3.76901 l 0.0489,0.78317 0.79948,-0.0163 c 0.26106,0 0.55475,0.0326 0.86476,0.0653 -0.86476,2.57794 -1.48477,6.78748 -0.52212,8.99015 -1.94161,2.48004 -2.12109,5.41693 -2.28425,8.0275 l -0.049,0.7016 0.68528,0.14684 c 0.14684,0.0326 0.29369,0.0489 0.44053,0.0653 -0.8158,1.79477 -1.40318,3.63849 -2.02319,5.56378 -0.21211,0.65264 -0.42422,1.3216 -0.65264,2.00688 l -0.29369,0.88107 0.89738,0.17947 c -0.35895,0.84844 -0.73422,1.71319 -1.10949,2.57794 -0.58738,1.33792 -1.15844,2.65952 -1.66424,3.93217 l -0.7179,1.77845 1.77845,-0.73422 c 0.19579,-0.0816 0.42421,-0.13053 0.66895,-0.19579 -0.58737,1.20739 -0.8158,2.52899 -0.66895,3.89954 l 0.0653,0.57106 0.55475,0.13053 c 0.26105,0.0653 0.52211,0.0979 0.75054,0.0979 -0.0163,0.0979 -0.0326,0.1958 -0.0326,0.27738 -0.14684,1.25633 -0.26105,2.33319 -1.02791,3.32847 l -0.29369,0.37527 0.1958,0.44054 c 0.68527,1.59897 0.70159,1.87634 0.34263,3.70374 l -0.0326,0.11422 0.0163,0.13052 c 0.0163,0.26106 0.14684,0.45685 0.31,0.66896 -0.37527,0.16316 -0.75054,0.31001 -1.15844,0.31001 l -1.12581,0.0326 0.37527,1.06054 c 0.11421,0.29369 0.16316,0.70159 0.22843,1.09318 -0.14685,0.0326 -0.27738,0.0653 -0.42422,0.0816 -0.55475,0.13053 -1.04423,0.24474 -1.59897,0.0653 l -1.32161,-0.45684 0.26106,1.37054 c 0.049,0.31001 0.0163,0.68528 -0.0326,1.07686 0,0.13053 -0.0163,0.26106 -0.0326,0.39159 -0.26106,0.0326 -0.52212,0.0653 -0.78317,0.11421 -0.48949,0.0653 -0.99528,0.14685 -1.32161,0.0653 l -1.09317,-0.22843 0.14684,1.46845 c -0.31,-0.21211 -0.60369,-0.44054 -0.9137,-0.66896 -1.2237,-0.89738 -2.30056,-1.68056 -3.23058,-1.74582 l -0.0326,0.44053 c -1.24002,-0.73422 -3.01847,-2.5453 -3.78533,-4.35639 l 0.76686,-0.14847 -0.0979,-0.76686 c -0.31,-2.39846 -2.15372,-4.16059 -3.91585,-5.87378 -1.3216,-1.27265 -2.59426,-2.49636 -3.23058,-3.89954 0.19579,-0.0163 0.37527,-0.0326 0.55474,-0.049 0.63633,-0.0653 1.22371,-0.11421 1.74582,-0.0163 l 3.54059,0.7179 -2.88795,-2.17003 c -1.61529,-1.20739 -3.21426,-2.49636 -3.99743,-3.98112 0.0979,-0.0163 0.17947,-0.0163 0.26105,-0.0326 0.37527,-0.0489 0.76686,-0.0979 1.1095,-0.0816 l 0.88106,0.0489 -0.0326,-0.89738 c -0.0653,-1.58266 -0.73422,-2.79005 -1.38686,-3.9648 -0.4079,-0.71791 -0.78317,-1.38687 -0.99528,-2.12109 0.13053,-0.0163 0.27737,-0.0326 0.42421,-0.0489 0.40791,-0.0653 0.78318,-0.0979 1.09318,-0.0816 l 0.86475,0.0489 0,-0.86475 c 0.0163,-2.07214 -0.9137,-3.85059 -1.8274,-5.5801 -0.0326,-0.0816 -0.0816,-0.17947 -0.13053,-0.26105 l 1.07687,0.19579 -0.0816,-1.06055 c -0.13052,-1.61529 -0.79948,-2.93689 -1.43581,-4.19322 -0.48948,-0.96265 -0.96265,-1.89267 -1.15844,-2.90426 l 0.71791,0.52211 0.11421,-1.46845 c 0.13053,-1.77845 -0.48948,-3.31216 -1.07686,-4.7806 -0.44053,-1.10949 -0.86475,-2.15372 -0.94633,-3.26321 0.21211,0.0489 0.44053,0.0979 0.66896,0.0979 l 0.99528,0.0326 -0.17948,-0.99528 c -0.22843,-1.28897 -0.78317,-2.44741 -1.33792,-3.5569 -0.55474,-1.15844 -1.09317,-2.25162 -1.20739,-3.44269 0.0653,0 0.14685,0 0.21211,-0.0163 l 0.6037,-0.0979 0.0653,-0.60369 c 0.35895,-3.08374 -0.049,-5.95537 -0.44053,-8.7291 -0.42422,-3.08373 -0.84844,-6.02063 -0.26106,-9.15331 0.11421,0.049 0.24474,0.0979 0.37527,0.14684 0.62001,0.22843 1.38687,0.5058 1.69687,0.79949 l 1.17476,1.12581 0.21211,-1.59897 c 0.27737,-2.10478 0.0326,-4.27481 -0.1958,-6.36327 -0.11421,-1.15844 -0.24474,-2.3332 -0.29369,-3.47532 0.049,-0.0326 0.0816,-0.0489 0.13053,-0.0816 l 0.44054,-0.31001 -0.11422,-0.52211 z m -5.20482,27.45993 c -0.31001,2.13741 0.52211,3.88323 1.33792,5.56378 0.32632,0.66896 0.63632,1.30529 0.88106,1.95793 -0.11421,-0.0163 -0.2121,-0.0326 -0.29368,-0.0326 l -0.78318,-0.0489 -0.0816,0.76685 c -0.22842,1.84372 0.40791,3.42638 1.02792,4.94377 0.4079,1.02791 0.8158,2.00688 0.93001,3.03479 -0.0326,0 -0.0489,0 -0.0816,0 l -0.73422,0.0163 -0.0489,0.75054 c -0.13053,1.95792 0.65264,3.49163 1.40318,4.96008 0.42422,0.84843 0.83212,1.64792 1.07686,2.52899 -0.17947,-0.0326 -0.35895,-0.0653 -0.52211,-0.0816 l -1.43582,-0.16316 0.58738,1.30528 c 0.27738,0.58738 0.57106,1.17476 0.88107,1.74582 0.71791,1.37055 1.38687,2.67584 1.58266,4.04639 -0.16316,0.0163 -0.32632,0.0326 -0.48948,0.0489 -0.42422,0.0653 -0.81581,0.11422 -1.12581,0.0816 l -0.96265,-0.0816 0.0816,0.96265 c 0.13053,1.4195 0.75054,2.54531 1.35423,3.63848 0.45685,0.79949 0.88107,1.56635 1.07686,2.4311 -0.13052,0.0163 -0.27737,0.0326 -0.4079,0.0489 -0.42422,0.0489 -0.83212,0.0979 -1.15844,0.0653 l -1.12581,-0.0653 0.27738,1.09317 c 0.44053,1.7295 1.68055,3.149 3.13268,4.40534 -0.42422,0.0326 -0.8158,0.0489 -1.17476,0.0163 l -1.10949,-0.13053 0.22843,1.10949 c 0.48948,2.34951 2.28425,4.0627 3.99743,5.72694 1.4195,1.37055 2.77373,2.65952 3.26321,4.17691 -0.0326,0.0163 -0.0816,0.0326 -0.13052,0.0326 l -0.78317,0.19579 0.19579,0.79949 c 0.62001,2.52899 3.27953,5.4822 5.25377,6.41221 l 0.31001,-0.65264 -0.0163,0.1958 c 0.47317,0.0163 1.53371,0.79948 2.38215,1.43581 0.83211,0.60369 1.68055,1.24002 2.5453,1.68055 l 1.5174,0.76686 -0.35896,-1.66424 c -0.0816,-0.37527 -0.11421,-0.70159 -0.14684,-1.02791 0.27737,-0.0163 0.55474,-0.0653 0.83212,-0.11421 0.45685,-0.0653 0.93001,-0.13053 1.24002,-0.0816 l 1.09317,0.16316 -0.16316,-1.09318 c -0.0326,-0.24474 0,-0.57106 0.0326,-0.93002 0.0163,-0.13052 0.0326,-0.27737 0.0326,-0.42421 0.53843,-0.0163 0.99528,-0.0979 1.40318,-0.1958 0.35895,-0.0816 0.66896,-0.14684 0.93001,-0.13053 l 1.09318,0.0979 -0.22842,-1.07686 c -0.049,-0.24474 -0.0816,-0.48948 -0.13053,-0.75054 -0.0163,-0.17947 -0.0489,-0.35895 -0.0816,-0.53843 0.37527,-0.0979 0.68527,-0.24474 0.96264,-0.37527 0.24475,-0.0979 0.47317,-0.19579 0.63633,-0.24474 l 0.84844,-0.16316 -0.21211,-0.83212 c -0.0979,-0.39158 -0.39159,-0.70159 -0.63633,-0.99528 -0.0326,-0.0163 -0.0653,-0.0489 -0.0816,-0.0816 0.32632,-1.74582 0.27737,-2.43109 -0.32632,-3.91585 0.78317,-1.24002 0.93002,-2.51268 1.06054,-3.7527 0.0326,-0.34264 0.0816,-0.70159 0.13053,-1.06054 l 0.11421,-0.73423 -0.7179,-0.17947 c -0.31001,-0.0816 -0.6037,-0.0979 -0.89739,-0.0979 0,-1.48476 0.58738,-2.82268 1.72951,-4.01375 l 4.29112,-4.42165 -5.2864,3.16531 c -0.34264,0.1958 -0.78317,0.32632 -1.24002,0.42422 0.32632,-0.78317 0.66896,-1.56634 1.01159,-2.36583 0.52212,-1.20739 1.04423,-2.39846 1.50108,-3.54059 l 0.37527,-0.93001 -1.0116,-0.19579 c 0.11422,-0.37527 0.24474,-0.75054 0.35896,-1.14213 0.7179,-2.2353 1.40318,-4.34007 2.43109,-6.37958 l 0.44053,-0.88107 -0.94633,-0.26105 c -0.31,-0.0979 -0.60369,-0.11422 -0.84843,-0.13053 0.16316,-2.38215 0.47316,-4.78061 2.18635,-6.68959 l 0.42422,-0.48948 -0.35896,-0.52211 c -0.97896,-1.38687 -0.39158,-6.47748 0.76686,-9.00647 l 0.52211,-1.15844 -1.27265,0 c -0.24474,0.0163 -0.57106,-0.0326 -0.86475,-0.0816 -0.13053,-0.0163 -0.24474,-0.0163 -0.35895,-0.0326 0.0489,-0.86476 0.24474,-1.69688 0.44053,-2.57794 0.26106,-1.14213 0.52211,-2.31688 0.48948,-3.58954 l -0.0326,-0.8158 -0.8158,0.0326 c -0.1958,0 -0.42422,-0.0163 -0.65265,-0.0489 0.21211,-0.47316 0.32632,-0.94633 0.44054,-1.37055 0.11421,-0.45685 0.22842,-0.86475 0.4079,-1.20738 l 0.75054,-1.48477 -1.61529,0.29369 c -0.0326,0.0163 -0.0653,0.0163 -0.11422,0.0326 0.0489,-0.22843 0.0816,-0.45685 0.11422,-0.66896 0.0979,-0.55475 0.17947,-1.09318 0.34263,-1.43582 l 0.42422,-0.89738 -0.96265,-0.24474 c -0.0979,-0.0163 -0.2121,-0.0489 -0.31,-0.0653 0.0489,-1.33791 0.55475,-2.61057 1.07686,-3.94848 0.34264,-0.89739 0.71791,-1.81109 0.93002,-2.75742 l 0.19579,-0.86475 -0.86475,-0.13053 c -0.21211,-0.0326 -0.45685,-0.13053 -0.71791,-0.22842 -0.11421,-0.0326 -0.22843,-0.0816 -0.35895,-0.11422 0.26105,-0.8158 0.32632,-1.61529 0.39158,-2.33319 0.049,-0.58738 0.0979,-1.14213 0.22843,-1.66424 l 0.26105,-1.06054 -0.48948,0.0163 c 0.58738,-1.48476 1.02791,-3.31216 0.8158,-5.20482 l -0.0489,-0.53843 -0.52212,-0.14685 c -0.0979,-0.0326 -0.17947,-0.0489 -0.27737,-0.0653 0.37527,-0.68528 0.76685,-1.37055 1.15844,-2.05583 0.42422,-0.73422 0.84844,-1.46844 1.22371,-2.18635 l 0.91369,-1.7295 -0.99528,0.29369 c 0.53843,-0.99528 0.97897,-2.03951 1.25634,-3.05111 l 0.37527,-1.3216 -1.33792,0.31001 c -0.24474,0.0489 -0.48948,0.0816 -0.73422,0.11421 0.45685,-0.76686 0.89738,-1.48476 1.58266,-2.05582 l 0.73422,-0.6037 -0.7179,-0.63632 c -0.16317,-0.13053 -0.31001,-0.22843 -0.45685,-0.31001 0.84843,-1.30529 1.68055,-2.87163 2.15372,-4.11165 l 0.37527,-0.94633 -0.75054,-0.11421 c 1.77845,-1.99056 3.19794,-5.22114 4.27481,-7.7175 l 0.99528,-2.2353 -0.68528,0.0489 c 0.39159,-0.48949 0.66896,-1.06055 0.76686,-1.66424 0.19579,-1.0116 -0.0979,-2.03951 -0.78318,-2.92058 1.8274,-1.8274 2.54531,-3.24689 2.23531,-4.43797 -0.16317,-0.63632 -0.62002,-1.14212 -1.33792,-1.51739 0.29369,-0.39159 0.57106,-0.84844 0.84843,-1.28897 0.35896,-0.57106 0.71791,-1.15844 0.96265,-1.40318 l 1.66424,-1.68056 -2.34951,0.31001 c -0.35896,0.0326 -0.88107,-0.0163 -1.37055,-0.0816 -0.0653,0 -0.13053,0 -0.17948,-0.0163 0.26106,-1.20739 0.94633,-2.26793 1.64792,-3.39374 0.83212,-1.30528 1.71319,-2.67583 1.89267,-4.34007 l 0.0653,-0.70159 -0.68527,-0.17948 c -0.14685,-0.0326 -0.27738,-0.0489 -0.40791,-0.0653 0.70159,-1.50108 1.27266,-3.49164 1.0116,-5.79221 l -0.16316,-1.35423 -0.14685,0.11421 c 0.0489,-0.34263 0.0816,-0.68527 0.13053,-1.02791 0.0489,-0.44053 0.0979,-0.86475 0.17948,-1.30528 l 0.48948,-2.61057 -1.87635,1.89266 c -0.0163,0.0326 -0.0326,0.0489 -0.0653,0.0653 0.17948,-0.52211 0.37527,-1.06054 0.57106,-1.61529 0.76686,-2.20267 1.56634,-4.4706 1.43582,-6.62432 l -0.0979,-1.53371 -1.20739,0.93002 c 0.13053,-0.32632 0.26106,-0.65265 0.4079,-0.97897 0.70159,-1.7295 1.45213,-3.50795 1.45213,-5.43325 l 0,-1.01159 -0.79948,0.17947 c 0.68527,-1.71318 0.96264,-3.49163 0.79948,-5.22114 l -0.13053,-1.20738 -1.07686,0.57106 c -0.13052,0.0653 -0.27737,0.13053 -0.42421,0.19579 0.11421,-0.34264 0.24474,-0.70159 0.35895,-1.07686 0.5058,-1.50108 1.04423,-3.06742 0.83212,-4.8785 l -0.14685,-1.3216 -0.17947,0.11421 c 1.02791,-1.4195 1.97424,-3.06742 1.24002,-5.59641 l -0.21211,-0.50743 c 0.35895,-2.03951 0.53843,-4.07902 0.70159,-6.06958 l 0.19579,-2.12109 -0.88106,-0.0343 c -1.76214,-0.0163 -3.52427,0.39159 -5.13956,1.25797 0,-0.0653 -0.0163,-0.11421 -0.0163,-0.17948 -0.0489,-0.45685 -0.0979,-0.88106 -0.0326,-1.19107 l 0.26105,-1.43581 -1.35423,0.52211 c -0.37527,0.14685 -0.79949,0.17948 -1.2237,0.22843 -0.40791,0.0343 -0.83212,0.0653 -1.28897,0.19579 -0.0163,-0.24311 -0.0489,-0.48948 -0.0979,-0.71628 -0.0816,-0.55474 -0.16316,-1.14212 -0.0979,-1.53371 l 0.16316,-0.96264 -1.66423,0.0326 c -1.20739,0 -2.10478,0.0653 -2.82268,0.70322 -0.0163,-0.16479 -0.0326,-0.29532 -0.0163,-0.39159 l 0.0489,-0.66895 -0.66896,-0.17785 c -1.45213,-0.37527 -2.79005,-0.17948 -3.75269,0.5368 -0.27738,0.21374 -0.5058,0.44216 -0.70159,0.71791 -0.62002,-0.99528 -1.53371,-1.64793 -2.61057,-1.81109 -0.14685,-0.0163 -0.29369,-0.0326 -0.44054,-0.0326 -1.20739,0 -2.30056,0.71628 -3.08373,1.99056 -0.14685,-0.11421 -0.34264,-0.22842 -0.58738,-0.30837 l -0.63633,-0.17948 -0.31,0.58738 c -0.89739,1.64792 -0.88107,3.52264 -0.81581,5.35004 -1.76213,1.53371 -2.28425,3.8359 -2.69215,5.94067 -0.19579,-0.36058 -0.35895,-0.68527 -0.42422,-0.86475 l -0.76685,-2.39846 -0.78317,2.39846 c -0.63633,1.99056 -0.9137,4.03007 -1.17476,5.988 l -0.76685,-0.35895 -0.27738,0.89738 c -0.68527,2.1374 -0.70159,4.45428 -0.7179,6.68958 l -0.6037,-1.56634 0.0653,4.55218 c 0,1.04423 0.0163,2.07214 0.0163,3.10006 0.0163,0.45685 0.0163,0.89738 0.0163,1.33791 l -0.70159,-0.37527 -0.26106,0.99528 c -0.70159,2.64321 -1.15844,6.02063 -1.30528,9.36543 l -0.42422,-0.53843 -0.52212,1.27265 c -0.52211,1.30528 -0.63632,2.90426 -0.62001,4.60113 l -0.14684,0.0326 -0.16316,0.35895 c -1.06055,2.2353 -0.62001,4.45429 -0.21211,6.60801 0.0979,0.48948 0.19579,0.97896 0.26106,1.45213 l -0.5058,-0.26106 -0.17948,1.10949 c -0.31,1.84372 -0.0816,3.62217 0.14685,5.33536 0.0163,0.14684 0.0326,0.29369 0.0489,0.44053 l -0.65264,0.76686 c -1.61529,1.89266 -1.50108,4.65007 -1.40318,7.08117 0.0326,0.8158 0.0489,1.58266 0.0326,2.30056 -1.12581,1.12581 -1.2237,2.87163 -1.02791,4.65008 l -0.55475,0.86475 c -1.86003,2.93689 -1.35423,7.32592 -0.63632,11.09493 l -0.35896,0.88106 c -1.6316,3.85059 -1.02791,9.87122 -0.0816,15.27184 l -0.0163,2.20267 c -0.0163,1.51739 0.14684,3.0511 0.31,4.55218 0.17948,1.63161 0.34264,3.19795 0.29369,4.71534 -0.32632,-0.14684 -0.66896,-0.27737 -0.99528,-0.39158 -0.39158,-0.14685 -0.88107,-0.32632 -1.02791,-0.42422 l -0.99528,-0.75054 -0.29369,1.19107 c -0.96265,3.81796 -0.45685,7.34223 0.0163,10.75229 0.32632,2.30056 0.66896,4.66639 0.53843,7.1138 -0.0489,0 -0.0979,0 -0.14685,0 l -0.7179,-0.0163 -0.0979,0.69832 z"
       inkscape:connector-curvature="0" /><path
       id="path16-0"
       d="m 125.95116,360.7739 c 0.81581,-3.21427 1.48477,-6.51011 1.46845,-9.98543 -0.0163,-0.86476 -0.0816,-1.76214 -0.26106,-2.65952 -0.14684,-0.89739 -0.5058,-1.8274 -0.93001,-2.62689 -0.83212,-1.51739 -1.66424,-2.85531 -2.46373,-4.27481 -6.51011,-11.09492 -9.90385,-24.00093 -9.87122,-37.00483 0.0163,-3.2469 0.16316,-6.51011 0.55475,-9.72438 0.35895,-3.23058 0.9137,-6.44484 1.46844,-9.65911 0.76686,-4.4706 1.69687,-8.89225 2.69215,-13.32859 -0.44053,-0.13053 -0.86475,-0.29532 -1.27265,-0.45685 -0.84843,4.53587 -1.64792,9.07173 -2.41478,13.62392 -1.07686,6.44484 -1.89266,12.97127 -1.94161,19.53032 -0.0979,6.55906 0.44054,13.15075 1.86003,19.61191 1.40319,6.44485 3.73638,12.71022 6.85275,18.55137 0.76686,1.45213 1.61529,2.88794 2.3332,4.27481 0.65264,1.24002 0.83212,2.62688 0.86475,4.17691 0,3.0511 -0.65264,6.23274 -1.38687,9.33279 -0.76685,3.11637 -1.7295,6.21642 -2.77373,9.26752 -0.52211,1.50108 -1.09317,3.11637 -1.53371,4.69903 -0.45685,1.59897 -0.86475,3.18163 -1.27265,4.7806 -3.01847,12.75917 -5.31904,25.61623 -7.29328,38.53855 l 0.29369,0.0489 4.42165,-19.07348 c 1.46845,-6.34695 3.03479,-12.6939 4.71534,-18.95927 0.42422,-1.56634 0.86476,-3.13268 1.35424,-4.66639 0.45685,-1.55003 1.02791,-2.98584 1.59897,-4.5685 1.09318,-3.10168 2.10477,-6.23437 2.93689,-9.44863 z"
       inkscape:connector-curvature="0" /><path
       id="path18-2"
       d="m 127.46856,451.8828 c 0.68527,4.38902 0.37527,8.40277 0.0653,12.57968 -0.0816,1.0116 -0.16316,2.03951 -0.22842,3.08374 -0.16316,0.24474 -0.37527,0.44053 -0.65265,0.58738 -0.0653,-0.0489 -0.11421,-0.0979 -0.17947,-0.14685 -0.21211,-0.17947 -0.42422,-0.35895 -0.66896,-0.5058 l -0.70159,-0.45685 -0.44054,0.71791 c -0.52211,0.88107 -1.43581,1.58266 -2.28424,2.18635 -0.0163,-0.14684 -0.0326,-0.29368 -0.049,-0.44053 -0.0979,-0.78317 -0.1958,-1.58266 -0.0979,-2.18635 l 1.09318,-6.54274 -2.64321,6.08589 c -0.11421,0.27737 -0.47316,0.71791 -0.8158,1.12581 -0.16316,0.21211 -0.34264,0.4079 -0.48948,0.62001 -1.40318,-0.0653 -2.82268,-0.37527 -3.91586,-0.86475 0.35896,-0.39159 0.66896,-0.88107 0.65265,-1.48477 -0.0326,-1.35423 -1.63161,-2.21898 -3.32848,-3.13268 -0.63633,-0.34264 -1.35423,-0.73422 -1.9253,-1.12581 0.14685,-0.0163 0.27738,-0.0326 0.40791,-0.0489 0.73422,-0.0979 1.40318,-0.17947 1.94161,-0.0979 l 2.51267,0.4079 -1.81108,-1.79477 c -0.35896,-0.35895 -0.96265,-0.79949 -1.64792,-1.30528 -0.86476,-0.63633 -3.45901,-2.56163 -3.36111,-3.21427 0,0 0.26105,-0.42422 2.2353,-0.58738 l 1.7295,-0.14684 -1.20739,-1.24002 c -0.78317,-0.79949 -2.1374,-1.40318 -3.42637,-2.00688 -1.19107,-0.53843 -3.00216,-1.35423 -3.06742,-1.95793 -0.0163,-0.17947 0.22842,-0.57106 0.94633,-1.10949 l 1.2237,-0.9137 -1.43581,-0.5058 c -1.86003,-0.65264 -4.19323,-2.79004 -4.29112,-4.34007 -0.0326,-0.37527 0.0653,-0.96265 1.10949,-1.48476 l 1.35423,-0.68528 -1.30528,-0.75053 c -0.29369,-0.17948 -0.6037,-0.34264 -0.9137,-0.52212 -1.63161,-0.89738 -3.067423,-1.69687 -3.622169,-2.98584 0.0979,0 0.195793,0.0163 0.293689,0.0326 0.864751,0.0979 1.68055,0.1958 2.31688,0.58738 l 6.77117,4.07902 -5.79221,-5.36799 c -1.15844,-1.07686 -2.463721,-1.89266 -3.720058,-2.69215 -0.99528,-0.62001 -1.941611,-1.2237 -2.822679,-1.92529 0.53843,-0.31001 1.044228,-0.53843 2.055824,-0.42422 l 3.883223,0.45685 -3.377425,-1.97424 c -0.571062,-0.32633 -1.191072,-0.62001 -1.794767,-0.88107 -1.550026,-0.70159 -2.52899,-1.20739 -2.838995,-2.17004 0.228425,-0.11421 0.473166,-0.22842 0.685275,-0.34264 0.53843,-0.26105 1.044228,-0.50579 1.53371,-0.58737 l -0.261057,-1.61529 c -1.468446,0.24474 -2.855311,-0.0979 -4.323757,-0.45685 -0.06526,-1.86004 1.484762,-2.54531 2.463725,-2.79005 l 1.811084,-0.45685 -1.550027,-1.02791 c -1.61529,-1.06055 -2.724782,-2.61057 -2.626886,-3.68743 0.06526,-0.63633 0.554746,-1.15844 1.484762,-1.55003 l 0.897384,-0.39158 -1.337918,-2.0232 c -0.407901,-0.60369 -0.815803,-1.2237 -1.223705,-1.86003 0.37527,0.0489 0.717907,0.14685 1.060545,0.34264 l 1.15844,0.70159 0.06526,-1.35423 c 0.01632,-0.39159 0.146845,-1.69687 0.717907,-1.64793 0.799487,0.0163 2.137405,1.32161 2.44741,2.79005 0.01632,0.21211 0.03263,0.42422 0.06526,0.63633 l 1.631606,-0.17948 c -0.01632,-0.21211 -0.03263,-0.42422 -0.08158,-0.63633 0,-0.42421 0.03263,-0.89738 0.08158,-1.37054 0,-0.0653 0.01632,-0.11422 0.01632,-0.17948 1.256336,0.93001 2.170034,2.3332 3.116364,3.78533 0.57107,0.88106 1.17476,1.81108 1.86004,2.6432 l 1.50107,1.79476 -0.0489,-2.33319 c -0.0163,-0.24474 0.0163,-0.5058 0.0489,-0.78317 1.27266,1.19107 2.30057,2.80636 2.77373,4.40533 l 0.84844,2.85531 0.73422,-2.88794 c 0.0163,-0.0979 0.049,-0.19579 0.0816,-0.31 1.06055,1.45213 1.87635,3.23058 2.62689,4.94376 l 1.3216,3.08374 0.22842,-3.36111 c 0.0326,-0.35895 0.13053,-0.73422 0.22843,-1.10949 1.87635,1.92529 3.23058,5.00903 3.149,7.42381 l -0.17948,5.2864 1.5174,-4.30744 c 0.26105,0.65264 0.47316,1.33792 0.68527,2.02319 0.22843,0.75054 0.45685,1.53371 0.75054,2.2353 l 1.25634,2.98584 0.31,-3.23058 c 0,-0.0163 0.0163,-0.0326 0.0163,-0.0489 0.21211,1.22371 0.45685,2.49636 1.04423,3.58954 l 1.43581,2.67583 c 0.24474,2.26794 0.29369,4.61745 0.21211,5.84115 l -0.44053,6.28169 2.02319,-5.95536 c 0.14684,-0.42422 0.35895,-0.81581 0.60369,-1.17476 -0.049,0.89738 -0.16316,1.81108 -0.27737,2.75741 -0.22843,1.87635 -0.45685,3.83428 -0.11421,5.79221 l 0.39158,2.34951 1.12581,-2.10477 c 0.31001,-0.57106 0.53843,-1.27266 0.71791,-1.99056 z m 1.68055,12.71021 c 0.42422,-5.54746 0.83212,-10.80123 -0.97896,-17.11555 l -0.89739,-3.16532 c 0,-0.57106 -0.0326,-1.14212 -0.11421,-1.71318 l -0.29369,-2.26794 -1.20739,1.94162 c -0.14684,0.24474 -0.35895,0.50579 -0.57106,0.79948 -0.0979,-2.51267 -0.42422,-5.62904 -1.10949,-7.6196 l -0.34264,-0.97896 -0.88107,0.55474 c -0.0326,0.0326 -0.0653,0.0489 -0.0816,0.0653 -0.13052,-0.52212 -0.24474,-1.07686 -0.34263,-1.66424 -0.22843,-1.22371 -0.45685,-2.49636 -1.02791,-3.63848 l -1.56635,-3.11637 0.0326,3.49164 c 0,0.14684 -0.0163,0.31 -0.0326,0.47316 -0.42421,-1.33791 -0.9137,-2.65952 -1.79476,-3.70374 l -0.11422,-0.13053 c -0.57106,-2.82268 -2.33319,-5.84115 -4.51955,-7.47276 l -1.06054,-0.79949 -0.22843,1.30529 c -0.0163,0.0653 -0.0326,0.13053 -0.0489,0.19579 -0.42422,-0.86475 -0.89739,-1.7295 -1.4195,-2.52899 -0.44053,-0.68527 -0.93002,-1.30528 -1.46845,-1.87635 l -1.15844,-1.20739 -0.16316,1.09318 c -0.89738,-1.58266 -2.17003,-3.00215 -3.62216,-3.94849 l -1.32161,-0.88106 0.0653,1.59897 c 0,0.0163 0,0.0489 0,0.0653 -0.16316,-0.24474 -0.32632,-0.48948 -0.47317,-0.7179 -1.28897,-1.97425 -2.610567,-3.99744 -4.911132,-5.02535 l -1.207389,-0.55475 0.06526,1.33792 c -0.750539,-0.79949 -1.680554,-1.33792 -2.577938,-1.35423 l -0.01632,0 c -0.130528,0 -0.310005,0.0163 -0.489482,0.0653 -0.571062,-0.89738 -1.631606,-3.23058 -1.794767,-5.05798 0.244741,0 0.522114,-0.0163 0.83212,-0.0816 l 0.522114,-0.13053 0.08158,-0.53843 c 0.440534,-2.72478 -0.326321,-4.94376 -1.060544,-7.08117 -0.228425,-0.68527 -0.473166,-1.37055 -0.668959,-2.07214 0.571062,0.0979 1.142125,0.21211 1.53371,0.47317 l 1.027912,0.66896 0.228425,-1.20739 c 0.45685,-2.44741 -0.130528,-5.0743 -1.778451,-7.99487 1.647923,-2.00688 -0.391585,-4.87851 -1.908979,-7.01591 -0.277373,-0.39159 -0.554747,-0.76686 -0.783171,-1.10949 1.860031,-2.03951 -0.261057,-5.22114 -1.843716,-7.58697 -0.146844,-0.21211 -0.293689,-0.42422 -0.424217,-0.63633 0.08158,-0.0163 0.179476,-0.0489 0.277373,-0.0816 l 0.45685,-0.17948 0.06526,-0.48948 c 0.261057,-2.20267 -0.685275,-3.94849 -1.53371,-5.49851 -0.261057,-0.48948 -0.522114,-0.96265 -0.734223,-1.4195 l 0.652642,-0.13053 -0.03263,-0.70159 c -0.130528,-2.6432 -1.550026,-4.86219 -2.936891,-7.01591 -0.391586,-0.60369 -0.799487,-1.24002 -1.158441,-1.86003 0.01632,0 0.03263,-0.0163 0.04895,-0.0326 l 0.489482,-0.29369 -0.114212,-0.55475 c -1.158441,-5.54746 -3.507954,-10.83386 -5.939047,-15.97342 0.62001,1.02791 1.24002,2.07214 1.876347,3.10005 -0.554746,-1.28897 -1.125808,-2.56162 -1.745819,-3.80164 -1.223705,-2.48005 -1.974244,-5.09062 -2.267933,-7.7175 l -2.577938,-4.81324 -2.626886,-5.00903 c -0.440534,-0.83212 -0.864752,-1.68056 -1.256337,-2.49636 -0.342637,-0.73422 -0.603694,-1.58266 -0.848435,-2.46373 -0.930016,-3.52427 -1.631607,-7.24433 -1.974244,-10.88281 -0.08158,-0.89738 -0.146845,-1.81108 -0.130529,-2.65952 -0.01632,-0.45685 0.06526,-0.66896 0.06526,-1.48476 0,-0.6037 -0.08158,-1.10949 -0.163161,-1.63161 -0.37527,-2.00687 -0.930016,-3.83427 -1.517394,-5.66167 -1.174757,-3.6548 -2.496358,-7.2117 -3.817959,-10.7686 -0.652643,-1.77845 -1.354233,-3.54059 -1.941612,-5.30272 -0.146844,-0.45685 -0.244741,-0.81581 -0.391585,-1.33792 -0.195793,-0.55475 -0.391586,-1.12581 -1.060544,-1.64792 -0.326322,-0.26106 -0.897384,-0.40791 -1.337918,-0.26106 -0.456849,0.11421 -0.766855,0.37364 -0.978963,0.62001 -0.424218,0.48948 -0.636327,0.99528 -0.815804,1.50108 -0.636326,2.00687 -0.522114,3.98112 -0.326321,5.90641 0.0979,0.81581 0.228425,1.61529 0.407902,2.41478 0.212109,1.07686 0.489482,2.1374 0.815803,3.18163 l 0.277373,-0.0653 c -0.310005,-1.86003 -0.554746,-3.73801 -0.587378,-5.59641 -0.01632,-1.84372 0.130528,-3.7527 0.766855,-5.33535 0.16316,-0.39159 0.375269,-0.75054 0.587378,-0.94634 0.06526,-0.0832 0.130529,-0.11421 0.179477,-0.11421 0.01632,-0.0163 0.03263,-0.0163 0.03263,-0.0163 0,0.0163 -0.01632,0.0163 -0.01632,0.0163 l 0,0.0163 c 0.0979,0.0816 0.277373,0.44216 0.342637,0.78317 0.0979,0.37364 0.212109,0.96265 0.326321,1.40155 0.473166,1.87635 1.027912,3.68906 1.582659,5.51483 1.125808,3.6238 2.300565,7.2117 3.312161,10.81755 0.489482,1.81108 0.995279,3.62216 1.272653,5.35167 0.06526,0.42421 0.114212,0.84843 0.114212,1.19107 0.01632,0.14684 -0.0979,0.86475 -0.114212,1.35423 -0.03263,1.06055 0.01632,2.03951 0.08158,3.01848 0.391585,3.91585 1.060544,7.68486 2.170036,11.45387 0.277374,0.93002 0.603695,1.90898 1.093177,2.88795 0.440533,0.88106 0.897383,1.71318 1.354233,2.56162 l 2.773731,4.9764 c 0.832119,1.50107 1.713187,2.98584 2.594254,4.4706 -0.0979,0.0979 -0.195793,0.21211 -0.277373,0.34264 l -0.277373,0.37527 0.195793,0.42421 c 0.70159,1.53371 1.452129,3.08374 2.218984,4.68271 2.626887,5.46588 5.351669,11.09493 6.722219,16.95239 -0.06526,0.0163 -0.130529,0.0326 -0.212109,0.0653 l -0.832119,0.32632 0.391585,0.79949 c 0.53843,1.07686 1.191073,2.10477 1.843715,3.10005 1.191073,1.84371 2.316881,3.58953 2.610571,5.51483 -0.08158,0.0163 -0.146845,0.0326 -0.228425,0.0653 l -0.848436,0.1958 0.261057,0.84843 c 0.310006,0.89738 0.750539,1.7295 1.191073,2.52899 0.701591,1.28897 1.354233,2.51267 1.370549,3.91586 -0.228424,0 -0.505797,0.0163 -0.815803,0.0979 l -0.962647,0.29369 0.489481,0.88107 c 0.277374,0.53843 0.701591,1.15844 1.142125,1.8274 1.762135,2.62688 3.100052,4.8785 1.696871,5.85746 l -0.620011,0.44054 0.37527,0.63633 c 0.310005,0.53843 0.750539,1.15844 1.207388,1.81108 1.713187,2.39846 2.936892,4.32376 1.713187,5.2864 l -0.554746,0.44054 0.358953,0.62001 c 1.435814,2.36583 2.088456,4.4706 2.006876,6.39589 -0.326321,-0.0979 -0.652642,-0.16316 -0.978964,-0.22842 -0.407901,-0.0653 -0.799487,-0.14685 -1.044228,-0.26106 l -1.468446,-0.75054 0.29369,1.61529 c 0.244741,1.28897 0.636326,2.46373 1.027912,3.60585 0.636326,1.86004 1.240021,3.62217 1.07686,5.67799 -0.277373,0 -0.603694,0.0163 -0.962648,0.11422 l -0.554746,0.16316 -0.03263,0.57106 c -0.146845,2.46373 1.403181,5.71062 2.137404,6.82011 -0.16316,0.27738 -0.310005,0.62001 -0.407901,1.04423 -0.37527,-0.0979 -0.734223,-0.13053 -1.076861,-0.17947 -0.407901,-0.0489 -0.750539,-0.0816 -1.044228,-0.21211 l -2.267933,-1.0116 1.223705,2.15372 c 0.685275,1.20739 1.468446,2.38215 2.235301,3.52427 l 0.293689,0.44053 c -1.191073,0.78318 -1.53371,1.74582 -1.598974,2.46373 -0.146845,1.59897 0.913699,3.149 2.15372,4.27481 -1.713186,0.93001 -2.545306,2.61057 -2.186352,4.63376 l 0.0979,0.52212 1.044228,0.26105 c 0.37527,0.0816 0.750539,0.17948 1.125809,0.26106 l -0.130529,0.0489 0.04895,0.63632 c 0.130529,2.17004 1.729503,3.11637 3.328477,3.86691 -0.179476,0.0816 -0.358953,0.19579 -0.522114,0.27737 -0.228425,0.14685 -0.440533,0.27738 -0.70159,0.37527 l -1.272653,0.42422 0.962647,0.93002 c 1.240021,1.19107 2.626887,2.05582 3.964804,2.90426 0.114212,0.0653 0.228425,0.14684 0.342637,0.21211 -0.06526,-0.0163 -0.130528,-0.0326 -0.195793,-0.0489 l -1.07686,-0.31001 0.04895,1.14213 c 0.130529,2.75741 2.398462,4.11164 4.486917,5.27009 -0.79949,0.79948 -0.897383,1.69687 -0.86475,2.25161 0.13053,2.02319 2.25162,4.11165 4.19323,5.22114 -0.47317,0.55475 -0.68528,1.12581 -0.62001,1.71319 0.16316,1.51739 2.02319,2.36583 3.99743,3.26321 0.47317,0.21211 0.94634,0.44054 1.38687,0.65264 -0.76686,0.26106 -1.40318,0.68528 -1.61529,1.40319 -0.45685,1.6316 1.74582,3.31216 3.78533,4.81324 -0.0163,0.0163 -0.0163,0.0163 -0.0326,0.0163 -0.68527,0.0816 -1.3216,0.16316 -1.86003,0.0979 l -1.25634,-0.16316 0.39159,1.2237 c 0.42422,1.3216 2.07214,2.21899 3.67111,3.06742 0.84844,0.47317 2.44741,1.3216 2.46373,1.74582 0,0 -0.0163,0.29369 -0.9137,0.83212 l -1.06054,0.63633 0.99528,0.7179 c 1.43581,1.04423 3.49163,1.55003 5.17219,1.69687 0.19579,0.63633 0.58738,0.75054 0.88107,0.73423 l 0.62001,-0.0326 0.17947,-0.75053 c 0.0163,-0.0489 0.0326,-0.11422 0.049,-0.21211 0.0979,-0.11422 0.17948,-0.24474 0.29369,-0.35896 0,0.0326 0,0.0816 0,0.11422 0.0816,0.62001 0.14685,1.20738 0.13053,1.71318 l -0.0653,1.63161 1.87634,-1.28897 c 0.93002,-0.62001 2.03951,-1.37055 2.88795,-2.39846 0.19579,0.16316 0.39158,0.31 0.62001,0.45685 l 0.34263,0.21211 0.39159,-0.14685 c 0.93001,-0.39158 1.51739,-0.96265 1.90898,-1.59897 l 0.11421,0.0163 c 0,-0.0816 0,-0.16316 0,-0.24474 0.32632,-0.62001 0.45685,-1.27265 0.53843,-1.87634 l -0.4079,-0.0489 c 0.049,-0.50417 0.0816,-1.00997 0.11421,-1.49945 z"
       inkscape:connector-curvature="0" /><path
       id="path20-3"
       d="m 52.414663,264.49117 c 0.587378,0.14848 1.060544,0.26106 1.468446,0.78317 l 0.832119,1.02791 0.554746,-1.20738 c 0.179477,-0.37364 0.522114,-0.73423 0.864752,-1.07686 0.04895,-0.0473 0.0979,-0.0979 0.16316,-0.16317 0.163161,0.16317 0.326322,0.32633 0.505798,0.48949 0.424218,0.39158 0.9137,0.83212 1.060544,1.15844 l 0.603695,1.2237 0.799487,-1.09317 c 1.240021,-1.71319 2.904259,-2.67584 4.242177,-2.4311 1.354233,0.23006 2.039508,1.63161 2.365829,2.75742 l 1.598974,-0.35896 c -0.08158,-0.45685 -0.03263,-0.94633 0.01632,-1.48476 0,-0.0995 0,-0.19579 0.01632,-0.29369 1.093177,0.5058 2.023192,1.41787 3.002156,2.38215 0.505798,0.48948 1.027912,0.99365 1.566342,1.45213 l 0.668959,0.55474 0.522114,-0.68527 c 0.978964,-1.3216 2.186352,-1.95793 3.52427,-1.86003 1.550026,0.14684 3.018472,1.30528 3.948487,3.11473 l 1.07686,2.13904 0.440534,-2.34951 c 0.244741,-1.25634 0.685275,-1.93998 1.321601,-2.05583 1.631607,-0.27737 4.617446,2.54694 5.775887,4.52118 l 1.321601,2.28262 0.195793,-2.62525 c 0.146844,-2.07377 2.496358,-3.37743 4.699026,-3.44269 0.815804,-0.0343 3.60585,0.0979 3.98112,2.93689 l 0.587378,4.30744 1.0116,-4.22586 c 0.0816,-0.32469 0.39158,-1.43581 0.9137,-1.3216 0.62001,0.0326 1.68055,1.18944 1.82739,2.83899 l 1.63161,-0.0653 c 0.0163,-0.85007 0.21211,-1.45376 0.55475,-1.64956 0.22842,-0.12889 0.57106,-0.0816 0.93001,0.13053 0.68528,0.4079 1.37055,1.40318 1.33792,2.70847 l -0.0326,2.6122 1.51739,-2.12272 c 0.94633,-1.30528 1.12581,-1.27102 3.32848,-0.94633 l 0.47317,0.0653 0.29368,-0.37363 c 0.17948,-0.22843 0.32633,-0.52212 0.45685,-0.79949 0.0163,-0.0489 0.0489,-0.0979 0.0653,-0.14685 0.68527,0.11422 1.33792,0.24475 1.74582,0.32633 l 0.31,0.0653 0.13053,-0.66896 0.17948,-0.93001 -0.29369,-0.0653 c -0.53843,-0.0979 -1.48476,-0.29369 -2.36583,-0.42422 l -0.42422,-0.0489 -0.29369,0.31 c -0.21211,0.22843 -0.35895,0.53843 -0.52211,0.88107 -0.0163,0.0326 -0.0326,0.0816 -0.0653,0.11421 -1.35423,-0.19579 -2.25161,-0.24474 -3.149,0.4079 -0.34263,-0.99528 -0.99528,-1.84534 -1.86003,-2.34951 -0.86475,-0.52211 -1.81108,-0.58738 -2.56162,-0.16316 -0.19579,0.11258 -0.39159,0.25942 -0.58738,0.47316 -0.63632,-1.04585 -1.55002,-1.74581 -2.51267,-1.81108 -0.37527,-0.0343 -1.07686,0.0326 -1.69687,0.68528 -0.930018,-1.56635 -2.708469,-2.48168 -4.960086,-2.38215 -2.267933,0.0653 -4.731658,1.17476 -5.775887,3.16369 -1.598974,-1.97425 -4.258492,-4.24218 -6.428529,-3.88323 -0.685274,0.11421 -1.501078,0.52212 -2.088456,1.64956 -1.15844,-1.45376 -2.675834,-2.36583 -4.291125,-2.49636 -1.631606,-0.14685 -3.165316,0.48948 -4.405337,1.81108 -0.310005,-0.279 -0.587378,-0.55638 -0.881067,-0.83375 -1.354234,-1.33628 -2.773731,-2.70847 -4.780607,-3.11637 l -1.060544,-0.21211 0.08158,0.99528 c -0.766855,-0.73422 -1.566342,-1.01159 -2.104772,-1.10949 -1.713187,-0.31 -3.622167,0.55475 -5.155877,2.2353 -0.228424,-0.23005 -0.473165,-0.45685 -0.717906,-0.66896 -0.358954,-0.34263 -0.766855,-0.7179 -0.897384,-0.96264 l -0.701591,-1.32324 -0.734223,1.32324 c -0.114212,0.19416 -0.342637,0.42421 -0.603694,0.68527 -0.195793,0.19416 -0.407901,0.4079 -0.603694,0.63633 -0.53843,-0.34264 -1.07686,-0.48948 -1.550026,-0.6037 -0.342638,-0.0979 -0.652643,-0.17947 -0.897384,-0.32632 l -0.946332,-0.63633 -0.261057,0.97897 c -0.0979,-0.0979 -0.195792,-0.17785 -0.293689,-0.27737 -0.375269,-0.34264 -0.799487,-0.73423 -0.946331,-0.94634 l -0.848436,-1.27102 -0.587378,1.41787 c -0.391586,0.96428 -0.587378,2.03951 -0.587378,3.15063 -0.9137,-0.8158 -1.860032,-1.51903 -2.659519,-1.92693 l -1.109492,-0.57106 -0.08158,1.24002 c -0.16316,2.56162 1.076861,4.48692 2.267933,6.34858 0.489482,0.76686 0.962648,1.50108 1.321602,2.25162 l -1.892664,-0.79949 1.093176,2.02319 c 1.174757,2.18636 3.736379,5.09062 5.074296,6.05326 l 0.946332,-1.33791 c -0.636326,-0.45685 -1.762135,-1.58266 -2.790047,-2.87163 l -0.244741,-1.53371 c -0.261057,-1.76214 -1.207389,-3.22895 -2.137404,-4.66476 -0.799487,-1.25797 -1.582658,-2.48168 -1.892664,-3.83591 0.9137,0.70322 1.876348,1.61529 2.610571,2.51267 l 2.431093,2.95484 -1.011596,-3.68906 c -0.326321,-1.17476 -0.375269,-2.34788 -0.195793,-3.42637 0.04895,0.0489 0.0979,0.0816 0.146845,0.13053 0.473166,0.44053 1.07686,0.97896 1.240021,1.28897 l 0.799487,1.53371 0.668959,-1.59898 c 0.0979,-0.22842 0.146844,-0.44053 0.16316,-0.65264 0.08158,0.0163 0.146845,0.0326 0.212109,0.0636 z"
       inkscape:connector-curvature="0" /><g
       id="g22"
       transform="matrix(1.6316064,0,0,-1.6316064,-148.74609,591.69515)" /></g></svg>