<?xml version="1.0" encoding="UTF-8" standalone="no"?>
<!-- Created with Inkscape (http://www.inkscape.org/) -->

<svg
   xmlns:dc="http://purl.org/dc/elements/1.1/"
   xmlns:cc="http://creativecommons.org/ns#"
   xmlns:rdf="http://www.w3.org/1999/02/22-rdf-syntax-ns#"
   xmlns:svg="http://www.w3.org/2000/svg"
   xmlns="http://www.w3.org/2000/svg"
   xmlns:sodipodi="http://sodipodi.sourceforge.net/DTD/sodipodi-0.dtd"
   xmlns:inkscape="http://www.inkscape.org/namespaces/inkscape"
   id="svg2"
   version="1.1"
   inkscape:version="0.91 r13725"
   width="308"
   height="672"
   xml:space="preserve"
   sodipodi:docname="sc-w-1-4.svg"><metadata
     id="metadata8"><rdf:RDF><cc:Work
         rdf:about=""><dc:format>image/svg+xml</dc:format><dc:type
           rdf:resource="http://purl.org/dc/dcmitype/StillImage" /><dc:title></dc:title></cc:Work></rdf:RDF></metadata><defs
     id="defs6" /><sodipodi:namedview
     pagecolor="#ffffff"
     bordercolor="#666666"
     borderopacity="1"
     objecttolerance="10"
     gridtolerance="10"
     guidetolerance="10"
     inkscape:pageopacity="0"
     inkscape:pageshadow="2"
     inkscape:window-width="1920"
     inkscape:window-height="1015"
     id="namedview4"
     showgrid="false"
     inkscape:zoom="0.76293261"
     inkscape:cx="-168.48895"
     inkscape:cy="327.26431"
     inkscape:window-x="0"
     inkscape:window-y="0"
     inkscape:window-maximized="1"
     inkscape:current-layer="g10" /><g
     id="g10"
     inkscape:groupmode="layer"
     inkscape:label="ink_ext_XXXXXX"
     transform="matrix(1.25,0,0,-1.25,0,672.00001)"><g
       transform="matrix(1.4469445,0,0,-1.3949991,-124.07487,565.53752)"
       id="g3"><g
         id="XMLID_1_"><g
           id="g6"><path
             inkscape:connector-curvature="0"
             d="m 168.91,88.42 c 0,0.62 -0.12,1.23 -0.65,1.54 -0.35,0.2 -0.75,0.22 -1.12,0.06 -0.19,-0.08 -0.37,-0.2 -0.53,-0.35 -0.07,0.26 -0.14,0.51 -0.2,0.76 -0.25,0.94 -0.44,1.68 -1.1,1.81 -0.46,0.1 -0.9,-0.19 -1.38,-0.71 -0.2,0.61 -0.34,1.31 -0.47,1.95 -0.05,0.29 -0.11,0.56 -0.17,0.82 l -0.33,1.5 -0.33,-0.75 c -0.06,0.97 -0.25,1.63 -0.79,1.78 -0.18,0.05 -0.34,0.03 -0.5,-0.03 0.01,0.41 0.01,0.84 -0.03,1.27 l -0.09,0.84 -0.7,-0.48 c -0.07,-0.05 -0.18,-0.09 -0.31,-0.14 -0.01,0 -0.03,-0.01 -0.04,-0.01 0.01,0.58 0,1.17 -0.04,1.75 l -0.1,1.54 -0.75,-1.2 c -0.05,0.2 -0.11,0.4 -0.17,0.61 -0.27,0.97 -0.57,1.97 -0.63,2.89 -0.01,0.05 -0.01,0.1 -0.01,0.15 l -0.09,1.81 -0.85,-1.6 c -0.06,-0.1 -0.13,-0.2 -0.2,-0.31 -0.01,-0.03 -0.03,-0.05 -0.04,-0.07 -0.09,0.31 -0.16,0.64 -0.23,0.99 -0.15,0.7 -0.3,1.42 -0.67,2.05 l -0.44,0.73 -0.52,-0.92 c -0.04,-0.06 -0.07,-0.11 -0.1,-0.17 -0.04,0.13 -0.07,0.25 -0.11,0.38 -0.13,0.49 -0.27,0.99 -0.46,1.45 l -0.42,1.02 -0.49,-0.98 c -0.03,-0.05 -0.16,-0.2 -0.25,-0.29 -0.02,-0.03 -0.04,-0.05 -0.06,-0.08 -0.14,0.29 -0.25,0.62 -0.36,0.96 -0.34,1.02 -0.76,2.28 -2.16,2.49 -0.37,0.58 -0.9,1.05 -1.35,1.41 l -0.73,0.58 c -0.64,0.86 -1.32,1.7 -2.03,2.39 l -0.63,0.61 c -0.16,0.28 -0.3,0.58 -0.38,0.88 0.05,0 0.09,0.01 0.13,0.01 0.19,0.03 0.4,0.05 0.52,0.03 l 1.42,-0.3 -0.93,1.11 c -0.11,0.13 -0.24,0.27 -0.37,0.42 -0.42,0.46 -0.95,1.05 -1.11,1.58 0.04,0 0.08,0 0.11,0.01 l 0.7,0.03 -0.25,0.65 c -0.32,0.82 -0.92,1.47 -1.51,2.11 -0.48,0.53 -0.95,1.04 -1.22,1.61 0.2,-0.06 0.4,-0.17 0.58,-0.31 l 2.24,-1.79 -1.5,2.44 c -0.26,0.42 -0.58,0.83 -0.9,1.22 -0.39,0.51 -0.8,1.02 -1.06,1.54 l 0.59,-0.11 -0.33,0.84 c -0.22,0.56 -0.57,1.05 -0.9,1.52 -0.35,0.49 -0.68,0.96 -0.83,1.46 0.19,-0.07 0.35,-0.2 0.47,-0.37 l 0.83,0.56 c -0.14,0.23 -0.3,0.46 -0.46,0.69 -0.55,0.8 -1.08,1.57 -1.13,2.4 0.18,-0.13 0.36,-0.34 0.58,-0.6 0.09,-0.11 0.17,-0.21 0.26,-0.3 l 0.79,0.61 c -0.06,0.08 -0.12,0.17 -0.18,0.26 0.16,-0.17 0.31,-0.37 0.45,-0.57 l 1.37,-1.83 -0.48,2.24 c -0.17,0.77 -0.08,1.67 0.07,1.96 0.12,-0.09 0.4,-0.35 0.84,-1.15 l 1.04,-1.86 -0.1,2.13 c -0.01,0.27 0.02,0.42 0.18,0.58 0.67,-0.69 1.33,-1.25 1.98,-1.64 l 1.18,-0.73 -0.44,1.31 c -0.17,0.5 -0.12,0.65 -0.11,0.65 0.4,0.13 2.39,-1.08 3.07,-1.74 0.05,-0.06 0.1,-0.11 0.16,-0.17 l 0.72,0.7 c -0.03,0.03 -0.06,0.07 -0.11,0.11 -0.16,0.18 -0.27,0.43 -0.36,0.7 0.43,0.13 0.89,-0.24 1.63,-1.01 l 1.42,-1.46 -0.45,1.8 c -0.03,0.13 0,0.24 0.06,0.42 0.62,-0.22 1.3,-0.7 2.02,-1.43 l 0.72,0.69 c -0.27,0.29 -0.36,0.47 -0.39,0.56 0.33,0.07 1.35,-0.2 1.85,-0.96 l 0.87,0.5 c -0.03,0.06 -0.05,0.11 -0.06,0.14 0.12,0.01 0.37,0 0.71,-0.13 0.52,-0.2 0.93,-0.55 1.05,-0.89 l 0.71,-1.95 0.24,1.91 c 0.19,-0.1 0.37,-0.22 0.47,-0.35 l 0.75,-0.88 0.13,1.15 c 0.03,0.2 0.12,0.23 0.16,0.24 0.15,0.05 0.35,0.01 0.52,-0.08 -0.03,-0.1 -0.07,-0.19 -0.09,-0.28 -0.28,-0.98 -0.53,-1.95 -0.78,-2.93 -1.85,-7.82 -3.75,-18.63 -4.96,-26.55 l 0.67,2.9 2.71,11.69 c 0.9,3.89 1.86,7.78 2.89,11.62 0.26,0.96 0.53,1.92 0.83,2.86 0.15,0.51 0.33,1.01 0.51,1.51 -0.5,0.04 -0.99,0.1 -1.47,0.19 -0.01,-0.02 -0.01,-0.04 -0.02,-0.06 -0.36,0.15 -0.77,0.2 -1.12,0.08 -0.21,-0.07 -0.39,-0.18 -0.53,-0.34 -0.2,0.12 -0.41,0.23 -0.6,0.32 -0.09,0.04 -0.18,0.08 -0.25,0.12 l -0.76,0.41 0,-0.12 c -0.43,0.29 -0.95,0.49 -1.4,0.55 -0.49,0.06 -0.89,-0.04 -1.13,-0.28 -0.64,0.45 -1.41,0.66 -1.97,0.6 -0.37,-0.04 -0.66,-0.21 -0.82,-0.46 -0.59,0.41 -1.18,0.66 -1.74,0.74 l -0.54,0.08 -0.03,-0.54 c 0,-0.03 -0.02,-0.08 -0.03,-0.13 -0.72,0.64 -1.67,1.2 -2.69,0.37 l -0.23,-0.18 c -1,0.63 -2.21,1.18 -2.88,0.79 -0.23,-0.13 -0.37,-0.33 -0.44,-0.58 -0.4,0.33 -0.81,0.73 -1.22,1.18 l -0.31,0.34 -0.36,-0.28 c -0.22,-0.16 -0.42,-0.32 -0.57,-0.52 -0.42,0.54 -0.92,0.93 -1.47,0.72 -0.54,-0.2 -0.75,-0.91 -0.81,-1.63 -0.31,0.25 -0.68,0.45 -1.12,0.5 l -0.52,0.06 -0.03,-0.53 c 0,-0.03 0,-0.05 0,-0.08 -0.17,0.05 -0.35,0.07 -0.55,0.05 l -0.38,-0.03 -0.07,-0.38 c -0.2,-1.11 0.23,-2.06 0.76,-2.91 -0.05,-0.01 -0.1,-0.01 -0.15,-0.01 l -0.44,-0.05 -0.01,-0.45 c 0,-1.05 0.56,-1.84 1.1,-2.61 0.11,-0.16 0.22,-0.31 0.33,-0.46 l -0.22,0.03 0.12,-0.69 c 0.16,-0.96 0.78,-1.78 1.4,-2.57 -0.09,0 -0.19,0 -0.29,-0.01 l -0.54,-0.05 0.09,-0.54 c 0.21,-1.14 0.97,-1.97 1.7,-2.77 0.36,-0.39 0.71,-0.78 0.98,-1.18 l -0.28,-0.03 -0.05,-0.39 c -0.12,-0.9 0.48,-1.73 1.07,-2.4 -0.07,-0.01 -0.13,-0.01 -0.18,0 l -0.53,0.06 -0.03,-0.53 c -0.03,-0.5 0.12,-1.01 0.34,-1.47 l -0.75,0.58 0.4,-1.45 c 0.17,-0.61 0.5,-1.14 0.82,-1.66 0.08,-0.13 0.16,-0.25 0.23,-0.38 -0.42,0.13 -0.85,0.25 -1.32,0.28 l -0.67,0.05 0.15,-0.65 c 0.11,-0.51 0.35,-0.97 0.58,-1.41 0.03,-0.04 0.05,-0.09 0.07,-0.13 l -2.55,1.76 2.17,-2.69 c 0.63,-0.78 1.24,-1.79 1.71,-2.86 -0.11,0.03 -0.21,0.06 -0.29,0.1 l -0.79,0.42 0.05,-0.89 c 0.05,-0.82 0.69,-1.63 1.3,-2.42 0.34,-0.44 0.91,-1.17 0.86,-1.41 0,-0.04 -0.06,-0.13 -0.35,-0.32 -0.11,-0.08 -0.26,-0.17 -0.31,-0.39 -0.01,-0.09 -0.04,-0.11 -0.12,-0.2 -0.33,-0.34 -0.47,-0.69 -0.22,-1.47 0.14,-0.43 0.56,-0.84 0.97,-1.24 0.01,-0.01 0.02,-0.02 0.03,-0.03 l -0.15,-0.13 0.31,-0.37 c 0.18,-0.22 0.35,-0.44 0.52,-0.66 0.25,-0.33 0.51,-0.67 0.8,-1 -0.08,-0.05 -0.15,-0.1 -0.23,-0.14 -0.1,-0.07 -0.2,-0.14 -0.33,-0.19 l -0.44,-0.19 0.16,-0.45 c 0.35,-0.94 1.19,-1.5 1.94,-1.99 0.11,-0.08 0.23,-0.16 0.34,-0.23 -0.55,-0.34 -1.15,-0.76 -1.69,-1.28 l -0.53,-0.52 0.68,-0.3 c 0.14,-0.06 0.29,-0.15 0.45,-0.24 0,-0.01 0.01,-0.01 0.01,-0.01 -0.75,-0.43 -1.41,-0.98 -1.68,-1.93 l -0.19,-0.66 0.68,0.02 c 0.5,0.02 0.99,-0.03 1.5,-0.08 0.12,-0.02 0.24,-0.03 0.36,-0.04 -0.58,-0.65 -0.99,-1.44 -1.16,-2.28 l -0.12,-0.55 0.57,-0.05 c 0.54,-0.04 1.1,-0.08 1.63,0 l 0,-0.01 c -0.16,-0.46 -0.32,-0.95 -0.43,-1.45 l -0.14,-0.66 0.67,0.05 c 0.42,0.04 0.84,0.12 1.25,0.19 0.52,0.1 1.02,0.19 1.51,0.19 -0.08,-0.23 -0.24,-0.45 -0.42,-0.69 -0.3,-0.44 -0.65,-0.93 -0.69,-1.58 l -0.03,-0.47 0.47,-0.06 c 0.76,-0.1 1.53,-0.04 2.26,0.15 -0.01,-0.11 -0.03,-0.22 -0.04,-0.33 -0.03,-0.29 -0.06,-0.58 -0.06,-0.87 l -0.01,-0.3 0.26,-0.14 c 0.42,-0.24 0.91,-0.29 1.4,-0.18 0.06,-0.47 0.28,-0.75 0.48,-0.9 0.38,-0.29 0.93,-0.35 1.58,-0.17 0.01,-0.64 0.16,-1.4 0.7,-1.69 0.2,-0.11 0.5,-0.17 0.87,-0.01 0.08,-0.28 0.16,-0.57 0.24,-0.87 0.12,-0.47 0.24,-0.95 0.39,-1.39 l 0.26,-0.76 0.57,0.57 c 0.22,0.22 0.49,0.45 0.77,0.67 0.69,-1.27 1.18,-1.81 2.65,-1.99 0.47,-0.05 0.68,0.38 0.79,0.61 l 0,0.01 c 0.1,-0.03 0.22,-0.09 0.34,-0.15 0.28,-0.14 0.64,-0.32 1.09,-0.32 l 0.36,0 0.11,0.34 c 0.02,0.03 0.03,0.07 0.05,0.11 0.36,-0.46 0.79,-0.82 1.25,-1.03 l 0.62,-0.28 0.08,0.67 c 0.03,0.22 0.1,0.44 0.17,0.67 0.03,0.08 0.05,0.16 0.08,0.23 0.17,-0.07 0.35,-0.17 0.53,-0.26 0.5,-0.27 1.06,-0.56 1.76,-0.58 l 0.93,-0.01 -0.5,0.78 c -0.02,0.04 -0.05,0.12 -0.07,0.21 0.49,-0.01 0.96,0.02 1.4,0.15 l 0.45,0.13 -0.11,0.46 c -0.17,0.74 -0.69,1.35 -1.45,1.72 0.05,0.05 0.09,0.1 0.14,0.16 0.35,0.41 0.71,0.84 0.94,1.32 l 0.41,0.88 -0.95,-0.17 c -0.05,-0.01 -0.15,0 -0.25,0.01 0.02,0.11 0.04,0.22 0.05,0.33 0.27,1.61 0.41,2.78 -0.3,3.17 -0.25,0.13 -0.51,0.11 -0.76,0.02 0.05,0.6 0.09,1.22 0.04,1.85 l -0.07,0.77 -0.68,-0.38 c -0.1,-0.05 -0.18,-0.07 -0.27,-0.1 -0.06,-0.02 -0.11,-0.03 -0.17,-0.05 -0.02,0.14 -0.04,0.28 -0.06,0.43 -0.22,1.37 -0.43,2.67 -1.3,2.89 -0.3,0.07 -0.59,-0.01 -0.85,-0.17 z M 168.62,75.5 c 0.19,0.19 0.25,0.38 0.19,0.57 -0.04,0.15 -0.16,0.34 -0.48,0.41 l -0.34,0.08 -0.19,-0.29 c -0.09,-0.14 -0.19,-0.26 -0.29,-0.39 -0.16,-0.2 -0.33,-0.42 -0.48,-0.68 -0.11,0.04 -0.22,0.1 -0.34,0.16 -0.29,0.15 -0.61,0.3 -1.01,0.29 -0.4,-0.02 -0.57,-0.37 -0.68,-0.61 -0.01,0 -0.01,-0.01 -0.01,-0.01 -0.92,0.14 -1.15,0.46 -1.92,1.93 l -0.26,0.5 -0.46,-0.31 c -0.25,-0.17 -0.51,-0.37 -0.76,-0.58 -0.06,0.19 -0.1,0.38 -0.15,0.57 -0.14,0.54 -0.28,1.09 -0.47,1.6 l -0.27,0.71 -0.55,-0.53 c -0.24,-0.24 -0.36,-0.25 -0.36,-0.25 -0.08,0.1 -0.21,0.84 -0.09,1.46 l 0.19,0.98 -0.9,-0.44 c -0.67,-0.33 -1.15,-0.36 -1.3,-0.24 -0.09,0.07 -0.16,0.32 -0.07,0.8 l 0.24,1.22 -1.01,-0.71 c -0.29,-0.2 -0.62,-0.29 -0.89,-0.24 0.01,0.14 0.03,0.28 0.05,0.41 0.04,0.41 0.09,0.83 0.02,1.23 l -0.1,0.62 -0.58,-0.24 c -0.58,-0.24 -1.22,-0.35 -1.86,-0.36 0.1,0.19 0.23,0.38 0.37,0.58 0.34,0.47 0.72,1.01 0.67,1.76 l -0.03,0.39 -0.38,0.07 c -0.82,0.14 -1.6,-0.01 -2.36,-0.15 -0.14,-0.03 -0.28,-0.06 -0.42,-0.08 0.06,0.21 0.13,0.42 0.21,0.64 0.1,0.32 0.21,0.63 0.3,0.95 l 0.33,1.16 -1.05,-0.58 c -0.42,-0.24 -0.94,-0.26 -1.47,-0.24 0.3,0.77 0.86,1.47 1.57,1.95 l 1.44,0.97 -1.74,-0.06 c -0.5,-0.01 -0.99,0.04 -1.51,0.09 -0.26,0.03 -0.53,0.06 -0.81,0.08 0.39,0.49 1.04,0.8 1.71,1.12 l 1.35,0.64 -1.4,0.33 c -0.21,0.04 -0.43,0.16 -0.66,0.29 0.55,0.44 1.14,0.78 1.62,1.05 l 0.61,0.33 -0.52,0.47 c -0.3,0.28 -0.67,0.53 -1.02,0.76 -0.53,0.36 -1.05,0.7 -1.35,1.14 0.01,0 0.01,0.01 0.02,0.01 0.24,0.16 0.35,0.23 0.6,0.2 l 1.63,-0.23 -1.23,1.09 c -0.5,0.45 -0.9,0.97 -1.33,1.53 -0.01,0.01 -0.02,0.02 -0.02,0.03 l 0.38,0.02 -0.67,0.72 c -0.12,0.15 -0.3,0.33 -0.49,0.52 -0.26,0.26 -0.65,0.64 -0.71,0.84 -0.1,0.31 -0.08,0.4 -0.08,0.4 0.14,0.15 0.29,0.31 0.39,0.56 0.25,0.17 0.62,0.47 0.71,0.91 0.14,0.69 -0.41,1.4 -1.05,2.22 -0.28,0.36 -0.58,0.74 -0.79,1.1 0.14,-0.03 0.27,-0.07 0.37,-0.11 l 1.07,-0.47 -0.4,1.1 c -0.29,0.79 -0.64,1.55 -1.04,2.26 l -0.15,1.06 c -0.09,0.6 -0.37,1.12 -0.63,1.63 -0.07,0.13 -0.14,0.26 -0.2,0.39 0.15,-0.04 0.31,-0.09 0.47,-0.14 0.31,-0.1 0.62,-0.2 0.93,-0.26 l 0.83,-0.17 -0.25,0.81 c -0.12,0.35 -0.28,0.68 -0.46,0.99 l 0.36,0.23 c 0.63,-0.76 1.23,-1.59 1.82,-2.41 l 1.28,-1.76 -0.18,1.12 c 0.11,-0.16 0.19,-0.32 0.25,-0.47 0.01,-0.2 0.03,-0.4 0.12,-0.65 l 0.95,-2.68 0.02,2.85 c 0,0.05 0,0.11 -0.01,0.16 0.34,-0.3 0.53,-0.84 0.77,-1.55 0.22,-0.66 0.45,-1.35 0.92,-1.85 l 0.52,-0.57 0.3,0.71 c 0.03,0.06 0.08,0.13 0.14,0.21 0.05,-0.18 0.1,-0.35 0.15,-0.52 0.16,-0.59 0.33,-1.19 0.58,-1.7 l 0.63,-1.27 0.31,1.39 c 0.02,0.12 0.07,0.25 0.12,0.37 0.06,-0.26 0.12,-0.53 0.18,-0.8 0.16,-0.79 0.33,-1.6 0.8,-2.26 l 0.65,-0.89 0.19,0.82 c 0.12,-0.54 0.28,-1.08 0.43,-1.61 0.14,-0.5 0.29,-0.99 0.39,-1.47 l 0.28,-1.19 0.35,0.57 c 0,-0.34 0,-0.69 -0.01,-1.03 l -0.02,-1.53 0.89,1.02 c 0.09,0.1 0.2,0.16 0.32,0.21 0,-0.68 -0.07,-1.33 -0.13,-1.81 l -0.29,-2.33 1.22,2.01 c 0.17,0.28 0.3,0.46 0.39,0.56 0.12,-0.49 0.13,-1.54 0.13,-1.93 0,-0.32 0,-0.57 0.02,-0.7 l 0.25,-2.02 0.64,1.73 c 0.18,-0.86 0.4,-1.75 0.77,-2.46 l 0.37,-0.69 0.47,0.63 c 0.52,0.69 0.8,0.9 0.91,0.97 0.11,-0.19 0.24,-0.69 0.34,-1.06 0.15,-0.58 0.31,-1.23 0.6,-1.85 l 0.58,-1.24 0.36,1.32 c 0.06,0.25 0.3,0.59 0.54,0.69 0.09,0.04 0.16,0.04 0.24,-0.01 0.22,-0.13 0.13,-1.04 0.09,-1.43 -0.01,-0.19 -0.03,-0.37 -0.04,-0.52 l -0.05,-1.59 0.95,1.28 c 0.57,0.76 0.82,0.79 0.82,0.79 0.24,-0.15 0.44,-1.45 0.54,-2.08 0.07,-0.49 0.15,-0.95 0.25,-1.33 l 0.3,-1.11 0.61,0.98 c 0.04,0.07 0.07,0.12 0.1,0.15 -0.01,-0.38 -0.04,-0.78 -0.07,-1.16 -0.03,-0.29 -0.05,-0.58 -0.06,-0.87 l -0.06,-1.23 0.9,0.84 c 0.24,0.23 0.4,0.34 0.5,0.39 0.08,-0.44 -0.11,-1.59 -0.19,-2.05 -0.08,-0.49 -0.13,-0.78 -0.12,-0.97 l 0.01,-0.54 0.48,0.05 c -0.11,-0.14 -0.23,-0.28 -0.36,-0.43 -0.21,-0.24 -0.42,-0.49 -0.6,-0.75 l -0.42,-0.6 0.71,-0.17 c 0.28,-0.07 0.85,-0.26 1.19,-0.73 -0.38,-0.03 -0.8,0 -1.24,0.03 l -1.06,0.08 0.62,-0.87 c 0,-0.01 0.01,-0.02 0.02,-0.03 -0.18,0.08 -0.35,0.17 -0.53,0.26 -0.39,0.21 -0.8,0.42 -1.27,0.51 l -0.51,0.11 -0.08,-0.52 c -0.04,-0.23 -0.1,-0.44 -0.17,-0.65 -0.01,-0.03 -0.02,-0.06 -0.03,-0.09 -0.19,0.17 -0.38,0.38 -0.54,0.62 0.05,0.07 0.1,0.14 0.15,0.21 l 0.07,0 c -0.01,-0.07 -0.03,-0.14 -0.05,-0.17 z"
             id="path8" /><path
             style="fill:#9d9d9c"
             inkscape:connector-curvature="0"
             d="m 158.48,103.87 c 1.21,7.92 3.11,18.73 4.96,26.55 0.25,0.98 0.5,1.95 0.78,2.93 0.02,0.09 0.06,0.18 0.09,0.28 -0.17,0.09 -0.37,0.13 -0.52,0.08 -0.04,-0.01 -0.13,-0.04 -0.16,-0.24 l -0.13,-1.15 -0.75,0.88 c -0.1,0.13 -0.28,0.25 -0.47,0.35 l -0.24,-1.91 -0.71,1.95 c -0.12,0.34 -0.53,0.69 -1.05,0.89 -0.34,0.13 -0.59,0.14 -0.71,0.13 0.01,-0.03 0.03,-0.08 0.06,-0.14 l -0.87,-0.5 c -0.5,0.76 -1.52,1.03 -1.85,0.96 0.03,-0.09 0.12,-0.27 0.39,-0.56 l -0.72,-0.69 c -0.72,0.73 -1.4,1.21 -2.02,1.43 -0.06,-0.18 -0.09,-0.29 -0.06,-0.42 l 0.45,-1.8 -1.42,1.46 c -0.74,0.77 -1.2,1.14 -1.63,1.01 0.09,-0.27 0.2,-0.52 0.36,-0.7 0.05,-0.04 0.08,-0.08 0.11,-0.11 l -0.72,-0.7 c -0.06,0.06 -0.11,0.11 -0.16,0.17 -0.68,0.66 -2.67,1.87 -3.07,1.74 -0.01,0 -0.06,-0.15 0.11,-0.65 l 0.44,-1.31 -1.18,0.73 c -0.65,0.39 -1.31,0.95 -1.98,1.64 -0.16,-0.16 -0.19,-0.31 -0.18,-0.58 l 0.1,-2.13 -1.04,1.86 c -0.44,0.8 -0.72,1.06 -0.84,1.15 -0.15,-0.29 -0.24,-1.19 -0.07,-1.96 l 0.48,-2.24 -1.37,1.83 c -0.14,0.2 -0.29,0.4 -0.45,0.57 0.06,-0.09 0.12,-0.18 0.18,-0.26 l -0.79,-0.61 c -0.09,0.09 -0.17,0.19 -0.26,0.3 -0.22,0.26 -0.4,0.47 -0.58,0.6 0.05,-0.83 0.58,-1.6 1.13,-2.4 0.16,-0.23 0.32,-0.46 0.46,-0.69 l -0.83,-0.56 c -0.12,0.17 -0.28,0.3 -0.47,0.37 0.15,-0.5 0.48,-0.97 0.83,-1.46 0.33,-0.47 0.68,-0.96 0.9,-1.52 l 0.33,-0.84 -0.59,0.11 c 0.26,-0.52 0.67,-1.03 1.06,-1.54 0.32,-0.39 0.64,-0.8 0.9,-1.22 l 1.5,-2.44 -2.24,1.79 c -0.18,0.14 -0.38,0.25 -0.58,0.31 0.27,-0.57 0.74,-1.08 1.22,-1.61 0.59,-0.64 1.19,-1.29 1.51,-2.11 l 0.25,-0.65 -0.7,-0.03 c -0.03,-0.01 -0.07,-0.01 -0.11,-0.01 0.16,-0.53 0.69,-1.12 1.11,-1.58 0.13,-0.15 0.26,-0.29 0.37,-0.42 l 0.93,-1.11 -1.42,0.3 c -0.12,0.02 -0.33,0 -0.52,-0.03 -0.04,0 -0.08,-0.01 -0.13,-0.01 0.08,-0.3 0.22,-0.6 0.38,-0.88 l 0.63,-0.61 c 0.71,-0.69 1.39,-1.53 2.03,-2.39 l 0.73,-0.58 c 0.45,-0.36 0.98,-0.83 1.35,-1.41 1.4,-0.21 1.82,-1.47 2.16,-2.49 0.11,-0.34 0.22,-0.67 0.36,-0.96 0.02,0.03 0.04,0.05 0.06,0.08 0.09,0.09 0.22,0.24 0.25,0.29 l 0.49,0.98 0.42,-1.02 c 0.19,-0.46 0.33,-0.96 0.46,-1.45 0.04,-0.13 0.07,-0.25 0.11,-0.38 0.03,0.06 0.06,0.11 0.1,0.17 l 0.52,0.92 0.44,-0.73 c 0.37,-0.63 0.52,-1.35 0.67,-2.05 0.07,-0.35 0.14,-0.68 0.23,-0.99 0.01,0.02 0.03,0.04 0.04,0.07 0.07,0.11 0.14,0.21 0.2,0.31 l 0.85,1.6 0.09,-1.81 c 0,-0.05 0,-0.1 0.01,-0.15 z"
             id="path10" /><path
             style="fill:#dadada"
             inkscape:connector-curvature="0"
             d="m 189.67,103.53 c 0.13,-0.22 0.27,-0.43 0.38,-0.63 l 0.73,-1.27 -1.36,0.56 c -0.03,0.01 -0.06,0.02 -0.1,0.03 0.03,-0.72 0.36,-1.33 0.73,-2.01 0.2,-0.37 0.4,-0.75 0.57,-1.17 l 0.35,-0.84 -0.9,0.16 c -0.18,0.03 -0.28,0.03 -0.31,0.04 -0.02,-0.41 0.8,-1.69 1.15,-2.25 0.45,-0.7 0.68,-1.08 0.74,-1.36 l 0.16,-0.92 -0.86,0.37 c -0.19,0.08 -0.41,0.07 -0.67,0.06 -0.04,0 -0.07,0 -0.11,0 0.05,-0.47 0.29,-0.92 0.56,-1.43 0.25,-0.45 0.5,-0.92 0.62,-1.45 l 0.21,-0.86 -0.85,0.27 c -0.3,0.1 -0.46,0.1 -0.49,0.12 -0.07,-0.54 1.24,-2.66 2.15,-3.76 l 1.65,-2 -1.93,1.06 c 0.53,-0.93 1.42,-1.81 2.2,-2.07 l 0.78,-0.26 -0.59,-0.58 c -0.44,-0.42 -0.97,-2.47 -0.95,-3.61 0.24,0.17 0.47,0.37 0.7,0.58 l 0.27,0.25 0.61,-0.7 0.23,0.62 c 0.43,-0.16 0.87,-0.38 1.29,-0.59 0.55,-0.28 1.11,-0.56 1.67,-0.72 -0.11,0.1 -0.23,0.2 -0.36,0.3 l -1.2,1 1.35,0.02 c 0.13,0 0.37,-0.02 0.68,-0.05 2,-0.2 2.56,-0.06 2.68,0.05 0,0.01 0.01,0.15 -0.29,0.52 l -0.93,1.15 1.44,-0.35 c 0.66,-0.17 1.35,-0.32 1.99,-0.28 -0.04,0.06 -0.07,0.13 -0.09,0.15 l -0.46,0.58 0.71,0.21 c 0.37,0.11 0.76,0.12 1.15,0.13 0.6,0.02 0.9,0.06 1.05,0.19 -0.04,0.02 -0.08,0.05 -0.11,0.07 -0.22,0.14 -0.44,0.28 -0.62,0.31 l -0.99,0.17 0.88,0.83 c 0.46,0.43 0.95,0.9 1.54,1.24 -0.18,0.13 -0.46,0.23 -0.81,0.36 -0.14,0.05 -0.28,0.1 -0.42,0.15 l -0.76,0.3 0.62,0.54 c 0.8,0.71 1.14,1.37 1.07,1.57 -0.03,0.07 -0.25,0.19 -0.76,0.22 l -0.54,0.03 0.07,0.53 c 0.04,0.25 0.08,0.52 0.12,0.79 0.04,0.23 0.08,0.46 0.11,0.68 l -0.53,0.1 0.44,0.74 c 0.26,0.44 0.96,1.61 0.77,1.95 -0.04,0.08 -0.22,0.16 -0.59,0.17 l -0.62,0.02 0.15,0.6 c 0.12,0.5 0.34,1.01 0.56,1.5 l -1.36,-0.56 1.27,1.54 c 0.73,0.91 1.01,2.25 1.03,3.38 -0.04,-0.01 -0.07,-0.01 -0.11,-0.02 l -0.63,-0.16 0.01,0.66 c 0.03,0.92 0.21,2.14 0.51,3.37 l -0.28,-0.01 -0.02,0.5 c -0.01,0.57 0.13,1.2 0.27,1.81 0.1,0.46 0.21,0.93 0.24,1.35 l -2.44,-2.32 2.01,3.27 0.1,0.16 c 0.07,0.1 0.15,0.22 0.17,0.26 l 0.39,0.98 0.04,-0.08 c 0.18,0.51 0.34,1.1 0.48,1.62 0.14,0.56 0.29,1.09 0.44,1.54 -0.88,0.53 -1.04,1.47 -1.16,2.24 -0.06,0.37 -0.12,0.7 -0.23,0.98 l -1.05,-1.65 0.21,2.1 c 0.08,0.74 -0.03,1.58 -0.29,2.31 l -0.56,-0.11 -0.1,0.48 c -0.18,0.79 -0.21,1.59 -0.21,2.38 l -0.23,-0.06 -0.07,0.56 c -0.07,0.61 0.03,1.19 0.13,1.76 l -0.34,-0.21 -0.08,0.78 c -0.09,0.88 0.3,1.72 0.68,2.55 0.12,0.25 0.23,0.5 0.33,0.74 l -0.04,0.32 c -0.11,0.76 -0.05,1.58 0.19,2.4 l -0.62,-0.19 0.22,0.87 c 0.13,0.52 0.3,1.08 0.48,1.64 0.1,0.33 0.2,0.67 0.29,0.99 l -0.06,0.79 c -0.04,0.41 -0.04,0.82 -0.04,1.24 0,0.09 0,0.19 0,0.28 l -0.36,-0.25 -0.17,0.72 c -0.03,0.11 -0.05,0.23 -0.06,0.34 -0.06,-0.11 -0.13,-0.23 -0.19,-0.34 l -0.69,-1.19 -0.24,1.35 c -0.05,0.3 -0.1,0.5 -0.15,0.63 -0.13,-0.2 -0.31,-0.55 -0.5,-1.09 l -0.29,-0.86 -0.57,0.71 c -0.23,0.28 -0.38,0.6 -0.52,0.92 -0.1,0.21 -0.19,0.42 -0.31,0.59 -0.34,-0.35 -0.56,-0.81 -0.8,-1.3 -0.12,-0.26 -0.25,-0.52 -0.39,-0.77 l -0.32,-0.56 -0.58,0.57 c -0.93,0.93 -1.23,0.98 -1.31,0.97 0,0 -0.1,-0.07 -0.15,-0.42 l -0.1,-0.54 -0.53,0.14 c -0.33,0.09 -0.64,0.24 -0.95,0.37 -0.2,0.1 -0.4,0.19 -0.59,0.25 0.01,-0.1 0.02,-0.19 0.04,-0.27 l 0.82,-2.23 -1.65,1.71 c -0.63,0.66 -1.18,1.03 -1.77,1.17 -0.01,-0.03 -0.01,-0.06 -0.02,-0.09 -0.02,-0.15 -0.05,-0.32 -0.03,-0.4 l 0.19,-1.11 -0.95,0.6 c -0.43,0.27 -1.01,0.32 -1.62,0.36 -0.3,0.03 -0.6,0.05 -0.89,0.1 0.1,-0.25 0.15,-0.53 0.16,-0.82 l 0.06,-1.63 -0.96,1.31 c -0.28,0.38 -0.46,0.79 -0.54,1.21 -0.13,0.08 -0.28,0.1 -0.41,0.1 -0.01,-0.05 -0.02,-0.1 -0.03,-0.14 -0.01,-0.04 -0.02,-0.07 -0.03,-0.07 l 0.66,-1.28 -1.33,0.61 c -0.21,0.09 -0.45,0.16 -0.7,0.18 0.25,-0.37 0.53,-0.75 0.81,-1.13 0.23,-0.32 0.46,-0.62 0.66,-0.92 l 1.04,-1.48 -1.65,0.74 c -0.32,0.14 -0.63,0.25 -0.92,0.34 0.11,-0.57 0.43,-1.15 0.75,-1.72 0.13,-0.23 0.25,-0.46 0.36,-0.69 l 0.75,-1.52 -1.38,0.83 c -0.02,-0.69 0.52,-1.47 0.97,-2.13 l 0.13,-0.18 -0.77,-0.63 c -0.18,0.18 -0.4,0.31 -0.65,0.39 0.07,-0.65 0.47,-1.34 0.88,-2.06 0.4,-0.71 0.82,-1.45 0.96,-2.21 l 0.32,-1.81 -0.91,1.07 c 0.12,-0.58 0.35,-1.16 0.58,-1.76 0.1,-0.26 0.21,-0.51 0.3,-0.77 l 1.29,-3.59 -2.03,2.92 c 0.26,-0.84 0.72,-1.68 1.15,-2.38 l 1.64,-2.73 -2.4,2.09 c -0.03,0.03 -0.08,0.06 -0.13,0.08 0.07,-0.87 0.65,-1.73 1.21,-2.58 0.3,-0.45 0.59,-0.88 0.8,-1.32 l 0.44,-0.91 -0.99,0.2 c -0.4,0.08 -0.86,0.16 -1.32,0.18 0.14,-0.38 0.4,-0.77 0.65,-1.16 0.23,-0.36 0.46,-0.73 0.63,-1.11 l 0.37,-0.85 -0.91,0.16 c -0.05,0.01 -0.2,-0.02 -0.3,-0.03 0,0 0,0 -0.01,0 0.11,-0.59 0.42,-1.18 0.73,-1.76 0.16,-0.31 0.32,-0.61 0.45,-0.91 l 1.29,-2.94 -2.12,2.41 c -0.1,0.11 -0.26,0.19 -0.43,0.28 -0.07,-0.82 0.51,-1.74 1.03,-2.57 z"
             id="path12" /><path
             style="fill:#dadada"
             inkscape:connector-curvature="0"
             d="m 159.16,97.58 c 0.01,0.34 0.01,0.69 0.01,1.03 l -0.35,-0.57 -0.28,1.19 c -0.1,0.48 -0.25,0.97 -0.39,1.47 -0.15,0.53 -0.31,1.07 -0.43,1.61 l -0.19,-0.82 -0.65,0.89 c -0.47,0.66 -0.64,1.47 -0.8,2.26 -0.06,0.27 -0.12,0.54 -0.18,0.8 -0.05,-0.12 -0.1,-0.25 -0.12,-0.37 l -0.31,-1.39 -0.63,1.27 c -0.25,0.51 -0.42,1.11 -0.58,1.7 -0.05,0.17 -0.1,0.34 -0.15,0.52 -0.06,-0.08 -0.11,-0.15 -0.14,-0.21 l -0.3,-0.71 -0.52,0.57 c -0.47,0.5 -0.7,1.19 -0.92,1.85 -0.24,0.71 -0.43,1.25 -0.77,1.55 0.01,-0.05 0.01,-0.11 0.01,-0.16 l -0.02,-2.85 -0.95,2.68 c -0.09,0.25 -0.11,0.45 -0.12,0.65 -0.06,0.15 -0.14,0.31 -0.25,0.47 l 0.18,-1.12 -1.28,1.76 c -0.59,0.82 -1.19,1.65 -1.82,2.41 l -0.36,-0.23 c 0.18,-0.31 0.34,-0.64 0.46,-0.99 l 0.25,-0.81 -0.83,0.17 c -0.31,0.06 -0.62,0.16 -0.93,0.26 -0.16,0.05 -0.32,0.1 -0.47,0.14 0.06,-0.13 0.13,-0.26 0.2,-0.39 0.26,-0.51 0.54,-1.03 0.63,-1.63 l 0.15,-1.06 c 0.4,-0.71 0.75,-1.47 1.04,-2.26 l 0.4,-1.1 -1.07,0.47 c -0.1,0.04 -0.23,0.08 -0.37,0.11 0.21,-0.36 0.51,-0.74 0.79,-1.1 0.64,-0.82 1.19,-1.53 1.05,-2.22 -0.09,-0.44 -0.46,-0.74 -0.71,-0.91 -0.1,-0.25 -0.25,-0.41 -0.39,-0.56 0,0 -0.02,-0.09 0.08,-0.4 0.06,-0.2 0.45,-0.58 0.71,-0.84 0.19,-0.19 0.37,-0.37 0.49,-0.52 l 0.67,-0.72 -0.38,-0.02 c 0,-0.01 0.01,-0.02 0.02,-0.03 0.43,-0.56 0.83,-1.08 1.33,-1.53 l 1.23,-1.09 -1.63,0.23 c -0.25,0.03 -0.36,-0.04 -0.6,-0.2 -0.01,0 -0.01,-0.01 -0.02,-0.01 0.3,-0.44 0.82,-0.78 1.35,-1.14 0.35,-0.23 0.72,-0.48 1.02,-0.76 l 0.52,-0.47 -0.61,-0.33 c -0.48,-0.27 -1.07,-0.61 -1.62,-1.05 0.23,-0.13 0.45,-0.25 0.66,-0.29 l 1.4,-0.33 -1.35,-0.64 c -0.67,-0.32 -1.32,-0.63 -1.71,-1.12 0.28,-0.02 0.55,-0.05 0.81,-0.08 0.52,-0.05 1.01,-0.1 1.51,-0.09 l 1.74,0.06 -1.44,-0.97 c -0.71,-0.48 -1.27,-1.18 -1.57,-1.95 0.53,-0.02 1.05,0 1.47,0.24 l 1.05,0.58 -0.33,-1.16 c -0.09,-0.32 -0.2,-0.63 -0.3,-0.95 -0.08,-0.22 -0.15,-0.43 -0.21,-0.64 0.14,0.02 0.28,0.05 0.42,0.08 0.76,0.14 1.54,0.29 2.36,0.15 l 0.38,-0.07 0.03,-0.39 c 0.05,-0.75 -0.33,-1.29 -0.67,-1.76 -0.14,-0.2 -0.27,-0.39 -0.37,-0.58 0.64,0.01 1.28,0.12 1.86,0.36 l 0.58,0.24 0.1,-0.62 c 0.07,-0.4 0.02,-0.82 -0.02,-1.23 -0.02,-0.13 -0.04,-0.27 -0.05,-0.41 0.27,-0.05 0.6,0.04 0.89,0.24 l 1.01,0.71 -0.24,-1.22 c -0.09,-0.48 -0.02,-0.73 0.07,-0.8 0.15,-0.12 0.63,-0.09 1.3,0.24 l 0.9,0.44 -0.19,-0.98 c -0.12,-0.62 0.01,-1.36 0.09,-1.46 0,0 0.12,0.01 0.36,0.25 l 0.55,0.53 0.27,-0.71 c 0.19,-0.51 0.33,-1.06 0.47,-1.6 0.05,-0.19 0.09,-0.38 0.15,-0.57 0.25,0.21 0.51,0.41 0.76,0.58 l 0.46,0.31 0.26,-0.5 c 0.77,-1.47 1,-1.79 1.92,-1.93 0,0 0,0.01 0.01,0.01 0.11,0.24 0.28,0.59 0.68,0.61 0.4,0.01 0.72,-0.14 1.01,-0.29 0.12,-0.06 0.23,-0.12 0.34,-0.16 0.15,0.26 0.32,0.48 0.48,0.68 0.1,0.13 0.2,0.25 0.29,0.39 l 0.19,0.29 0.34,-0.08 c 0.32,-0.07 0.44,-0.26 0.48,-0.41 0.06,-0.19 0,-0.38 -0.19,-0.57 0.02,0.03 0.04,0.1 0.05,0.17 l -0.07,0 c -0.05,-0.07 -0.1,-0.14 -0.15,-0.21 0.16,-0.24 0.35,-0.45 0.54,-0.62 0.01,0.03 0.02,0.06 0.03,0.09 0.07,0.21 0.13,0.42 0.17,0.65 l 0.08,0.52 0.51,-0.11 c 0.47,-0.09 0.88,-0.3 1.27,-0.51 0.18,-0.09 0.35,-0.18 0.53,-0.26 -0.01,0.01 -0.02,0.02 -0.02,0.03 l -0.62,0.87 1.06,-0.08 c 0.44,-0.03 0.86,-0.06 1.24,-0.03 -0.34,0.47 -0.91,0.66 -1.19,0.73 l -0.71,0.17 0.42,0.6 c 0.18,0.26 0.39,0.51 0.6,0.75 0.13,0.15 0.25,0.29 0.36,0.43 l -0.48,-0.05 -0.01,0.54 c -0.01,0.19 0.04,0.48 0.12,0.97 0.08,0.46 0.27,1.61 0.19,2.05 -0.1,-0.05 -0.26,-0.16 -0.5,-0.39 l -0.9,-0.84 0.06,1.23 c 0.01,0.29 0.03,0.58 0.06,0.87 0.03,0.38 0.06,0.78 0.07,1.16 -0.03,-0.03 -0.06,-0.08 -0.1,-0.15 l -0.61,-0.98 -0.3,1.11 c -0.1,0.38 -0.18,0.84 -0.25,1.33 -0.1,0.63 -0.3,1.93 -0.54,2.08 0,0 -0.25,-0.03 -0.82,-0.79 l -0.95,-1.28 0.05,1.59 c 0.01,0.15 0.03,0.33 0.04,0.52 0.04,0.39 0.13,1.3 -0.09,1.43 -0.08,0.05 -0.15,0.05 -0.24,0.01 -0.24,-0.1 -0.48,-0.44 -0.54,-0.69 l -0.36,-1.32 -0.58,1.24 c -0.29,0.62 -0.45,1.27 -0.6,1.85 -0.1,0.37 -0.23,0.87 -0.34,1.06 -0.11,-0.07 -0.39,-0.28 -0.91,-0.97 l -0.47,-0.63 -0.37,0.69 c -0.37,0.71 -0.59,1.6 -0.77,2.46 l -0.64,-1.73 -0.25,2.02 c -0.02,0.13 -0.02,0.38 -0.02,0.7 0,0.39 -0.01,1.44 -0.13,1.93 -0.09,-0.1 -0.22,-0.28 -0.39,-0.56 l -1.22,-2.01 0.29,2.33 c 0.06,0.48 0.13,1.13 0.13,1.81 -0.12,-0.05 -0.23,-0.11 -0.32,-0.21 l -0.89,-1.02 0.02,1.53 z"
             id="path14-7" /><path
             inkscape:connector-curvature="0"
             d="m 189.52,136.22 c 0.29,-0.05 0.59,-0.07 0.89,-0.1 0.61,-0.04 1.19,-0.09 1.62,-0.36 l 0.95,-0.6 -0.19,1.11 c -0.02,0.08 0.01,0.25 0.03,0.4 0.01,0.03 0.01,0.06 0.02,0.09 0.59,-0.14 1.14,-0.51 1.77,-1.17 l 1.65,-1.71 -0.82,2.23 c -0.02,0.08 -0.03,0.17 -0.04,0.27 0.19,-0.06 0.39,-0.15 0.59,-0.25 0.31,-0.13 0.62,-0.28 0.95,-0.37 l 0.53,-0.14 0.1,0.54 c 0.05,0.35 0.15,0.42 0.15,0.42 0.08,0.01 0.38,-0.04 1.31,-0.97 l 0.58,-0.57 0.32,0.56 c 0.14,0.25 0.27,0.51 0.39,0.77 0.24,0.49 0.46,0.95 0.8,1.3 0.12,-0.17 0.21,-0.38 0.31,-0.59 0.14,-0.32 0.29,-0.64 0.52,-0.92 l 0.57,-0.71 0.29,0.86 c 0.19,0.54 0.37,0.89 0.5,1.09 0.05,-0.13 0.1,-0.33 0.15,-0.63 l 0.24,-1.35 0.69,1.19 c 0.06,0.11 0.13,0.23 0.19,0.34 0.01,-0.11 0.03,-0.23 0.06,-0.34 l 0.17,-0.72 0.36,0.25 c 0,-0.09 0,-0.19 0,-0.28 0,-0.42 0,-0.83 0.04,-1.24 l 0.06,-0.79 c -0.09,-0.32 -0.19,-0.66 -0.29,-0.99 -0.18,-0.56 -0.35,-1.12 -0.48,-1.64 l -0.22,-0.87 0.62,0.19 c -0.24,-0.82 -0.3,-1.64 -0.19,-2.4 l 0.04,-0.32 c -0.1,-0.24 -0.21,-0.49 -0.33,-0.74 -0.38,-0.83 -0.77,-1.67 -0.68,-2.55 l 0.08,-0.78 0.34,0.21 c -0.1,-0.57 -0.2,-1.15 -0.13,-1.76 l 0.07,-0.56 0.23,0.06 c 0,-0.79 0.03,-1.59 0.21,-2.38 l 0.1,-0.48 0.56,0.11 c 0.26,-0.73 0.37,-1.57 0.29,-2.31 l -0.21,-2.1 1.05,1.65 c 0.11,-0.28 0.17,-0.61 0.23,-0.98 0.12,-0.77 0.28,-1.71 1.16,-2.24 -0.15,-0.45 -0.3,-0.98 -0.44,-1.54 -0.14,-0.52 -0.3,-1.11 -0.48,-1.62 l -0.04,0.08 -0.39,-0.98 c -0.02,-0.04 -0.1,-0.16 -0.17,-0.26 l -0.1,-0.16 -2.01,-3.27 2.44,2.32 c -0.03,-0.42 -0.14,-0.89 -0.24,-1.35 -0.14,-0.61 -0.28,-1.24 -0.27,-1.81 l 0.02,-0.5 0.28,0.01 c -0.3,-1.23 -0.48,-2.45 -0.51,-3.37 l -0.01,-0.66 0.63,0.16 c 0.04,0.01 0.07,0.01 0.11,0.02 -0.02,-1.13 -0.3,-2.47 -1.03,-3.38 l -1.27,-1.54 1.36,0.56 c -0.22,-0.49 -0.44,-1 -0.56,-1.5 l -0.15,-0.6 0.62,-0.02 c 0.37,-0.01 0.55,-0.09 0.59,-0.17 0.19,-0.34 -0.51,-1.51 -0.77,-1.95 l -0.44,-0.74 0.53,-0.1 c -0.03,-0.22 -0.07,-0.45 -0.11,-0.68 -0.04,-0.27 -0.08,-0.54 -0.12,-0.79 l -0.07,-0.53 0.54,-0.03 c 0.51,-0.03 0.73,-0.15 0.76,-0.22 0.07,-0.2 -0.27,-0.86 -1.07,-1.57 l -0.62,-0.54 0.76,-0.3 c 0.14,-0.05 0.28,-0.1 0.42,-0.15 0.35,-0.13 0.63,-0.23 0.81,-0.36 -0.59,-0.34 -1.08,-0.81 -1.54,-1.24 l -0.88,-0.83 0.99,-0.17 c 0.18,-0.03 0.4,-0.17 0.62,-0.31 0.03,-0.02 0.07,-0.05 0.11,-0.07 -0.15,-0.13 -0.45,-0.17 -1.05,-0.19 -0.39,-0.01 -0.78,-0.02 -1.15,-0.13 l -0.71,-0.21 0.46,-0.58 c 0.02,-0.02 0.05,-0.09 0.09,-0.15 -0.64,-0.04 -1.33,0.11 -1.99,0.28 l -1.44,0.35 0.93,-1.15 c 0.3,-0.37 0.29,-0.51 0.29,-0.52 -0.12,-0.11 -0.68,-0.25 -2.68,-0.05 -0.31,0.03 -0.55,0.05 -0.68,0.05 l -1.35,-0.02 1.2,-1 c 0.13,-0.1 0.25,-0.2 0.36,-0.3 -0.56,0.16 -1.12,0.44 -1.67,0.72 -0.42,0.21 -0.86,0.43 -1.29,0.59 l -0.23,-0.62 -0.61,0.7 -0.27,-0.25 c -0.23,-0.21 -0.46,-0.41 -0.7,-0.58 -0.02,1.14 0.51,3.19 0.95,3.61 l 0.59,0.58 -0.78,0.26 c -0.78,0.26 -1.67,1.14 -2.2,2.07 l 1.93,-1.06 -1.65,2 c -0.91,1.1 -2.22,3.22 -2.15,3.76 0.03,-0.02 0.19,-0.02 0.49,-0.12 l 0.85,-0.27 -0.21,0.86 c -0.12,0.53 -0.37,1 -0.62,1.45 -0.27,0.51 -0.51,0.96 -0.56,1.43 0.04,0 0.07,0 0.11,0 0.26,0.01 0.48,0.02 0.67,-0.06 l 0.86,-0.37 -0.16,0.92 c -0.06,0.28 -0.29,0.66 -0.74,1.36 -0.35,0.56 -1.17,1.84 -1.15,2.25 0.03,-0.01 0.13,-0.01 0.31,-0.04 l 0.9,-0.16 -0.35,0.84 c -0.17,0.42 -0.37,0.8 -0.57,1.17 -0.37,0.68 -0.7,1.29 -0.73,2.01 0.04,-0.01 0.07,-0.02 0.1,-0.03 l 1.36,-0.56 -0.73,1.27 c -0.11,0.2 -0.25,0.41 -0.38,0.63 -0.52,0.83 -1.1,1.75 -1.03,2.57 0.17,-0.09 0.33,-0.17 0.43,-0.28 l 2.12,-2.41 -1.29,2.94 c -0.13,0.3 -0.29,0.6 -0.45,0.91 -0.31,0.58 -0.62,1.17 -0.73,1.76 0.01,0 0.01,0 0.01,0 0.1,0.01 0.25,0.04 0.3,0.03 l 0.91,-0.16 -0.37,0.85 c -0.17,0.38 -0.4,0.75 -0.63,1.11 -0.25,0.39 -0.51,0.78 -0.65,1.16 0.46,-0.02 0.92,-0.1 1.32,-0.18 l 0.99,-0.2 -0.44,0.91 c -0.21,0.44 -0.5,0.87 -0.8,1.32 -0.56,0.85 -1.14,1.71 -1.21,2.58 0.05,-0.02 0.1,-0.05 0.13,-0.08 l 2.4,-2.09 -1.64,2.73 c -0.43,0.7 -0.89,1.54 -1.15,2.38 l 2.03,-2.92 -1.29,3.59 c -0.09,0.26 -0.2,0.51 -0.3,0.77 -0.23,0.6 -0.46,1.18 -0.58,1.76 l 0.91,-1.07 -0.32,1.81 c -0.14,0.76 -0.56,1.5 -0.96,2.21 -0.41,0.72 -0.81,1.41 -0.88,2.06 0.25,-0.08 0.47,-0.21 0.65,-0.39 l 0.77,0.63 -0.13,0.18 c -0.45,0.66 -0.99,1.44 -0.97,2.13 l 1.38,-0.83 -0.75,1.52 c -0.11,0.23 -0.23,0.46 -0.36,0.69 -0.32,0.57 -0.64,1.15 -0.75,1.72 0.29,-0.09 0.6,-0.2 0.92,-0.34 l 1.65,-0.74 -1.04,1.48 c -0.2,0.3 -0.43,0.6 -0.66,0.92 -0.28,0.38 -0.56,0.76 -0.81,1.13 0.25,-0.02 0.49,-0.09 0.7,-0.18 l 1.33,-0.61 -0.66,1.28 c 0.01,0 0.02,0.03 0.03,0.07 0.01,0.04 0.02,0.09 0.03,0.14 0.13,0 0.28,-0.02 0.41,-0.1 0.08,-0.42 0.26,-0.83 0.54,-1.21 l 0.96,-1.31 -0.06,1.63 c -0.01,0.29 -0.06,0.57 -0.16,0.82 z m 0.72,-40.92 c -0.15,0 -0.31,-0.01 -0.47,0.02 l -0.5,0.08 -0.08,-0.5 c -0.15,-0.98 0.28,-1.78 0.66,-2.5 0.09,-0.16 0.17,-0.32 0.25,-0.48 -0.31,-0.03 -0.55,-0.16 -0.71,-0.39 -0.5,-0.74 0.33,-2.3 1.1,-3.48 l -0.01,0 0.21,-0.98 c 0.29,-1.36 1.48,-2.89 2.7,-3.58 -0.62,-1.24 -1.1,-3.72 -0.7,-4.7 l 0.18,-0.44 0.45,0.15 c 0.65,0.23 1.12,0.66 1.58,1.07 l 0.15,0.13 -0.06,-0.16 c 0.38,-0.14 0.77,-0.33 1.19,-0.54 0.94,-0.48 2.01,-1.01 3.15,-0.96 l 0.6,0.03 -0.13,0.58 c -0.06,0.28 -0.18,0.51 -0.34,0.73 1.35,-0.1 2.49,-0.04 2.87,0.66 0.1,0.18 0.14,0.37 0.11,0.58 0.71,-0.12 1.44,-0.15 2.15,0.06 l 0.79,0.24 -0.58,0.59 c -0.02,0.02 -0.04,0.05 -0.06,0.09 0.09,0 0.17,0 0.25,0 0.79,0.03 1.97,0.06 2.16,1.33 l 0.06,0.37 -0.35,0.16 c -0.14,0.06 -0.27,0.15 -0.41,0.24 -0.06,0.04 -0.12,0.08 -0.18,0.12 0.42,0.39 0.87,0.74 1.38,0.92 l 0.47,0.17 -0.17,0.47 c -0.23,0.69 -0.8,0.99 -1.36,1.21 0.5,0.57 1.02,1.36 0.77,2.07 -0.15,0.42 -0.52,0.7 -1.1,0.82 0.01,0.09 0.03,0.17 0.04,0.26 0.07,0.41 0.14,0.82 0.17,1.2 l 0.05,0.45 -0.05,0.01 c 0.46,0.8 0.89,1.75 0.5,2.46 -0.16,0.29 -0.42,0.49 -0.79,0.59 0.1,0.28 0.23,0.57 0.36,0.87 0.15,0.34 0.3,0.67 0.41,1 l 0.36,1.01 -0.32,-0.12 c 0.42,0.99 0.61,2.19 0.54,3.43 l -0.04,0.65 -0.62,-0.2 c -0.01,0 -0.01,-0.01 -0.02,-0.01 0.09,0.94 0.31,2.09 0.62,3.2 l 0.17,0.64 -0.58,-0.01 c 0.04,0.33 0.12,0.68 0.2,1.05 0.21,0.92 0.42,1.87 0.15,2.67 0.34,0.69 0.59,1.62 0.83,2.53 0.19,0.71 0.37,1.39 0.57,1.84 l 0.23,0.49 -0.52,0.18 c -0.71,0.25 -0.83,0.78 -0.98,1.69 -0.11,0.7 -0.24,1.5 -0.89,2.06 l -0.15,0.13 c -0.05,0.74 -0.24,1.5 -0.53,2.15 l -0.14,0.31 -0.34,-0.02 c -0.02,0 -0.04,0 -0.06,0 -0.12,0.79 -0.1,1.6 -0.08,2.45 l 0.01,0.67 -0.33,-0.09 c 0.03,0.27 0.08,0.55 0.13,0.83 0.06,0.32 0.11,0.63 0.14,0.93 l 0.08,0.86 -0.56,-0.26 c 0.11,0.4 0.3,0.82 0.51,1.26 0.26,0.56 0.53,1.15 0.63,1.73 l 0.16,0.92 -0.46,-0.2 c 0.03,0.61 0.19,1.25 0.46,1.89 l 0.38,0.91 -0.83,-0.2 c 0.08,0.28 0.17,0.57 0.26,0.86 0.27,0.86 0.54,1.75 0.66,2.5 l 0.3,1.95 -0.72,-0.95 c 0,0.33 0,0.66 -0.03,0.98 l -0.06,0.73 -0.56,-0.27 c 0,0.02 0,0.04 0,0.06 -0.04,0.43 -0.07,0.88 -0.27,1.3 l -0.47,0.99 -0.57,-1.3 c -0.06,-0.13 -0.11,-0.25 -0.17,-0.38 -0.15,0.22 -0.35,0.37 -0.62,0.4 -0.17,0 -0.62,0.04 -1.14,-0.94 -0.18,0.39 -0.4,0.81 -0.79,1.14 l -0.29,0.23 -0.31,-0.21 c -0.76,-0.51 -1.12,-1.25 -1.47,-1.98 -0.02,-0.04 -0.04,-0.08 -0.06,-0.12 -0.62,0.58 -1.31,1.05 -1.95,0.85 -0.3,-0.1 -0.52,-0.31 -0.67,-0.64 -0.11,0.05 -0.22,0.1 -0.33,0.15 -0.49,0.23 -0.98,0.45 -1.56,0.44 l -0.62,-0.01 0.07,-0.29 c -0.52,0.35 -1.16,0.61 -1.92,0.64 l -0.63,0.02 0.12,-0.61 c 0.01,-0.07 0,-0.19 -0.02,-0.31 -0.44,0.13 -0.91,0.16 -1.36,0.2 -0.58,0.05 -1.13,0.09 -1.56,0.32 l -0.67,0.35 -0.03,-0.43 c -0.32,0.06 -0.66,0.04 -1.01,-0.06 l -0.39,-0.12 0.03,-0.41 c 0.01,-0.05 0.01,-0.09 0,-0.14 -0.44,0.09 -0.92,0.1 -1.42,0.01 l -0.7,-0.11 0.34,-0.62 c 0.28,-0.5 0.67,-1.05 1.07,-1.6 -0.09,0.02 -0.18,0.04 -0.27,0.05 l -0.52,0.07 -0.05,-0.52 c -0.1,-0.98 0.36,-1.89 0.81,-2.71 l -0.08,-0.15 c -0.41,-0.81 -0.2,-1.64 0.17,-2.38 -0.06,0.01 -0.11,0.01 -0.16,0.02 l -0.45,0.02 -0.07,-0.43 c -0.21,-1.16 0.4,-2.22 0.98,-3.25 0.09,-0.15 0.17,-0.3 0.25,-0.45 l -0.07,-0.72 c -0.07,-0.65 0.01,-1.26 0.16,-1.84 l -0.08,0.1 -0.08,-1.24 c -0.06,-1.01 0.27,-2.04 0.71,-2.97 l -0.05,0.03 -0.15,-0.68 c -0.31,-1.49 0.56,-2.8 1.32,-3.95 0.08,-0.11 0.15,-0.22 0.22,-0.33 -0.35,0.03 -0.73,0.04 -1.1,0.01 l -0.46,-0.05 0.01,-0.46 c 0.02,-0.79 0.47,-1.49 0.9,-2.17 0.07,-0.11 0.14,-0.22 0.21,-0.32 -0.01,0 -0.01,0 -0.02,0 l -0.57,0.11 -0.02,-0.59 c -0.02,-0.67 0.19,-1.32 0.47,-1.91 l -0.01,0 -0.27,-0.54 c -0.6,-1.21 -0.01,-2.48 0.6,-3.51 l -0.11,-0.63 c -0.22,-1.31 0.3,-2.26 0.8,-3.19 0.07,-0.13 0.15,-0.27 0.22,-0.41 -0.2,-0.06 -0.36,-0.18 -0.47,-0.35 -0.47,-0.7 0.15,-1.78 1.15,-3.35 0.06,-0.1 0.13,-0.21 0.2,-0.32 -0.01,0 -0.02,0 -0.03,0 z"
             id="path16-5" /></g><g
           id="g18" /></g></g></g></svg>