<?xml version="1.0" encoding="UTF-8" standalone="no"?>
<!-- Created with Inkscape (http://www.inkscape.org/) -->

<svg
   xmlns:dc="http://purl.org/dc/elements/1.1/"
   xmlns:cc="http://creativecommons.org/ns#"
   xmlns:rdf="http://www.w3.org/1999/02/22-rdf-syntax-ns#"
   xmlns:svg="http://www.w3.org/2000/svg"
   xmlns="http://www.w3.org/2000/svg"
   xmlns:sodipodi="http://sodipodi.sourceforge.net/DTD/sodipodi-0.dtd"
   xmlns:inkscape="http://www.inkscape.org/namespaces/inkscape"
   id="svg2"
   version="1.1"
   inkscape:version="0.91 r13725"
   width="308"
   height="672"
   xml:space="preserve"
   sodipodi:docname="sc-w-1-4-linning.svg"><metadata
     id="metadata8"><rdf:RDF><cc:Work
         rdf:about=""><dc:format>image/svg+xml</dc:format><dc:type
           rdf:resource="http://purl.org/dc/dcmitype/StillImage" /><dc:title /></cc:Work></rdf:RDF></metadata><defs
     id="defs6" /><sodipodi:namedview
     pagecolor="#ffffff"
     bordercolor="#666666"
     borderopacity="1"
     objecttolerance="10"
     gridtolerance="10"
     guidetolerance="10"
     inkscape:pageopacity="0"
     inkscape:pageshadow="2"
     inkscape:window-width="1920"
     inkscape:window-height="1015"
     id="namedview4"
     showgrid="false"
     inkscape:zoom="2.1578993"
     inkscape:cx="95.215938"
     inkscape:cy="434.34609"
     inkscape:window-x="0"
     inkscape:window-y="0"
     inkscape:window-maximized="1"
     inkscape:current-layer="g10" /><g
     id="g10"
     inkscape:groupmode="layer"
     inkscape:label="ink_ext_XXXXXX"
     transform="matrix(1.25,0,0,-1.25,0,672.00001)"><path
       id="path10"
       d="m 105.23689,420.63896 c 1.75081,-11.04839 4.5,-26.12833 7.17685,-37.03722 0.36174,-1.3671 0.72347,-2.72025 1.12862,-4.08735 0.0289,-0.12555 0.0868,-0.2511 0.13022,-0.3906 -0.24598,-0.12555 -0.53537,-0.18135 -0.75241,-0.1116 -0.0579,0.014 -0.1881,0.0558 -0.23151,0.3348 l -0.1881,1.60425 -1.08521,-1.2276 c -0.1447,-0.18135 -0.40515,-0.34875 -0.68007,-0.48825 l -0.34726,2.66445 -1.02733,-2.72025 c -0.17364,-0.4743 -0.76688,-0.96255 -1.5193,-1.24155 -0.49196,-0.18135 -0.85369,-0.1953 -1.02733,-0.18135 0.0145,0.0419 0.0434,0.1116 0.0868,0.1953 l -1.25884,0.6975 c -0.72347,-1.0602 -2.19936,-1.43685 -2.67685,-1.3392 0.0434,0.12555 0.17363,0.37665 0.56431,0.7812 l -1.0418,0.96255 c -1.0418,-1.01835 -2.02572,-1.68795 -2.922828,-1.99485 -0.08682,0.2511 -0.130225,0.40455 -0.08682,0.5859 l 0.651125,2.511 -2.054661,-2.0367 c -1.070739,-1.07415 -1.736333,-1.5903 -2.358519,-1.40895 0.130225,0.37665 0.289388,0.7254 0.5209,0.9765 0.07235,0.0558 0.115755,0.1116 0.159163,0.15345 l -1.0418,0.9765 c -0.08682,-0.0837 -0.159163,-0.15345 -0.231511,-0.23715 -0.983922,-0.9207 -3.863342,-2.60865 -4.442119,-2.4273 -0.01447,0 -0.08682,0.20925 0.159164,0.90675 l 0.636655,1.82745 -1.707394,-1.01835 c -0.940514,-0.54405 -1.895498,-1.32525 -2.86495,-2.2878 -0.231512,0.2232 -0.27492,0.43245 -0.26045,0.8091 l 0.144694,2.97135 -1.504822,-2.5947 c -0.636656,-1.116 -1.0418,-1.4787 -1.215434,-1.60425 -0.217041,0.40455 -0.347266,1.66005 -0.101286,2.7342 l 0.694534,3.1248 -1.982314,-2.55285 c -0.202573,-0.279 -0.419614,-0.558 -0.651125,-0.79515 0.08682,0.12555 0.173633,0.2511 0.26045,0.3627 l -1.143087,0.85095 c -0.130225,-0.12555 -0.24598,-0.26505 -0.376205,-0.4185 -0.318328,-0.3627 -0.578778,-0.65565 -0.839228,-0.837 0.07235,1.15785 0.839228,2.232 1.635047,3.348 0.231511,0.32085 0.463023,0.6417 0.665595,0.96255 l -1.200964,0.7812 c -0.173633,-0.23715 -0.405145,-0.4185 -0.680064,-0.51615 0.217042,0.6975 0.694533,1.35315 1.200964,2.0367 0.477492,0.65565 0.983922,1.3392 1.30225,2.1204 l 0.477492,1.17179 -0.853698,-0.15345 c 0.376206,0.7254 0.969453,1.43685 1.533762,2.1483 0.463022,0.54405 0.926044,1.116 1.30225,1.7019 l 2.170416,3.4038 -3.241155,-2.49705 c -0.26045,-0.1953 -0.549839,-0.34875 -0.839228,-0.43245 0.390675,0.79515 1.070739,1.5066 1.765272,2.24595 0.853697,0.8928 1.721864,1.79955 2.184886,2.94345 l 0.361736,0.90675 -1.012861,0.0419 c -0.04341,0.014 -0.101286,0.014 -0.159164,0.014 0.231512,0.73935 0.998392,1.5624 1.606109,2.2041 0.188103,0.20925 0.376205,0.40455 0.535369,0.5859 l 1.345659,1.54845 -2.054662,-0.4185 c -0.173633,-0.0279 -0.477491,0 -0.752411,0.0419 -0.05788,0 -0.115755,0.014 -0.188102,0.014 0.115755,0.4185 0.318327,0.837 0.549838,1.22759 l 0.911575,0.85095 c 1.027331,0.96255 2.011253,2.13435 2.937298,3.33405 l 1.056269,0.8091 c 0.651125,0.5022 1.418006,1.15785 1.953375,1.96695 2.025723,0.29295 2.633439,2.05065 3.125401,3.47355 0.159163,0.4743 0.318327,0.93465 0.5209,1.3392 0.02894,-0.0419 0.05788,-0.0697 0.08682,-0.1116 0.130225,-0.12555 0.318328,-0.3348 0.361736,-0.40455 l 0.709003,-1.3671 0.607717,1.4229 c 0.274919,0.6417 0.477489,1.3392 0.665599,2.02275 0.0579,0.18135 0.10128,0.34875 0.15916,0.5301 0.0434,-0.0837 0.0868,-0.15345 0.14469,-0.23715 l 0.75241,-1.2834 0.63666,1.01835 c 0.53537,0.87885 0.75241,1.88324 0.96945,2.85974 0.10129,0.48825 0.20258,0.9486 0.3328,1.38105 0.0145,-0.0279 0.0434,-0.0558 0.0579,-0.0976 0.10128,-0.15345 0.20257,-0.29295 0.28939,-0.43245 l 1.2299,-2.23199 0.13022,2.52494 c 0,0.0697 0,0.1395 0.0145,0.20925 z"
       inkscape:connector-curvature="0"
       style="fill:#9d9d9c" /><g
       id="g18"
       transform="matrix(1.4469445,0,0,-1.3949991,-124.07487,565.53752)" /></g></svg>