<?xml version="1.0" encoding="UTF-8" standalone="no"?>
<!-- Created with Inkscape (http://www.inkscape.org/) -->

<svg
   xmlns:dc="http://purl.org/dc/elements/1.1/"
   xmlns:cc="http://creativecommons.org/ns#"
   xmlns:rdf="http://www.w3.org/1999/02/22-rdf-syntax-ns#"
   xmlns:svg="http://www.w3.org/2000/svg"
   xmlns="http://www.w3.org/2000/svg"
   xmlns:sodipodi="http://sodipodi.sourceforge.net/DTD/sodipodi-0.dtd"
   xmlns:inkscape="http://www.inkscape.org/namespaces/inkscape"
   id="svg2"
   version="1.1"
   inkscape:version="0.91 r13725"
   width="308"
   height="672"
   xml:space="preserve"
   sodipodi:docname="sc-w-1-1-linning.svg"><metadata
     id="metadata8"><rdf:RDF><cc:Work
         rdf:about=""><dc:format>image/svg+xml</dc:format><dc:type
           rdf:resource="http://purl.org/dc/dcmitype/StillImage" /><dc:title /></cc:Work></rdf:RDF></metadata><defs
     id="defs6" /><sodipodi:namedview
     pagecolor="#ffffff"
     bordercolor="#666666"
     borderopacity="1"
     objecttolerance="10"
     gridtolerance="10"
     guidetolerance="10"
     inkscape:pageopacity="0"
     inkscape:pageshadow="2"
     inkscape:window-width="1920"
     inkscape:window-height="1015"
     id="namedview4"
     showgrid="false"
     inkscape:zoom="1"
     inkscape:cx="-14.021343"
     inkscape:cy="276.30127"
     inkscape:window-x="0"
     inkscape:window-y="0"
     inkscape:window-maximized="1"
     inkscape:current-layer="g10"
     showguides="true"
     inkscape:guide-bbox="true" /><g
     id="g10"
     inkscape:groupmode="layer"
     inkscape:label="ink_ext_XXXXXX"
     transform="matrix(1.25,0,0,-1.25,0,672.00001)"><path
       inkscape:connector-curvature="0"
       id="path16-6"
       style="fill:#8f9190;fill-opacity:1;fill-rule:nonzero;stroke:none"
       d="m 107.25519,413.67064 c 0,0 9.09475,-43.43306 10.57167,-48.7172 1.47691,-5.28414 8.25868,-16.14472 4.02072,-19.10138 -4.23856,-2.95512 -11.24123,-21.66883 -11.72579,-26.61916 -0.48564,-4.95187 1.73768,-35.90603 4.39622,-48.92488 2.66144,-13.01884 10.27561,-45.8436 10.27561,-45.8436 l 2.13334,-12.23753 c 0,0 -5.17776,-38.72424 0,-53.72721 5.17852,-15.00344 6.85341,-27.93428 6.85341,-27.93428 l -1.02458,-31.098864 -5.90048,-0.779976 -4.24391,-1.244474 -11.11581,1.255288 -71.315417,-2.167468 c 0,0 -4.257678,1.853188 -6.092623,8.785264 -0.451141,1.70299 0.249431,8.62371 -0.220804,10.4697 -1.892828,7.43795 -2.232955,13.91091 -2.934123,19.13706 -0.661174,4.92556 -2.77838,11.73988 -2.502093,24.73149 0.09548,4.47329 -0.182597,11.60481 -0.02447,16.12303 0.103833,2.96435 -0.172455,6.69478 -0.05012,9.51299 0.265548,6.11777 0.337164,10.33324 0.636121,14.77084 0.204077,3.02143 3.515937,8.57201 3.707486,10.28816 0.196332,1.76015 -1.173771,3.70952 -0.793054,6.31083 0.57943,3.95334 1.145128,8.77137 1.979948,13.65986 0.822309,4.81987 1.351603,8.37171 2.222231,12.92361 1.009673,5.28261 3.947981,10.68982 4.731488,13.91107 0.559128,2.29518 1.293155,4.78419 1.601584,5.238 1.743028,2.56746 3.061833,9.2561 3.061833,9.2561 l 7.814753,7.35319 1.73539,-9.493 6.921394,18.72448 3.055263,10.25447 -1.527632,7.17936 -3.314808,0.61226 7.897704,16.82158 -2.64708,-0.0631 5.192878,11.34515 2.11409,9.30686 5.837234,16.00627 6.306828,8.53001 1.575446,8.9592 3.516456,8.25465 1.070564,3.83658 1.946051,6.04869 -1.946051,2.62131" /></g></svg>