<?xml version="1.0" encoding="UTF-8" standalone="no"?>
<!-- Created with Inkscape (http://www.inkscape.org/) -->

<svg
   xmlns:dc="http://purl.org/dc/elements/1.1/"
   xmlns:cc="http://creativecommons.org/ns#"
   xmlns:rdf="http://www.w3.org/1999/02/22-rdf-syntax-ns#"
   xmlns:svg="http://www.w3.org/2000/svg"
   xmlns="http://www.w3.org/2000/svg"
   xmlns:sodipodi="http://sodipodi.sourceforge.net/DTD/sodipodi-0.dtd"
   xmlns:inkscape="http://www.inkscape.org/namespaces/inkscape"
   id="svg2"
   version="1.1"
   inkscape:version="0.91 r13725"
   width="308"
   height="672"
   xml:space="preserve"
   sodipodi:docname="sc-w-1-2-linning.svg"><metadata
     id="metadata8"><rdf:RDF><cc:Work
         rdf:about=""><dc:format>image/svg+xml</dc:format><dc:type
           rdf:resource="http://purl.org/dc/dcmitype/StillImage" /><dc:title /></cc:Work></rdf:RDF></metadata><defs
     id="defs6" /><sodipodi:namedview
     pagecolor="#ffffff"
     bordercolor="#666666"
     borderopacity="1"
     objecttolerance="10"
     gridtolerance="10"
     guidetolerance="10"
     inkscape:pageopacity="0"
     inkscape:pageshadow="2"
     inkscape:window-width="1920"
     inkscape:window-height="1015"
     id="namedview4"
     showgrid="false"
     inkscape:zoom="1.5258652"
     inkscape:cx="-46.471944"
     inkscape:cy="379.45295"
     inkscape:window-x="0"
     inkscape:window-y="0"
     inkscape:window-maximized="1"
     inkscape:current-layer="g10" /><g
     id="g10"
     inkscape:groupmode="layer"
     inkscape:label="ink_ext_XXXXXX"
     transform="matrix(1.25,0,0,-1.25,0,672.00001)"><path
       id="path18-9"
       d="m 122.85288,235.03783 c 0.87187,-3.65965 1.77593,-7.33448 2.63555,-11.00932 -3.4017,0.37963 -4.91868,0.0911 -8.07674,-1.21634 0.0169,0.0456 0.0169,0.0774 0.0322,0.12148 0.0766,0.53301 0.15323,1.01742 0.30646,1.4426 l 0.45969,1.29075 -1.34842,-0.30218 c -0.92091,-0.19741 -2.00884,-0.68334 -3.15807,-1.18446 -1.93069,-0.86556 -4.33639,-1.91334 -5.54691,-1.3363 -0.42904,0.21259 -0.72018,0.63778 -0.88873,1.3363 l -0.18388,0.74408 -0.75082,-0.19741 c -0.84276,-0.21411 -1.60891,-0.59374 -2.34441,-0.95819 -1.10326,-0.56033 -2.16054,-1.07815 -3.35573,-0.97185 -0.21453,0.56185 -0.55163,1.07815 -0.858089,1.53371 -0.275814,0.39633 -0.520981,0.75926 -0.597596,1.03412 l -0.56695,1.83741 -0.858086,-1.71593 c -0.475012,-0.97338 -1.24116,-1.76149 -2.083923,-2.26261 -0.06129,0.42519 -0.183875,0.83519 -0.291136,1.21482 -0.122584,0.41001 -0.229845,0.83519 -0.229845,1.07816 l 0,1.15408 -1.072607,-0.44037 c -1.302452,-0.54515 -5.715466,-2.11076 -7.814712,0.60741 l -0.704856,0.9263 -0.56695,-1.01893 c -0.965346,-1.71594 -2.74281,-2.95961 -3.508958,-2.74854 -0.398398,0.1063 -0.643565,0.82001 -0.643565,1.93005 l -0.01532,5.73852 -1.50165,-5.54111 c -0.383075,-1.4426 -1.271806,-2.14112 -1.930694,-2.09557 -0.628241,0.0592 -1.072607,0.78964 -1.179868,1.92853 l -0.107261,1.26038 -1.072607,-0.68334 c -0.582273,-0.37963 -1.409713,-0.77445 -2.022632,-0.47074 -0.536303,0.24296 -0.904054,1.00223 -1.011315,2.06368 l -0.137907,1.21634 -1.041961,-0.66815 c -1.486328,-0.92631 -1.639558,-1.0326 -2.957332,-0.0152 l -0.934701,0.71371 -0.275814,-1.1389 c -0.306459,-1.27556 -1.302452,-2.23223 -2.512966,-2.44483 -1.057284,-0.16552 -2.037954,0.28852 -2.666195,1.2452 l -0.888732,1.36667 -0.490335,-1.55042 c -0.41372,-1.32111 -1.179868,-2.2459 -2.037954,-2.4752 -0.796795,-0.21259 -1.471005,0.2126 -1.915371,0.60742 l -1.425036,1.29074 0.15323,-1.91334 c 0.01532,-0.25815 -0.122584,-0.72889 -0.245167,-1.10853 -0.01532,-0.0759 -0.04597,-0.15185 -0.06129,-0.24296 -0.888732,0.3356 -1.884725,0.82001 -2.712165,1.29227 -0.321782,0.65296 -0.67421,1.27556 -1.041961,1.88297 -0.490335,0.8033 -0.950024,1.59445 -1.287129,2.41446 0.122583,-0.0152 0.245167,-0.0456 0.367751,-0.0607 l 0.766148,-0.1063 0.107261,0.75926 c 0.383074,2.9915 0.01532,6.57523 -0.934701,9.56673 l 0.750825,-0.56186 0.275813,1.1389 c 0.444366,1.94371 -0.10726,3.88894 -0.643564,5.7871 -0.398397,1.45779 -0.796794,2.85483 -0.766148,4.22151 0.06129,-0.0456 0.122584,-0.0774 0.183875,-0.1063 0.275814,-0.15185 0.551627,-0.28852 0.750826,-0.44037 l 1.164545,-0.91112 0.07661,1.47297 c 0.07662,1.64001 0.352428,3.43187 0.628241,5.31485 0.56695,3.75076 1.149223,7.60782 0.429043,11.0245 0.107261,-0.0607 0.183876,-0.10629 0.214522,-0.13666 l 1.011315,-0.8519 0.245168,1.29227 c 0.367751,1.92853 0.337105,4.90332 0.06129,7.7293 0.09194,-0.12148 0.153229,-0.25815 0.26049,-0.37963 0.199199,-0.22778 0.490335,-0.47074 0.919378,-0.57704 0.41372,-0.13667 0.950024,0 1.256483,0.24297 0.628241,0.48441 0.812117,1.01741 0.995993,1.53371 0.137906,0.48593 0.229844,0.82 0.367751,1.24519 0.551626,1.64001 1.210514,3.28002 1.823432,4.93521 1.24116,3.31039 2.482321,6.62078 3.585574,10.02228 0.551627,1.70075 1.072607,3.4015 1.425036,5.26929 0.07661,0.48593 0.153229,0.95667 0.153229,1.51853 0,0.75926 -0.07662,0.95667 -0.06129,1.38186 -0.01532,0.78963 0.04597,1.64001 0.122584,2.4752 0.291136,3.00668 0.842763,6.05892 1.578265,9.00486 -0.337105,2.82446 -0.09194,5.70966 0.72018,8.41264 l -0.812117,-1.4426 c -0.107261,-0.19741 -0.214522,-0.39482 -0.321783,-0.57704 0.107261,0.42519 0.214522,0.86556 0.337106,1.33631 0.275813,1.07815 0.582272,2.30816 0.888731,3.90261 l 0.122584,0.6226 -0.582272,0.22777 c -0.07662,0.0304 -0.137907,0.0456 -0.214522,0.0759 0.459689,0.57704 1.057285,1.29075 1.670203,2.01964 3.110562,3.72039 5.470298,6.72708 5.240454,8.74672 -0.03065,0.37963 -0.168553,0.71371 -0.383074,1.00223 0.291136,1.10852 1.011315,2.11075 1.777464,3.17372 0.980669,1.38186 1.991985,2.80927 2.283121,4.64669 l 0.15323,0.98704 -0.995993,-0.10629 c -0.275813,-0.0304 -0.551627,-0.0456 -0.82744,-0.0607 0.398397,0.77444 0.995993,1.48815 1.624234,2.23223 1.24116,1.47297 2.650873,3.12817 2.390383,5.51225 l -0.06129,0.54667 -0.536304,0.12149 c -0.214521,0.0455 -0.429043,0.0607 -0.628241,0.0607 0.306459,1.00222 0.950023,1.92853 1.639557,2.90038 0.582272,0.80482 1.164545,1.64001 1.578265,2.55113 l 0.398397,0.9263 -0.367751,0.0456 c 1.08793,1.24519 2.298445,2.93075 2.650873,4.31261 0.26049,0.97186 -0.09194,1.67038 -0.352428,2.18668 -0.199199,0.41 -0.275814,0.57704 -0.199199,0.75927 0.367751,1.06296 1.179868,2.03482 2.037954,3.08261 1.149223,1.38186 2.329091,2.82446 2.528289,4.61632 l 0.09194,0.86556 -0.459689,-0.0152 c 1.210514,1.21483 1.884725,2.71817 1.900048,4.26706 l 0.01532,0.65297 -0.07662,0 c 0.214521,0.18222 0.429043,0.36445 0.658887,0.54667 2.129892,1.76149 4.780765,3.94817 4.336399,6.07411 -0.168553,0.83519 -0.766148,1.50334 -1.823433,2.01964 1.440359,1.19964 3.371052,3.21928 2.773457,4.61632 -0.41372,0.98705 -1.685526,1.04779 -2.942009,0.83519 0.459689,1.10853 1.532296,2.76372 3.141207,4.87447 l 0.03065,0 c 0.137907,-0.0304 0.429043,-0.25814 0.950024,-1.4426 l 0.597596,-1.36667 0.766148,1.29075 c 0.628241,1.0326 1.103253,1.42741 2.880715,0.48593 l 0.88873,-0.47075 0.21453,0.97186 c 0.59759,2.61187 1.97666,4.19114 5.13319,5.84633 l 0.49033,0.25815 -0.0919,0.53148 c -0.18388,1.12371 0.0306,2.05002 0.10726,2.1715 l 0.39839,0.16704 0.0613,0.41 c 1.6702,-10.23487 3.58557,-20.39382 5.99281,-30.50721 0.38307,-1.48816 0.76614,-2.96113 1.19366,-4.44929 0.41525,-1.47297 0.95002,-2.97631 1.44035,-4.37335 0.98067,-2.83965 1.8832,-5.72485 2.60491,-8.62524 0.688,-2.8852 1.30245,-5.84633 1.30245,-8.68597 -0.0306,-1.4426 -0.1992,-2.73335 -0.81212,-3.88743 -0.67268,-1.29075 -1.471,-2.62705 -2.19118,-3.97854 -2.92669,-5.43633 -5.11787,-11.26747 -6.43565,-17.26566 -1.33309,-6.01336 -1.83875,-12.14821 -1.74681,-18.25269 0.046,-6.10448 0.81211,-12.17859 1.8219,-18.17677 1.02664,-5.99818 2.05481,-11.99485 3.26532,-17.96418 2.33062,-11.95232 5.08876,-23.79684 7.9848,-35.61098 z"
       inkscape:connector-curvature="0"
       style="fill:#878787" /><g
       id="g20"
       transform="matrix(1.5322964,0,0,-1.5185271,-293.90751,576.35717)" /></g></svg>