<?xml version="1.0" encoding="UTF-8" standalone="no"?>
<!-- Created with Inkscape (http://www.inkscape.org/) -->

<svg
   xmlns:dc="http://purl.org/dc/elements/1.1/"
   xmlns:cc="http://creativecommons.org/ns#"
   xmlns:rdf="http://www.w3.org/1999/02/22-rdf-syntax-ns#"
   xmlns:svg="http://www.w3.org/2000/svg"
   xmlns="http://www.w3.org/2000/svg"
   xmlns:sodipodi="http://sodipodi.sourceforge.net/DTD/sodipodi-0.dtd"
   xmlns:inkscape="http://www.inkscape.org/namespaces/inkscape"
   id="svg2"
   version="1.1"
   inkscape:version="0.91 r13725"
   width="308"
   height="672"
   xml:space="preserve"
   sodipodi:docname="sc-w-2-1.svg"><metadata
     id="metadata8"><rdf:RDF><cc:Work
         rdf:about=""><dc:format>image/svg+xml</dc:format><dc:type
           rdf:resource="http://purl.org/dc/dcmitype/StillImage" /><dc:title></dc:title></cc:Work></rdf:RDF></metadata><defs
     id="defs6" /><sodipodi:namedview
     pagecolor="#ffffff"
     bordercolor="#666666"
     borderopacity="1"
     objecttolerance="10"
     gridtolerance="10"
     guidetolerance="10"
     inkscape:pageopacity="0"
     inkscape:pageshadow="2"
     inkscape:window-width="1920"
     inkscape:window-height="1015"
     id="namedview4"
     showgrid="false"
     inkscape:zoom="0.70134489"
     inkscape:cx="-339.87887"
     inkscape:cy="229.21021"
     inkscape:window-x="0"
     inkscape:window-y="0"
     inkscape:window-maximized="1"
     inkscape:current-layer="g10" /><g
     id="g10"
     inkscape:groupmode="layer"
     inkscape:label="ink_ext_XXXXXX"
     transform="matrix(1.25,0,0,-1.25,0,672.00001)"><path
       inkscape:connector-curvature="0"
       id="path42"
       style="fill:#d2d4d1;fill-opacity:1;fill-rule:nonzero;stroke:none"
       d="m 110.8055,461.1507 c -1.40833,1.17194 -4.98036,3.48964 -6.84099,3.35566 0.2581,-0.30954 0.37052,-0.67452 0.58951,-1.00562 -1.90205,0.0662 -3.62855,-0.73766 -5.47778,-0.79002 0.408408,-0.20174 0.718256,-0.59752 1.11404,-0.79618 -1.700626,-0.28644 -3.745284,-0.847 -5.2089,-1.78948 0.407176,-0.18634 0.63217,-0.52976 0.916146,-0.71302 -1.694,-0.29722 -4.180792,-1.59236 -4.302298,-3.35566 0.249018,-0.009 0.518518,0.0169 0.774158,-0.0231 0.29183,-2.28228 -2.347884,-3.3187 -2.59336,-5.37922 0.307384,0.0785 0.628012,0.15862 0.944482,0.21868 -1.093708,-1.63394 -2.526524,-3.3033 -3.257408,-5.09894 0.360822,0.11242 0.845152,0.0616 1.242164,0.2079 -0.504658,-1.49072 -1.542464,-2.83976 -2.001384,-4.28428 0.368676,0.0262 0.848232,-0.1309 1.22353,-0.0724 -0.01863,-2.38238 -2.242548,-4.41364 -1.980286,-6.8761 0.285054,0.15554 0.863786,0.21098 1.198274,0.45276 -0.139524,-2.28228 -1.39447,-4.62 -1.71864,-6.87918 0.265342,0.0308 0.463232,0.12782 0.706244,0.16786 0.08116,-1.925 -1.18503,-3.63286 -0.955878,-5.54708 0.32186,0.20174 1.06414,0.30184 1.467158,0.6622 -0.188804,-1.99122 -1.232616,-4.08562 -1.73789,-6.04758 0.246092,-0.0678 0.463848,0.003 0.707476,-0.0708 0.261646,-1.69246 -2.485098,-6.42488 -0.25872,-6.67436 -0.01802,-1.87572 -1.607298,-3.60206 -1.147146,-5.5748 0.457842,0.0816 0.712866,-10e-4 1.177176,0.18326 -0.397628,-2.08978 -1.989372,-3.86232 -1.748054,-6.08454 0.397012,0.14014 0.608146,0.10164 1.03103,0.34342 -0.84392,-1.95888 -2.998688,-3.71294 -2.82667,-5.99214 0.60445,0.28028 0.944944,-0.003 1.529066,0.66066 -0.585816,-2.04358 -2.441672,-3.72218 -2.824824,-5.79194 0.56595,0.16632 1.136368,0.0416 1.74744,0.38038 -0.923386,-1.39678 -2.888734,-3.12004 -3.013782,-4.75244 0.185878,-0.0154 0.421036,0.1463 0.50589,0.14168 -1.38184,-2.6334 -3.182254,-5.0897 -4.649412,-7.60298 0.643104,0.37268 1.397396,0.95942 1.954414,1.5169 -1.162238,-4.05174 -6.11072,-7.0455 -8.102402,-10.7338 0.253176,-0.0708 0.483098,-0.0662 0.730884,-0.12782 -0.697158,-1.6709 -1.850464,-3.4804 -2.264262,-5.27912 0.30492,0.1617 0.860244,0.25256 1.210902,0.4774 0.03788,-2.97374 -3.333176,-5.15746 -3.244164,-8.16354 0.268884,0.24794 0.601524,0.39116 0.935396,0.91938 0.50897,-3.02456 -3.454836,-6.01832 -3.903592,-9.02286 0.172018,0.21714 0.370678,0.40656 0.59444,0.5698 -1.007622,-2.85516 -3.419262,-4.77708 -3.987214,-7.87556 0.141988,-0.077 0.28028,0.0616 0.449988,-0.0262 -0.59983,-2.35466 -2.190342,-4.55378 -2.62878,-6.86994 0.21406,0.5621 0.561176,1.1011 0.806036,1.65858 0.332024,-3.19242 -2.488069,-6.06914 -2.841191,-9.17378 -0.141973,-1.24894 0.552244,-1.5015 0.06798,-3.06768 -0.480049,-1.54924 -1.970708,-2.39008 -2.604156,-3.80688 0.149781,-0.0246 0.299576,-0.0493 0.450573,-0.0739 -0.06557,-3.16316 -4.894921,-4.07946 -4.543616,-7.392 0.33207,0.30184 1.052144,0.59752 1.399244,0.97174 -0.818125,-1.66012 -1.32885,-3.56356 -1.985753,-5.34226 0.201509,0.19096 0.368153,0.47894 0.567259,0.6853 0.276723,-2.85516 -2.608975,-5.08354 -3.316405,-7.55678 0.297174,0.5082 0.683375,1.0703 0.973927,1.63548 -0.890305,-2.74582 -4.285531,-4.69238 -4.304179,-7.57834 0.405453,0.18788 1.01363,0.057 1.455179,0.19096 -0.05655,-0.50974 0.196719,-1.24894 0.08302,-1.74174 0.740524,1.25818 0.944451,0.57596 1.680756,0.49126 0.04692,-0.006 2.146375,-0.65758 2.381594,-0.75152 1.100854,-0.4389 2.285329,-1.7094 3.086006,-2.079 0.771217,-0.35574 1.493092,-2.16986 2.167443,0.34188 0.732101,-1.67552 1.59473,-0.57442 2.184273,-1.03642 0.659305,-0.5159 1.195902,-1.61238 2.051927,-2.4332 0.788634,0.9163 1.075536,2.12058 1.346268,3.35104 0.581196,-1.61084 0.42889,-3.70986 2.440592,-3.81304 1.351042,-0.0708 2.30692,0.94248 2.118116,2.2484 0.840994,-5.24832 6.595512,-2.27458 3.94625,-0.17248 0.48664,-0.33264 1.441286,-0.539 1.917762,-0.76076 0.293524,1.36598 -0.224994,2.8721 -1.21814,3.73142 0.605066,-0.7623 1.63086,-1.11034 2.49403,-1.17348 0.185262,1.18888 -0.27258,2.2946 -1.005158,3.22014 0.566566,-0.72226 1.09956,-0.63448 1.787786,-0.88858 0.308616,2.17294 -0.92092,4.18726 -1.248786,6.30322 -0.01817,-1.0318 0.31031,-1.57234 0.98714,-1.95118 0.243012,2.55024 -0.29183,5.159 -1.05875,7.59374 0.547932,-1.11804 0.86625,-2.25918 2.090396,-2.2099 0.116732,2.14214 0.0884,4.35204 0.0079,6.5065 0.370524,-0.69454 1.09956,-1.56002 1.789634,-1.8557 0.10164,2.07438 0.14553,4.235 -0.03373,6.30784 0.54978,-1.14114 0.966812,-2.33618 1.615152,-3.42804 0.368214,2.57334 0.412104,5.24678 0.567952,7.82936 0.262262,-0.78386 0.67067,-1.8865 1.502732,-2.27612 0.718256,1.70324 0.433048,3.74374 0.53053,5.59482 0.207592,-0.18018 0.994378,-0.44814 1.258488,-0.73304 0.616616,1.65396 0.166012,3.82536 0.295372,5.62408 0.132902,-0.28336 0.55286,-0.77616 0.71764,-1.20274 0.81389,3.03534 -0.0673,6.97928 1.483482,9.69122 0.102256,-1.10264 0.01987,-2.24378 0.102256,-3.3495 1.164548,1.48918 1.198274,4.7124 1.54539,6.68668 0.179872,-0.21252 0.834372,-0.57442 0.982982,-0.75306 0.985292,1.80796 1.287286,4.31508 1.796872,6.3294 -0.09271,-0.88088 0.311542,-1.16886 0.5005,-1.77408 1.542926,1.55386 1.324554,4.88026 1.596518,6.9762 1.233232,-5.13898 2.99222,4.27042 2.981902,5.47778 0.222068,-0.52514 0.848232,-0.94402 1.100946,-1.42142 1.409408,2.53022 0.42889,5.99676 0.526372,8.75952 0.369292,-0.1771 0.848232,-0.10934 1.186262,-0.22792 0.749518,1.73558 0.893354,3.63748 0.828366,5.50242 0.08716,-2.04204 1.139908,-1.47686 1.743896,0.0662 0.523908,1.33826 -0.297836,3.04766 -0.478786,4.35512 0.286286,-0.56518 0.931238,-0.9933 1.24278,-1.4476 1.20428,3.51736 -0.208824,7.63378 1.028104,11.20658 0.178024,-0.52668 0.412566,-0.6468 0.584122,-0.93786 1.068914,2.45014 0.59675,5.59482 1.212134,8.14198 0.0029,-0.46046 0.08239,-1.01024 0.10164,-1.48302 1.331787,1.4861 0.751977,4.65388 0.705627,6.59274 1.83183,-3.67444 1.82274,5.40232 1.7981,6.3987 1.89852,0.0816 1.25726,4.8202 1.33903,6.38484 0.26766,-0.0246 0.41935,-0.1155 0.68222,-0.0986 0.95049,1.7633 1.1279,4.081 1.11589,6.03372 1.80703,-0.2233 1.81011,7.06244 1.26988,8.79802 0.28275,-0.0601 0.72965,-0.12474 0.96373,-0.19866 1.12667,1.7479 0.95111,3.23246 1.11651,5.6056 0.3314,-0.28182 0.90829,-0.30646 1.17964,-0.47124 0.7164,1.2089 0.71948,2.7027 0.39762,4.01478 1.88342,0.8085 2.56272,3.34642 0.94449,4.62616 1.54354,0.43274 3.1359,1.75714 3.29406,3.35412 -0.31093,-0.006 -0.66775,0.0785 -0.97683,0.0739 0.8758,1.18272 2.13737,2.42242 2.84592,3.82228 -0.85778,0.62986 -2.02664,1.05336 -2.58365,1.9789 1.01116,0.88242 1.931,1.74944 2.05004,3.1416 0.0741,0.85778 -1.10741,1.3321 -0.92092,2.56256 0.19851,1.30746 2.64865,2.40702 2.67267,3.62208 0.0638,3.28944 -8.40732,0.84546 -3.90944,5.89666 -0.50897,0.7854 -1.30962,1.71248 -1.70309,2.27766 -0.25025,0.35882 0.12998,0.95018 -0.18772,1.36136 -0.44398,0.57596 -1.59113,0.99484 -2.12828,1.21968" /><path
       inkscape:connector-curvature="0"
       id="path44"
       style="fill:none;stroke:#171717;stroke-width:1.53999996;stroke-linecap:butt;stroke-linejoin:miter;stroke-miterlimit:10;stroke-dasharray:none;stroke-opacity:1"
       d="m 110.8055,461.1507 c -1.40833,1.17194 -4.98036,3.48964 -6.84099,3.35566 0.2581,-0.30954 0.37052,-0.67452 0.58951,-1.00562 -1.90205,0.0662 -3.62855,-0.73766 -5.47778,-0.79002 0.408408,-0.20174 0.718256,-0.59752 1.11404,-0.79618 -1.700626,-0.28644 -3.745284,-0.847 -5.2089,-1.78948 0.407176,-0.18634 0.63217,-0.52976 0.916146,-0.71302 -1.694,-0.29722 -4.180792,-1.59236 -4.302298,-3.35566 0.249018,-0.009 0.518518,0.0169 0.774158,-0.0231 0.29183,-2.28228 -2.347884,-3.3187 -2.59336,-5.37922 0.307384,0.0785 0.628012,0.15862 0.944482,0.21868 -1.093708,-1.63394 -2.526524,-3.3033 -3.257408,-5.09894 0.360822,0.11242 0.845152,0.0616 1.242164,0.2079 -0.504658,-1.49072 -1.542464,-2.83976 -2.001384,-4.28428 0.368676,0.0262 0.848232,-0.1309 1.22353,-0.0724 -0.01863,-2.38238 -2.242548,-4.41364 -1.980286,-6.8761 0.285054,0.15554 0.863786,0.21098 1.198274,0.45276 -0.139524,-2.28228 -1.39447,-4.62 -1.71864,-6.87918 0.265342,0.0308 0.463232,0.12782 0.706244,0.16786 0.08116,-1.925 -1.18503,-3.63286 -0.955878,-5.54708 0.32186,0.20174 1.06414,0.30184 1.467158,0.6622 -0.188804,-1.99122 -1.232616,-4.08562 -1.73789,-6.04758 0.246092,-0.0678 0.463848,0.003 0.707476,-0.0708 0.261646,-1.69246 -2.485098,-6.42488 -0.25872,-6.67436 -0.01802,-1.87572 -1.607298,-3.60206 -1.147146,-5.5748 0.457842,0.0816 0.712866,-10e-4 1.177176,0.18326 -0.397628,-2.08978 -1.989372,-3.86232 -1.748054,-6.08454 0.397012,0.14014 0.608146,0.10164 1.03103,0.34342 -0.84392,-1.95888 -2.998688,-3.71294 -2.82667,-5.99214 0.60445,0.28028 0.944944,-0.003 1.529066,0.66066 -0.585816,-2.04358 -2.441672,-3.72218 -2.824824,-5.79194 0.56595,0.16632 1.136368,0.0416 1.74744,0.38038 -0.923386,-1.39678 -2.888734,-3.12004 -3.013782,-4.75244 0.185878,-0.0154 0.421036,0.1463 0.50589,0.14168 -1.38184,-2.6334 -3.182254,-5.0897 -4.649412,-7.60298 0.643104,0.37268 1.397396,0.95942 1.954414,1.5169 -1.162238,-4.05174 -6.11072,-7.0455 -8.102402,-10.7338 0.253176,-0.0708 0.483098,-0.0662 0.730884,-0.12782 -0.697158,-1.6709 -1.850464,-3.4804 -2.264262,-5.27912 0.30492,0.1617 0.860244,0.25256 1.210902,0.4774 0.03788,-2.97374 -3.333176,-5.15746 -3.244164,-8.16354 0.268884,0.24794 0.601524,0.39116 0.935396,0.91938 0.50897,-3.02456 -3.454836,-6.01832 -3.903592,-9.02286 0.172018,0.21714 0.370678,0.40656 0.59444,0.5698 -1.007622,-2.85516 -3.419262,-4.77708 -3.987214,-7.87556 0.141988,-0.077 0.28028,0.0616 0.449988,-0.0262 -0.59983,-2.35466 -2.190342,-4.55378 -2.62878,-6.86994 0.21406,0.5621 0.561176,1.1011 0.806036,1.65858 0.332024,-3.19242 -2.488069,-6.06914 -2.841191,-9.17378 -0.141973,-1.24894 0.552244,-1.5015 0.06798,-3.06768 -0.480049,-1.54924 -1.970708,-2.39008 -2.604156,-3.80688 0.149781,-0.0246 0.299576,-0.0493 0.450573,-0.0739 -0.06557,-3.16316 -4.894921,-4.07946 -4.543616,-7.392 0.33207,0.30184 1.052144,0.59752 1.399244,0.97174 -0.818125,-1.66012 -1.32885,-3.56356 -1.985753,-5.34226 0.201509,0.19096 0.368153,0.47894 0.567259,0.6853 0.276723,-2.85516 -2.608975,-5.08354 -3.316405,-7.55678 0.297174,0.5082 0.683375,1.0703 0.973927,1.63548 -0.890305,-2.74582 -4.285531,-4.69238 -4.304179,-7.57834 0.405453,0.18788 1.01363,0.057 1.455179,0.19096 -0.05655,-0.50974 0.196719,-1.24894 0.08302,-1.74174 0.740524,1.25818 0.944451,0.57596 1.680756,0.49126 0.04692,-0.006 2.146375,-0.65758 2.381594,-0.75152 1.100854,-0.4389 2.285329,-1.7094 3.086006,-2.079 0.771217,-0.35574 1.493092,-2.16986 2.167443,0.34188 0.732099,-1.67552 1.59473,-0.57442 2.184273,-1.03642 0.659305,-0.5159 1.195902,-1.61238 2.051927,-2.4332 0.788634,0.9163 1.075536,2.12058 1.346268,3.35104 0.581196,-1.61084 0.42889,-3.70986 2.440592,-3.81304 1.351042,-0.0708 2.30692,0.94248 2.118116,2.2484 0.840994,-5.24832 6.595512,-2.27458 3.94625,-0.17248 0.48664,-0.33264 1.441286,-0.539 1.917762,-0.76076 0.293524,1.36598 -0.224994,2.8721 -1.21814,3.73142 0.605066,-0.7623 1.63086,-1.11034 2.49403,-1.17348 0.185262,1.18888 -0.27258,2.2946 -1.005158,3.22014 0.566566,-0.72226 1.09956,-0.63448 1.787786,-0.88858 0.308616,2.17294 -0.92092,4.18726 -1.248786,6.30322 -0.01817,-1.0318 0.31031,-1.57234 0.98714,-1.95118 0.243012,2.55024 -0.29183,5.159 -1.05875,7.59374 0.547932,-1.11804 0.86625,-2.25918 2.090396,-2.2099 0.116732,2.14214 0.0884,4.35204 0.0079,6.5065 0.370524,-0.69454 1.09956,-1.56002 1.789634,-1.8557 0.10164,2.07438 0.14553,4.235 -0.03373,6.30784 0.54978,-1.14114 0.966812,-2.33618 1.615152,-3.42804 0.368214,2.57334 0.412104,5.24678 0.567952,7.82936 0.262262,-0.78386 0.67067,-1.8865 1.502732,-2.27612 0.718256,1.70324 0.433048,3.74374 0.53053,5.59482 0.207592,-0.18018 0.994378,-0.44814 1.258488,-0.73304 0.616614,1.65396 0.16601,3.82536 0.29537,5.62408 0.132902,-0.28336 0.55286,-0.77616 0.71764,-1.20274 0.81389,3.03534 -0.0673,6.97928 1.483482,9.69122 0.102256,-1.10264 0.01987,-2.24378 0.102256,-3.3495 1.16455,1.48918 1.198276,4.7124 1.545392,6.68668 0.179872,-0.21252 0.834372,-0.57442 0.982982,-0.75306 0.985292,1.80796 1.287286,4.31508 1.796872,6.3294 -0.09271,-0.88088 0.311542,-1.16886 0.5005,-1.77408 1.542926,1.55386 1.324554,4.88026 1.596518,6.9762 1.233232,-5.13898 2.99222,4.27042 2.981902,5.47778 0.222068,-0.52514 0.848232,-0.94402 1.100946,-1.42142 1.409408,2.53022 0.42889,5.99676 0.526372,8.75952 0.369292,-0.1771 0.848232,-0.10934 1.186262,-0.22792 0.749518,1.73558 0.893354,3.63748 0.828366,5.50242 0.08716,-2.04204 1.139908,-1.47686 1.743896,0.0662 0.523908,1.33826 -0.297836,3.04766 -0.478786,4.35512 0.286286,-0.56518 0.931238,-0.9933 1.24278,-1.4476 1.20428,3.51736 -0.208824,7.63378 1.028104,11.20658 0.178024,-0.52668 0.412566,-0.6468 0.584122,-0.93786 1.068914,2.45014 0.59675,5.59482 1.212134,8.14198 0.0029,-0.46046 0.08239,-1.01024 0.10164,-1.48302 1.331787,1.4861 0.751977,4.65388 0.705627,6.59274 1.83183,-3.67444 1.82274,5.40232 1.7981,6.3987 1.89852,0.0816 1.25726,4.8202 1.33903,6.38484 0.26766,-0.0246 0.41935,-0.1155 0.68222,-0.0986 0.95049,1.7633 1.1279,4.081 1.11589,6.03372 1.80703,-0.2233 1.81011,7.06244 1.26988,8.79802 0.28275,-0.0601 0.72965,-0.12474 0.96373,-0.19866 1.12667,1.7479 0.95111,3.23246 1.11651,5.6056 0.3314,-0.28182 0.90829,-0.30646 1.17964,-0.47124 0.7164,1.2089 0.71948,2.7027 0.39762,4.01478 1.88342,0.8085 2.56272,3.34642 0.94449,4.62616 1.54354,0.43274 3.1359,1.75714 3.29406,3.35412 -0.31093,-0.006 -0.66775,0.0785 -0.97683,0.0739 0.8758,1.18272 2.13737,2.42242 2.84592,3.82228 -0.85778,0.62986 -2.02664,1.05336 -2.58365,1.9789 1.01116,0.88242 1.931,1.74944 2.05004,3.1416 0.0741,0.85778 -1.10741,1.3321 -0.92092,2.56256 0.19851,1.30746 2.64865,2.40702 2.67267,3.62208 0.0638,3.28944 -8.40732,0.84546 -3.90944,5.89666 -0.50897,0.7854 -1.30962,1.71248 -1.70309,2.27766 -0.25025,0.35882 0.12998,0.95018 -0.18772,1.36136 -0.44398,0.57596 -1.59113,0.99484 -2.12828,1.21968" /><path
       inkscape:connector-curvature="0"
       id="path46"
       style="fill:#d2d4d1;fill-opacity:1;fill-rule:nonzero;stroke:none"
       d="m 165.21863,451.39942 c 1.36737,0.71764 2.20713,2.10518 3.69061,2.7335 -0.0246,-0.12474 -0.0451,-0.24948 -0.0608,-0.37576 0.99251,-0.23408 2.07051,0.0939 2.91043,0.63294 0.0698,-0.21406 -0.15585,-0.1309 -0.10718,-0.37422 1.14545,-0.1848 2.34251,0.0185 3.388,0.539 -0.33802,-0.4081 -0.60567,-1.39678 -0.99067,-1.8711 1.64517,0.006 3.10156,1.00562 4.73365,0.72842 0.55471,-0.85778 0.1871,-0.64834 0.98776,-1.29514 -0.73691,-0.53438 -1.4798,-1.10572 -2.16555,-1.694 0.75737,-0.19404 7.88634,-1.7017 3.32363,-2.55486 1.57788,-0.55902 3.22613,-0.92092 4.76428,-1.617 -0.47877,-0.0462 -0.96127,-0.2079 -1.40154,-0.25564 1.69938,0.16478 3.50456,-0.38346 5.03981,-1.0703 -0.52039,-0.3388 -0.9354,-0.85932 -1.74328,-1.01486 -0.12213,-1.28744 0.80911,-2.1714 1.94238,-2.72734 -0.47107,-0.0231 -0.99792,-0.31878 -1.39555,-0.36036 1.10326,-1.14576 2.47478,-2.11134 3.23818,-3.4881 -0.56734,0.0816 -1.08834,-0.0878 -1.69339,0.10934 0.80063,-1.32902 2.04588,-2.87826 2.75999,-4.4429 -0.22378,-0.0154 -0.7135,-0.27104 -1.09432,-0.28028 -0.18049,-2.05436 1.13881,-3.57588 1.56046,-5.3669 -0.24054,0.1232 -0.52096,0.28644 -0.69775,0.37422 -0.2347,-2.14676 1.19411,-3.95626 1.20489,-6.01832 -0.29783,0.27412 -0.68992,0.46816 -0.98652,0.7161 -0.75323,-1.10418 -0.75508,-2.91984 -0.80912,-4.35512 -2.05976,-0.29568 -1.44315,-3.28944 -1.54,-4.8895 -0.29954,0.1694 -0.73752,0.21868 -1.06352,0.39578 -0.53007,-1.4476 0.33924,-3.06152 0.55515,-4.4891 -0.30615,-0.006 -0.64663,-0.0693 -0.95524,-0.0739 -0.3579,-2.23916 0.98235,-4.25502 1.21211,-6.35558 -0.4007,0.24332 -1.04966,0.2387 -1.46775,0.46662 -0.29308,-1.98968 0.66233,-4.15492 0.96787,-6.05682 -0.39407,0.25872 -0.93786,0.25102 -1.23077,0.39578 -0.0637,-1.4476 -0.27672,-3.234 0.19791,-4.53376 -0.675,0.12166 -1.55325,-0.16016 -2.24501,-0.0909 -0.18296,-1.44606 0.44211,-2.83668 0.63585,-4.2273 -0.15585,0.008 -0.47107,0.10472 -0.63832,0.12628 -0.30615,-1.12882 0.1366,-2.28382 0.96373,-2.98144 -3.31038,-0.35266 -0.75552,-3.30792 -0.93125,-4.94186 -0.24424,-2.28228 -1.96826,-1.46608 0.11073,-4.58766 -0.43321,0.0262 -1.01964,-0.1463 -1.44314,-0.0847 1.52075,-1.1011 2.62462,-2.92292 3.02703,-4.78478 -0.27797,0.1078 -0.92092,0.0832 -1.21152,0.18326 -0.43675,-2.8952 1.20967,-4.39362 3.01501,-6.07838 -0.25872,0.11088 -0.41026,0.2387 -0.7044,0.39578 0.30369,-1.64626 1.31193,-3.1108 2.44414,-4.31816 -0.29414,0.1001 -0.62262,0.154 -0.91676,0.2618 0.85115,-2.43936 2.57226,-4.74936 3.30314,-7.15638 -0.36159,0.22792 -0.90891,0.26642 -1.26449,0.42966 -0.10765,-2.02202 0.75552,-4.03326 1.694,-5.7981 -0.28398,0.14168 -0.8182,0.25256 -1.14592,0.4543 0.49142,-2.17448 3.12081,-5.01116 2.80665,-7.20874 -0.43428,0.24948 -0.92246,0.29106 -1.33533,0.57288 0.70701,-1.84646 1.62331,-3.75452 2.51343,-5.58866 -1.09032,0.31724 3.89928,-6.6913 3.62978,-7.9849 -3.58974,0.76538 -1.0472,-3.32948 0.0123,-4.62154 -0.32186,0.17864 -0.93478,0.2695 -1.22276,0.40964 -0.22022,-2.43628 2.464,-4.38284 2.49172,-6.82682 -2.0636,0.31108 -2.06514,-1.75714 -1.27358,-3.07384 -0.15092,-0.005 -0.44968,0.12474 -0.5005,0.12166 0.10164,-1.75868 1.07184,-3.44344 1.65088,-5.082 -0.4774,0.14476 -1.23816,-0.0631 -1.71864,0.0847 0.48048,-1.80334 2.08978,-3.5728 2.10518,-5.40848 -0.29414,0.20636 -1.37676,0.35882 -1.67244,0.55132 -0.35882,-1.4476 0.82082,-4.26734 1.15346,-5.67182 -0.36652,0.30338 -1.0857,0.43274 -1.463,0.70378 -0.0477,-1.23354 0.54824,-2.22068 1.155,-3.27096 -0.52514,0.19866 -1.37522,0.0185 -1.925,0.17864 0.12166,-0.57288 -0.0323,-1.3552 0.22946,-1.92346 -0.26026,0.57596 -0.97174,1.02256 -1.29206,1.47994 -0.70224,-0.90244 -1.8095,-4.95418 -3.15238,-2.10364 -0.0909,-0.4312 -0.63956,-1.15192 -0.74428,-1.75714 -0.27427,0.3696 -1.20613,0.88396 -1.49364,1.29976 -1.85339,-2.56872 -4.61585,-2.89674 -6.93124,-1.80642 -6.1e-4,-0.14784 0.003,-0.29414 0.0139,-0.44198 -0.0331,0.1001 -0.10225,0.14014 -0.20759,0.12166 -0.41333,-0.72688 -0.86917,-1.05336 -1.55802,-1.47686 0.12875,0.38038 0.0536,1.0934 0.17264,1.47378 -0.37545,-0.19096 -1.32764,-0.2079 -1.71864,-0.44044 0.0252,0.28952 -0.0482,0.65912 -0.0385,0.96096 -0.55163,-0.12012 -1.22969,0.0662 -1.79872,-0.20482 0.34773,0.27258 0.99622,1.22122 1.35412,1.48764 -0.46015,-0.10164 -1.10387,0.10626 -1.57003,0.0724 -0.0511,1.08262 0.30369,2.20374 0.42766,3.2186 -0.25749,-0.4466 -0.68515,-0.65142 -0.94325,-0.94094 -0.46862,2.09594 0.0524,3.32948 0.74413,5.31762 -0.0638,-0.67914 -0.26535,-1.30592 -0.46616,-1.92654 -0.22561,1.65858 0.48956,4.08716 0.85963,5.78116 -0.36098,-0.83622 -0.85008,-1.13036 -1.38,-1.72634 -0.21591,2.78124 -0.29183,5.66104 -0.34711,8.44998 -0.62447,-0.51436 -1.13329,-0.53592 -1.25002,-1.71248 0.0155,1.92346 0.006,3.84692 0.006,5.77038 0.0192,-0.70532 -0.0999,-1.31208 -0.19975,-1.93424 -0.15938,2.2022 -0.41748,4.92646 0.22624,7.05474 -0.0801,-0.15554 -0.21006,-0.3157 -0.29722,-0.47124 0.0426,1.20274 0.26163,4.16724 -0.29955,5.8597 -0.20882,-0.68222 -0.78324,-1.309 -1.04011,-1.97582 -1.3974,2.71656 0.10472,6.54654 -1.01363,9.49102 -0.21482,-0.8239 -0.61245,-1.55694 -0.73688,-2.41164 0.0571,1.9096 0.45352,4.81096 -0.22624,6.5296 -0.17987,-0.37576 -0.55577,-0.81158 -0.72671,-1.14884 -0.10164,2.08362 -0.20266,4.26118 -0.88488,6.26626 -0.4055,-0.0847 -1.07924,0.1463 -1.43652,0.0847 -0.14137,2.4255 0.27197,4.96034 -0.33804,7.33656 -0.46922,-0.38808 -0.7352,-0.0893 -1.18871,-0.93786 -0.0433,1.6016 -0.24486,3.23862 -0.62202,4.80172 -0.27611,-0.42196 -1.00946,-0.77308 -1.1881,-0.9779 0.0547,2.27766 0.44459,5.47316 -2.56564,4.86178 -0.10826,1.91114 0.0601,6.16924 -2.87487,3.57588 -0.67082,1.2936 0.16124,6.80372 -2.55902,4.312 -1.98644,5.73034 1.69092,14.8764 3.62439,20.38036 0.0168,-0.2387 -0.0631,-0.4312 -0.23885,-0.57596 0.49326,2.10826 1.43834,4.72318 1.18626,6.8915 -0.24842,-0.61138 -0.65142,-1.0164 -0.94017,-1.5862 -0.0139,2.11288 1.25187,5.98444 2.52651,7.79394 0.94618,1.34288 2.56441,1.76946 2.10426,3.78686 0.2082,-0.2464 0.58598,-0.52822 0.73211,-0.693 0.40365,1.3013 0.57873,3.16624 2.26551,3.09848 0.21406,2.20374 0.54191,4.04866 0.55101,6.3063 -0.0878,-0.30184 -0.17741,-0.5852 -0.27011,-0.86394 -0.003,1.93424 0.33633,3.83768 0.23161,5.77962 -0.62263,-0.14938 -1.11588,0.10318 -1.71032,-0.21098 0.1155,1.96966 1.31454,3.88542 1.45222,5.88742 -0.34712,-0.4774 -0.93725,-0.82082 -1.25479,-1.44606 -0.0253,1.39216 0.11011,3.47424 0.26888,4.7971 0.19127,1.60006 1.309,3.1108 -0.49328,4.31816 0.7429,-0.0262 1.35767,0.29876 2.01278,0.36806 -1.68982,0.76076 -4.24578,0.93016 -5.63962,2.52868 4.90689,1.58928 1.16161,2.37622 -1.01841,4.0733 -3.40493,2.65342 -2.40331,3.78994 1.25958,3.89312 -1.01965,1.7633 -1.8172,2.91676 -1.78117,5.30684 0.0271,1.76484 0.26889,3.25248 -0.21837,5.1051 0.40609,-0.69454 1.41311,-1.54308 1.77162,-1.72942" /><path
       inkscape:connector-curvature="0"
       id="path48"
       style="fill:none;stroke:#171717;stroke-width:1.53999996;stroke-linecap:butt;stroke-linejoin:miter;stroke-miterlimit:10;stroke-dasharray:none;stroke-opacity:1"
       d="m 165.21863,451.39942 c 1.36737,0.71764 2.20713,2.10518 3.69061,2.7335 -0.0246,-0.12474 -0.0451,-0.24948 -0.0608,-0.37576 0.99251,-0.23408 2.07051,0.0939 2.91043,0.63294 0.0698,-0.21406 -0.15585,-0.1309 -0.10718,-0.37422 1.14545,-0.1848 2.34251,0.0185 3.388,0.539 -0.33802,-0.4081 -0.60567,-1.39678 -0.99067,-1.8711 1.64517,0.006 3.10156,1.00562 4.73365,0.72842 0.55471,-0.85778 0.1871,-0.64834 0.98776,-1.29514 -0.73691,-0.53438 -1.4798,-1.10572 -2.16555,-1.694 0.75737,-0.19404 7.88634,-1.7017 3.32363,-2.55486 1.57788,-0.55902 3.22613,-0.92092 4.76428,-1.617 -0.47877,-0.0462 -0.96127,-0.2079 -1.40154,-0.25564 1.69938,0.16478 3.50456,-0.38346 5.03981,-1.0703 -0.52039,-0.3388 -0.9354,-0.85932 -1.74328,-1.01486 -0.12213,-1.28744 0.80911,-2.1714 1.94238,-2.72734 -0.47107,-0.0231 -0.99792,-0.31878 -1.39555,-0.36036 1.10326,-1.14576 2.47478,-2.11134 3.23818,-3.4881 -0.56734,0.0816 -1.08834,-0.0878 -1.69339,0.10934 0.80063,-1.32902 2.04588,-2.87826 2.75999,-4.4429 -0.22378,-0.0154 -0.7135,-0.27104 -1.09432,-0.28028 -0.18049,-2.05436 1.13881,-3.57588 1.56046,-5.3669 -0.24054,0.1232 -0.52096,0.28644 -0.69775,0.37422 -0.2347,-2.14676 1.19411,-3.95626 1.20489,-6.01832 -0.29783,0.27412 -0.68992,0.46816 -0.98652,0.7161 -0.75323,-1.10418 -0.75508,-2.91984 -0.80912,-4.35512 -2.05976,-0.29568 -1.44315,-3.28944 -1.54,-4.8895 -0.29954,0.1694 -0.73752,0.21868 -1.06352,0.39578 -0.53007,-1.4476 0.33924,-3.06152 0.55515,-4.4891 -0.30615,-0.006 -0.64663,-0.0693 -0.95524,-0.0739 -0.3579,-2.23916 0.98235,-4.25502 1.21211,-6.35558 -0.4007,0.24332 -1.04966,0.2387 -1.46775,0.46662 -0.29308,-1.98968 0.66233,-4.15492 0.96787,-6.05682 -0.39407,0.25872 -0.93786,0.25102 -1.23077,0.39578 -0.0637,-1.4476 -0.27672,-3.234 0.19791,-4.53376 -0.675,0.12166 -1.55325,-0.16016 -2.24501,-0.0909 -0.18296,-1.44606 0.44211,-2.83668 0.63585,-4.2273 -0.15585,0.008 -0.47107,0.10472 -0.63832,0.12628 -0.30615,-1.12882 0.1366,-2.28382 0.96373,-2.98144 -3.31038,-0.35266 -0.75552,-3.30792 -0.93125,-4.94186 -0.24424,-2.28228 -1.96826,-1.46608 0.11073,-4.58766 -0.43321,0.0262 -1.01964,-0.1463 -1.44314,-0.0847 1.52075,-1.1011 2.62462,-2.92292 3.02703,-4.78478 -0.27797,0.1078 -0.92092,0.0832 -1.21152,0.18326 -0.43675,-2.8952 1.20967,-4.39362 3.01501,-6.07838 -0.25872,0.11088 -0.41026,0.2387 -0.7044,0.39578 0.30369,-1.64626 1.31193,-3.1108 2.44414,-4.31816 -0.29414,0.1001 -0.62262,0.154 -0.91676,0.2618 0.85115,-2.43936 2.57226,-4.74936 3.30314,-7.15638 -0.36159,0.22792 -0.90891,0.26642 -1.26449,0.42966 -0.10765,-2.02202 0.75552,-4.03326 1.694,-5.7981 -0.28398,0.14168 -0.8182,0.25256 -1.14592,0.4543 0.49142,-2.17448 3.12081,-5.01116 2.80665,-7.20874 -0.43428,0.24948 -0.92246,0.29106 -1.33533,0.57288 0.70701,-1.84646 1.62331,-3.75452 2.51343,-5.58866 -1.09032,0.31724 3.89928,-6.6913 3.62978,-7.9849 -3.58974,0.76538 -1.0472,-3.32948 0.0123,-4.62154 -0.32186,0.17864 -0.93478,0.2695 -1.22276,0.40964 -0.22022,-2.43628 2.464,-4.38284 2.49172,-6.82682 -2.0636,0.31108 -2.06514,-1.75714 -1.27358,-3.07384 -0.15092,-0.005 -0.44968,0.12474 -0.5005,0.12166 0.10164,-1.75868 1.07184,-3.44344 1.65088,-5.082 -0.4774,0.14476 -1.23816,-0.0631 -1.71864,0.0847 0.48048,-1.80334 2.08978,-3.5728 2.10518,-5.40848 -0.29414,0.20636 -1.37676,0.35882 -1.67244,0.55132 -0.35882,-1.4476 0.82082,-4.26734 1.15346,-5.67182 -0.36652,0.30338 -1.0857,0.43274 -1.463,0.70378 -0.0477,-1.23354 0.54824,-2.22068 1.155,-3.27096 -0.52514,0.19866 -1.37522,0.0185 -1.925,0.17864 0.12166,-0.57288 -0.0323,-1.3552 0.22946,-1.92346 -0.26026,0.57596 -0.97174,1.02256 -1.29206,1.47994 -0.70224,-0.90244 -1.8095,-4.95418 -3.15238,-2.10364 -0.0909,-0.4312 -0.63956,-1.15192 -0.74428,-1.75714 -0.27427,0.3696 -1.20613,0.88396 -1.49364,1.29976 -1.85339,-2.56872 -4.61585,-2.89674 -6.93124,-1.80642 -6.1e-4,-0.14784 0.003,-0.29414 0.0139,-0.44198 -0.0331,0.1001 -0.10225,0.14014 -0.20759,0.12166 -0.41333,-0.72688 -0.86917,-1.05336 -1.55802,-1.47686 0.12875,0.38038 0.0536,1.0934 0.17264,1.47378 -0.37545,-0.19096 -1.32764,-0.2079 -1.71864,-0.44044 0.0252,0.28952 -0.0482,0.65912 -0.0385,0.96096 -0.55163,-0.12012 -1.22969,0.0662 -1.79872,-0.20482 0.34773,0.27258 0.99622,1.22122 1.35412,1.48764 -0.46015,-0.10164 -1.10387,0.10626 -1.57003,0.0724 -0.0511,1.08262 0.30369,2.20374 0.42766,3.2186 -0.25749,-0.4466 -0.68515,-0.65142 -0.94325,-0.94094 -0.46862,2.09594 0.0524,3.32948 0.74413,5.31762 -0.0638,-0.67914 -0.26535,-1.30592 -0.46616,-1.92654 -0.22561,1.65858 0.48956,4.08716 0.85963,5.78116 -0.36098,-0.83622 -0.85008,-1.13036 -1.38,-1.72634 -0.21591,2.78124 -0.29183,5.66104 -0.34711,8.44998 -0.62447,-0.51436 -1.13329,-0.53592 -1.25002,-1.71248 0.0155,1.92346 0.006,3.84692 0.006,5.77038 0.0192,-0.70532 -0.0999,-1.31208 -0.19975,-1.93424 -0.15938,2.2022 -0.41748,4.92646 0.22624,7.05474 -0.0801,-0.15554 -0.21006,-0.3157 -0.29722,-0.47124 0.0426,1.20274 0.26163,4.16724 -0.29955,5.8597 -0.20882,-0.68222 -0.78324,-1.309 -1.04011,-1.97582 -1.3974,2.71656 0.10472,6.54654 -1.01363,9.49102 -0.21482,-0.8239 -0.61245,-1.55694 -0.73688,-2.41164 0.0571,1.9096 0.45352,4.81096 -0.22624,6.5296 -0.17987,-0.37576 -0.55577,-0.81158 -0.72671,-1.14884 -0.10164,2.08362 -0.20266,4.26118 -0.88488,6.26626 -0.4055,-0.0847 -1.07924,0.1463 -1.43652,0.0847 -0.14137,2.4255 0.27197,4.96034 -0.33804,7.33656 -0.46922,-0.38808 -0.7352,-0.0893 -1.18871,-0.93786 -0.0433,1.6016 -0.24486,3.23862 -0.62202,4.80172 -0.27611,-0.42196 -1.00946,-0.77308 -1.1881,-0.9779 0.0547,2.27766 0.44459,5.47316 -2.56564,4.86178 -0.10826,1.91114 0.0601,6.16924 -2.87487,3.57588 -0.67082,1.2936 0.16124,6.80372 -2.55902,4.312 -1.98644,5.73034 1.69092,14.8764 3.62439,20.38036 0.0168,-0.2387 -0.0631,-0.4312 -0.23885,-0.57596 0.49326,2.10826 1.43834,4.72318 1.18626,6.8915 -0.24842,-0.61138 -0.65142,-1.0164 -0.94017,-1.5862 -0.0139,2.11288 1.25187,5.98444 2.52651,7.79394 0.94618,1.34288 2.56441,1.76946 2.10426,3.78686 0.2082,-0.2464 0.58598,-0.52822 0.73211,-0.693 0.40365,1.3013 0.57873,3.16624 2.26551,3.09848 0.21406,2.20374 0.54191,4.04866 0.55101,6.3063 -0.0878,-0.30184 -0.17741,-0.5852 -0.27011,-0.86394 -0.003,1.93424 0.33633,3.83768 0.23161,5.77962 -0.62263,-0.14938 -1.11588,0.10318 -1.71032,-0.21098 0.1155,1.96966 1.31454,3.88542 1.45222,5.88742 -0.34712,-0.4774 -0.93725,-0.82082 -1.25479,-1.44606 -0.0253,1.39216 0.11011,3.47424 0.26888,4.7971 0.19127,1.60006 1.309,3.1108 -0.49328,4.31816 0.7429,-0.0262 1.35767,0.29876 2.01278,0.36806 -1.68982,0.76076 -4.24578,0.93016 -5.63962,2.52868 4.90689,1.58928 1.16161,2.37622 -1.01841,4.0733 -3.40493,2.65342 -2.40331,3.78994 1.25958,3.89312 -1.01965,1.7633 -1.8172,2.91676 -1.78117,5.30684 0.0271,1.76484 0.26889,3.25248 -0.21837,5.1051 0.40609,-0.69454 1.41311,-1.54308 1.77162,-1.72942" /></g></svg>