<?xml version="1.0" encoding="UTF-8" standalone="no"?>
<!-- Created with Inkscape (http://www.inkscape.org/) -->

<svg
   xmlns:dc="http://purl.org/dc/elements/1.1/"
   xmlns:cc="http://creativecommons.org/ns#"
   xmlns:rdf="http://www.w3.org/1999/02/22-rdf-syntax-ns#"
   xmlns:svg="http://www.w3.org/2000/svg"
   xmlns="http://www.w3.org/2000/svg"
   xmlns:sodipodi="http://sodipodi.sourceforge.net/DTD/sodipodi-0.dtd"
   xmlns:inkscape="http://www.inkscape.org/namespaces/inkscape"
   id="svg2"
   version="1.1"
   inkscape:version="0.91 r13725"
   width="308"
   height="672"
   xml:space="preserve"
   sodipodi:docname="sc-w-1-4-border.svg"><metadata
     id="metadata8"><rdf:RDF><cc:Work
         rdf:about=""><dc:format>image/svg+xml</dc:format><dc:type
           rdf:resource="http://purl.org/dc/dcmitype/StillImage" /><dc:title /></cc:Work></rdf:RDF></metadata><defs
     id="defs6" /><sodipodi:namedview
     pagecolor="#ffffff"
     bordercolor="#666666"
     borderopacity="1"
     objecttolerance="10"
     gridtolerance="10"
     guidetolerance="10"
     inkscape:pageopacity="0"
     inkscape:pageshadow="2"
     inkscape:window-width="1920"
     inkscape:window-height="1015"
     id="namedview4"
     showgrid="false"
     inkscape:zoom="3.0517304"
     inkscape:cx="142.65838"
     inkscape:cy="465.39109"
     inkscape:window-x="0"
     inkscape:window-y="0"
     inkscape:window-maximized="1"
     inkscape:current-layer="g10" /><g
     id="g10"
     inkscape:groupmode="layer"
     inkscape:label="ink_ext_XXXXXX"
     transform="matrix(1.25,0,0,-1.25,0,672.00001)"><path
       id="path8"
       d="m 120.32853,442.1917 c 0,-0.8649 -0.17364,-1.71585 -0.94052,-2.1483 -0.50643,-0.279 -1.08521,-0.3069 -1.62058,-0.0837 -0.27492,0.1116 -0.53537,0.279 -0.76688,0.48825 -0.10128,-0.3627 -0.20257,-0.71145 -0.28939,-1.0602 -0.36173,-1.3113 -0.63665,-2.3436 -1.59163,-2.52495 -0.6656,-0.1395 -1.30225,0.26505 -1.99679,0.99045 -0.28939,-0.85095 -0.49196,-1.82745 -0.68006,-2.72025 -0.0724,-0.40455 -0.15917,-0.7812 -0.24598,-1.1439 l -0.47749,-2.09249 -0.4775,1.04625 c -0.0868,-1.35315 -0.36173,-2.27385 -1.14308,-2.4831 -0.26045,-0.0697 -0.49196,-0.0419 -0.72347,0.0419 0.0145,-0.57195 0.0145,-1.1718 -0.0434,-1.77165 l -0.13023,-1.1718 -1.01286,0.6696 c -0.10128,0.0697 -0.26045,0.12555 -0.44855,0.1953 -0.0145,0 -0.0434,0.0139 -0.0579,0.0139 0.0145,-0.8091 0,-1.63215 -0.0579,-2.44125 l -0.14469,-2.1483 -1.08521,1.674 c -0.0724,-0.279 -0.15916,-0.558 -0.24598,-0.85095 -0.39068,-1.35315 -0.82476,-2.74815 -0.91158,-4.03155 -0.0145,-0.0697 -0.0145,-0.1395 -0.0145,-0.20925 l -0.13022,-2.52494 -1.2299,2.23199 c -0.0868,0.1395 -0.18811,0.279 -0.28939,0.43245 -0.0145,0.0419 -0.0434,0.0697 -0.0579,0.0976 -0.13022,-0.43245 -0.23151,-0.8928 -0.3328,-1.38105 -0.21704,-0.9765 -0.43408,-1.98089 -0.96945,-2.85974 l -0.63666,-1.01835 -0.75241,1.2834 c -0.0579,0.0837 -0.10128,0.15345 -0.14469,0.23715 -0.0579,-0.18135 -0.10129,-0.34875 -0.15916,-0.5301 -0.18811,-0.68355 -0.39068,-1.38105 -0.665599,-2.02275 l -0.607717,-1.4229 -0.709003,1.3671 c -0.04341,0.0697 -0.231511,0.279 -0.361736,0.40455 -0.02894,0.0419 -0.05788,0.0697 -0.08682,0.1116 -0.202573,-0.40455 -0.361737,-0.8649 -0.5209,-1.3392 -0.491962,-1.4229 -1.099678,-3.1806 -3.125401,-3.47355 -0.535369,-0.8091 -1.30225,-1.46475 -1.953375,-1.96695 l -1.056269,-0.8091 c -0.926045,-1.1997 -1.909967,-2.3715 -2.937298,-3.33405 l -0.911575,-0.85095 c -0.231511,-0.39059 -0.434083,-0.80909 -0.549838,-1.22759 0.07235,0 0.130225,-0.014 0.188102,-0.014 0.27492,-0.0419 0.578778,-0.0697 0.752411,-0.0419 l 2.054662,0.4185 -1.345659,-1.54845 c -0.159164,-0.18135 -0.347266,-0.37665 -0.535369,-0.5859 -0.607717,-0.6417 -1.374597,-1.46475 -1.606109,-2.2041 0.05788,0 0.115756,0 0.159164,-0.014 l 1.012861,-0.0419 -0.361736,-0.90675 c -0.463022,-1.1439 -1.331189,-2.05065 -2.184886,-2.94345 -0.694533,-0.73935 -1.374597,-1.4508 -1.765272,-2.24595 0.289389,0.0837 0.578778,0.23715 0.839228,0.43245 l 3.241155,2.49705 -2.170416,-3.4038 c -0.376206,-0.5859 -0.839228,-1.15785 -1.30225,-1.7019 -0.564309,-0.71145 -1.157556,-1.4229 -1.533762,-2.1483 l 0.853698,0.15345 -0.477492,-1.17179 c -0.318328,-0.7812 -0.824758,-1.46475 -1.30225,-2.1204 -0.506431,-0.68355 -0.983922,-1.3392 -1.200964,-2.0367 0.274919,0.0976 0.506431,0.279 0.680064,0.51615 l 1.200964,-0.7812 c -0.202572,-0.32085 -0.434084,-0.6417 -0.665595,-0.96255 -0.795819,-1.116 -1.5627,-2.19015 -1.635047,-3.348 0.26045,0.18135 0.5209,0.4743 0.839228,0.837 0.130225,0.15345 0.24598,0.29295 0.376205,0.4185 l 1.143087,-0.85095 c -0.08682,-0.1116 -0.173634,-0.23715 -0.26045,-0.3627 0.231511,0.23715 0.448552,0.51615 0.651125,0.79515 l 1.982314,2.55285 -0.694534,-3.1248 c -0.24598,-1.07415 -0.115755,-2.32965 0.101286,-2.7342 0.173634,0.12555 0.578778,0.48825 1.215434,1.60425 l 1.504822,2.5947 -0.144694,-2.97135 c -0.01447,-0.37665 0.02894,-0.5859 0.26045,-0.8091 0.969452,0.96255 1.924436,1.74375 2.86495,2.2878 l 1.707394,1.01835 -0.636655,-1.82745 c -0.245981,-0.6975 -0.173634,-0.90675 -0.159164,-0.90675 0.578777,-0.18135 3.458197,1.5066 4.442119,2.4273 0.07235,0.0837 0.144695,0.15345 0.231511,0.23715 l 1.0418,-0.9765 c -0.04341,-0.0419 -0.08682,-0.0976 -0.159163,-0.15345 -0.231512,-0.2511 -0.390675,-0.59985 -0.5209,-0.9765 0.622186,-0.18135 1.28778,0.3348 2.358519,1.40895 l 2.054661,2.0367 -0.651125,-2.511 c -0.04341,-0.18135 0,-0.3348 0.08682,-0.5859 0.897108,0.3069 1.881028,0.9765 2.922828,1.99485 l 1.0418,-0.96255 c -0.39068,-0.40455 -0.5209,-0.65565 -0.56431,-0.7812 0.47749,-0.0976 1.95338,0.279 2.67685,1.3392 l 1.25884,-0.6975 c -0.0434,-0.0837 -0.0724,-0.15345 -0.0868,-0.1953 0.17364,-0.0139 0.53537,0 1.02733,0.18135 0.75242,0.279 1.34566,0.76725 1.5193,1.24155 l 1.02733,2.72025 0.34726,-2.66445 c 0.27492,0.1395 0.53537,0.3069 0.68007,0.48825 l 1.08521,1.2276 0.1881,-1.60425 c 0.0434,-0.279 0.17363,-0.32085 0.23151,-0.3348 0.21704,-0.0697 0.50643,-0.0139 0.75241,0.1116 -0.0434,0.1395 -0.10129,0.26505 -0.13022,0.3906 -0.40515,1.3671 -0.76688,2.72025 -1.12862,4.08735 -2.67685,10.90889 -5.42604,25.98883 -7.17685,37.03722 l 0.96946,-4.04549 3.92122,-16.30754 c 1.30225,-5.42655 2.69131,-10.8531 4.18167,-16.20989 0.3762,-1.3392 0.76688,-2.6784 1.20096,-3.9897 0.21704,-0.71145 0.47749,-1.40895 0.73794,-2.10645 -0.72347,-0.0558 -1.43247,-0.1395 -2.12701,-0.26505 -0.0145,0.0279 -0.0145,0.0558 -0.0289,0.0837 -0.5209,-0.20925 -1.11414,-0.279 -1.62057,-0.1116 -0.30386,0.0976 -0.56431,0.2511 -0.76688,0.4743 -0.28939,-0.1674 -0.59325,-0.32085 -0.86817,-0.4464 -0.13023,-0.0558 -0.26045,-0.1116 -0.36174,-0.1674 l -1.09967,-0.57195 0,0.1674 c -0.62219,-0.40455 -1.3746,-0.68355 -2.02573,-0.76725 -0.709,-0.0837 -1.28778,0.0558 -1.63504,0.3906 -0.92605,-0.62775 -2.0402,-0.9207 -2.85048,-0.837 -0.53537,0.0558 -0.95499,0.29295 -1.1865,0.6417 -0.8537,-0.57195 -1.707394,-0.9207 -2.517683,-1.0323 l -0.78135,-0.1116 -0.04341,0.7533 c 0,0.0419 -0.02894,0.1116 -0.04341,0.18135 -1.0418,-0.8928 -2.416398,-1.674 -3.892281,-0.51615 l -0.332797,0.2511 c -1.446945,-0.87885 -3.197748,-1.6461 -4.1672,-1.10205 -0.332798,0.18135 -0.53537,0.46035 -0.636656,0.8091 -0.578778,-0.46035 -1.172025,-1.01835 -1.765272,-1.6461 l -0.448553,-0.4743 -0.5209,0.3906 c -0.318328,0.2232 -0.607717,0.4464 -0.824758,0.7254 -0.607717,-0.7533 -1.331189,-1.29735 -2.127009,-1.0044 -0.78135,0.279 -1.085208,1.26945 -1.172025,2.27385 -0.448553,-0.34875 -0.983922,-0.62775 -1.620578,-0.6975 l -0.752411,-0.0837 -0.04341,0.73935 c 0,0.0419 0,0.0697 0,0.1116 -0.245981,-0.0697 -0.506431,-0.0976 -0.79582,-0.0697 l -0.549839,0.0419 -0.101286,0.5301 c -0.289389,1.54845 0.332798,2.8737 1.099678,4.05945 -0.07235,0.014 -0.144694,0.014 -0.217042,0.014 l -0.636655,0.0697 -0.01447,0.62775 c 0,1.46475 0.810289,2.5668 1.591639,3.64095 0.159164,0.2232 0.318328,0.43245 0.477492,0.6417 l -0.318328,-0.0418 0.173634,0.96255 c 0.231511,1.33919 1.128616,2.48309 2.025722,3.58514 -0.130225,0 -0.27492,0 -0.419614,0.0139 l -0.78135,0.0697 0.130225,0.7533 c 0.303858,1.5903 1.403536,2.74815 2.459806,3.86415 0.5209,0.54405 1.02733,1.0881 1.418005,1.6461 l -0.405144,0.0419 -0.07235,0.54405 c -0.173634,1.2555 0.694533,2.41335 1.54823,3.348 -0.101286,0.014 -0.188103,0.014 -0.26045,0 l -0.76688,-0.0837 -0.04341,0.73935 c -0.04341,0.6975 0.173634,1.40895 0.491961,2.05064 l -1.085208,-0.80909 0.578778,2.02274 c 0.24598,0.85095 0.723472,1.5903 1.186494,2.3157 0.115756,0.18135 0.231511,0.34875 0.332798,0.5301 -0.607717,-0.18135 -1.229903,-0.34875 -1.909967,-0.3906 l -0.969453,-0.0697 0.217042,0.90675 c 0.159164,0.71145 0.50643,1.35315 0.839227,1.96695 0.04341,0.0558 0.07235,0.12555 0.101287,0.18135 l -3.689709,-2.4552 3.13987,3.75255 c 0.911575,1.0881 1.794211,2.49705 2.474275,3.9897 -0.159164,-0.0419 -0.303859,-0.0837 -0.419614,-0.1395 l -1.143086,-0.5859 0.07235,1.24155 c 0.07235,1.1439 0.998392,2.27385 1.881028,3.37589 0.491961,0.6138 1.316719,1.63215 1.244372,1.96695 0,0.0558 -0.08682,0.18135 -0.506431,0.4464 -0.159163,0.1116 -0.376205,0.23715 -0.448552,0.54405 -0.01447,0.12555 -0.05788,0.15345 -0.173634,0.279 -0.477491,0.4743 -0.680064,0.96255 -0.318327,2.05065 0.202572,0.59985 0.810288,1.1718 1.403536,1.7298 0.01447,0.014 0.02894,0.0279 0.04341,0.0419 l -0.217042,0.18135 0.448553,0.51615 c 0.26045,0.3069 0.506431,0.6138 0.752411,0.9207 0.361736,0.46035 0.737942,0.93465 1.157556,1.395 -0.115756,0.0697 -0.217042,0.1395 -0.332797,0.1953 -0.144695,0.0976 -0.289389,0.1953 -0.477492,0.26505 l -0.636656,0.26505 0.231512,0.62775 c 0.50643,1.3113 1.721864,2.0925 2.807072,2.77605 0.159164,0.1116 0.332797,0.2232 0.491961,0.32085 -0.795819,0.47429 -1.663986,1.06019 -2.445336,1.78559 l -0.766881,0.7254 0.983922,0.4185 c 0.202573,0.0837 0.419614,0.20925 0.651126,0.3348 0,0.0139 0.01447,0.0139 0.01447,0.0139 -1.085208,0.59985 -2.040192,1.3671 -2.430867,2.69235 l -0.274919,0.9207 0.983922,-0.0279 c 0.723472,-0.0279 1.432475,0.0419 2.170417,0.1116 0.173633,0.0279 0.347266,0.0419 0.5209,0.0558 -0.839228,0.90675 -1.432475,2.0088 -1.678456,3.1806 l -0.173633,0.76725 0.824758,0.0697 c 0.78135,0.0558 1.591639,0.1116 2.35852,0 l 0,0.014 c -0.231511,0.6417 -0.463023,1.32525 -0.622186,2.02275 l -0.202573,0.9207 0.969453,-0.0697 c 0.607717,-0.0558 1.215434,-0.1674 1.808681,-0.26505 0.752411,-0.1395 1.475883,-0.26505 2.184886,-0.26505 -0.115756,0.32085 -0.347267,0.62775 -0.607717,0.96255 -0.434083,0.6138 -0.940514,1.29735 -0.998391,2.20409 l -0.04341,0.65565 0.680064,0.0837 c 1.099678,0.1395 2.213825,0.0558 3.27009,-0.20925 -0.0145,0.15345 -0.0434,0.3069 -0.0579,0.46035 -0.0434,0.40455 -0.0868,0.8091 -0.0868,1.21365 l -0.0145,0.4185 0.37621,0.1953 c 0.60771,0.3348 1.31672,0.40455 2.02572,0.2511 0.0868,0.65565 0.40514,1.04625 0.69453,1.2555 0.54984,0.40455 1.34566,0.48825 2.28617,0.23715 0.0145,0.8928 0.23152,1.953 1.01287,2.35755 0.28938,0.15345 0.72347,0.23715 1.25884,0.014 0.11575,0.3906 0.23151,0.79515 0.34726,1.21365 0.17364,0.65565 0.34727,1.32525 0.56431,1.93905 l 0.37621,1.0602 0.82476,-0.79515 c 0.31832,-0.3069 0.709,-0.62775 1.11414,-0.93465 0.9984,1.77165 1.7074,2.52495 3.83441,2.77605 0.68006,0.0697 0.98392,-0.5301 1.14308,-0.85095 l 0,-0.0139 c 0.1447,0.0418 0.31833,0.12555 0.49196,0.20925 0.40515,0.1953 0.92605,0.4464 1.57717,0.4464 l 0.5209,0 0.15917,-0.4743 c 0.0289,-0.0418 0.0434,-0.0976 0.0723,-0.15345 0.5209,0.6417 1.14309,1.1439 1.80868,1.43685 l 0.89711,0.3906 0.11576,-0.93465 c 0.0434,-0.3069 0.14469,-0.6138 0.24598,-0.93465 0.0434,-0.1116 0.0723,-0.2232 0.11575,-0.32085 0.24598,0.0976 0.50643,0.23715 0.76688,0.3627 0.72348,0.37665 1.53376,0.7812 2.54663,0.8091 l 1.34565,0.0139 -0.72347,-1.0881 c -0.0289,-0.0558 -0.0724,-0.1674 -0.10128,-0.29295 0.709,0.0139 1.38906,-0.0279 2.02572,-0.20925 l 0.65112,-0.18135 -0.15916,-0.6417 c -0.24598,-1.0323 -0.99839,-1.88325 -2.09807,-2.3994 0.0724,-0.0697 0.13022,-0.1395 0.20257,-0.2232 0.50643,-0.57195 1.02733,-1.1718 1.36013,-1.8414 l 0.59325,-1.2276 -1.3746,0.23715 c -0.0724,0.014 -0.21704,0 -0.36174,-0.0139 0.0289,-0.15345 0.0579,-0.3069 0.0724,-0.46035 0.39068,-2.24595 0.59325,-3.8781 -0.43408,-4.42215 -0.36174,-0.18135 -0.73794,-0.15345 -1.09968,-0.0279 0.0724,-0.83699 0.13022,-1.70189 0.0579,-2.58074 l -0.10129,-1.07415 -0.98392,0.5301 c -0.1447,0.0697 -0.26045,0.0976 -0.39068,0.1395 -0.0868,0.0279 -0.15916,0.0418 -0.24598,0.0697 -0.0289,-0.1953 -0.0579,-0.3906 -0.0868,-0.59985 -0.31833,-1.91115 -0.62219,-3.72465 -1.88103,-4.03155 -0.43409,-0.0976 -0.8537,0.014 -1.2299,0.23715 z m -0.41962,18.02339 c 0.27492,-0.26505 0.36174,-0.5301 0.27492,-0.79515 -0.0579,-0.20925 -0.23151,-0.4743 -0.69453,-0.57195 l -0.49196,-0.1116 -0.27492,0.40455 c -0.13023,0.1953 -0.27492,0.3627 -0.41962,0.54405 -0.23151,0.279 -0.47749,0.5859 -0.69453,0.9486 -0.15916,-0.0558 -0.31833,-0.1395 -0.49196,-0.2232 -0.41962,-0.20925 -0.88264,-0.4185 -1.46142,-0.40455 -0.57877,0.0279 -0.82475,0.51615 -0.98392,0.85095 -0.0145,0 -0.0145,0.014 -0.0145,0.014 -1.33119,-0.1953 -1.66398,-0.6417 -2.77813,-2.69235 l -0.37621,-0.6975 -0.66559,0.43245 c -0.36174,0.23715 -0.73794,0.51615 -1.09968,0.8091 -0.0868,-0.26505 -0.14469,-0.5301 -0.21704,-0.79515 -0.20257,-0.7533 -0.40514,-1.52055 -0.68006,-2.232 l -0.39068,-0.99045 -0.79582,0.73935 c -0.34727,0.3348 -0.5209,0.34875 -0.5209,0.34875 -0.11575,-0.1395 -0.30386,-1.1718 -0.13022,-2.0367 l 0.27492,-1.3671 -1.30225,0.6138 c -0.96946,0.46035 -1.66399,0.5022 -1.88103,0.3348 -0.13023,-0.0976 -0.23151,-0.4464 -0.10129,-1.116 l 0.34727,-1.7019 -1.46142,0.99045 c -0.41961,0.279 -0.8971,0.40455 -1.28778,0.3348 0.0145,-0.1953 0.0434,-0.3906 0.0724,-0.57195 0.0579,-0.57195 0.13023,-1.15785 0.0289,-1.71585 l -0.14469,-0.86489 -0.83923,0.3348 c -0.83923,0.33479 -1.765274,0.48824 -2.691319,0.50219 0.144695,-0.26504 0.332798,-0.53009 0.53537,-0.80909 0.491961,-0.65565 1.0418,-1.40895 0.969453,-2.4552 l -0.04341,-0.54405 -0.549839,-0.0976 c -1.186494,-0.1953 -2.315111,0.014 -3.414789,0.20925 -0.202572,0.0419 -0.405144,0.0837 -0.607716,0.1116 0.08682,-0.29295 0.188102,-0.5859 0.303858,-0.8928 0.144694,-0.4464 0.303858,-0.87885 0.434083,-1.32525 l 0.477492,-1.6182 -1.519292,0.8091 c -0.607716,0.3348 -1.360128,0.3627 -2.127008,0.3348 0.434083,-1.07415 1.244372,-2.05065 2.271703,-2.72025 l 2.0836,-1.35315 -2.517684,0.0837 c -0.723472,0.0139 -1.432475,-0.0558 -2.184886,-0.12555 -0.376205,-0.0418 -0.76688,-0.0837 -1.172025,-0.1116 0.564309,-0.68355 1.504822,-1.116 2.474275,-1.5624 l 1.953375,-0.8928 -2.025722,-0.46035 c -0.303858,-0.0558 -0.622186,-0.2232 -0.954983,-0.40455 0.795819,-0.6138 1.649516,-1.0881 2.34405,-1.46475 l 0.882636,-0.46034 -0.752411,-0.65565 c -0.434084,-0.3906 -0.969453,-0.73935 -1.475884,-1.0602 -0.76688,-0.5022 -1.519291,-0.9765 -1.953375,-1.5903 0.01447,0 0.01447,-0.0139 0.02894,-0.0139 0.347267,-0.2232 0.506431,-0.32085 0.868167,-0.279 l 2.358519,0.32085 -1.779741,-1.52055 c -0.723473,-0.62775 -1.30225,-1.35315 -1.924437,-2.13435 -0.01447,-0.0139 -0.02894,-0.0279 -0.02894,-0.0418 l 0.549839,-0.0279 -0.969453,-1.0044 c -0.173634,-0.20925 -0.434084,-0.46035 -0.709003,-0.7254 -0.376206,-0.3627 -0.940514,-0.8928 -1.027331,-1.1718 -0.144694,-0.43245 -0.115755,-0.558 -0.115755,-0.558 0.202572,-0.20925 0.419614,-0.43245 0.564308,-0.7812 0.361736,-0.23715 0.897106,-0.65565 1.027331,-1.26945 0.202572,-0.96255 -0.593248,-1.953 -1.519292,-3.09689 -0.405145,-0.5022 -0.839228,-1.0323 -1.143086,-1.5345 0.202572,0.0419 0.390675,0.0977 0.535369,0.15345 l 1.548231,0.65565 -0.578778,-1.5345 c -0.419614,-1.10205 -0.926044,-2.16225 -1.504822,-3.1527 l -0.217042,-1.4787 c -0.130225,-0.837 -0.535369,-1.5624 -0.911575,-2.27385 -0.101286,-0.18135 -0.202572,-0.3627 -0.289389,-0.54405 0.217042,0.0558 0.448553,0.12555 0.680064,0.1953 0.448553,0.1395 0.897106,0.279 1.345658,0.3627 l 1.200964,0.23715 -0.361736,-1.12995 c -0.173633,-0.48825 -0.405144,-0.9486 -0.665594,-1.38105 l 0.5209,-0.32085 c 0.911575,1.0602 1.779742,2.21805 2.633439,3.36195 l 1.852089,2.4552 -0.26045,-1.5624 c 0.159164,0.2232 0.274919,0.4464 0.361736,0.65565 0.01447,0.279 0.04341,0.558 0.173633,0.90675 l 1.374598,3.7386 0.02894,-3.97575 c 0,-0.0697 0,-0.15345 -0.01447,-0.2232 0.491961,0.4185 0.766881,1.1718 1.114147,2.16225 0.318328,0.9207 0.651125,1.88325 1.331189,2.58075 l 0.752411,0.79515 0.434084,-0.99045 c 0.04341,-0.0837 0.115755,-0.18135 0.202572,-0.29295 0.07235,0.2511 0.144694,0.48825 0.217042,0.7254 0.231511,0.82305 0.477491,1.66004 0.839227,2.37149 l 0.911574,1.77165 0.44855,-1.93905 c 0.0289,-0.1674 0.10129,-0.34875 0.17364,-0.51615 0.0868,0.3627 0.17363,0.73935 0.26045,1.116 0.23151,1.10205 0.47749,2.232 1.15755,3.1527 l 0.94052,1.24155 0.27492,-1.1439 c 0.17363,0.7533 0.40514,1.5066 0.62218,2.24595 0.20257,0.6975 0.41962,1.38105 0.56431,2.05065 l 0.40515,1.66005 0.50643,-0.79515 c 0,0.4743 0,0.96255 -0.0145,1.43685 l -0.0289,2.13435 1.28778,-1.4229 c 0.13022,-0.1395 0.28939,-0.2232 0.46302,-0.29295 0,0.9486 -0.10129,1.85535 -0.1881,2.52495 l -0.41962,3.25034 1.76528,-2.80394 c 0.24598,-0.3906 0.43408,-0.6417 0.5643,-0.7812 0.17364,0.68355 0.18811,2.14829 0.18811,2.69234 0,0.4464 0,0.79515 0.0289,0.9765 l 0.36173,2.8179 0.92605,-2.41335 c 0.26045,1.1997 0.57877,2.44125 1.11414,3.4317 l 0.53537,0.96255 0.68007,-0.87885 c 0.75241,-0.96255 1.15755,-1.2555 1.31672,-1.35315 0.15916,0.26505 0.34726,0.96255 0.49196,1.4787 0.21704,0.8091 0.44855,1.71585 0.86816,2.58075 l 0.83923,1.7298 0.5209,-1.8414 c 0.0868,-0.34875 0.43409,-0.82305 0.78135,-0.96255 0.13023,-0.0558 0.23151,-0.0558 0.34727,0.0139 0.31833,0.18135 0.1881,1.4508 0.13022,1.99485 -0.0145,0.26505 -0.0434,0.51615 -0.0579,0.7254 l -0.0724,2.21805 1.3746,-1.7856 c 0.82475,-1.0602 1.18649,-1.10205 1.18649,-1.10205 0.34727,0.20925 0.63666,2.02275 0.78135,2.9016 0.10129,0.68355 0.21704,1.32525 0.36174,1.85535 l 0.43408,1.54844 0.88264,-1.36709 c 0.0579,-0.0976 0.10128,-0.1674 0.14469,-0.20925 -0.0145,0.5301 -0.0579,1.0881 -0.10128,1.61819 -0.0434,0.40455 -0.0724,0.8091 -0.0868,1.21365 l -0.0868,1.71585 1.30225,-1.1718 c 0.34727,-0.32085 0.57878,-0.4743 0.72347,-0.54405 0.11576,0.6138 -0.15916,2.21805 -0.27492,2.85975 -0.11575,0.68355 -0.1881,1.0881 -0.17363,1.35315 l 0.0145,0.7533 0.69453,-0.0697 c -0.15916,0.1953 -0.33279,0.3906 -0.5209,0.59985 -0.30385,0.3348 -0.60771,0.68355 -0.86816,1.04625 l -0.60772,0.837 1.02733,0.23715 c 0.40515,0.0976 1.2299,0.3627 1.72187,1.01835 -0.54984,0.0418 -1.15756,0 -1.79422,-0.0419 l -1.53376,-0.1116 0.89711,1.21365 c 0,0.0139 0.0145,0.0279 0.0289,0.0418 -0.26045,-0.1116 -0.50643,-0.23715 -0.76688,-0.3627 -0.56431,-0.29295 -1.15756,-0.5859 -1.83762,-0.71145 l -0.73794,-0.15345 -0.11576,0.7254 c -0.0579,0.32085 -0.14469,0.6138 -0.24598,0.90675 -0.0145,0.0419 -0.0289,0.0837 -0.0434,0.12555 -0.27492,-0.23715 -0.54984,-0.5301 -0.78135,-0.8649 0.0724,-0.0976 0.1447,-0.1953 0.21704,-0.29295 l 0.10129,0 c -0.0145,0.0976 -0.0434,0.1953 -0.0724,0.23715 z"
       inkscape:connector-curvature="0" /><path
       id="path16-5"
       d="m 150.15005,375.51074 c 0.41962,0.0697 0.8537,0.0976 1.28778,0.1395 0.88264,0.0558 1.72187,0.12555 2.34405,0.5022 l 1.3746,0.837 -0.27492,-1.54845 c -0.0289,-0.1116 0.0145,-0.34875 0.0434,-0.558 0.0145,-0.0419 0.0145,-0.0837 0.0289,-0.12555 0.85369,0.1953 1.64951,0.71145 2.56109,1.63215 l 2.38746,2.38545 -1.1865,-3.11085 c -0.0289,-0.1116 -0.0434,-0.23715 -0.0579,-0.37665 0.27491,0.0837 0.5643,0.20925 0.85369,0.34875 0.44856,0.18135 0.89711,0.3906 1.3746,0.51615 l 0.76688,0.1953 0.14469,-0.7533 c 0.0724,-0.48825 0.21705,-0.5859 0.21705,-0.5859 0.11575,-0.0139 0.54984,0.0558 1.89549,1.35315 l 0.83923,0.79515 0.46302,-0.7812 c 0.20258,-0.34875 0.39068,-0.71145 0.56431,-1.07415 0.34727,-0.68355 0.6656,-1.32525 1.15756,-1.8135 0.17363,0.23715 0.30386,0.5301 0.44855,0.82305 0.20257,0.4464 0.41961,0.8928 0.75241,1.2834 l 0.82476,0.99045 0.41961,-1.1997 c 0.27492,-0.7533 0.53537,-1.24155 0.72348,-1.52055 0.0723,0.18135 0.14469,0.46035 0.21704,0.87885 l 0.34726,1.88325 0.9984,-1.66005 c 0.0868,-0.15345 0.1881,-0.32085 0.27492,-0.4743 0.0145,0.15345 0.0434,0.32085 0.0868,0.4743 l 0.24598,1.0044 0.5209,-0.34875 c 0,0.12555 0,0.26505 0,0.3906 0,0.5859 0,1.15785 0.0579,1.7298 l 0.0868,1.10205 c -0.13023,0.4464 -0.27492,0.9207 -0.41962,1.38105 -0.26045,0.7812 -0.50643,1.5624 -0.69453,2.2878 l -0.31833,1.21365 0.89711,-0.26505 c -0.34727,1.1439 -0.43409,2.2878 -0.27492,3.348 l 0.0579,0.4464 c -0.1447,0.33479 -0.30386,0.68354 -0.4775,1.03229 -0.54983,1.15785 -1.11414,2.32965 -0.98392,3.55725 l 0.11576,1.0881 0.49196,-0.29295 c -0.1447,0.79515 -0.28939,1.60425 -0.1881,2.4552 l 0.10128,0.7812 0.3328,-0.0837 c 0,1.10205 0.0434,2.21805 0.30386,3.3201 l 0.14469,0.6696 0.81029,-0.15345 c 0.37621,1.01835 0.53537,2.19015 0.41962,3.22244 l -0.30386,2.9295 1.51929,-2.30175 c 0.15916,0.3906 0.24598,0.85095 0.3328,1.3671 0.17363,1.07415 0.40514,2.38545 1.67845,3.1248 -0.21704,0.62775 -0.43408,1.3671 -0.63665,2.1483 -0.20258,0.7254 -0.43409,1.54845 -0.69454,2.2599 l -0.0579,-0.1116 -0.5643,1.3671 c -0.0289,0.0558 -0.1447,0.2232 -0.24598,0.3627 l -0.1447,0.2232 -2.90836,4.56164 3.53055,-3.23639 c -0.0434,0.5859 -0.20257,1.24155 -0.34727,1.88325 -0.20257,0.85095 -0.40514,1.72979 -0.39067,2.52494 l 0.0289,0.6975 0.40515,-0.014 c -0.43408,1.71585 -0.69453,3.41775 -0.73794,4.70115 l -0.0145,0.9207 0.91157,-0.2232 c 0.0579,-0.0139 0.10129,-0.0139 0.15917,-0.0279 -0.0289,1.57635 -0.43409,3.44565 -1.49036,4.7151 l -1.83762,2.1483 1.96785,-0.7812 c -0.31833,0.68355 -0.63666,1.395 -0.81029,2.09249 l -0.21704,0.837 0.8971,0.0279 c 0.53537,0.0139 0.79582,0.12555 0.8537,0.23715 0.27492,0.4743 -0.73794,2.10645 -1.11415,2.72025 l -0.63665,1.0323 0.76688,0.1395 c -0.0434,0.3069 -0.10129,0.62775 -0.15916,0.9486 -0.0579,0.37665 -0.11576,0.7533 -0.17364,1.10205 l -0.10128,0.73935 0.78135,0.0419 c 0.73794,0.0419 1.05627,0.20925 1.09967,0.3069 0.10129,0.279 -0.39067,1.1997 -1.54823,2.19015 l -0.8971,0.7533 1.09968,0.4185 c 0.20257,0.0697 0.40514,0.1395 0.60771,0.20925 0.50643,0.18135 0.91158,0.32085 1.17203,0.5022 -0.8537,0.4743 -1.5627,1.12995 -2.2283,1.7298 l -1.27331,1.15785 1.43248,0.23714 c 0.26045,0.0419 0.57877,0.23715 0.8971,0.43245 0.0434,0.0279 0.10129,0.0697 0.15917,0.0977 -0.21705,0.18135 -0.65113,0.23715 -1.5193,0.26505 -0.5643,0.014 -1.12861,0.0279 -1.66398,0.18135 l -1.02733,0.29295 0.66559,0.8091 c 0.0289,0.0279 0.0724,0.12555 0.13023,0.20925 -0.92605,0.0558 -1.92444,-0.15345 -2.87942,-0.3906 l -2.0836,-0.48825 1.34566,1.60425 c 0.43408,0.51615 0.41961,0.71145 0.41961,0.7254 -0.17363,0.15345 -0.98392,0.34875 -3.87781,0.0697 -0.44855,-0.0418 -0.79582,-0.0697 -0.98392,-0.0697 l -1.95338,0.0279 1.73633,1.395 c 0.18811,0.1395 0.36174,0.279 0.5209,0.4185 -0.81028,-0.2232 -1.62057,-0.6138 -2.41639,-1.0044 -0.60772,-0.29295 -1.24438,-0.59985 -1.86656,-0.82305 l -0.3328,0.8649 -0.88263,-0.9765 -0.39068,0.34875 c -0.3328,0.29295 -0.66559,0.57195 -1.01286,0.8091 -0.0289,-1.5903 0.73794,-4.45005 1.3746,-5.03594 l 0.85369,-0.8091 -1.12861,-0.3627 c -1.12862,-0.3627 -2.4164,-1.5903 -3.18328,-2.88765 l 2.7926,1.4787 -2.38746,-2.79 c -1.31672,-1.5345 -3.21221,-4.4919 -3.11093,-5.2452 0.0434,0.0279 0.27492,0.0279 0.70901,0.1674 l 1.2299,0.37665 -0.30386,-1.1997 c -0.17363,-0.73935 -0.53537,-1.395 -0.89711,-2.02275 -0.39067,-0.71145 -0.73794,-1.3392 -0.81028,-1.99485 0.0579,0 0.10128,0 0.15916,0 0.37621,-0.014 0.69453,-0.0279 0.96945,0.0837 l 1.24437,0.51615 -0.23151,-1.28339 c -0.0868,-0.3906 -0.41961,-0.9207 -1.07074,-1.8972 -0.50643,-0.7812 -1.69292,-2.5668 -1.66398,-3.13875 0.0434,0.014 0.1881,0.014 0.44855,0.0558 l 1.30225,0.2232 -0.50643,-1.1718 c -0.24598,-0.5859 -0.53537,-1.116 -0.82476,-1.63215 -0.53537,-0.9486 -1.01286,-1.79955 -1.05627,-2.80395 0.0579,0.0139 0.10129,0.0279 0.1447,0.0418 l 1.96784,0.7812 -1.05627,-1.77165 c -0.15916,-0.279 -0.36173,-0.57195 -0.54984,-0.87885 -0.75241,-1.15785 -1.59164,-2.44125 -1.49035,-3.58514 0.24598,0.12555 0.47749,0.23715 0.62219,0.3906 l 3.06752,3.36194 -1.86656,-4.10129 c -0.1881,-0.4185 -0.41961,-0.837 -0.65112,-1.26945 -0.44856,-0.8091 -0.89711,-1.63215 -1.05627,-2.4552 0.0145,0 0.0145,0 0.0145,0 0.14469,-0.014 0.36173,-0.0558 0.43408,-0.0419 l 1.31672,0.2232 -0.53537,-1.18575 c -0.24598,-0.5301 -0.57878,-1.04625 -0.91158,-1.54845 -0.36173,-0.54405 -0.73794,-1.0881 -0.94051,-1.6182 0.66559,0.0279 1.33119,0.1395 1.90997,0.2511 l 1.43247,0.279 -0.63665,-1.26945 c -0.30386,-0.6138 -0.72348,-1.21365 -1.15756,-1.8414 -0.81029,-1.18575 -1.64952,-2.38545 -1.7508,-3.5991 0.0723,0.0279 0.14469,0.0697 0.1881,0.1116 l 3.47267,2.91555 -2.37299,-3.80834 c -0.62219,-0.9765 -1.28778,-2.1483 -1.66399,-3.3201 l 2.9373,4.07339 -1.86656,-5.00804 c -0.13022,-0.3627 -0.28939,-0.71145 -0.43408,-1.07415 -0.3328,-0.837 -0.6656,-1.6461 -0.83923,-2.4552 l 1.31672,1.49265 -0.46302,-2.52495 c -0.20258,-1.0602 -0.81029,-2.0925 -1.38907,-3.08295 -0.59325,-1.0044 -1.17202,-1.96695 -1.27331,-2.8737 0.36174,0.1116 0.68006,0.29295 0.94051,0.54405 l 1.11415,-0.87884 -0.1881,-0.2511 c -0.65113,-0.9207 -1.43248,-2.0088 -1.40354,-2.97135 l 1.99678,1.15785 -1.0852,-2.1204 c -0.15917,-0.32085 -0.3328,-0.6417 -0.5209,-0.96255 -0.46303,-0.79515 -0.92605,-1.60425 -1.08521,-2.3994 0.41961,0.12555 0.86816,0.279 1.33119,0.4743 l 2.38746,1.0323 -1.50483,-2.0646 c -0.28939,-0.4185 -0.62218,-0.837 -0.95498,-1.2834 -0.40514,-0.5301 -0.81029,-1.0602 -1.17203,-1.57635 0.36174,0.0279 0.70901,0.12555 1.01287,0.2511 l 1.92443,0.85095 -0.95498,-1.7856 c 0.0145,0 0.0289,-0.0418 0.0434,-0.0976 0.0145,-0.0558 0.0289,-0.12555 0.0434,-0.1953 0.1881,0 0.40514,0.0279 0.59324,0.1395 0.11576,0.5859 0.37621,1.15785 0.78135,1.68795 l 1.38907,1.82745 -0.0868,-2.27385 c -0.0145,-0.40455 -0.0868,-0.79515 -0.23151,-1.1439 z m 1.0418,57.08337 c -0.21704,0 -0.44855,0.014 -0.68006,-0.0279 l -0.72347,-0.1116 -0.11576,0.6975 c -0.21704,1.36709 0.40514,2.48309 0.95498,3.48749 0.13023,0.2232 0.24598,0.4464 0.36174,0.6696 -0.44855,0.0419 -0.79582,0.2232 -1.02733,0.54405 -0.72347,1.0323 0.47749,3.2085 1.59164,4.8546 l -0.0145,0 0.30386,1.3671 c 0.41961,1.8972 2.14147,4.03155 3.90675,4.9941 -0.89711,1.72979 -1.59164,5.18939 -1.01286,6.55649 l 0.26045,0.6138 0.65112,-0.20925 c 0.94051,-0.32085 1.62058,-0.9207 2.28617,-1.49265 l 0.21704,-0.18135 -0.0868,0.2232 c 0.54984,0.1953 1.11415,0.46035 1.72186,0.7533 1.36013,0.6696 2.90836,1.40895 4.55788,1.3392 l 0.86816,-0.0419 -0.1881,-0.8091 c -0.0868,-0.3906 -0.26045,-0.71145 -0.49196,-1.01835 1.95338,0.1395 3.60289,0.0558 4.15273,-0.9207 0.1447,-0.2511 0.20257,-0.51615 0.15916,-0.8091 1.02734,0.1674 2.0836,0.20925 3.11094,-0.0837 l 1.14308,-0.3348 -0.83923,-0.82305 c -0.0289,-0.0279 -0.0579,-0.0697 -0.0868,-0.12555 0.13022,0 0.24598,0 0.36173,0 1.14309,-0.0418 2.85048,-0.0837 3.1254,-1.85535 l 0.0868,-0.51615 -0.50643,-0.22319 c -0.20257,-0.0837 -0.39068,-0.20925 -0.59325,-0.3348 -0.0868,-0.0558 -0.17363,-0.1116 -0.26045,-0.1674 0.60772,-0.54405 1.25884,-1.0323 1.99679,-1.2834 l 0.68006,-0.23715 -0.24598,-0.65565 c -0.3328,-0.96255 -1.15756,-1.38105 -1.96785,-1.68795 0.72348,-0.79515 1.47589,-1.8972 1.11415,-2.88765 -0.21704,-0.5859 -0.75241,-0.9765 -1.59164,-1.1439 0.0145,-0.12555 0.0434,-0.23715 0.0579,-0.3627 0.10129,-0.57195 0.20257,-1.1439 0.24598,-1.674 l 0.0724,-0.62775 -0.0724,-0.0139 c 0.6656,-1.116 1.28778,-2.44125 0.72347,-3.4317 -0.23151,-0.40455 -0.60771,-0.68355 -1.14308,-0.82304 0.14469,-0.3906 0.33279,-0.79515 0.5209,-1.21365 0.21704,-0.4743 0.43408,-0.93465 0.59324,-1.395 l 0.5209,-1.40895 -0.46302,0.1674 c 0.60772,-1.38105 0.88264,-3.05505 0.78135,-4.78485 l -0.0579,-0.90675 -0.8971,0.279 c -0.0145,0 -0.0145,0.0139 -0.0289,0.0139 0.13022,-1.3113 0.44855,-2.91555 0.89711,-4.464 l 0.24598,-0.8928 -0.83923,0.0139 c 0.0579,-0.46035 0.17363,-0.94859 0.28939,-1.46474 0.30386,-1.2834 0.60771,-2.60865 0.21704,-3.72465 0.49196,-0.96255 0.8537,-2.2599 1.20096,-3.52935 0.27492,-0.99045 0.53537,-1.93905 0.82476,-2.5668 l 0.3328,-0.68355 -0.75241,-0.2511 c -1.02733,-0.34875 -1.20097,-1.0881 -1.41801,-2.35755 -0.15916,-0.9765 -0.34727,-2.09249 -1.28778,-2.87369 l -0.21704,-0.18135 c -0.0724,-1.0323 -0.34727,-2.0925 -0.76688,-2.99925 l -0.20257,-0.43245 -0.49196,0.0279 c -0.0289,0 -0.0579,0 -0.0868,0 -0.17363,-1.10205 -0.1447,-2.232 -0.11576,-3.41775 l 0.0145,-0.93465 -0.47749,0.12555 c 0.0434,-0.37665 0.11576,-0.76725 0.1881,-1.15785 0.0868,-0.4464 0.15917,-0.87885 0.20258,-1.29735 l 0.11575,-1.1997 -0.81029,0.3627 c 0.15917,-0.558 0.43409,-1.1439 0.73794,-1.7577 0.37621,-0.7812 0.76688,-1.60424 0.91158,-2.41334 l 0.23151,-1.2834 -0.66559,0.279 c 0.0434,-0.85095 0.27492,-1.74375 0.66559,-2.63655 l 0.54984,-1.26945 -1.20096,0.279 c 0.11575,-0.3906 0.24598,-0.79515 0.3762,-1.1997 0.39068,-1.1997 0.78135,-2.44125 0.95498,-3.4875 l 0.43409,-2.72025 -1.0418,1.32525 c 0,-0.46035 0,-0.9207 -0.0434,-1.3671 l -0.0868,-1.01835 -0.81029,0.37665 c 0,-0.0279 0,-0.0558 0,-0.0837 -0.0579,-0.59985 -0.10128,-1.2276 -0.39067,-1.8135 l -0.68007,-1.38104 -0.82475,1.81349 c -0.0868,0.18135 -0.15917,0.34875 -0.24598,0.5301 -0.21705,-0.3069 -0.50643,-0.51615 -0.89711,-0.558 -0.24598,0 -0.89711,-0.0558 -1.64952,1.3113 -0.26045,-0.54405 -0.57877,-1.12995 -1.14308,-1.5903 l -0.41962,-0.32084 -0.44855,0.29294 c -1.09968,0.71145 -1.62058,1.74375 -2.12701,2.7621 -0.0289,0.0558 -0.0579,0.1116 -0.0868,0.1674 -0.89711,-0.8091 -1.8955,-1.46475 -2.82155,-1.18575 -0.43408,0.1395 -0.75241,0.43245 -0.96945,0.8928 -0.15916,-0.0697 -0.31833,-0.1395 -0.47749,-0.20925 -0.709,-0.32085 -1.41801,-0.62775 -2.25723,-0.6138 l -0.89711,0.014 0.10129,0.40455 c -0.75241,-0.48825 -1.67846,-0.85095 -2.77814,-0.8928 l -0.91157,-0.0279 0.17363,0.85095 c 0.0145,0.0976 0,0.26505 -0.0289,0.43245 -0.63665,-0.18135 -1.31672,-0.2232 -1.96784,-0.279 -0.83923,-0.0697 -1.63505,-0.12555 -2.25724,-0.4464 l -0.96945,-0.48825 -0.0434,0.59985 c -0.46302,-0.0837 -0.95498,-0.0558 -1.46141,0.0837 l -0.56431,0.1674 0.0434,0.57195 c 0.0145,0.0697 0.0145,0.12555 0,0.1953 -0.63666,-0.12555 -1.33119,-0.1395 -2.05466,-0.0139 l -1.01286,0.15345 0.49196,0.8649 c 0.40514,0.6975 0.96945,1.46475 1.54823,2.232 -0.13023,-0.0279 -0.26045,-0.0558 -0.39068,-0.0697 l -0.75241,-0.0976 -0.0723,0.7254 c -0.1447,1.3671 0.5209,2.63655 1.17202,3.78045 l -0.11576,0.20925 c -0.59324,1.12995 -0.28938,2.2878 0.24599,3.3201 -0.0868,-0.0139 -0.15917,-0.0139 -0.23152,-0.0279 l -0.65112,-0.0279 -0.10129,0.59985 c -0.30386,1.61819 0.57878,3.09689 1.41801,4.53374 0.13022,0.20925 0.24598,0.4185 0.36173,0.62775 l -0.10128,1.0044 c -0.10129,0.90675 0.0145,1.7577 0.23151,2.5668 l -0.11576,-0.1395 -0.11575,1.7298 c -0.0868,1.40895 0.39067,2.8458 1.02733,4.14315 l -0.0724,-0.0419 -0.21704,0.9486 c -0.44855,2.07854 0.81029,3.90599 1.90997,5.51024 0.11575,0.15345 0.21704,0.3069 0.31832,0.46035 -0.50643,-0.0419 -1.05626,-0.0558 -1.59163,-0.014 l -0.6656,0.0697 0.0145,0.6417 c 0.0289,1.10205 0.68006,2.07855 1.30225,3.02715 0.10129,0.15345 0.20257,0.3069 0.30386,0.4464 -0.0145,0 -0.0145,0 -0.0289,0 l -0.82476,-0.15345 -0.0289,0.82305 c -0.0289,0.93465 0.27492,1.8414 0.68007,2.66445 l -0.0145,0 -0.39068,0.7533 c -0.86816,1.68795 -0.0145,3.45959 0.86817,4.89644 l -0.15916,0.87885 c -0.31833,1.82745 0.43408,3.1527 1.15755,4.45005 0.10129,0.18135 0.21704,0.37665 0.31833,0.57195 -0.28939,0.0837 -0.5209,0.2511 -0.68007,0.48825 -0.68006,0.9765 0.21705,2.4831 1.66399,4.67325 0.0868,0.1395 0.1881,0.29295 0.28939,0.4464 -0.0145,0 -0.0289,0 -0.0434,0 z"
       inkscape:connector-curvature="0" /></g></svg>