<?xml version="1.0" encoding="UTF-8" standalone="no"?>
<!-- Created with Inkscape (http://www.inkscape.org/) -->

<svg
   xmlns:dc="http://purl.org/dc/elements/1.1/"
   xmlns:cc="http://creativecommons.org/ns#"
   xmlns:rdf="http://www.w3.org/1999/02/22-rdf-syntax-ns#"
   xmlns:svg="http://www.w3.org/2000/svg"
   xmlns="http://www.w3.org/2000/svg"
   xmlns:sodipodi="http://sodipodi.sourceforge.net/DTD/sodipodi-0.dtd"
   xmlns:inkscape="http://www.inkscape.org/namespaces/inkscape"
   id="svg2"
   version="1.1"
   inkscape:version="0.91 r13725"
   width="308"
   height="672"
   xml:space="preserve"
   sodipodi:docname="sc-w-3-2-border.svg"><metadata
     id="metadata8"><rdf:RDF><cc:Work
         rdf:about=""><dc:format>image/svg+xml</dc:format><dc:type
           rdf:resource="http://purl.org/dc/dcmitype/StillImage" /><dc:title /></cc:Work></rdf:RDF></metadata><defs
     id="defs6" /><sodipodi:namedview
     pagecolor="#ffffff"
     bordercolor="#666666"
     borderopacity="1"
     objecttolerance="10"
     gridtolerance="10"
     guidetolerance="10"
     inkscape:pageopacity="0"
     inkscape:pageshadow="2"
     inkscape:window-width="1920"
     inkscape:window-height="1015"
     id="namedview4"
     showgrid="false"
     inkscape:zoom="2.9580781"
     inkscape:cx="100.98793"
     inkscape:cy="594.14117"
     inkscape:window-x="0"
     inkscape:window-y="0"
     inkscape:window-maximized="1"
     inkscape:current-layer="g10" /><g
     id="g10"
     inkscape:groupmode="layer"
     inkscape:label="ink_ext_XXXXXX"
     transform="matrix(1.25,0,0,-1.25,0,672)"><path
       inkscape:connector-curvature="0"
       id="path88"
       style="fill:none;stroke:#171717;stroke-width:2.08477497;stroke-linecap:butt;stroke-linejoin:miter;stroke-miterlimit:10;stroke-dasharray:none;stroke-opacity:1"
       d="m 134.60269,532.13419 c -0.55858,0.87699 -1.23348,1.77761 -2.1184,2.3822 1.12384,-5.2036 -2.70646,-9.45237 -6.28963,-4.05142 0.8453,-1.02015 0.90396,-2.1487 1.36984,-3.07434 -1.60875,0.24739 -3.54955,-0.45031 -5.22723,-0.0709 0.91925,-0.98818 1.21348,-2.67129 1.7526,-3.40374 -1.64669,0.23627 -3.75759,-0.48506 -5.41444,-0.22238 0.67311,-0.60736 1.54454,-2.82696 1.93815,-3.25224 -1.84044,0.0208 -3.39693,-0.84364 -5.22277,-0.77972 1.48754,-0.72132 2.69825,-2.58372 3.85196,-3.35509 -3.02945,-0.0459 -5.34397,-1.14524 -4.3569,-4.20429 -1.97345,-0.58374 -3.33787,-2.07645 -5.12674,-2.79777 1.21403,0.0639 2.71354,-0.32107 3.92424,-0.24045 -1.492,-0.99652 -3.03376,-3.03821 -4.68977,-4.20569 -0.11507,-1.95273 -0.23822,-3.33285 -2.11563,-5.2439 1.40987,0.21682 2.81932,-0.0987 4.19665,0.29325 -1.65851,-1.72201 -3.23946,-3.81096 -4.21569,-5.88879 1.0125,0.0904 2.30465,-0.30577 3.31451,-0.20986 -0.65419,-1.27033 -0.52772,-3.40375 -1.7184,-4.81167 0.48491,-0.13203 1.19277,0.05 1.74176,-0.0528 -0.83336,-1.26893 -1.19069,-3.38429 -2.62669,-4.62125 0.5212,-0.32523 1.32482,-0.12648 1.9155,-0.23905 0.53036,-0.39333 -0.31383,-1.4649 0.20292,-1.88186 0.81875,-0.009 1.77427,-0.0459 2.58762,-0.20709 -1.19444,-3.03266 0.20084,-4.78525 3.50005,-4.89505 0.005,-0.36831 -0.78554,-0.82696 -0.53035,-1.08269 2.47295,-2.40444 4.66739,-4.52258 8.15563,-4.49617 0.0396,-0.28909 -0.0733,-0.47949 -0.3394,-0.57401 1.11674,0.82697 2.02612,0.44754 3.20151,1.87491 1.41488,-2.59207 4.01765,-2.00555 6.13383,-0.54065 -0.37887,-1.05351 -0.10146,-2.89923 -0.48421,-3.95968 1.18998,0.12092 2.83668,-0.45588 4.00776,-0.25851 -0.57011,-0.58791 -1.34815,-1.94579 -1.94092,-2.50313 1.00333,-0.0222 2.2232,-0.29881 3.19235,-0.29326 -0.84322,-0.34607 -1.52732,-0.59068 -2.51647,-0.69492 0.004,-0.005 0.94301,-1.13551 1.2731,-0.67686 -1.8838,-2.6282 -5.67615,-3.28421 -8.91991,-4.20429 0.23988,-0.74219 0.80722,-0.1779 1.082,-0.50591 -0.69493,-0.83251 -1.90021,-1.21194 -2.54135,-2.10562 -0.26615,0.81863 -1.8307,2.29047 -2.13202,3.41765 -0.98,-1.00626 -3.7868,-1.65949 -4.82654,-2.81584 -0.27143,1.01876 -1.39791,1.92772 -1.4642,3.51492 -1.81598,-1.14523 -3.80305,-2.85614 -5.35204,-4.59762 0.26769,1.31897 -0.38541,3.18971 -0.20903,4.5462 -1.06033,-0.53232 -2.71452,-0.27936 -3.92355,-1.21056 0.29702,1.84572 -0.42516,4.19456 -0.246,6.07782 -1.19986,-0.43086 -3.43932,0.05 -4.65544,-0.50174 0.33828,2.16677 -0.17749,3.92494 1.04239,6.0931 -1.66505,-0.66712 -4.52077,-1.06324 -6.045297,-1.92077 -0.907711,2.60874 -0.184572,5.33146 -1.932726,6.97427 -0.221542,2.4378 0.04337,4.92146 0.60806,7.30088 -0.263377,-0.0778 -1.033214,-0.9312 -1.299232,-1.09103 0.439749,0.74217 0.725363,2.94787 1.228627,3.97914 -2.781367,0.0222 -4.907838,1.49548 -5.448072,4.16676 3.026676,1.01042 5.25808,7.69422 6.091434,11.1327 -1.414312,-0.15705 -3.299226,0.47812 -4.682543,0.22795 0.818065,1.82764 3.116182,3.64001 4.685184,5.2842 -0.94357,0.28631 -1.621678,0.70188 -2.567887,0.97012 0.260596,2.37664 2.237797,4.26544 3.993039,5.99859 -2.733557,0.8909 -3.82306,3.3551 -3.318823,6.28768 0.243224,0.34747 1.482275,0.0821 1.894782,0.20431 -0.31216,0.79082 -0.370255,2.39888 -0.516745,3.26754 1.793183,-0.3016 4.143979,0.53092 5.917709,0.20986 -0.98708,0.90063 -1.60334,3.15079 -2.464905,4.04446 1.759135,0.73662 1.881165,1.96525 3.996925,2.20709 -0.2389,1.1369 0.43322,2.82278 0.20793,3.96246 3.09727,-0.26407 4.05015,0.48228 4.16955,3.47463 3.33452,-0.60737 5.0464,1.55663 4.84543,4.93258 0.77095,-0.50592 2.5273,-0.73385 3.29992,-1.3009 -0.21779,1.19944 0.39902,2.8478 0.21,4.02778 2.53439,-1.17859 4.04739,-0.36553 4.16691,2.77692 3.1027,-2.65878 8.39776,2.17928 11.69531,3.67059 1.98875,-2.16122 4.46976,-2.0945 6.27504,0.33078 1.41529,-1.77205 3.49631,-0.67824 5.47254,1.44267 0.18179,-0.61709 -0.0207,-1.14663 0.16928,-1.77623 2.06308,0.47395 3.43946,-0.20848 5.31576,1.21612 0.2328,-0.71716 0.28978,-1.86795 0.24531,-2.6018 1.07505,-0.35024 2.18358,0.12926 3.26406,-0.20292 0.0178,-0.47255 0.0386,-0.9437 0.0613,-1.41625 1.61348,0.62126 3.87644,0.1918 5.5594,1.46351 -0.30298,-0.71716 -0.29757,-1.98054 -0.56024,-2.6435 2.45656,1.19528 4.57774,0.62682 6.1441,-1.59554 1.91105,1.56636 3.76233,1.65809 6.16469,1.40514 0.5494,-2.51007 -0.24531,-4.8617 -1.90285,-6.70603 2.12272,0.12369 4.5316,-0.35441 6.65058,-0.24044 -0.63684,-0.72968 -1.19875,-1.88604 -1.7508,-2.50034 1.2731,-0.0847 2.90618,-1.18833 4.65266,-0.97707 -0.38166,-1.11188 0.0777,-2.66712 -0.48589,-3.92355 2.21236,-0.31966 4.81027,-1.21055 6.25168,-2.95759 -0.54399,-0.5073 -1.05768,-0.80195 -1.59346,-1.33704 2.07115,-1.85267 2.45392,-2.99374 1.75079,-5.62472 3.25212,0.14592 5.91242,-2.00278 8.0243,-3.98193 -1.65211,0.17095 -3.40138,-0.68797 -4.77218,-0.78665 0.55649,-0.88117 1.42681,-2.82139 2.19498,-3.61361 -0.26489,-0.41418 -0.6396,-0.65462 -1.12716,-0.71995 1.69673,-2.10006 2.70159,-4.73243 2.30367,-7.41762 -0.68408,0.16817 -1.89644,-0.006 -2.69825,0.12925 0.49937,-0.57678 1.23405,-3.10075 2.00333,-4.31687 -0.5066,0.0792 -1.25795,0.27658 -1.7754,0.34607 1.96803,-2.10006 1.29381,-3.5177 1.73898,-5.89435 -0.66129,-0.15011 -1.23571,-0.0445 -1.89534,-0.20431 0.7465,-1.56636 1.18082,-4.50728 1.89367,-6.06391 -0.56733,0.13759 -1.25947,0.42528 -1.83877,0.53647 0.0527,-2.14175 -0.27311,-4.04723 0.43545,-6.12645 -0.21988,0.4114 -0.52232,0.97706 -0.72912,1.81931 0.21599,-5.80818 -4.58609,-6.57538 -4.12021,-12.88946 -0.84211,0.45031 -1.67658,0.30715 -2.71076,1.0396 0.27143,-1.93606 -0.78346,-3.34954 -0.76109,-5.20915 -0.85948,0.33356 -2.55885,0.10284 -3.41013,0.50173 -0.44725,-1.10494 -1.24697,-2.05281 -1.47505,-3.30507 -0.74482,-0.18624 -1.18902,0.60876 -2.00166,0.54483 -0.59346,-1.07992 -1.41751,-2.15288 -2.10104,-3.19666 -0.0208,0.84642 -0.34371,1.66365 -0.40514,2.37247 -1.87949,-2.39471 -2.74815,-2.64488 -5.13147,-2.64348 -0.76288,-1.38708 -1.59457,-1.85129 -2.64572,-2.66436 0.0441,0.8228 -0.17914,1.80821 -0.20736,2.63516 -2.2004,-0.47532 -4.57566,-0.89784 -6.7266,-1.19387 -0.32411,0.55594 -0.84155,2.00971 -1.00277,2.62264 -0.48478,-0.0236 -0.79806,-0.71716 -0.48478,-1.11883 -0.70146,0.80194 -3.93774,1.96064 -4.40903,2.86404 1.18082,0.68103 4.89659,2.75234 6.25488,3.18736 -0.42723,-0.29881 -1.10048,0.01 -1.12105,0.50592 0.94358,0.36136 1.76609,0.61153 2.67644,1.05906 -0.92286,0.80334 -1.02709,0.52814 -1.38874,1.89436 3.87365,0.28214 7.00623,2.09451 4.27435,4.70604 0.76719,0.1376 1.85239,0.34607 2.61959,0.25851 0.0146,0.75885 -0.58805,2.05975 -0.51856,2.50034 0.81001,0.35858 1.9073,0.59624 2.65489,1.00625 -0.68144,0.28492 -1.26657,1.13134 -2.66837,1.39124 0.98638,0.44753 3.03487,2.08061 4.06532,2.48783 -0.59514,0.0876 -1.2178,0.0208 -1.79334,0.10146 1.14288,1.16608 2.12551,3.00625 3.17873,4.01667 -1.04335,-0.86032 -2.38165,-1.72481 -3.33063,-2.50034 1.23933,1.18276 2.69547,3.47184 4.16398,4.77552 -1.14106,2.43918 -2.09019,2.77553 -0.34468,5.47184 -0.79263,0.19597 -1.02445,-0.23349 -1.71826,-0.5212 0.69047,1.0271 0.97553,2.84781 1.7362,3.99861 -0.44684,0.10145 -1.45768,-0.16401 -1.79319,0.17094 1.26324,1.77345 1.45489,4.16261 1.94899,6.10284 -0.59556,-0.0237 -1.16998,-0.14871 -1.7237,-0.37526 0.29688,1.19388 -0.21445,3.86378 0.33009,5.26614 -0.79971,-0.59207 -1.7526,-0.77275 -2.73801,-1.83738 0.65421,1.79012 0.67492,3.92911 1.41167,5.61777 -0.77525,0.0486 -1.9045,0.3016 -2.40235,0.29604 0.44073,1.11188 0.67964,2.60597 0.97068,3.56635 -1.06741,-0.53508 -2.14176,-0.44613 -3.26893,-1.26059 0.35831,1.08547 -0.0282,2.70048 0.45225,3.9569 -1.31757,0.35859 -2.29102,1.17165 -3.96218,0.93816 -0.12759,0.44614 0.15094,1.58443 -0.2057,1.87768 -1.49839,-0.91869 -2.69173,-0.32105 -4.1006,-2.42945 0.37734,1.42459 -0.24699,3.12716 -0.0706,4.51423 -1.14009,0.32522 -1.79805,-0.0264 -2.71076,-0.33357 -0.27686,0.57818 0.35079,1.35927 -0.62543,1.77762 -0.47061,-0.71299 -3.02126,-2.50173 -3.52453,-3.369 -0.51299,3.84988 -3.09352,6.41277 -6.06155,2.77693 -0.4631,1.1355 -1.71883,1.9166 -2.12549,2.65738 -0.24434,-0.61013 0.13509,-1.38011 -0.23892,-1.91242 -1.26393,-0.40446 -2.70368,0.0792 -3.96218,0.003 -0.16401,0.63376 0.0922,1.39818 -0.10481,1.97914"
       sodipodi:nodetypes="ccccccccccccccccccccccccccccccccccccccccccccccccccccccccccccccccccccccccccccccccccccccccccccccccccccccccccccccccccccccccccccccccccccccccccccccccccccccccccccccc" /></g></svg>