<?xml version="1.0" encoding="UTF-8" standalone="no"?>
<!-- Created with Inkscape (http://www.inkscape.org/) -->

<svg
   xmlns:dc="http://purl.org/dc/elements/1.1/"
   xmlns:cc="http://creativecommons.org/ns#"
   xmlns:rdf="http://www.w3.org/1999/02/22-rdf-syntax-ns#"
   xmlns:svg="http://www.w3.org/2000/svg"
   xmlns="http://www.w3.org/2000/svg"
   xmlns:sodipodi="http://sodipodi.sourceforge.net/DTD/sodipodi-0.dtd"
   xmlns:inkscape="http://www.inkscape.org/namespaces/inkscape"
   id="svg2"
   version="1.1"
   inkscape:version="0.91 r13725"
   width="308"
   height="672"
   xml:space="preserve"
   sodipodi:docname="sc-w-1-1-border.svg"><metadata
     id="metadata8"><rdf:RDF><cc:Work
         rdf:about=""><dc:format>image/svg+xml</dc:format><dc:type
           rdf:resource="http://purl.org/dc/dcmitype/StillImage" /><dc:title /></cc:Work></rdf:RDF></metadata><defs
     id="defs6" /><sodipodi:namedview
     pagecolor="#ffffff"
     bordercolor="#666666"
     borderopacity="1"
     objecttolerance="10"
     gridtolerance="10"
     guidetolerance="10"
     inkscape:pageopacity="0"
     inkscape:pageshadow="2"
     inkscape:window-width="1920"
     inkscape:window-height="1015"
     id="namedview4"
     showgrid="false"
     inkscape:zoom="2"
     inkscape:cx="168.40877"
     inkscape:cy="392.71326"
     inkscape:window-x="0"
     inkscape:window-y="0"
     inkscape:window-maximized="1"
     inkscape:current-layer="g10" /><g
     id="g10"
     inkscape:groupmode="layer"
     inkscape:label="ink_ext_XXXXXX"
     transform="matrix(1.25,0,0,-1.25,0,672.00001)"><path
       inkscape:connector-curvature="0"
       id="path18-0"
       style="fill:none;stroke:#050606;stroke-width:1.53296888;stroke-linecap:butt;stroke-linejoin:miter;stroke-miterlimit:10;stroke-dasharray:none;stroke-opacity:1"
       d="m 53.318937,280.53942 c -3.787458,-3.22894 -6.118777,-7.63163 -9.436029,-10.4683 -0.230367,-0.55687 -0.460734,-1.2122 -0.696447,-1.746 0.917801,0.47227 2.437642,0.67379 3.433658,1.39373 -1.627845,-5.46721 -8.46884,-10.85904 -7.993838,-16.78928 0.688626,0.21383 1.738873,0.12461 2.407212,0.36766 -1.666066,-4.55651 -4.893799,-8.66999 -6.03355,-13.20313 0.839006,0.30767 2.231778,0.1243 2.987238,0.38566 -0.434428,-4.30839 -3.986768,-8.53278 -4.960037,-12.67733 0.481571,0.23259 1.228674,0.40627 1.871349,0.76793 0.504241,-4.40884 -2.709744,-10.55122 -3.934844,-14.59901 0.537666,0.13999 1.288344,0.1646 1.90954,0.36951 1.164819,-5.98855 -4.921235,-11.21162 -3.907392,-17.31692 0.502454,0.15983 0.876006,0.30474 1.448272,0.53657 1.821227,-4.63959 -1.9173,-9.61869 -2.49255,-14.38149 0.472608,-0.12322 0.910611,-0.0552 1.388591,-0.14184 0.69162,-4.01348 -1.570595,-7.31781 -1.377253,-11.16362 0.336554,0.32813 1.058009,0.905 1.487059,1.34481 -0.501857,-2.73345 -4.710605,-17.65705 -0.109806,-16.96003 0.272713,-5.46105 -0.202885,-11.11732 0.179023,-16.56468 0.475598,0.29505 0.995344,0.59502 1.334891,0.79085 0.285835,-4.17393 -0.07519,-8.50585 0.177816,-12.68517 0.531693,0.0829 0.827075,0.2812 1.336082,0.39534 0.3115,-4.70865 -0.102626,-9.55437 0.204092,-14.26488 0.264341,0.42596 0.984604,1.23066 1.324732,1.85507 0.260186,-3.77321 -1.633848,-12.80482 3.042141,-13.62807 0.344313,0.72469 0.637313,0.923 1.033534,1.42475 0.917771,-2.39701 0.781124,-4.970707 2.237752,-7.051644 2.170368,0.0072 4.039883,1.382676 4.875956,3.385513 0.02566,-0.80882 0.648633,-1.936735 0.711266,-2.856714 2.617902,-1.270318 2.779526,1.695156 5.540567,1.982992 2.334527,0.243363 4.637279,-1.916891 7.700334,-2.008836 0.959506,-0.02944 0.943924,2.068923 2.485915,2.02145 0.595471,-0.01863 1.778927,-1.504665 2.122034,-1.460208 2.364163,0.302865 3.456878,-1.281132 5.387804,1.383292 1.426808,-6.13647 4.610393,-0.697045 6.707831,-0.436853 1.762124,0.218119 2.899598,-1.951149 5.130093,-1.572583 1.839116,0.31248 3.175794,1.803332 4.582896,3.035191 1.352871,-3.86744 2.844145,-1.489052 4.68265,-1.508881 0.251753,-0.0018 1.657633,1.913291 2.448946,2.109181 0.389088,0.095 2.346901,-2.116996 3.536162,-2.158453 1.220425,-0.04146 1.928024,2.222753 3.038613,2.144043 1.07835,-0.0769 1.63625,-1.736634 2.53617,-1.71019 2.77052,0.08293 5.35267,0.70606 8.09691,1.085842 -0.0321,-0.624344 0.11289,-1.362863 0.10098,-2.005837 2.9717,-1.42295 4.12751,1.591812 6.50557,2.916815 1.18743,-3.911911 9.18962,-5.089098 9.22842,-0.47412 1.03711,-2.653614 3.65502,-2.937835 5.51552,-0.933814 0.0657,-0.29805 0.1355,-0.593701 0.21188,-0.890536 0.86342,0.379766 0.9977,0.09373 1.4291,-0.584686" /><path
       inkscape:connector-curvature="0"
       id="path20-6"
       style="fill:none;stroke:#050606;stroke-width:1.53296888;stroke-linecap:butt;stroke-linejoin:miter;stroke-miterlimit:10;stroke-dasharray:none;stroke-opacity:1"
       d="m 63.502741,305.66641 c -0.20348,-0.79531 -1.963159,-2.59207 -3.995062,-2.48593 0.122363,2.6413 1.704837,5.42413 2.754473,8.00698 -0.70821,2.64899 4.653319,7.72854 5.262691,11.32361 -0.745942,0.003 -1.604624,0.46919 -2.086286,0.5261 1.280613,3.61199 4.081679,7.2409 6.170868,10.25294 -0.760302,-0.41997 -2.632262,-0.54303 -3.445573,-0.89377 0.006,4.89803 5.952417,7.14398 7.888843,11.13747 -0.941021,-0.21383 -2.334374,0.29536 -3.30717,0.15537 -0.01131,3.06127 3.500415,5.25492 5.498405,7.51164 -0.739374,-0.0877 -1.708503,0.21998 -2.455057,0.17998 -0.521533,3.39816 3.58581,4.10887 4.974427,6.60095 -0.991738,0.29228 -1.573613,1.40757 -2.180541,1.7137 2.672744,1.97367 6.371905,3.90888 7.284359,6.91323 -7.171467,-1.28297 1.075911,6.49788 1.502579,8.19311 -0.635495,0.0323 -1.360051,0.25844 -1.919164,0.30613 1.201941,2.85513 3.363234,5.86255 4.999481,8.42233 -0.742277,-0.0769 -1.697046,0.22459 -2.440087,0.15537 0.331802,2.20595 2.173362,3.8012 3.30717,5.5995 -0.762135,-0.0846 -1.580182,0.0985 -2.301682,0.0415 1.011445,2.19673 3.031432,3.7889 3.982689,5.99793 -4.78103,-0.17537 -1.174444,4.00426 0.513131,5.75487 0.01497,-0.0108 -1.001974,0.97838 -0.550864,0.47534 1.528854,0.51381 2.434129,0.72917 3.78043,1.97521 0.79055,-0.35843 1.550852,-0.13075 2.329639,-0.35843 -0.107545,0.83839 0.298957,2.0229 0.180108,2.83206 0.838512,-1.00145 2.096982,-1.30912 2.875152,-1.97675 0.14788,1.92906 0.0423,4.29347 0.26673,5.96562 0.54597,-0.60302 1.30139,-0.9476 1.87074,-1.42602 1.22806,1.93982 1.18086,4.49498 1.07102,6.78093 4.33465,-1.99059 3.54288,3.49508 3.48972,6.28098 -0.0579,0.0923 1.15,-0.76455 1.43689,-1.03529 0.23694,3.77351 -0.1271,7.48395 -0.86571,11.06055 0.9427,-1.30757 2.37073,-2.21057 3.53739,-3.28124 0.86647,2.62899 0.39199,6.07792 0.5501,9.03765 0.43858,-0.31997 1.38922,-0.64302 1.85592,-0.95837 1.23998,2.73975 1.13075,5.67949 1.21126,8.62384 0.45951,-0.39381 2.40372,-1.01375 2.87637,-1.41833 0.13123,1.81061 0.0477,3.71659 0.16697,5.53489 2.38403,-0.99683 3.87881,0.39227 3.5655,2.93358 4.40569,-2.68899 4.60565,1.71062 2.91502,4.6842 0.29835,-0.31228 0.70424,-0.88453 0.96669,-1.23527 1.07713,1.72446 0.49831,3.95811 0.19279,5.92409 0.64573,-0.4092 1.70361,-0.53226 2.36431,-0.923 0.21769,2.36133 -0.29239,5.3426 -0.91597,7.12706" /><path
       inkscape:connector-curvature="0"
       id="path22-2"
       style="fill:none;stroke:#050606;stroke-width:1.53296888;stroke-linecap:butt;stroke-linejoin:miter;stroke-miterlimit:10;stroke-dasharray:none;stroke-opacity:1"
       d="m 129.19152,466.16442 c -2.35698,-0.0185 -3.24133,1.95214 -4.08748,3.92273 0.0267,-0.95222 -0.58188,-1.91983 -0.68454,-2.81975 -1.85576,-0.29997 -3.31068,0.40458 -4.43548,1.97521 -0.0805,-0.44611 -0.5669,-1.37834 -0.66833,-2.04443 -0.80568,0.46765 -2.58506,0.55072 -3.27723,0.94299 -0.0555,-0.28767 -0.11519,-0.57533 -0.17492,-0.86146 -1.93933,0.1 -3.77432,0.90915 -5.43439,1.91214 0.41001,-0.6061 0.59073,-1.89522 0.87426,-2.4244 -1.74914,-0.11845 -3.57802,-0.13999 -5.35817,-0.0646 0.51741,-0.62302 0.82538,-1.4168 1.29849,-1.97213 -1.68681,0.19075 -3.19245,0.30766 -4.98925,0.38458 0.62068,-1.10914 0.76978,-3.11203 1.40833,-3.98888 -6.182176,1.37219 -4.024397,-2.95666 -1.12953,-5.72872 -1.86005,-0.39535 -3.621103,-0.883 -4.988791,-2.02443 0.670783,-0.30767 1.452472,-1.38142 2.580321,-1.68139 -1.906025,-1.99213 -5.478545,-2.62131 -7.160773,-5.03802 1.102798,-0.37996 2.604154,-1.86291 3.585199,-2.39824 -1.470345,-0.78455 -2.956884,-1.94598 -3.957635,-3.1028 1.617151,-0.4492 3.342916,-1.25989 4.591297,-2.16443 -1.666035,-1.0276 -3.859103,-1.97213 -5.633142,-3.18894 0.907719,-0.36459 2.759361,-1.33527 4.10551,-1.39065 -0.832406,-2.17365 -3.032043,-3.51969 -3.424645,-5.88255 1.426808,-1.00914 2.863088,-1.95367 4.32992,-2.84436 -1.408935,-2.49824 -5.273385,-3.17972 -4.976108,-6.61634 1.274045,-0.0169 2.107063,-0.79685 3.448476,-0.66609 -0.919634,-1.44757 -2.40602,-2.68592 -3.585199,-4.02426 0.833629,-0.27997 1.885709,-1.43064 3.039835,-1.62755 -0.364646,-2.35363 -2.445433,-3.81196 -3.435492,-5.98716 1.030541,0.18307 2.4132,-0.3292 3.444963,-0.15537 -0.650466,-1.55832 -1.749597,-3.23971 -1.854698,-5.00878 0.738763,0.37689 0.105712,0.79685 0.394435,1.49679" /><path
       inkscape:connector-curvature="0"
       id="path26-1"
       style="fill:none;stroke:#050606;stroke-width:1.53296888;stroke-linecap:butt;stroke-linejoin:miter;stroke-miterlimit:10;stroke-dasharray:none;stroke-opacity:1"
       d="m 181.71654,171.12301 c 1.26794,-1.10451 1.64679,-9.60545 1.64373,-11.36683 -0.006,-4.4473 -2.18145,-7.3515 0.26887,-11.54343 -0.49343,-0.0997 -0.94408,-0.0858 -1.43139,-0.20614 2.75279,-8.60554 5.40476,-16.99064 7.01641,-25.7194 -0.72715,0.0955 -1.70331,-0.24459 -2.43199,-0.15675 0.84478,-3.06404 4.0192,-8.19943 0.49801,-9.90358 1.9187,-2.43548 3.81908,-5.56748 2.65808,-8.61648 -0.36816,0.0631 -0.5805,0.37256 -1.09226,0.40141 0.39718,-1.54133 0.52551,-3.32543 0.35594,-5.033215 -0.87839,0.263207 -2.61684,0.0048 -3.43717,0.334109 1.25265,-1.669328 0.22609,-1.718601 0.36663,-3.432387 -1.86677,-0.429054 -3.40357,0.218735 -4.40416,1.82916 0.553,-4.964096 -4.17059,-3.653516 -3.6515,0.5264 0.33715,-1.460209 -0.25053,-2.747356 -0.47433,-3.946163 -3.10415,0.722896 -5.12887,3.175201 -5.5227,6.407486 0.0179,-1.038373 -0.5252,-1.735419 -0.7131,-2.744344 -2.54518,-0.464513 -4.2488,1.349033 -4.09665,3.896284 -0.20409,-1.63387 -1.17367,-1.904277 -1.93932,-3.014763 -0.83073,1.330423 -1.56354,1.167573 -1.62724,3.130133 -0.61762,-2.693264 -2.97353,-4.741158 -4.79951,-1.88444 -0.51329,-0.801609 -1.77541,-1.464412 -2.26472,-2.348948 -1.15763,1.353833 -1.28,3.210648 -0.94285,5.155188 -0.84722,-2.10498 -1.34263,-1.48785 -2.49722,-2.35256 0.22976,2.58331 -0.52337,4.67206 -0.0836,7.0198 0.56981,3.04716 2.49432,6.36656 3.50882,9.32076 -0.79071,-0.95069 -1.75449,-1.3185 -2.38998,-1.84784 0.27451,6.41651 3.4581,12.31921 4.42784,18.52897 -0.52215,-0.0552 -0.88022,-0.31059 -1.38755,-0.41827 -0.0966,2.94743 1.43215,5.84748 2.5183,8.58523 -0.48044,-0.48257 -1.16192,-1.00898 -1.52473,-1.37064 0.98639,2.05566 2.2557,4.27546 1.88449,6.66709 -0.61335,-0.54749 -1.94239,-1.07328 -2.38097,-1.43202 1.64221,3.54599 6.14643,11.65757 4.5305,15.41862 -0.59685,-0.48903 -1.91855,-0.95837 -2.50639,-1.44571 0.87732,2.16565 2.25265,4.273 2.42879,6.62495 -0.77283,-0.28413 -2.19598,-0.12615 -2.93718,-0.38274 1.06048,2.23365 2.72529,4.48698 2.41793,7.10583 -0.89504,-0.50657 -3.13699,-0.86485 -3.93243,-1.40803 0.91597,4.62467 3.97719,7.73316 4.53814,12.49104 0.17782,1.51079 -1.3874,15.12373 -1.67673,14.8696 -0.35517,-0.31074 -0.96073,-0.70609 -1.30994,-0.97837 -0.60861,9.86696 -3.10598,17.89686 -3.14586,28.0035 0.42774,0.37858 -0.32401,-0.48242 -0.49525,-0.66763 -2.31421,2.99681 0.216,10.00572 -2.99157,11.55912 -0.4893,3.58922 1.01756,7.14244 0.0628,10.61152 -0.4476,-0.47058 -1.16971,-0.93392 -1.56475,-1.33342 -0.64619,9.16041 -0.25833,17.92579 -0.0643,27.24649 -0.45355,-0.10153 -0.95003,-0.21382 -1.48898,-0.27228 -0.10143,1.78907 -0.12221,3.64429 -0.0387,5.45336 -0.26978,-0.1646 -0.65948,-0.64148 -0.96974,-0.83223 -0.21478,3.67198 -0.12236,7.4701 -0.0597,11.17439 -0.31316,-0.45996 -0.73387,-1.05529 -0.94102,-1.39526 0.14436,2.11827 0.63977,4.32577 0.0191,6.22867 -0.35211,-0.53995 -0.15337,-0.74608 -0.62953,-1.21374 -3.65792,8.35157 3.05526,17.90456 3.07619,25.90693 -0.38909,-0.57072 -0.70118,-1.14605 -1.06522,-1.73369 1.78718,10.41138 2.64953,19.96283 2.60477,30.77264 -0.42193,-0.45381 -1.1607,-1.03222 -1.48883,-1.37065 -0.46257,3.76121 1.67978,7.37165 1.36646,11.18824 -0.28169,-0.22614 -0.56384,-0.45227 -0.84432,-0.67994 -0.009,2.43209 0.70409,4.9134 0.36098,7.38857 -0.39978,-0.19537 -0.82049,-0.27998 -1.26625,-0.25229 -1.02046,6.18407 0.25771,12.23738 -0.81041,18.52605 -0.5084,-0.34613 -1.46912,-0.66456 -1.84691,-0.90915 -0.0775,2.05366 0.59685,3.94426 0.96378,5.96716 -0.48746,-0.37843 -1.0145,-0.79378 -1.48592,-1.20297 -0.0966,4.12117 0.89397,7.75931 1.05635,11.22823 0.15979,3.43046 2.64342,6.65787 2.86126,10.30831 -0.61884,-0.19998 -1.3408,-0.25998 -1.89167,-0.39996 0.47922,1.51986 1.02046,3.46892 1.39931,5.03801 -0.48334,0.11999 -0.90405,0.0461 -1.38739,0.15229 0.21066,1.97829 1.0174,3.98734 0.86525,6.06408 -0.48334,0.11999 -0.90405,0.0369 -1.3874,0.15229 0.75496,1.68754 1.57728,3.5443 1.3874,5.54566 -0.48029,0.15076 -0.91108,0.0354 -1.40053,0.1523 1.32598,2.09366 1.50975,5.06724 -1.01909,6.26405 1.10861,2.06597 3.21338,4.05041 3.45077,6.53327 -0.49098,0.10153 -0.92666,0.0569 -1.41306,0.17844 1.68467,1.6737 2.19001,3.6243 -0.51008,4.14425 2.03955,1.6537 4.72191,4.08425 1.01909,5.7241 0.77695,0.34151 1.89884,1.73831 2.92526,2.0752 -1.86188,1.59217 -4.75002,4.28424 -1.0174,5.12262 -0.37595,1.48141 -0.68744,2.9382 -1.21447,4.37038 4.34428,-0.14767 5.27522,3.16126 4.89025,6.99938 0.87427,-1.14605 1.93949,-2.01367 2.89426,-3.07665 0.88006,1.58294 2.20956,1.74446 3.10766,2.43056 -0.11519,-1.05991 0.3234,-2.43363 0.16406,-3.47662 0.73831,0.70763 2.97889,1.79061 3.89791,2.45824 0.11641,-0.49534 0.0358,-0.91991 0.16117,-1.41218 1.94116,0.40766 3.87865,1.16605 5.95837,0.87992 -0.69935,-1.05836 -0.58187,-2.05058 -2.30336,-2.90128 2.58674,-0.88299 8.94489,-2.49516 2.41854,-4.26115 1.03054,-0.96607 2.50028,-2.29211 3.48896,-3.14588 -0.43369,-0.16768 -1.04123,-0.35381 -1.50365,-0.5538 1.25786,-1.37372 2.98958,-2.59515 4.02195,-3.9658 -1.06812,-0.25843 -1.66191,-1.12297 -2.91502,-1.22912 -0.19096,-2.84128 2.27953,-3.76428 3.43717,-6.06253 -0.76382,0.1646 -1.78244,0.0523 -2.5403,0.23536 0.91902,-1.89983 2.00624,-3.93965 2.92511,-5.93486 -0.43263,-0.17075 -0.8234,-0.009 -1.27695,-0.15229 -0.2626,-2.18442 0.47739,-4.12886 1.39213,-6.07331 -0.39672,0.0985 -0.97447,0.30921 -1.38617,0.37382 1.09378,-1.25835 1.80215,-2.90436 1.88265,-4.50883 -0.4398,-0.0723 -0.901,0.0415 -1.32476,-0.0677 1.56781,-2.88743 3.13669,-5.8164 4.25186,-8.86229 -0.47204,0.34305 -1.26488,0.66148 -1.73081,1.02453 0.0901,-3.72736 -0.64466,-8.8869 0.86617,-12.29275 -0.93033,0.36304 -1.96698,0.24613 -2.9546,0.91838 1.06797,-1.95367 1.71874,-4.26578 1.39947,-6.61634 -0.72517,-0.002 -1.15779,0.10307 -1.88281,0.2446 0.0626,-0.6784 -0.10434,-1.61371 -0.15505,-2.31826 -0.91001,0.26152 -1.91856,-0.0908 -2.90021,0.38766 0.32829,-1.31373 0.0955,-2.25057 0.88022,-3.48277 -0.0877,-0.009 -1.20958,0.15691 -1.03237,0.23691 1.32781,-1.14759 2.5212,-2.70438 3.07802,-4.39346 -0.88205,0.10307 -2.04855,-0.29382 -2.92098,-0.16152 0.43079,-0.97684 0.41292,-2.43671 1.43918,-3.53507 -0.34601,0.0154 -0.66345,0.11845 -0.95477,0.3092 0.84447,-1.01683 1.22928,-2.45363 2.30947,-3.45046 -1.43643,0.37227 -3.01951,0.14152 -4.34122,0.45073 0.55377,-1.35834 1.72744,-2.91667 2.94069,-3.94888 -0.6164,-0.0185 -1.29788,-0.14307 -1.91733,-0.18152 0.47433,-2.27826 2.55099,-4.14887 3.95336,-6.03177 -0.59196,-0.0538 -1.23525,-0.12769 -1.81834,-0.18307 1.19766,-1.24911 2.40602,-2.67822 3.35727,-3.97656 -0.87487,-0.22306 -1.49127,-0.89377 -2.06703,-1.12606 1.31284,-1.17374 2.83085,-2.62438 3.96894,-4.15809 -0.51634,-0.30151 -1.04338,-0.78301 -1.42528,-1.02606 1.06628,-1.74138 2.32963,-3.7689 3.97184,-5.20261 -0.35136,-0.11846 -0.90131,0.008 -1.30307,-0.0785 1.75525,-2.20903 4.56762,-3.68736 3.9474,-7.0686 -0.72715,0.0431 -1.66818,-0.24152 -2.38922,-0.15691 0.10083,-4.21655 3.92296,-9.36686 5.52545,-13.42188 -1.11365,-2.44747 1.3932,-5.35491 1.43444,-8.19004 -0.47967,0.24767 -1.36417,0.41381 -1.98439,0.77378 -0.15124,-2.83667 0.74854,-5.57335 1.50166,-8.01467 -0.51328,0.14614 -1.29238,0.19229 -1.89579,0.38765 -0.34219,-6.61941 2.47782,-12.51427 1.88357,-18.94908 -0.47968,0.24921 -0.9013,0.61226 -1.35043,0.83377 -1.83315,-4.4396 1.52764,-7.90698 0.84173,-12.31428 -0.91047,0.40611 -2.38769,0.24305 -3.40968,0.92915 -0.22761,-5.51951 2.25326,-10.89288 2.38769,-16.55853 -0.47509,0.4815 -1.45277,1.10144 -1.90648,1.57217 1.6254,-6.10254 2.25631,-11.31438 1.90954,-17.71381 -0.49037,0.0354 -1.42987,-0.13383 -1.90954,-0.0892 0.45371,-1.74138 0.80812,-3.55353 1.0006,-5.36414 -0.53315,0.41689 -1.01893,0.56149 -1.48639,0.82608 -0.27192,-2.41055 0.45065,-4.59497 0.45829,-7.01322 -0.45829,0.48303 -1.03268,0.94299 -1.44819,1.31681 0.24594,-7.33151 2.15854,-14.66624 -0.58661,-21.66146 -0.42316,0.47119 -0.64925,0.69225 -1.06629,1.37065 0.63397,-3.12219 5.85541,-11.29284 0.0993,-11.29407 -0.1329,-2.2215 -0.0107,-4.53975 -0.18942,-6.76248 -0.63855,-1.40741 0.61411,-4.32607 0.52092,-6.62264 -0.28261,0.0325 -0.47509,0.19891 -0.57592,0.49396 -0.27039,-3.54415 1.01741,-7.27951 1.08309,-10.84519 -0.42468,-0.0661 -0.39107,0.42304 -0.8127,0.42904 -0.14359,-3.38262 2.2777,-6.32513 1.8576,-9.72329 -0.58813,0.30767 -1.32445,0.34243 -1.99814,0.78716 0.0703,-3.21002 -0.20623,-6.65633 0.47051,-9.63622 -0.42315,0.27413 -0.98074,0.64364 -1.36112,0.95853 0.58509,-2.18549 1.25419,-4.73942 0.83867,-7.14536 -0.48884,0.33228 -1.80108,0.6844 -2.38005,1.18912 z" /></g></svg>