<?xml version="1.0" encoding="UTF-8" standalone="no"?>
<!-- Created with Inkscape (http://www.inkscape.org/) -->

<svg
   xmlns:dc="http://purl.org/dc/elements/1.1/"
   xmlns:cc="http://creativecommons.org/ns#"
   xmlns:rdf="http://www.w3.org/1999/02/22-rdf-syntax-ns#"
   xmlns:svg="http://www.w3.org/2000/svg"
   xmlns="http://www.w3.org/2000/svg"
   xmlns:sodipodi="http://sodipodi.sourceforge.net/DTD/sodipodi-0.dtd"
   xmlns:inkscape="http://www.inkscape.org/namespaces/inkscape"
   id="svg2"
   version="1.1"
   inkscape:version="0.91 r13725"
   width="308"
   height="672"
   xml:space="preserve"
   sodipodi:docname="sc-w-1-3.svg"><metadata
     id="metadata8"><rdf:RDF><cc:Work
         rdf:about=""><dc:format>image/svg+xml</dc:format><dc:type
           rdf:resource="http://purl.org/dc/dcmitype/StillImage" /><dc:title></dc:title></cc:Work></rdf:RDF></metadata><defs
     id="defs6" /><sodipodi:namedview
     pagecolor="#ffffff"
     bordercolor="#666666"
     borderopacity="1"
     objecttolerance="10"
     gridtolerance="10"
     guidetolerance="10"
     inkscape:pageopacity="0"
     inkscape:pageshadow="2"
     inkscape:window-width="1920"
     inkscape:window-height="1015"
     id="namedview4"
     showgrid="false"
     inkscape:zoom="1.2276786"
     inkscape:cx="154"
     inkscape:cy="336"
     inkscape:window-x="0"
     inkscape:window-y="0"
     inkscape:window-maximized="1"
     inkscape:current-layer="g10" /><g
     id="g10"
     inkscape:groupmode="layer"
     inkscape:label="ink_ext_XXXXXX"
     transform="matrix(1.25,0,0,-1.25,0,672.00001)"><g
       transform="matrix(1.6316064,0,0,-1.6316064,-148.74609,591.69515)"
       id="g3"><g
         id="XMLID_1_"><g
           id="g6"><path
             style="fill:#dadada"
             inkscape:connector-curvature="0"
             d="m 187.9,143.23 c -0.03,0.07 -0.06,0.14 -0.1,0.22 -0.61,-2.95 0.27,-7.42 0.63,-9.23 l 0.07,-0.32 -0.27,-0.19 c -0.03,-0.02 -0.05,-0.03 -0.08,-0.05 0.03,-0.7 0.11,-1.42 0.18,-2.13 0.14,-1.28 0.29,-2.61 0.12,-3.9 l -0.13,-0.98 -0.72,0.69 c -0.19,0.18 -0.66,0.35 -1.04,0.49 -0.08,0.03 -0.16,0.06 -0.23,0.09 -0.36,-1.92 -0.1,-3.72 0.16,-5.61 0.24,-1.7 0.49,-3.46 0.27,-5.35 l -0.04,-0.37 -0.37,-0.06 c -0.04,-0.01 -0.09,-0.01 -0.13,-0.01 0.07,-0.73 0.4,-1.4 0.74,-2.11 0.34,-0.68 0.68,-1.39 0.82,-2.18 l 0.11,-0.61 -0.61,0.02 c -0.14,0 -0.28,0.03 -0.41,0.06 0.05,-0.68 0.31,-1.32 0.58,-2 0.36,-0.9 0.74,-1.84 0.66,-2.93 l -0.07,-0.9 -0.44,0.32 c 0.12,-0.62 0.41,-1.19 0.71,-1.78 0.39,-0.77 0.8,-1.58 0.88,-2.57 l 0.05,-0.65 -0.66,0.12 c 0.03,-0.05 0.06,-0.11 0.08,-0.16 0.56,-1.06 1.13,-2.15 1.12,-3.42 l 0,-0.53 -0.53,0.03 c -0.19,0.01 -0.42,-0.01 -0.67,-0.05 -0.09,-0.01 -0.18,-0.02 -0.26,-0.03 0.13,-0.45 0.36,-0.86 0.61,-1.3 0.4,-0.72 0.81,-1.46 0.85,-2.43 l 0.02,-0.55 -0.54,0.03 c -0.21,0.01 -0.45,-0.02 -0.68,-0.05 -0.05,-0.01 -0.1,-0.01 -0.16,-0.02 0.48,-0.91 1.46,-1.7 2.45,-2.44 l 1.77,-1.33 -2.17,0.44 c -0.32,0.06 -0.68,0.03 -1.07,-0.01 -0.11,-0.01 -0.22,-0.02 -0.34,-0.03 0.39,-0.86 1.17,-1.61 1.98,-2.39 1.08,-1.05 2.21,-2.13 2.4,-3.6 L 193.5,83 193.03,82.91 c 0.47,-1.11 1.56,-2.22 2.32,-2.67 l 0.02,0.27 c 0.57,-0.04 1.23,-0.52 1.98,-1.07 0.19,-0.14 0.37,-0.28 0.56,-0.41 l -0.09,0.9 0.67,-0.14 c 0.2,-0.05 0.51,0 0.81,0.04 0.16,0.03 0.32,0.05 0.48,0.07 0.01,0.08 0.02,0.16 0.02,0.24 0.03,0.24 0.05,0.47 0.02,0.66 l -0.16,0.84 0.81,-0.28 c 0.34,-0.11 0.64,-0.04 0.98,0.04 0.09,0.01 0.17,0.03 0.26,0.05 -0.04,0.24 -0.07,0.49 -0.14,0.67 l -0.23,0.65 0.69,0.02 c 0.25,0 0.48,0.09 0.71,0.19 -0.1,0.13 -0.18,0.25 -0.19,0.41 l -0.01,0.08 0.02,0.07 c 0.22,1.12 0.21,1.29 -0.21,2.27 l -0.12,0.27 0.18,0.23 c 0.47,0.61 0.54,1.27 0.63,2.04 0,0.05 0.01,0.11 0.02,0.17 -0.14,0 -0.3,0.02 -0.46,0.06 l -0.34,0.08 -0.04,0.35 c -0.09,0.84 0.05,1.65 0.41,2.39 -0.15,-0.04 -0.29,-0.07 -0.41,-0.12 l -1.09,-0.45 0.44,1.09 c 0.31,0.78 0.66,1.59 1.02,2.41 0.23,0.53 0.46,1.06 0.68,1.58 l -0.55,0.11 0.18,0.54 c 0.14,0.42 0.27,0.83 0.4,1.23 0.38,1.18 0.74,2.31 1.24,3.41 -0.09,0.01 -0.18,0.02 -0.27,0.04 l -0.42,0.09 0.03,0.43 c 0.1,1.6 0.21,3.4 1.4,4.92 -0.59,1.35 -0.21,3.93 0.32,5.51 -0.19,0.02 -0.37,0.04 -0.53,0.04 l -0.49,-0.01 -0.03,0.48 c -0.05,0.83 0.13,1.58 0.29,2.31 0.12,0.51 0.23,0.99 0.27,1.49 -0.07,0.01 -0.14,0.02 -0.21,0.03 -0.18,0.02 -0.37,0.05 -0.53,0.05 l -1.1,-0.01 0.72,0.84 c 0.29,0.33 0.4,0.73 0.51,1.15 -0.02,-0.01 -0.04,-0.01 -0.06,-0.01 l -0.91,-0.1 0.41,0.82 c 0.14,0.29 0.2,0.69 0.27,1.08 0.03,0.19 0.06,0.38 0.1,0.56 l -0.01,0 -0.38,0.07 -0.03,0.39 c -0.09,1.17 0.32,2.22 0.72,3.23 0.15,0.38 0.29,0.74 0.4,1.09 -0.03,0.01 -0.06,0.02 -0.08,0.03 -0.22,0.08 -0.44,0.16 -0.63,0.18 l -0.7,0.09 0.32,0.63 c 0.27,0.52 0.31,1.06 0.36,1.64 0.01,0.1 0.02,0.2 0.03,0.31 l -0.72,0.07 0.35,0.66 c 0.42,0.79 0.89,1.95 0.87,3.18 -0.13,-0.01 -0.29,-0.02 -0.46,0.02 l -0.61,0.14 0.26,0.56 c 0.33,0.7 0.72,1.38 1.11,2.04 0.03,0.06 0.07,0.12 0.11,0.19 l -0.91,-0.16 0.76,1.01 c 0.46,0.62 0.87,1.36 1.15,2.08 -0.24,-0.02 -0.48,-0.05 -0.7,-0.12 l -1.52,-0.49 0.97,1.27 c 0.2,0.25 0.36,0.53 0.53,0.81 0.21,0.36 0.44,0.73 0.73,1.08 -0.06,0.04 -0.12,0.08 -0.18,0.13 l -0.35,0.3 0.27,0.37 c 0.44,0.62 0.92,1.43 1.26,2.15 -0.11,0.01 -0.21,0.03 -0.32,0.06 l -1.17,0.28 1.02,0.63 c 1.24,0.76 2.36,3.27 3.1,4.98 -0.03,0 -0.06,0 -0.09,0 l -2.71,0.11 2.21,0.87 c 0.67,0.27 1.13,0.73 1.22,1.24 0.08,0.43 -0.11,0.87 -0.54,1.26 l -0.41,0.37 0.41,0.37 c 1.48,1.37 1.48,1.94 1.44,2.08 -0.05,0.18 -0.34,0.35 -0.81,0.47 l -0.93,0.22 0.72,0.64 c 0.24,0.21 0.57,0.74 0.84,1.17 0.05,0.07 0.09,0.14 0.13,0.21 -0.02,0.01 -0.04,0.01 -0.06,0.01 -0.21,0.02 -0.4,0.05 -0.58,0.05 l -0.52,0.01 0.03,0.52 c 0.07,1.21 0.66,2.14 1.24,3.04 0.37,0.59 0.73,1.15 0.9,1.74 -0.14,0.01 -0.29,0.03 -0.45,0.07 l -0.63,0.18 0.33,0.56 c 0.38,0.63 0.79,1.55 0.87,2.65 l -1.34,-0.64 0.73,1.35 c 0.24,0.44 0.35,0.89 0.41,1.36 -0.09,-0.08 -0.16,-0.16 -0.23,-0.25 l -1.2,-1.53 0.31,1.92 c 0.15,0.91 0.48,1.85 0.8,2.76 0.32,0.91 0.65,1.85 0.78,2.72 -0.13,-0.09 -0.26,-0.19 -0.37,-0.28 l -1.12,-0.91 0.31,1.4 c 0.17,0.74 0.47,1.46 0.75,2.15 0.32,0.77 0.63,1.51 0.75,2.25 -0.09,-0.02 -0.19,-0.04 -0.3,-0.05 l -0.97,-0.1 0.49,0.84 c 0.39,0.69 0.82,1.7 0.87,2.9 -0.17,-0.08 -0.33,-0.16 -0.47,-0.25 l -0.91,-0.58 0.15,1.07 c 0.08,0.64 0.29,1.25 0.48,1.83 0.2,0.58 0.39,1.14 0.46,1.72 -0.2,-0.13 -0.39,-0.25 -0.48,-0.33 l -1.4,-1.18 0.6,1.72 c 0.24,0.69 0.64,1.23 1.04,1.75 0.67,0.89 1.2,1.6 0.84,2.86 l -0.3,0.07 c 0.31,1.44 0.44,2.92 0.57,4.35 l 0.02,0.21 c -0.99,-0.08 -1.95,-0.439 -2.81,-1.06 l -1.02,-0.73 0.24,1.23 c 0.05,0.229 0.02,0.51 -0.02,0.81 -0.01,0.101 -0.02,0.2 -0.02,0.301 -0.12,-0.011 -0.23,-0.03 -0.33,-0.03 -0.42,-0.04 -0.75,-0.07 -1.08,-0.32 l -1.08,-0.8 0.29,1.31 c 0.06,0.24 0,0.61 -0.06,0.971 -0.03,0.22 -0.06,0.439 -0.08,0.66 -0.91,-0.011 -1.06,-0.04 -1.38,-0.921 l -1.1,-3.13 0.13,3.261 c -0.01,0.05 -0.03,0.159 -0.07,0.279 -0.08,0.34 -0.16,0.66 -0.2,0.94 -0.45,0.05 -0.84,-0.03 -1.11,-0.24 -0.33,-0.24 -0.51,-0.66 -0.53,-1.21 l -1,-0.04 c -0.11,1.09 -0.72,1.66 -1.24,1.74 -0.53,0.07 -1.06,-0.37 -1.39,-1.19 l -0.19,-0.489 -0.48,0.22 c -0.1,0.05 -0.18,0.1 -0.25,0.149 -0.2,-0.71 -0.18,-1.52 -0.15,-2.359 0.01,-0.34 0.02,-0.681 0.02,-1.021 l -0.02,-2.68 -0.9,2.39 c -0.44,-0.72 -0.62,-1.649 -0.81,-2.56 -0.08,-0.44 -0.17,-0.88 -0.29,-1.29 l -0.47,-1.68 -0.49,1.68 c -0.04,0.14 -0.15,0.37 -0.28,0.61 -0.15,-0.75 -0.25,-1.51 -0.35,-2.3 l -0.22,-1.59 -0.63,0.32 c -0.01,0 -0.02,0.01 -0.03,0.02 -0.18,-0.95 -0.19,-1.97 -0.19,-3.02 -0.01,-0.67 -0.01,-1.34 -0.06,-2 l -0.03,-0.43 -0.24,-0.02 c 0.01,-0.41 0.01,-0.83 0.01,-1.25 0.01,-0.61 0.01,-1.23 0.02,-1.84 l 0.01,-0.85 -0.75,0.4 c -0.03,0.02 -0.05,0.04 -0.08,0.05 -0.39,-1.78 -0.61,-3.98 -0.61,-6.05 l 0.01,-1.29 -0.86,0.93 c -0.08,-0.6 -0.09,-1.29 -0.08,-1.98 0.03,-0.11 0.04,-0.23 0.03,-0.36 -0.01,-0.21 -0.02,-0.7 -0.51,-0.7 -0.01,0.01 -0.04,0 -0.06,0 -0.14,-0.83 0.03,-1.71 0.2,-2.62 0.14,-0.72 0.29,-1.46 0.28,-2.22 l 0,-0.781 -0.61,0.28 c -0.01,-0.67 0.08,-1.33 0.17,-2.03 0.09,-0.71 0.18,-1.44 0.18,-2.2 l 0.14,-0.38 -0.43,-0.2 c -0.32,-0.14 -0.52,-0.05 -0.89,0.57 -0.3,-0.83 -0.26,-1.91 -0.22,-2.95 0.02,-0.58 0.04,-1.17 0.01,-1.72 l -0.02,-0.22 -0.18,-0.14 c -0.77,-0.6 -0.42,-2.36 -0.17,-3.65 l 0.67,-3.58 -1.5,2.77 c -0.08,0.14 -0.17,0.28 -0.27,0.42 -0.63,-1.86 -0.06,-4.59 0.38,-6.65 l 1.03,-5.1 -1.82,4.01 z"
             id="path8" /><path
             style="fill:#dadada"
             inkscape:connector-curvature="0"
             d="m 169.33,77.98 c 0.19,2.56 0.38,5.02 -0.04,7.71 -0.11,-0.44 -0.25,-0.87 -0.44,-1.22 l -0.69,-1.29 -0.24,1.44 c -0.21,1.2 -0.07,2.4 0.07,3.55 0.07,0.58 0.14,1.14 0.17,1.69 -0.15,-0.22 -0.28,-0.46 -0.37,-0.72 l -1.24,-3.65 0.27,3.85 c 0.05,0.75 0.02,2.19 -0.13,3.58 l -0.88,1.64 c -0.36,0.67 -0.51,1.45 -0.64,2.2 0,-0.01 -0.01,-0.02 -0.01,-0.03 l -0.19,-1.98 -0.77,1.83 c -0.18,0.43 -0.32,0.91 -0.46,1.37 -0.13,0.42 -0.26,0.84 -0.42,1.24 l -0.93,-2.64 0.11,3.24 c 0.05,1.48 -0.78,3.37 -1.93,4.55 -0.06,-0.23 -0.12,-0.46 -0.14,-0.68 l -0.14,-2.06 -0.81,1.89 c -0.46,1.05 -0.96,2.14 -1.61,3.03 -0.02,-0.07 -0.04,-0.13 -0.05,-0.19 l -0.45,-1.77 -0.52,1.75 c -0.29,0.98 -0.92,1.97 -1.7,2.7 -0.02,-0.17 -0.04,-0.33 -0.03,-0.48 l 0.03,-1.43 -0.92,1.1 c -0.42,0.51 -0.79,1.08 -1.14,1.62 -0.58,0.89 -1.14,1.75 -1.91,2.32 0,-0.04 -0.01,-0.07 -0.01,-0.11 -0.03,-0.29 -0.05,-0.58 -0.05,-0.84 0.03,-0.13 0.04,-0.26 0.05,-0.39 l -1,-0.11 c -0.02,0.13 -0.03,0.26 -0.04,0.39 -0.19,0.9 -1.01,1.7 -1.5,1.71 -0.35,0.03 -0.43,-0.77 -0.44,-1.01 l -0.04,-0.83 -0.71,0.43 c -0.21,0.12 -0.42,0.18 -0.65,0.21 0.25,-0.39 0.5,-0.77 0.75,-1.14 l 0.82,-1.24 -0.55,-0.24 c -0.57,-0.24 -0.87,-0.56 -0.91,-0.95 -0.06,-0.66 0.62,-1.61 1.61,-2.26 l 0.95,-0.63 -1.11,-0.28 c -0.6,-0.15 -1.55,-0.57 -1.51,-1.71 0.9,-0.22 1.75,-0.43 2.65,-0.28 l 0.16,-0.99 c -0.3,-0.05 -0.61,-0.2 -0.94,-0.36 -0.13,-0.07 -0.28,-0.14 -0.42,-0.21 0.19,-0.59 0.79,-0.9 1.74,-1.33 0.37,-0.16 0.75,-0.34 1.1,-0.54 l 2.07,-1.21 -2.38,0.28 c -0.62,0.07 -0.93,-0.07 -1.26,-0.26 0.54,-0.43 1.12,-0.8 1.73,-1.18 0.77,-0.49 1.57,-0.99 2.28,-1.65 l 3.55,-3.29 -4.15,2.5 c -0.39,0.24 -0.89,0.3 -1.42,0.36 -0.06,0.01 -0.12,0.02 -0.18,0.02 0.34,-0.79 1.22,-1.28 2.22,-1.83 0.19,-0.11 0.38,-0.21 0.56,-0.32 l 0.8,-0.46 -0.83,-0.42 c -0.64,-0.32 -0.7,-0.68 -0.68,-0.91 0.06,-0.95 1.49,-2.26 2.63,-2.66 l 0.88,-0.31 -0.75,-0.56 c -0.44,-0.33 -0.59,-0.57 -0.58,-0.68 0.04,-0.37 1.15,-0.87 1.88,-1.2 0.79,-0.37 1.62,-0.74 2.1,-1.23 l 0.74,-0.76 -1.06,-0.09 c -1.21,-0.1 -1.37,-0.36 -1.37,-0.36 -0.06,-0.4 1.53,-1.58 2.06,-1.97 0.42,-0.31 0.79,-0.58 1.01,-0.8 l 1.11,-1.1 -1.54,0.25 c -0.33,0.05 -0.74,0 -1.19,-0.06 -0.08,-0.01 -0.16,-0.02 -0.25,-0.03 0.35,-0.24 0.79,-0.48 1.18,-0.69 1.04,-0.56 2.02,-1.09 2.04,-1.92 0.01,-0.37 -0.18,-0.67 -0.4,-0.91 0.67,-0.3 1.54,-0.49 2.4,-0.53 0.09,0.13 0.2,0.25 0.3,0.38 0.21,0.25 0.43,0.52 0.5,0.69 l 1.62,3.73 -0.67,-4.01 c -0.06,-0.37 0,-0.86 0.06,-1.34 0.01,-0.09 0.02,-0.18 0.03,-0.27 0.52,0.37 1.08,0.8 1.4,1.34 l 0.27,0.44 0.43,-0.28 c 0.15,-0.09 0.28,-0.2 0.41,-0.31 0.04,-0.03 0.07,-0.06 0.11,-0.09 0.17,0.09 0.3,0.21 0.4,0.36 0.04,0.64 0.09,1.27 0.14,1.89 z"
             id="path10" /><path
             style="fill:#9d9d9c"
             inkscape:connector-curvature="0"
             d="m 124.31,198.22 c 0.13,0.15 0.32,0.31 0.6,0.38 0.27,0.09 0.62,0 0.82,-0.16 0.41,-0.319 0.53,-0.67 0.65,-1.01 0.09,-0.32 0.15,-0.54 0.24,-0.82 0.36,-1.08 0.79,-2.16 1.19,-3.25 0.81,-2.18 1.62,-4.36 2.34,-6.6 0.36,-1.12 0.7,-2.24 0.93,-3.47 0.05,-0.32 0.1,-0.63 0.1,-1 0,-0.5 -0.05,-0.63 -0.04,-0.91 -0.01,-0.52 0.03,-1.08 0.08,-1.63 0.21,-2.23 0.64,-4.51 1.21,-6.67 0.15,-0.54 0.31,-1.06 0.52,-1.51 0.24,-0.5 0.5,-1.02 0.77,-1.53 l 1.61,-3.07 1.58,-2.95 c 0.18,-1.61 0.64,-3.21 1.39,-4.73 0.38,-0.76 0.73,-1.54 1.07,-2.33 -0.39,0.63 -0.77,1.27 -1.15,1.9 1.49,-3.15 2.93,-6.39 3.64,-9.79 l 0.07,-0.34 -0.3,-0.18 c -0.01,-0.01 -0.02,-0.02 -0.03,-0.02 0.22,-0.38 0.47,-0.77 0.71,-1.14 0.85,-1.32 1.72,-2.68 1.8,-4.3 l 0.02,-0.43 -0.4,-0.08 c 0.13,-0.28 0.29,-0.57 0.45,-0.87 0.52,-0.95 1.1,-2.02 0.94,-3.37 l -0.04,-0.3 -0.28,-0.11 c -0.06,-0.02 -0.12,-0.04 -0.17,-0.05 0.08,-0.13 0.17,-0.26 0.26,-0.39 0.97,-1.45 2.27,-3.4 1.13,-4.65 0.14,-0.21 0.31,-0.44 0.48,-0.68 0.93,-1.31 2.18,-3.07 1.17,-4.3 1.01,-1.79 1.37,-3.4 1.09,-4.9 l -0.14,-0.74 -0.63,0.41 c -0.24,0.16 -0.59,0.23 -0.94,0.29 0.12,-0.43 0.27,-0.85 0.41,-1.27 0.45,-1.31 0.92,-2.67 0.65,-4.34 l -0.05,-0.33 -0.32,-0.08 c -0.19,-0.04 -0.36,-0.05 -0.51,-0.05 0.1,-1.12 0.75,-2.55 1.1,-3.1 0.11,0.03 0.22,0.04 0.3,0.04 l 0.01,0 c 0.55,-0.01 1.12,-0.34 1.58,-0.83 l -0.04,0.82 0.74,-0.34 c 1.41,-0.63 2.22,-1.87 3.01,-3.08 0.09,-0.14 0.19,-0.29 0.29,-0.44 0,0.01 0,0.03 0,0.04 l -0.04,0.98 0.81,-0.54 c 0.89,-0.58 1.67,-1.45 2.22,-2.42 l 0.1,0.67 0.71,-0.74 c 0.33,-0.35 0.63,-0.73 0.9,-1.15 l 0.05,0.04 c 1.21,7.92 2.62,15.8 4.47,23.62 0.25,0.98 0.5,1.95 0.78,2.93 0.27,0.97 0.62,1.96 0.94,2.88 0.64,1.87 1.23,3.77 1.7,5.68 0.45,1.9 0.85,3.85 0.85,5.72 -0.02,0.95 -0.13,1.8 -0.53,2.56 -0.44,0.85 -0.96,1.73 -1.43,2.62 -1.91,3.58 -3.34,7.42 -4.2,11.37 -0.87,3.96 -1.2,8 -1.14,12.02 0.03,4.02 0.53,8.02 1.19,11.97 0.47,2.79 0.96,5.569 1.48,8.35 l -0.43,0.08 -0.08,-0.41 -0.19,0.04 c -0.25,0.05 -0.65,0.13 -1.07,0.2 -0.01,-0.03 -0.03,-0.06 -0.04,-0.09 -0.08,-0.17 -0.17,-0.351 -0.28,-0.49 l -0.18,-0.229 -0.29,0.04 c -1.35,0.199 -1.46,0.22 -2.04,-0.58 l -0.93,-1.301 0.02,1.601 c 0.02,0.8 -0.4,1.41 -0.82,1.66 -0.22,0.13 -0.43,0.159 -0.57,0.08 -0.21,-0.12 -0.33,-0.49 -0.34,-1.011 l -1,-0.04 c -0.09,1.011 -0.74,1.721 -1.12,1.74 -0.32,0.07 -0.51,-0.61 -0.56,-0.81 l -0.62,-2.59 -0.36,2.64 c -0.23,1.74 -1.94,1.82 -2.44,1.8 -1.35,-0.04 -2.79,-0.84 -2.88,-2.11 l -0.12,-1.609 -0.81,1.399 c -0.71,1.21 -2.54,2.94 -3.54,2.771 -0.39,-0.07 -0.66,-0.49 -0.81,-1.26 l -0.27,-1.44 -0.66,1.311 c -0.57,1.109 -1.47,1.819 -2.42,1.909 -0.82,0.061 -1.56,-0.33 -2.16,-1.14 l -0.32,-0.42 -0.41,0.34 c -0.33,0.28 -0.65,0.59 -0.96,0.89 -0.6,0.591 -1.17,1.15 -1.84,1.46 -0.01,-0.06 -0.01,-0.119 -0.01,-0.18 -0.03,-0.33 -0.06,-0.63 -0.01,-0.91 l -0.98,-0.22 c -0.2,0.69 -0.62,1.55 -1.45,1.69 -0.82,0.149 -1.84,-0.44 -2.6,-1.49 l -0.49,-0.67 -0.37,0.75 c -0.09,0.2 -0.39,0.47 -0.65,0.71 -0.11,0.1 -0.21,0.2 -0.31,0.3 -0.04,-0.04 -0.07,-0.07 -0.1,-0.1 -0.21,-0.21 -0.42,-0.431 -0.53,-0.66 l -0.34,-0.74 -0.51,0.63 c -0.25,0.32 -0.54,0.39 -0.9,0.48 -0.04,0.02 -0.08,0.029 -0.13,0.04 -0.01,-0.131 -0.04,-0.261 -0.1,-0.4 l -0.41,-0.98 -0.49,0.94 c -0.1,0.19 -0.47,0.521 -0.76,0.79 -0.03,0.03 -0.06,0.05 -0.09,0.08 -0.11,-0.66 -0.08,-1.38 0.12,-2.1 l 0.62,-2.261 -1.49,1.811 c -0.45,0.55 -1.04,1.109 -1.6,1.54 0.19,-0.83 0.67,-1.58 1.16,-2.351 0.57,-0.88 1.15,-1.779 1.31,-2.859 l 0.15,-0.94 c 0.63,-0.79 1.32,-1.479 1.71,-1.76 l 0.57,0.109 c -0.11,0.49 -0.19,0.98 -0.25,1.48 -0.12,1.18 -0.19,2.39 0.2,3.62 0.11,0.31 0.24,0.62 0.5,0.92 z"
             id="path12" /><path
             inkscape:connector-curvature="0"
             d="m 213.89,192.05 0.24,-0.05 c -0.02,-0.101 -0.16,-0.19 -0.26,-0.19 -0.01,0 -0.02,0 -0.02,0 l 0.04,0.24 z m -25.46,-57.83 c -0.36,1.81 -1.24,6.28 -0.63,9.23 0.04,-0.08 0.07,-0.15 0.1,-0.22 l 1.82,-4.01 -1.03,5.1 c -0.44,2.06 -1.01,4.79 -0.38,6.65 0.1,-0.14 0.19,-0.28 0.27,-0.42 l 1.5,-2.77 -0.67,3.58 c -0.25,1.29 -0.6,3.05 0.17,3.65 l 0.18,0.14 0.02,0.22 c 0.03,0.55 0.01,1.14 -0.01,1.72 -0.04,1.04 -0.08,2.12 0.22,2.95 0.37,-0.62 0.57,-0.71 0.89,-0.57 l 0.43,0.2 -0.14,0.38 c 0,0.76 -0.09,1.49 -0.18,2.2 -0.09,0.7 -0.18,1.36 -0.17,2.03 l 0.61,-0.28 0,0.78 c 0.01,0.76 -0.14,1.5 -0.28,2.22 -0.17,0.91 -0.34,1.79 -0.2,2.62 0.02,0 0.05,0.01 0.06,0 0.49,0 0.5,0.49 0.51,0.7 0.01,0.13 0,0.25 -0.03,0.36 -0.01,0.69 0,1.38 0.08,1.98 l 0.86,-0.93 -0.01,1.29 c 0,2.07 0.22,4.27 0.61,6.05 0.03,-0.01 0.05,-0.03 0.08,-0.05 l 0.75,-0.4 -0.01,0.85 c -0.01,0.61 -0.01,1.23 -0.02,1.84 0,0.42 0,0.84 -0.01,1.25 l 0.24,0.02 0.03,0.43 c 0.05,0.66 0.05,1.33 0.06,2 0,1.05 0.01,2.07 0.19,3.02 0.01,-0.01 0.02,-0.02 0.03,-0.02 l 0.63,-0.32 0.22,1.59 c 0.1,0.79 0.2,1.55 0.35,2.3 0.13,-0.24 0.24,-0.47 0.28,-0.61 l 0.49,-1.68 0.47,1.68 c 0.12,0.41 0.21,0.85 0.29,1.29 0.19,0.91 0.37,1.84 0.81,2.56 l 0.9,-2.39 0.02,2.68 c 0,0.34 -0.01,0.681 -0.02,1.021 -0.03,0.84 -0.05,1.649 0.15,2.359 0.07,-0.05 0.15,-0.1 0.25,-0.149 l 0.48,-0.22 0.19,0.489 c 0.33,0.82 0.86,1.261 1.39,1.19 0.52,-0.08 1.13,-0.65 1.24,-1.74 l 1,0.04 c 0.02,0.55 0.2,0.97 0.53,1.21 0.27,0.21 0.66,0.29 1.11,0.24 0.04,-0.28 0.12,-0.601 0.2,-0.94 0.04,-0.12 0.06,-0.229 0.07,-0.279 l -0.13,-3.261 1.1,3.13 c 0.32,0.881 0.47,0.91 1.38,0.921 0.02,-0.221 0.05,-0.44 0.08,-0.66 0.06,-0.36 0.12,-0.73 0.06,-0.971 l -0.29,-1.31 1.08,0.8 c 0.33,0.25 0.66,0.28 1.08,0.32 0.1,0 0.21,0.02 0.33,0.03 0,-0.101 0.01,-0.2 0.02,-0.301 0.04,-0.3 0.07,-0.58 0.02,-0.81 l -0.24,-1.23 1.02,0.73 c 0.86,0.62 1.82,0.979 2.81,1.06 l -0.02,-0.21 c -0.13,-1.43 -0.26,-2.909 -0.57,-4.35 l 0.3,-0.07 c 0.36,-1.26 -0.17,-1.97 -0.84,-2.86 -0.4,-0.52 -0.8,-1.06 -1.04,-1.75 l -0.6,-1.72 1.4,1.18 c 0.09,0.08 0.28,0.2 0.48,0.33 -0.07,-0.58 -0.26,-1.14 -0.46,-1.72 -0.19,-0.58 -0.4,-1.19 -0.48,-1.83 l -0.15,-1.07 0.91,0.58 c 0.14,0.09 0.3,0.17 0.47,0.25 -0.05,-1.2 -0.48,-2.21 -0.87,-2.9 l -0.49,-0.84 0.97,0.1 c 0.11,0.01 0.21,0.03 0.3,0.05 -0.12,-0.74 -0.43,-1.48 -0.75,-2.25 -0.28,-0.69 -0.58,-1.41 -0.75,-2.15 l -0.31,-1.4 1.12,0.91 c 0.11,0.09 0.24,0.19 0.37,0.28 -0.13,-0.87 -0.46,-1.81 -0.78,-2.72 -0.32,-0.91 -0.65,-1.85 -0.8,-2.76 l -0.31,-1.92 1.2,1.53 c 0.07,0.09 0.14,0.17 0.23,0.25 -0.06,-0.47 -0.17,-0.92 -0.41,-1.36 l -0.73,-1.35 1.34,0.64 c -0.08,-1.1 -0.49,-2.02 -0.87,-2.65 l -0.33,-0.56 0.63,-0.18 c 0.16,-0.04 0.31,-0.06 0.45,-0.07 -0.17,-0.59 -0.53,-1.15 -0.9,-1.74 -0.58,-0.9 -1.17,-1.83 -1.24,-3.04 l -0.03,-0.52 0.52,-0.01 c 0.18,0 0.37,-0.03 0.58,-0.05 0.02,0 0.04,0 0.06,-0.01 -0.04,-0.07 -0.08,-0.14 -0.13,-0.21 -0.27,-0.43 -0.6,-0.96 -0.84,-1.17 l -0.72,-0.64 0.93,-0.22 c 0.47,-0.12 0.76,-0.29 0.81,-0.47 0.04,-0.14 0.04,-0.71 -1.44,-2.08 l -0.41,-0.37 0.41,-0.37 c 0.43,-0.39 0.62,-0.83 0.54,-1.26 -0.09,-0.51 -0.55,-0.97 -1.22,-1.24 l -2.21,-0.87 2.71,-0.11 c 0.03,0 0.06,0 0.09,0 -0.74,-1.71 -1.86,-4.22 -3.1,-4.98 l -1.02,-0.63 1.17,-0.28 c 0.11,-0.03 0.21,-0.05 0.32,-0.06 -0.34,-0.72 -0.82,-1.53 -1.26,-2.15 l -0.27,-0.37 0.35,-0.3 c 0.06,-0.05 0.12,-0.09 0.18,-0.13 -0.29,-0.35 -0.52,-0.72 -0.73,-1.08 -0.17,-0.28 -0.33,-0.56 -0.53,-0.81 l -0.97,-1.27 1.52,0.49 c 0.22,0.07 0.46,0.1 0.7,0.12 -0.28,-0.72 -0.69,-1.46 -1.15,-2.08 l -0.76,-1.01 0.91,0.16 c -0.04,-0.07 -0.08,-0.13 -0.11,-0.19 -0.39,-0.66 -0.78,-1.34 -1.11,-2.04 l -0.26,-0.56 0.61,-0.14 c 0.17,-0.04 0.33,-0.03 0.46,-0.02 0.02,-1.23 -0.45,-2.39 -0.87,-3.18 l -0.35,-0.66 0.72,-0.07 c -0.01,-0.11 -0.02,-0.21 -0.03,-0.31 -0.05,-0.58 -0.09,-1.12 -0.36,-1.64 l -0.32,-0.63 0.7,-0.09 c 0.19,-0.02 0.41,-0.1 0.63,-0.18 0.02,-0.01 0.05,-0.02 0.08,-0.03 -0.11,-0.35 -0.25,-0.71 -0.4,-1.09 -0.4,-1.01 -0.81,-2.06 -0.72,-3.23 l 0.03,-0.39 0.38,-0.07 0.01,0 c -0.04,-0.18 -0.07,-0.37 -0.1,-0.56 -0.07,-0.39 -0.13,-0.79 -0.27,-1.08 l -0.41,-0.82 0.91,0.1 c 0.02,0 0.04,0 0.06,0.01 -0.11,-0.42 -0.22,-0.82 -0.51,-1.15 l -0.72,-0.84 1.1,0.01 c 0.16,0 0.35,-0.03 0.53,-0.05 0.07,-0.01 0.14,-0.02 0.21,-0.03 -0.04,-0.5 -0.15,-0.98 -0.27,-1.49 -0.16,-0.73 -0.34,-1.48 -0.29,-2.31 l 0.03,-0.48 0.49,0.01 c 0.16,0 0.34,-0.02 0.53,-0.04 -0.53,-1.58 -0.91,-4.16 -0.32,-5.51 -1.19,-1.52 -1.3,-3.32 -1.4,-4.92 l -0.03,-0.43 0.42,-0.09 c 0.09,-0.02 0.18,-0.03 0.27,-0.04 -0.5,-1.1 -0.86,-2.23 -1.24,-3.41 -0.13,-0.4 -0.26,-0.81 -0.4,-1.23 l -0.18,-0.54 0.55,-0.11 c -0.22,-0.52 -0.45,-1.05 -0.68,-1.58 -0.36,-0.82 -0.71,-1.63 -1.02,-2.41 l -0.44,-1.09 1.09,0.45 c 0.12,0.05 0.26,0.08 0.41,0.12 -0.36,-0.74 -0.5,-1.55 -0.41,-2.39 l 0.04,-0.35 0.34,-0.08 c 0.16,-0.04 0.32,-0.06 0.46,-0.06 -0.01,-0.06 -0.02,-0.12 -0.02,-0.17 -0.09,-0.77 -0.16,-1.43 -0.63,-2.04 l -0.18,-0.23 0.12,-0.27 c 0.42,-0.98 0.43,-1.15 0.21,-2.27 l -0.02,-0.07 0.01,-0.08 c 0.01,-0.16 0.09,-0.28 0.19,-0.41 -0.23,-0.1 -0.46,-0.19 -0.71,-0.19 l -0.69,-0.02 0.23,-0.65 c 0.07,-0.18 0.1,-0.43 0.14,-0.67 -0.09,-0.02 -0.17,-0.04 -0.26,-0.05 -0.34,-0.08 -0.64,-0.15 -0.98,-0.04 l -0.81,0.28 0.16,-0.84 c 0.03,-0.19 0.01,-0.42 -0.02,-0.66 0,-0.08 -0.01,-0.16 -0.02,-0.24 -0.16,-0.02 -0.32,-0.04 -0.48,-0.07 -0.3,-0.04 -0.61,-0.09 -0.81,-0.04 l -0.67,0.14 0.09,-0.9 c -0.19,0.13 -0.37,0.27 -0.56,0.41 -0.75,0.55 -1.41,1.03 -1.98,1.07 l -0.02,-0.27 c -0.76,0.45 -1.85,1.56 -2.32,2.67 l 0.47,0.091 -0.06,0.47 c -0.19,1.47 -1.32,2.55 -2.4,3.6 -0.81,0.78 -1.59,1.53 -1.98,2.39 0.12,0.01 0.23,0.02 0.34,0.03 0.39,0.04 0.75,0.07 1.07,0.01 l 2.17,-0.44 -1.77,1.33 c -0.99,0.74 -1.97,1.53 -2.45,2.44 0.06,0.01 0.11,0.01 0.16,0.02 0.23,0.03 0.47,0.06 0.68,0.05 l 0.54,-0.03 -0.02,0.55 c -0.04,0.97 -0.45,1.71 -0.85,2.43 -0.25,0.44 -0.48,0.85 -0.61,1.3 0.08,0.01 0.17,0.02 0.26,0.03 0.25,0.04 0.48,0.06 0.67,0.05 l 0.53,-0.03 0,0.53 c 0.01,1.27 -0.56,2.36 -1.12,3.42 -0.02,0.05 -0.05,0.11 -0.08,0.16 l 0.66,-0.12 -0.05,0.65 c -0.08,0.99 -0.49,1.8 -0.88,2.57 -0.3,0.59 -0.59,1.16 -0.71,1.78 l 0.44,-0.32 0.07,0.9 c 0.08,1.09 -0.3,2.03 -0.66,2.93 -0.27,0.68 -0.53,1.32 -0.58,2 0.13,-0.03 0.27,-0.06 0.41,-0.06 l 0.61,-0.02 -0.11,0.61 c -0.14,0.79 -0.48,1.5 -0.82,2.18 -0.34,0.71 -0.67,1.38 -0.74,2.11 0.04,0 0.09,0 0.13,0.01 l 0.37,0.06 0.04,0.37 c 0.22,1.89 -0.03,3.65 -0.27,5.35 -0.26,1.89 -0.52,3.69 -0.16,5.61 0.07,-0.03 0.15,-0.06 0.23,-0.09 0.38,-0.14 0.85,-0.31 1.04,-0.49 l 0.72,-0.69 0.13,0.98 c 0.17,1.29 0.02,2.62 -0.12,3.9 -0.07,0.71 -0.15,1.43 -0.18,2.13 0.03,0.02 0.05,0.03 0.08,0.05 l 0.27,0.19 -0.07,0.32 z m -3.19,-16.83 c -0.19,-1.31 0.32,-2.38 0.82,-3.41 0.2,-0.41 0.39,-0.8 0.54,-1.2 -0.07,0.01 -0.13,0.02 -0.18,0.02 l -0.48,0.03 -0.05,-0.47 c -0.14,-1.13 0.25,-2.1 0.63,-3.03 0.25,-0.63 0.5,-1.23 0.57,-1.86 -0.02,0 -0.03,0 -0.05,0 l -0.45,-0.01 -0.03,-0.46 c -0.08,-1.2 0.4,-2.14 0.86,-3.04 0.26,-0.52 0.51,-1.01 0.66,-1.55 -0.11,0.02 -0.22,0.04 -0.32,0.05 l -0.88,0.1 0.36,-0.8 c 0.17,-0.36 0.35,-0.72 0.54,-1.07 0.44,-0.84 0.85,-1.64 0.97,-2.48 -0.1,-0.01 -0.2,-0.02 -0.3,-0.03 -0.26,-0.04 -0.5,-0.07 -0.69,-0.05 l -0.59,0.05 0.05,-0.59 c 0.08,-0.87 0.46,-1.56 0.83,-2.23 0.28,-0.49 0.54,-0.96 0.66,-1.49 -0.08,-0.01 -0.17,-0.02 -0.25,-0.03 -0.26,-0.03 -0.51,-0.06 -0.71,-0.04 l -0.69,0.04 0.17,-0.67 c 0.27,-1.06 1.03,-1.93 1.92,-2.7 -0.26,-0.02 -0.5,-0.03 -0.72,-0.01 l -0.68,0.08 0.14,-0.68 c 0.3,-1.44 1.4,-2.49 2.45,-3.51 0.87,-0.84 1.7,-1.63 2,-2.56 -0.02,-0.01 -0.05,-0.02 -0.08,-0.02 l -0.48,-0.12 0.12,-0.49 c 0.38,-1.55 2.01,-3.36 3.22,-3.93 l 0.19,0.4 -0.01,-0.12 c 0.29,-0.01 0.94,-0.49 1.46,-0.88 0.51,-0.37 1.03,-0.76 1.56,-1.03 l 0.93,-0.47 -0.22,1.02 c -0.05,0.23 -0.07,0.43 -0.09,0.63 0.17,0.01 0.34,0.04 0.51,0.07 0.28,0.04 0.57,0.08 0.76,0.05 l 0.67,-0.1 -0.1,0.67 c -0.02,0.15 0,0.35 0.02,0.57 0.01,0.08 0.02,0.17 0.02,0.26 0.33,0.01 0.61,0.06 0.86,0.12 0.22,0.05 0.41,0.09 0.57,0.08 l 0.67,-0.06 -0.14,0.66 c -0.03,0.15 -0.05,0.3 -0.08,0.46 -0.01,0.11 -0.03,0.22 -0.05,0.33 0.23,0.06 0.42,0.15 0.59,0.23 0.15,0.06 0.29,0.12 0.39,0.15 l 0.52,0.1 -0.13,0.51 c -0.06,0.24 -0.24,0.43 -0.39,0.61 -0.02,0.01 -0.04,0.03 -0.05,0.05 0.2,1.07 0.17,1.49 -0.2,2.4 0.48,0.76 0.57,1.54 0.65,2.3 0.02,0.21 0.05,0.43 0.08,0.65 l 0.07,0.45 -0.44,0.11 c -0.19,0.05 -0.37,0.06 -0.55,0.06 0,0.91 0.36,1.73 1.06,2.46 l 2.63,2.71 -3.24,-1.94 c -0.21,-0.12 -0.48,-0.2 -0.76,-0.26 0.2,0.48 0.41,0.96 0.62,1.45 0.32,0.74 0.64,1.47 0.92,2.17 l 0.23,0.57 -0.62,0.12 c 0.07,0.23 0.15,0.46 0.22,0.7 0.44,1.37 0.86,2.66 1.49,3.91 l 0.27,0.54 -0.58,0.16 c -0.19,0.06 -0.37,0.07 -0.52,0.08 0.1,1.46 0.29,2.93 1.34,4.1 l 0.26,0.3 -0.22,0.32 c -0.6,0.85 -0.24,3.97 0.47,5.52 l 0.32,0.71 -0.78,0 c -0.15,-0.01 -0.35,0.02 -0.53,0.05 -0.08,0.01 -0.15,0.01 -0.22,0.02 0.03,0.53 0.15,1.04 0.27,1.58 0.16,0.7 0.32,1.42 0.3,2.2 l -0.02,0.5 -0.5,-0.02 c -0.12,0 -0.26,0.01 -0.4,0.03 0.13,0.29 0.2,0.58 0.27,0.84 0.07,0.28 0.14,0.53 0.25,0.74 l 0.46,0.91 -0.99,-0.18 c -0.02,-0.01 -0.04,-0.01 -0.07,-0.02 0.03,0.14 0.05,0.28 0.07,0.41 0.06,0.34 0.11,0.67 0.21,0.88 l 0.26,0.55 -0.59,0.15 c -0.06,0.01 -0.13,0.03 -0.19,0.04 0.03,0.82 0.34,1.6 0.66,2.42 0.21,0.55 0.44,1.11 0.57,1.69 l 0.12,0.53 -0.53,0.08 c -0.13,0.02 -0.28,0.08 -0.44,0.14 -0.07,0.02 -0.14,0.05 -0.22,0.07 0.16,0.5 0.2,0.99 0.24,1.43 0.03,0.36 0.06,0.7 0.14,1.02 l 0.16,0.65 -0.3,-0.01 c 0.36,0.91 0.63,2.03 0.5,3.19 l -0.03,0.33 -0.32,0.09 c -0.06,0.02 -0.11,0.03 -0.17,0.04 0.23,0.42 0.47,0.84 0.71,1.26 0.26,0.45 0.52,0.9 0.75,1.34 l 0.56,1.06 -0.61,-0.18 c 0.33,0.61 0.6,1.25 0.77,1.87 l 0.23,0.81 -0.82,-0.19 c -0.15,-0.03 -0.3,-0.05 -0.45,-0.07 0.28,0.47 0.55,0.91 0.97,1.26 l 0.45,0.37 -0.44,0.39 c -0.1,0.08 -0.19,0.14 -0.28,0.19 0.52,0.8 1.03,1.76 1.32,2.52 l 0.23,0.58 -0.46,0.07 c 1.09,1.22 1.96,3.2 2.62,4.73 l 0.61,1.37 -0.42,-0.03 c 0.24,0.3 0.41,0.65 0.47,1.02 0.12,0.62 -0.06,1.25 -0.48,1.79 1.12,1.12 1.56,1.99 1.37,2.72 -0.1,0.39 -0.38,0.7 -0.82,0.93 0.18,0.24 0.35,0.52 0.52,0.79 0.22,0.35 0.44,0.71 0.59,0.86 l 1.02,1.03 -1.44,-0.19 c -0.22,-0.02 -0.54,0.01 -0.84,0.05 -0.04,0 -0.08,0 -0.11,0.01 0.16,0.74 0.58,1.39 1.01,2.08 0.51,0.8 1.05,1.64 1.16,2.66 l 0.04,0.43 -0.42,0.11 c -0.09,0.02 -0.17,0.03 -0.25,0.04 0.43,0.92 0.78,2.14 0.62,3.55 l -0.1,0.83 -0.09,-0.07 c 0.03,0.21 0.05,0.42 0.08,0.63 0.03,0.27 0.06,0.53 0.11,0.8 l 0.3,1.6 -1.15,-1.16 c -0.01,-0.02 -0.02,-0.03 -0.04,-0.04 0.11,0.32 0.23,0.65 0.35,0.99 0.47,1.35 0.96,2.74 0.88,4.06 l -0.06,0.94 -0.74,-0.57 c 0.08,0.2 0.16,0.4 0.25,0.6 0.43,1.06 0.89,2.15 0.89,3.33 l 0,0.62 -0.49,-0.11 c 0.42,1.05 0.59,2.14 0.49,3.2 l -0.08,0.74 -0.66,-0.35 c -0.08,-0.04 -0.17,-0.08 -0.26,-0.12 0.07,0.21 0.15,0.43 0.22,0.66 0.31,0.92 0.64,1.88 0.51,2.99 l -0.09,0.81 -0.11,-0.07 c 0.63,0.87 1.21,1.88 0.76,3.43 l -0.13,0.311 c 0.22,1.25 0.33,2.5 0.43,3.72 l 0.12,1.3 -0.54,0.021 c -1.08,0.01 -2.16,-0.24 -3.15,-0.771 0,0.04 -0.01,0.07 -0.01,0.11 -0.03,0.28 -0.06,0.54 -0.02,0.73 l 0.16,0.88 -0.83,-0.32 c -0.23,-0.09 -0.49,-0.11 -0.75,-0.14 -0.25,-0.021 -0.51,-0.04 -0.79,-0.12 -0.01,0.149 -0.03,0.3 -0.06,0.439 -0.05,0.34 -0.1,0.7 -0.06,0.94 l 0.1,0.59 -1.02,-0.02 c -0.74,0 -1.29,-0.04 -1.73,-0.431 -0.01,0.101 -0.02,0.181 -0.01,0.24 l 0.03,0.41 -0.41,0.109 c -0.89,0.23 -1.71,0.11 -2.3,-0.329 -0.17,-0.131 -0.31,-0.271 -0.43,-0.44 -0.38,0.61 -0.94,1.01 -1.6,1.11 -0.09,0.01 -0.18,0.02 -0.27,0.02 -0.74,0 -1.41,-0.439 -1.89,-1.22 -0.09,0.07 -0.21,0.14 -0.36,0.189 l -0.39,0.11 -0.19,-0.36 c -0.55,-1.01 -0.54,-2.159 -0.5,-3.279 -1.08,-0.94 -1.4,-2.351 -1.65,-3.641 -0.12,0.221 -0.22,0.42 -0.26,0.53 l -0.47,1.47 -0.48,-1.47 c -0.39,-1.22 -0.56,-2.47 -0.72,-3.67 l -0.47,0.22 -0.17,-0.55 c -0.42,-1.31 -0.43,-2.73 -0.44,-4.1 l -0.37,0.96 0.04,-2.79 c 0,-0.64 0.01,-1.27 0.01,-1.9 0.01,-0.28 0.01,-0.55 0.01,-0.82 l -0.43,0.23 -0.16,-0.61 c -0.43,-1.62 -0.71,-3.69 -0.8,-5.74 l -0.26,0.33 -0.32,-0.78 c -0.32,-0.8 -0.39,-1.78 -0.38,-2.82 l -0.09,-0.02 -0.1,-0.22 c -0.65,-1.37 -0.38,-2.73 -0.13,-4.05 0.06,-0.3 0.12,-0.6 0.16,-0.89 l -0.31,0.16 -0.11,-0.68 c -0.19,-1.13 -0.05,-2.22 0.09,-3.27 0.01,-0.09 0.02,-0.18 0.03,-0.27 l -0.4,-0.47 c -0.99,-1.16 -0.92,-2.85 -0.86,-4.34 0.02,-0.5 0.03,-0.97 0.02,-1.41 -0.69,-0.69 -0.75,-1.76 -0.63,-2.85 l -0.34,-0.53 c -1.14,-1.8 -0.83,-4.49 -0.39,-6.8 l -0.22,-0.54 c -1,-2.36 -0.63,-6.05 -0.05,-9.36 l -0.01,-1.35 c -0.01,-0.93 0.09,-1.87 0.19,-2.79 0.11,-1 0.21,-1.96 0.18,-2.89 -0.2,0.09 -0.41,0.17 -0.61,0.24 -0.24,0.09 -0.54,0.2 -0.63,0.26 l -0.61,0.46 -0.18,-0.73 c -0.59,-2.34 -0.28,-4.5 0.01,-6.59 0.2,-1.41 0.41,-2.86 0.33,-4.36 -0.03,0 -0.06,0 -0.09,0 l -0.44,0.01 -0.06,-0.428 z"
             id="path14-2" /><path
             inkscape:connector-curvature="0"
             d="m 168.36,141.53 c 0.5,1.97 0.91,3.99 0.9,6.12 -0.01,0.53 -0.05,1.08 -0.16,1.63 -0.09,0.55 -0.31,1.12 -0.57,1.61 -0.51,0.93 -1.02,1.75 -1.51,2.62 -3.99,6.8 -6.07,14.71 -6.05,22.68 0.01,1.99 0.1,3.99 0.34,5.96 0.22,1.98 0.56,3.95 0.9,5.92 0.47,2.74 1.04,5.45 1.65,8.169 -0.27,0.08 -0.53,0.181 -0.78,0.28 -0.52,-2.78 -1.01,-5.56 -1.48,-8.35 -0.66,-3.95 -1.16,-7.95 -1.19,-11.97 -0.06,-4.02 0.27,-8.06 1.14,-12.02 0.86,-3.95 2.29,-7.79 4.2,-11.37 0.47,-0.89 0.99,-1.77 1.43,-2.62 0.4,-0.76 0.51,-1.61 0.53,-2.56 0,-1.87 -0.4,-3.82 -0.85,-5.72 -0.47,-1.91 -1.06,-3.81 -1.7,-5.68 -0.32,-0.92 -0.67,-1.91 -0.94,-2.88 -0.28,-0.98 -0.53,-1.95 -0.78,-2.93 -1.85,-7.82 -3.26,-15.7 -4.47,-23.62 l 0.18,-0.03 2.71,11.69 c 0.9,3.89 1.86,7.78 2.89,11.62 0.26,0.96 0.53,1.92 0.83,2.86 0.28,0.95 0.63,1.83 0.98,2.8 0.67,1.901 1.29,3.821 1.8,5.791 z"
             id="path16-0" /><path
             inkscape:connector-curvature="0"
             d="m 169.29,85.69 c 0.42,-2.69 0.23,-5.15 0.04,-7.71 -0.05,-0.62 -0.1,-1.25 -0.14,-1.89 -0.1,-0.15 -0.23,-0.27 -0.4,-0.36 -0.04,0.03 -0.07,0.06 -0.11,0.09 -0.13,0.11 -0.26,0.22 -0.41,0.31 l -0.43,0.28 -0.27,-0.44 c -0.32,-0.54 -0.88,-0.97 -1.4,-1.34 -0.01,0.09 -0.02,0.18 -0.03,0.27 -0.06,0.48 -0.12,0.97 -0.06,1.34 l 0.67,4.01 -1.62,-3.73 c -0.07,-0.17 -0.29,-0.44 -0.5,-0.69 -0.1,-0.13 -0.21,-0.25 -0.3,-0.38 -0.86,0.04 -1.73,0.23 -2.4,0.53 0.22,0.24 0.41,0.54 0.4,0.91 -0.02,0.83 -1,1.36 -2.04,1.92 -0.39,0.21 -0.83,0.45 -1.18,0.69 0.09,0.01 0.17,0.02 0.25,0.03 0.45,0.06 0.86,0.11 1.19,0.06 l 1.54,-0.25 -1.11,1.1 c -0.22,0.22 -0.59,0.49 -1.01,0.8 -0.53,0.39 -2.12,1.57 -2.06,1.97 0,0 0.16,0.26 1.37,0.36 l 1.06,0.09 -0.74,0.76 c -0.48,0.49 -1.31,0.86 -2.1,1.23 -0.73,0.33 -1.84,0.83 -1.88,1.2 -0.01,0.11 0.14,0.35 0.58,0.68 l 0.75,0.56 -0.88,0.31 c -1.14,0.4 -2.57,1.71 -2.63,2.66 -0.02,0.23 0.04,0.59 0.68,0.91 l 0.83,0.42 -0.8,0.46 c -0.18,0.11 -0.37,0.21 -0.56,0.32 -1,0.55 -1.88,1.04 -2.22,1.83 0.06,0 0.12,-0.01 0.18,-0.02 0.53,-0.06 1.03,-0.12 1.42,-0.36 l 4.15,-2.5 -3.55,3.29 c -0.71,0.66 -1.51,1.16 -2.28,1.65 -0.61,0.38 -1.19,0.75 -1.73,1.18 0.33,0.19 0.64,0.33 1.26,0.26 l 2.38,-0.28 -2.07,1.21 c -0.35,0.2 -0.73,0.38 -1.1,0.54 -0.95,0.43 -1.55,0.74 -1.74,1.33 0.14,0.07 0.29,0.14 0.42,0.21 0.33,0.16 0.64,0.31 0.94,0.36 l -0.16,0.99 c -0.9,-0.15 -1.75,0.06 -2.65,0.28 -0.04,1.14 0.91,1.56 1.51,1.71 l 1.11,0.28 -0.95,0.63 c -0.99,0.65 -1.67,1.6 -1.61,2.26 0.04,0.39 0.34,0.71 0.91,0.95 l 0.55,0.24 -0.82,1.24 c -0.25,0.37 -0.5,0.75 -0.75,1.14 0.23,-0.03 0.44,-0.09 0.65,-0.21 l 0.71,-0.43 0.04,0.83 c 0.01,0.24 0.09,1.04 0.44,1.01 0.49,-0.01 1.31,-0.81 1.5,-1.71 0.01,-0.13 0.02,-0.26 0.04,-0.39 l 1,0.11 c -0.01,0.13 -0.02,0.26 -0.05,0.39 0,0.26 0.02,0.55 0.05,0.84 0,0.04 0.01,0.07 0.01,0.11 0.77,-0.57 1.33,-1.43 1.91,-2.32 0.35,-0.54 0.72,-1.11 1.14,-1.62 l 0.92,-1.1 -0.03,1.43 c -0.01,0.15 0.01,0.31 0.03,0.48 0.78,-0.73 1.41,-1.72 1.7,-2.7 l 0.52,-1.75 0.45,1.77 c 0.01,0.06 0.03,0.12 0.05,0.19 0.65,-0.89 1.15,-1.98 1.61,-3.03 l 0.81,-1.89 0.14,2.06 c 0.02,0.22 0.08,0.45 0.14,0.68 1.15,-1.18 1.98,-3.07 1.93,-4.55 l -0.11,-3.24 0.93,2.64 c 0.16,-0.4 0.29,-0.82 0.42,-1.24 0.14,-0.46 0.28,-0.94 0.46,-1.37 l 0.77,-1.83 0.19,1.98 c 0,0.01 0.01,0.02 0.01,0.03 0.13,-0.75 0.28,-1.53 0.64,-2.2 l 0.88,-1.64 c 0.15,-1.39 0.18,-2.83 0.13,-3.58 l -0.27,-3.85 1.24,3.65 c 0.09,0.26 0.22,0.5 0.37,0.72 -0.03,-0.55 -0.1,-1.11 -0.17,-1.69 -0.14,-1.15 -0.28,-2.35 -0.07,-3.55 l 0.24,-1.44 0.69,1.29 c 0.19,0.35 0.33,0.78 0.44,1.22 z m 1.03,-7.79 c 0.26,3.4 0.51,6.62 -0.6,10.49 l -0.55,1.94 c 0,0.35 -0.02,0.7 -0.07,1.05 l -0.18,1.39 -0.74,-1.19 c -0.09,-0.15 -0.22,-0.31 -0.35,-0.49 -0.06,1.54 -0.26,3.45 -0.68,4.67 l -0.21,0.6 -0.54,-0.34 c -0.02,-0.02 -0.04,-0.03 -0.05,-0.04 -0.08,0.32 -0.15,0.66 -0.21,1.02 -0.14,0.75 -0.28,1.53 -0.63,2.23 l -0.96,1.91 0.02,-2.14 c 0,-0.09 -0.01,-0.19 -0.02,-0.29 -0.26,0.82 -0.56,1.63 -1.1,2.27 l -0.07,0.08 c -0.35,1.73 -1.43,3.58 -2.77,4.58 l -0.65,0.49 -0.14,-0.8 c -0.01,-0.04 -0.02,-0.08 -0.03,-0.12 -0.26,0.53 -0.55,1.06 -0.87,1.55 -0.27,0.42 -0.57,0.8 -0.9,1.15 l -0.71,0.74 -0.1,-0.67 c -0.55,0.97 -1.33,1.84 -2.22,2.42 l -0.81,0.54 0.04,-0.98 c 0,-0.01 0,-0.03 0,-0.04 -0.1,0.15 -0.2,0.3 -0.29,0.44 -0.79,1.21 -1.6,2.45 -3.01,3.08 l -0.74,0.34 0.04,-0.82 c -0.46,0.49 -1.03,0.82 -1.58,0.83 l -0.01,0 c -0.08,0 -0.19,-0.01 -0.3,-0.04 -0.35,0.55 -1,1.98 -1.1,3.1 0.15,0 0.32,0.01 0.51,0.05 l 0.32,0.08 0.05,0.33 c 0.27,1.67 -0.2,3.03 -0.65,4.34 -0.14,0.42 -0.29,0.84 -0.41,1.27 0.35,-0.06 0.7,-0.13 0.94,-0.29 l 0.63,-0.41 0.14,0.74 c 0.28,1.5 -0.08,3.11 -1.09,4.9 1.01,1.23 -0.24,2.99 -1.17,4.3 -0.17,0.24 -0.34,0.47 -0.48,0.68 1.14,1.25 -0.16,3.2 -1.13,4.65 -0.09,0.13 -0.18,0.26 -0.26,0.39 0.05,0.01 0.11,0.03 0.17,0.05 l 0.28,0.11 0.04,0.3 c 0.16,1.35 -0.42,2.42 -0.94,3.37 -0.16,0.3 -0.32,0.59 -0.45,0.87 l 0.4,0.08 -0.02,0.43 c -0.08,1.62 -0.95,2.98 -1.8,4.3 -0.24,0.37 -0.49,0.76 -0.71,1.14 0.01,0 0.02,0.01 0.03,0.02 l 0.3,0.18 -0.07,0.34 c -0.71,3.4 -2.15,6.64 -3.64,9.79 0.38,-0.63 0.76,-1.27 1.15,-1.9 -0.34,0.79 -0.69,1.57 -1.07,2.33 -0.75,1.52 -1.21,3.12 -1.39,4.73 l -1.58,2.95 -1.61,3.07 c -0.27,0.51 -0.53,1.03 -0.77,1.53 -0.21,0.45 -0.37,0.97 -0.52,1.51 -0.57,2.16 -1,4.44 -1.21,6.67 -0.05,0.55 -0.09,1.11 -0.08,1.63 -0.01,0.28 0.04,0.41 0.04,0.91 0,0.37 -0.05,0.68 -0.1,1 -0.23,1.23 -0.57,2.35 -0.93,3.47 -0.72,2.24 -1.53,4.42 -2.34,6.6 -0.4,1.09 -0.83,2.17 -1.19,3.25 -0.09,0.28 -0.15,0.5 -0.24,0.82 -0.12,0.34 -0.24,0.69 -0.65,1.01 -0.2,0.16 -0.55,0.25 -0.82,0.16 -0.28,-0.07 -0.47,-0.229 -0.6,-0.38 -0.26,-0.3 -0.39,-0.61 -0.5,-0.92 -0.39,-1.23 -0.32,-2.44 -0.2,-3.62 0.06,-0.5 0.14,-0.99 0.25,-1.48 0.13,-0.66 0.3,-1.31 0.5,-1.95 l 0.17,0.04 c -0.19,1.14 -0.34,2.291 -0.36,3.43 -0.01,1.13 0.08,2.3 0.47,3.27 0.1,0.24 0.23,0.46 0.36,0.58 0.04,0.051 0.08,0.07 0.11,0.07 0.01,0.01 0.02,0.01 0.02,0.01 0,-0.01 -0.01,-0.01 -0.01,-0.01 l 0,-0.01 c 0.06,-0.05 0.17,-0.271 0.21,-0.48 0.06,-0.229 0.13,-0.59 0.2,-0.859 0.29,-1.15 0.63,-2.261 0.97,-3.38 0.69,-2.221 1.41,-4.42 2.03,-6.63 0.3,-1.11 0.61,-2.22 0.78,-3.28 0.04,-0.26 0.07,-0.52 0.07,-0.73 0.01,-0.09 -0.06,-0.53 -0.07,-0.83 -0.02,-0.65 0.01,-1.25 0.05,-1.85 0.24,-2.4 0.65,-4.71 1.33,-7.02 0.17,-0.57 0.37,-1.17 0.67,-1.77 0.27,-0.54 0.55,-1.05 0.83,-1.57 l 1.7,-3.05 c 0.51,-0.92 1.05,-1.83 1.59,-2.74 -0.06,-0.06 -0.12,-0.13 -0.17,-0.21 l -0.17,-0.23 0.12,-0.26 c 0.43,-0.94 0.89,-1.89 1.36,-2.87 1.61,-3.35 3.28,-6.8 4.12,-10.39 -0.04,-0.01 -0.08,-0.02 -0.13,-0.04 l -0.51,-0.2 0.24,-0.49 c 0.33,-0.66 0.73,-1.29 1.13,-1.9 0.73,-1.13 1.42,-2.2 1.6,-3.38 -0.05,-0.01 -0.09,-0.02 -0.14,-0.04 l -0.52,-0.12 0.16,-0.52 c 0.19,-0.55 0.46,-1.06 0.73,-1.55 0.43,-0.79 0.83,-1.54 0.84,-2.4 -0.14,0 -0.31,-0.01 -0.5,-0.06 l -0.59,-0.18 0.3,-0.54 c 0.17,-0.33 0.43,-0.71 0.7,-1.12 1.08,-1.61 1.9,-2.99 1.04,-3.59 l -0.38,-0.27 0.23,-0.39 c 0.19,-0.33 0.46,-0.71 0.74,-1.11 1.05,-1.47 1.8,-2.65 1.05,-3.24 l -0.34,-0.27 0.22,-0.38 c 0.88,-1.45 1.28,-2.74 1.23,-3.92 -0.2,0.06 -0.4,0.1 -0.6,0.14 -0.25,0.04 -0.49,0.09 -0.64,0.16 l -0.9,0.46 0.18,-0.99 c 0.15,-0.79 0.39,-1.51 0.63,-2.21 0.39,-1.14 0.76,-2.22 0.66,-3.48 -0.17,0 -0.37,-0.01 -0.59,-0.07 l -0.34,-0.1 -0.02,-0.35 c -0.09,-1.51 0.86,-3.5 1.31,-4.18 -0.1,-0.17 -0.19,-0.38 -0.25,-0.64 -0.23,0.06 -0.45,0.08 -0.66,0.11 -0.25,0.03 -0.46,0.05 -0.64,0.13 l -1.39,0.62 0.75,-1.32 c 0.42,-0.74 0.9,-1.46 1.37,-2.16 l 0.18,-0.27 c -0.73,-0.48 -0.94,-1.07 -0.98,-1.51 -0.09,-0.98 0.56,-1.93 1.32,-2.62 -1.05,-0.57 -1.56,-1.6 -1.34,-2.84 l 0.06,-0.32 0.64,-0.16 c 0.23,-0.05 0.46,-0.11 0.69,-0.16 l -0.08,-0.03 0.03,-0.39 c 0.08,-1.33 1.06,-1.91 2.04,-2.37 -0.11,-0.05 -0.22,-0.12 -0.32,-0.17 -0.14,-0.09 -0.27,-0.17 -0.43,-0.23 l -0.78,-0.26 0.59,-0.57 c 0.76,-0.73 1.61,-1.26 2.43,-1.78 0.07,-0.04 0.14,-0.09 0.21,-0.13 -0.04,0.01 -0.08,0.02 -0.12,0.03 l -0.66,0.19 0.03,-0.7 c 0.08,-1.69 1.47,-2.52 2.75,-3.23 -0.49,-0.49 -0.55,-1.04 -0.53,-1.38 0.08,-1.24 1.38,-2.52 2.57,-3.2 -0.29,-0.34 -0.42,-0.69 -0.38,-1.05 0.1,-0.93 1.24,-1.45 2.45,-2 0.29,-0.13 0.58,-0.27 0.85,-0.4 -0.47,-0.16 -0.86,-0.42 -0.99,-0.86 -0.28,-1 1.07,-2.03 2.32,-2.95 -0.01,-0.01 -0.01,-0.01 -0.02,-0.01 -0.42,-0.05 -0.81,-0.1 -1.14,-0.06 l -0.77,0.1 0.24,-0.75 c 0.26,-0.81 1.27,-1.36 2.25,-1.88 0.52,-0.29 1.5,-0.81 1.51,-1.07 0,0 -0.01,-0.18 -0.56,-0.51 l -0.65,-0.39 0.61,-0.44 c 0.88,-0.64 2.14,-0.95 3.17,-1.04 0.12,-0.39 0.36,-0.46 0.54,-0.45 l 0.38,0.02 0.11,0.46 c 0.01,0.03 0.02,0.07 0.03,0.13 0.06,0.07 0.11,0.15 0.18,0.22 0,-0.02 0,-0.05 0,-0.07 0.05,-0.38 0.09,-0.74 0.08,-1.05 l -0.04,-1 1.15,0.79 c 0.57,0.38 1.25,0.84 1.77,1.47 0.12,-0.1 0.24,-0.19 0.38,-0.28 l 0.21,-0.13 0.24,0.09 c 0.57,0.24 0.93,0.59 1.17,0.98 l 0.07,-0.01 c 0,0.05 0,0.1 0,0.15 0.2,0.38 0.28,0.78 0.33,1.15 l -0.25,0.03 c 0.03,0.309 0.05,0.619 0.07,0.919 z"
             id="path18-2" /><path
             inkscape:connector-curvature="0"
             d="m 123.29,200.541 c 0.36,-0.091 0.65,-0.16 0.9,-0.48 l 0.51,-0.63 0.34,0.74 c 0.11,0.229 0.32,0.45 0.53,0.66 0.03,0.029 0.06,0.06 0.1,0.1 0.1,-0.1 0.2,-0.2 0.31,-0.3 0.26,-0.24 0.56,-0.51 0.65,-0.71 l 0.37,-0.75 0.49,0.67 c 0.76,1.05 1.78,1.64 2.6,1.49 0.83,-0.141 1.25,-1 1.45,-1.69 l 0.98,0.22 c -0.05,0.28 -0.02,0.58 0.01,0.91 0,0.061 0,0.12 0.01,0.18 0.67,-0.31 1.24,-0.869 1.84,-1.46 0.31,-0.3 0.63,-0.609 0.96,-0.89 l 0.41,-0.34 0.32,0.42 c 0.6,0.81 1.34,1.2 2.16,1.14 0.95,-0.09 1.85,-0.8 2.42,-1.909 l 0.66,-1.311 0.27,1.44 c 0.15,0.77 0.42,1.189 0.81,1.26 1,0.17 2.83,-1.561 3.54,-2.771 l 0.81,-1.399 0.12,1.609 c 0.09,1.271 1.53,2.07 2.88,2.11 0.5,0.021 2.21,-0.06 2.44,-1.8 l 0.36,-2.64 0.62,2.59 c 0.05,0.199 0.24,0.88 0.56,0.81 0.38,-0.02 1.03,-0.729 1.12,-1.74 l 1,0.04 c 0.01,0.521 0.13,0.891 0.34,1.011 0.14,0.079 0.35,0.05 0.57,-0.08 0.42,-0.25 0.84,-0.86 0.82,-1.66 l -0.02,-1.601 0.93,1.301 c 0.58,0.8 0.69,0.779 2.04,0.58 l 0.29,-0.04 0.18,0.229 c 0.11,0.14 0.2,0.32 0.28,0.49 0.01,0.03 0.03,0.06 0.04,0.09 0.42,-0.07 0.82,-0.15 1.07,-0.2 l 0.19,-0.04 0.08,0.41 0.11,0.57 -0.18,0.04 c -0.33,0.06 -0.91,0.18 -1.45,0.26 l -0.26,0.03 -0.18,-0.19 c -0.13,-0.14 -0.22,-0.33 -0.32,-0.54 -0.01,-0.02 -0.02,-0.05 -0.04,-0.07 -0.83,0.12 -1.38,0.15 -1.93,-0.25 -0.21,0.61 -0.61,1.131 -1.14,1.44 -0.53,0.32 -1.11,0.36 -1.57,0.1 -0.12,-0.069 -0.24,-0.159 -0.36,-0.29 -0.39,0.641 -0.95,1.07 -1.54,1.11 -0.23,0.021 -0.66,-0.02 -1.04,-0.42 -0.57,0.96 -1.66,1.521 -3.04,1.46 -1.39,-0.04 -2.9,-0.72 -3.54,-1.939 -0.98,1.21 -2.61,2.6 -3.94,2.38 -0.42,-0.07 -0.92,-0.32 -1.28,-1.011 -0.71,0.891 -1.64,1.45 -2.63,1.53 -1,0.09 -1.94,-0.3 -2.7,-1.11 -0.19,0.171 -0.36,0.341 -0.54,0.511 -0.83,0.819 -1.7,1.66 -2.93,1.91 l -0.65,0.13 0.05,-0.61 c -0.47,0.45 -0.96,0.62 -1.29,0.68 -1.05,0.19 -2.22,-0.34 -3.16,-1.37 -0.14,0.141 -0.29,0.28 -0.44,0.41 -0.22,0.21 -0.47,0.44 -0.55,0.59 l -0.43,0.811 -0.45,-0.811 c -0.07,-0.119 -0.21,-0.26 -0.37,-0.42 -0.12,-0.119 -0.25,-0.25 -0.37,-0.39 -0.33,0.21 -0.66,0.3 -0.95,0.37 -0.21,0.06 -0.4,0.11 -0.55,0.2 l -0.58,0.39 -0.16,-0.6 c -0.06,0.06 -0.12,0.109 -0.18,0.17 -0.23,0.21 -0.49,0.45 -0.58,0.58 l -0.52,0.779 -0.36,-0.869 c -0.24,-0.591 -0.36,-1.25 -0.36,-1.931 -0.56,0.5 -1.14,0.931 -1.63,1.181 l -0.68,0.35 -0.05,-0.76 c -0.1,-1.57 0.66,-2.75 1.39,-3.891 0.3,-0.47 0.59,-0.92 0.81,-1.38 l -1.16,0.49 0.67,-1.24 c 0.72,-1.34 2.29,-3.12 3.11,-3.71 l 0.58,0.82 c -0.39,0.28 -1.08,0.97 -1.71,1.76 l -0.15,0.94 c -0.16,1.08 -0.74,1.979 -1.31,2.859 -0.49,0.771 -0.97,1.521 -1.16,2.351 0.56,-0.431 1.15,-0.99 1.6,-1.54 l 1.49,-1.811 -0.62,2.261 c -0.2,0.72 -0.23,1.439 -0.12,2.1 0.03,-0.03 0.06,-0.05 0.09,-0.08 0.29,-0.27 0.66,-0.6 0.76,-0.79 l 0.49,-0.94 0.41,0.98 c 0.06,0.14 0.09,0.27 0.1,0.4 0.05,-0.01 0.09,-0.02 0.13,-0.039 z"
             id="path20-3" /></g><g
           id="g22" /></g></g></g></svg>