<?xml version="1.0" encoding="UTF-8" standalone="no"?>
<!-- Created with Inkscape (http://www.inkscape.org/) -->

<svg
   xmlns:dc="http://purl.org/dc/elements/1.1/"
   xmlns:cc="http://creativecommons.org/ns#"
   xmlns:rdf="http://www.w3.org/1999/02/22-rdf-syntax-ns#"
   xmlns:svg="http://www.w3.org/2000/svg"
   xmlns="http://www.w3.org/2000/svg"
   xmlns:sodipodi="http://sodipodi.sourceforge.net/DTD/sodipodi-0.dtd"
   xmlns:inkscape="http://www.inkscape.org/namespaces/inkscape"
   id="svg2"
   version="1.1"
   inkscape:version="0.91 r13725"
   width="308"
   height="672"
   xml:space="preserve"
   sodipodi:docname="sc-w-1-2.svg"><metadata
     id="metadata8"><rdf:RDF><cc:Work
         rdf:about=""><dc:format>image/svg+xml</dc:format><dc:type
           rdf:resource="http://purl.org/dc/dcmitype/StillImage" /><dc:title /></cc:Work></rdf:RDF></metadata><defs
     id="defs6" /><sodipodi:namedview
     pagecolor="#ffffff"
     bordercolor="#666666"
     borderopacity="1"
     objecttolerance="10"
     gridtolerance="10"
     guidetolerance="10"
     inkscape:pageopacity="0"
     inkscape:pageshadow="2"
     inkscape:window-width="1920"
     inkscape:window-height="1015"
     id="namedview4"
     showgrid="false"
     inkscape:zoom="0.76293261"
     inkscape:cx="-312.8844"
     inkscape:cy="303.62787"
     inkscape:window-x="0"
     inkscape:window-y="0"
     inkscape:window-maximized="1"
     inkscape:current-layer="g10" /><g
     id="g10"
     inkscape:groupmode="layer"
     inkscape:label="ink_ext_XXXXXX"
     transform="matrix(1.25,0,0,-1.25,0,672.00001)"><g
       transform="matrix(1.5322964,0,0,-1.5185271,-292.30751,576.35717)"
       id="g3"><g
         id="XMLID_1_"><g
           id="g6"><path
             style="fill:#dadada"
             inkscape:connector-curvature="0"
             d="m 274.42,77.46 0.05,0.51 c -0.58,0.32 -1.05,1.83 -0.899,3.72 -0.69,0.56 -1.62,1.52 -1.761,2.66 -0.979,0.93 -1.8,2.14 -1.17,4.07 -1.63,0.51 -2.05,1.71 -2.199,2.79 -0.48,0.51 -0.66,1.04 -0.471,1.45 0.04,0.07 0.08,0.14 0.141,0.21 -0.351,0.35 -0.551,0.71 -0.431,1.09 0.07,0.22 0.221,0.37 0.44,0.48 -0.51,0.36 -0.811,0.74 -0.851,1.22 -0.039,0.52 0.24,0.99 0.75,1.48 -0.75,0.1 -1.229,0.34 -1.52,0.74 -0.39,0.52 -0.38,1.21 -0.16,2.06 -0.229,-0.02 -0.439,0.01 -0.64,0.14 -0.48,0.32 -0.521,0.96 -0.45,1.55 -0.86,0.86 -1.49,2.02 -1.86,3.45 -0.34,1.25 -0.45,2.63 -0.359,4.27 -0.42,-0.19 -0.87,-0.29 -1.3,-0.12 -0.11,0.04 -0.19,0.12 -0.28,0.19 l -0.3,-1.33 -0.18,0.03 c 0.08,0.51 0.17,1.01 0.24,1.51 -0.33,0.41 -0.51,1.01 -0.63,1.66 -0.4,0.39 -0.51,1.2 -0.45,1.97 -1.89,1.05 -2.89,2.15 -3.4,3.75 -0.88,-0.34 -1.56,-0.25 -2.12,0.29 -0.16,-0.26 -0.35,-0.48 -0.58,-0.62 l 0.03,-0.04 -0.79,-0.61 -0.14,0.18 c -0.07,0.09 -0.15,0.19 -0.22,0.29 0.01,-0.77 -0.13,-1.35 -0.56,-1.73 -0.36,-0.33 -0.87,-0.46 -1.6,-0.41 0.4,-0.64 0.48,-1.13 0.28,-1.54 -0.21,-0.45 -0.7,-0.65 -1.29,-0.74 1.23,-1.27 1.68,-2.48 0.84,-4.16 0.05,-0.1 0.08,-0.2 0.08,-0.31 0.04,-0.47 -0.29,-1.01 -1.08,-1.77 0.77,-0.05 1.26,-0.26 1.56,-0.65 0.47,-0.59 0.34,-1.45 0.05,-2.39 0.33,-0.04 0.57,-0.17 0.7,-0.37 0.14,-0.2 0.14,-0.45 0.01,-0.65 -0.08,-0.13 -0.2,-0.22 -0.36,-0.29 0.68,-0.75 0.81,-1.38 0.77,-1.82 -0.06,-0.65 -0.49,-1.15 -1.08,-1.57 0.82,-0.22 1.33,-0.53 1.63,-0.99 0.38,-0.56 0.41,-1.28 0.24,-2.24 0.14,0.02 0.28,0.01 0.42,-0.05 0.54,-0.23 0.62,-0.94 0.61,-1.77 0.69,-0.37 1.04,-1.31 1.09,-2.2 0.05,-0.84 -0.18,-1.65 -0.7,-2.49 0.99,0 1.72,-0.17 2.12,-0.7 0.3,-0.41 0.35,-0.92 0.23,-1.56 0.29,0.13 0.55,0.14 0.79,0.01 0.4,-0.22 0.48,-0.69 0.39,-1.45 0.51,0.13 1.05,0.17 1.36,-0.07 0.18,-0.14 0.26,-0.36 0.23,-0.58 -0.02,-0.11 -0.06,-0.23 -0.18,-0.38 0.72,-0.17 1.41,-0.52 1.57,-1.25 0.51,-0.47 0.48,-1.17 0.26,-1.86 0.51,0.24 0.9,0.3 1.24,0.24 0.21,-0.04 0.39,-0.14 0.55,-0.28 0.6,-0.07 0.95,-0.55 1.189,-1.15 l 0.091,0.04 0.229,-0.19 c 0.16,-0.13 0.24,-0.2 0.141,-0.84 0,-0.03 0,-0.05 0,-0.08 0.35,0.16 0.689,0.22 1,0.18 0.34,-0.04 0.64,-0.19 0.89,-0.45 l 0.09,0 0.16,-0.28 c 0.01,-0.02 0.02,-0.04 0.03,-0.07 1.42,0.5 3.159,-0.2 4.689,-1.02 0.881,0.81 2.191,0.91 2.831,0.84 z"
             id="path8" /><path
             style="fill:#dadada"
             inkscape:connector-curvature="0"
             d="m 317.68,219.87 c -1.319,-0.21 -2,0.3 -2.26,0.729 -0.55,0.91 -0.26,2.521 0.89,4.891 -1.01,0.14 -1.47,0.62 -1.68,1.04 -0.479,0.96 -0.09,2.39 1.17,4.25 -1.02,0.109 -1.7,0.43 -2.109,1 -0.521,0.7 -0.58,1.68 -0.181,3.25 -0.189,-0.05 -0.359,-0.07 -0.52,-0.07 -0.95,0 -1.271,0.8 -1.391,1.49 -0.42,-0.13 -0.819,-0.12 -1.119,0.04 -0.931,-0.15 -1.511,0 -1.9,0.43 -0.18,0.2 -0.3,0.44 -0.36,0.75 -0.58,-0.38 -1.17,-0.65 -1.75,-0.65 -0.88,0 -1.529,0.601 -2.06,1.37 -0.351,-0.84 -0.79,-1.34 -1.391,-1.569 -0.229,-0.09 -0.479,-0.141 -0.729,-0.141 -0.5,0 -1.021,0.181 -1.521,0.53 -0.25,-0.479 -0.619,-0.67 -0.939,-0.67 -0.45,0 -0.83,0.32 -1.1,0.87 -0.7,-0.72 -1.271,-1.021 -1.87,-1.021 -0.591,0 -1.15,0.301 -1.79,0.98 -0.471,-0.96 -1.04,-1.47 -1.721,-1.53 0,-0.08 -0.02,-0.149 -0.04,-0.21 -0.079,-0.2 -0.26,-0.439 -0.68,-0.54 0.33,-0.479 0.51,-0.96 0.34,-1.41 -0.09,-0.239 -0.25,-0.42 -0.46,-0.55 l 0,-0.01 0.351,-0.17 -0.4,-0.05 -0.1,-0.521 -0.2,0 c 0.399,-0.68 0.6,-1.41 0.189,-2.09 l 0.04,-0.04 -0.14,-0.14 c -0.01,-0.051 -0.02,-0.101 -0.03,-0.13 -0.109,-0.301 -0.399,-0.4 -0.62,-0.45 0.86,-1.54 1.07,-2.561 0.7,-3.261 -0.319,-0.63 -1.02,-0.93 -2.18,-0.899 1.54,-2.12 2.08,-3.71 1.72,-4.95 -0.24,-0.81 -0.85,-1.439 -1.87,-1.9 1.92,-3.02 1.9,-5.46 -0.08,-7.619 1.181,-2.431 1.15,-4.79 -0.08,-7.381 0.551,-2.489 0.141,-4.609 -1.149,-6.02 0.82,-2.54 0.56,-4.38 -0.771,-5.48 0.98,-1.68 0.82,-3.209 -0.46,-4.549 1.09,-1.88 1.15,-3.8 0.2,-5.85 0.84,-2.23 0.8,-4.49 -0.11,-6.57 1.03,-2.76 0.841,-5.11 -0.539,-6.83 1.029,-2.01 1.35,-3.69 0.939,-5.01 -0.26,-0.81 -0.79,-1.48 -1.57,-1.99 1.511,-2.22 2.061,-3.98 1.67,-5.36 -0.22,-0.79 -0.729,-1.42 -1.529,-1.89 1.569,-2.17 2.13,-3.85 1.72,-5.1 -0.22,-0.66 -0.71,-1.17 -1.44,-1.51 1.5,-2.05 2,-3.51 1.561,-4.57 -0.25,-0.6 -0.78,-1.02 -1.59,-1.27 1.52,-1.64 2.09,-2.82 1.85,-3.79 -0.149,-0.6 -0.609,-1.08 -1.39,-1.44 1.09,-1.09 1.64,-2.18 1.63,-3.26 -0.01,-1.01 -0.5,-1.98 -1.47,-2.89 1.239,-1.51 1.77,-2.97 1.54,-4.25 -0.181,-0.98 -0.79,-1.8 -1.801,-2.45 1.521,-2.04 2.141,-3.75 1.9,-5.24 -0.15,-0.99 -0.69,-1.85 -1.6,-2.57 1.449,-1.93 2.02,-3.59 1.71,-4.95 -0.17,-0.75 -0.641,-1.38 -1.341,-1.84 1.24,-1.97 1.66,-3.48 1.28,-4.62 -0.21,-0.63 -0.66,-1.14 -1.34,-1.51 1.13,-1.36 1.54,-2.41 1.24,-3.18 -0.15,-0.38 -0.44,-0.66 -0.87,-0.83 0.63,-0.73 0.87,-1.37 0.71,-1.94 -0.11,-0.43 -0.43,-0.76 -0.94,-0.99 1.091,-1.18 1.471,-2.08 1.2,-2.8 -0.189,-0.49 -0.64,-0.75 -1.09,-0.88 1.51,-1.45 2.08,-2.48 1.92,-3.42 -0.12,-0.71 -0.649,-1.21 -1.25,-1.59 1.42,-0.57 2.14,-1.15 2.42,-1.89 0.26,-0.69 0.08,-1.44 -0.26,-2.18 0.53,0.03 0.94,-0.12 1.21,-0.44 0.37,-0.43 0.38,-1.08 0.31,-1.71 0.54,-0.37 0.9,-0.8 1.101,-1.15 0.76,0.16 1.58,0.03 2.18,-0.39 0.69,0.61 1.25,1.01 1.771,1.27 0.68,0.34 1.3,0.43 1.88,0.29 1.109,1.22 2.22,1.74 3.64,1.74 0.37,0 0.771,-0.03 1.22,-0.11 0.101,0.74 0.44,1.25 0.74,1.57 0.17,0.18 0.41,0.37 0.63,0.49 0.16,0.54 0.62,1.28 1.41,1.88 -0.18,0.7 -0.26,1.47 0.11,2.14 0.27,0.49 0.74,0.87 1.43,1.13 -0.71,2.12 0.53,3.68 2.09,5.07 -1.05,0.54 -1.689,1.24 -1.96,2.12 -0.45,1.44 0.12,3.3 1.87,5.95 -1.05,0.34 -1.37,1.08 -1.47,1.55 -0.141,0.69 0.02,1.48 0.43,2.15 -0.25,0.35 -0.26,0.65 -0.22,0.86 0.03,0.13 0.09,0.29 0.229,0.44 -0.33,0.39 -0.6,0.85 -0.56,1.39 0.02,0.42 0.22,0.81 0.61,1.21 -0.57,0.25 -1.091,0.6 -1.33,1.16 -0.221,0.52 -0.19,1.12 0.109,1.89 -0.35,0.07 -0.62,0.24 -0.81,0.5 -0.271,0.37 -0.32,0.89 -0.15,1.56 -1.149,0.8 -1.819,1.67 -2.09,2.7 -0.229,0.92 -0.14,1.95 0.29,3.17 0.04,0.14 0.1,0.29 0.16,0.44 -0.101,-0.08 -0.19,-0.16 -0.271,-0.23 l -0.29,-0.29 -0.34,0.22 c -0.76,0.51 -1.189,1.07 -1.31,1.71 -0.101,0.58 0.07,1.13 0.35,1.65 l -0.05,-0.02 0.21,0.3 c 0.061,0.1 0.13,0.2 0.2,0.3 -0.34,-0.02 -0.71,-0.02 -1.12,-0.02 l -0.81,0 2.989,5.97 c -0.569,-0.05 -0.68,-0.19 -0.68,-0.47 l -1,0 c 0,0.19 -0.05,0.46 -0.11,0.75 -0.189,1 -0.5,2.67 1.08,3.64 l 0.13,0.21 c 0.131,0.21 0.271,0.43 0.41,0.67 0.04,0.07 0.08,0.14 0.12,0.2 -0.39,-0.03 -0.76,-0.12 -1.13,-0.33 -0.22,-0.12 -0.43,-0.29 -0.63,-0.49 l -0.72,0.69 c 0.27,0.28 0.56,0.67 0.869,1.07 l 0.12,0.15 c 0.42,0.56 0.99,1.29 1.74,1.94 l -1.59,0 0.86,0.85 c 0.729,0.74 1.479,1 2.199,1.1 -0.29,0.29 -0.42,0.43 -0.76,0.8 l -0.109,0.11 -0.021,0.16 c -0.06,0.45 0.06,1.11 0.94,1.73 0.47,0.33 1.119,0.63 1.939,0.88 -0.229,0.58 -0.26,1.13 -0.06,1.62 0.3,0.76 1.08,1.32 2.31,1.67 0.29,0.08 0.61,0.15 0.95,0.2 -0.12,2.36 0.99,4.3 2.07,6.19 1.08,1.91 2.21,3.88 2.05,6.29 l -0.01,0.15 0.069,0.13 c 0.21,0.37 0.48,0.67 0.8,0.91 -0.369,0.63 -0.59,1.25 -0.329,1.74 0.149,0.28 0.409,0.45 0.79,0.51 -0.58,0.81 -0.79,1.45 -0.721,2.08 0.09,0.76 0.62,1.41 1.3,1.99 -0.579,0.21 -0.979,0.51 -1.229,0.91 -0.43,0.71 -0.3,1.6 -0.061,2.42 -0.189,0.3 -0.25,0.68 -0.14,1.05 0.15,0.46 0.521,0.82 1.05,1.02 -0.56,0.87 -0.87,1.65 -0.739,2.45 0.109,0.63 0.489,1.22 1.21,1.83 -0.641,0.27 -1.061,0.62 -1.28,1.07 -0.34,0.68 -0.18,1.49 0.21,2.47 -0.9,0.74 -0.79,2.28 -0.76,2.83 0.08,1.18 0.35,2.29 0.83,3.37 -1.19,2.09 -1.03,4.18 0.479,6.34 -0.79,0.7 -1.21,1.47 -1.24,2.3 -0.029,1.03 0.53,2.1 1.71,3.26 -0.77,0.32 -1.529,0.83 -1.699,1.66 -0.2,0.91 0.33,1.94 1.72,3.271 -0.88,0.319 -1.45,0.83 -1.71,1.52 -0.51,1.34 0.14,3.23 2.13,6.07 -1.16,0.02 -1.95,0.38 -2.36,1.069 -0.664,1.151 -0.204,3.131 1.506,6.351 z"
             id="path10" /><path
             style="fill:#dadada"
             inkscape:connector-curvature="0"
             d="m 224.56,195.83 c 0.52,1.92 0.88,5.439 0.66,7.66 -0.21,-0.11 -0.43,-0.24 -0.57,-0.391 l -1.75,-1.819 0.93,2.35 c 0.9,2.3 0.47,5.23 0.05,8.061 -0.15,0.97 -0.29,1.899 -0.37,2.79 -0.21,-0.12 -0.42,-0.23 -0.55,-0.351 l -0.65,-0.6 -0.18,0.859 c -0.29,1.38 0.08,2.721 0.44,4.011 0.25,0.909 0.5,1.779 0.49,2.6 -0.18,-0.1 -0.35,-0.2 -0.47,-0.29 l -1.67,-1.32 0.9,1.92 c 0.85,1.811 1.3,4.471 1.13,6.65 -0.18,-0.04 -0.36,-0.08 -0.54,-0.09 l -0.67,-0.061 0.14,0.66 c 0.21,1 0.7,1.83 1.18,2.641 0.02,0.04 0.04,0.08 0.06,0.109 l -0.49,0.45 c 0.2,0.23 0.64,0.54 1.18,0.86 0.15,0.37 0.27,0.739 0.32,1.14 -0.12,-0.08 -0.24,-0.17 -0.34,-0.26 l -2.16,-1.92 1.39,2.529 c 0.12,0.23 0.25,0.461 0.38,0.69 0.69,1.2 1.39,2.43 1.41,3.7 -1.43,-0.18 -3.11,-0.91 -4.02,-2.271 l -0.91,-1.38 0,1.66 c 0,0.16 -0.03,0.34 -0.05,0.521 -1.18,-0.44 -2.5,-1 -3.43,-1.87 l -0.74,-0.69 -0.1,1 c -0.01,0.14 -0.07,0.3 -0.14,0.48 -0.02,0.06 -0.04,0.12 -0.07,0.18 -0.13,-0.09 -0.27,-0.18 -0.4,-0.271 -0.98,-0.649 -1.91,-1.27 -2.44,-2.239 l -0.71,-1.24 -0.23,1.44 c -0.01,0.02 -0.01,0.05 -0.02,0.079 -0.88,-1.1 -1.66,-2.609 -1.7,-3.71 l -0.02,-0.529 -0.32,0.029 c 0.09,-1.38 0.41,-2.609 0.97,-3.72 l 0.1,-0.189 -0.07,-0.21 c -0.85,-2.41 0.38,-4.79 1.8,-7.561 0.33,-0.65 0.68,-1.33 1.01,-2.02 l 1.48,-3.141 -2.31,2.601 c -0.09,0.1 -0.19,0.189 -0.31,0.279 0.13,-3.72 2.95,-7.739 4.52,-9.989 l 1.08,-1.54 -1.7,0.81 c -0.1,0.04 -0.2,0.08 -0.31,0.12 1.02,-1.61 2.59,-3.31 4.08,-4.34 l 3.96,-2.73 -3.9,1.63 c 0.69,-0.71 1.26,-1.54 1.02,-2.64 0.57,-0.41 1.11,-0.83 1.65,-1.25 0.87,-0.67 1.7,-1.31 2.59,-1.89 l 0,0.62 c 0,0.26 0,0.52 0.01,0.779 -0.05,-0.01 -0.08,-0.02 -0.12,-0.02 l -0.68,-0.03 0.18,0.664 z"
             id="path12" /><path
             style="fill:#010202"
             inkscape:connector-curvature="0"
             d="m 319.96,212.71 0.69,0.93 -1.15,-0.14 c -1.32,-0.15 -2.16,0.02 -2.46,0.52 -0.51,0.891 0.18,3.03 2.07,6.381 l 0.64,1.13 -1.24,-0.41 c -0.59,-0.2 -1.09,-0.3 -1.479,-0.3 -0.57,0 -0.71,0.22 -0.761,0.3 -0.18,0.3 -0.42,1.35 1.28,4.61 l 0.391,0.76 -1.04,-0.04 c -0.511,0 -1.16,0.09 -1.37,0.53 -0.351,0.68 0.26,2.159 1.609,3.97 l 0.61,0.81 -1.14,-0.01 c -1.12,0 -1.811,0.2 -2.12,0.62 -0.391,0.54 -0.311,1.59 0.27,3.41 l 0.4,1.239 -1.12,-0.659 c -0.58,-0.33 -0.89,-0.4 -1.05,-0.4 -0.12,0 -0.4,0 -0.471,1.271 l -0.05,0.89 -0.729,-0.51 c -0.23,-0.15 -0.5,-0.25 -0.69,-0.25 -0.09,0 -0.12,0.02 -0.12,0.02 l -0.18,0.17 -0.25,-0.05 c -0.23,-0.04 -0.44,-0.07 -0.64,-0.07 -0.4,0 -0.5,0.12 -0.54,0.16 -0.141,0.15 -0.181,0.5 -0.141,0.98 l 0.12,1.149 -0.92,-0.71 c -0.899,-0.689 -1.47,-0.99 -1.91,-0.99 -0.37,0 -0.899,0.2 -1.75,1.811 l -0.609,1.15 -0.32,-1.261 c -0.39,-1.52 -0.83,-1.85 -1.13,-1.97 -0.51,-0.2 -1.17,0.05 -1.811,0.68 l -0.729,0.721 -0.12,-1.022 c -0.05,-0.42 -0.18,-0.58 -0.21,-0.59 0,0.03 -0.22,0.26 -0.35,0.95 l -0.2,1.05 -0.681,-0.82 c -0.75,-0.91 -1.29,-1.33 -1.699,-1.33 -0.4,0 -0.891,0.391 -1.54,1.23 l -0.551,0.72 -0.31,-0.859 c -0.38,-1.04 -0.83,-1.65 -1.24,-1.65 -0.22,0 -0.45,0.17 -0.6,0.3 l -0.66,-0.76 c 0.16,-0.13 0.25,-0.24 0.32,-0.32 -0.15,-0.01 -0.37,0 -0.63,0.05 l -1.471,0.261 1.011,-1.091 c 0.909,-0.979 0.85,-1.239 0.84,-1.25 0,0 -0.101,-0.159 -0.78,-0.26 -0.12,0.07 -0.26,0.141 -0.4,0.221 l -2.619,1.439 1.619,-1.79 -1.409,-0.13 2.14,-0.68 c 0.86,-1.011 1.05,-1.521 0.979,-1.84 -0.149,0.09 -0.329,0.189 -0.54,0.31 -0.279,0.16 -0.6,0.34 -0.97,0.56 l -2.03,1.221 1.36,-1.931 c 0.351,-0.489 0.64,-0.92 0.88,-1.31 l -0.939,-0.67 1.229,0.2 c 0.95,-1.62 1.021,-2.33 0.87,-2.63 -0.16,-0.301 -0.74,-0.36 -1.2,-0.36 -0.31,0 -0.68,0.03 -1.109,0.09 l -1.23,0.17 0.771,-0.979 c 1.779,-2.24 2.529,-3.91 2.229,-4.94 -0.18,-0.64 -0.78,-1.12 -1.83,-1.479 l -0.63,-0.211 0.38,-0.539 c 2.09,-3.011 2.13,-5.141 0.13,-7.141 l -0.26,-0.26 0.18,-0.32 c 1.2,-2.3 1.2,-4.5 -0.02,-6.96 l -0.08,-0.16 0.04,-0.17 c 0.56,-2.35 0.19,-4.3 -1.04,-5.479 l -0.23,-0.23 0.101,-0.3 c 0.86,-2.47 0.64,-4.07 -0.67,-4.89 l -0.44,-0.271 0.29,-0.43 c 1.061,-1.55 0.96,-2.77 -0.34,-3.95 l -0.32,-0.28 0.23,-0.36 c 1.14,-1.76 1.229,-3.48 0.27,-5.42 l -0.1,-0.2 0.08,-0.2 c 0.86,-2.13 0.83,-4.21 -0.101,-6.18 l -0.09,-0.19 0.08,-0.2 c 1.04,-2.65 0.87,-4.76 -0.5,-6.26 l -0.24,-0.27 0.171,-0.31 c 1.029,-1.9 1.369,-3.42 1.02,-4.54 -0.22,-0.72 -0.729,-1.27 -1.56,-1.68 l -0.521,-0.27 0.34,-0.47 c 1.54,-2.15 2.16,-3.82 1.84,-4.96 -0.18,-0.66 -0.68,-1.15 -1.529,-1.52 l -0.59,-0.25 0.39,-0.51 c 2,-2.62 2.15,-3.98 1.93,-4.66 -0.18,-0.52 -0.64,-0.88 -1.43,-1.11 l -0.72,-0.2 0.46,-0.59 c 1.91,-2.45 2.05,-3.59 1.84,-4.12 -0.19,-0.44 -0.771,-0.73 -1.73,-0.85 l -1.01,-0.12 0.72,-0.73 c 1.65,-1.64 2.4,-2.81 2.23,-3.5 -0.11,-0.4 -0.61,-0.75 -1.51,-1.01 l -0.88,-0.27 0.699,-0.59 c 1.271,-1.08 1.91,-2.11 1.9,-3.06 0,-0.83 -0.5,-1.66 -1.49,-2.46 l -0.399,-0.33 0.35,-0.39 c 1.26,-1.41 1.82,-2.72 1.62,-3.79 -0.15,-0.82 -0.75,-1.5 -1.78,-2.04 l -0.54,-0.28 0.38,-0.47 c 1.561,-1.98 2.25,-3.64 2.05,-4.93 -0.14,-0.85 -0.659,-1.58 -1.6,-2.2 l -0.46,-0.3 0.34,-0.43 c 1.46,-1.83 2.101,-3.39 1.84,-4.51 -0.149,-0.62 -0.58,-1.1 -1.3,-1.44 l -0.52,-0.25 0.319,-0.48 c 1.271,-1.89 1.761,-3.31 1.46,-4.2 -0.17,-0.52 -0.619,-0.9 -1.39,-1.17 l -0.71,-0.25 0.51,-0.56 c 1.66,-1.81 1.57,-2.5 1.51,-2.67 -0.119,-0.29 -0.659,-0.38 -0.979,-0.4 l -1.15,-0.1 0.86,-0.77 c 0.89,-0.81 1.14,-1.36 1.08,-1.6 -0.061,-0.21 -0.44,-0.41 -1,-0.53 l -0.93,-0.19 0.68,-0.66 c 1.71,-1.66 1.55,-2.25 1.53,-2.31 -0.061,-0.17 -0.44,-0.36 -1.29,-0.4 l -1.25,-0.05 0.939,-0.83 c 1.721,-1.5 2.49,-2.55 2.38,-3.21 -0.069,-0.47 -0.649,-0.93 -1.72,-1.37 l -1.26,-0.51 1.29,-0.42 c 1.8,-0.6 2.7,-1.12 2.91,-1.7 0.18,-0.47 -0.03,-1.15 -0.7,-2.28 l -0.67,-1.13 1.25,0.4 c 0.66,0.21 1.13,0.23 1.25,0.09 0.09,-0.1 0.17,-0.4 0.029,-1.24 l -0.05,-0.35 0.311,-0.17 c 0.87,-0.47 1.09,-1.13 1.1,-1.13 l 0.43,0.12 0.061,-0.06 0.229,-0.44 c 0.061,0.03 0.351,0.13 0.721,0.13 0.47,0 0.87,-0.16 1.18,-0.48 l 0.34,-0.34 0.36,0.33 c 0.76,0.71 1.35,1.15 1.859,1.41 0.551,0.27 0.98,0.32 1.381,0.14 l 0.34,-0.16 0.239,0.29 c 1,1.17 1.9,1.65 3.11,1.65 0.45,0 0.97,-0.06 1.58,-0.2 l 0.65,-0.15 -0.04,0.66 c -0.061,1.21 0.71,1.68 0.93,1.79 l 0.72,0 -0.29,0.57 c 0.09,0.27 0.4,0.96 1.301,1.53 l 0.319,0.2 -0.109,0.37 c -0.181,0.59 -0.33,1.26 -0.07,1.72 0.189,0.35 0.64,0.63 1.34,0.82 l 0.57,0.16 -0.25,0.53 c -0.86,1.85 0.12,3.16 2.229,4.92 l 0.65,0.55 -0.8,0.31 c -1.181,0.45 -1.87,1.04 -2.11,1.81 -0.38,1.21 0.31,3.03 2.16,5.71 l 0.479,0.7 -0.84,0.08 c -1.2,0.12 -1.33,0.72 -1.37,0.91 -0.109,0.52 0.08,1.19 0.48,1.67 l 0.3,0.37 -0.35,0.32 c -0.13,0.12 -0.19,0.2 -0.21,0.25 0.02,0 0.08,0.04 0.199,0.08 l 0.801,0.28 -0.631,0.57 c -0.479,0.43 -0.71,0.77 -0.699,1.04 0.02,0.29 0.319,0.64 0.899,1.04 l 0.87,0.6 -1.01,0.29 c -0.91,0.26 -1.4,0.54 -1.55,0.9 -0.15,0.35 -0.021,0.92 0.399,1.74 l 0.431,0.83 -0.931,-0.11 c -0.1,-0.01 -0.18,-0.01 -0.26,-0.01 -0.14,0 -0.37,0.01 -0.45,0.12 -0.04,0.06 -0.149,0.3 0.101,1.03 l 0.12,0.37 -0.33,0.21 c -1.12,0.72 -1.74,1.46 -1.971,2.32 -0.18,0.72 -0.1,1.56 0.261,2.59 0.13,0.37 0.3,0.76 0.5,1.18 l 0.149,0.3 -0.229,0.25 c -0.181,0.2 -0.42,0.3 -0.69,0.3 -0.42,0 -0.86,-0.27 -1.16,-0.5 -0.33,0.28 -0.52,0.55 -0.569,0.83 -0.11,0.6 0.399,1.31 0.949,2.05 0.08,0.12 0.16,0.23 0.25,0.35 0.45,0.28 0.681,0.7 0.801,1.14 l 0.399,0.58 -0.33,-0.17 c 0.021,0.2 0.03,0.4 0.03,0.58 l -1,0 c 0,-0.42 -0.27,-0.89 -0.58,-1.35 -0.26,-0.1 -0.64,-0.13 -1.11,-0.14 l 3,5.99 -0.808,0 c -0.52,0 -1.18,0 -1.69,-0.21 -0.17,1.02 -0.14,1.79 0.771,2.3 l 0.11,0.06 0.26,0.42 c 0.14,0.22 0.28,0.45 0.41,0.68 0.21,0.33 0.409,0.68 0.59,1.03 l 0.359,0.72 -0.81,0 c -0.37,0 -0.77,0 -1.18,-0.06 0.67,0.85 1.399,1.61 2.399,2.11 l 1.9,0.95 0.09,0 -0.86,0.85 c -0.899,0.91 -0.979,0.99 -1.39,1.43 0.03,0.21 0.21,0.43 0.521,0.65 0.479,0.34 1.22,0.65 2.21,0.9 l 0.649,0.17 -0.35,0.58 c -0.32,0.52 -0.42,0.96 -0.28,1.31 0.18,0.44 0.75,0.81 1.65,1.06 0.38,0.11 0.81,0.19 1.279,0.25 l 0.5,0.06 -0.06,0.5 c -0.271,2.24 0.78,4.09 1.9,6.06 1.13,1.99 2.31,4.06 2.18,6.69 0.2,0.29 0.45,0.51 0.76,0.66 l 0.51,0.25 -0.31,0.47 c -0.51,0.8 -0.55,1.09 -0.54,1.16 0.02,-0.01 0.1,0.02 0.27,0.02 0.17,0 0.37,-0.02 0.62,-0.07 l 1.4,-0.24 -0.94,1.07 c -0.87,0.99 -1.229,1.66 -1.17,2.18 0.061,0.53 0.57,1.11 1.721,1.93 l 0.989,0.71 -1.21,0.19 c -0.84,0.13 -1.37,0.37 -1.58,0.71 -0.21,0.34 -0.17,0.91 0.12,1.85 l 0.11,0.32 -0.26,0.22 c -0.07,0.05 -0.091,0.15 -0.061,0.25 0.061,0.21 0.351,0.44 0.96,0.5 l 0.87,0.08 -0.51,0.71 c -0.79,1.09 -1.08,1.76 -0.98,2.31 0.09,0.54 0.59,1.1 1.58,1.78 l 0.931,0.64 -1.101,0.26 c -0.88,0.21 -1.399,0.48 -1.58,0.83 -0.18,0.37 -0.06,0.96 0.41,2.03 l 0.21,0.48 -0.49,0.19 c -0.47,0.18 -0.649,0.87 -0.569,2.09 0.08,1.15 0.35,2.21 0.84,3.26 l 0.12,0.24 -0.141,0.23 c -1.189,1.93 -1.01,3.791 0.57,5.84 l 0.31,0.399 -0.409,0.301 c -0.801,0.6 -1.2,1.199 -1.221,1.84 -0.029,0.87 0.641,1.89 1.99,3.04 l 0.69,0.6 -0.87,0.26 c -1.12,0.341 -1.73,0.74 -1.83,1.2 -0.09,0.431 0.2,1.28 2.08,2.92 l 0.76,0.66 -0.99,0.21 c -1.05,0.21 -1.66,0.59 -1.88,1.15 -0.407,1.068 0.473,3.078 2.623,5.968 z m -4.54,7.89 c 0.26,-0.43 0.94,-0.939 2.26,-0.729 -1.71,-3.22 -2.17,-5.2 -1.5,-6.351 0.41,-0.689 1.2,-1.05 2.36,-1.069 -1.99,-2.84 -2.64,-4.73 -2.13,-6.07 0.26,-0.689 0.83,-1.2 1.71,-1.52 -1.39,-1.33 -1.92,-2.36 -1.72,-3.271 0.17,-0.83 0.93,-1.34 1.699,-1.66 -1.18,-1.16 -1.739,-2.229 -1.71,-3.26 0.03,-0.83 0.45,-1.6 1.24,-2.3 -1.51,-2.16 -1.67,-4.25 -0.479,-6.34 -0.48,-1.08 -0.75,-2.19 -0.83,-3.37 -0.03,-0.55 -0.141,-2.09 0.76,-2.83 -0.39,-0.98 -0.55,-1.79 -0.21,-2.47 0.22,-0.45 0.64,-0.8 1.28,-1.07 -0.721,-0.61 -1.101,-1.2 -1.21,-1.83 -0.131,-0.8 0.18,-1.58 0.739,-2.45 -0.529,-0.2 -0.899,-0.56 -1.05,-1.02 -0.11,-0.37 -0.05,-0.75 0.14,-1.05 -0.239,-0.82 -0.369,-1.71 0.061,-2.42 0.25,-0.4 0.65,-0.7 1.229,-0.91 -0.68,-0.58 -1.21,-1.23 -1.3,-1.99 -0.069,-0.63 0.141,-1.27 0.721,-2.08 -0.381,-0.06 -0.641,-0.23 -0.79,-0.51 -0.261,-0.49 -0.04,-1.11 0.329,-1.74 -0.319,-0.24 -0.59,-0.54 -0.8,-0.91 l -0.069,-0.13 0.01,-0.15 c 0.16,-2.41 -0.97,-4.38 -2.05,-6.29 -1.08,-1.89 -2.19,-3.83 -2.07,-6.19 -0.34,-0.05 -0.66,-0.12 -0.95,-0.2 -1.229,-0.35 -2.01,-0.91 -2.31,-1.67 -0.2,-0.49 -0.17,-1.04 0.06,-1.62 -0.82,-0.25 -1.47,-0.55 -1.939,-0.88 -0.881,-0.62 -1,-1.28 -0.94,-1.73 l 0.021,-0.16 0.109,-0.11 c 0.34,-0.37 0.47,-0.51 0.76,-0.8 -0.72,-0.1 -1.47,-0.36 -2.199,-1.1 l -0.86,-0.85 1.59,0 c -0.75,-0.65 -1.32,-1.38 -1.74,-1.94 l -0.12,-0.15 c -0.31,-0.4 -0.6,-0.79 -0.869,-1.07 l 0.72,-0.69 c 0.2,0.2 0.41,0.37 0.63,0.49 0.37,0.21 0.74,0.3 1.13,0.33 -0.04,-0.06 -0.08,-0.13 -0.12,-0.2 -0.14,-0.24 -0.279,-0.46 -0.41,-0.67 l -0.13,-0.21 c -1.58,-0.97 -1.27,-2.64 -1.08,-3.64 0.061,-0.29 0.11,-0.56 0.11,-0.75 l 1,0 c 0,0.28 0.11,0.42 0.68,0.47 l -2.989,-5.97 0.806,0 c 0.41,0 0.78,0 1.12,0.02 -0.07,-0.1 -0.14,-0.2 -0.2,-0.3 l -0.21,-0.3 0.05,0.02 c -0.279,-0.52 -0.45,-1.07 -0.35,-1.65 0.12,-0.64 0.55,-1.2 1.31,-1.71 l 0.34,-0.22 0.29,0.29 c 0.08,0.07 0.17,0.15 0.271,0.23 -0.061,-0.15 -0.12,-0.3 -0.16,-0.44 -0.43,-1.22 -0.52,-2.25 -0.29,-3.17 0.271,-1.03 0.94,-1.9 2.09,-2.7 -0.17,-0.67 -0.12,-1.19 0.15,-1.56 0.189,-0.26 0.46,-0.43 0.81,-0.5 -0.3,-0.77 -0.33,-1.37 -0.109,-1.89 0.239,-0.56 0.76,-0.91 1.33,-1.16 -0.391,-0.4 -0.591,-0.79 -0.61,-1.21 -0.04,-0.54 0.229,-1 0.56,-1.39 -0.14,-0.15 -0.199,-0.31 -0.229,-0.44 -0.04,-0.21 -0.03,-0.51 0.22,-0.86 -0.41,-0.67 -0.57,-1.46 -0.43,-2.15 0.1,-0.47 0.42,-1.21 1.47,-1.55 -1.75,-2.65 -2.32,-4.51 -1.87,-5.95 0.271,-0.88 0.91,-1.58 1.96,-2.12 -1.56,-1.39 -2.8,-2.95 -2.09,-5.07 -0.689,-0.26 -1.16,-0.64 -1.43,-1.13 -0.37,-0.67 -0.29,-1.44 -0.11,-2.14 -0.79,-0.6 -1.25,-1.34 -1.41,-1.88 -0.22,-0.12 -0.46,-0.31 -0.63,-0.49 -0.3,-0.32 -0.64,-0.83 -0.74,-1.57 -0.449,0.08 -0.85,0.11 -1.22,0.11 -1.42,0 -2.53,-0.52 -3.64,-1.74 -0.58,0.14 -1.2,0.05 -1.88,-0.29 -0.521,-0.26 -1.08,-0.66 -1.771,-1.27 -0.6,0.42 -1.42,0.55 -2.18,0.39 -0.2,0.35 -0.561,0.78 -1.101,1.15 0.07,0.63 0.061,1.28 -0.31,1.71 -0.27,0.32 -0.68,0.47 -1.21,0.44 0.34,0.74 0.52,1.49 0.26,2.18 -0.28,0.74 -1,1.32 -2.42,1.89 0.601,0.38 1.13,0.88 1.25,1.59 0.16,0.94 -0.41,1.97 -1.92,3.42 0.45,0.13 0.9,0.39 1.09,0.88 0.271,0.72 -0.109,1.62 -1.2,2.8 0.511,0.23 0.83,0.56 0.94,0.99 0.16,0.57 -0.08,1.21 -0.71,1.94 0.43,0.17 0.72,0.45 0.87,0.83 0.3,0.77 -0.11,1.82 -1.24,3.18 0.68,0.37 1.13,0.88 1.34,1.51 0.38,1.14 -0.04,2.65 -1.28,4.62 0.7,0.46 1.171,1.09 1.341,1.84 0.31,1.36 -0.261,3.02 -1.71,4.95 0.909,0.72 1.449,1.58 1.6,2.57 0.24,1.49 -0.38,3.2 -1.9,5.24 1.011,0.65 1.62,1.47 1.801,2.45 0.229,1.28 -0.301,2.74 -1.54,4.25 0.97,0.91 1.46,1.88 1.47,2.89 0.01,1.08 -0.54,2.17 -1.63,3.26 0.78,0.36 1.24,0.84 1.39,1.44 0.24,0.97 -0.33,2.15 -1.85,3.79 0.81,0.25 1.34,0.67 1.59,1.27 0.439,1.06 -0.061,2.52 -1.561,4.57 0.73,0.34 1.221,0.85 1.44,1.51 0.41,1.25 -0.15,2.93 -1.72,5.1 0.8,0.47 1.31,1.1 1.529,1.89 0.391,1.38 -0.159,3.14 -1.67,5.36 0.78,0.51 1.311,1.18 1.57,1.99 0.41,1.32 0.09,3 -0.939,5.01 1.38,1.72 1.569,4.07 0.539,6.83 0.91,2.08 0.95,4.34 0.11,6.57 0.95,2.05 0.89,3.97 -0.2,5.85 1.28,1.34 1.44,2.87 0.46,4.549 1.33,1.101 1.591,2.94 0.771,5.48 1.29,1.41 1.7,3.53 1.149,6.02 1.23,2.591 1.261,4.95 0.08,7.381 1.98,2.159 2,4.6 0.08,7.619 1.021,0.461 1.63,1.091 1.87,1.9 0.36,1.24 -0.18,2.83 -1.72,4.95 1.16,-0.03 1.86,0.27 2.18,0.899 0.37,0.7 0.16,1.721 -0.7,3.261 0.221,0.05 0.511,0.149 0.62,0.45 0.011,0.029 0.021,0.079 0.03,0.13 l 0.14,0.14 -0.04,0.04 c 0.41,0.68 0.21,1.41 -0.189,2.09 l 0.2,0 0.1,0.521 0.4,0.05 -0.351,0.17 0,0.01 c 0.21,0.13 0.37,0.311 0.46,0.55 0.17,0.45 -0.01,0.931 -0.34,1.41 0.42,0.101 0.601,0.34 0.68,0.54 0.021,0.061 0.04,0.13 0.04,0.21 0.681,0.061 1.25,0.57 1.721,1.53 0.64,-0.68 1.199,-0.98 1.79,-0.98 0.6,0 1.17,0.301 1.87,1.021 0.27,-0.55 0.649,-0.87 1.1,-0.87 0.32,0 0.689,0.19 0.939,0.67 0.5,-0.35 1.021,-0.53 1.521,-0.53 0.25,0 0.5,0.051 0.729,0.141 0.601,0.229 1.04,0.729 1.391,1.569 0.53,-0.77 1.18,-1.37 2.06,-1.37 0.58,0 1.17,0.271 1.75,0.65 0.061,-0.31 0.181,-0.55 0.36,-0.75 0.39,-0.43 0.97,-0.58 1.9,-0.43 0.3,-0.16 0.699,-0.17 1.119,-0.04 0.12,-0.69 0.44,-1.49 1.391,-1.49 0.16,0 0.33,0.021 0.52,0.07 -0.399,-1.57 -0.34,-2.55 0.181,-3.25 0.409,-0.57 1.09,-0.891 2.109,-1 -1.26,-1.86 -1.649,-3.29 -1.17,-4.25 0.21,-0.42 0.67,-0.9 1.68,-1.04 -1.152,-2.371 -1.442,-3.981 -0.892,-4.891 z"
             id="path14-8" /><path
             style="fill:#010202"
             inkscape:connector-curvature="0"
             d="m 261.53,111.65 -0.04,0.27 -0.26,0.11 c -0.05,0.08 -0.19,0.69 -0.07,1.43 l 0.06,0.35 -0.32,0.17 c -2.06,1.09 -2.96,2.13 -3.35,3.85 l -0.14,0.64 -0.58,-0.31 c -1.16,-0.62 -1.47,-0.36 -1.88,0.32 l -0.5,0.85 -0.39,-0.9 c -0.34,-0.78 -0.53,-0.93 -0.62,-0.95 l -0.02,0 c -1.05,1.39 -1.75,2.48 -2.05,3.21 0.82,-0.14 1.65,-0.1 1.92,0.55 0.39,0.92 -0.87,2.25 -1.81,3.04 0.69,0.34 1.08,0.78 1.19,1.33 0.29,1.4 -1.44,2.84 -2.83,4 -0.15,0.12 -0.29,0.24 -0.43,0.36 l 0.05,0 -0.01,0.43 c -0.01,1.02 -0.45,2.01 -1.24,2.81 l 0.3,-0.01 -0.06,0.57 c -0.13,1.18 -0.9,2.13 -1.65,3.04 -0.56,0.69 -1.09,1.33 -1.33,2.03 -0.05,0.12 0,0.23 0.13,0.5 0.17,0.34 0.4,0.8 0.23,1.44 -0.23,0.91 -1.02,2.02 -1.73,2.84 l 0.24,0.03 -0.26,0.61 c -0.27,0.6 -0.65,1.15 -1.03,1.68 -0.45,0.64 -0.87,1.25 -1.07,1.91 0.13,0 0.27,0.01 0.41,0.04 l 0.35,0.08 0.04,0.36 c 0.17,1.57 -0.75,2.66 -1.56,3.63 -0.41,0.49 -0.8,0.96 -1.06,1.47 0.18,-0.01 0.36,-0.02 0.54,-0.04 l 0.65,-0.07 -0.1,0.65 c -0.19,1.21 -0.85,2.15 -1.49,3.06 -0.5,0.7 -0.97,1.36 -1.16,2.09 0.14,0.19 0.23,0.41 0.25,0.66 0.15,1.33 -1.39,3.31 -3.42,5.76 -0.4,0.48 -0.79,0.95 -1.09,1.33 0.05,0.02 0.09,0.03 0.14,0.05 l 0.38,0.15 -0.08,0.41 c -0.2,1.05 -0.4,1.86 -0.58,2.57 -0.08,0.31 -0.15,0.6 -0.22,0.88 0.07,-0.12 0.14,-0.25 0.21,-0.38 l 0.53,-0.95 c -0.53,1.78 -0.69,3.68 -0.47,5.54 -0.48,1.94 -0.84,3.95 -1.03,5.93 -0.05,0.55 -0.09,1.11 -0.08,1.63 -0.01,0.28 0.04,0.41 0.04,0.91 0,0.37 -0.05,0.68 -0.1,1 -0.23,1.23 -0.57,2.35 -0.93,3.47 -0.72,2.24 -1.53,4.42 -2.34,6.6 -0.4,1.09 -0.83,2.17 -1.19,3.25 -0.09,0.28 -0.15,0.5 -0.24,0.82 -0.12,0.34 -0.24,0.69 -0.65,1.01 -0.2,0.16 -0.55,0.25 -0.82,0.16 -0.28,-0.07 -0.47,-0.229 -0.6,-0.38 -0.07,-0.08 -0.11,-0.17 -0.17,-0.25 0.18,1.86 0.2,3.82 -0.04,5.09 l -0.16,0.851 -0.66,-0.561 c -0.02,-0.02 -0.07,-0.05 -0.14,-0.09 0.47,2.25 0.09,4.79 -0.28,7.26 -0.18,1.24 -0.36,2.42 -0.41,3.5 l -0.05,0.97 -0.76,-0.6 c -0.13,-0.1 -0.31,-0.19 -0.49,-0.29 -0.04,-0.02 -0.08,-0.04 -0.12,-0.07 -0.02,0.9 0.24,1.82 0.5,2.78 0.35,1.25 0.71,2.53 0.42,3.811 l -0.18,0.75 -0.49,-0.37 c 0.62,1.97 0.86,4.33 0.61,6.3 l -0.07,0.5 -0.5,-0.07 c -0.08,-0.01 -0.16,-0.03 -0.24,-0.04 0.22,0.54 0.52,1.061 0.84,1.59 0.24,0.4 0.47,0.811 0.68,1.24 0.54,0.311 1.19,0.63 1.77,0.851 0.01,-0.061 0.03,-0.11 0.04,-0.16 0.08,-0.25 0.17,-0.561 0.16,-0.73 l -0.1,-1.26 0.93,0.85 c 0.29,0.261 0.73,0.54 1.25,0.4 0.56,-0.15 1.06,-0.76 1.33,-1.63 l 0.32,-1.021 0.58,0.9 c 0.41,0.63 1.05,0.93 1.74,0.82 0.79,-0.141 1.44,-0.771 1.64,-1.61 l 0.18,-0.75 0.61,0.47 c 0.86,0.67 0.96,0.601 1.93,-0.01 l 0.68,-0.44 0.09,0.801 c 0.07,0.699 0.31,1.199 0.66,1.359 0.4,0.2 0.94,-0.06 1.32,-0.31 l 0.7,-0.45 0.07,0.83 c 0.07,0.75 0.36,1.23 0.77,1.27 0.43,0.03 1.01,-0.43 1.26,-1.38 l 0.98,-3.649 0.01,3.779 c 0,0.73 0.16,1.2 0.42,1.271 0.5,0.14 1.66,-0.68 2.29,-1.81 l 0.37,-0.671 0.46,0.61 c 1.37,1.79 4.25,0.76 5.1,0.4 l 0.7,-0.29 0,0.76 c 0,0.16 0.07,0.44 0.15,0.71 0.07,0.25 0.15,0.52 0.19,0.8 0.55,-0.33 1.05,-0.85 1.36,-1.49 l 0.56,-1.13 0.37,1.21 c 0.05,0.181 0.21,0.42 0.39,0.681 0.2,0.3 0.42,0.64 0.56,1.01 0.78,0.07 1.47,-0.271 2.19,-0.64 0.48,-0.24 0.98,-0.49 1.53,-0.631 l 0.49,-0.13 0.12,0.49 c 0.11,0.46 0.3,0.74 0.58,0.88 0.79,0.38 2.36,-0.31 3.62,-0.88 0.75,-0.33 1.46,-0.65 2.061,-0.78 l 0.88,-0.199 -0.3,0.85 c -0.101,0.28 -0.15,0.6 -0.2,0.95 -0.01,0.029 -0.01,0.05 -0.021,0.08 2.061,-0.86 3.051,-1.051 5.271,-0.801 -0.561,-2.42 -1.15,-4.84 -1.72,-7.25 -1.891,-7.779 -3.69,-15.579 -5.21,-23.449 -0.79,-3.931 -1.461,-7.88 -2.131,-11.83 -0.66,-3.95 -1.16,-7.95 -1.189,-11.97 -0.06,-4.02 0.27,-8.06 1.14,-12.02 0.86,-3.95 2.29,-7.79 4.2,-11.37 0.47,-0.89 0.99,-1.77 1.43,-2.62 0.4,-0.76 0.511,-1.61 0.53,-2.56 0,-1.87 -0.4,-3.82 -0.85,-5.72 -0.471,-1.91 -1.061,-3.81 -1.7,-5.68 -0.32,-0.92 -0.67,-1.91 -0.94,-2.88 -0.279,-0.98 -0.529,-1.95 -0.779,-2.93 -1.572,-6.662 -2.822,-13.352 -3.912,-20.092 z m 13.34,-32.77 c 0.09,-0.03 0.13,-0.08 0.13,-0.08 -0.17,0.19 -0.6,1.3 -0.41,3.06 l 0.03,0.28 -0.22,0.17 c -1,0.76 -1.591,1.59 -1.61,2.29 l 0,0.21 -0.16,0.15 c -1.11,1.01 -1.6,1.92 -0.86,3.6 l 0.261,0.58 -0.62,0.12 c -1.48,0.27 -1.86,1.06 -2,2.24 l -0.021,0.18 -0.13,0.12 c -0.14,0.14 -0.24,0.26 -0.29,0.35 0.03,0 0.07,0 0.12,-0.01 l 1.851,-0.23 -1.48,1.13 c -0.35,0.26 -0.56,0.45 -0.67,0.56 0.16,0.03 0.42,0.06 0.84,0.07 l 2.12,0.04 -1.91,0.91 c -1.27,0.61 -1.56,0.95 -1.57,1.12 -0.02,0.16 0.15,0.55 1.431,1.45 l 1.39,0.97 -1.7,-0.07 c -1.17,-0.04 -1.87,0.08 -2.09,0.38 -0.28,0.39 0.03,1.41 0.3,2.15 l 0.48,1.34 -1.22,-0.75 c -0.4,-0.25 -0.58,-0.28 -0.63,-0.28 0.01,0.03 -0.051,0.23 0.039,0.82 l 0.04,0.26 -0.199,0.18 c -0.811,0.74 -1.4,1.8 -1.761,3.14 -0.359,1.39 -0.439,2.95 -0.25,4.93 l 0.12,1.15 -0.92,-0.7 c -0.81,-0.63 -1.12,-0.58 -1.2,-0.55 -0.13,0.05 -0.24,0.24 -0.34,0.55 l 2.101,9.07 c 0.899,3.89 1.859,7.78 2.89,11.62 0.26,0.96 0.53,1.92 0.83,2.86 0.28,0.95 0.63,1.83 0.979,2.8 0.671,1.9 1.29,3.82 1.801,5.79 0.5,1.97 0.909,3.99 0.899,6.12 -0.01,0.53 -0.05,1.08 -0.149,1.63 -0.101,0.55 -0.32,1.12 -0.58,1.61 -0.511,0.93 -1.021,1.75 -1.5,2.62 -4,6.8 -6.08,14.71 -6.06,22.68 0.01,1.99 0.1,3.99 0.339,5.96 0.221,1.98 0.561,3.95 0.9,5.92 0.67,3.94 1.56,7.83 2.45,11.73 1.85,7.78 3.88,15.5 5.87,23.25 0.67,2.63 1.35,5.25 1.979,7.899 l 0.19,0.03 -0.15,0.13 c 0.101,0.4 0.2,0.79 0.29,1.19 -0.439,-0.11 -0.899,-0.19 -1.38,-0.25 -0.17,0.14 -0.35,0.27 -0.52,0.38 l -0.49,-0.75 c -2.22,-0.25 -3.01,0.01 -5.55,1.11 l -1.04,0.46 0.37,-1.08 c 0.09,-0.25 0.14,-0.57 0.189,-0.9 0.01,-0.07 0.021,-0.14 0.03,-0.22 -0.33,0.14 -0.7,0.3 -1.07,0.47 -1.53,0.68 -3.26,1.45 -4.46,0.86 -0.42,-0.2 -0.74,-0.55 -0.95,-1.03 -0.29,0.12 -0.59,0.26 -0.89,0.42 -0.89,0.44 -1.89,0.94 -3.13,0.67 l -0.31,-0.06 -0.07,-0.32 c -0.07,-0.32 -0.3,-0.67 -0.53,-1 -0.02,-0.04 -0.04,-0.07 -0.06,-0.1 -0.56,0.729 -1.32,1.27 -2.13,1.489 l -0.77,0.211 0.15,-0.78 c 0.05,-0.33 -0.07,-0.78 -0.18,-1.181 -0.03,-0.1 -0.06,-0.199 -0.09,-0.3 -2.15,0.761 -4.03,0.601 -5.22,-0.439 -0.8,1.1 -2.06,1.989 -3.05,1.729 -0.31,-0.08 -0.65,-0.279 -0.89,-0.75 -0.44,0.521 -1.02,0.8 -1.62,0.75 -0.59,-0.05 -1.26,-0.47 -1.54,-1.46 -0.75,0.311 -1.3,0.2 -1.66,0.03 -0.51,-0.24 -0.88,-0.73 -1.08,-1.41 -0.67,0.35 -1.18,0.4 -1.91,-0.03 -0.43,0.9 -1.24,1.54 -2.2,1.7 -0.81,0.141 -1.58,-0.08 -2.18,-0.6 -0.41,0.79 -1.01,1.33 -1.7,1.51 -0.49,0.14 -1,0.08 -1.48,-0.14 -0.02,0.069 -0.04,0.14 -0.06,0.21 -0.05,0.16 -0.12,0.41 -0.12,0.489 l 0.02,0.671 -0.65,-0.16 c -0.45,-0.12 -1,-0.351 -1.56,-0.61 0.09,0.46 0.12,0.96 0.03,1.5 l -0.12,0.79 c 0.55,1.08 0.97,2.26 0.81,3.51 l -0.06,0.45 -0.46,-0.01 c -1.7,-0.07 -3.35,-0.75 -4.49,-1.811 l 0.01,0.71 -0.69,-0.25 c -1.18,-0.43 -2.6,-0.939 -3.77,-1.8 -0.07,0.2 -0.13,0.391 -0.14,0.59 l -0.01,0.99 -0.79,-0.6 c -0.31,-0.24 -0.65,-0.46 -0.99,-0.681 -0.67,-0.449 -1.36,-0.909 -1.94,-1.5 l 0.03,1.051 -0.88,-0.811 c -0.92,-0.859 -2.19,-2.62 -2.61,-4.29 l -0.5,0.03 -0.01,-0.521 c -0.01,-1.869 0.32,-3.489 1.02,-4.949 -0.84,-2.7 0.45,-5.28 1.85,-8.011 l -0.04,0.03 -0.09,-0.939 c -0.37,-3.681 1.96,-7.641 3.76,-10.311 -0.03,0.01 -0.06,0.03 -0.08,0.04 l -1.2,0.51 0.55,-1.18 c 0.64,-1.39 1.83,-2.98 3.15,-4.29 l -0.86,0.3 1.2,-1.399 c 0.28,-0.32 0.6,-0.62 0.91,-0.92 0.99,-0.94 1.58,-1.561 1.23,-2.511 l -0.13,-0.359 0.31,-0.221 c 0.66,-0.47 1.29,-0.949 1.91,-1.43 0.88,-0.68 1.79,-1.39 2.76,-2.01 l 0.49,0.76 0.62,0 c 0.14,-0.71 0.31,-1.42 0.52,-2.1 l 0.17,0.04 c -0.18,1.11 -0.32,2.22 -0.35,3.331 0,0.31 0,0.609 0.01,0.92 l 0.01,0.17 c 0.04,0.8 0.17,1.59 0.44,2.279 0.1,0.24 0.23,0.46 0.36,0.58 0.04,0.051 0.08,0.07 0.11,0.07 0.01,0.01 0.02,0.01 0.02,0.01 0,-0.01 -0.01,-0.01 -0.01,-0.01 l 0,-0.01 c 0.06,-0.05 0.17,-0.271 0.21,-0.48 0.06,-0.229 0.13,-0.59 0.2,-0.859 0.29,-1.15 0.63,-2.261 0.97,-3.38 0.69,-2.221 1.41,-4.42 2.03,-6.63 0.3,-1.11 0.61,-2.22 0.78,-3.28 0.04,-0.26 0.07,-0.52 0.07,-0.73 0.01,-0.09 -0.06,-0.53 -0.07,-0.83 -0.02,-0.65 0.01,-1.25 0.05,-1.85 0.22,-2.25 0.61,-4.41 1.21,-6.58 0,-0.09 0.02,-0.18 0.02,-0.26 0.03,-1.83 0.3,-2.9 0.64,-4.26 0.14,-0.58 0.3,-1.21 0.47,-1.99 -0.11,-0.01 -0.24,-0.02 -0.37,-0.05 l -0.64,-0.16 0.33,-0.57 c 0.28,-0.51 0.91,-1.26 1.64,-2.14 1.32,-1.59 3.32,-3.99 3.2,-5.01 -0.01,-0.12 -0.06,-0.18 -0.11,-0.22 l -0.25,-0.18 0.06,-0.3 c 0.19,-1.04 0.79,-1.91 1.38,-2.74 0.47,-0.67 0.92,-1.31 1.17,-2.02 -0.06,0 -0.11,0 -0.17,0 -0.15,0.01 -0.31,0.01 -0.47,0.02 l -0.66,0.04 0.14,-0.65 c 0.24,-1.01 0.88,-1.78 1.51,-2.53 0.68,-0.81 1.28,-1.53 1.34,-2.47 -0.17,0 -0.36,-0.01 -0.57,-0.08 l -0.4,-0.12 0.05,-0.41 c 0.12,-1.11 0.75,-2 1.35,-2.86 0.24,-0.33 0.46,-0.65 0.65,-0.97 l -0.73,-0.23 0.61,-0.59 c 0.73,-0.7 1.86,-2.11 2.1,-3.06 0.07,-0.26 -0.01,-0.44 -0.16,-0.74 -0.15,-0.32 -0.36,-0.75 -0.18,-1.27 0.31,-0.87 0.92,-1.61 1.5,-2.33 0.55,-0.66 1.07,-1.3 1.31,-1.97 -0.07,-0.01 -0.13,-0.01 -0.2,-0.01 l -2.11,-0.07 1.51,-0.88 c 1.05,-0.61 1.73,-1.5 1.89,-2.46 -0.06,-0.01 -0.11,-0.02 -0.17,-0.03 l -0.77,-0.19 0.5,-0.61 c 0.24,-0.31 0.69,-0.68 1.22,-1.12 0.99,-0.83 2.66,-2.22 2.49,-3.03 -0.07,-0.35 -0.56,-0.67 -1.38,-0.91 l -1.09,-0.33 0.97,-0.58 c 1,-0.6 2.19,-1.97 2.17,-2.37 -0.01,0.01 -0.07,0 -0.21,0 -0.22,0 -0.63,0.03 -1.33,0.21 l -0.65,0.17 0.03,-0.68 c 0.03,-0.83 0.71,-2.04 1.56,-3.26 l 0.07,-0.52 c 0.1,-0.79 0.17,-1.74 -0.15,-2.03 -0.26,-0.23 -0.92,-0.22 -1.96,0.04 l -1.52,0.37 1.02,-1.19 c 1.01,-1.17 0.91,-1.48 0.91,-1.48 0,0 -0.17,-0.25 -1.61,-0.21 l -1.42,0.05 1.08,-0.93 c 2.12,-1.81 2.14,-2.72 1.37,-4.06 l -0.25,-0.42 0.34,-0.21 c -0.07,-0.17 -0.39,-0.68 -1.77,-1.8 l -1.31,-1.06 1.68,0.18 c 1.48,0.16 1.97,-0.03 2.12,-0.22 0.28,-0.36 -0.15,-1.56 -0.34,-2.1 l -1.65,0.24 1.37,-1 -0.02,-0.07 0.09,0.02 0.19,-0.14 c 0.88,-0.64 1.35,-1.28 1.31,-1.76 -0.04,-0.44 -0.57,-0.89 -1.73,-1.47 l -1.48,-0.75 1.65,-0.19 c 1.32,-0.16 2.02,-0.41 2.28,-0.8 0.32,-0.46 0.15,-1.4 -0.19,-2.67 l -0.53,-1.93 1.37,1.45 c 0.19,0.2 0.32,0.31 0.41,0.38 0.03,-0.17 0.05,-0.48 0.03,-1.06 l -0.02,-0.45 0.44,-0.06 c 0.3,-0.05 0.64,-0.62 0.68,-1.41 0.05,-0.86 -0.3,-1.71 -1.1,-2.66 l -0.77,-0.91 1.18,0.09 c 0.5,0.03 2,0.15 2.31,-0.26 0.29,-0.39 -0.2,-1.71 -0.36,-2.14 l -0.78,-2.09 1.59,1.55 c 0.38,0.37 0.63,0.58 0.79,0.69 -0.01,-0.2 -0.04,-0.52 -0.15,-1.05 l -0.12,-0.61 -1.3,-0.49 2.4,-0.11 c 1.4,-0.07 2.13,-0.31 2.15,-0.74 l 0.02,-0.26 0.22,-0.13 c 0.18,-0.12 0.33,-0.47 -0.56,-2.17 l -0.93,-1.77 1.65,1.13 c 1.21,0.82 1.69,0.94 1.88,0.91 0.02,-0.01 0.05,-0.01 0.09,-0.07 l 0.16,-0.24 0.29,0.02 c 0.271,0.01 0.51,-0.47 0.74,-1.63 -0.03,-0.17 -0.07,-0.37 -0.11,-0.58 l -0.31,-1.45 0.689,0.6 0.53,-2.82 0.22,3.44 c 0.521,0.38 0.82,0.42 0.971,0.4 0.069,-0.01 0.18,-0.04 0.29,-0.16 -0.061,-0.16 -0.21,-0.44 -0.48,-0.85 l 0.82,-0.57 c 0.64,0.94 1.75,1.63 5.21,-0.32 l 0.38,-0.21 0.27,0.35 c 0.721,0.95 2.311,0.78 2.32,0.78 l 0.07,0.45 0.279,0.47 c -0.05,0.03 -0.18,0.06 -0.35,0.07 -0.64,0.07 -1.95,-0.03 -2.83,-0.84 -1.53,0.82 -3.27,1.52 -4.689,1.02 -0.011,0.03 -0.021,0.05 -0.03,0.07 l -0.16,0.28 -0.09,0 c -0.25,0.26 -0.55,0.41 -0.89,0.45 -0.311,0.04 -0.65,-0.02 -1,-0.18 0,0.03 0,0.05 0,0.08 0.1,0.64 0.02,0.71 -0.141,0.84 l -0.229,0.19 -0.091,-0.04 c -0.239,0.6 -0.59,1.08 -1.189,1.15 -0.16,0.14 -0.34,0.24 -0.55,0.28 -0.34,0.06 -0.73,0 -1.24,-0.24 0.22,0.69 0.25,1.39 -0.26,1.86 -0.16,0.73 -0.85,1.08 -1.57,1.25 0.12,0.15 0.16,0.27 0.18,0.38 0.03,0.22 -0.05,0.44 -0.23,0.58 -0.31,0.24 -0.85,0.2 -1.36,0.07 0.09,0.76 0.01,1.23 -0.39,1.45 -0.24,0.13 -0.5,0.12 -0.79,-0.01 0.12,0.64 0.07,1.15 -0.23,1.56 -0.4,0.53 -1.13,0.7 -2.12,0.7 0.52,0.84 0.75,1.65 0.7,2.49 -0.05,0.89 -0.4,1.83 -1.09,2.2 0.01,0.83 -0.07,1.54 -0.61,1.77 -0.14,0.06 -0.28,0.07 -0.42,0.05 0.17,0.96 0.14,1.68 -0.24,2.24 -0.3,0.46 -0.81,0.77 -1.63,0.99 0.59,0.42 1.02,0.92 1.08,1.57 0.04,0.44 -0.09,1.07 -0.77,1.82 0.16,0.07 0.28,0.16 0.36,0.29 0.13,0.2 0.13,0.45 -0.01,0.65 -0.13,0.2 -0.37,0.33 -0.7,0.37 0.29,0.94 0.42,1.8 -0.05,2.39 -0.3,0.39 -0.79,0.6 -1.56,0.65 0.79,0.76 1.12,1.3 1.08,1.77 0,0.11 -0.03,0.21 -0.08,0.31 0.84,1.68 0.39,2.89 -0.84,4.16 0.59,0.09 1.08,0.29 1.29,0.74 0.2,0.41 0.12,0.9 -0.28,1.54 0.73,-0.05 1.24,0.08 1.6,0.41 0.43,0.38 0.57,0.96 0.56,1.73 0.07,-0.1 0.15,-0.2 0.22,-0.29 l 0.14,-0.18 0.79,0.61 -0.03,0.04 c 0.23,0.14 0.42,0.36 0.58,0.62 0.56,-0.54 1.24,-0.63 2.12,-0.29 0.51,-1.6 1.51,-2.7 3.4,-3.75 -0.06,-0.77 0.05,-1.58 0.45,-1.97 0.12,-0.65 0.3,-1.25 0.63,-1.66 -0.07,-0.5 -0.16,-1 -0.24,-1.51 l 0.18,-0.03 0.3,1.33 c 0.09,-0.07 0.17,-0.15 0.28,-0.19 0.43,-0.17 0.88,-0.07 1.3,0.12 -0.09,-1.64 0.02,-3.02 0.359,-4.27 0.37,-1.43 1,-2.59 1.86,-3.45 -0.07,-0.59 -0.03,-1.23 0.45,-1.55 0.2,-0.13 0.41,-0.16 0.64,-0.14 -0.22,-0.85 -0.229,-1.54 0.16,-2.06 0.29,-0.4 0.77,-0.64 1.52,-0.74 -0.51,-0.49 -0.789,-0.96 -0.75,-1.48 0.04,-0.48 0.341,-0.86 0.851,-1.22 -0.22,-0.11 -0.37,-0.26 -0.44,-0.48 -0.12,-0.38 0.08,-0.74 0.431,-1.09 -0.061,-0.07 -0.101,-0.14 -0.141,-0.21 -0.189,-0.41 -0.01,-0.94 0.471,-1.45 0.149,-1.08 0.569,-2.28 2.199,-2.79 -0.63,-1.93 0.19,-3.14 1.17,-4.07 0.141,-1.14 1.07,-2.1 1.761,-2.66 -0.15,-1.89 0.319,-3.4 0.899,-3.72 0.03,-0.02 0.07,-0.04 0.101,-0.05 l 0.3,0.964 z m -49.65,124.61 c 0.22,-2.221 -0.14,-5.74 -0.66,-7.66 l -0.18,-0.66 0.68,0.03 c 0.04,0 0.07,0.01 0.12,0.02 -0.01,-0.26 -0.01,-0.52 -0.01,-0.779 l 0,-0.62 c -0.89,0.58 -1.72,1.22 -2.59,1.89 -0.54,0.42 -1.08,0.84 -1.65,1.25 0.24,1.1 -0.33,1.93 -1.02,2.64 l 3.9,-1.63 -3.96,2.73 c -1.49,1.03 -3.06,2.729 -4.08,4.34 0.11,-0.04 0.21,-0.08 0.31,-0.12 l 1.7,-0.81 -1.08,1.54 c -1.57,2.25 -4.39,6.27 -4.52,9.989 0.12,-0.09 0.22,-0.18 0.31,-0.279 l 2.31,-2.601 -1.48,3.141 c -0.33,0.689 -0.68,1.369 -1.01,2.02 -1.42,2.771 -2.65,5.15 -1.8,7.561 l 0.07,0.21 -0.1,0.189 c -0.56,1.11 -0.88,2.34 -0.97,3.72 l 0.32,-0.029 0.02,0.529 c 0.04,1.101 0.82,2.61 1.7,3.71 0.01,-0.029 0.01,-0.06 0.02,-0.079 l 0.23,-1.44 0.71,1.24 c 0.53,0.97 1.46,1.59 2.44,2.239 0.13,0.091 0.27,0.181 0.4,0.271 0.03,-0.06 0.05,-0.12 0.07,-0.18 0.07,-0.181 0.13,-0.341 0.14,-0.48 l 0.1,-1 0.74,0.69 c 0.93,0.87 2.25,1.43 3.43,1.87 0.02,-0.181 0.05,-0.36 0.05,-0.521 l 0,-1.66 0.91,1.38 c 0.91,1.36 2.59,2.091 4.02,2.271 -0.02,-1.271 -0.72,-2.5 -1.41,-3.7 -0.13,-0.229 -0.26,-0.46 -0.38,-0.69 l -1.39,-2.529 2.16,1.92 c 0.1,0.09 0.22,0.18 0.34,0.26 -0.05,-0.4 -0.17,-0.77 -0.32,-1.14 -0.54,-0.32 -0.98,-0.63 -1.18,-0.86 l 0.49,-0.45 c -0.02,-0.029 -0.04,-0.069 -0.06,-0.109 -0.48,-0.811 -0.97,-1.641 -1.18,-2.641 l -0.14,-0.66 0.67,0.061 c 0.18,0.01 0.36,0.05 0.54,0.09 0.17,-2.18 -0.28,-4.84 -1.13,-6.65 l -0.9,-1.92 1.67,1.32 c 0.12,0.09 0.29,0.19 0.47,0.29 0.01,-0.82 -0.24,-1.69 -0.49,-2.6 -0.36,-1.29 -0.73,-2.631 -0.44,-4.011 l 0.18,-0.859 0.65,0.6 c 0.13,0.12 0.34,0.23 0.55,0.351 0.08,-0.891 0.22,-1.82 0.37,-2.79 0.42,-2.83 0.85,-5.761 -0.05,-8.061 l -0.93,-2.35 1.75,1.819 c 0.14,0.147 0.36,0.277 0.57,0.387 z"
             id="path16-7" /><path
             style="fill:#878787"
             inkscape:connector-curvature="0"
             d="m 270.94,224.77 c 0.569,2.41 1.159,4.83 1.72,7.25 -2.22,-0.25 -3.21,-0.06 -5.271,0.801 0.011,-0.03 0.011,-0.051 0.021,-0.08 0.05,-0.351 0.1,-0.67 0.2,-0.95 l 0.3,-0.85 -0.88,0.199 c -0.601,0.13 -1.311,0.45 -2.061,0.78 -1.26,0.57 -2.83,1.26 -3.62,0.88 -0.28,-0.14 -0.47,-0.42 -0.58,-0.88 l -0.12,-0.49 -0.49,0.13 c -0.55,0.141 -1.05,0.391 -1.53,0.631 -0.72,0.369 -1.41,0.71 -2.19,0.64 -0.14,-0.37 -0.36,-0.71 -0.56,-1.01 -0.18,-0.261 -0.34,-0.5 -0.39,-0.681 l -0.37,-1.21 -0.56,1.13 c -0.31,0.641 -0.81,1.16 -1.36,1.49 -0.04,-0.28 -0.12,-0.55 -0.19,-0.8 -0.08,-0.27 -0.15,-0.55 -0.15,-0.71 l 0,-0.76 -0.7,0.29 c -0.85,0.359 -3.73,1.39 -5.1,-0.4 l -0.46,-0.61 -0.37,0.671 c -0.63,1.13 -1.79,1.949 -2.29,1.81 -0.26,-0.07 -0.42,-0.54 -0.42,-1.271 l -0.01,-3.779 -0.98,3.649 c -0.25,0.95 -0.83,1.41 -1.26,1.38 -0.41,-0.039 -0.7,-0.52 -0.77,-1.27 l -0.07,-0.83 -0.7,0.45 c -0.38,0.25 -0.92,0.51 -1.32,0.31 -0.35,-0.16 -0.59,-0.66 -0.66,-1.359 l -0.09,-0.801 -0.68,0.44 c -0.97,0.61 -1.07,0.68 -1.93,0.01 l -0.61,-0.47 -0.18,0.75 c -0.2,0.84 -0.85,1.47 -1.64,1.61 -0.69,0.109 -1.33,-0.19 -1.74,-0.82 l -0.58,-0.9 -0.32,1.021 c -0.27,0.87 -0.77,1.479 -1.33,1.63 -0.52,0.14 -0.96,-0.14 -1.25,-0.4 l -0.93,-0.85 0.1,1.26 c 0.01,0.17 -0.08,0.48 -0.16,0.73 -0.01,0.05 -0.03,0.1 -0.04,0.16 -0.58,-0.221 -1.23,-0.54 -1.77,-0.851 -0.21,-0.43 -0.44,-0.84 -0.68,-1.24 -0.32,-0.529 -0.62,-1.05 -0.84,-1.59 0.08,0.01 0.16,0.03 0.24,0.04 l 0.5,0.07 0.07,-0.5 c 0.25,-1.97 0.01,-4.33 -0.61,-6.3 l 0.49,0.37 0.18,-0.75 c 0.29,-1.28 -0.07,-2.561 -0.42,-3.811 -0.26,-0.96 -0.52,-1.88 -0.5,-2.78 0.04,0.03 0.08,0.051 0.12,0.07 0.18,0.1 0.36,0.19 0.49,0.29 l 0.76,0.6 0.05,-0.97 c 0.05,-1.08 0.23,-2.26 0.41,-3.5 0.37,-2.47 0.75,-5.01 0.28,-7.26 0.07,0.04 0.12,0.07 0.14,0.09 l 0.66,0.561 0.16,-0.851 c 0.24,-1.27 0.22,-3.229 0.04,-5.09 0.06,0.08 0.1,0.17 0.17,0.25 0.13,0.15 0.32,0.31 0.6,0.38 0.27,0.09 0.62,0 0.82,-0.16 0.41,-0.319 0.53,-0.67 0.65,-1.01 0.09,-0.32 0.15,-0.54 0.24,-0.82 0.36,-1.08 0.79,-2.16 1.19,-3.25 0.81,-2.18 1.62,-4.36 2.34,-6.6 0.36,-1.12 0.7,-2.24 0.93,-3.47 0.05,-0.32 0.1,-0.63 0.1,-1 0,-0.5 -0.05,-0.63 -0.04,-0.91 -0.01,-0.52 0.03,-1.08 0.08,-1.63 0.19,-1.98 0.55,-3.99 1.03,-5.93 -0.22,-1.86 -0.06,-3.76 0.47,-5.54 l -0.53,0.95 c -0.07,0.13 -0.14,0.26 -0.21,0.38 0.07,-0.28 0.14,-0.57 0.22,-0.88 0.18,-0.71 0.38,-1.52 0.58,-2.57 l 0.08,-0.41 -0.38,-0.15 c -0.05,-0.02 -0.09,-0.03 -0.14,-0.05 0.3,-0.38 0.69,-0.85 1.09,-1.33 2.03,-2.45 3.57,-4.43 3.42,-5.76 -0.02,-0.25 -0.11,-0.47 -0.25,-0.66 0.19,-0.73 0.66,-1.39 1.16,-2.09 0.64,-0.91 1.3,-1.85 1.49,-3.06 l 0.1,-0.65 -0.65,0.07 c -0.18,0.02 -0.36,0.03 -0.54,0.04 0.26,-0.51 0.65,-0.98 1.06,-1.47 0.81,-0.97 1.73,-2.06 1.56,-3.63 l -0.04,-0.36 -0.35,-0.08 c -0.14,-0.03 -0.28,-0.04 -0.41,-0.04 0.2,-0.66 0.62,-1.27 1.07,-1.91 0.38,-0.53 0.76,-1.08 1.03,-1.68 l 0.26,-0.61 -0.24,-0.03 c 0.71,-0.82 1.5,-1.93 1.73,-2.84 0.17,-0.64 -0.06,-1.1 -0.23,-1.44 -0.13,-0.27 -0.18,-0.38 -0.13,-0.5 0.24,-0.7 0.77,-1.34 1.33,-2.03 0.75,-0.91 1.52,-1.86 1.65,-3.04 l 0.06,-0.57 -0.3,0.01 c 0.79,-0.8 1.23,-1.79 1.24,-2.81 l 0.01,-0.43 -0.05,0 c 0.14,-0.12 0.28,-0.24 0.43,-0.36 1.39,-1.16 3.12,-2.6 2.83,-4 -0.11,-0.55 -0.5,-0.99 -1.19,-1.33 0.94,-0.79 2.2,-2.12 1.81,-3.04 -0.27,-0.65 -1.1,-0.69 -1.92,-0.55 0.3,-0.73 1,-1.82 2.05,-3.21 l 0.02,0 c 0.09,0.02 0.28,0.17 0.62,0.95 l 0.39,0.9 0.5,-0.85 c 0.41,-0.68 0.72,-0.94 1.88,-0.32 l 0.58,0.31 0.14,-0.64 c 0.39,-1.72 1.29,-2.76 3.35,-3.85 l 0.32,-0.17 -0.06,-0.35 c -0.12,-0.74 0.02,-1.35 0.07,-1.43 l 0.26,-0.11 0.04,-0.27 c 1.09,6.74 2.34,13.43 3.911,20.09 0.25,0.98 0.5,1.95 0.779,2.93 0.271,0.97 0.62,1.96 0.94,2.88 0.64,1.87 1.229,3.77 1.7,5.68 0.449,1.9 0.85,3.85 0.85,5.72 -0.02,0.95 -0.13,1.8 -0.53,2.56 -0.439,0.85 -0.96,1.73 -1.43,2.62 -1.91,3.58 -3.34,7.42 -4.2,11.37 -0.87,3.96 -1.2,8 -1.14,12.02 0.03,4.02 0.53,8.02 1.189,11.97 0.67,3.95 1.341,7.899 2.131,11.83 1.521,7.871 3.321,15.671 5.211,23.451 z"
             id="path18-9" /></g><g
           id="g20" /></g></g></g></svg>