<?xml version="1.0" encoding="UTF-8" standalone="no"?>
<!-- Created with Inkscape (http://www.inkscape.org/) -->

<svg
   xmlns:dc="http://purl.org/dc/elements/1.1/"
   xmlns:cc="http://creativecommons.org/ns#"
   xmlns:rdf="http://www.w3.org/1999/02/22-rdf-syntax-ns#"
   xmlns:svg="http://www.w3.org/2000/svg"
   xmlns="http://www.w3.org/2000/svg"
   xmlns:sodipodi="http://sodipodi.sourceforge.net/DTD/sodipodi-0.dtd"
   xmlns:inkscape="http://www.inkscape.org/namespaces/inkscape"
   id="svg2"
   version="1.1"
   inkscape:version="0.91 r13725"
   width="308"
   height="672"
   xml:space="preserve"
   sodipodi:docname="sc-w-1-3-linning.svg"><metadata
     id="metadata8"><rdf:RDF><cc:Work
         rdf:about=""><dc:format>image/svg+xml</dc:format><dc:type
           rdf:resource="http://purl.org/dc/dcmitype/StillImage" /><dc:title /></cc:Work></rdf:RDF></metadata><defs
     id="defs6" /><sodipodi:namedview
     pagecolor="#ffffff"
     bordercolor="#666666"
     borderopacity="1"
     objecttolerance="10"
     gridtolerance="10"
     guidetolerance="10"
     inkscape:pageopacity="0"
     inkscape:pageshadow="2"
     inkscape:window-width="1920"
     inkscape:window-height="1015"
     id="namedview4"
     showgrid="false"
     inkscape:zoom="1.2276786"
     inkscape:cx="15.120003"
     inkscape:cy="336"
     inkscape:window-x="0"
     inkscape:window-y="0"
     inkscape:window-maximized="1"
     inkscape:current-layer="g10" /><g
     id="g10"
     inkscape:groupmode="layer"
     inkscape:label="ink_ext_XXXXXX"
     transform="matrix(1.25,0,0,-1.25,0,672.00001)"><path
       id="path12"
       d="m 54.078902,268.27813 c 0.212108,-0.24474 0.522114,-0.5058 0.978963,-0.62001 0.440534,-0.14685 1.011596,0 1.337918,0.26106 0.668958,0.52048 0.864751,1.09317 1.060544,1.64792 0.146844,0.52211 0.244741,0.88107 0.391585,1.33792 0.587379,1.76213 1.288969,3.52427 1.941612,5.30272 1.321601,3.5569 2.643202,7.1138 3.817959,10.7686 0.587378,1.8274 1.142124,3.6548 1.517394,5.66167 0.08158,0.52212 0.163161,1.02791 0.163161,1.63161 0,0.8158 -0.08158,1.02791 -0.06526,1.48476 -0.01632,0.84844 0.04895,1.76214 0.130529,2.65952 0.342637,3.63848 1.044228,7.35854 1.974244,10.88281 0.244741,0.88107 0.505798,1.72951 0.848435,2.46373 0.391585,0.8158 0.815803,1.66424 1.256337,2.49636 l 2.626886,5.00903 2.577938,4.81324 c 0.293689,2.62688 1.044228,5.23745 2.267933,7.7175 0.620011,1.24002 1.191073,2.51267 1.745819,3.80164 -0.636327,-1.02791 -1.256337,-2.07214 -1.876347,-3.10005 2.431093,5.13956 4.780606,10.42596 5.939047,15.97342 l 0.114212,0.55475 -0.489482,0.29369 c -0.01632,0.0163 -0.03263,0.0326 -0.04895,0.0326 0.358954,0.62001 0.766855,1.25634 1.158441,1.86003 1.386865,2.15372 2.806363,4.37271 2.936891,7.01591 l 0.03263,0.70159 -0.652642,0.13053 c 0.212109,0.45685 0.473166,0.93002 0.734223,1.4195 0.848435,1.55002 1.794767,3.29584 1.53371,5.49851 l -0.06526,0.48948 -0.45685,0.17948 c -0.0979,0.0326 -0.195793,0.0653 -0.277373,0.0816 0.130528,0.21211 0.277373,0.42422 0.424217,0.63633 1.582659,2.36583 3.703747,5.54746 1.843716,7.58697 0.228424,0.34263 0.505798,0.7179 0.783171,1.10949 1.517394,2.1374 3.556902,5.00903 1.908979,7.01591 1.647923,2.92057 2.235301,5.54746 1.778451,7.99487 l -0.228425,1.20739 -1.027912,-0.66896 c -0.391585,-0.26106 -0.962648,-0.37527 -1.53371,-0.47317 0.195793,0.70159 0.440534,1.38687 0.668959,2.07214 0.734223,2.13741 1.501078,4.35639 1.060544,7.08117 l -0.08158,0.53843 -0.522114,0.13053 c -0.310006,0.0653 -0.587379,0.0816 -0.83212,0.0816 0.163161,1.8274 1.223705,4.1606 1.794767,5.05798 0.179477,-0.0489 0.358954,-0.0653 0.489482,-0.0653 l 0.01632,0 c 0.897384,0.0163 1.827399,0.55474 2.577938,1.35423 l -0.06526,-1.33792 1.207389,0.55475 c 2.300565,1.02791 3.622162,3.0511 4.911132,5.02535 0.14685,0.22842 0.31001,0.47316 0.47317,0.7179 0,-0.0163 0,-0.0489 0,-0.0653 l -0.0653,-1.59897 1.32161,0.88106 c 1.45213,0.94634 2.72478,2.36583 3.62216,3.94849 l 0.16316,-1.09318 1.15844,1.20739 c 0.53843,0.57107 1.02792,1.19108 1.46845,1.87635 l 0.0816,-0.0653 c 1.97424,-12.92233 4.27481,-25.77938 7.29328,-38.53855 0.4079,-1.59897 0.8158,-3.18163 1.27265,-4.7806 0.44054,-1.58266 1.0116,-3.19795 1.53371,-4.69903 1.04423,-3.0511 2.00688,-6.15116 2.77373,-9.26752 0.73423,-3.10006 1.38687,-6.28169 1.38687,-9.33279 -0.0326,-1.55003 -0.21211,-2.93689 -0.86475,-4.17692 -0.71791,-1.38686 -1.56634,-2.82267 -2.3332,-4.2748 -3.11637,-5.84115 -5.44956,-12.10652 -6.85275,-18.55137 -1.41949,-6.46116 -1.95792,-13.05285 -1.86003,-19.61191 0.049,-6.55906 0.86475,-13.08548 1.94161,-19.53033 0.76686,-4.55218 1.56635,-9.08641 2.41478,-13.62391 l -0.70159,-0.13053 -0.13053,0.66896 -0.31,-0.0653 c -0.4079,-0.0816 -1.06055,-0.21211 -1.74582,-0.32633 -0.0163,0.049 -0.049,0.0979 -0.0653,0.14685 -0.13052,0.27737 -0.27737,0.57269 -0.45685,0.79949 l -0.29368,0.37363 -0.47317,-0.0653 c -2.20267,-0.32469 -2.38215,-0.35895 -3.32848,0.94633 l -1.51739,2.12272 0.0326,-2.6122 c 0.0326,-1.30529 -0.65264,-2.30057 -1.33792,-2.70847 -0.35895,-0.21211 -0.70159,-0.25942 -0.93001,-0.13053 -0.34264,0.1958 -0.53843,0.79949 -0.55475,1.64956 l -1.63161,0.0653 c -0.14684,-1.64955 -1.20738,-2.80799 -1.82739,-2.83899 -0.52212,-0.11421 -0.83212,0.99528 -0.9137,1.3216 l -1.0116,4.22586 -0.587378,-4.30744 c -0.37527,-2.839 -3.165316,-2.96952 -3.98112,-2.93689 -2.202668,0.0653 -4.552182,1.37055 -4.699026,3.44269 l -0.195793,2.62525 -1.321601,-2.28262 c -1.158441,-1.97424 -4.14428,-4.79692 -5.775887,-4.52118 -0.636326,0.11422 -1.07686,0.79949 -1.321601,2.05583 l -0.440534,2.34951 -1.07686,-2.13904 c -0.930015,-1.80945 -2.398461,-2.96789 -3.948487,-3.11473 -1.337918,-0.0995 -2.545306,0.53843 -3.52427,1.86003 l -0.522114,0.68527 -0.668959,-0.55474 c -0.53843,-0.45685 -1.060544,-0.96265 -1.566342,-1.45213 -0.978964,-0.96428 -1.908979,-1.87635 -3.002156,-2.38215 -0.01632,0.0979 -0.01632,0.19416 -0.01632,0.29369 -0.04895,0.53843 -0.0979,1.02791 -0.01632,1.48476 l -1.598974,0.35896 c -0.326321,-1.12581 -1.011596,-2.52899 -2.365829,-2.75742 -1.337918,-0.24311 -3.002156,0.71791 -4.242177,2.4311 l -0.799487,1.09317 -0.603695,-1.2237 c -0.146844,-0.32632 -0.636326,-0.76686 -1.060544,-1.15844 -0.179476,-0.16316 -0.342637,-0.32632 -0.505798,-0.48949 -0.06526,0.0653 -0.114212,0.11422 -0.16316,0.16317 -0.342638,0.34263 -0.685275,0.70322 -0.864752,1.07686 l -0.554746,1.20738 -0.832119,-1.02791 c -0.407902,-0.52211 -0.881068,-0.63632 -1.468446,-0.78317 -0.06526,-0.0326 -0.130528,-0.0473 -0.212109,-0.0653 -0.01632,0.21374 -0.06526,0.42585 -0.16316,0.65264 l -0.668959,1.59897 -0.799487,-1.53371 c -0.163161,-0.31 -0.766855,-0.85006 -1.240021,-1.28897 -0.04895,-0.0489 -0.0979,-0.0816 -0.146845,-0.13052 -0.179476,1.07686 -0.130528,2.25161 0.195793,3.42637 l 1.011596,3.68906 -2.431093,-2.95484 c -0.734223,-0.89738 -1.696871,-1.80945 -2.610571,-2.51267 0.310006,1.35423 1.093177,2.57794 1.892664,3.83591 0.930015,1.43581 1.876347,2.90262 2.137404,4.66476 l 0.244741,1.53371 c 1.027912,1.28897 2.153721,2.41314 2.790047,2.87163 l 0.930016,-0.17785 c -0.179477,-0.79949 -0.310006,-1.59897 -0.407902,-2.41478 -0.195793,-1.92529 -0.310005,-3.89954 0.326321,-5.90641 0.179477,-0.5058 0.391586,-1.0116 0.815804,-1.50108 z"
       inkscape:connector-curvature="0"
       style="fill:#9d9d9c" /><g
       id="g22"
       transform="matrix(1.6316064,0,0,-1.6316064,-148.74609,591.69515)" /></g></svg>