<?xml version="1.0" encoding="UTF-8" standalone="no"?>
<!-- Created with Inkscape (http://www.inkscape.org/) -->

<svg
   xmlns:dc="http://purl.org/dc/elements/1.1/"
   xmlns:cc="http://creativecommons.org/ns#"
   xmlns:rdf="http://www.w3.org/1999/02/22-rdf-syntax-ns#"
   xmlns:svg="http://www.w3.org/2000/svg"
   xmlns="http://www.w3.org/2000/svg"
   xmlns:sodipodi="http://sodipodi.sourceforge.net/DTD/sodipodi-0.dtd"
   xmlns:inkscape="http://www.inkscape.org/namespaces/inkscape"
   id="svg2"
   version="1.1"
   inkscape:version="0.91 r13725"
   width="308"
   height="672"
   xml:space="preserve"
   sodipodi:docname="sc-w-3-2-linning.svg"><metadata
     id="metadata8"><rdf:RDF><cc:Work
         rdf:about=""><dc:format>image/svg+xml</dc:format><dc:type
           rdf:resource="http://purl.org/dc/dcmitype/StillImage" /><dc:title /></cc:Work></rdf:RDF></metadata><defs
     id="defs6" /><sodipodi:namedview
     pagecolor="#ffffff"
     bordercolor="#666666"
     borderopacity="1"
     objecttolerance="10"
     gridtolerance="10"
     guidetolerance="10"
     inkscape:pageopacity="0"
     inkscape:pageshadow="2"
     inkscape:window-width="1920"
     inkscape:window-height="1015"
     id="namedview4"
     showgrid="false"
     inkscape:zoom="5.9161562"
     inkscape:cx="152.08423"
     inkscape:cy="630.18744"
     inkscape:window-x="0"
     inkscape:window-y="0"
     inkscape:window-maximized="1"
     inkscape:current-layer="g10" /><g
     id="g10"
     inkscape:groupmode="layer"
     inkscape:label="ink_ext_XXXXXX"
     transform="matrix(1.25,0,0,-1.25,0,672)"><path
       style="fill:#8f9190;fill-opacity:1;fill-rule:nonzero;stroke:none"
       d="M 165.60547 3.8554688 C 167.01027 10.359969 162.2231 15.669156 157.74414 8.9179688 C 158.80077 10.193156 158.87273 11.604669 159.45508 12.761719 C 157.44414 12.452481 155.01898 13.323872 152.92188 12.849609 C 154.07094 14.084834 154.43938 16.189906 155.11328 17.105469 C 153.05492 16.810131 150.41481 17.711162 148.34375 17.382812 C 149.18514 18.142012 150.27557 20.917619 150.76758 21.449219 C 148.46703 21.423219 146.52058 22.503728 144.23828 22.423828 C 146.09771 23.325478 147.6106 25.652975 149.05273 26.617188 C 145.26592 26.674562 142.37358 28.049234 143.60742 31.873047 C 141.14061 32.602722 139.43531 34.467491 137.19922 35.369141 C 138.71676 35.289266 140.59014 35.770697 142.10352 35.669922 C 140.23852 36.915572 138.3122 39.468384 136.24219 40.927734 C 136.09835 43.368647 135.94442 45.093609 133.59766 47.482422 C 135.35999 47.211397 137.12209 47.605172 138.84375 47.115234 C 136.77061 49.267747 134.79451 51.879275 133.57422 54.476562 C 134.83984 54.363563 136.45447 54.858169 137.7168 54.738281 C 136.89906 56.326194 137.05671 58.994006 135.56836 60.753906 C 136.1745 60.918944 137.05986 60.689859 137.74609 60.818359 C 136.70439 62.404522 136.25789 65.049503 134.46289 66.595703 C 135.11439 67.002241 136.11907 66.753819 136.85742 66.894531 C 137.52037 67.386194 136.46539 68.724894 137.11133 69.246094 C 138.13477 69.257344 139.32902 69.304372 140.3457 69.505859 C 138.85265 73.296684 140.59669 75.48775 144.7207 75.625 C 144.72695 76.085388 143.73765 76.658853 144.05664 76.978516 C 147.14783 79.984066 149.89165 82.630669 154.25195 82.597656 C 154.28463 82.83619 154.22549 83.016398 154.0918 83.148438 C 155.36869 82.348754 156.45562 82.641771 157.83008 80.972656 C 158.49947 82.198996 159.38195 82.853787 160.36328 83.097656 L 166.60547 80.357422 L 161.55664 72.683594 L 157.3125 62.892578 L 154.54688 55.728516 L 154.25 50.736328 L 152.67188 47.703125 L 150.49609 45.402344 L 148.74805 31.332031 L 152.54297 22.257812 L 159.51758 16.474609 L 166.44922 15.617188 L 169.58008 19.037109 L 172.85156 14.347656 C 174.15905 13.644844 176.98581 12.238391 178.75586 12.173828 C 180.15807 12.122668 181.97895 12.543106 183.76562 13.101562 C 182.94191 8.6416577 179.84246 5.8920993 176.29297 10.240234 C 175.71409 8.8208594 174.14504 7.8458969 173.63672 6.9199219 C 173.33129 7.6825844 173.8054 8.6451594 173.33789 9.3105469 C 171.75798 9.8161219 169.95789 9.2113906 168.38477 9.3066406 C 168.17975 8.5144406 168.50017 7.5582313 168.25391 6.8320312 C 167.55568 5.7357937 166.71162 4.6112063 165.60547 3.8554688 z M 188.27539 9.5 C 187.76283 10.276544 185.27808 12.073374 184.23047 13.240234 C 187.45821 14.297501 190.43945 15.755859 190.43945 15.755859 L 196.60156 20.886719 C 196.60156 20.886719 198.62005 24.214613 199.125 25.867188 C 199.62986 27.519738 199.7168 30.613281 199.7168 30.613281 C 199.7168 30.613281 200.55869 36.639409 200.07031 41.435547 C 199.58191 46.231709 197.46322 55.249431 195.8457 59.035156 C 194.2282 62.820869 192.41992 63.582031 192.41992 63.582031 L 185.30078 77.767578 L 187.16016 87.59375 L 188.16602 87.123047 C 189.67597 86.256815 193.61331 84.069084 195.44922 83.376953 C 194.95418 83.462795 194.39782 83.122161 194.37695 82.619141 C 195.55643 82.167441 196.58472 81.854334 197.72266 81.294922 C 196.56908 80.290747 196.43839 80.635509 195.98633 78.927734 C 200.82839 78.575059 204.74297 76.309334 201.32812 73.044922 C 202.28711 72.872922 203.64452 72.611253 204.60352 72.720703 C 204.62177 71.772141 203.86822 70.146441 203.95508 69.595703 C 204.96759 69.147478 206.33895 68.850403 207.27344 68.337891 C 206.42164 67.981741 205.68975 66.924484 203.9375 66.599609 C 205.17047 66.040197 207.73147 63.999259 209.01953 63.490234 C 208.27561 63.380734 207.49677 63.464106 206.77734 63.363281 C 208.20594 61.905681 209.43543 59.604822 210.75195 58.341797 C 209.44777 59.417197 207.77412 60.497384 206.58789 61.466797 C 208.13705 59.988347 209.95733 57.127647 211.79297 55.498047 C 210.36664 52.449072 209.18139 52.028591 211.36328 48.658203 C 210.37249 48.413241 210.08211 48.950909 209.21484 49.310547 C 210.07793 48.026672 210.43393 45.749047 211.38477 44.310547 C 210.82622 44.183734 209.56197 44.516344 209.14258 44.097656 C 210.72163 41.880844 210.96245 38.894037 211.58008 36.46875 C 210.83563 36.498375 210.11793 36.654312 209.42578 36.9375 C 209.79688 35.44515 209.15722 32.108419 209.83789 30.355469 C 208.83825 31.095556 207.64778 31.321556 206.41602 32.652344 C 207.23378 30.414694 207.25875 27.741684 208.17969 25.630859 C 207.21062 25.570109 205.80005 25.252816 205.17773 25.259766 C 205.72865 23.869916 206.02682 22.003209 206.39062 20.802734 C 205.05636 21.471584 203.71365 21.358878 202.30469 22.376953 C 202.75257 21.020116 202.26858 19.002166 202.86914 17.431641 C 201.22218 16.983403 200.00497 15.967903 197.91602 16.259766 C 197.75653 15.702091 198.10596 14.278672 197.66016 13.912109 C 195.78717 15.060472 194.29429 14.313719 192.5332 16.949219 C 193.00488 15.168481 192.22483 13.040478 192.44531 11.306641 C 191.0202 10.900116 190.19753 11.338694 189.05664 11.722656 C 188.71057 10.999931 189.49567 10.022937 188.27539 9.5 z "
       transform="matrix(0.8,0,0,-0.8,0,537.6)"
       id="path82" /></g></svg>